<?xml version="1.0" encoding="utf-8"?>
<!-- Generator: Adobe Illustrator 19.2.0, SVG Export Plug-In . SVG Version: 6.00 Build 0)  -->
<svg version="1.1" id="Layer_1" xmlns="http://www.w3.org/2000/svg" xmlns:xlink="http://www.w3.org/1999/xlink" x="0px" y="0px"
	 viewBox="0 0 200 200" style="enable-background:new 0 0 200 200;" xml:space="preserve">
<style type="text/css">
	.st0{fill:#E6E6E5;}
	.st1{fill:#CDCCCC;}
	.st2{fill:#FFC11B;}
	.st3{fill:#E97526;}
	.st4{fill:#1C89C9;}
	.st5{opacity:0.3;fill:#E97526;enable-background:new    ;}
	.st6{fill:#50ABD8;}
</style>
<g id="Layer_100">
	<path class="st0" d="M101.5,26.4C87,26.4,72.8,30,60.1,37v150.1c41.5,22.8,93.6,7.7,116.4-33.7s7.8-93.6-33.7-116.4
		C130.2,30.1,115.9,26.4,101.5,26.4z"/>
	<circle class="st1" cx="101.5" cy="112.1" r="50.2"/>
	<path class="st2" d="M66,53h6.1c6.7,0,13.1,2.7,17.8,7.4l0,0c4.7,4.7,7.4,11.1,7.4,17.8l0,0c0,8.4-3.4,16.6-9.3,22.5l-5.4,5.4l0,0
		c16.9,18.7,24.5,44,21,68.9l-0.1,0.4c-1.8,12.8-12.8,22.3-25.7,22.3H42.4c-12.9,0-23.9-9.5-25.7-22.3l-0.1-0.4
		c-3.6-24.9,4.1-50.2,21-68.9l0,0l-5.4-5.4c-6-6-9.3-14.1-9.3-22.5l0,0c0-6.7,2.7-13.1,7.4-17.8l0,0C35,55.7,41.4,53,48.1,53H66z"/>
	<rect x="45.3" y="41.2" class="st3" width="29.6" height="11.8"/>
	<path class="st4" d="M60.1,26.4L60.1,26.4c4.9,0,8.9,4,8.9,8.9v5.9l0,0H51.2l0,0v-5.9C51.2,30.4,55.2,26.4,60.1,26.4z"/>
	<g>
		<rect x="36.5" y="64.8" class="st3" width="32.5" height="5.9"/>
		<rect x="74.9" y="64.8" class="st3" width="5.9" height="5.9"/>
	</g>
	<g>
		<rect x="172.4" y="29.4" class="st4" width="17.7" height="5.9"/>
		<rect x="178.3" y="23.5" class="st4" width="5.9" height="17.7"/>
		<rect x="172.4" y="189" class="st4" width="17.7" height="5.9"/>
		<rect x="178.3" y="183.1" class="st4" width="5.9" height="17.7"/>
		<rect x="12.8" y="29.4" class="st4" width="17.7" height="5.9"/>
		<rect x="18.7" y="23.5" class="st4" width="5.9" height="17.7"/>
	</g>
	<path class="st5" d="M82.6,106.2l5.4-5.4c6-6,9.3-14.1,9.3-22.5c0-12.9-9.7-23.7-22.6-25.1c2,5.1,3,10.6,3,16.1
		c-0.1,11.6-4.4,22.7-12.3,31.2c11.8,9.9,18.6,24.4,18.8,39.7c0,28.6-23.9,52-54.4,54.4c3.8,2.1,8.1,3.2,12.4,3.2h35.5
		c12.9,0,23.9-9.5,25.7-22.3l0.1-0.4C107.2,150.2,99.5,124.9,82.6,106.2z"/>
	<path class="st4" d="M44.3,183.1c-7,0-12.7-5.7-12.7-12.7c0-0.5,0-1,0.1-1.5c2.4-20.7,9.4-56.8,28.3-56.8s25.9,36.1,28.3,56.8
		c0.8,6.9-4.1,13.2-11.1,14.1c-0.5,0.1-1,0.1-1.5,0.1L44.3,183.1L44.3,183.1z"/>
	<path class="st6" d="M88.4,168.9c-0.9-7.5-2.1-14.9-3.8-22.2l-2.4,2.4c-5.7,5.7-15,5.7-20.7,0s-15-5.7-20.7,0l-7.3,7.3
		c-0.8,4.5-1.4,8.8-1.8,12.5c-0.8,6.9,4.1,13.2,11.1,14.1c0.5,0.1,1,0.1,1.5,0.1h31.5c7,0,12.7-5.7,12.7-12.7
		C88.5,169.9,88.5,169.4,88.4,168.9z"/>
</g>
</svg>
