<?xml version="1.0" encoding="utf-8"?>
<!-- Generator: Adobe Illustrator 19.2.0, SVG Export Plug-In . SVG Version: 6.00 Build 0)  -->
<svg version="1.1" id="Layer_1" xmlns="http://www.w3.org/2000/svg" xmlns:xlink="http://www.w3.org/1999/xlink" x="0px" y="0px"
	 viewBox="0 0 200 200" style="enable-background:new 0 0 200 200;" xml:space="preserve">
<style type="text/css">
	.st0{fill:#3D4D5C;}
	.st1{fill:#CDCCCC;}
	.st2{fill:#EAEAEA;}
	.st3{fill:#379FD9;}
	.st4{fill:#54A6DC;}
	.st5{fill:#EC008C;}
</style>
<g id="Layer_46">
	<path class="st0" d="M31.4,176.5H17.5c-8.2,0-14.8-6.6-14.8-14.8v-50.4c0-8.2,6.6-14.8,14.8-14.8h13.9c1.3,0,2.4,1.1,2.4,2.4
		s-1.1,2.4-2.4,2.4H17.5c-5.5,0-10,4.5-10,10v50.4c0,5.5,4.5,10,10,10h13.9c1.3,0,2.4,1.1,2.4,2.4S32.8,176.5,31.4,176.5z"/>
	<path class="st1" d="M86.1,51.7v31.1L43.6,71.3V51.7c0-4.1,3.3-7.4,7.4-7.4h27.7C82.8,44.3,86.1,47.6,86.1,51.7z"/>
	<g>
		<path class="st2" d="M86.1,51.7v31.1L57.9,71.3V51.7c0-4.1,3.3-7.4,7.4-7.4h13.4C82.8,44.3,86.1,47.6,86.1,51.7z"/>
		<path class="st2" d="M137.8,118.3c-1.2,0-2.2-0.9-2.4-2c-0.2-1.3,0.7-2.5,2-2.7c7.9-1.1,7.9-3.9,7.9-5.2c0-0.5-0.1-1.3-1-2.2
			c-3.6-3.6-15.2-5.5-31.7-5.2l0,0c-1.3,0-2.4-1-2.4-2.3s1-2.4,2.3-2.4c12.8-0.2,29.3,0.8,35.1,6.6c1.6,1.6,2.5,3.5,2.5,5.6
			c0,8.2-9,9.5-12,9.9C138,118.3,137.9,118.3,137.8,118.3z"/>
		<path class="st2" d="M133.7,144.5c-1,0-2-0.7-2.3-1.7c-0.4-1.3,0.3-2.6,1.6-3c1.8-0.5,3.3-2.4,3.1-3.8c-0.2-1.4-2.5-3-8.4-3
			c-5.1,0-9.5-0.9-12.7-2.5c-3.4-1.7-5.3-4.3-5.3-7.1c0-1.6,0.7-4.8,5.5-7c3.4-1.6,8.2-2.4,13.9-2.4c1.3,0,2.4,1.1,2.4,2.4
			s-1.1,2.4-2.4,2.4c-6.4,0-10,1.1-11.9,2c-1.7,0.8-2.8,1.9-2.8,2.7c0,1.6,4,4.8,13.2,4.8c3.9,0,6.9,0.6,9.2,1.8
			c2.2,1.2,3.7,3.1,4,5.2c0.5,3.8-2.4,7.8-6.5,9C134.2,144.5,133.9,144.5,133.7,144.5z"/>
	</g>
	<path class="st3" d="M101.1,84.4v105.9c0,5.4-4.3,9.7-9.7,9.7H36.1c-5.4,0-9.7-4.3-9.7-9.7V84.4c0-7.2,5.9-13.1,13.1-13.1H88
		C95.2,71.3,101.1,77.2,101.1,84.4z"/>
	<path class="st4" d="M101.1,84.4v105.9c0,5.4-4.3,9.7-9.7,9.7H52.5c-5.4,0-9.7-4.3-9.7-9.7V84.4c0-7.2,5.9-13.1,13.1-13.1H88
		C95.2,71.3,101.1,77.2,101.1,84.4z"/>
	<path class="st3" d="M149.9,150v36.9c0,7.2-5.9,13.1-13.1,13.1H88.3c-7.2,0-13.1-5.9-13.1-13.1V150H149.9z"/>
	<path class="st4" d="M149.9,150v36.9c0,7.2-5.9,13.1-13.1,13.1h-31.4c-7.2,0-13.1-5.9-13.1-13.1V150H149.9z"/>
</g>
<g id="Layer_45">
	<g>
		<g>
			<path class="st5" d="M87.2,167.7v-33.6H89v-2.2c0,0-2.5-5.6-0.2-14.1c0-1.8,0-24.7,0-24.7l0,0c0,0,0,0,0-0.1
				c0-1.7-1.4-3.1-3.1-3.1s-3.1,1.4-3.1,3.1c0,0,0,0,0,0.1l0,0c0,0,0,22.5,0,24.6c1.8,10.3-0.4,14.2-0.4,14.2v2.2H84v33.6
				c-8.2,0.8-14.6,7.7-14.6,16.1c0,8.9,7.2,16.1,16.1,16.1s16.1-7.2,16.1-16.1C101.8,175.4,95.4,168.5,87.2,167.7z M82.4,174.4
				c0.6,0,1,0.5,1,1c0,0.6-0.5,1-1,1c-0.6,0-1-0.5-1-1S81.9,174.4,82.4,174.4z M80.6,170.8c0.6,0,1,0.5,1,1c0,0.6-0.5,1-1,1
				s-1-0.5-1-1C79.6,171.2,80,170.8,80.6,170.8z M82.2,184.2c0,0.6-0.5,1-1,1c-0.6,0-1-0.5-1-1c0-0.6,0.5-1,1-1
				S82.2,183.7,82.2,184.2z M79.6,176.2c0.6,0,1,0.5,1,1c0,0.6-0.5,1-1,1c-0.6,0-1-0.5-1-1C78.5,176.7,79,176.2,79.6,176.2z
				 M78.9,180.4c0,0.6-0.5,1-1,1c-0.6,0-1-0.5-1-1c0-0.6,0.5-1,1-1C78.5,179.4,78.9,179.9,78.9,180.4z M77.9,183.8c0,0.6-0.5,1-1,1
				c-0.6,0-1-0.5-1-1c0-0.6,0.5-1,1-1S77.9,183.2,77.9,183.8z M76.7,173.8c0.6,0,1,0.5,1,1c0,0.6-0.4,1-1,1s-1-0.5-1-1
				C75.7,174.2,76.1,173.8,76.7,173.8z M73.9,178.1c0.6,0,1,0.5,1,1c0,0.6-0.5,1-1,1c-0.6,0-1-0.5-1-1S73.3,178.1,73.9,178.1z
				 M71.7,184.1c0-0.6,0.5-1,1-1c0.6,0,1,0.5,1,1c0,0.6-0.5,1-1,1S71.7,184.6,71.7,184.1z M73.9,190.4c-0.6,0-1-0.5-1-1
				c0-0.6,0.5-1,1-1c0.6,0,1,0.5,1,1C74.9,190,74.5,190.4,73.9,190.4z M76.6,194c-0.6,0-1-0.5-1-1c0-0.6,0.5-1,1-1c0.6,0,1,0.4,1,1
				C77.6,193.6,77.2,194,76.6,194z M77.3,188.1c-0.6,0-1-0.5-1-1c0-0.6,0.5-1,1-1c0.6,0,1,0.5,1,1S77.8,188.1,77.3,188.1z
				 M78.6,190.4c0-0.6,0.5-1,1-1c0.6,0,1,0.5,1,1c0,0.6-0.5,1-1,1C79,191.4,78.5,191,78.6,190.4z M80.6,197c-0.6,0-1-0.5-1-1
				c0-0.6,0.5-1,1-1c0.6,0,1,0.5,1,1S81.1,197,80.6,197z M82.2,193.4c-0.6,0-1-0.5-1-1c0-0.6,0.5-1,1-1c0.6,0,1,0.4,1,1
				C83.2,192.9,82.7,193.4,82.2,193.4z M82.7,188.4c-0.6,0-1-0.5-1-1c0-0.6,0.5-1,1-1s1,0.5,1,1C83.7,188,83.2,188.4,82.7,188.4z
				 M82.7,182c-0.6,0-1-0.5-1-1c0-0.6,0.5-1,1-1s1,0.5,1,1S83.2,182,82.7,182z M94.4,180.1c0.6,0,1,0.5,1,1c0,0.6-0.5,1-1,1
				c-0.6,0-1-0.5-1-1S93.9,180.1,94.4,180.1z M91,170.9c0.6,0,1,0.4,1,1s-0.5,1-1,1c-0.6,0-1-0.5-1-1S90.5,170.9,91,170.9z
				 M89.4,174.8c0.6,0,1,0.5,1,1c0,0.6-0.5,1-1,1s-1-0.4-1-1S88.8,174.8,89.4,174.8z M90.6,183c0.6,0,1,0.4,1,1c0,0.5-0.5,1-1,1
				c-0.6,0-1-0.5-1-1S90.1,183,90.6,183z M89.1,179.8c0.6,0,1,0.4,1,1s-0.5,1-1,1c-0.6,0-1-0.5-1-1S88.5,179.8,89.1,179.8z
				 M85.9,91.8c1,0,1.7,0.8,1.7,1.7c0,1-0.8,4.2-1.7,4.2c-1,0-1.7-3.2-1.7-4.2C84.2,92.5,85,91.8,85.9,91.8z M85.9,175.8
				c-0.6,0-1-0.5-1-1c0-0.6,0.4-1,1-1s1,0.5,1,1S86.4,175.8,85.9,175.8z M86.7,179.6c0,0.6-0.5,1-1,1s-1-0.4-1-1s0.5-1,1-1
				S86.7,179,86.7,179.6z M84.7,170.6c0-0.6,0.5-1,1-1c0.6,0,1,0.5,1,1c0,0.6-0.5,1-1,1C85.1,171.6,84.7,171.2,84.7,170.6z
				 M85.7,198c-0.6,0-1-0.5-1-1c0-0.6,0.5-1,1-1c0.6,0,1,0.5,1,1S86.2,198,85.7,198z M85.7,194c-0.6,0-1-0.5-1-1c0-0.6,0.5-1,1-1
				c0.6,0,1,0.4,1,1C86.7,193.6,86.2,194,85.7,194z M86.3,189.4c-0.6,0-1-0.5-1-1c0-0.6,0.5-1,1-1c0.6,0,1,0.4,1,1
				S86.9,189.4,86.3,189.4z M85.9,185.5c-0.8,0-1.4-0.6-1.4-1.4c0-0.8,0.6-1.4,1.4-1.4s1.4,0.6,1.4,1.4S86.7,185.5,85.9,185.5z
				 M89.1,186.2c0.6,0,1,0.4,1,1s-0.5,1-1,1c-0.6,0-1-0.4-1-1C88.1,186.7,88.5,186.2,89.1,186.2z M88.1,192.4c0-0.6,0.5-1,1-1
				c0.6,0,1,0.4,1,1s-0.5,1-1,1C88.5,193.4,88.1,192.9,88.1,192.4z M90.6,197.3c-0.6,0-1-0.4-1-1s0.4-1,1-1s1,0.5,1,1
				C91.6,196.9,91.2,197.3,90.6,197.3z M92.1,191.4c-0.6,0-1-0.4-1-1s0.5-1,1-1c0.6,0,1,0.5,1,1C93.1,191,92.6,191.4,92.1,191.4z
				 M92.1,178.9c-0.6,0-1-0.4-1-1s0.5-1,1-1s1,0.5,1,1C93.1,178.5,92.6,178.9,92.1,178.9z M93.4,187.9c0-0.6,0.5-1,1-1
				c0.6,0,1,0.5,1,1c0,0.6-0.4,1-1,1C93.9,188.9,93.4,188.4,93.4,187.9z M95,194.4c-0.6,0-1-0.4-1-1s0.5-1,1-1c0.6,0,1,0.5,1,1
				S95.6,194.4,95,194.4z M95,185.5c-0.6,0-1-0.5-1-1c0-0.6,0.5-1,1-1c0.6,0,1,0.4,1,1C96,185,95.6,185.5,95,185.5z M95.3,175.8
				c-0.6,0-1-0.5-1-1c0-0.6,0.4-1,1-1s1,0.5,1,1C96.3,175.4,95.8,175.8,95.3,175.8z M98.2,189.7c-0.6,0-1-0.5-1-1c0-0.6,0.5-1,1-1
				c0.6,0,1,0.5,1,1S98.8,189.7,98.2,189.7z M100,183.6c0,0.6-0.5,1-1,1c-0.6,0-1-0.5-1-1c0-0.6,0.5-1,1-1S100,183.1,100,183.6z
				 M98.9,178.9c0,0.6-0.5,1-1,1c-0.6,0-1-0.5-1-1c0-0.6,0.5-1,1-1C98.5,177.9,98.9,178.4,98.9,178.9z"/>
			<path class="st5" d="M119.1,165.6v-30.3h2.3V133c0,0-2.6-5.7-0.2-14.5c0-1.9,0-25.3,0-25.3l0,0c0,0,0,0,0-0.1
				c0-1.7-1.4-3.1-3.1-3.1s-3.2,1.4-3.1,3.1c0,0,0,0,0,0.1l0,0c0,0,0,23.1,0,25.3c1.8,10.6-0.4,14.5-0.4,14.5v2.3h2.3v30.3
				c0,0-9.4,7.5-9.4,9.6s-0.1,10.3,0,11.2s-0.3,13.6,5.3,13.6c1.6,0,4.5,0,5.1,0c0.1,0,0.1,0,0.1,0c0.6,0,3.4,0,5.1,0
				c5.3,0,5.3-12.7,5.3-13.6c0.1-0.9,0-9.1,0-11.2C128.4,173.2,120.1,166.5,119.1,165.6z M111.5,197h-1.3v-21.2h1.3V197L111.5,197z
				 M115.1,197.4h-1.3v-18h1.3V197.4z M116.5,93.5c0-1,0.8-1.8,1.8-1.8s1.8,0.8,1.8,1.8s-0.8,4.3-1.8,4.3
				C117.2,97.8,116.5,94.5,116.5,93.5z M117.3,197.4v-15.5h1.3v15.5H117.3z M121.9,197.4h-1.3v-18h1.3V197.4z M125.2,196.7h-1.3
				v-21.2h1.3V196.7z"/>
			<path class="st5" d="M150.8,143.4h1.2v-2.7c0,0-3.1-6.7-0.2-17c0-2.2,0-29.8,0-29.8l0,0c0,0,0,0,0-0.1c0-2-1.7-3.7-3.7-3.7
				s-3.7,1.7-3.7,3.7c0,0,0,0,0,0.1l0,0c0,0,0,27.2,0,29.7c2.1,12.5-0.5,17.1-0.5,17.1v2.7h1.5c-0.2,4.5-2.7,11.7-5.4,19.4
				c-3.2,9.2-6.5,18.7-6,24.3c0.5,6,3.2,9.1,5.4,10.7c1.9,1.3,4.1,2,6.3,2c0.8,0,1.6-0.1,2.4-0.3l1.1-0.3c0.4,0,0.8,0.1,1.2,0.1
				c2.2,0,4.4-0.7,6.3-2c2.2-1.5,4.9-4.7,5.4-10.7c0.5-5.6-2.8-15.1-6-24.3C153.6,154.9,151.2,147.9,150.8,143.4z M148.3,92.3
				c1.2,0,2.1,0.9,2.1,2.1s-0.9,5.1-2.1,5.1c-1.1,0-2.1-3.9-2.1-5.1S147.2,92.3,148.3,92.3z M140.4,196.5c-1.9-1.4-4.3-4.1-4.8-9.6
				c-0.5-5.3,2.8-14.6,5.9-23.7c0.6-1.9,1.3-3.7,1.9-5.5c-2.6,11.6-5.7,25.9-5.8,28c-0.2,6.7,4.8,10.7,7.9,12.5
				C143.7,198.2,141.9,197.6,140.4,196.5z M139,185.8c0.1-1.6,2.2-11.6,4.4-21.6c-1.3,10-2.5,19.9-2.5,22c0,2.9,2.7,7.7,5.1,10.7
				C143.2,195.2,138.8,191.6,139,185.8z M142.4,186.3c0-2.4,1.7-15.8,3.2-27.2c-0.8,17.2-0.7,20.3-0.6,23.6c0,1,0.1,2.1,0.1,3.7
				c0,4.2,1.1,7.3,2,9.4C145.1,193.3,142.4,189,142.4,186.3z M148,194.2c-0.7-1.9-1.4-4.5-1.4-7.8c0-1.6,0-2.7-0.1-3.7
				c-0.1-4-0.2-7.8,1.3-38.1c0.1-0.5,0.2-0.9,0.3-1.2h0.2c0,0.2,0.1,0.4,0.1,0.7c1.5,30.3,1.4,34.1,1.3,38.1c0,1.1-0.1,2.1-0.1,3.8
				C149.7,189.4,148.8,192.2,148,194.2z M149.2,195.3c0.9-2.1,2-5.3,2-9.4c0-1.6,0-2.7,0.1-3.7c0.1-3.3,0.2-6.4-0.6-23.6
				c1.5,11.4,3.2,24.7,3.2,27.2C153.8,188.5,151.1,192.8,149.2,195.3z M150.2,196.4c0.8-1,1.5-2.1,1.8-2.5c1.2-1.9,3.3-5.5,3.3-8.2
				c0-2.1-1.2-12.1-2.5-22c2.2,10,4.3,20,4.4,21.6C157.4,191.1,153,194.7,150.2,196.4z M160.7,186.4c-0.5,5.5-2.9,8.2-4.8,9.6
				c-1.5,1.1-3.3,1.7-5.1,1.7c3.1-1.8,8.1-5.9,7.9-12.6c-0.2-2-3.3-16.3-5.8-27.9c0.6,1.8,1.2,3.6,1.9,5.5
				C157.9,171.8,161.1,181.2,160.7,186.4z"/>
			<path class="st5" d="M190.5,191L190.5,191L190.5,191c-0.1-0.3-0.2-0.5-0.3-0.6c-5.7-11-10.4-29.5-10.7-37.1v-8.6h2.7v-2.8
				c0,0-3.2-7-0.2-17.8c0-2.3,0-31.2,0-31.2l0,0c0,0,0,0,0-0.1c0-2.1-1.7-3.9-3.9-3.9c-2.1,0-3.9,1.7-3.9,3.9c0,0,0,0,0,0.1l0,0
				c0,0,0,28.5,0,31.1c2.2,13.1-0.5,17.9-0.5,17.9v2.8h2.4v7.7c0,7-4.7,26.5-10.7,37.9c-0.3,0.4-0.4,0.7-0.4,1.1
				c0,2.4,5.7,4.4,12.8,4.4s12.8-2,12.8-4.4C190.6,191.3,190.6,191.2,190.5,191z M178.3,91.1c1.2,0,2.2,1,2.2,2.2s-1,5.3-2.2,5.3
				s-2.2-4.1-2.2-5.3C176.1,92,177.1,91.1,178.3,91.1z M177.8,187c-3.9,0-7.5,0.6-9.8,1.6c4.8-10.4,8.7-25.5,9.5-33.5h0.6
				c0.8,8,4.7,23.1,9.5,33.5C185.3,187.7,181.7,187,177.8,187z"/>
		</g>
	</g>
</g>
</svg>
