<?xml version="1.0" encoding="utf-8"?>
<!-- Generator: Adobe Illustrator 19.2.0, SVG Export Plug-In . SVG Version: 6.00 Build 0)  -->
<svg version="1.1" id="Layer_1" xmlns="http://www.w3.org/2000/svg" xmlns:xlink="http://www.w3.org/1999/xlink" x="0px" y="0px"
	 viewBox="0 0 200 200" style="enable-background:new 0 0 200 200;" xml:space="preserve">
<style type="text/css">
	.st0{fill:#B5732D;}
	.st1{fill:#A9D26B;}
	.st2{fill:#66BC46;}
	.st3{fill:#F8E7D4;}
	.st4{fill:#EFCEB2;}
	.st5{fill:#D8AD90;}
	.st6{fill:#2AA649;}
	.st7{fill:#97693C;}
	.st8{fill:#E6E6E5;}
	.st9{fill:#AF875C;}
	.st10{fill:#FFFFFF;}
	.st11{fill:#F8D70E;}
</style>
<g id="Layer_62">
	<path class="st0" d="M71.9,185.3c-1.3,0-2.4-0.9-2.7-2.2c-4.7-20.3-4.2-40.3,1.5-59.7C75.2,108.1,83,93.1,93.9,79
		c18.5-23.9,39.1-36.9,40-37.4c1.3-0.8,3-0.4,3.8,0.9c0.8,1.3,0.4,3-0.9,3.8l0,0c-0.2,0.1-20.8,13.1-38.6,36.2
		c-23.8,30.8-31.7,64.3-23.6,99.3c0.3,1.5-0.6,3-2.1,3.4C72.4,185.3,72.2,185.3,71.9,185.3z"/>
	<path class="st1" d="M71.6,124c-5.2,5.4-13.8,5.7-22.5-2.6c-4.7-4.5-8.8-14.1-11.6-21.9c-0.8-2.2-1.5-4.3-2.1-6.1
		c-0.8-2.5,1.5-5,4.1-4.3c3.7,1,8.7,2.5,13.7,4.4c5.9,2.2,11.6,5,14.9,8.2C76.8,110,76.9,118.6,71.6,124z"/>
	<g>
		<path class="st2" d="M71.6,124c-5.2,5.4-13.8,5.7-22.5-2.6c-4.7-4.5-8.8-14.1-11.6-21.9c1.7-0.4,3.5-0.6,5.4-0.8
			c4.2-0.4,7.4-2.5,10.3-5.2c5.9,2.2,11.6,5,14.9,8.2C76.8,110,76.9,118.6,71.6,124z"/>
		<path class="st2" d="M73.6,121.4c-0.5,0.9-1.2,1.8-1.9,2.6c-5.2,5.4-13.8,5.7-22.5-2.6c-6-5.8-11.2-20-13.7-28
			c-0.8-2.5,1.5-5,4.1-4.3c0.2,0,0.3,0.1,0.5,0.1c2.6,8.1,7.6,21.9,13.5,27.6C61,123.9,68.3,124.7,73.6,121.4z"/>
	</g>
	<path class="st1" d="M88.2,90.2c-0.6,2.4-2,4.4-4,6c-5.3,4-12.8,3.1-19.2-5.3c-1.1-1.5-2.1-3.5-3-5.7c-2.6-6.5-4.2-15.1-5.1-20.6
		c-0.4-2.3,2-4.1,4.1-3.1c6.7,3,18.6,8.9,23.1,14.8C88.1,81.5,89.2,86.3,88.2,90.2z"/>
	<g>
		<path class="st2" d="M88.2,90.2c-0.6,2.4-2,4.4-4,6c-5.3,4-12.8,3.1-19.2-5.3c-1.1-1.5-2.1-3.5-3-5.7c2.5-1.9,5.4-3.3,8.9-3.3
			c0.3,0,0.7,0,1,0C78,82.4,81,84.8,83.6,87C84.9,88.1,86.2,89.2,88.2,90.2z"/>
		<path class="st2" d="M86.2,94.2c-0.6,0.7-1.3,1.4-2,2c-5.3,4-12.8,3.1-19.2-5.3C60.5,85,58,72,56.9,64.7c-0.4-2.3,2-4.1,4.1-3.2
			c0.1,0.1,0.3,0.1,0.4,0.2c1.1,7.4,3.7,20,8,25.8C74.9,94.6,81.2,96.4,86.2,94.2z"/>
	</g>
	<path class="st1" d="M103,58c3.8,8.4,1.5,14.6-3.8,17s-11.5,0.2-15.4-8.2c-2.7-5.9-2.4-17.5-1.9-23.9c0.1-2,2.5-3.1,4.1-1.9
		C91.3,44.8,100.3,52.1,103,58z"/>
	<path class="st2" d="M101.3,73.7c-0.6,0.5-1.3,0.9-2.1,1.3c-5.3,2.4-11.5,0.2-15.4-8.2c-2.7-5.9-2.4-17.5-1.9-23.9
		c0.1-2,2.5-3.1,4.1-1.9c0.1,0.1,0.2,0.1,0.3,0.2c-0.3,6.5-0.6,17.8,2,23.5C91.6,71.9,96.6,74.6,101.3,73.7z"/>
	<path class="st1" d="M122.5,45.6c2,7.5-0.8,12.2-5.5,13.5s-9.5-1.5-11.5-8.9c-1.4-5.2,0.5-14.8,1.8-20c0.4-1.7,2.5-2.2,3.7-1
		C114.7,33.1,121.1,40.4,122.5,45.6z"/>
	<path class="st2" d="M119.1,58.3c-0.6,0.4-1.3,0.7-2.1,0.9c-4.7,1.3-9.5-1.5-11.5-8.9c-1.4-5.2,0.5-14.8,1.8-20
		c0.4-1.7,2.5-2.2,3.7-1c0.3,0.3,0.6,0.7,1,1c-1.2,5.4-2.8,14-1.5,18.8C112,55,115.4,58,119.1,58.3z"/>
	<path class="st1" d="M91.5,112.3c-12-0.1-18,6-18.1,13.6s6,13.7,17.9,13.8c8.4,0,22-6.6,29.4-10.6c2.3-1.3,2.4-4.6,0-5.9
		C113.4,119.1,99.9,112.4,91.5,112.3z"/>
	<path class="st2" d="M73.8,122.7c-0.3,1-0.4,2.1-0.4,3.2c0,7.6,6,13.7,17.9,13.8c8.4,0,22-6.6,29.4-10.6c2.3-1.3,2.4-4.6,0-5.9
		c-0.1-0.1-0.3-0.2-0.4-0.2c-7.5,4-20.7,10.4-28.9,10.3C81.2,133.2,75.3,128.7,73.8,122.7z"/>
	<path class="st1" d="M127.4,105.4c-1.9,0.9-4.2,1.9-6.7,3c-6.5,2.7-14.3,5.3-19.6,5c-10.5-0.6-15.5-6.3-15.1-12.9
		c0.2-3.6,2-6.8,5.3-8.8c2.7-1.7,6.5-2.6,11.2-2.3c7.4,0.4,18.9,7,25.2,10.9C129.7,101.5,129.5,104.4,127.4,105.4z"/>
	<g>
		<path class="st2" d="M120.7,108.4c-6.5,2.7-14.3,5.3-19.6,5c-10.5-0.6-15.5-6.3-15.1-12.9c0.2-3.6,2-6.8,5.3-8.8
			c0.8,0.3,1.6,0.6,2.6,0.9c10.4,3.2,19.4,6.3,24.6,12.6C119.4,106.1,120.1,107.2,120.7,108.4z"/>
		<path class="st2" d="M86.5,97.7c-0.3,0.9-0.4,1.8-0.5,2.8c-0.4,6.6,4.6,12.3,15.1,12.9c7.4,0.4,19.6-4.8,26.3-7.9
			c2.1-1,2.3-4,0.3-5.2c-0.1-0.1-0.2-0.2-0.4-0.2c-6.8,3.2-18.7,8.2-25.9,7.7C92.5,107.2,87.5,103,86.5,97.7z"/>
	</g>
	<path class="st1" d="M116.2,68.6c-9.2,0.1-13.8,4.8-13.8,10.6c0,5.8,4.7,10.5,14,10.4c6.5-0.1,16.8-5.3,22.5-8.4
		c1.8-1,1.8-3.6,0-4.6C133.1,73.6,122.7,68.5,116.2,68.6z"/>
	<path class="st2" d="M102.7,76.7c-0.2,0.8-0.3,1.6-0.3,2.5c0,5.8,4.7,10.5,14,10.4c6.5-0.1,16.8-5.3,22.5-8.4c1.8-1,1.8-3.6,0-4.6
		c-0.1-0.1-0.2-0.1-0.3-0.2c-5.7,3.2-15.8,8.2-22.2,8.3C108.5,84.8,103.9,81.4,102.7,76.7z"/>
	<path class="st1" d="M132.9,51.6c-7.7-0.1-11.7,3.8-11.7,8.6s3.8,8.9,11.5,9c5.4,0.1,14.2-4.1,19-6.6c1.5-0.8,1.6-3,0.1-3.8
		C146.9,56.2,138.3,51.7,132.9,51.6z"/>
	<path class="st2" d="M121.5,58c-0.2,0.7-0.3,1.5-0.3,2.2c-0.1,4.9,3.8,8.9,11.5,9c5.4,0.1,14.2-4.1,19-6.6c1.5-0.8,1.5-3,0.1-3.8
		c-0.4-0.2-0.8-0.5-1.2-0.7c-4.9,2.5-12.9,6.1-17.9,6.1C126.4,64.1,122.7,61.5,121.5,58z"/>
	<path class="st1" d="M140.8,18c0.3,3,0.5,7.3,0.4,11.3c-0.1,3.3-0.6,6.5-1.5,8.7c-2.4,5.5-6,7.9-9.6,7.9c-1,0-2.1-0.3-3.1-0.7
		c-4.5-1.9-6.5-7.1-3.5-14.1c2.1-5,9.6-11.3,13.8-14.6C138.6,15.4,140.6,16.3,140.8,18z"/>
	<g>
		<path class="st2" d="M141.1,29.3c-0.1,3.3-0.6,6.5-1.5,8.7c-2.4,5.5-6,7.9-9.6,7.9C129.4,40,132.4,33.3,141.1,29.3z"/>
		<path class="st2" d="M129.1,45.8c-0.7-0.1-1.5-0.3-2.2-0.6c-4.5-1.9-6.5-7.1-3.5-14.1c2.1-5,9.6-11.3,13.8-14.6
			c1.3-1.1,3.3-0.2,3.5,1.5c0,0.4,0.1,0.9,0.1,1.4c-4.3,3.5-10.9,9.2-12.9,13.8C125.6,38.9,126.4,43.3,129.1,45.8z"/>
	</g>
	<path class="st1" d="M143.8,34.9c-7,3.2-8.9,8.4-6.9,12.8s7.2,6.4,14.2,3.2c4.9-2.2,11.1-9.8,14.4-14.1c1-1.4,0.1-3.3-1.6-3.5
		C158.4,33,148.7,32.7,143.8,34.9z"/>
	<path class="st2" d="M136.2,45.6c0.1,0.7,0.3,1.5,0.7,2.2c2,4.4,7.2,6.4,14.2,3.2c4.9-2.2,11.1-9.8,14.4-14.1
		c1-1.4,0.1-3.3-1.6-3.5c-0.4,0-0.9-0.1-1.4-0.1c-3.4,4.4-9,11-13.6,13.1C143.2,49,138.7,48.2,136.2,45.6z"/>
	<path class="st3" d="M20.4,113.8c0,0,2.1-2,5.9-4.2c3.9-2.3,9.7-4.7,17.1-5.4c14.6-1.4,19.2-17.4,28-16.7s7.5,6.3,20.8,10.4
		c10.2,3.1,17.9,5.9,22,10.8c1.2,1.5,2.2,3.2,2.7,5.1C119.3,122.2,50.7,143.9,20.4,113.8z"/>
	<g>
		<path class="st4" d="M20.4,113.8c0,0,2.1-2,5.9-4.2c4.9,1.3,13.8,3.4,25,4.6c6.2,0.7,12.5,1,18.7,1c15.8,0,30.6-2.2,44.1-6.6
			c1.2,1.5,2.2,3.2,2.7,5.1C119.3,122.2,50.7,143.9,20.4,113.8z"/>
		<path class="st4" d="M131.9,196.5c-2.5,3.1-9.1,2.6-14.8-1c-0.7-0.4-1.3-0.9-1.9-1.4c-9.8,4.3-24.1,6.9-44.2,6.9
			c-21.9,0-37.1-3.1-47.6-7.9c-0.9,0.9-1.9,1.7-3.1,2.5c-5.7,3.6-12.3,4.1-14.8,1c-2.4-3,0-8.3,5.6-12c-13.9-14.5-7.7-35.1-2-47.1
			c2.8-6,5.5-9.8,5.5-9.8l103.7-0.4c0,0,3.8,4.6,7.7,11.6c7.2,12.6,14.9,32.9,2,46.8C132.3,189.2,134.1,193.8,131.9,196.5z"/>
	</g>
	<path class="st5" d="M125.8,138.8c-0.3,0.1-0.7,0.3-1,0.4c-16.9,5.6-35.3,8.5-54.6,8.5c-32.4,0-56.7-8.2-57.8-8.5
		c-1.2-0.4-2.4-1-3.5-1.7c2.8-6,5.5-9.8,5.5-9.8l103.7-0.4C118.1,127.2,121.9,131.8,125.8,138.8z"/>
	<path class="st2" d="M88.1,170.6h-39c-2.5,0-4.5-1.9-4.7-4.4c-0.6-7.1-0.2-14.6,0.4-20.2c0.6-5.4,1.3-9,1.3-9l45-0.9
		c0.7,2.9,1.2,6.5,1.5,10.2c0.6,7.2,0.4,14.9,0.2,19.7C92.8,168.6,90.7,170.6,88.1,170.6z"/>
	<path class="st6" d="M92.6,146.3c-7.3,0.9-14.8,1.3-22.5,1.3c-9.2,0-17.7-0.7-25.3-1.6c0.6-5.4,1.3-9,1.3-9l45-0.9
		C91.9,139.1,92.3,142.6,92.6,146.3z"/>
	<path class="st3" d="M70.2,142c-31.3,0-54.5-7.7-55.9-8.2C9,132,6.1,126,7.8,120.5s7.3-8.5,12.6-6.7l0,0c0.1,0,12.3,4.1,30.3,6.1
		c16.4,1.8,41.2,2.2,66.2-6.1c5.3-1.8,10.9,1.3,12.6,6.8c1.7,5.5-1.2,11.4-6.5,13.2C104.5,139.9,86.3,142,70.2,142z"/>
	<g>
		<path class="st4" d="M87.4,108.5c-1.5,0-2.8-1.2-2.8-2.8v-0.3c0-1.5,1.2-2.8,2.8-2.8c1.5,0,2.8,1.2,2.8,2.8v0.3
			C90.2,107.3,89,108.5,87.4,108.5z"/>
		<path class="st4" d="M78.2,109.3c-1.5,0-2.8-1.2-2.8-2.8v-0.3c0-1.5,1.2-2.8,2.8-2.8c1.5,0,2.8,1.2,2.8,2.8v0.3
			C81,108,79.7,109.3,78.2,109.3z"/>
		<path class="st4" d="M71.4,101.3c-1.5,0-2.8-1.2-2.8-2.8v-0.3c0-1.5,1.2-2.8,2.8-2.8s2.8,1.2,2.8,2.8v0.3
			C74.2,100.1,73,101.3,71.4,101.3z"/>
		<path class="st4" d="M63.7,109.9c-1.5,0-2.8-1.2-2.8-2.8v-0.3c0-1.5,1.2-2.8,2.8-2.8c1.5,0,2.8,1.2,2.8,2.8v0.3
			C66.5,108.7,65.2,109.9,63.7,109.9z"/>
	</g>
	<g>
		<path class="st7" d="M182,123.1l-19.4,2.8c-13.1,1.9-42.5,1.9-55.6-0.1l-18-2.7c-2.8,0-5.2-1.5-5.2-3.5v-0.5
			c0-6.2,7.5-12.4,16.8-12.4h69.7c9.3,0,16.8,6.2,16.8,12.4v0.5C187.2,121.6,184.8,123.1,182,123.1z"/>
		<path class="st8" d="M135.7,78.9C112.1,81.8,99,106.8,99,106.8h36.7h36.7C172.4,106.8,159.3,81.8,135.7,78.9z"/>
		<path class="st9" d="M196.6,191.4l-7.9-7.9c0-0.5,0-0.9,0-1.4l-7.1-58.9l-19,2.8c-13.1,1.9-42.5,1.9-55.6-0.1l-16.2-2.5l-5.7,58.8
			c-0.1,0.5,0,0.9,0,1.4l-7.8,7.8c-2.5,2.5-0.4,6.7,3.1,6.2l13.8-2c0.2,0.1,0.5,0.2,0.7,0.2c26.8,6,54.5,6.1,81.4,0.5l2.6-0.6
			c0.2,0,0.4-0.1,0.6-0.2l14.1,2C197,198.1,199.1,193.9,196.6,191.4z"/>
		<circle class="st10" cx="149.3" cy="96.3" r="2.9"/>
		<circle class="st10" cx="132.1" cy="96.3" r="2.9"/>
		<circle class="st10" cx="140.7" cy="90.6" r="2.9"/>
		<path class="st11" d="M134,176.2h-6.3c-7.5,0-13.5-6.1-13.5-13.5v-6.3h6.3c7.5,0,13.5,6.1,13.5,13.5V176.2z"/>
		<path class="st11" d="M142.8,176.2h6.3c7.5,0,13.5-6.1,13.5-13.5v-6.3h-6.3c-7.5,0-13.5,6.1-13.5,13.5V176.2z"/>
		<path class="st11" d="M138.3,166.3l4.5-4.5c5.3-5.3,5.3-13.8,0-19.1l-4.5-4.5l-4.5,4.5c-5.3,5.3-5.3,13.8,0,19.1L138.3,166.3z"/>
	</g>
</g>
</svg>
