<?xml version="1.0" encoding="utf-8"?>
<!-- Generator: Adobe Illustrator 19.2.0, SVG Export Plug-In . SVG Version: 6.00 Build 0)  -->
<svg version="1.1" id="Layer_1" xmlns="http://www.w3.org/2000/svg" xmlns:xlink="http://www.w3.org/1999/xlink" x="0px" y="0px"
	 viewBox="0 0 200 200" style="enable-background:new 0 0 200 200;" xml:space="preserve">
<style type="text/css">
	.st0{fill:#F8CEBC;}
	.st1{fill:#F3B298;}
	.st2{fill:#54516D;}
	.st3{fill:#F281AF;}
	.st4{fill:#F7B7D1;}
	.st5{fill:#EE9CBE;}
	.st6{fill:#E5B7A5;}
	.st7{fill:#F067A6;}
	.st8{fill:#3CB8DE;}
	.st9{fill:#259DCF;}
</style>
<g id="Layer_32">
	<path class="st0" d="M176.5,110.9c0,42-34,65.4-76,65.4s-76-23.5-76-65.4s34-76,76-76S176.5,68.9,176.5,110.9z"/>
	<path class="st1" d="M100.4,176.4c-42,0-76-23.5-76-65.4c0-41.7,33.7-75.7,75.3-76c-29.9,0.5-53.9,34.4-53.9,76
		C45.8,152.9,70.3,176.4,100.4,176.4z"/>
	<g>
		<path class="st2" d="M142.5,111.1V97.5c0-3.5-2.9-6.4-6.4-6.4l0,0c-3.5,0-6.4,2.9-6.4,6.4v13.6c0,3.5,2.9,6.4,6.4,6.4l0,0
			C139.6,117.6,142.5,114.7,142.5,111.1z"/>
		<path class="st2" d="M71.2,111.1V97.5c0-3.5-2.9-6.4-6.4-6.4l0,0c-3.5,0-6.4,2.9-6.4,6.4v13.6c0,3.5,2.9,6.4,6.4,6.4l0,0
			C68.4,117.6,71.2,114.7,71.2,111.1z"/>
	</g>
	<path class="st3" d="M145.1,188.1c-13.6,7.2-29.1,11.3-45.6,11.3c-16.2,0-31.6-4-45.1-11C84.4,182.5,115.1,182.4,145.1,188.1z"/>
	<g>
		<path class="st1" d="M107.5,105.2H93.4c-2.5,0-4.6,2.1-4.6,4.6l0,0c0,2.5,2.1,4.6,4.6,4.6h14.2c2.5,0,4.6-2.1,4.6-4.6l0,0
			C112.2,107.3,110.1,105.2,107.5,105.2z"/>
		<path class="st1" d="M100.4,95.6L100.4,95.6c-2.9,0-5.3,2.4-5.3,5.3v8.9h10.5v-8.9C105.7,98,103.3,95.6,100.4,95.6z"/>
	</g>
	<g>
		<ellipse class="st4" cx="148.4" cy="127.2" rx="10.5" ry="6.4"/>
		<path class="st4" d="M63.1,127.2c0,3.5-4.7,6.4-10.5,6.4c-1.5,0-2.8-0.2-4.1-0.5c-3.8-1-6.4-3.3-6.4-5.9c0-2.2,1.7-4.1,4.4-5.3
			c1.7-0.7,3.8-1.2,6.1-1.2C58.3,120.8,63.1,123.7,63.1,127.2z"/>
	</g>
	<path class="st5" d="M48.5,133.1c-3.8-1-6.4-3.3-6.4-5.9c0-2.2,1.7-4.1,4.4-5.3C46.9,125.9,47.5,129.6,48.5,133.1z"/>
	<path class="st6" d="M107,164.1c-4.3,1.2-8.8,1.2-13.1,0c-1.1-0.4-2.4,0.3-2.7,1.4l0,0c-0.5,1.3,0.2,2.6,1.5,3
		c5.1,1.5,10.5,1.5,15.6,0c1.3-0.4,2-1.7,1.5-3l0,0C109.2,164.4,108.1,163.8,107,164.1z"/>
	<path class="st3" d="M131.6,3.8c-21.3-2.6-42.9-2.6-64.2,0C45.6,6.4,29,24.9,29,46.9v8.3c46.1-12.6,94.7-12.6,140.7,0v-8.3
		C169.9,24.9,153.3,6.4,131.6,3.8z"/>
	<path class="st7" d="M110,2.1c-7.2,0.3-14.4,0.8-21.5,1.7C66.6,6.4,50.1,24.9,50.1,46.9v3.4c-7.1,1.4-14.2,3-21.1,4.9v-8.3
		c0-22,16.4-40.5,38.3-43.1C81.4,2.1,95.7,1.5,110,2.1z"/>
	<path class="st3" d="M169.9,46.3c-46.4-10.4-94.5-10.4-140.9,0c-8.2,1.8-13.9,9.1-13.9,17.4v16.9v6.8v51.6c0,3.9,3.2,7,7,7l0,0
		c3.9,0,7-3.2,7-7V94.5c46.4-10.4,94.5-10.4,140.7,0v44.6c0,3.9,3.2,7,7,7l0,0c3.9,0,7-3.2,7-7V87.4v-6.8V63.8
		C183.8,55.4,178,48.2,169.9,46.3z"/>
	<path class="st7" d="M112.4,38.7c-19.3,0.8-38.6,3.4-57.5,7.6C46.7,48.2,41,55.4,41,63.8v28.3c-4,0.7-8,1.5-11.9,2.4v44.6
		c0,1.9-0.8,3.7-2.1,5s-3,2.1-5,2.1c-3.9,0-7-3.2-7-7V63.9c0-8.3,5.8-15.6,13.9-17.4C56.4,40.1,84.5,37.6,112.4,38.7z"/>
	<path class="st8" d="M170.6,158v10.6c-7.3,7.8-16,14.4-25.5,19.5c-3.1,1.6-6.3,3.1-9.4,4.4c-23.9-3.5-48-3.4-71.8,0.2
		c-3.3-1.3-6.4-2.7-9.5-4.4c-8.9-4.6-17.1-10.6-24-17.7v-12.7c0-5.3,3.5-9.8,8.6-11.2c40.5-10.6,82.7-10.6,123.1,0
		C167,148.2,170.6,152.8,170.6,158z"/>
	<path class="st9" d="M74,169.5l-20,3.1c-3.8,0.5-6.5,3.8-6.5,7.7v4.2c-6.3-3.9-12-8.5-17.1-13.7V158c0-5.3,3.5-9.8,8.6-11.2
		c8.5-2.3,17.1-4,25.7-5.3c-2.9,0.7-5.7,1.5-8.5,2.2c-2.5,0.7-4.7,2.3-6.2,4.4c-1.5,2.1-2.4,4.7-2.4,7.4c0,4.7,4.3,8.4,9,7.7
		l16.2-2.5c0.3,0,0.5-0.1,0.6-0.1c2.1,0,4,1.5,4.4,3.7C78,166.8,76.4,169.1,74,169.5z"/>
</g>
</svg>
