<?xml version="1.0" encoding="utf-8"?>
<!-- Generator: Adobe Illustrator 19.2.0, SVG Export Plug-In . SVG Version: 6.00 Build 0)  -->
<svg version="1.1" id="Layer_1" xmlns="http://www.w3.org/2000/svg" xmlns:xlink="http://www.w3.org/1999/xlink" x="0px" y="0px"
	 viewBox="0 0 200 200" style="enable-background:new 0 0 200 200;" xml:space="preserve">
<style type="text/css">
	.st0{fill:#FABF29;}
	.st1{fill:#FAA834;}
	.st2{fill:#06AADE;}
	.st3{fill:#9ACA3C;}
	.st4{fill:#0392BF;}
	.st5{fill:#7FC042;}
	.st6{fill:#03C0F2;}
</style>
<g id="Layer_57">
	<path class="st0" d="M176,26.9c-1.4-1.4-3.1-2.8-4.9-4.1c-11.4-7.9-26.7-7.9-38.1-0.2c-9.6,6.5-15.3,17.2-15.2,28.7
		c0.1,8.2-3.4,16.5-9.6,22.7l-5.9,6c-1.9,1.9-1.9,5,0,6.9l13.8,13.8c1.9,1.9,5,1.9,6.9,0l5.9-5.9c7.6-7.6,17.5-9.5,24.5-9.8
		c8.5-0.3,16.6-3.8,22.7-9.9C189.6,61.6,189.1,40,176,26.9z"/>
	<path class="st1" d="M116,100.7l-6.9-6.9L176,26.9c13.1,13.1,13.6,34.7,0,48.2c-6.1,6.1-14.1,9.6-22.7,9.9c-7,0.3-17,2.2-24.5,9.8
		l-5.9,5.9C121,102.6,118,102.6,116,100.7z"/>
	<path class="st2" d="M136.7,107.6L95.4,66.3c-5.7-5.7-15-5.7-20.7,0l-6.9,6.9c-1.9,1.9-1.9,5,0,6.9l55.1,55.1c1.9,1.9,5,1.9,6.9,0
		l6.9-6.9C142.4,122.5,142.4,113.3,136.7,107.6z"/>
	<path class="st3" d="M95.4,107.6c-17.2-17.2-45.5-16.5-62.7,0.6s-17.2,44.9,0,62s44.9,17.2,62,0S112.5,124.8,95.4,107.6z
		 M46.5,156.5c-9.5-9.5-9.5-24.9,0-34.5s25.6-10.2,35.1-0.6s8.9,25.6-0.6,35.1C71.4,166,56,166,46.5,156.5z"/>
	<path class="st4" d="M136.7,128.3l-6.9,6.9c-1.9,1.9-5,1.9-6.9,0l-27.6-27.6L116,86.9l20.7,20.7
		C142.4,113.3,142.4,122.5,136.7,128.3z"/>
	<path class="st5" d="M94.7,170.3c-17.2,17.2-44.9,17.2-62,0l13.8-13.8c9.5,9.5,24.9,9.5,34.5,0c9.5-9.5,10.2-25.6,0.6-35.1
		l13.8-13.8C112.5,124.8,111.9,153.1,94.7,170.3z"/>
	<path class="st6" d="M136.7,135.2L67.8,66.3c-5.7-5.7-15-5.7-20.7,0L33.4,80c-1.9,1.9-1.9,5,0,6.9l82.7,82.7c1.9,1.9,5,1.9,6.9,0
		l13.8-13.8C142.4,150.1,142.4,140.9,136.7,135.2z"/>
	<path class="st2" d="M136.7,155.8l-13.8,13.8c-1.9,1.9-5,1.9-6.9,0l-41.3-41.3l27.6-27.6l34.5,34.5
		C142.4,140.9,142.4,150.1,136.7,155.8z"/>
</g>
</svg>
