<?xml version="1.0" encoding="utf-8"?>
<!-- Generator: Adobe Illustrator 19.2.0, SVG Export Plug-In . SVG Version: 6.00 Build 0)  -->
<svg version="1.1" id="Layer_1" xmlns="http://www.w3.org/2000/svg" xmlns:xlink="http://www.w3.org/1999/xlink" x="0px" y="0px"
	 viewBox="0 0 200 200" style="enable-background:new 0 0 200 200;" xml:space="preserve">
<style type="text/css">
	.st0{fill:#FDCD9D;}
	.st1{fill:#F1EAF4;}
	.st2{fill:#010101;}
</style>
<g id="Layer_29">
	<path class="st0" d="M63,157.3L63,157.3c-8.3,0-14.7-7.4-13.4-15.6l0,0c2.9-19.4,19.6-33.7,39.2-33.7h19.7
		c19.6,0,36.2,14.3,39.2,33.7l0,0c1.2,8.2-5.1,15.6-13.4,15.6l0,0H63z"/>
	<path class="st1" d="M65.4,149v19.7c0,3.4,2.3,6.4,5.6,7.3c6.6,1.8,12,6.7,14.5,12.9c1.1,2.8,3.9,4.6,6.9,4.6h12.5
		c3,0,5.7-1.8,6.9-4.6c2.5-6.3,7.9-11.1,14.5-12.9c3.3-0.9,5.6-3.9,5.6-7.3V149c0-2.8-2.3-5.1-5.1-5.1H70.4
		C67.6,143.9,65.4,146.2,65.4,149z"/>
	<g>
		<path class="st0" d="M54,159.8L54,159.8c-7.1,4.1-8.9,13.5-3.9,19.9l7.3,9.3c3.6,4.6,10.1,5.9,15.1,2.9l0,0
			c5.1-2.9,7.2-9.1,5-14.6l-4.4-11C70.1,158.8,61,155.7,54,159.8z"/>
		<path class="st0" d="M143.2,159.8L143.2,159.8c7.1,4.1,8.9,13.5,3.9,19.9l-7.3,9.3c-3.6,4.6-10.1,5.9-15.1,2.9l0,0
			c-5.1-2.9-7.2-9.1-5-14.6l4.4-11C127,158.8,136.1,155.7,143.2,159.8z"/>
		<circle class="st0" cx="98.6" cy="82.1" r="35.7"/>
	</g>
	<path class="st2" d="M112.9,185.8c-1.7-0.7-3.7,0.1-4.4,1.9c-0.6,1.5-2.1,2.4-3.7,2.4H92.3c-1.6,0-3.1-1-3.7-2.4
		c-0.7-1.7-2.7-2.6-4.4-1.9c-1.7,0.7-2.6,2.7-1.9,4.4c1.6,4.1,5.6,6.7,10,6.7h12.5c4.5,0,8.4-2.6,10-6.7
		C115.5,188.5,114.7,186.5,112.9,185.8z"/>
	<path class="st2" d="M153,168.2c-0.9-4.8-3.9-8.9-8.1-11.4c0.8-0.6,1.5-1.3,2.1-2.1c3.2-3.8,4.7-8.7,3.9-13.6
		c-1.2-8-4.6-15.4-9.8-21.5c-3.9-4.6-8.7-8.3-14.1-10.8c6.6-7,10.6-16.4,10.6-26.7c0-17.9-12.1-33-28.5-37.7c2.2-2.7,3.5-6,3.5-9.5
		c0-6.9-5.6-12.6-12.6-12.6l0,0c-2.8,0-5.4,0.9-7.4,2.6c-2.2,1.8-3.4,4.4-3.4,7.2c0,1.9,1.5,3.4,3.4,3.4l0,0c1.9,0,3.4-1.5,3.4-3.4
		c0-0.8,0.3-1.5,0.9-2c0.7-0.6,1.8-1,3-1l0,0c3.2,0,5.8,2.6,5.8,5.8c0,2.1-0.8,4.2-2.4,5.7c-1.5,1.5-3.5,2.4-5.7,2.4l0,0
		c-0.1,0-0.2,0-0.2,0c-21.1,0.5-38.2,17.9-38.2,39.1c0,10.3,4,19.7,10.6,26.7c-5.4,2.6-10.2,6.3-14.1,10.8
		c-5.2,6.1-8.6,13.5-9.8,21.5c-0.7,4.9,0.7,9.9,3.9,13.6c0.7,0.8,1.4,1.5,2.1,2.1c-4.2,2.4-7.1,6.6-8.1,11.4
		c-0.9,4.8,0.3,9.7,3.3,13.6l7.3,9.3c3,3.8,7.4,5.8,12,5.8c2.6,0,5.2-0.7,7.5-2c6.5-3.8,9.3-11.8,6.5-18.8l-4.4-11
		c-0.3-0.7-0.6-1.4-1-2.1h25c1.9,0,3.4-1.5,3.4-3.4s-1.5-3.4-3.4-3.4H68.8V149c0-0.9,0.8-1.7,1.7-1.7h56.2c0.9,0,1.7,0.8,1.7,1.7
		v7.7c-3.4,1.9-6.1,4.8-7.5,8.5l-4.4,11c-2.8,7,0,15,6.5,18.8c2.4,1.4,5,2,7.5,2c4.5,0,9-2,12-5.8l7.3-9.3
		C152.7,177.9,153.9,173,153,168.2z M98.6,49.8c17.8,0,32.3,14.5,32.3,32.3s-14.5,32.3-32.3,32.3S66.3,99.9,66.3,82.1
		C66.2,64.3,80.7,49.8,98.6,49.8z M52.9,142.2c2-13,10.6-23.7,22.8-28.4c6.4,4.7,14.4,7.4,22.9,7.4s16.5-2.8,22.9-7.4
		c12.1,4.7,20.8,15.4,22.8,28.4c0.4,2.9-0.4,5.9-2.3,8.1c-1.7,2-4.1,3.2-6.7,3.5V149c0-3.5-2.1-6.5-5.1-7.8v-4.1
		c0-1.9-1.5-3.4-3.4-3.4s-3.4,1.5-3.4,3.4v3.4H73.9v-3.4c0-1.9-1.5-3.4-3.4-3.4s-3.4,1.5-3.4,3.4v4.1c-3,1.3-5.1,4.3-5.1,7.8v4.8
		c-2.6-0.3-5-1.5-6.7-3.5C53.3,148.1,52.5,145.1,52.9,142.2z M70.8,189c-3.6,2.1-8.2,1.2-10.7-2.1l-7.3-9.3
		c-1.8-2.3-2.5-5.2-1.9-8.1c0.6-2.8,2.3-5.3,4.8-6.8s5.5-1.7,8.3-0.8c2.7,0.9,4.9,3,6,5.7l4.4,11C75.9,182.5,74.4,186.9,70.8,189z
		 M144.3,177.6l-7.3,9.3c-2.5,3.3-7.2,4.1-10.7,2.1c-3.6-2.1-5.1-6.5-3.6-10.3l4.4-11c1.1-2.7,3.3-4.8,6-5.7
		c1.1-0.4,2.2-0.5,3.3-0.5c1.7,0,3.5,0.5,5,1.3c2.5,1.5,4.3,3.9,4.8,6.8C146.8,172.4,146.1,175.3,144.3,177.6z"/>
	<path class="st2" d="M116.2,162c0.6-0.6,1-1.5,1-2.4s-0.4-1.8-1-2.4c-0.6-0.6-1.5-1-2.4-1s-1.8,0.4-2.4,1s-1,1.5-1,2.4
		s0.4,1.8,1,2.4c0.6,0.6,1.5,1,2.4,1S115.6,162.6,116.2,162z"/>
	<path class="st2" d="M88.7,98.5c2.4,3,6,4.7,9.9,4.7s7.5-1.7,9.9-4.7c1.2-1.5,1-3.6-0.5-4.8c-1.5-1.2-3.6-1-4.8,0.5
		c-1.1,1.4-2.8,2.2-4.6,2.2s-3.5-0.8-4.6-2.2c-1.2-1.5-3.3-1.7-4.8-0.5C87.7,94.9,87.5,97.1,88.7,98.5z"/>
	<path class="st2" d="M83.5,84.5c0.4-0.4,1.1-0.4,1.6,0c0.7,0.7,1.5,1,2.4,1s1.7-0.3,2.4-1c1.3-1.3,1.3-3.5,0-4.8
		c-3.1-3.1-8.1-3.1-11.2,0c-1.3,1.3-1.3,3.5,0,4.8C80.1,85.8,82.2,85.8,83.5,84.5z"/>
	<path class="st2" d="M109.6,85.5c0.9,0,1.7-0.3,2.4-1c0.4-0.4,1.1-0.4,1.6,0c1.3,1.3,3.5,1.3,4.8,0s1.3-3.5,0-4.8
		c-3.1-3.1-8.1-3.1-11.2,0c-1.3,1.3-1.3,3.5,0,4.8C107.8,85.2,108.7,85.5,109.6,85.5z"/>
</g>
</svg>
