<?xml version="1.0" encoding="utf-8"?>
<!-- Generator: Adobe Illustrator 19.2.0, SVG Export Plug-In . SVG Version: 6.00 Build 0)  -->
<svg version="1.1" id="Layer_1" xmlns="http://www.w3.org/2000/svg" xmlns:xlink="http://www.w3.org/1999/xlink" x="0px" y="0px"
	 viewBox="0 0 200 200" style="enable-background:new 0 0 200 200;" xml:space="preserve">
<style type="text/css">
	.st0{display:none;}
	.st1{display:inline;fill:#E6E6E5;}
	.st2{display:inline;fill:#FFFFFF;}
	.st3{display:inline;fill:#D13A34;}
	.st4{display:inline;fill:#456C33;}
	.st5{display:inline;fill:#EE4033;}
	.st6{display:inline;fill:#659C41;}
	.st7{display:inline;fill:#88C057;}
	.st8{display:inline;fill:#A5703E;}
	.st9{display:inline;fill:#FBD490;}
	.st10{display:inline;fill:#D3D5D7;}
	.st11{fill:#AE5F2F;}
	.st12{fill:#FFFFFF;}
	.st13{fill:#FEE886;}
	.st14{fill:#ED4D75;}
	.st15{fill:#D5E7F7;}
	.st16{fill:#FDC479;}
	.st17{fill:#8ACB94;}
	.st18{fill:#7FD2F6;}
	.st19{fill:#010101;}
	.st20{fill:#B27C4F;}
	.st21{fill:#A5703E;}
	.st22{fill:#F8E981;}
	.st23{fill:#EEE7D1;}
	.st24{fill:#FFF6BB;}
	.st25{fill:#D3D5D7;}
	.st26{fill:#ED8F22;}
</style>
<g id="Layer_76" class="st0">
	<g>
		<path class="st1" d="M72.4,199.2h26.9c2.4,0,3.9-2.7,2.7-4.7l0,0c-1.7-2.9-2.1-6.5-0.5-9.5c1.4-2.6,3.6-4.8,6.3-6.1
			c19-9.1,32.4-19.2,33.8-39.8c0.1-2-1.4-3.6-3.4-3.6H72.4h-68c-2,0-3.5,1.7-3.4,3.6c1.4,20.6,14.9,30.8,33.8,39.8
			c2.8,1.3,5,3.5,6.3,6.1c1.6,3,1.2,6.6-0.5,9.5l0,0c-1.3,2.1,0.2,4.7,2.7,4.7H72.4z"/>
		<path class="st2" d="M89.5,184.5H68.1c-1.4,0-2.5-1.1-2.5-2.5s1.1-2.5,2.5-2.5h21.4c1.4,0,2.5,1.1,2.5,2.5
			C91.9,183.4,90.8,184.5,89.5,184.5z"/>
		<path class="st2" d="M60.9,184.5h-8.3c-1.4,0-2.5-1.1-2.5-2.5s1.1-2.5,2.5-2.5h8.3c1.4,0,2.5,1.1,2.5,2.5S62.3,184.5,60.9,184.5z"
			/>
		<path class="st2" d="M89.5,191.8H52.6c-1.4,0-2.5-1.1-2.5-2.5s1.1-2.5,2.5-2.5h36.9c1.4,0,2.5,1.1,2.5,2.5S90.8,191.8,89.5,191.8z
			"/>
		<path class="st3" d="M101.8,76.3c-12.2,0-22.1,9.9-22.1,22.1c0,1.7,0.2,3.4,0.6,5c1.2,1.3,3.1,1.7,4.8,0.9l1-0.4
			c2.7-1.2,5.8,0.5,6,3.5l0.1,1.1c0.2,2.1,1.8,3.7,3.9,3.9l1.1,0.1c2.9,0.3,4.7,3.4,3.5,6l-0.4,1c-0.1,0.3-0.2,0.7-0.3,1
			c0.6,0.1,1.3,0.1,1.9,0.1c12.2,0,22.1-9.9,22.1-22.1C123.9,86.2,114,76.3,101.8,76.3z"/>
		<path class="st4" d="M123.8,99.7c-0.7,11.6-10.3,20.9-22.1,20.9c-0.6,0-1.3,0-1.9-0.1c-0.3,1.6,0.3,3.3,1.7,4.3l0.9,0.6
			c2.4,1.7,2.4,5.3,0,7l-0.9,0.6c-0.8,0.6-1.3,1.3-1.6,2.2l0.1,0.1h33c3.5-3.9,5.7-9.1,5.7-14.7C138.6,110.9,132.4,102.7,123.8,99.7
			z"/>
		<path class="st5" d="M98.3,97.4c-0.6,0-1.3-0.2-1.7-0.7l-7-7c-1-1-1-2.5,0-3.5s2.5-1,3.5,0l7,7c1,1,1,2.5,0,3.5
			C99.6,97.2,98.9,97.4,98.3,97.4z"/>
		<path class="st5" d="M112.2,111.3c-0.6,0-1.3-0.2-1.7-0.7l-7-7c-1-1-1-2.5,0-3.5s2.5-1,3.5,0l7,7c1,1,1,2.5,0,3.5
			C113.5,111.1,112.8,111.3,112.2,111.3z"/>
		<path class="st5" d="M105.2,97.4c-0.6,0-1.3-0.2-1.7-0.7c-1-1-1-2.5,0-3.5l7-7c1-1,2.5-1,3.5,0s1,2.5,0,3.5l-7,7
			C106.5,97.2,105.9,97.4,105.2,97.4z"/>
		<path class="st5" d="M92.6,110.1c-0.6,0-1.3-0.2-1.7-0.7c-1-1-1-2.5,0-3.5l5.7-5.7c1-1,2.5-1,3.5,0s1,2.5,0,3.5l-5.7,5.7
			C93.8,109.9,93.2,110.1,92.6,110.1z"/>
		<path class="st6" d="M131.3,120.6h-9.8c-1.4,0-2.5-1.1-2.5-2.5s1.1-2.5,2.5-2.5h9.8c1.4,0,2.5,1.1,2.5,2.5
			S132.6,120.6,131.3,120.6z"/>
		<path class="st6" d="M116.5,135.3c-1.4,0-2.5-1.1-2.5-2.5V123c0-1.4,1.1-2.5,2.5-2.5s2.5,1.1,2.5,2.5v9.8
			C119,134.2,117.9,135.3,116.5,135.3z"/>
		<path class="st7" d="M58.7,112.6c2.4,0.7,3.7,3.5,2.6,5.9l-0.4,1c-0.9,1.9-0.3,4.1,1.4,5.3l0.9,0.6c2.4,1.7,2.4,5.3,0,7l-0.9,0.6
			c-0.8,0.6-1.4,1.4-1.6,2.3h11.8H100c0.3-0.9,0.8-1.8,1.6-2.3l0.9-0.6c2.4-1.7,2.4-5.3,0-7l-0.9-0.6c-1.7-1.2-2.3-3.4-1.4-5.3
			l0.4-1c1.2-2.7-0.5-5.8-3.5-6l-1.1-0.1c-2.1-0.2-3.7-1.8-3.9-3.9l-0.1-1.1c-0.3-2.9-3.4-4.7-6-3.5l-1,0.4
			c-1.9,0.9-4.1,0.3-5.3-1.4l-0.6-0.9c-1.7-2.4-5.3-2.4-7,0l-0.6,0.9c-1.2,1.7-3.4,2.3-5.3,1.4l-1-0.4c-2.7-1.2-5.8,0.6-6,3.5
			l-0.1,1.1c-0.1,1.1-0.6,2.3-1,3.1C58,112,58.2,112.5,58.7,112.6z"/>
		<path class="st8" d="M31.8,101.6L46,81.5c2.3-3.3,7-4.1,10.3-1.8l0,0c3.3,2.3,4.1,7,1.8,10.3l-14.2,20.1c-2.3,3.3-7,4.1-10.3,1.8
			l0,0C30.3,109.5,29.5,104.9,31.8,101.6z"/>
		<path class="st9" d="M63.1,125.4l-0.9-0.6c-1.7-1.2-2.3-3.4-1.4-5.3l0.4-1c1.2-2.7-0.6-5.8-3.5-6l-1.1-0.1
			c-2.1-0.2-3.7-1.8-3.9-3.9l-0.1-1.1c-0.2-2.3-2.2-3.9-4.3-3.9l-4.6,6.5c-2.3,3.3-7,4.1-10.3,1.8l0,0c-2.5-1.7-3.5-4.8-3-7.6
			c-1.1,0.6-2.5,0.7-3.7,0.1l-1-0.4c-2.7-1.2-5.8,0.6-6,3.5l-0.1,1.1c-0.2,2.1-1.8,3.7-3.9,3.9l-1.1,0.1c-2.9,0.3-4.7,3.4-3.5,6
			l0.4,1c0.9,1.9,0.3,4.1-1.4,5.3l-0.9,0.6c-2.4,1.7-2.4,5.3,0,7l0.9,0.6c0.8,0.6,1.4,1.4,1.6,2.3h48.5c0.3-0.9,0.8-1.8,1.6-2.3
			l0.9-0.6C65.5,130.7,65.5,127.1,63.1,125.4z"/>
		<path class="st4" d="M73.5,119.3c-0.6,0-1.3-0.2-1.7-0.7c-1-1-1-2.5,0-3.5l3.7-3.7c1-1,2.5-1,3.5,0s1,2.5,0,3.5l-3.7,3.7
			C74.8,119.1,74.1,119.3,73.5,119.3z"/>
		<path class="st4" d="M87,125.5c-0.6,0-1.3-0.2-1.7-0.7l-2.5-2.5c-1-1-1-2.5,0-3.5s2.5-1,3.5,0l2.5,2.5c1,1,1,2.5,0,3.5
			C88.3,125.2,87.7,125.5,87,125.5z"/>
		<path class="st4" d="M74.7,130.4c-0.6,0-1.3-0.2-1.7-0.7c-1-1-1-2.5,0-3.5l2.5-2.5c1-1,2.5-1,3.5,0s1,2.5,0,3.5l-2.5,2.5
			C76,130.1,75.4,130.4,74.7,130.4z"/>
	</g>
	<g>
		<path class="st10" d="M152.1,137.7c-1.2,0-2.2-1-2.2-2.2V70.7c0-1.2,1-2.2,2.2-2.2s2.2,1,2.2,2.2v64.7
			C154.3,136.7,153.3,137.7,152.1,137.7z"/>
		<path class="st8" d="M152.1,198L152.1,198c-3.7,0-6.7-3-6.7-6.7v-49.1c0-3.7,3-6.7,6.7-6.7l0,0c3.7,0,6.7,3,6.7,6.7v49.1
			C158.8,194.9,155.8,198,152.1,198z"/>
		<path class="st10" d="M152.1,148.9L152.1,148.9c-1.2,0-2.2-1-2.2-2.2l0,0c0-1.2,1-2.2,2.2-2.2l0,0c1.2,0,2.2,1,2.2,2.2l0,0
			C154.3,147.8,153.3,148.9,152.1,148.9z"/>
		<path class="st10" d="M152.1,157.8L152.1,157.8c-1.2,0-2.2-1-2.2-2.2l0,0c0-1.2,1-2.2,2.2-2.2l0,0c1.2,0,2.2,1,2.2,2.2l0,0
			C154.3,156.8,153.3,157.8,152.1,157.8z"/>
		<path class="st10" d="M152.1,110.9c-6.2,0-11.2-5-11.2-11.2v-29c0-1.2,1-2.2,2.2-2.2s2.2,1,2.2,2.2v29c0,3.7,3,6.7,6.7,6.7
			s6.7-3,6.7-6.7v-29c0-1.2,1-2.2,2.2-2.2s2.2,1,2.2,2.2v29C163.3,105.9,158.3,110.9,152.1,110.9z"/>
		<path class="st10" d="M185.6,139.9c6.9-6.9,6.7-22.9,6.7-40.2s1.2-29-13.4-29v69.2H185.6z"/>
		<path class="st8" d="M183.4,198L183.4,198c-3.7,0-6.7-3-6.7-6.7v-49.1c0-3.7,3-6.7,6.7-6.7l0,0c3.7,0,6.7,3,6.7,6.7v49.1
			C190.1,194.9,187.1,198,183.4,198z"/>
		<path class="st10" d="M183.4,148.9L183.4,148.9c-1.2,0-2.2-1-2.2-2.2l0,0c0-1.2,1-2.2,2.2-2.2l0,0c1.2,0,2.2,1,2.2,2.2l0,0
			C185.6,147.8,184.6,148.9,183.4,148.9z"/>
		<path class="st10" d="M183.4,157.8L183.4,157.8c-1.2,0-2.2-1-2.2-2.2l0,0c0-1.2,1-2.2,2.2-2.2l0,0c1.2,0,2.2,1,2.2,2.2l0,0
			C185.6,156.8,184.6,157.8,183.4,157.8z"/>
	</g>
</g>
<g id="Layer_90">
	<path class="st11" d="M73,68.7v121.8c0,3.4,2.3,6.2,5.1,6.2h85.2c2.8,0,5.1-2.8,5.1-6.2V68.7c0-3.4-2.3-6.2-5.1-6.2H78.2
		C75.3,62.5,73,65.3,73,68.7z"/>
	<path class="st12" d="M142.5,62v7.5H160V62c0-7.2-5.8-13.1-13.1-13.1c0-7.2-5.9-13.1-13.1-13.1c-3.4,0-6.4,1.3-8.8,3.4
		c2.7,2.4,4.3,5.9,4.3,9.7C136.7,48.9,142.5,54.8,142.5,62z"/>
	<path class="st13" d="M107.7,62v7.5h34.8V62c0-7.2-5.8-13.1-13.1-13.1c0-3.9-1.7-7.3-4.3-9.7c-2.7,2.4-4.3,5.9-4.3,9.7
		C113.6,48.9,107.7,54.8,107.7,62z"/>
	<polygon class="st12" points="107.7,69.5 87.1,69.5 87.1,182.7 180.5,182.7 180.5,69.5 	"/>
	<path class="st14" d="M33.8,67.2v16.4h11.1V67.2c0-3.9-2.3-7.3-5.6-8.8C36.1,60,33.8,63.4,33.8,67.2z"/>
	<path class="st13" d="M33.8,96.7h11.1c0,7.6,0,66.7,0,73.9H33.8C33.8,163.4,33.8,104.3,33.8,96.7z"/>
	<rect x="33.8" y="83.6" class="st15" width="19.6" height="13.1"/>
	<polygon class="st16" points="53.4,170.6 43.6,196.8 33.8,170.6 	"/>
	<g>
		<path class="st17" d="M114.2,129.4c0,3.6-2.9,6.5-6.5,6.5s-6.5-2.9-6.5-6.5s2.9-6.5,6.5-6.5S114.2,125.8,114.2,129.4z"/>
		<path class="st17" d="M114.2,162.1c0,3.6-2.9,6.5-6.5,6.5s-6.5-2.9-6.5-6.5s2.9-6.5,6.5-6.5S114.2,158.5,114.2,162.1z"/>
	</g>
	<path class="st18" d="M140.4,138.5c0.4,5.6-4.1,10.5-9.8,10.5c-5.4,0-9.8-4.4-9.8-9.8c0-5.4,4.4-9.8,9.8-9.8
		C135.8,129.4,140.1,133.4,140.4,138.5z"/>
	<path class="st17" d="M166.6,142.5c0,3.6-2.9,6.5-6.5,6.5s-6.5-2.9-6.5-6.5s2.9-6.5,6.5-6.5S166.6,138.9,166.6,142.5z"/>
	<path class="st19" d="M97.9,109.8c0,1.8,1.5,3.3,3.3,3.3s3.3-1.5,3.3-3.3s-1.5-3.3-3.3-3.3S97.9,108,97.9,109.8z"/>
	<path class="st19" d="M137.1,48.9c0-1.8-1.5-3.3-3.3-3.3s-3.3,1.5-3.3,3.3s1.5,3.3,3.3,3.3C135.7,52.2,137.1,50.7,137.1,48.9z"/>
	<path class="st19" d="M150.2,182.7c0,1.8,1.5,3.3,3.3,3.3s3.3-1.5,3.3-3.3s-1.5-3.3-3.3-3.3S150.2,180.9,150.2,182.7z"/>
	<path class="st19" d="M198,190.2V62c0-5.4-4.4-9.8-9.8-9.8h-28.1c-2.5-3.4-6.2-5.5-10.1-6.3c-1.4-7.5-8-13.4-16.1-13.4
		c-8,0-14.7,5.8-16.1,13.4c-4,0.8-7.6,3-10.1,6.3H79.6c-5.4,0-9.8,4.4-9.8,9.8v128.2c0,5.4,4.4,9.8,9.8,9.8h108.6
		C193.6,200,198,195.6,198,190.2z M156.8,62v4.3H111V62c0-5.5,4.5-9.8,9.8-9.8c1.8,0,3.3-1.5,3.3-3.3c0-5.4,4.4-9.8,9.8-9.8
		c5.4,0,9.8,4.4,9.8,9.8c0,1.8,1.5,3.3,3.3,3.3C152.4,52.2,156.8,56.6,156.8,62z M191.4,190.2c0,1.8-1.5,3.3-3.3,3.3H79.6
		c-1.8,0-3.3-1.5-3.3-3.3V62c0-1.8,1.5-3.3,3.3-3.3h25.2c-0.2,1.1-0.3,2.2-0.3,3.3v4.3H87.1c-1.8,0-3.3,1.5-3.3,3.3v113.2
		c0,1.8,1.5,3.3,3.3,3.3h53.3c1.8,0,3.3-1.5,3.3-3.3s-1.5-3.3-3.3-3.3h-50V72.8c2.2,0,86.6,0,87,0v106.6h-10.8
		c-1.8,0-3.3,1.5-3.3,3.3s1.5,3.3,3.3,3.3h14.1c1.8,0,3.3-1.5,3.3-3.3V69.5c0-1.8-1.5-3.3-3.3-3.3h-17.4v-4.3c0-1.1-0.1-2.2-0.3-3.3
		h25.2c1.8,0,3.3,1.5,3.3,3.3L191.4,190.2L191.4,190.2z"/>
	<path class="st19" d="M160,152.3c5.4,0,9.8-4.4,9.8-9.8c0-5.4-4.4-9.8-9.8-9.8c-3.6,0-6.7,1.9-8.4,4.8l-8.4-1.7
		c-1.5-5.6-6.6-9.7-12.6-9.7c-4.5,0-8.4,2.2-10.8,5.7l-2.4-1.2c0.1-0.4,0.1-0.8,0.1-1.2c0-5.4-4.4-9.8-9.8-9.8s-9.8,4.4-9.8,9.8
		c0,5.4,4.4,9.8,9.8,9.8c2.6,0,5-1,6.8-2.7l3.1,1.5c0,0.4-0.1,0.8-0.1,1.2c0,2.4,0.6,4.7,1.8,6.6l-7.4,7.4c-1.3-0.6-2.7-1-4.2-1
		c-5.4,0-9.8,4.4-9.8,9.8c0,5.4,4.4,9.8,9.8,9.8s9.8-4.4,9.8-9.8c0-1.5-0.3-2.9-1-4.2l7.4-7.4c2,1.2,4.3,1.8,6.6,1.8
		c6.1,0,11.2-4.2,12.7-9.8l7.1,1.4C151,148.6,155.1,152.3,160,152.3z M111,129.4c0,1.8-1.4,3.3-3.3,3.3c-1.8,0-3.3-1.5-3.3-3.3
		s1.5-3.3,3.3-3.3C109.5,126.1,111,127.6,111,129.4z M107.7,158.8c1.8,0,3.3,1.5,3.3,3.3s-1.5,3.3-3.3,3.3s-3.3-1.5-3.3-3.3
		S105.9,158.8,107.7,158.8z M137.1,138.8c0.3,3.6-2.6,7-6.5,7c-1.7,0-3.4-0.7-4.6-1.9c-1.2-1.2-1.9-2.9-1.9-4.6
		c0-3.6,2.9-6.5,6.5-6.5C134,132.7,136.9,135.3,137.1,138.8z M160,145.7c-1.8,0-3.3-1.5-3.3-3.3s1.5-3.3,3.3-3.3s3.3,1.5,3.3,3.3
		C163.3,144.3,161.8,145.7,160,145.7z"/>
	<path class="st19" d="M169.9,83.6c0-1.8-1.5-3.3-3.3-3.3h-65.4c-1.8,0-3.3,1.5-3.3,3.3s1.5,3.3,3.3,3.3h65.4
		C168.4,86.9,169.9,85.4,169.9,83.6z"/>
	<path class="st19" d="M169.9,96.7c0-1.8-1.5-3.3-3.3-3.3h-65.4c-1.8,0-3.3,1.5-3.3,3.3s1.5,3.3,3.3,3.3h65.4
		C168.4,100,169.9,98.5,169.9,96.7z"/>
	<path class="st19" d="M169.9,109.8c0-1.8-1.5-3.3-3.3-3.3h-52.3c-1.8,0-3.3,1.5-3.3,3.3s1.5,3.3,3.3,3.3h52.3
		C168.4,113,169.9,111.6,169.9,109.8z"/>
	<path class="st19" d="M30.5,67.2v103.4c0,1.4,0.7,1.9,10,27.3c0.5,1.3,1.7,2.1,3.1,2.1c1.4,0,2.6-0.8,3.1-2.1
		c9.6-26,10-25.9,10-27.3V67.2c0-7.2-5.9-13.1-13.1-13.1C36.4,54.2,30.5,60,30.5,67.2z M37.1,167.3V99.9h13.1v67.4H37.1z M37.1,86.9
		h13.1v6.5H37.1V86.9z M38.5,173.9h10.2l-5.1,13.6L38.5,173.9z M37.1,67.2c0-3.6,3-6.5,6.5-6.5c3.6,0,6.5,2.9,6.5,6.5v13.1h-13V67.2
		z"/>
</g>
<g id="Layer_89">
	<g>
		<polygon class="st20" points="17.9,191.5 0,183.8 0,65.6 17.9,65.6 		"/>
		<path class="st21" d="M37.3,153.3c0,0,0-0.2,0-0.3c0-6.1,20.5-11,45.7-11c2.6,0,5.2,0.1,7.7,0.2l6.9-25.8V65.6H18v125.9h40
			C45.6,183.4,37.3,169.3,37.3,153.3z"/>
		<path class="st22" d="M51.4,125.3H42c-7.6,0-13.7-6.1-13.7-13.7v-9.4h9.4c7.6,0,13.7,6.1,13.7,13.7
			C51.4,115.9,51.4,125.3,51.4,125.3z"/>
		<path class="st22" d="M61.7,125.3h9.4c7.6,0,13.7-6.1,13.7-13.7v-9.4h-9.4c-7.6,0-13.7,6.1-13.7,13.7
			C61.7,115.9,61.7,125.3,61.7,125.3z"/>
		<path class="st22" d="M56.5,113.7l6.6-6.6c5.4-5.4,5.4-14.1,0-19.4l-6.6-6.6l-6.6,6.6c-5.4,5.4-5.4,14.1,0,19.4L56.5,113.7z"/>
		<path class="st23" d="M100.9,142.9l9.6-36.1c0-1.4-1.2-2.6-2.6-2.6h-5.1c-1.4,0-2.6,1.2-2.6,2.6l-9.5,35.4
			c-2.5-0.1-5.1-0.2-7.7-0.2c-25.2,0-45.7,4.9-45.7,11c0,0.1,0,0.3,0,0.3c0,25.2,20.5,45.7,45.7,45.7s45.7-20.5,45.7-45.7
			c0,0,0-0.2,0-0.3C128.8,148.5,117.3,144.6,100.9,142.9z"/>
		<path class="st24" d="M100.9,142.9l9.6-36.1c0-1.4-1.2-2.6-2.6-2.6h-5.1c-1.4,0-2.6,1.2-2.6,2.6l-9.5,35.4
			c-2.5-0.1-5.1-0.2-7.7-0.2c-25.2,0-45.7,4.9-45.7,11s20.5,11,45.7,11s45.7-4.9,45.7-11C128.8,148.5,117.3,144.6,100.9,142.9z"/>
		<path class="st25" d="M100.9,142.9l9.6-36.1c0-1.4-1.2-2.6-2.6-2.6h-5.1c-1.4,0-2.6,1.2-2.6,2.6l-9.5,35.4l-1.7,6.4l10,1.8
			L100.9,142.9z"/>
		<path class="st26" d="M72,155.6h-5.1c0-1.4-1.2-2.6-2.6-2.6s-2.6,1.2-2.6,2.6h-5.1c0-4.3,3.5-7.7,7.7-7.7S72,151.3,72,155.6z"/>
		<path class="st26" d="M92.5,158.1h-5.1c0-1.4-1.2-2.6-2.6-2.6s-2.6,1.2-2.6,2.6h-5.1c0-4.3,3.5-7.7,7.7-7.7S92.5,153.9,92.5,158.1
			z"/>
	</g>
</g>
</svg>
