<?xml version="1.0" encoding="utf-8"?>
<!-- Generator: Adobe Illustrator 19.2.0, SVG Export Plug-In . SVG Version: 6.00 Build 0)  -->
<svg version="1.1" id="Layer_1" xmlns="http://www.w3.org/2000/svg" xmlns:xlink="http://www.w3.org/1999/xlink" x="0px" y="0px"
	 viewBox="0 0 200 200" style="enable-background:new 0 0 200 200;" xml:space="preserve">
<style type="text/css">
	.st0{fill:#E19C2B;}
	.st1{fill:#F7B238;}
	.st2{fill:#F1572F;}
	.st3{fill:#B6CECC;}
	.st4{fill:#88A3A0;}
	.st5{fill:#546160;}
	.st6{fill:#EEE8C5;}
	.st7{fill:#D7CFAF;}
</style>
<g id="Layer_30">
	<rect x="12.1" y="70.6" class="st0" width="122.4" height="28.8"/>
	<path class="st1" d="M134.6,105.5v-9.8H12.1v9.8v16.7v10.5c0,26,21,47,47,47h28.4l0,0c26,0,47-21,47-47v-10.5L134.6,105.5
		L134.6,105.5z"/>
	<path class="st2" d="M28.6,110.2v7.1c0,2.6-2.1,4.8-4.8,4.8H12.1H8v-16.7h4.1h11.7C26.4,105.5,28.6,107.6,28.6,110.2z"/>
	<rect x="57.8" y="74.1" class="st1" width="31.1" height="19"/>
	<path class="st2" d="M138.7,105.5v16.7h-4.1h-11.7c-2.6,0-4.8-2.1-4.8-4.8v-7.1c0-2.6,2.1-4.8,4.8-4.8h11.7L138.7,105.5
		L138.7,105.5z"/>
	<g>
		<rect x="60" y="76.3" class="st0" width="26.8" height="14.7"/>
		<path class="st0" d="M93.1,157.6c-5.4-4.8-12.4-7.4-19.7-7.4s-14.3,2.6-19.7,7.4c-7.9-14.9-23.5-25-41.5-25c0,26,21,47,47,47l0,0
			c0-6.6-1.4-12.9-3.9-18.6l0.6-0.6c4.8-4.3,11-6.6,17.4-6.6c6.4,0,12.6,2.4,17.4,6.6l0.6,0.6c-2.5,5.7-3.9,12-3.9,18.7l0,0l0,0
			c26,0,47-21,47-47C116.6,132.7,101,142.8,93.1,157.6z"/>
	</g>
</g>
<g id="Layer_31">
	<path class="st3" d="M173.1,119.1h10.3c5.7,0,10.3,4.6,10.3,10.3v38.5c0,5.7-4.6,10.3-10.3,10.3H85.8c-5.7,0-10.3-4.6-10.3-10.3
		v-38.5c0-5.7,4.6-10.3,10.3-10.3h10.3L173.1,119.1L173.1,119.1z"/>
	<path class="st4" d="M193.6,157.6v10.3c0,5.7-4.6,10.3-10.3,10.3H85.8c-5.7,0-10.3-4.6-10.3-10.3v-10.3H193.6L193.6,157.6z"/>
	<path class="st5" d="M173.1,139.6c0,1.4-1.1,2.6-2.6,2.6H98.7c-1.4,0-2.6-1.1-2.6-2.6c0-1.4,1.1-2.6,2.6-2.6h71.8
		C171.9,137,173.1,138.2,173.1,139.6z"/>
	<path class="st6" d="M116.6,139.6l-38.7-38.7c-2.1-2.1-2.1-5.4,0-7.5l33.3-33.3H158l33.3,33.3c2.1,2.1,2.1,5.4,0,7.5l-38.7,38.7
		H116.6z"/>
	<path class="st7" d="M158,60.1l-19.6,19.7c-2.1,2.1-5.4,2.1-7.5,0l-19.6-19.7C111.3,60.1,158,60.1,158,60.1z"/>
</g>
</svg>
