<?xml version="1.0" encoding="utf-8"?>
<!-- Generator: Adobe Illustrator 19.2.0, SVG Export Plug-In . SVG Version: 6.00 Build 0)  -->
<svg version="1.1" id="Layer_1" xmlns="http://www.w3.org/2000/svg" xmlns:xlink="http://www.w3.org/1999/xlink" x="0px" y="0px"
	 viewBox="0 0 200 200" style="enable-background:new 0 0 200 200;" xml:space="preserve">
<style type="text/css">
	.st0{fill:#92CECD;}
	.st1{fill:#84B3B8;}
	.st2{fill:#FFD340;}
	.st3{fill:#FBAB42;}
	.st4{fill:#010101;}
	.st5{fill:#E93937;}
	.st6{fill:#D52427;}
</style>
<g id="Layer_54">
	<path class="st0" d="M104.5,151.3H37.3c-5.5,0-10-4.5-10-10V61.7c0-5.5,4.5-10,10-10h124.4c5.5,0,10,4.5,10,10v79.6
		c0,5.5-4.5,10-10,10l0,0"/>
	<path class="st1" d="M29.9,148.1c1.9,2.1,4.5,3.3,7.3,3.3h124.4c5.5,0,10-4.5,10-10V68.1C146.1,112.3,62,139.2,29.9,148.1z"/>
	<circle class="st2" cx="99.5" cy="124" r="17.4"/>
	<path class="st3" d="M110.5,110.5c6.1,7.5,4.9,18.4-2.6,24.5c-6.4,5.2-15.5,5.2-21.9,0c6.1,7.5,17,8.6,24.5,2.6
		c7.5-6.1,8.6-17,2.6-24.5C112.3,112.1,111.4,111.2,110.5,110.5z"/>
	<g>
		<path class="st2" d="M159.2,132.9c4.9-8.3,2.2-19-6-23.9c-8.3-4.9-19-2.2-23.9,6c-0.3,0.5-0.5,0.9-0.8,1.4"/>
		<circle class="st2" cx="99.5" cy="79.2" r="17.4"/>
		<circle class="st2" cx="54.7" cy="79.2" r="17.4"/>
		<circle class="st2" cx="144.3" cy="79.2" r="17.4"/>
		<circle class="st2" cx="54.7" cy="124" r="17.4"/>
	</g>
	<g>
		<path class="st3" d="M110.5,65.7c6.1,7.5,4.9,18.4-2.6,24.5c-6.4,5.2-15.5,5.2-21.9,0c6.1,7.5,17,8.6,24.5,2.6
			c7.5-6.1,8.6-17,2.6-24.5C112.3,67.3,111.4,66.4,110.5,65.7z"/>
		<path class="st3" d="M65.7,65.7c6.1,7.5,4.9,18.4-2.6,24.5c-6.4,5.2-15.5,5.2-21.9,0c6.1,7.5,17,8.6,24.5,2.6
			c7.5-6.1,8.6-17,2.6-24.5C67.5,67.3,66.6,66.4,65.7,65.7z"/>
		<path class="st3" d="M155.3,65.7c6.1,7.5,4.9,18.4-2.6,24.5c-6.4,5.2-15.5,5.2-21.9,0c6.1,7.5,17,8.6,24.5,2.6
			c7.5-6.1,8.6-17,2.6-24.5C157.1,67.3,156.2,66.4,155.3,65.7z"/>
		<path class="st3" d="M65.7,110.5c6.1,7.5,4.9,18.4-2.6,24.5c-6.4,5.2-15.5,5.2-21.9,0c6.1,7.5,17,8.6,24.5,2.6
			c7.5-6.1,8.6-17,2.6-24.5C67.5,112.1,66.6,111.2,65.7,110.5z"/>
		<path class="st3" d="M155.3,110.5c4.9,6,5.2,14.5,0.9,20.8l3,1.6C163.7,125.5,162,115.9,155.3,110.5z"/>
	</g>
	<rect x="49.7" y="69.2" class="st4" width="5" height="5"/>
	<rect x="59.7" y="76.7" class="st4" width="5" height="5"/>
	<rect x="97" y="69.2" class="st4" width="5" height="5"/>
	<rect x="92" y="84.1" class="st4" width="5" height="5"/>
	<rect x="44.7" y="119" class="st4" width="5" height="5"/>
	<rect x="57.2" y="126.4" class="st4" width="5" height="5"/>
	<rect x="54.7" y="114" class="st4" width="5" height="5"/>
	<rect x="102" y="119" class="st4" width="5" height="5"/>
	<rect x="94.5" y="126.4" class="st4" width="5" height="5"/>
	<rect x="134.3" y="79.2" class="st4" width="5" height="5"/>
	<rect x="146.8" y="81.7" class="st4" width="5" height="5"/>
	<rect x="141.8" y="69.2" class="st4" width="5" height="5"/>
	<rect x="92" y="114" class="st4" width="5" height="5"/>
	<rect x="47.2" y="81.7" class="st4" width="5" height="5"/>
	<rect x="104.5" y="79.2" class="st4" width="5" height="5"/>
	<path class="st4" d="M42,162.4c0.6-1.2,0.1-2.7-1.1-3.3c-1.2-0.6-2.7-0.1-3.3,1.1l-1.2,2.5c-2.7,5.4-2.7,11.8,0,17.2
		c2,4,2,8.7,0,12.7l-1.2,2.5c-0.6,1.2-0.1,2.7,1.1,3.3c1.2,0.6,2.7,0.1,3.3-1.1l0,0l1.2-2.5c2.7-5.4,2.7-11.8,0-17.2
		c-2-4-2-8.7,0-12.7L42,162.4z"/>
	<path class="st4" d="M71.9,162.4c0.6-1.2,0.1-2.7-1.1-3.3s-2.7-0.1-3.3,1.1l0,0l-1.2,2.5c-2.7,5.4-2.7,11.8,0,17.2
		c2,4,2,8.7,0,12.7l-1.2,2.5c-0.6,1.2-0.1,2.7,1.1,3.3s2.7,0.1,3.3-1.1l0,0l1.2-2.5c2.7-5.4,2.7-11.8,0-17.2c-2-4-2-8.7,0-12.7
		L71.9,162.4z"/>
	<path class="st4" d="M56.9,162.4c0.6-1.2,0.1-2.7-1.1-3.3c-1.2-0.6-2.7-0.1-3.3,1.1l0,0l-1.2,2.5c-2.7,5.4-2.7,11.8,0,17.2
		c2,4,2,8.7,0,12.7L50,195c-0.6,1.2-0.1,2.7,1.1,3.3c1.2,0.6,2.7,0.1,3.3-1.1l0,0l1.2-2.5c2.7-5.4,2.7-11.8,0-17.2
		c-2-4-2-8.7,0-12.7L56.9,162.4z"/>
	<path class="st5" d="M161.7,149.6v-4.5c0-15.8-12.8-28.6-28.6-28.6s-28.6,12.8-28.6,28.6v18.7l-4.4-4.4c-4.1-4.2-10.8-4.3-14.9-0.2
		c-4.2,4.1-4.3,10.8-0.2,14.9c0.1,0.1,0.1,0.1,0.2,0.2l16.2,16.2C114.2,188.3,151.7,179.4,161.7,149.6z"/>
	<path class="st6" d="M101.3,190.5l0.6,0.6v5h59.7v-46.5C151.7,179.4,114.2,188.3,101.3,190.5z"/>
	<path class="st4" d="M99.5,59.3c-11,0-19.9,8.9-19.9,19.9s8.9,19.9,19.9,19.9s19.9-8.9,19.9-19.9S110.5,59.3,99.5,59.3z M99.5,94.1
		c-8.2,0-14.9-6.7-14.9-14.9s6.7-14.9,14.9-14.9s14.9,6.7,14.9,14.9S107.7,94.1,99.5,94.1z"/>
	<path class="st4" d="M54.7,59.3c-11,0-19.9,8.9-19.9,19.9s8.9,19.9,19.9,19.9s19.9-8.9,19.9-19.9C74.6,68.2,65.7,59.3,54.7,59.3z
		 M54.7,94.1c-8.2,0-14.9-6.7-14.9-14.9s6.7-14.9,14.9-14.9S69.6,71,69.6,79.2C69.6,87.4,62.9,94.1,54.7,94.1z"/>
	<path class="st4" d="M144.3,59.3c-11,0-19.9,8.9-19.9,19.9s8.9,19.9,19.9,19.9s19.9-8.9,19.9-19.9S155.3,59.3,144.3,59.3z
		 M144.3,94.1c-8.2,0-14.9-6.7-14.9-14.9s6.7-14.9,14.9-14.9s14.9,6.7,14.9,14.9S152.5,94.1,144.3,94.1z"/>
	<path class="st4" d="M54.7,104c-11,0-19.9,8.9-19.9,19.9s8.9,19.9,19.9,19.9s19.9-8.9,19.9-19.9C74.6,113,65.7,104.1,54.7,104z
		 M54.7,138.9c-8.2,0-14.9-6.7-14.9-14.9s6.6-15,14.9-15s14.9,6.7,14.9,14.9C69.6,132.2,62.9,138.9,54.7,138.9z"/>
	<path class="st4" d="M161.7,49.3H37.3c-6.9,0-12.4,5.6-12.4,12.4v79.6c0,6.9,5.6,12.4,12.4,12.4H102v3.9l-0.1-0.1
		c-5.1-5.1-13.4-5.1-18.4,0c-5.1,5.1-5.1,13.4,0,18.4l0,0L99.6,192v3.9c0,1.4,1.1,2.5,2.5,2.5h59.7c1.4,0,2.5-1.1,2.5-2.5v-42.6
		c5.8-1.2,9.9-6.3,10-12.2V61.7C174.1,54.9,168.5,49.3,161.7,49.3z M102.7,138.5c-1.1,0.2-2.1,0.4-3.2,0.4c-8.2,0-15-6.6-15-14.9
		c0-8.2,6.6-15,14.9-15c7,0,13,4.8,14.6,11.6C108.2,125.1,104.2,131.4,102.7,138.5z M159.2,193.6h-54.7v-2.5c0-0.7-0.3-1.3-0.7-1.8
		L87,172.5c-3.1-3.2-3.1-8.3,0.1-11.4c3.1-3.1,8.1-3.1,11.3,0l4.4,4.4c1,1,2.5,1,3.5,0c0.5-0.5,0.7-1.1,0.7-1.8V145
		c0-14.4,11.7-26.1,26.1-26.1s26.1,11.7,26.1,26.1L159.2,193.6L159.2,193.6z M158.7,127.6c-2.4-3.4-5.4-6.3-8.8-8.6h1.8v-5h-5v3.2
		c-4.2-2.1-8.9-3.2-13.6-3.2c5.5-6.2,14.9-6.7,21-1.3C158.3,116.4,160.1,122.2,158.7,127.6L158.7,127.6L158.7,127.6z M169.1,141.4
		c0,3.2-2,6-5,7v-3.3c0-4.1-0.8-8.1-2.4-11.8c5.1-9.7,1.4-21.7-8.3-26.9c-9.7-5.1-21.7-1.4-26.9,8.3l0,0c-2.9,0.6-5.7,1.6-8.3,3
		c-3.4-10.5-14.7-16.3-25.2-12.9c-10.5,3.4-16.3,14.7-12.9,25.2c3,9.2,12.1,15,21.8,13.7c0,0.5-0.1,0.9-0.1,1.4v3.7H37.3
		c-4.1,0-7.5-3.3-7.5-7.5V61.7c0-4.1,3.3-7.5,7.5-7.5h124.4c4.1,0,7.5,3.3,7.5,7.5L169.1,141.4L169.1,141.4z"/>
</g>
</svg>
