<?xml version="1.0" encoding="utf-8"?>
<!-- Generator: Adobe Illustrator 19.2.0, SVG Export Plug-In . SVG Version: 6.00 Build 0)  -->
<svg version="1.1" id="Layer_1" xmlns="http://www.w3.org/2000/svg" xmlns:xlink="http://www.w3.org/1999/xlink" x="0px" y="0px"
	 viewBox="0 0 200 200" style="enable-background:new 0 0 200 200;" xml:space="preserve">
<style type="text/css">
	.st0{fill:#544440;}
	.st1{fill:#3F322E;}
	.st2{fill:#FAA834;}
	.st3{fill:#F89929;}
	.st4{fill:#FDDB42;}
	.st5{fill:#FABF29;}
	.st6{fill:#958FC5;}
	.st7{fill:#7874B6;}
	.st8{fill:#6A67AF;}
	.st9{fill:#41B3E6;}
	.st10{fill:#426DB5;}
	.st11{fill:#FBE8CC;}
	.st12{fill:#F9DAB7;}
	.st13{fill:#88CEF2;}
	.st14{fill:#E6E6E5;}
	.st15{fill:#EF4828;}
</style>
<g id="Layer_20">
	<path class="st0" d="M118.6,100.4v7.3c0,2-1.6,3.6-3.6,3.6s-3.6-1.6-3.6-3.6v-7.3c0-2-1.6-3.6-3.6-3.6H93.2c-2,0-3.6,1.6-3.6,3.6
		v44.1c0,2-1.6,3.6-3.6,3.6s-3.6-1.6-3.6-3.6v-44.1c0-6,4.9-10.9,10.9-10.9h14.5c2.8,0,5.4,1.1,7.3,2.8
		C117.2,94.3,118.6,97.2,118.6,100.4z"/>
	<path class="st1" d="M115,92.4c2.3,2,3.6,4.9,3.6,8.1v7.3c0,2-1.6,3.6-3.6,3.6V92.4z"/>
	<path class="st0" d="M151.8,78.2l-3.6,4.1H78.6c-2,0-3.6-1.6-3.6-3.6s1.6-3.6,3.6-3.6h69.5L151.8,78.2z"/>
	<polygon class="st1" points="151.8,78.2 148.1,82.3 115,82.3 115,75 148.1,75 	"/>
	<path class="st2" d="M199,166.3v7.3c0,14-11.4,25.4-25.4,25.4h-73.1c-14,0-25.4-11.4-25.4-25.4v-18.2l7.7-7.3H141l7.3,7.3
		L199,166.3z"/>
	<path class="st3" d="M199,166.3v7.3c0,14-11.4,25.4-25.4,25.4H115v-50.9h25.9l7.3,7.3L199,166.3z"/>
	<path class="st4" d="M155.4,148.8l-7.3,6.6H75v-10.9c0-2,1.6-3.6,3.6-3.6h69.5L155.4,148.8z"/>
	<polygon class="st5" points="155.4,148.8 148.1,155.4 115,155.4 115,140.9 148.1,140.9 	"/>
	<path class="st6" d="M195.4,75h-47.2v91.3c0,0.9,0.4,1.9,1.1,2.5l7.3,7.3c0.7,0.7,1.6,1.1,2.5,1.1s1.9-0.4,2.5-1.1l4.7-4.7l4.7,4.7
		c0.7,0.7,1.6,1,2.5,1s1.9-0.4,2.5-1l4.7-4.7l4.7,4.7c1.4,1.5,3.7,1.5,5.1,0l7.3-7.3c0.7-0.7,1.1-1.6,1.1-2.5V78.6
		C199,76.6,197.4,75,195.4,75z"/>
	<g>
		<path class="st7" d="M199,78.6v87.7c0,0.9-0.4,1.9-1.1,2.5l-7.3,7.3c-1.4,1.5-3.7,1.5-5.1,0l-4.7-4.7l-4.7,4.7
			c-0.7,0.7-1.6,1-2.5,1V75h21.8C197.4,75,199,76.6,199,78.6z"/>
		<path class="st7" d="M166.3,155.4c-2,0-3.6-1.6-3.6-3.6V93.2c0-2,1.6-3.6,3.6-3.6s3.6,1.6,3.6,3.6v58.6
			C169.9,153.8,168.3,155.4,166.3,155.4z"/>
	</g>
	<path class="st8" d="M180.8,155.4c-2,0-3.6-1.6-3.6-3.6V93.2c0-2,1.6-3.6,3.6-3.6s3.6,1.6,3.6,3.6v58.6
		C184.5,153.8,182.8,155.4,180.8,155.4z"/>
	<path class="st4" d="M115,104.1c-10,0-18.2,8.1-18.2,18.2c0,2,1.6,3.6,3.6,3.6h29.1c2,0,3.6-1.6,3.6-3.6
		C133.1,112.2,125,104.1,115,104.1z"/>
	<path class="st5" d="M129.5,125.9H115v-21.8c10,0,18.2,8.1,18.2,18.2C133.1,124.3,131.5,125.9,129.5,125.9z"/>
</g>
<g id="Layer_21">
	<path class="st9" d="M57.8,198.6H2.3v-92.4h55.4L57.8,198.6L57.8,198.6z"/>
	<path class="st10" d="M48.6,106.1h-37V92.3h37V106.1z"/>
	<path class="st11" d="M136.3,147.7h-2.4c-1.4,0-2.8-0.3-4.1-1l-5.3-2.7c-1.3-0.6-2.7-1-4.1-1H99c-1.2,0-2.4,0.5-3.3,1.4
		c-1.8,1.8-1.8,4.7,0,6.5c0.9,0.9,2,1.4,3.3,1.4h12.3c1.2,0,2.4,0.5,3.3,1.4c1.8,1.8,1.8,4.7,0,6.5c-0.9,0.9-2,1.4-3.3,1.4h-17
		c-1.2,0-2.4-0.5-3.3-1.4l-15.7-15.7c-0.9-0.9-2.2-1.4-3.5-1.4c-2.7,0-4.9,2.2-4.9,4.9c0,1.3,0.5,2.5,1.4,3.5l18,18
		c0.9,0.9,2,1.4,3.3,1.4h46.6L136.3,147.7L136.3,147.7z"/>
	<path class="st12" d="M80,135.3c-0.9-0.9-2.2-1.4-3.5-1.4c-2.7,0-4.9,2.2-4.9,4.9c0,1.3,0.5,2.5,1.4,3.5l18,18
		c0.9,0.9,2,1.4,3.3,1.4h17c1.2,0,2.4-0.5,3.3-1.4c1.8-1.8,1.8-4.7,0-6.5c-0.9-0.9-2-1.4-3.3-1.4H99c-1.2,0-2.4-0.5-3.3-1.4
		L80,135.3z"/>
	<path class="st9" d="M34.7,92.3h-9.2V73.8h9.2V92.3z"/>
	<path class="st13" d="M20.8,64.6h40.1c3.7,0,7.2,1.5,9.8,4.1l6.1,6.1c0.9,0.9,1.4,2.2,1.4,3.5l0,0c0,2.7-2.2,4.9-4.9,4.9
		c-1.3,0-2.5-0.5-3.5-1.4l-6.5-6.5c-0.9-0.9-2-1.4-3.3-1.4H20.8c-2.6,0-4.6-2.1-4.6-4.6C16.2,66.6,18.3,64.6,20.8,64.6z"/>
	<path class="st9" d="M82.8,103.4c1.7,1.7,2.7,4.1,2.7,6.5v0.8c0,5.1-4.1,9.2-9.2,9.2s-9.2-4.1-9.2-9.2V110c0-2.5,1-4.8,2.7-6.5
		l6.5-6.5L82.8,103.4z"/>
	<path class="st14" d="M57.8,170.8H2.3v-37h55.4L57.8,170.8L57.8,170.8z"/>
	<path class="st15" d="M34.7,147.7h4.6v9.2h-4.6v4.6h-9.2V157h-4.6v-9.2h4.6v-4.6h9.2V147.7z"/>
</g>
</svg>
