<?xml version="1.0" encoding="utf-8"?>
<!-- Generator: Adobe Illustrator 19.2.0, SVG Export Plug-In . SVG Version: 6.00 Build 0)  -->
<svg version="1.1" id="Layer_1" xmlns="http://www.w3.org/2000/svg" xmlns:xlink="http://www.w3.org/1999/xlink" x="0px" y="0px"
	 viewBox="0 0 200 200" style="enable-background:new 0 0 200 200;" xml:space="preserve">
<style type="text/css">
	.st0{fill:#975835;}
	.st1{fill:#C07340;}
	.st2{fill:#B56E3E;}
	.st3{fill:#F09F3E;}
	.st4{fill:#E7CDB0;}
	.st5{fill:#F1DCC2;}
	.st6{fill:#D78032;}
	.st7{fill:#E69B50;}
	.st8{fill:#C67131;}
	.st9{fill:#D87D37;}
	.st10{fill:#B35E27;}
</style>
<g id="Layer_11">
	<path class="st0" d="M1.9,172.2v14.1c0,3.1,2.5,5.7,5.7,5.7h141.3c3.1,0,5.7-2.5,5.7-5.7v-14.1H1.9z"/>
	<path class="st1" d="M7.6,87.4h141.3c3.1,0,5.7,2.5,5.7,5.7V175c0,3.1-2.5,5.7-5.7,5.7H7.6c-3.1,0-5.7-2.5-5.7-5.7V93.1
		C1.9,89.9,4.5,87.4,7.6,87.4z"/>
	<path class="st2" d="M148.9,87.4h-3.4c-35.8,59.1-108,81.8-143.2,89.6c0.8,2.2,2.9,3.6,5.3,3.7h141.3c3.1,0,5.7-2.5,5.7-5.7V93.1
		C154.5,89.9,152,87.4,148.9,87.4z"/>
	<path class="st3" d="M35.8,53.5L35.8,53.5c0,6.2,5.1,11.3,11.3,11.3l0,0V110c0,3.1,2.5,5.7,5.7,5.7h84.8c3.1,0,5.7-2.5,5.7-5.7
		V64.8l0,0c6.2,0,11.3-5.1,11.3-11.3l0,0c0-6.2-5.1-11.3-11.3-11.3H47.1C40.9,42.2,35.8,47.3,35.8,53.5z"/>
	<path class="st4" d="M35.8,53.5L35.8,53.5c0,6.2,5.1,11.3,11.3,11.3l0,0V110c0,3.1,2.5,5.7,5.7,5.7H98c3.1,0,5.7-2.5,5.7-5.7V64.8
		l0,0c6.2,0,11.3-5.1,11.3-11.3l0,0c0-6.2-5.1-11.3-11.3-11.3H47.1C40.9,42.2,35.8,47.3,35.8,53.5z"/>
	<path class="st5" d="M2.6,71.6L2.6,71.6C4.2,76,8.4,78.9,13,78.9h0.3l10.2,46.4c0.6,2.6,2.9,4.4,5.5,4.4h44.8
		c3.1,0,5.7-2.5,5.6-5.7c0-0.4-0.1-0.9-0.1-1.3L69,78.9h0.8C76,78.8,81,73.7,81,67.5c0-1.3-0.2-2.5-0.7-3.7l0,0
		c-1.6-4.5-5.7-7.5-10.5-7.5H13.1C6.8,56.4,1.8,61.5,1.9,67.7C1.9,69,2.2,70.3,2.6,71.6z"/>
	<g>
		<rect x="120.6" y="62" class="st6" width="22.6" height="5.7"/>
		<rect x="112.1" y="76.1" class="st6" width="5.7" height="5.7"/>
		<rect x="117.8" y="98.7" class="st6" width="5.7" height="5.7"/>
		<rect x="129.1" y="87.4" class="st6" width="5.7" height="5.7"/>
		<path class="st6" d="M120.6,163.7h8.5l2.8-5.7h22.6l2.8,5.7h2.8c6.2,0,11.3-5.1,11.3-11.3l0,0c0-6.2-5.1-11.3-11.3-11.3h-39.6
			L120.6,163.7L120.6,163.7z"/>
	</g>
	<path class="st5" d="M120.6,163.7l-5.7-2.8l-5.7,2.8l-5.7-2.8l-5.7,2.8l-5.7-2.8l-5.7,2.8l-5.7-2.8l-5.7,2.8l-5.7-2.8l-5.7,2.8
		l-5.7-2.8l-5.7,2.8l-5.7-2.8l-5.7,2.8l-5.7-2.8l-5.7,2.8l-5.7-2.8l-5.7,2.8h-5.7v-11.3c0-6.2,5.1-11.3,11.3-11.3h96.1v22.6H120.6z"
		/>
	<g>
		<rect x="129.1" y="146.7" class="st0" width="5.7" height="5.7"/>
		<rect x="154.5" y="146.7" class="st0" width="5.7" height="5.7"/>
	</g>
</g>
<g id="Layer_12">
	<g>
		<path class="st7" d="M188.8,190.1c-6.6,10.1-28.5-1.2-53.9-17.7s-44.5-32-37.9-42.1s36.5-11.1,61.8,5.4S195.4,180,188.8,190.1z"/>
	</g>
	<g>
		<path class="st8" d="M143.6,146.6c1,1.4,3.1,1,3.6-0.6c1.1-3.7,2.6-9.7,2.6-15.4c-3.7-1.8-7.4-3.2-11.1-4.4
			C137.1,131.5,138,138.6,143.6,146.6z"/>
	</g>
	<g>
		<path class="st9" d="M188.8,190.1c5.5-8.4-1.4-29.1-18.5-45.3l-43.7,22.1c2.7,1.8,5.4,3.7,8.3,5.5
			C160.3,189,182.2,200.2,188.8,190.1z"/>
	</g>
	<g>
		<path class="st8" d="M123.7,137.8c0.7,1,2.3,0.8,2.7-0.4c1-3.2,2.3-8.7,1.9-13.6c-2.9-0.5-5.7-0.7-8.4-0.8
			C118.9,126.9,119.6,132,123.7,137.8z"/>
	</g>
	<g>
		<path class="st10" d="M164.7,157.6c1.6-3,3.7-7.7,5-12.6l-11,5.6c0.5,2.2,1.2,4.5,2.3,6.9C161.8,159.1,163.9,159.1,164.7,157.6z"
			/>
	</g>
	<g>
		<path class="st10" d="M177.9,171.3c0.4,1.2,2,1.4,2.7,0.4c1.3-1.9,3-4.8,4.4-8c-1.6-2.9-3.4-5.8-5.6-8.7
			C176.7,158.3,175.4,163.8,177.9,171.3z"/>
	</g>
</g>
</svg>
