<?xml version="1.0" encoding="utf-8"?>
<!-- Generator: Adobe Illustrator 19.2.0, SVG Export Plug-In . SVG Version: 6.00 Build 0)  -->
<svg version="1.1" id="Layer_1" xmlns="http://www.w3.org/2000/svg" xmlns:xlink="http://www.w3.org/1999/xlink" x="0px" y="0px"
	 viewBox="0 0 200 200" style="enable-background:new 0 0 200 200;" xml:space="preserve">
<style type="text/css">
	.st0{fill:#FBD490;}
	.st1{fill:#F9F2E8;}
	.st2{fill:#ED7161;}
	.st3{fill:#F8DA4A;}
	.st4{fill:#F8E981;}
	.st5{fill:#EACB4A;}
	.st6{fill:#A5703E;}
	.st7{fill:#E6E6E5;}
	.st8{fill:#F8E7B9;}
	.st9{fill:#F0DBA6;}
	.st10{fill:#7E9DD1;}
	.st11{fill:#B3BDCC;}
	.st12{fill:#A8B3C0;}
</style>
<g id="Cakes">
	<g>
		<path class="st0" d="M152.4,96.2H47.6v-37c0-3.4,2.8-6.2,6.2-6.2h92.5c3.4,0,6.2,2.8,6.2,6.2v37H152.4z"/>
		<g>
			<path class="st1" d="M146.3,53.1h-13.8c0.4,8.6,7.4,15.4,16.1,15.4c1.3,0,2.6-0.2,3.9-0.5v-8.7C152.4,55.8,149.7,53.1,146.3,53.1
				z"/>
			<path class="st1" d="M51.4,68.5c8.7,0,15.7-6.8,16.1-15.4H53.7c-3.4,0-6.2,2.8-6.2,6.2V68C48.8,68.3,50.1,68.5,51.4,68.5z"/>
			<path class="st1" d="M99.9,53.1H67.7c0.4,8.6,7.4,15.4,16.1,15.4S99.5,61.6,99.9,53.1z"/>
			<path class="st1" d="M132.3,53.1h-32.2c0.4,8.6,7.4,15.4,16.1,15.4S131.9,61.6,132.3,53.1z"/>
		</g>
		<g>
			<path class="st2" d="M53.7,96.2h13.8c-0.4-8.6-7.4-15.4-16.1-15.4c-1.3,0-2.6,0.2-3.9,0.5V90C47.6,93.5,50.3,96.2,53.7,96.2z"/>
			<path class="st2" d="M148.6,80.8c-8.7,0-15.7,6.8-16.1,15.4h13.8c3.4,0,6.2-2.8,6.2-6.2v-8.7C151.2,81,149.9,80.8,148.6,80.8z"/>
			<path class="st2" d="M100.1,96.2h32.2c-0.4-8.6-7.4-15.4-16.1-15.4S100.5,87.7,100.1,96.2z"/>
			<path class="st2" d="M67.7,96.2h32.2c-0.4-8.6-7.4-15.4-16.1-15.4S68.1,87.7,67.7,96.2z"/>
		</g>
		<path class="st3" d="M63,46.9c-0.8,0-1.6-0.3-2.2-0.9c-1.2-1.2-1.2-3.2,0-4.4l9.3-9.3c1.2-1.2,3.2-1.2,4.4,0
			c1.2,1.2,1.2,3.2,0,4.4L65.2,46C64.6,46.6,63.8,46.9,63,46.9z"/>
		<path class="st3" d="M84.6,46.9c-0.8,0-1.6-0.3-2.2-0.9c-1.2-1.2-1.2-3.2,0-4.4l9.3-9.3c1.2-1.2,3.2-1.2,4.4,0
			c1.2,1.2,1.2,3.2,0,4.4L86.8,46C86.2,46.6,85.4,46.9,84.6,46.9z"/>
		<path class="st3" d="M106.2,46.9c-0.8,0-1.6-0.3-2.2-0.9c-1.2-1.2-1.2-3.2,0-4.4l9.3-9.3c1.2-1.2,3.2-1.2,4.4,0
			c1.2,1.2,1.2,3.2,0,4.4l-9.3,9.3C107.7,46.6,107,46.9,106.2,46.9z"/>
		<path class="st3" d="M127.8,46.9c-0.8,0-1.6-0.3-2.2-0.9c-1.2-1.2-1.2-3.2,0-4.4l9.3-9.3c1.2-1.2,3.2-1.2,4.4,0s1.2,3.2,0,4.4
			L130,46C129.3,46.6,128.6,46.9,127.8,46.9z"/>
		<path class="st3" d="M137,46.9c-0.8,0-1.6-0.3-2.2-0.9l-9.3-9.3c-1.2-1.2-1.2-3.2,0-4.4s3.2-1.2,4.4,0l9.3,9.3
			c1.2,1.2,1.2,3.2,0,4.4C138.6,46.6,137.8,46.9,137,46.9z"/>
		<path class="st3" d="M115.4,46.9c-0.8,0-1.6-0.3-2.2-0.9l-9.3-9.3c-1.2-1.2-1.2-3.2,0-4.4s3.2-1.2,4.4,0l9.3,9.3
			c1.2,1.2,1.2,3.2,0,4.4C117,46.6,116.2,46.9,115.4,46.9z"/>
		<path class="st3" d="M93.8,46.9c-0.8,0-1.6-0.3-2.2-0.9l-9.3-9.3c-1.2-1.2-1.2-3.2,0-4.4s3.2-1.2,4.4,0l9.3,9.3
			c1.2,1.2,1.2,3.2,0,4.4C95.4,46.6,94.6,46.9,93.8,46.9z"/>
		<path class="st3" d="M72.2,46.9c-0.8,0-1.6-0.3-2.2-0.9l-9.3-9.3c-1.2-1.2-1.2-3.2,0-4.4s3.2-1.2,4.4,0l9.3,9.3
			c1.2,1.2,1.2,3.2,0,4.4C73.8,46.6,73,46.9,72.2,46.9z"/>
		<path class="st4" d="M164.8,139.4H35.2v-37c0-3.4,2.8-6.2,6.2-6.2h117.2c3.4,0,6.2,2.8,6.2,6.2V139.4z"/>
		<path class="st5" d="M44.5,130.2c-1.7,0-3.1-1.4-3.1-3.1v-18.5c0-1.7,1.4-3.1,3.1-3.1c1.7,0,3.1,1.4,3.1,3.1v18.5
			C47.6,128.8,46.2,130.2,44.5,130.2z"/>
		<path class="st5" d="M56.8,130.2c-1.7,0-3.1-1.4-3.1-3.1v-18.5c0-1.7,1.4-3.1,3.1-3.1s3.1,1.4,3.1,3.1v18.5
			C59.9,128.8,58.5,130.2,56.8,130.2z"/>
		<path class="st5" d="M69.2,130.2c-1.7,0-3.1-1.4-3.1-3.1v-18.5c0-1.7,1.4-3.1,3.1-3.1s3.1,1.4,3.1,3.1v18.5
			C72.2,128.8,70.9,130.2,69.2,130.2z"/>
		<path class="st5" d="M81.5,130.2c-1.7,0-3.1-1.4-3.1-3.1v-18.5c0-1.7,1.4-3.1,3.1-3.1s3.1,1.4,3.1,3.1v18.5
			C84.6,128.8,83.2,130.2,81.5,130.2z"/>
		<path class="st5" d="M93.8,130.2c-1.7,0-3.1-1.4-3.1-3.1v-18.5c0-1.7,1.4-3.1,3.1-3.1s3.1,1.4,3.1,3.1v18.5
			C96.9,128.8,95.5,130.2,93.8,130.2z"/>
		<path class="st5" d="M106.2,130.2c-1.7,0-3.1-1.4-3.1-3.1v-18.5c0-1.7,1.4-3.1,3.1-3.1s3.1,1.4,3.1,3.1v18.5
			C109.3,128.8,107.9,130.2,106.2,130.2z"/>
		<path class="st5" d="M118.5,130.2c-1.7,0-3.1-1.4-3.1-3.1v-18.5c0-1.7,1.4-3.1,3.1-3.1s3.1,1.4,3.1,3.1v18.5
			C121.6,128.8,120.2,130.2,118.5,130.2z"/>
		<path class="st5" d="M130.8,130.2c-1.7,0-3.1-1.4-3.1-3.1v-18.5c0-1.7,1.4-3.1,3.1-3.1s3.1,1.4,3.1,3.1v18.5
			C133.9,128.8,132.6,130.2,130.8,130.2z"/>
		<path class="st5" d="M143.2,130.2c-1.7,0-3.1-1.4-3.1-3.1v-18.5c0-1.7,1.4-3.1,3.1-3.1s3.1,1.4,3.1,3.1v18.5
			C146.3,128.8,144.9,130.2,143.2,130.2z"/>
		<path class="st5" d="M155.5,130.2c-1.7,0-3.1-1.4-3.1-3.1v-18.5c0-1.7,1.4-3.1,3.1-3.1c1.7,0,3.1,1.4,3.1,3.1v18.5
			C158.6,128.8,157.2,130.2,155.5,130.2z"/>
		<g>
			<path class="st6" d="M177.1,182.6H22.9v-37c0-3.4,2.8-6.2,6.2-6.2H171c3.4,0,6.2,2.8,6.2,6.2L177.1,182.6L177.1,182.6z"/>
			<path class="st6" d="M177.1,185.7H22.9c-1.7,0-3.1-1.4-3.1-3.1v-37c0-5.1,4.2-9.3,9.3-9.3H171c5.1,0,9.3,4.2,9.3,9.3v37
				C180.2,184.3,178.8,185.7,177.1,185.7z M26,179.5h148v-33.9c0-1.7-1.4-3.1-3.1-3.1H29c-1.7,0-3.1,1.4-3.1,3.1v33.9H26z"/>
		</g>
		<path class="st0" d="M42.2,173.4c-12.3,0-22.4-10-22.4-22.4c0-1.7,1.4-3.1,3.1-3.1s3.1,1.4,3.1,3.1c0,8.9,7.3,16.2,16.2,16.2
			s16.2-7.3,16.2-16.2c0-1.7,1.4-3.1,3.1-3.1c1.7,0,3.1,1.4,3.1,3.1C64.5,163.3,54.5,173.4,42.2,173.4z"/>
		<path class="st0" d="M80.7,173.4c-12.3,0-22.4-10-22.4-22.4c0-1.7,1.4-3.1,3.1-3.1c1.7,0,3.1,1.4,3.1,3.1
			c0,8.9,7.3,16.2,16.2,16.2s16.2-7.3,16.2-16.2c0-1.7,1.4-3.1,3.1-3.1s3.1,1.4,3.1,3.1C103.1,163.3,93.1,173.4,80.7,173.4z"/>
		<path class="st0" d="M119.3,173.4c-12.3,0-22.4-10-22.4-22.4c0-1.7,1.4-3.1,3.1-3.1s3.1,1.4,3.1,3.1c0,8.9,7.3,16.2,16.2,16.2
			s16.2-7.3,16.2-16.2c0-1.7,1.4-3.1,3.1-3.1s3.1,1.4,3.1,3.1C141.6,163.3,131.6,173.4,119.3,173.4z"/>
		<path class="st0" d="M157.8,173.4c-12.3,0-22.4-10-22.4-22.4c0-1.7,1.4-3.1,3.1-3.1s3.1,1.4,3.1,3.1c0,8.9,7.3,16.2,16.2,16.2
			S174,159.9,174,151c0-1.7,1.4-3.1,3.1-3.1c1.7,0,3.1,1.4,3.1,3.1C180.2,163.3,170.2,173.4,157.8,173.4z"/>
		<path class="st7" d="M186.4,185.7H13.6c-1.7,0-3.1-1.4-3.1-3.1s1.4-3.1,3.1-3.1h172.8c1.7,0,3.1,1.4,3.1,3.1
			S188.1,185.7,186.4,185.7z"/>
		<path class="st7" d="M174,195H26c-1.7,0-3.1-1.4-3.1-3.1s1.4-3.1,3.1-3.1h148c1.7,0,3.1,1.4,3.1,3.1S175.7,195,174,195z"/>
	</g>
</g>
<g id="Pastries">
	<path class="st8" d="M45.4,138.7c0,0-11.9-18.4-24.9-27.4c-1.8-1.3-4.3-0.1-4.5,2c-0.1,0.5-0.1,0.9-0.2,1.4c-0.2,2-1.6,3.7-3.5,4.4
		l-1.5,0.5c-2.8,1-4.7,3.7-4.5,6.8l0.1,1.6c0.1,2-0.9,3.9-2.7,4.9c-0.4,0.2-0.8,0.4-1.2,0.7c-1.9,1-2,3.8-0.2,4.9
		C15.6,147,37.2,151,37.2,151L45.4,138.7z"/>
	<path class="st9" d="M43.1,142.2c-15.4-1.3-29.9-13.4-34.2-21.5c-1.7,1.3-2.7,3.4-2.6,5.7l0.1,1.6c0.1,2-0.9,3.9-2.7,4.9
		c-0.4,0.2-0.8,0.4-1.2,0.7c-1.9,1-2,3.8-0.2,4.9C15.6,147,37.2,151,37.2,151L43.1,142.2z"/>
	<path class="st8" d="M24.9,141.6c-0.3,0.1-0.6,0-0.9-0.1l-7.9-3.6c-0.7-0.3-1.1-1.2-0.7-2c0.3-0.7,1.2-1.1,2-0.7l7.9,3.6
		c0.7,0.3,1.1,1.2,0.7,2C25.8,141.2,25.4,141.5,24.9,141.6z"/>
	<path class="st9" d="M30.8,132.7c-0.5,0.1-0.9,0-1.3-0.4l-6.3-5.9c-0.6-0.6-0.6-1.5-0.1-2.1c0.6-0.6,1.5-0.6,2.1-0.1l6.3,5.9
		c0.6,0.6,0.6,1.5,0.1,2.1C31.4,132.5,31.1,132.7,30.8,132.7z"/>
	
		<ellipse transform="matrix(0.555 -0.8318 0.8318 0.555 -103.026 108.1821)" class="st10" cx="49.6" cy="150.4" rx="27.6" ry="28.8"/>
	<path class="st8" d="M87.5,189.3l12.6-18.8c-8-9.5-8.1-39.4-28.5-53c-10.4-6.9-24.5-4.1-31.4,6.3c-1.7,2.5-2.8,5.2-3.3,8
		c-2.3,1.6-4.4,3.6-6.1,6.1c-1.7,2.5-2.8,5.2-3.3,8c-2.3,1.6-4.4,3.6-6.1,6.1c-6.9,10.4-4.1,24.5,6.3,31.4
		C48.1,197,75.7,185.5,87.5,189.3z"/>
	<path class="st11" d="M109.6,194.7l3.9-5.9c0.8-1.2,0.8-2.7-0.1-3.9l-3.3-4.7c-2.7-3.9-6.2-7.2-10.1-9.8l0,0l-12.6,18.8l0,0
		c3.9,2.6,8.3,4.5,12.9,5.6l5.6,1.3C107.4,196.4,108.8,195.9,109.6,194.7z"/>
	<g>
		<path class="st9" d="M52.8,138c0.3,0.1,0.6,0.2,0.9,0.1c0.4-0.1,0.8-0.4,1-0.8c0.4-0.7,0-1.6-0.7-2c-4.6-2.2-11.4-4.2-16.9-5.1
			c-0.1,0.5-0.2,0.9-0.3,1.4c-0.6,0.4-1.1,0.8-1.7,1.3C40.4,133.7,47.8,135.6,52.8,138z"/>
		<path class="st9" d="M37.4,160.3c0.4,0.3,0.8,0.4,1.3,0.3c0.3-0.1,0.6-0.2,0.8-0.5c0.5-0.6,0.5-1.5-0.1-2.1
			c-4.2-3.7-8.8-9.8-11.5-14.3c-0.2,0.7-0.4,1.3-0.5,2c-0.4,0.3-0.8,0.6-1.2,0.9C29.2,151.4,33.6,156.9,37.4,160.3z"/>
		<path class="st9" d="M93.1,180.9c-6.6-2.9-16.1-7.6-25.5-7.3C31,175,25.2,160.3,22.9,149.7c-0.6,0.7-1.1,1.4-1.6,2.1
			c-6.9,10.4-4.1,24.5,6.3,31.4c20.5,13.7,48.1,2.2,59.9,6L93.1,180.9z"/>
		<path class="st9" d="M87.8,163.3c-0.7,0.1-1.4-0.2-1.7-0.9c-1.7-4.7-5.5-13.1-7.5-16.3c-0.4-0.7-0.2-1.6,0.5-2s1.6-0.2,2,0.5
			c2.2,3.6,6.2,12.6,7.7,16.9C89.1,162.3,88.7,163.1,87.8,163.3C87.9,163.3,87.8,163.3,87.8,163.3z"/>
	</g>
	<path class="st8" d="M69.8,182C69.7,182,69.7,182,69.8,182c-7,1-10.8,1-16.9,0.5c-0.8-0.1-1.4-0.8-1.4-1.6c0.1-0.8,0.8-1.4,1.6-1.4
		c5.9,0.4,9.5,0.5,16.2-0.5c0.8-0.1,1.6,0.4,1.7,1.3C71.1,181.1,70.5,181.8,69.8,182z"/>
	<path class="st12" d="M93.1,180.9L93.1,180.9l-5.6,8.4l0,0c3.9,2.6,8.3,4.5,12.9,5.6l5.6,1.3c1.4,0.3,2.8-0.3,3.6-1.4l3.3-4.9
		C106.3,188.8,98.3,184,93.1,180.9z"/>
	<g>
		<ellipse transform="matrix(0.9807 -0.1957 0.1957 0.9807 -26.2988 16.6287)" class="st9" cx="71" cy="141.4" rx="1.5" ry="1.5"/>
		
			<ellipse transform="matrix(0.9807 -0.1957 0.1957 0.9807 -23.7898 14.2251)" class="st9" cx="60.1" cy="127.5" rx="1.5" ry="1.5"/>
		<ellipse transform="matrix(0.9807 -0.1957 0.1957 0.9807 -28.286 12.7122)" class="st9" cx="50.2" cy="149.5" rx="1.5" ry="1.5"/>
	</g>
	<ellipse transform="matrix(0.9807 -0.1957 0.1957 0.9807 -33.9304 10.3877)" class="st8" cx="35.6" cy="176.9" rx="1.5" ry="1.5"/>
	<ellipse transform="matrix(0.9807 -0.1957 0.1957 0.9807 -30.7266 18.6249)" class="st9" cx="78.9" cy="164.8" rx="1.5" ry="1.5"/>
</g>
</svg>
