<?xml version="1.0" encoding="utf-8"?>
<!-- Generator: Adobe Illustrator 19.2.0, SVG Export Plug-In . SVG Version: 6.00 Build 0)  -->
<svg version="1.1" id="Layer_1" xmlns="http://www.w3.org/2000/svg" xmlns:xlink="http://www.w3.org/1999/xlink" x="0px" y="0px"
	 viewBox="0 0 200 200" style="enable-background:new 0 0 200 200;" xml:space="preserve">
<style type="text/css">
	.st0{fill:#E6E6E5;}
	.st1{fill:#FFFFFF;}
	.st2{fill:#D13A34;}
	.st3{fill:#456C33;}
	.st4{fill:#EE4033;}
	.st5{fill:#659C41;}
	.st6{fill:#88C057;}
	.st7{fill:#A5703E;}
	.st8{fill:#FBD490;}
	.st9{display:none;}
	.st10{display:inline;fill:#D3D5D7;}
	.st11{display:inline;fill:#A5703E;}
	.st12{fill:#B27C4F;}
	.st13{fill:#F8E981;}
	.st14{fill:#EEE7D1;}
	.st15{fill:#FFF6BB;}
	.st16{fill:#D3D5D7;}
	.st17{fill:#ED8F22;}
</style>
<g id="Layer_76">
	<g>
		<path class="st0" d="M72.4,200h26.9c2.4,0,3.9-2.7,2.7-4.7l0,0c-1.7-2.9-2.1-6.5-0.5-9.5c1.4-2.6,3.6-4.8,6.3-6.1
			c19-9.1,32.4-19.2,33.8-39.8c0.1-2-1.4-3.6-3.4-3.6H72.4h-68c-2,0-3.5,1.7-3.4,3.6c1.4,20.6,14.9,30.8,33.8,39.8
			c2.8,1.3,5,3.5,6.3,6.1c1.6,3,1.2,6.6-0.5,9.5l0,0c-1.3,2.1,0.2,4.7,2.7,4.7H72.4z"/>
		<path class="st1" d="M89.5,185.3H68.1c-1.4,0-2.5-1.1-2.5-2.5s1.1-2.5,2.5-2.5h21.4c1.4,0,2.5,1.1,2.5,2.5
			C91.9,184.2,90.8,185.3,89.5,185.3z"/>
		<path class="st1" d="M60.9,185.3h-8.3c-1.4,0-2.5-1.1-2.5-2.5s1.1-2.5,2.5-2.5h8.3c1.4,0,2.5,1.1,2.5,2.5S62.3,185.3,60.9,185.3z"
			/>
		<path class="st1" d="M89.5,192.6H52.6c-1.4,0-2.5-1.1-2.5-2.5s1.1-2.5,2.5-2.5h36.9c1.4,0,2.5,1.1,2.5,2.5S90.8,192.6,89.5,192.6z
			"/>
		<path class="st2" d="M101.8,77.1c-12.2,0-22.1,9.9-22.1,22.1c0,1.7,0.2,3.4,0.6,5c1.2,1.3,3.1,1.7,4.8,0.9l1-0.4
			c2.7-1.2,5.8,0.5,6,3.5l0.1,1.1c0.2,2.1,1.8,3.7,3.9,3.9l1.1,0.1c2.9,0.3,4.7,3.4,3.5,6l-0.4,1c-0.1,0.3-0.2,0.7-0.3,1
			c0.6,0.1,1.3,0.1,1.9,0.1c12.2,0,22.1-9.9,22.1-22.1C123.9,87,114,77.1,101.8,77.1z"/>
		<path class="st3" d="M123.8,100.5c-0.7,11.6-10.3,20.9-22.1,20.9c-0.6,0-1.3,0-1.9-0.1c-0.3,1.6,0.3,3.3,1.7,4.3l0.9,0.6
			c2.4,1.7,2.4,5.3,0,7l-0.9,0.6c-0.8,0.6-1.3,1.3-1.6,2.2l0.1,0.1h33c3.5-3.9,5.7-9.1,5.7-14.7
			C138.6,111.7,132.4,103.5,123.8,100.5z"/>
		<path class="st4" d="M98.3,98.2c-0.6,0-1.3-0.2-1.7-0.7l-7-7c-1-1-1-2.5,0-3.5s2.5-1,3.5,0l7,7c1,1,1,2.5,0,3.5
			C99.6,98,98.9,98.2,98.3,98.2z"/>
		<path class="st4" d="M112.2,112.1c-0.6,0-1.3-0.2-1.7-0.7l-7-7c-1-1-1-2.5,0-3.5s2.5-1,3.5,0l7,7c1,1,1,2.5,0,3.5
			C113.5,111.9,112.8,112.1,112.2,112.1z"/>
		<path class="st4" d="M105.2,98.2c-0.6,0-1.3-0.2-1.7-0.7c-1-1-1-2.5,0-3.5l7-7c1-1,2.5-1,3.5,0s1,2.5,0,3.5l-7,7
			C106.5,98,105.9,98.2,105.2,98.2z"/>
		<path class="st4" d="M92.6,110.9c-0.6,0-1.3-0.2-1.7-0.7c-1-1-1-2.5,0-3.5l5.7-5.7c1-1,2.5-1,3.5,0s1,2.5,0,3.5l-5.7,5.7
			C93.8,110.7,93.2,110.9,92.6,110.9z"/>
		<path class="st5" d="M131.3,121.4h-9.8c-1.4,0-2.5-1.1-2.5-2.5s1.1-2.5,2.5-2.5h9.8c1.4,0,2.5,1.1,2.5,2.5
			S132.6,121.4,131.3,121.4z"/>
		<path class="st5" d="M116.5,136.1c-1.4,0-2.5-1.1-2.5-2.5v-9.8c0-1.4,1.1-2.5,2.5-2.5s2.5,1.1,2.5,2.5v9.8
			C119,135,117.9,136.1,116.5,136.1z"/>
		<path class="st6" d="M58.7,113.4c2.4,0.7,3.7,3.5,2.6,5.9l-0.4,1c-0.9,1.9-0.3,4.1,1.4,5.3l0.9,0.6c2.4,1.7,2.4,5.3,0,7l-0.9,0.6
			c-0.8,0.6-1.4,1.4-1.6,2.3h11.8H100c0.3-0.9,0.8-1.8,1.6-2.3l0.9-0.6c2.4-1.7,2.4-5.3,0-7l-0.9-0.6c-1.7-1.2-2.3-3.4-1.4-5.3
			l0.4-1c1.2-2.7-0.5-5.8-3.5-6l-1.1-0.1c-2.1-0.2-3.7-1.8-3.9-3.9l-0.1-1.1c-0.3-2.9-3.4-4.7-6-3.5l-1,0.4
			c-1.9,0.9-4.1,0.3-5.3-1.4l-0.6-0.9c-1.7-2.4-5.3-2.4-7,0l-0.6,0.9c-1.2,1.7-3.4,2.3-5.3,1.4l-1-0.4c-2.7-1.2-5.8,0.6-6,3.5
			l-0.1,1.1c-0.1,1.1-0.6,2.3-1,3.1C58,112.8,58.2,113.3,58.7,113.4z"/>
		<path class="st7" d="M31.8,102.4L46,82.3c2.3-3.3,7-4.1,10.3-1.8l0,0c3.3,2.3,4.1,7,1.8,10.3l-14.2,20.1c-2.3,3.3-7,4.1-10.3,1.8
			l0,0C30.3,110.3,29.5,105.7,31.8,102.4z"/>
		<path class="st8" d="M63.1,126.2l-0.9-0.6c-1.7-1.2-2.3-3.4-1.4-5.3l0.4-1c1.2-2.7-0.6-5.8-3.5-6l-1.1-0.1
			c-2.1-0.2-3.7-1.8-3.9-3.9l-0.1-1.1c-0.2-2.3-2.2-3.9-4.3-3.9l-4.6,6.5c-2.3,3.3-7,4.1-10.3,1.8l0,0c-2.5-1.7-3.5-4.8-3-7.6
			c-1.1,0.6-2.5,0.7-3.7,0.1l-1-0.4c-2.7-1.2-5.8,0.6-6,3.5l-0.1,1.1c-0.2,2.1-1.8,3.7-3.9,3.9l-1.1,0.1c-2.9,0.3-4.7,3.4-3.5,6
			l0.4,1c0.9,1.9,0.3,4.1-1.4,5.3l-0.9,0.6c-2.4,1.7-2.4,5.3,0,7l0.9,0.6c0.8,0.6,1.4,1.4,1.6,2.3h48.5c0.3-0.9,0.8-1.8,1.6-2.3
			l0.9-0.6C65.5,131.5,65.5,127.9,63.1,126.2z"/>
		<path class="st3" d="M73.5,120.1c-0.6,0-1.3-0.2-1.7-0.7c-1-1-1-2.5,0-3.5l3.7-3.7c1-1,2.5-1,3.5,0s1,2.5,0,3.5l-3.7,3.7
			C74.8,119.9,74.1,120.1,73.5,120.1z"/>
		<path class="st3" d="M87,126.3c-0.6,0-1.3-0.2-1.7-0.7l-2.5-2.5c-1-1-1-2.5,0-3.5s2.5-1,3.5,0l2.5,2.5c1,1,1,2.5,0,3.5
			C88.3,126,87.7,126.3,87,126.3z"/>
		<path class="st3" d="M74.7,131.2c-0.6,0-1.3-0.2-1.7-0.7c-1-1-1-2.5,0-3.5l2.5-2.5c1-1,2.5-1,3.5,0s1,2.5,0,3.5l-2.5,2.5
			C76,130.9,75.4,131.2,74.7,131.2z"/>
	</g>
	<g class="st9">
		<path class="st10" d="M152.1,138.5c-1.2,0-2.2-1-2.2-2.2V71.5c0-1.2,1-2.2,2.2-2.2s2.2,1,2.2,2.2v64.7
			C154.3,137.5,153.3,138.5,152.1,138.5z"/>
		<path class="st11" d="M152.1,198.8L152.1,198.8c-3.7,0-6.7-3-6.7-6.7V143c0-3.7,3-6.7,6.7-6.7l0,0c3.7,0,6.7,3,6.7,6.7v49.1
			C158.8,195.7,155.8,198.8,152.1,198.8z"/>
		<path class="st10" d="M152.1,149.7L152.1,149.7c-1.2,0-2.2-1-2.2-2.2l0,0c0-1.2,1-2.2,2.2-2.2l0,0c1.2,0,2.2,1,2.2,2.2l0,0
			C154.3,148.6,153.3,149.7,152.1,149.7z"/>
		<path class="st10" d="M152.1,158.6L152.1,158.6c-1.2,0-2.2-1-2.2-2.2l0,0c0-1.2,1-2.2,2.2-2.2l0,0c1.2,0,2.2,1,2.2,2.2l0,0
			C154.3,157.6,153.3,158.6,152.1,158.6z"/>
		<path class="st10" d="M152.1,111.7c-6.2,0-11.2-5-11.2-11.2v-29c0-1.2,1-2.2,2.2-2.2s2.2,1,2.2,2.2v29c0,3.7,3,6.7,6.7,6.7
			s6.7-3,6.7-6.7v-29c0-1.2,1-2.2,2.2-2.2s2.2,1,2.2,2.2v29C163.3,106.7,158.3,111.7,152.1,111.7z"/>
		<path class="st10" d="M185.6,140.7c6.9-6.9,6.7-22.9,6.7-40.2s1.2-29-13.4-29v69.2H185.6z"/>
		<path class="st11" d="M183.4,198.8L183.4,198.8c-3.7,0-6.7-3-6.7-6.7V143c0-3.7,3-6.7,6.7-6.7l0,0c3.7,0,6.7,3,6.7,6.7v49.1
			C190.1,195.7,187.1,198.8,183.4,198.8z"/>
		<path class="st10" d="M183.4,149.7L183.4,149.7c-1.2,0-2.2-1-2.2-2.2l0,0c0-1.2,1-2.2,2.2-2.2l0,0c1.2,0,2.2,1,2.2,2.2l0,0
			C185.6,148.6,184.6,149.7,183.4,149.7z"/>
		<path class="st10" d="M183.4,158.6L183.4,158.6c-1.2,0-2.2-1-2.2-2.2l0,0c0-1.2,1-2.2,2.2-2.2l0,0c1.2,0,2.2,1,2.2,2.2l0,0
			C185.6,157.6,184.6,158.6,183.4,158.6z"/>
	</g>
</g>
<g id="Layer_89">
	<g>
		<polygon class="st12" points="111.1,194.3 97.6,188.5 97.6,99 111.1,99 		"/>
		<path class="st7" d="M125.8,165.4c0,0,0-0.1,0-0.2c0-4.6,15.5-8.4,34.6-8.4c2,0,3.9,0.1,5.9,0.1l5.2-19.5V99h-60.3v95.3h30.3
			C132.1,188.1,125.8,177.5,125.8,165.4z"/>
		<path class="st13" d="M136.5,144.2h-7.1c-5.7,0-10.4-4.7-10.4-10.4v-7.1h7.1c5.7,0,10.4,4.7,10.4,10.4L136.5,144.2L136.5,144.2z"
			/>
		<path class="st13" d="M144.3,144.2h7.1c5.7,0,10.4-4.7,10.4-10.4v-7.1h-7.1c-5.7,0-10.4,4.7-10.4,10.4V144.2z"/>
		<path class="st13" d="M140.4,135.4l5-5c4.1-4.1,4.1-10.6,0-14.7l-5-5l-5,5c-4.1,4.1-4.1,10.6,0,14.7L140.4,135.4z"/>
		<path class="st14" d="M173.9,157.5l7.3-27.4c0-1.1-0.9-1.9-1.9-1.9h-3.9c-1.1,0-1.9,0.9-1.9,1.9l-7.2,26.8
			c-1.9-0.1-3.9-0.1-5.9-0.1c-19.1,0-34.6,3.7-34.6,8.4c0,0.1,0,0.2,0,0.2c0,19.1,15.5,34.6,34.6,34.6s34.6-15.5,34.6-34.6
			c0,0,0-0.1,0-0.2C195,161.7,186.3,158.7,173.9,157.5z"/>
		<path class="st15" d="M173.9,157.5l7.3-27.4c0-1.1-0.9-1.9-1.9-1.9h-3.9c-1.1,0-1.9,0.9-1.9,1.9l-7.2,26.8
			c-1.9-0.1-3.9-0.1-5.9-0.1c-19.1,0-34.6,3.7-34.6,8.4s15.5,8.4,34.6,8.4s34.6-3.7,34.6-8.4C195,161.7,186.3,158.7,173.9,157.5z"/>
		<path class="st16" d="M173.9,157.5l7.3-27.4c0-1.1-0.9-1.9-1.9-1.9h-3.9c-1.1,0-1.9,0.9-1.9,1.9l-7.2,26.8l-1.3,4.9l7.5,1.4
			L173.9,157.5z"/>
		<path class="st17" d="M152.1,167.1h-3.9c0-1.1-0.9-1.9-1.9-1.9c-1.1,0-1.9,0.9-1.9,1.9h-3.9c0-3.2,2.6-5.8,5.8-5.8
			C149.4,161.2,152.1,163.8,152.1,167.1z"/>
		<path class="st17" d="M167.6,169h-3.9c0-1.1-0.9-1.9-1.9-1.9s-1.9,0.9-1.9,1.9H156c0-3.2,2.6-5.8,5.8-5.8
			C165,163.2,167.6,165.8,167.6,169z"/>
	</g>
</g>
</svg>
