<?xml version="1.0" encoding="utf-8"?>
<!-- Generator: Adobe Illustrator 19.2.0, SVG Export Plug-In . SVG Version: 6.00 Build 0)  -->
<svg version="1.1" id="Layer_1" xmlns="http://www.w3.org/2000/svg" xmlns:xlink="http://www.w3.org/1999/xlink" x="0px" y="0px"
	 viewBox="0 0 200 200" style="enable-background:new 0 0 200 200;" xml:space="preserve">
<style type="text/css">
	.st0{fill:#EE8826;}
	.st1{fill:#CF5A3F;}
	.st2{fill:#FDD44B;}
	.st3{fill:#402E21;}
	.st4{fill:#C07340;}
	.st5{fill:#B56E3E;}
	.st6{fill:#975835;}
	.st7{fill:#F09F3E;}
	.st8{fill:#F09235;}
</style>
<g id="Layer_18">
	<g>
		<path class="st0" d="M21.2,190.5h79.6v-81.4L21.2,94.4V190.5z M91.8,164.7c0,2-1.6,3.6-3.6,3.6H29.5c-2,0-3.6-1.6-3.6-3.6v-29.8
			c0-2,1.6-3.6,3.6-3.6h58.8c2,0,3.6,1.6,3.6,3.6L91.8,164.7L91.8,164.7z"/>
		<g>
			<path class="st1" d="M62.1,77.5c0.1,0.1,0.3,0.1,0.4,0.2C62.3,77.6,62.2,77.5,62.1,77.5z"/>
			<path class="st1" d="M63.1,78.1c-0.1-0.1-0.3-0.3-0.5-0.4C62.8,77.9,62.9,78,63.1,78.1z"/>
			<path class="st1" d="M61.4,77.2c0.1,0,0.3,0.1,0.4,0.1C61.7,77.3,61.6,77.3,61.4,77.2z"/>
			<path class="st1" d="M63.8,79.2c-0.1-0.1-0.1-0.2-0.2-0.3C63.7,78.9,63.7,79,63.8,79.2z"/>
			<path class="st1" d="M63.5,78.6c-0.1-0.1-0.2-0.2-0.2-0.3C63.3,78.4,63.4,78.5,63.5,78.6z"/>
			<path class="st1" d="M63.9,79.2c0.2,0.4,0.3,1,0.3,1.4c0,2-1.6,3.7-3.6,3.7h-4.3v3.8c0,0.6,0.3,1.1,0.1,1.6L71,92.3V79.1
				L63.9,79.2L63.9,79.2z"/>
			<path class="st1" d="M60.6,77.1c0.2,0,0.4,0,0.7,0.1C61,77.2,60.8,77.1,60.6,77.1z"/>
		</g>
		<g>
			<path class="st1" d="M63.1,47.6c-0.1-0.1-0.3-0.3-0.5-0.4C62.8,47.3,62.9,47.4,63.1,47.6z"/>
			<path class="st1" d="M50.1,59.4c-0.1-0.1-0.2-0.3-0.2-0.4C50,59.2,50.1,59.3,50.1,59.4z"/>
			<path class="st1" d="M62.1,46.9c0.1,0.1,0.3,0.1,0.4,0.2C62.3,47,62.2,46.9,62.1,46.9z"/>
			<path class="st1" d="M50.6,60c-0.1-0.1-0.3-0.3-0.4-0.5C50.3,59.7,50.5,59.9,50.6,60z"/>
			<path class="st1" d="M49.6,57.6c0,0.2,0,0.4,0.1,0.7C49.6,58,49.6,57.8,49.6,57.6z"/>
			<path class="st1" d="M49.8,58.8c-0.1-0.1-0.1-0.3-0.1-0.4C49.7,58.5,49.8,58.7,49.8,58.8z"/>
			<path class="st1" d="M61.4,46.7c0.1,0,0.3,0.1,0.4,0.1C61.7,46.7,61.6,46.7,61.4,46.7z"/>
			<path class="st1" d="M51.6,60.8c-0.1-0.1-0.2-0.1-0.3-0.2C51.4,60.6,51.5,60.7,51.6,60.8z"/>
			<path class="st1" d="M63.5,48c-0.1-0.1-0.2-0.2-0.2-0.3C63.3,47.8,63.4,47.9,63.5,48z"/>
			<path class="st1" d="M63.8,48.6c-0.1-0.1-0.1-0.2-0.2-0.3C63.7,48.3,63.7,48.5,63.8,48.6z"/>
			<path class="st1" d="M60.6,46.6c0.2,0,0.4,0,0.7,0.1C61,46.6,60.8,46.6,60.6,46.6z"/>
			<path class="st1" d="M63.9,48.8c0.2,0.4,0.3,1,0.3,1.5c0,2-1.6,3.7-3.6,3.7h-4.3v3.6c0,2-1.4,3.6-3.3,3.6c-0.5,0-0.5-0.1-0.9-0.3
				h0.5v6.9H71v-19L63.9,48.8L63.9,48.8z"/>
			<path class="st1" d="M51.1,60.4c-0.1-0.1-0.2-0.2-0.3-0.2C50.9,60.3,51,60.4,51.1,60.4z"/>
		</g>
		<g>
			<path class="st1" d="M80.7,90c-0.1-0.1-0.2-0.3-0.2-0.4C80.6,89.8,80.6,89.9,80.7,90z"/>
			<path class="st1" d="M92.7,77.5c0.1,0.1,0.3,0.1,0.4,0.2C92.9,77.6,92.8,77.5,92.7,77.5z"/>
			<path class="st1" d="M92,77.2c0.1,0,0.3,0.1,0.4,0.1C92.3,77.3,92.2,77.3,92,77.2z"/>
			<path class="st1" d="M93.7,78.1c-0.1-0.1-0.3-0.3-0.5-0.4C93.4,77.9,93.5,78,93.7,78.1z"/>
			<path class="st1" d="M80.2,88.1c0,0.2,0,0.4,0.1,0.7C80.2,88.6,80.2,88.4,80.2,88.1z"/>
			<path class="st1" d="M81.2,90.6c-0.1-0.1-0.3-0.3-0.4-0.5C80.9,90.3,81,90.5,81.2,90.6z"/>
			<path class="st1" d="M80.4,89.4c-0.1-0.1-0.1-0.3-0.1-0.4C80.3,89.1,80.4,89.3,80.4,89.4z"/>
			<path class="st1" d="M94.1,78.6c-0.1-0.1-0.2-0.2-0.2-0.3C93.9,78.4,94,78.5,94.1,78.6z"/>
			<path class="st1" d="M82.2,91.3c-0.1-0.1-0.2-0.1-0.3-0.2C82,91.2,82.1,91.3,82.2,91.3z"/>
			<path class="st1" d="M94.4,79.1c-0.1-0.1-0.1-0.2-0.2-0.3C94.3,78.9,94.3,79,94.4,79.1z"/>
			<path class="st1" d="M81.6,91c-0.1-0.1-0.2-0.2-0.3-0.2C81.4,90.9,81.5,90.9,81.6,91z"/>
			<path class="st1" d="M91.2,77.1c0.2,0,0.4,0,0.7,0.1C91.6,77.2,91.4,77.1,91.2,77.1z"/>
			<path class="st1" d="M94.5,79.2c0.2,0.4,0.3,1,0.3,1.4c0,2-1.6,3.7-3.6,3.7h-3.6v3.8c0,2-1.7,3.6-3.7,3.6c-0.5,0-1-0.1-1.4-0.3
				h-0.1v3l18.5,3.4V79.1h-6.3C94.5,79.1,94.5,79.2,94.5,79.2z"/>
		</g>
		<g>
			<path class="st1" d="M93.7,47.6c-0.1-0.1-0.3-0.3-0.5-0.4C93.4,47.3,93.5,47.4,93.7,47.6z"/>
			<path class="st1" d="M80.2,57.6c0,0.2,0,0.4,0.1,0.7C80.2,58,80.2,57.8,80.2,57.6z"/>
			<path class="st1" d="M92.7,46.9c0.1,0.1,0.3,0.1,0.4,0.2C92.9,47,92.8,46.9,92.7,46.9z"/>
			<path class="st1" d="M80.7,59.4c-0.1-0.1-0.2-0.3-0.2-0.4C80.6,59.2,80.6,59.3,80.7,59.4z"/>
			<path class="st1" d="M81.2,60c-0.1-0.1-0.3-0.3-0.4-0.5C80.9,59.7,81,59.9,81.2,60z"/>
			<path class="st1" d="M80.4,58.8c-0.1-0.1-0.1-0.3-0.1-0.4C80.3,58.5,80.4,58.7,80.4,58.8z"/>
			<path class="st1" d="M91.2,46.6c0.2,0,0.4,0,0.7,0.1C91.6,46.6,91.4,46.6,91.2,46.6z"/>
			<path class="st1" d="M94.1,48c-0.1-0.1-0.2-0.2-0.2-0.3C93.9,47.8,94,47.9,94.1,48z"/>
			<path class="st1" d="M92,46.7c0.1,0,0.3,0.1,0.4,0.1C92.3,46.7,92.2,46.7,92,46.7z"/>
			<path class="st1" d="M82.2,60.8c-0.1-0.1-0.2-0.1-0.3-0.2C82,60.6,82.1,60.7,82.2,60.8z"/>
			<path class="st1" d="M94.4,48.6c-0.1-0.1-0.1-0.2-0.2-0.3C94.3,48.3,94.3,48.5,94.4,48.6z"/>
			<path class="st1" d="M94.5,48.8c0.2,0.4,0.3,1,0.3,1.5c0,2-1.6,3.7-3.6,3.7h-3.6v3.6c0,2-1.7,3.6-3.7,3.6c-0.5,0-1-0.1-1.4-0.3
				h-0.1v6.9h18.5v-19L94.5,48.8L94.5,48.8z"/>
			<path class="st1" d="M81.6,60.4c-0.1-0.1-0.2-0.2-0.3-0.2C81.4,60.3,81.5,60.4,81.6,60.4z"/>
		</g>
		<g>
			<path class="st1" d="M19.6,59.4c-0.1-0.1-0.2-0.3-0.2-0.4C19.4,59.2,19.5,59.3,19.6,59.4z"/>
			<path class="st1" d="M19.3,58.8c-0.1-0.1-0.1-0.3-0.1-0.4C19.2,58.5,19.2,58.7,19.3,58.8z"/>
			<path class="st1" d="M32.5,47.6c-0.1-0.1-0.3-0.3-0.5-0.4C32.2,47.3,32.3,47.4,32.5,47.6z"/>
			<path class="st1" d="M31.5,46.9c0.1,0.1,0.3,0.1,0.4,0.2C31.8,47,31.6,46.9,31.5,46.9z"/>
			<path class="st1" d="M19,57.6c0,0.2,0,0.4,0.1,0.7C19,58,19,57.8,19,57.6z"/>
			<path class="st1" d="M20,60c-0.1-0.1-0.3-0.3-0.4-0.5C19.7,59.7,19.9,59.9,20,60z"/>
			<path class="st1" d="M30.9,46.7c0.1,0,0.3,0.1,0.4,0.1C31.1,46.7,31,46.7,30.9,46.7z"/>
			<path class="st1" d="M33.2,48.6c-0.1-0.1-0.1-0.2-0.2-0.3C33.1,48.3,33.2,48.5,33.2,48.6z"/>
			<path class="st1" d="M32.9,48c-0.1-0.1-0.2-0.2-0.2-0.3C32.7,47.8,32.8,47.9,32.9,48z"/>
			<path class="st1" d="M20.5,60.4c-0.1-0.1-0.2-0.2-0.3-0.2C20.3,60.3,20.4,60.4,20.5,60.4z"/>
			<path class="st1" d="M21,60.8c-0.1-0.1-0.2-0.1-0.3-0.2C20.8,60.6,20.9,60.7,21,60.8z"/>
			<path class="st1" d="M30,46.6c0.2,0,0.4,0,0.7,0.1C30.5,46.6,30.2,46.6,30,46.6z"/>
			<path class="st1" d="M33.3,48.8c0.2,0.4,0.3,1,0.3,1.5c0,2-1.6,3.7-3.6,3.7h-4.1v3.6c0,2-1.5,3.6-3.5,3.6c-0.5,0-0.9-0.1-1.3-0.3
				l0,0v6.9h18.5v-19L33.3,48.8L33.3,48.8z"/>
		</g>
		<g>
			<path class="st1" d="M31.5,77.5c0.1,0.1,0.3,0.1,0.4,0.2C31.8,77.6,31.6,77.5,31.5,77.5z"/>
			<path class="st1" d="M32.5,78.1c-0.1-0.1-0.3-0.3-0.5-0.4C32.2,77.9,32.3,78,32.5,78.1z"/>
			<path class="st1" d="M30.9,77.2c0.1,0,0.3,0.1,0.4,0.1C31.1,77.3,31,77.3,30.9,77.2z"/>
			<path class="st1" d="M32.9,78.6c-0.1-0.1-0.2-0.2-0.2-0.3C32.7,78.4,32.8,78.5,32.9,78.6z"/>
			<path class="st1" d="M33.2,79.1c-0.1-0.1-0.1-0.2-0.2-0.3C33.1,78.9,33.2,79,33.2,79.1z"/>
			<path class="st1" d="M33.3,79.2c0.2,0.4,0.3,1,0.3,1.4c0,2-1.6,3.7-3.6,3.7h-3.1l12.8,2.4v-7.6L33.3,79.2
				C33.3,79.1,33.3,79.2,33.3,79.2z"/>
			<path class="st1" d="M30,77.1c0.2,0,0.4,0,0.7,0.1C30.5,77.2,30.2,77.1,30,77.1z"/>
		</g>
		<rect x="38.3" y="144.1" class="st2" width="46.9" height="18.5"/>
		<path class="st3" d="M22.6,61.1c2,0,3.6-1.6,3.6-3.6v-3.9H30c2,0,3.6-1.6,3.6-3.6S32,46.4,30,46.4h-7.4c-2,0-3.6,1.6-3.6,3.6v7.4
			C19,59.5,20.6,61.1,22.6,61.1z"/>
		<path class="st3" d="M53.2,61.1c2,0,3.6-1.6,3.6-3.6v-3.9h3.9c2,0,3.6-1.6,3.6-3.6s-1.6-3.6-3.6-3.6h-7.4c-2,0-3.6,1.6-3.6,3.6
			v7.4C49.6,59.5,51.2,61.1,53.2,61.1z"/>
		<path class="st3" d="M83.7,61.1c2,0,3.6-1.6,3.6-3.6v-3.9h3.9c2,0,3.6-1.6,3.6-3.6s-1.6-3.6-3.6-3.6h-7.4c-2,0-3.6,1.6-3.6,3.6
			v7.4C80.2,59.5,81.8,61.1,83.7,61.1z"/>
		<path class="st3" d="M91.2,77.1h-7.4c-2,0-3.6,1.6-3.6,3.6v7.4c0,2,1.6,3.6,3.6,3.6s3.6-1.6,3.6-3.6v-3.9h3.9c2,0,3.6-1.6,3.6-3.6
			S93.2,77.1,91.2,77.1z"/>
		<path class="st3" d="M29.2,170h59.2c2,0,3.6-1.6,3.6-3.6v-30.9c0-2-1.6-3.6-3.6-3.6H29.2c-2,0-3.6,1.6-3.6,3.6v30.9
			C25.7,168.4,27.3,170,29.2,170z M32.8,139.1h52.1v23.8H32.8V139.1z"/>
		<path class="st3" d="M104.7,36.9H13c-2,0-3.6,1.6-3.6,3.6v152.9c0,2,1.6,3.6,3.5,3.6h91.8c2,0,3.6-1.6,3.6-3.6V40.5
			C108.3,38.5,106.7,36.9,104.7,36.9z M101.2,67.5H77.7V44.1h23.5V67.5z M77.7,74.7h23.5V98l-23.5-4.3V74.7z M60.6,77.1h-7.4
			c-2,0-3.6,1.6-3.6,3.6v7.4c0,0.1,0,0.2,0,0.3L47.1,88V74.7h23.5v17.7l-14.2-2.6c0.2-0.5,0.4-1,0.4-1.6v-3.9h3.9
			c2,0,3.6-1.6,3.6-3.6C64.2,78.7,62.6,77.1,60.6,77.1z M70.6,67.5H47.1V44.1h23.5V67.5z M40,67.5H16.5V44.1H40V67.5z M16.5,74.7H40
			v12l-13.1-2.4H30c2,0,3.6-1.6,3.6-3.6S32,77.1,30,77.1h-7.4c-2,0-3.6,1.6-3.6,3.6v2.1l-2.5-0.5V74.7L16.5,74.7z M101.1,189.9H16.5
			V89.6l84.6,15.6V189.9L101.1,189.9z"/>
	</g>
</g>
<g id="Layer_19">
	<path class="st4" d="M195.2,96.3c0-3.1-1.7-5.9-4.4-7.4c4.1-2.2,5.6-7.3,3.4-11.4c-2.2-4.1-7.3-5.6-11.4-3.4
		c-1.5,0.8-2.6,2-3.4,3.4c-2.2-4.1-7.2-5.6-11.3-3.5c-1.5,0.8-2.7,2-3.5,3.5c-2.2-4.1-7.2-5.6-11.3-3.5c-1.5,0.8-2.7,2-3.5,3.5
		c-2.2-4.1-7.2-5.6-11.3-3.5c-1.5,0.8-2.7,2-3.5,3.5c-2.2-4.1-7.3-5.6-11.4-3.4s-5.6,7.3-3.4,11.4c0.8,1.5,2,2.6,3.4,3.4
		c-4.1,2.2-5.6,7.2-3.5,11.3c0.8,1.5,2,2.7,3.5,3.5c-4.1,2.2-5.6,7.2-3.5,11.3c0.8,1.5,2,2.7,3.5,3.5c-4.1,2.2-5.6,7.2-3.5,11.3
		c0.8,1.5,2,2.7,3.5,3.5c-4.1,2.2-5.6,7.2-3.5,11.3c0.8,1.5,2,2.7,3.5,3.5c-4.1,2.2-5.6,7.2-3.5,11.3c0.8,1.5,2,2.7,3.5,3.5
		c-4.1,2.2-5.6,7.3-3.4,11.4c2.2,4.1,7.3,5.6,11.4,3.4c1.5-0.8,2.6-2,3.4-3.4c2.2,4.1,7.2,5.6,11.3,3.5c1.5-0.8,2.7-2,3.5-3.5
		c2.2,4.1,7.2,5.6,11.3,3.5c1.5-0.8,2.7-2,3.5-3.5c2.2,4.1,7.2,5.6,11.3,3.5c1.5-0.8,2.7-2,3.5-3.5c2.2,4.1,7.3,5.6,11.4,3.4
		c4.1-2.2,5.6-7.3,3.4-11.4c-0.8-1.5-2-2.6-3.4-3.4c4.1-2.2,5.6-7.2,3.5-11.3c-0.8-1.5-2-2.7-3.5-3.5c4.1-2.2,5.6-7.2,3.5-11.3
		c-0.8-1.5-2-2.7-3.5-3.5c4.1-2.2,5.6-7.2,3.5-11.3c-0.8-1.5-2-2.7-3.5-3.5c4.1-2.2,5.6-7.2,3.5-11.3c-0.8-1.5-2-2.7-3.5-3.5
		C193.5,102.2,195.2,99.4,195.2,96.3z"/>
	<path class="st5" d="M195.2,96.3c0-3.1-1.7-5.9-4.4-7.4c4.1-2.2,5.6-7.3,3.4-11.4c-1.2-2.3-3.4-3.9-6-4.3
		c-13.3,60.2-46.8,88.8-67.8,101.2c2.3,4,7.4,5.4,11.4,3.1c1.4-0.8,2.5-1.9,3.2-3.3c2.2,4.1,7.2,5.6,11.3,3.5c1.5-0.8,2.7-2,3.5-3.5
		c2.2,4.1,7.2,5.6,11.3,3.5c1.5-0.8,2.7-2,3.5-3.5c2.2,4.1,7.2,5.6,11.3,3.5c1.5-0.8,2.7-2,3.5-3.5c2.2,4.1,7.3,5.6,11.4,3.4
		c4.1-2.2,5.6-7.3,3.4-11.4c-0.8-1.5-2-2.6-3.4-3.4c4.1-2.2,5.6-7.2,3.5-11.3c-0.8-1.5-2-2.7-3.5-3.5c4.1-2.2,5.6-7.2,3.5-11.3
		c-0.8-1.5-2-2.7-3.5-3.5c4.1-2.2,5.6-7.2,3.5-11.3c-0.8-1.5-2-2.7-3.5-3.5c4.1-2.2,5.6-7.2,3.5-11.3c-0.8-1.5-2-2.7-3.5-3.5
		C193.5,102.2,195.2,99.4,195.2,96.3z"/>
	<g>
		<rect x="138.2" y="87.8" class="st6" width="4.2" height="4.2"/>
		<rect x="155.1" y="87.8" class="st6" width="4.2" height="4.2"/>
		<rect x="172" y="87.8" class="st6" width="4.2" height="4.2"/>
	</g>
	<rect id="SVGCleanerId_0" x="138.2" y="104.7" class="st6" width="4.2" height="4.2"/>
	<rect id="SVGCleanerId_1" x="155.1" y="104.7" class="st6" width="4.2" height="4.2"/>
	<rect id="SVGCleanerId_2" x="172" y="104.7" class="st6" width="4.2" height="4.2"/>
	<g>
		<rect id="SVGCleanerId_0_2_" x="138.2" y="104.7" class="st6" width="4.2" height="4.2"/>
	</g>
	<g>
		<rect id="SVGCleanerId_1_2_" x="155.1" y="104.7" class="st6" width="4.2" height="4.2"/>
	</g>
	<g>
		<rect id="SVGCleanerId_2_2_" x="172" y="104.7" class="st6" width="4.2" height="4.2"/>
	</g>
	<rect id="SVGCleanerId_3" x="138.2" y="121.6" class="st6" width="4.2" height="4.2"/>
	<rect id="SVGCleanerId_4" x="155.1" y="121.6" class="st6" width="4.2" height="4.2"/>
	<rect id="SVGCleanerId_5" x="172" y="121.6" class="st6" width="4.2" height="4.2"/>
	<g>
		<rect id="SVGCleanerId_3_2_" x="138.2" y="121.6" class="st6" width="4.2" height="4.2"/>
	</g>
	<g>
		<rect id="SVGCleanerId_4_2_" x="155.1" y="121.6" class="st6" width="4.2" height="4.2"/>
	</g>
	<g>
		<rect id="SVGCleanerId_5_2_" x="172" y="121.6" class="st6" width="4.2" height="4.2"/>
	</g>
	<rect id="SVGCleanerId_6" x="138.2" y="138.5" class="st6" width="4.2" height="4.2"/>
	<rect id="SVGCleanerId_7" x="155.1" y="138.5" class="st6" width="4.2" height="4.2"/>
	<rect id="SVGCleanerId_8" x="172" y="138.5" class="st6" width="4.2" height="4.2"/>
	<g>
		<rect id="SVGCleanerId_6_2_" x="138.2" y="138.5" class="st6" width="4.2" height="4.2"/>
	</g>
	<g>
		<rect id="SVGCleanerId_7_2_" x="155.1" y="138.5" class="st6" width="4.2" height="4.2"/>
	</g>
	<g>
		<rect id="SVGCleanerId_8_2_" x="172" y="138.5" class="st6" width="4.2" height="4.2"/>
	</g>
	<rect id="SVGCleanerId_9" x="138.2" y="155.4" class="st6" width="4.2" height="4.2"/>
	<rect id="SVGCleanerId_10" x="155.1" y="155.4" class="st6" width="4.2" height="4.2"/>
	<rect id="SVGCleanerId_11" x="172" y="155.4" class="st6" width="4.2" height="4.2"/>
	<g>
		<rect id="SVGCleanerId_9_1_" x="138.2" y="155.4" class="st6" width="4.2" height="4.2"/>
	</g>
	<g>
		<rect id="SVGCleanerId_10_3_" x="155.1" y="155.4" class="st6" width="4.2" height="4.2"/>
	</g>
	<g>
		<rect id="SVGCleanerId_11_2_" x="172" y="155.4" class="st6" width="4.2" height="4.2"/>
	</g>
	<path id="SVGCleanerId_12" class="st7" d="M141,167.1L141,167.1L141,167.1c2.3,4.9,0.2,10.6-4.7,12.9c-0.6,0.3-1.2,0.5-1.8,0.6l0,0
		l0,0c0,5.3-4.2,9.6-9.5,9.6c-0.7,0-1.4-0.1-2-0.2l0,0l0,0c-2.2,4.7-7.8,6.7-12.5,4.5c-0.7-0.3-1.3-0.7-1.9-1.2l0,0l0,0
		c-4.1,3.2-10,2.6-13.2-1.5c-0.5-0.6-0.9-1.2-1.2-1.9l0,0l0,0c-5.1,1.1-10.2-2.2-11.3-7.3c-0.1-0.7-0.2-1.4-0.2-2l0,0l0,0
		c-5.2-1.3-8.3-6.6-7-11.8c0.2-0.6,0.4-1.2,0.6-1.8l0,0l0,0c-4.1-3.5-4.7-9.6-1.2-13.8c0.4-0.5,0.8-0.9,1.2-1.2l0,0l0,0
		c-2.3-4.8-0.2-10.6,4.6-12.9c0.6-0.3,1.2-0.5,1.8-0.6l0,0l0,0c0-5.3,4.2-9.6,9.5-9.6c0.7,0,1.4,0.1,2,0.2l0,0l0,0
		c1.1-2.3,3.1-4.1,5.5-4.9c3-1.1,6.4-0.5,8.9,1.6l0,0l0,0c4.1-3.2,10-2.6,13.2,1.5c0.5,0.6,0.9,1.2,1.2,1.9l0,0l0,0
		c5.1-1.1,10.2,2.2,11.3,7.3c0.1,0.7,0.2,1.4,0.2,2l0,0l0,0c5.2,1.3,8.3,6.6,7,11.8c-0.2,0.6-0.4,1.2-0.6,1.8l0,0l0,0
		c4.1,3.5,4.7,9.6,1.2,13.8C141.9,166.3,141.5,166.7,141,167.1z"/>
	<g>
		<path id="SVGCleanerId_12_1_" class="st7" d="M141,167.1L141,167.1L141,167.1c2.3,4.9,0.2,10.6-4.7,12.9c-0.6,0.3-1.2,0.5-1.8,0.6
			l0,0l0,0c0,5.3-4.2,9.6-9.5,9.6c-0.7,0-1.4-0.1-2-0.2l0,0l0,0c-2.2,4.7-7.8,6.7-12.5,4.5c-0.7-0.3-1.3-0.7-1.9-1.2l0,0l0,0
			c-4.1,3.2-10,2.6-13.2-1.5c-0.5-0.6-0.9-1.2-1.2-1.9l0,0l0,0c-5.1,1.1-10.2-2.2-11.3-7.3c-0.1-0.7-0.2-1.4-0.2-2l0,0l0,0
			c-5.2-1.3-8.3-6.6-7-11.8c0.2-0.6,0.4-1.2,0.6-1.8l0,0l0,0c-4.1-3.5-4.7-9.6-1.2-13.8c0.4-0.5,0.8-0.9,1.2-1.2l0,0l0,0
			c-2.3-4.8-0.2-10.6,4.6-12.9c0.6-0.3,1.2-0.5,1.8-0.6l0,0l0,0c0-5.3,4.2-9.6,9.5-9.6c0.7,0,1.4,0.1,2,0.2l0,0l0,0
			c1.1-2.3,3.1-4.1,5.5-4.9c3-1.1,6.4-0.5,8.9,1.6l0,0l0,0c4.1-3.2,10-2.6,13.2,1.5c0.5,0.6,0.9,1.2,1.2,1.9l0,0l0,0
			c5.1-1.1,10.2,2.2,11.3,7.3c0.1,0.7,0.2,1.4,0.2,2l0,0l0,0c5.2,1.3,8.3,6.6,7,11.8c-0.2,0.6-0.4,1.2-0.6,1.8l0,0l0,0
			c4.1,3.5,4.7,9.6,1.2,13.8C141.9,166.3,141.5,166.7,141,167.1z"/>
	</g>
	<path class="st8" d="M141,167.1L141,167.1c4.2-3.5,4.7-9.6,1.3-13.8c-0.4-0.5-0.8-0.9-1.2-1.2l0,0c2.3-4.8,0.2-10.6-4.6-12.9
		c-0.6-0.3-1.2-0.5-1.8-0.6l0,0l0,0c0-5.3-4.3-9.6-9.5-9.6c-0.2,0-0.5,0-0.7,0c4.4,2.5,6.1,8,4,12.6l0,0c4.1,3.5,4.7,9.6,1.2,13.8
		c-0.4,0.5-0.8,0.9-1.2,1.2l0,0l0,0c2.3,4.8,0.2,10.6-4.6,12.9c-0.6,0.3-1.2,0.5-1.8,0.6l0,0l0,0c0,5.3-4.2,9.6-9.5,9.6
		c-0.7,0-1.4-0.1-2-0.2l0,0l0,0c-2.2,4.7-7.8,6.7-12.5,4.5c-0.7-0.3-1.3-0.7-1.9-1.2l0,0l0,0c-4,3.2-9.9,2.6-13.2-1.4c0,0,0,0,0-0.1
		c0.3,5.2,4.8,9.2,10.1,8.9c0.5,0,0.9-0.1,1.4-0.2l0,0l0,0c2.2,4.7,7.8,6.7,12.5,4.5c0.7-0.3,1.3-0.7,1.9-1.2l0,0l0,0
		c4,3.2,10,2.6,13.2-1.5c0.5-0.6,0.9-1.2,1.2-1.9l0,0l0,0c5.1,1.1,10.2-2.2,11.3-7.3c0.1-0.7,0.2-1.4,0.2-2l0,0l0,0
		c5.2-1.3,8.3-6.6,7-11.8C141.5,168.3,141.3,167.7,141,167.1L141,167.1z"/>
	<g>
		<rect x="89.7" y="140.6" class="st6" width="4.2" height="4.2"/>
		<rect x="106.5" y="140.6" class="st6" width="4.2" height="4.2"/>
		<rect x="123.4" y="140.6" class="st6" width="4.2" height="4.2"/>
	</g>
	<rect id="SVGCleanerId_13" x="89.7" y="157.5" class="st6" width="4.2" height="4.2"/>
	<rect id="SVGCleanerId_14" x="106.5" y="157.5" class="st6" width="4.2" height="4.2"/>
	<rect id="SVGCleanerId_15" x="123.4" y="157.5" class="st6" width="4.2" height="4.2"/>
	<g>
		<rect id="SVGCleanerId_13_1_" x="89.7" y="157.5" class="st6" width="4.2" height="4.2"/>
	</g>
	<g>
		<rect id="SVGCleanerId_14_1_" x="106.5" y="157.5" class="st6" width="4.2" height="4.2"/>
	</g>
	<g>
		<rect id="SVGCleanerId_15_1_" x="123.4" y="157.5" class="st6" width="4.2" height="4.2"/>
	</g>
	<rect id="SVGCleanerId_16" x="89.7" y="174.4" class="st6" width="4.2" height="4.2"/>
	<rect id="SVGCleanerId_17" x="106.5" y="174.4" class="st6" width="4.2" height="4.2"/>
	<rect id="SVGCleanerId_18" x="123.4" y="174.4" class="st6" width="4.2" height="4.2"/>
	<g>
		<rect id="SVGCleanerId_16_1_" x="89.7" y="174.4" class="st6" width="4.2" height="4.2"/>
	</g>
	<g>
		<rect id="SVGCleanerId_17_1_" x="106.5" y="174.4" class="st6" width="4.2" height="4.2"/>
	</g>
	<g>
		<rect id="SVGCleanerId_18_1_" x="123.4" y="174.4" class="st6" width="4.2" height="4.2"/>
	</g>
</g>
</svg>
