<?xml version="1.0" encoding="utf-8"?>
<!-- Generator: Adobe Illustrator 19.2.0, SVG Export Plug-In . SVG Version: 6.00 Build 0)  -->
<svg version="1.1" id="Layer_1" xmlns="http://www.w3.org/2000/svg" xmlns:xlink="http://www.w3.org/1999/xlink" x="0px" y="0px"
	 viewBox="0 0 200 200" style="enable-background:new 0 0 200 200;" xml:space="preserve">
<style type="text/css">
	.st0{fill:#D65346;}
	.st1{fill:#E85B4B;}
	.st2{fill:#F0E4D6;}
	.st3{fill:#F37A6E;}
</style>
<g id="Layer_41">
	<g>
		<path class="st0" d="M148.7,128.8l18.9-5.1c3.7-0.7,7.3,1.7,8.1,5.4c0.1,0.4,0.1,0.9,0.1,1.3l0,0c0,3.1-2,5.8-5,6.6l-24.7,6.5
			l-8.2,14.4l35.8-8.5c9.2-2.1,15.6-10.3,15.6-19.7l0,0c0-11.1-9-20.2-20.2-20.2c-2.2,0-4.3,0.3-6.4,1l-14.1,4.7L148.7,128.8
			L148.7,128.8z"/>
		<path class="st0" d="M13.1,179.7H169l0,0l0,0c0,11.2-9.1,20.3-20.3,20.3l0,0H33.4C22.2,200,13.1,190.9,13.1,179.7L13.1,179.7
			L13.1,179.7L13.1,179.7z"/>
	</g>
	<path class="st1" d="M23.2,101.7v10.2c0,28.1,15.1,54,39.5,67.8h56.6c24.4-13.8,39.5-39.7,39.5-67.8v-10.2H23.2z"/>
	<path class="st0" d="M124.9,101.7v10.2c0,28.1-15.1,54-39.5,67.8h33.9c24.4-13.8,39.5-39.7,39.5-67.8v-10.2H124.9z"/>
	<path class="st2" d="M135.1,0v3.4c0,7.5,6.1,13.6,13.6,13.6h1.7c12.2,0,22,9.9,22,22l0,0c0,12.2-9.9,22-22,22h-15.3
		c-4.7,0-8.5,3.8-8.5,8.5l0,0c0,4.7,3.8,8.5,8.5,8.5l0,0c7.5,0,13.6,6.1,13.6,13.6H33.4c0-22.5,18.2-40.7,40.7-40.7h37.3
		c7.5,0,13.6-6.1,13.6-13.6l0,0c0-7.5-6.1-13.6-13.6-13.6l0,0c-7.5,0-13.6-6.1-13.6-13.6V0H135.1z"/>
	<g>
		<path class="st3" d="M51.6,155.2c-10-8-14.4-20.2-16.4-29l6.6-1.5c1.7,7.8,5.6,18.5,14,25.2L51.6,155.2z"/>
		<path class="st3" d="M34,119.1c-0.3-2.4-0.5-4.8-0.6-7.2h6.8c0,2.1,0.2,4.2,0.5,6.4L34,119.1z"/>
	</g>
</g>
</svg>
