<?xml version="1.0" encoding="utf-8"?>
<!-- Generator: Adobe Illustrator 19.2.0, SVG Export Plug-In . SVG Version: 6.00 Build 0)  -->
<svg version="1.1" id="Layer_1" xmlns="http://www.w3.org/2000/svg" xmlns:xlink="http://www.w3.org/1999/xlink" x="0px" y="0px"
	 viewBox="0 0 200 200" style="enable-background:new 0 0 200 200;" xml:space="preserve">
<style type="text/css">
	.st0{fill:#0A8690;}
	.st1{fill:#0FAEBC;}
	.st2{fill:#B5CDDE;}
	.st3{fill:#F89749;}
	.st4{fill:#F37221;}
	.st5{fill:#CAE5F7;}
	.st6{fill:#3A3637;}
	.st7{fill:#524E4F;}
	.st8{fill:#C9C7C7;}
	.st9{fill:#AEADAD;}
	.st10{fill:#666566;}
	.st11{fill:#B21F2E;}
	.st12{fill:#E2E1E0;}
</style>
<g id="Layer_50">
	<path class="st0" d="M90.4,58.8V43.3c0-5.8-4.7-10.4-10.4-10.4c-5.8,0-10.4,4.7-10.4,10.4v15.5C69.6,58.8,90.4,58.8,90.4,58.8z"/>
	<path class="st1" d="M80,32.9c-5.8,0-10.4,4.7-10.4,10.4v15.5H80V32.9z"/>
	<path class="st0" d="M136.5,80.1h-113c-6.9,0-12.5,5.6-12.5,12.5s5.6,12.5,12.5,12.5h113c6.9,0,12.5-5.6,12.5-12.5
		S143.4,80.1,136.5,80.1z M136.5,95.1h-113c-1.4,0-2.6-1.1-2.6-2.6c0-1.4,1.1-2.6,2.6-2.6h113c1.4,0,2.6,1.1,2.6,2.6
		S137.9,95.1,136.5,95.1z"/>
	<path class="st2" d="M108.8,49.2H51.2c-13.5,0-24.5,11-24.5,24.5v1.4v71.6c0,8.8,7.1,15.9,15.9,15.9h74.8c8.8,0,15.9-7.1,15.9-15.9
		V75.1v-1.4C133.3,60.2,122.3,49.2,108.8,49.2z"/>
	<g>
		<path class="st3" d="M38.5,194c-5,0-9.1-4.1-9.1-9.1c0-8,7.9-13,8.2-13.2l0.9-0.6l0.9,0.6c0.3,0.2,8.2,5.2,8.2,13.2
			C47.6,189.9,43.5,194,38.5,194z"/>
		<path class="st3" d="M66.2,194c-5,0-9.1-4.1-9.1-9.1c0-8,7.9-13,8.2-13.2l0.9-0.6l0.9,0.6c0.3,0.2,8.2,5.2,8.2,13.2
			C75.3,189.9,71.2,194,66.2,194z"/>
	</g>
	<g>
		<path class="st4" d="M93.8,194c-5,0-9.1-4.1-9.1-9.1c0-8,7.9-13,8.2-13.2l0.9-0.6l0.9,0.6c0.3,0.2,8.2,5.2,8.2,13.2
			C102.9,189.9,98.9,194,93.8,194z"/>
		<path class="st4" d="M121.5,194c-5,0-9.1-4.1-9.1-9.1c0-8,7.9-13,8.2-13.2l0.9-0.6l0.9,0.6c0.3,0.2,8.2,5.2,8.2,13.2
			C130.6,189.9,126.5,194,121.5,194z"/>
	</g>
	<path class="st5" d="M80,49.2H51.2c-13.5,0-24.5,11-24.5,24.5v1.4v71.6c0,8.8,7.1,15.9,15.9,15.9H80V49.2z"/>
	<path class="st0" d="M133.3,73.7c0-1.2-0.1-2.4-0.3-3.6H27c-0.2,1.2-0.3,2.4-0.3,3.6v1.4v5h106.6v-5V73.7L133.3,73.7z"/>
	<path class="st1" d="M80,70.1H27c-0.2,1.2-0.3,2.4-0.3,3.6v1.4v5H80V70.1L80,70.1L80,70.1z"/>
	<path class="st6" d="M160.8,123.2l15.2-20.4c0,0,20.4-11.3,16.8-19.9l-22.6,17.3l-16,17.8L160.8,123.2z"/>
	<path class="st7" d="M145.6,114.4c0,0,16.2-14.9,20.7-18.7s15.2-11.6,18.3-13.5c4.8-2.9,10.2,0.2,7.4,2.6s-12.1,8.1-17.5,13.6
		s-17.3,21.1-17.3,21.1L145.6,114.4z"/>
	<path class="st8" d="M145.6,114.4c0,0,1.1-1.1,2.9-2.6l11,5.1c-1.3,1.7-2.1,2.7-2.1,2.7L145.6,114.4z"/>
	<path class="st9" d="M161.8,123l-2.4-6.2c-1.3,1.7-2.1,2.7-2.1,2.7S160,124.6,161.8,123z"/>
	<g>
		<path class="st6" d="M74.2,141.6c0-17.2,21.6-31.1,48.3-31.1s48.3,13.9,48.3,31.1s-21.6,31.1-48.3,31.1S74.2,158.7,74.2,141.6z"/>
		<path class="st6" d="M122.4,172.7c26.1,0,47.3-13.3,48.2-30c0-0.5,0-0.8,0-0.8c-1.1-16.5-22.3-15.5-48.2-15.5
			c-25.8,0-46.8-1.2-48.2,15.2c0,0.1,0,0.6,0,1.4C75.3,159.5,96.5,172.7,122.4,172.7z"/>
	</g>
	<ellipse class="st10" cx="122.4" cy="152.6" rx="44.5" ry="27.6"/>
	<path class="st11" d="M122.4,172.7c-26,0-47.1-13.2-48.2-29.7c0,3.8,0,7.8,0,8.3c0,17.2,21.6,33.5,48.3,33.5s48.3-16.3,48.3-33.5
		c0-0.4,0-5.4,0-8.5C169.7,159.3,148.5,172.7,122.4,172.7z"/>
	<path class="st12" d="M122.4,173.4c-27,0-49-14.3-49-31.9s22-31.9,49-31.9s49,14.3,49,31.9S149.5,173.4,122.4,173.4z M122.4,111.2
		c-26.2,0-47.5,13.6-47.5,30.3s21.3,30.3,47.5,30.3s47.5-13.6,47.5-30.3S148.6,111.2,122.4,111.2z"/>
	<ellipse transform="matrix(0.8778 -0.479 0.479 0.8778 -17.5951 100.0466)" class="st6" cx="187.3" cy="84.5" rx="2.9" ry="1.8"/>
</g>
</svg>
