<?xml version="1.0" encoding="utf-8"?>
<!-- Generator: Adobe Illustrator 19.2.0, SVG Export Plug-In . SVG Version: 6.00 Build 0)  -->
<svg version="1.1" id="Layer_1" xmlns="http://www.w3.org/2000/svg" xmlns:xlink="http://www.w3.org/1999/xlink" x="0px" y="0px"
	 viewBox="0 0 200 200" style="enable-background:new 0 0 200 200;" xml:space="preserve">
<style type="text/css">
	.st0{fill:#E6E6E5;}
	.st1{fill:#FFFFFF;}
	.st2{fill:#D13A34;}
	.st3{fill:#456C33;}
	.st4{fill:#EE4033;}
	.st5{fill:#659C41;}
	.st6{fill:#88C057;}
	.st7{fill:#A5703E;}
	.st8{fill:#FBD490;}
	.st9{fill:#D3D5D7;}
	.st10{fill:#F15D59;}
	.st11{fill:#F9F5E5;}
</style>
<g id="Layer_76">
	<g>
		<path class="st0" d="M80.7,199.2h30.1c2.7,0,4.4-3,3-5.3l0,0c-1.9-3.2-2.3-7.3-0.6-10.6c1.5-2.9,4-5.3,7.1-6.8
			c21.2-10.1,36.2-21.4,37.8-44.5c0.1-2.2-1.6-4.1-3.8-4.1H80.7H4.8c-2.2,0-3.9,1.9-3.8,4.1c1.6,23.1,16.6,34.4,37.8,44.5
			c3.1,1.5,5.6,3.9,7.1,6.8c1.7,3.3,1.4,7.4-0.6,10.6l0,0c-1.4,2.3,0.3,5.3,3,5.3H80.7z"/>
		<path class="st1" d="M99.8,182.7H75.9c-1.5,0-2.7-1.2-2.7-2.7s1.2-2.7,2.7-2.7h23.9c1.5,0,2.7,1.2,2.7,2.7S101.3,182.7,99.8,182.7
			z"/>
		<path class="st1" d="M67.9,182.7h-9.3c-1.5,0-2.7-1.2-2.7-2.7s1.2-2.7,2.7-2.7h9.3c1.5,0,2.7,1.2,2.7,2.7S69.4,182.7,67.9,182.7z"
			/>
		<path class="st1" d="M99.8,191H58.6c-1.5,0-2.7-1.2-2.7-2.7s1.2-2.7,2.7-2.7h41.2c1.5,0,2.7,1.2,2.7,2.7S101.3,191,99.8,191z"/>
		<path class="st2" d="M113.5,62c-13.6,0-24.7,11.1-24.7,24.7c0,1.9,0.2,3.8,0.7,5.6c1.4,1.4,3.5,1.9,5.4,1.1l1.1-0.5
			c3-1.4,6.5,0.6,6.8,3.9l0.1,1.2c0.2,2.3,2,4.1,4.3,4.3l1.2,0.1c3.3,0.3,5.3,3.8,3.9,6.8l-0.5,1.1c-0.2,0.4-0.2,0.7-0.3,1.1
			c0.7,0.1,1.4,0.1,2.1,0.1c13.6,0,24.7-11.1,24.7-24.7C138.2,73.1,127.1,62,113.5,62z"/>
		<path class="st3" d="M138.1,88.1c-0.7,13-11.5,23.3-24.6,23.3c-0.7,0-1.4,0-2.1-0.1c-0.3,1.8,0.3,3.7,1.9,4.8l1,0.7
			c2.7,1.9,2.7,5.9,0,7.8l-1,0.7c-0.9,0.6-1.5,1.5-1.8,2.5l0.1,0.1h36.7c3.9-4.4,6.3-10.1,6.3-16.5
			C154.7,100.6,147.8,91.5,138.1,88.1z"/>
		<path class="st4" d="M109.6,85.6c-0.7,0-1.4-0.3-1.9-0.8L99.9,77c-1.1-1.1-1.1-2.8,0-3.9s2.8-1.1,3.9,0l7.8,7.8
			c1.1,1.1,1.1,2.8,0,3.9C111,85.3,110.3,85.6,109.6,85.6z"/>
		<path class="st4" d="M125.2,101.1c-0.7,0-1.4-0.3-1.9-0.8l-7.8-7.8c-1.1-1.1-1.1-2.8,0-3.9s2.8-1.1,3.9,0l7.8,7.8
			c1.1,1.1,1.1,2.8,0,3.9C126.6,100.8,125.9,101.1,125.2,101.1z"/>
		<path class="st4" d="M117.4,85.6c-0.7,0-1.4-0.3-1.9-0.8c-1.1-1.1-1.1-2.8,0-3.9l7.8-7.8c1.1-1.1,2.8-1.1,3.9,0s1.1,2.8,0,3.9
			l-7.8,7.8C118.8,85.3,118.1,85.6,117.4,85.6z"/>
		<path class="st4" d="M103.2,99.7c-0.7,0-1.4-0.3-1.9-0.8c-1.1-1.1-1.1-2.8,0-3.9l6.4-6.4c1.1-1.1,2.8-1.1,3.9,0s1.1,2.8,0,3.9
			l-6.4,6.4C104.6,99.4,103.9,99.7,103.2,99.7z"/>
		<path class="st5" d="M146.4,111.4h-11c-1.5,0-2.7-1.2-2.7-2.7s1.2-2.7,2.7-2.7h11c1.5,0,2.7,1.2,2.7,2.7S148,111.4,146.4,111.4z"
			/>
		<path class="st5" d="M130,127.9c-1.5,0-2.7-1.2-2.7-2.7v-11c0-1.5,1.2-2.7,2.7-2.7s2.7,1.2,2.7,2.7v11
			C132.7,126.6,131.5,127.9,130,127.9z"/>
		<path class="st6" d="M65.4,102.6c2.7,0.8,4.1,3.9,2.9,6.6l-0.5,1.1c-1,2.1-0.3,4.6,1.6,5.9l1,0.7c2.7,1.9,2.7,5.9,0,7.8l-1,0.7
			c-0.9,0.7-1.5,1.6-1.8,2.6h13.2h30.7c0.3-1,0.9-2,1.8-2.6l1-0.7c2.7-1.9,2.7-5.9,0-7.8l-1-0.7c-1.9-1.3-2.5-3.8-1.6-5.9l0.5-1.1
			c1.4-3-0.6-6.5-3.9-6.8l-1.2-0.1c-2.3-0.2-4.1-2-4.3-4.3l-0.1-1.2c-0.3-3.3-3.8-5.3-6.8-3.9l-1.1,0.5c-2.1,1-4.6,0.3-5.9-1.6
			l-0.7-1c-1.9-2.7-5.9-2.7-7.8,0l-0.7,1c-1.3,1.9-3.8,2.5-5.9,1.6l-1.1-0.5c-3-1.4-6.5,0.6-6.8,3.9l0.1,1.1
			c-0.1,1.2-0.7,2.6-1.1,3.5C64.7,101.9,64.9,102.4,65.4,102.6z"/>
		<path class="st7" d="M35.4,90.2l15.8-22.4c2.6-3.7,7.8-4.6,11.5-2l0,0c3.7,2.6,4.6,7.8,2,11.5L48.9,99.7c-2.6,3.7-7.8,4.6-11.5,2
			l0,0C33.7,99.1,32.8,93.9,35.4,90.2z"/>
		<path class="st8" d="M70.3,116.8l-1-0.7c-1.9-1.3-2.5-3.8-1.6-5.9l0.5-1.1c1.4-3-0.6-6.5-3.9-6.8l-1.2-0.1c-2.3-0.2-4.1-2-4.3-4.3
			l-0.1-1.2c-0.2-2.6-2.4-4.3-4.8-4.3l-5.1,7.2c-2.6,3.7-7.8,4.6-11.5,2l0,0c-2.8-1.9-4-5.3-3.3-8.4c-1.3,0.6-2.8,0.8-4.1,0.1
			l-1.1-0.5c-3-1.4-6.5,0.6-6.8,3.9l0,1.2c-0.2,2.3-2,4.1-4.3,4.3l-1.2,0.1c-3.3,0.3-5.3,3.8-3.9,6.8l0.5,1.1c1,2.1,0.3,4.6-1.6,5.9
			l-1,0.7c-2.7,1.9-2.7,5.9,0,7.8l1,0.7c0.9,0.7,1.5,1.6,1.8,2.6h54.1c0.3-1,0.9-2,1.8-2.6l1-0.7C73,122.7,73,118.7,70.3,116.8z"/>
		<path class="st3" d="M81.9,110c-0.7,0-1.4-0.3-1.9-0.8c-1.1-1.1-1.1-2.8,0-3.9l4.1-4.1c1.1-1.1,2.8-1.1,3.9,0s1.1,2.8,0,3.9
			l-4.1,4.1C83.4,109.8,82.7,110,81.9,110z"/>
		<path class="st3" d="M97,116.9c-0.7,0-1.4-0.3-1.9-0.8l-2.7-2.7c-1.1-1.1-1.1-2.8,0-3.9s2.8-1.1,3.9,0l2.7,2.7
			c1.1,1.1,1.1,2.8,0,3.9C98.4,116.6,97.7,116.9,97,116.9z"/>
		<path class="st3" d="M83.3,122.4c-0.7,0-1.4-0.3-1.9-0.8c-1.1-1.1-1.1-2.8,0-3.9l2.7-2.7c1.1-1.1,2.8-1.1,3.9,0s1.1,2.8,0,3.9
			l-2.7,2.7C84.7,122.1,84,122.4,83.3,122.4z"/>
	</g>
	<g>
		<path class="st9" d="M152.1,137.7c-1.2,0-2.2-1-2.2-2.2V70.7c0-1.2,1-2.2,2.2-2.2s2.2,1,2.2,2.2v64.7
			C154.3,136.7,153.3,137.7,152.1,137.7z"/>
		<path class="st7" d="M152.1,198L152.1,198c-3.7,0-6.7-3-6.7-6.7v-49.1c0-3.7,3-6.7,6.7-6.7l0,0c3.7,0,6.7,3,6.7,6.7v49.1
			C158.8,194.9,155.8,198,152.1,198z"/>
		<path class="st9" d="M152.1,148.9L152.1,148.9c-1.2,0-2.2-1-2.2-2.2l0,0c0-1.2,1-2.2,2.2-2.2l0,0c1.2,0,2.2,1,2.2,2.2l0,0
			C154.3,147.8,153.3,148.9,152.1,148.9z"/>
		<path class="st9" d="M152.1,157.8L152.1,157.8c-1.2,0-2.2-1-2.2-2.2l0,0c0-1.2,1-2.2,2.2-2.2l0,0c1.2,0,2.2,1,2.2,2.2l0,0
			C154.3,156.8,153.3,157.8,152.1,157.8z"/>
		<path class="st9" d="M152.1,110.9c-6.2,0-11.2-5-11.2-11.2v-29c0-1.2,1-2.2,2.2-2.2s2.2,1,2.2,2.2v29c0,3.7,3,6.7,6.7,6.7
			s6.7-3,6.7-6.7v-29c0-1.2,1-2.2,2.2-2.2s2.2,1,2.2,2.2v29C163.3,105.9,158.3,110.9,152.1,110.9z"/>
		<path class="st9" d="M185.6,139.9c6.9-6.9,6.7-22.9,6.7-40.2s1.2-29-13.4-29v69.2H185.6z"/>
		<path class="st7" d="M183.4,198L183.4,198c-3.7,0-6.7-3-6.7-6.7v-49.1c0-3.7,3-6.7,6.7-6.7l0,0c3.7,0,6.7,3,6.7,6.7v49.1
			C190.1,194.9,187.1,198,183.4,198z"/>
		<path class="st9" d="M183.4,148.9L183.4,148.9c-1.2,0-2.2-1-2.2-2.2l0,0c0-1.2,1-2.2,2.2-2.2l0,0c1.2,0,2.2,1,2.2,2.2l0,0
			C185.6,147.8,184.6,148.9,183.4,148.9z"/>
		<path class="st9" d="M183.4,157.8L183.4,157.8c-1.2,0-2.2-1-2.2-2.2l0,0c0-1.2,1-2.2,2.2-2.2l0,0c1.2,0,2.2,1,2.2,2.2l0,0
			C185.6,156.8,184.6,157.8,183.4,157.8z"/>
	</g>
</g>
<g id="Layer_74">
	<g>
		<path class="st8" d="M98.8,179.3v17.6h67.4v-70.4c0-18.8-15.4-34.8-34.1-34.6c-18.3,0.2-33.2,15.3-33.2,33.7v10.9
			c0,0.8-0.9,1.1-1.5,0.6l0,0c-4.6-4.6-12.1-5.5-17.2-1.5c-6.3,4.8-6.7,13.9-1.3,19.4c0,0,10.6,10.4,16.4,15.9
			C97.5,173.1,98.8,176.1,98.8,179.3z"/>
		<rect x="98.8" y="185" class="st10" width="67.4" height="11.9"/>
		<rect x="166.2" y="171.1" class="st10" width="11.9" height="7.9"/>
		
			<rect x="114.6" y="156.3" transform="matrix(0.7071 -0.7071 0.7071 0.7071 -76.2943 132.3585)" class="st11" width="14" height="4"/>
		
			<rect x="119.6" y="151.3" transform="matrix(0.7071 -0.7071 0.7071 0.7071 -76.2938 132.3579)" class="st11" width="4" height="14"/>
		
			<rect x="136.4" y="156.3" transform="matrix(0.7071 -0.7071 0.7071 0.7071 -69.9062 147.7704)" class="st11" width="14" height="4"/>
		
			<rect x="141.4" y="151.3" transform="matrix(0.7071 -0.7071 0.7071 0.7071 -69.9056 147.7699)" class="st11" width="4" height="14"/>
		
			<rect x="106.7" y="172.1" transform="matrix(0.7071 -0.7071 0.7071 0.7071 -89.7905 131.3695)" class="st11" width="14" height="4"/>
		
			<rect x="111.7" y="167.1" transform="matrix(0.7071 -0.7071 0.7071 0.7071 -89.7899 131.3689)" class="st11" width="4" height="14"/>
		
			<rect x="126.5" y="172.1" transform="matrix(0.7071 -0.7071 0.7071 0.7071 -83.9961 145.3749)" class="st11" width="14" height="4"/>
		
			<rect x="131.5" y="167.1" transform="matrix(0.7071 -0.7071 0.7071 0.7071 -83.9956 145.3743)" class="st11" width="4" height="14"/>
		
			<rect x="146.3" y="172.1" transform="matrix(0.7071 -0.7071 0.7071 0.7071 -78.2016 159.3804)" class="st11" width="14" height="4"/>
		
			<rect x="151.3" y="167.1" transform="matrix(0.7071 -0.7071 0.7071 0.7071 -78.201 159.3798)" class="st11" width="4" height="14"/>
		<path class="st11" d="M105.2,145.9c-0.5,0-1-0.2-1.3-0.5l-7.3-6.6c-0.8-0.7-0.9-2-0.1-2.8c0.7-0.8,2-0.9,2.8-0.1l7.3,6.6
			c0.8,0.7,0.9,2,0.1,2.8C106.3,145.7,105.7,145.9,105.2,145.9z"/>
	</g>
</g>
</svg>
