<?xml version="1.0" encoding="utf-8"?>
<!-- Generator: Adobe Illustrator 19.2.0, SVG Export Plug-In . SVG Version: 6.00 Build 0)  -->
<svg version="1.1" id="Layer_1" xmlns="http://www.w3.org/2000/svg" xmlns:xlink="http://www.w3.org/1999/xlink" x="0px" y="0px"
	 viewBox="0 0 178.6 166.7" style="enable-background:new 0 0 178.6 166.7;" xml:space="preserve">
<style type="text/css">
	.st0{fill:#C07340;}
	.st1{fill:#B56E3E;}
	.st2{fill:#975835;}
	.st3{fill:#F09F3E;}
	.st4{fill:#D78032;}
</style>
<title>Cookies, Rusk &amp;amp; Khari</title>
<g id="Rusk">
	<path class="st0" d="M113.9,34.8c0-4.6-2.6-8.9-6.6-11.1c6.1-3.3,8.4-10.9,5.1-17.1c-3.3-6.1-10.9-8.4-17.1-5.1
		c-2.2,1.2-4,3-5.1,5.1c-3.3-6.1-10.8-8.4-17-5.2c-2.2,1.2-4,3-5.2,5.2c-3.3-6.1-10.8-8.4-17-5.2c-2.2,1.2-4,3-5.2,5.2
		c-3.3-6.1-10.8-8.4-17-5.2c-2.2,1.2-4,3-5.2,5.2C20.4,0.5,12.8-1.8,6.6,1.5s-8.5,10.9-5.2,17.1c1.2,2.2,3,4,5.2,5.2
		c-6.1,3.3-8.4,10.8-5.2,17c1.2,2.2,3,4,5.2,5.2c-6.1,3.3-8.4,10.8-5.2,17c1.2,2.2,3,4,5.2,5.2c-6.1,3.3-8.4,10.8-5.2,17
		c1.2,2.2,3,4,5.2,5.2c-6.1,3.3-8.4,10.8-5.2,17c1.2,2.2,3,4,5.2,5.2c-6.1,3.3-8.4,10.8-5.2,17c1.2,2.2,3,4,5.2,5.2
		c-6.1,3.3-8.4,10.9-5.1,17.1c3.3,6.1,10.9,8.4,17.1,5.1c2.2-1.2,4-3,5.1-5.1c3.3,6.1,10.8,8.4,17,5.2c2.2-1.2,4-3,5.2-5.2
		c3.3,6.1,10.8,8.4,17,5.2c2.2-1.2,4-3,5.2-5.2c3.3,6.1,10.8,8.4,17,5.2c2.2-1.2,4-3,5.2-5.2c3.3,6.1,10.9,8.4,17.1,5.1
		s8.4-10.9,5.1-17.1c-1.2-2.2-3-4-5.1-5.1c6.1-3.3,8.4-10.8,5.2-17c-1.2-2.2-3-4-5.2-5.2c6.1-3.3,8.4-10.8,5.2-17
		c-1.2-2.2-3-4-5.2-5.2c6.1-3.3,8.4-10.8,5.2-17c-1.2-2.2-3-4-5.2-5.2c6.1-3.3,8.4-10.8,5.2-17c-1.2-2.2-3-4-5.2-5.2
		C111.3,43.7,113.8,39.4,113.9,34.8z"/>
	<path class="st1" d="M113.9,34.8c0-4.6-2.6-8.9-6.6-11.1c6.1-3.3,8.5-10.9,5.2-17c-1.8-3.5-5.2-5.9-9-6.5
		C83.5,90.3,33.3,133.2,1.8,151.8c3.4,6,11.1,8.1,17.1,4.7c2.1-1.2,3.8-2.9,4.9-5c3.3,6.1,10.8,8.4,17,5.2c2.2-1.2,4-3,5.2-5.2
		c3.3,6.1,10.8,8.4,17,5.2c2.2-1.2,4-3,5.2-5.2c3.3,6.1,10.8,8.4,17,5.2c2.2-1.2,4-3,5.2-5.2c3.3,6.1,10.9,8.4,17.1,5.1
		s8.4-10.9,5.1-17.1c-1.2-2.2-3-4-5.1-5.1c6.1-3.3,8.4-10.8,5.2-17c-1.2-2.2-3-4-5.2-5.2c6.1-3.3,8.4-10.8,5.2-17
		c-1.2-2.2-3-4-5.2-5.2c6.1-3.3,8.4-10.8,5.2-17c-1.2-2.2-3-4-5.2-5.2c6.1-3.3,8.4-10.8,5.2-17c-1.2-2.2-3-4-5.2-5.2
		C111.3,43.7,113.8,39.4,113.9,34.8z"/>
	<rect x="28.5" y="22.1" class="st2" width="6.3" height="6.3"/>
	<rect x="53.8" y="22.1" class="st2" width="6.3" height="6.3"/>
	<rect x="79.1" y="22.1" class="st2" width="6.3" height="6.3"/>
	<rect id="SVGCleanerId_0" x="28.5" y="47.4" class="st2" width="6.3" height="6.3"/>
	<rect id="SVGCleanerId_1" x="53.8" y="47.4" class="st2" width="6.3" height="6.3"/>
	<rect id="SVGCleanerId_2" x="79.1" y="47.4" class="st2" width="6.3" height="6.3"/>
	<rect id="SVGCleanerId_3" x="28.5" y="72.7" class="st2" width="6.3" height="6.3"/>
	<rect id="SVGCleanerId_4" x="53.8" y="72.7" class="st2" width="6.3" height="6.3"/>
	<rect id="SVGCleanerId_5" x="79.1" y="72.7" class="st2" width="6.3" height="6.3"/>
	<rect id="SVGCleanerId_6" x="28.5" y="98" class="st2" width="6.3" height="6.3"/>
	<rect id="SVGCleanerId_7" x="53.8" y="98" class="st2" width="6.3" height="6.3"/>
	<rect id="SVGCleanerId_8" x="79.1" y="98" class="st2" width="6.3" height="6.3"/>
	<rect id="SVGCleanerId_10" x="53.8" y="123.3" class="st2" width="6.3" height="6.3"/>
	<rect id="SVGCleanerId_11" x="79.1" y="123.3" class="st2" width="6.3" height="6.3"/>
	<rect id="SVGCleanerId_10-2" x="28.6" y="123.5" class="st2" width="6.3" height="6.3"/>
</g>
<g id="Cookies">
	
		<ellipse transform="matrix(0.5141 -0.8577 0.8577 0.5141 -33.0151 182.3922)" class="st0" cx="144.5" cy="120.3" rx="34.1" ry="34.1"/>
	<path class="st1" d="M116,138.9c10.2,15.8,31.3,20.2,47,10c8.8-5.7,14.5-15.2,15.4-25.7L116,138.9z"/>
	<ellipse transform="matrix(0.5141 -0.8577 0.8577 0.5141 -11.7706 181.1502)" class="st2" cx="154" cy="101" rx="5.4" ry="5.4"/>
	
		<ellipse transform="matrix(0.5141 -0.8577 0.8577 0.5141 -42.2825 199.835)" class="st2" cx="155.2" cy="137.2" rx="3.6" ry="3.6"/>
	
		<rect x="159.6" y="118.2" transform="matrix(0.5141 -0.8577 0.8577 0.5141 -24.5264 196.7375)" class="st2" width="3.6" height="3.6"/>
	
		<rect x="137.8" y="130.2" transform="matrix(0.5141 -0.8577 0.8577 0.5141 -45.4139 183.8535)" class="st2" width="3.6" height="3.6"/>
	
		<ellipse transform="matrix(0.5141 -0.8577 0.8577 0.5141 -27.3204 166.6197)" class="st2" cx="133.4" cy="107.4" rx="3.6" ry="3.6"/>
	<path class="st3" d="M112.8,103.4c-1.6-0.9-3.3-1.8-5-2.4c-1.7,4.5-6.8,6.8-11.3,5.1c-0.5-0.2-1.1-0.5-1.6-0.8l0,0
		c0.6,4.9-2.9,9.3-7.8,9.9c-3.5,0.4-6.8-1.2-8.6-4.2c-0.2,0.9-0.5,1.8-1,2.7c-2.5,4.2-8,5.6-12.2,3.1c-8.8,16.6-2.4,37.2,14.2,45.9
		s37.2,2.4,45.9-14.2C133.8,132.5,128.3,112.7,112.8,103.4z"/>
	
		<ellipse transform="matrix(0.5141 -0.8577 0.8577 0.5141 -51.8331 157.1853)" class="st4" cx="112.8" cy="124.3" rx="5.4" ry="5.4"/>
	<ellipse transform="matrix(0.5101 -0.8601 0.8601 0.5101 -85.8905 135.4689)" class="st4" cx="76" cy="143.1" rx="3.6" ry="3.6"/>
	
		<rect x="100.6" y="143.5" transform="matrix(0.5141 -0.8577 0.8577 0.5141 -74.8422 158.3802)" class="st4" width="3.6" height="3.6"/>
	
		<rect x="82.7" y="124.4" transform="matrix(0.5141 -0.8577 0.8577 0.5141 -67.164 133.829)" class="st4" width="3.6" height="3.6"/>
</g>
</svg>
