<?xml version="1.0" encoding="utf-8"?>
<!-- Generator: Adobe Illustrator 19.2.0, SVG Export Plug-In . SVG Version: 6.00 Build 0)  -->
<svg version="1.1" id="Layer_1" xmlns="http://www.w3.org/2000/svg" xmlns:xlink="http://www.w3.org/1999/xlink" x="0px" y="0px"
	 viewBox="0 0 200 200" style="enable-background:new 0 0 200 200;" xml:space="preserve">
<style type="text/css">
	.st0{fill:#0A8690;}
	.st1{fill:#0FAEBC;}
	.st2{fill:#B5CDDE;}
	.st3{fill:#F89749;}
	.st4{fill:#F37221;}
	.st5{fill:#CAE5F7;}
	.st6{fill:#A5A6AB;}
	.st7{fill:#7F8081;}
	.st8{fill:#C8C9CA;}
	.st9{fill:#E88C4A;}
	.st10{fill:#E4712A;}
	.st11{fill:#DB5126;}
</style>
<g id="Layer_47">
	<path class="st0" d="M88.6,62.4V46.6C88.6,40.7,83.9,36,78,36s-10.6,4.7-10.6,10.6v15.8C67.4,62.4,88.6,62.4,88.6,62.4z"/>
	<path class="st1" d="M78,36c-5.9,0-10.6,4.7-10.6,10.6v15.8H78V36z"/>
	<path class="st0" d="M135.5,84.1h-115c-7,0-12.7,5.7-12.7,12.7s5.7,12.7,12.7,12.7h115c7,0,12.7-5.7,12.7-12.7
		C148.2,89.8,142.5,84.1,135.5,84.1z M135.5,99.4h-115c-1.4,0-2.6-1.2-2.6-2.6s1.2-2.6,2.6-2.6h115c1.4,0,2.6,1.2,2.6,2.6
		C138.1,98.2,136.9,99.4,135.5,99.4z"/>
	<path class="st2" d="M107.3,52.6H48.7c-13.8,0-24.9,11.2-24.9,24.9V79v72.9c0,8.9,7.2,16.2,16.2,16.2h76.1
		c8.9,0,16.2-7.2,16.2-16.2V79v-1.4C132.2,63.8,121.1,52.6,107.3,52.6z"/>
	<g>
		<path class="st3" d="M35.7,200c-5.1,0-9.3-4.2-9.3-9.3c0-8.1,8-13.2,8.4-13.4l0.9-0.6l0.9,0.6c0.3,0.2,8.4,5.3,8.4,13.4
			C45,195.8,40.8,200,35.7,200z"/>
		<path class="st3" d="M63.9,200c-5.1,0-9.3-4.2-9.3-9.3c0-8.1,8-13.2,8.4-13.4l0.9-0.6l0.9,0.6c0.3,0.2,8.4,5.3,8.4,13.4
			C73.2,195.8,69,200,63.9,200z"/>
	</g>
	<g>
		<path class="st4" d="M92.1,200c-5.1,0-9.3-4.2-9.3-9.3c0-8.1,8-13.2,8.4-13.4l0.9-0.6l0.9,0.6c0.3,0.2,8.4,5.3,8.4,13.4
			C101.3,195.8,97.2,200,92.1,200z"/>
		<path class="st4" d="M120.3,200c-5.1,0-9.3-4.2-9.3-9.3c0-8.1,8-13.2,8.4-13.4l0.9-0.6l0.9,0.6c0.3,0.2,8.4,5.3,8.4,13.4
			C129.5,195.8,125.4,200,120.3,200z"/>
	</g>
	<path class="st5" d="M78,52.6H48.7c-13.8,0-24.9,11.2-24.9,24.9V79v72.9c0,8.9,7.2,16.2,16.2,16.2h38V52.6z"/>
	<path class="st0" d="M132.2,77.6c0-1.2-0.1-2.4-0.3-3.6H24c-0.2,1.2-0.3,2.4-0.3,3.6V79v5.1h108.5V79V77.6L132.2,77.6z"/>
	<path class="st1" d="M78,73.9H24c-0.2,1.2-0.3,2.4-0.3,3.6V79v5.1H78V73.9L78,73.9L78,73.9z"/>
</g>
<g id="Layer_48">
	<path class="st6" d="M119.5,109.9c-7.8-7.8-18.9-11.5-29.8-9.8c-2.2,0.3-4,1.8-4.7,3.9s-0.2,4.4,1.4,5.9l42.1,42.1l3.4-3.4l9.8-9.8
		l3.4-3.4L119.5,109.9z"/>
	<path class="st7" d="M141.7,138.8l3.4-3.4l-25.6-25.6c-7-7-16.8-10.7-26.7-10.2l44,44L141.7,138.8z"/>
	<g>
		
			<rect x="118.2" y="141.2" transform="matrix(0.7071 -0.7071 0.7071 0.7071 -62.6719 138.1768)" class="st8" width="34.6" height="7.1"/>
		
			<rect x="140.6" y="142.7" transform="matrix(0.7071 -0.7071 0.7071 0.7071 -64.5732 146.1782)" class="st8" width="7.1" height="16.7"/>
	</g>
	<path class="st9" d="M96.9,195.1c-3,0-6-1.1-8.2-3.4c-4.5-4.5-4.5-11.9,0-16.5l28.1-28.1l16.5,16.5l-28.1,28.1
		C102.8,193.9,99.8,195.1,96.9,195.1z"/>
	<path class="st10" d="M88.8,191.8c2.3,2.2,5.2,3.3,8.1,3.3c3,0,6-1.1,8.2-3.4l28.1-28.1l-8.1-8.1L88.8,191.8z"/>
	<path class="st6" d="M190.6,108.9l-18,18l-4.2-4.2l18-18l-3.4-3.4l-18,18l-4.2-4.2l18-18l-3.4-3.4l-18,18l-4.2-4.2l18-18l-3.4-3.4
		l-22,22c-3.5,3.5-5.4,8.1-5.4,13s1.9,9.5,5.4,13s8.1,5.4,13,5.4s9.5-1.9,13-5.4l22-22L190.6,108.9z"/>
	<path class="st7" d="M172.5,126.9l-4.2-4.2l18-18l-3.4-3.4l-18,18l-1.9-1.9l-16.9,16.9c3.4,3.4,8,5.2,12.8,5.2
		c4.9,0,9.5-1.9,13-5.4l22-22l-3.4-3.4L172.5,126.9z"/>
	<path class="st10" d="M176.4,195c-3,0-6-1.1-8.2-3.4l-28.1-28.1l16.5-16.5l28.1,28.1c4.5,4.5,4.5,11.9,0,16.5
		C182.4,193.8,179.4,195,176.4,195z"/>
	<path class="st11" d="M184.7,175.1L156.6,147l-8.2,8.2l36.3,36.3C189.2,187,189.2,179.6,184.7,175.1z"/>
</g>
</svg>
