<?xml version="1.0" encoding="utf-8"?>
<!-- Generator: Adobe Illustrator 19.2.0, SVG Export Plug-In . SVG Version: 6.00 Build 0)  -->
<svg version="1.1" id="Layer_1" xmlns="http://www.w3.org/2000/svg" xmlns:xlink="http://www.w3.org/1999/xlink" x="0px" y="0px"
	 viewBox="0 0 200 200" style="enable-background:new 0 0 200 200;" xml:space="preserve">
<style type="text/css">
	.st0{fill:#178542;}
	.st1{fill:#106936;}
	.st2{fill:#163F1E;}
	.st3{fill:#00A057;}
	.st4{fill:#0E8743;}
	.st5{fill:#E8EB8F;}
	.st6{fill:#BFDA77;}
	.st7{fill:#82C341;}
	.st8{fill:#83C341;}
	.st9{fill:#5EA444;}
	.st10{fill:#73B243;}
	.st11{fill:#AF1E4A;}
	.st12{fill:#85153E;}
	.st13{fill:#537D39;}
	.st14{fill:#D2246A;}
	.st15{fill:#680B35;}
	.st16{fill:#C11E5C;}
	.st17{fill:#D42F27;}
	.st18{fill:#B11F24;}
	.st19{fill:#EF4343;}
	.st20{fill:#3B1A0D;}
	.st21{fill:#5AC5C7;}
	.st22{fill:#2FBEBC;}
	.st23{fill:#06A6A6;}
	.st24{fill:#0B8A91;}
	.st25{fill:#0C8399;}
	.st26{fill:#026278;}
	.st27{fill:#43BAC7;}
	.st28{fill:#ACDEE0;}
	.st29{fill:#F5F1E6;}
	.st30{fill:#77123E;}
	.st31{fill:#400F2A;}
</style>
<g id="Layer_94">
	<path class="st0" d="M165.2,43.9c-2.6-2.3-6-2.6-8.9-1.4c0.9-3.7-0.6-7.8-4-9.5c-3.7-2-8.3-1.2-10.9,2c0-3.7-2.6-7.5-6.6-8.3
		c-2-0.6-4-0.3-5.5,0.6c-2-2-4.3-3.2-6.9-3.7c-4.3-0.6-8.1,1.4-10.4,4.6c-1.7-4.6-6.3-7.5-11.2-6.9c-5.5,0.6-9.5,4.9-9.8,10.1
		c-2.9-4-8.1-5.8-13-4c-5.8,2-8.6,8.3-6.3,14.1l14.1,38c-6,4.9-10.1,12.7-10.1,21.6c0,15,11.5,27.1,25.6,27.1s25.6-12.1,25.6-27.1
		c0-2-0.3-4.3-0.6-6.3c2.9,0.6,5.8-0.6,7.8-2.9L165.8,56C169,52.5,168.7,47.1,165.2,43.9z"/>
	<path class="st1" d="M157.5,50.8c-2.3-2-5.5-2.6-8.1-1.4c0.9-3.5-0.6-6.9-3.7-8.6c-3.5-2-7.8-1.2-10.1,1.7c0-3.5-2.3-6.9-6-7.8
		c-1.7-0.6-3.5-0.3-5.2,0.6c-1.4-1.7-3.7-2.9-6.3-3.2c-3.7-0.6-7.5,1.4-9.5,4.3c-1.4-4-5.8-6.9-10.4-6.3c-4.9,0.6-8.6,4.3-9.2,9.2
		c-2.6-3.7-7.5-5.5-11.8-3.7c-5.2,2-7.8,7.8-5.8,13l13,34.8c-5.8,4.6-9.2,11.8-9.2,19.9c0,13.8,10.7,24.8,23.6,24.8
		s23.6-11.2,23.6-24.8c0-2-0.3-3.7-0.6-5.8c2.6,0.3,5.5-0.3,7.2-2.6L158,62C160.9,58.6,160.6,53.7,157.5,50.8z"/>
	<path class="st2" d="M144.8,62c-2-1.7-4.6-2-6.9-1.2c0.6-2.9-0.6-6-3.2-7.5c-2.9-1.7-6.6-0.9-8.6,1.7c0-3.2-2-5.8-5.2-6.6
		c-1.4-0.3-3.2-0.3-4.3,0.6c-1.4-1.4-3.2-2.6-5.2-2.9c-3.5-0.3-6.3,1.2-8.1,3.7c-1.4-3.5-4.9-6-8.9-5.5c-4.3,0.3-7.5,3.7-7.8,7.8
		c-2.3-3.2-6.3-4.6-10.1-3.2c-4.3,1.7-6.6,6.6-5.2,11.2L82.5,90c-4.9,3.7-8.1,10.1-8.1,17c0,11.8,8.9,21.3,20.1,21.3
		s20.1-9.5,20.1-21.3c0-1.7-0.3-3.5-0.6-4.9c2.3,0.3,4.6-0.3,6-2.3l24.8-27.9C148,68.7,147.7,64.3,144.8,62z"/>
	<circle class="st3" cx="56.7" cy="64.9" r="34.3"/>
	<path class="st4" d="M56.7,30.7C75.7,30.7,91,46,91,65S75.7,99.2,56.7,99.2"/>
	<circle class="st5" cx="56.7" cy="64.9" r="27.3"/>
	<path class="st6" d="M76,45.6c10.7,10.7,10.7,28.2,0,38.9s-28.2,10.7-38.9,0"/>
	<g>
		<path class="st7" d="M52.4,48.8L52.4,48.8l4.3,10.1L61,48.8l0,0c0.3-0.6,0.3-1.2,0.3-2c0-2.6-2-4.6-4.6-4.6s-4.6,2-4.6,4.6
			C52.1,47.6,52.1,48.2,52.4,48.8z"/>
		<path class="st7" d="M42.9,57.1L42.9,57.1l10.1,4L49,51l0,0c-0.3-0.6-0.6-1.2-1.2-1.7c-1.7-1.7-4.6-1.7-6.6,0
			c-1.7,1.7-1.7,4.6,0,6.6C41.7,56.6,42.3,56.9,42.9,57.1z"/>
		<path class="st7" d="M65.9,50.5L65.9,50.5l-4,10.1l10.1-4l0,0c0.6-0.3,1.2-0.6,1.7-1.2c1.7-1.7,1.7-4.6,0-6.6
			c-1.7-1.7-4.6-1.7-6.6,0C66.5,49.4,66.2,50,65.9,50.5z"/>
		<path class="st7" d="M71.4,73.6L71.4,73.6l-10.1-4l4,10.1l0,0c0.3,0.6,0.6,1.2,1.2,1.7c1.7,1.7,4.6,1.7,6.6,0
			c1.7-1.7,1.7-4.6,0-6.6C72.5,74.1,72,73.8,71.4,73.6z"/>
		<path class="st7" d="M61,81L61,81l-4.3-10l-4.3,10l0,0c-0.3,0.6-0.3,1.2-0.3,2c0,2.6,2,4.6,4.6,4.6s4.6-2,4.6-4.6
			C61.3,82.2,61,81.6,61,81z"/>
		<path class="st7" d="M72.8,60.6L72.8,60.6l-10.1,4.3l10.1,4.3l0,0c0.6,0.3,1.2,0.3,2,0.3c2.6,0,4.6-2,4.6-4.6s-2-4.6-4.6-4.6
			C74,60.3,73.4,60.3,72.8,60.6z"/>
		<path class="st7" d="M40.6,69.2L40.6,69.2l10.1-4.3l-10.1-4.3l0,0c-0.6-0.3-1.2-0.3-2-0.3c-2.6,0-4.6,2-4.6,4.6s2,4.6,4.6,4.6
			C39.4,69.5,40,69.5,40.6,69.2z"/>
		<path class="st7" d="M48.4,79.3L48.4,79.3l4-10.1l-10.1,4l0,0c-0.6,0.3-1.2,0.6-1.7,1.2c-1.7,1.7-1.7,4.6,0,6.6
			c1.7,1.7,4.6,1.7,6.6,0C47.8,80.5,48.1,79.9,48.4,79.3z"/>
	</g>
	<path class="st8" d="M124.9,37.6L124.9,37.6L124.9,37.6L124.9,37.6c-1.2,16.7-15.3,25-8.3,42c4,9.8,15,12.4,27.6,14.7l0,0h0.3l0,0
		c8.6-8.6,15.5-18.1,13-28.5C152.3,48.2,135.9,50.2,124.9,37.6z"/>
	<path class="st9" d="M144.2,94.3L144.2,94.3L144.2,94.3L144.2,94.3c8.6-8.6,15.8-18.4,13-28.5c-4.9-17.6-21.3-15.5-32.2-28.2l0,0
		h-0.3l0,0"/>
	<g>
		<polygon class="st10" points="133.6,62.6 122.3,60 134.7,66.1 140.5,54 		"/>
		<polygon class="st10" points="139.9,81.6 129,79 141.1,85.1 147.1,73 		"/>
		<polygon class="st10" points="136.7,72.1 124.1,69 137.9,75.9 144.8,62 		"/>
	</g>
	<path class="st8" d="M170.4,36.4L170.4,36.4L170.4,36.4L170.4,36.4c-5.8,10.9-18.7,12.4-19.6,26.2c-0.6,8.1,6,14.4,13.8,20.1l0,0
		l0,0l0,0c8.9-5.8,16.7-7.8,18.1-15.5C185.7,53.7,173.3,48.8,170.4,36.4z"/>
	<path class="st9" d="M164.7,82.8L164.7,82.8L164.7,82.8L164.7,82.8c9.2-5.8,16.7-7.8,18.1-15.5c2.6-13.5-9.5-18.4-12.4-30.8l0,0
		l0,0v0.3"/>
	<g>
		<polygon class="st10" points="168.1,56.6 161.5,50.8 167.8,59.2 175.9,52.8 		"/>
		<polygon class="st10" points="166.1,71.5 159.5,66.1 165.8,74.1 173.9,68.1 		"/>
		<polygon class="st10" points="167.2,63.8 159.8,57.4 166.7,66.9 175.9,59.7 		"/>
	</g>
	<path class="st11" d="M182.2,102.1c-4,16.4-14.4,11.2-28.2,7.8c-13.8-3.2-25.3-3.5-21.6-19.9c4-16.4,19.9-33.7,33.7-30.5
		C179.9,62.9,186.2,85.6,182.2,102.1z"/>
	<path class="st12" d="M166.4,59.5c13.8,3.2,20.1,25.9,16.1,42.3s-14.4,11.2-28.2,7.8"/>
	<ellipse transform="matrix(0.2337 -0.9723 0.9723 0.2337 10.9597 234.1415)" class="st9" cx="154" cy="110.1" rx="1.7" ry="11.5"/>
	<path class="st13" d="M154.6,108.4c6,1.4,10.9,3.5,10.7,4.6c-0.3,0.9-5.5,0.6-11.5-0.9"/>
	<ellipse transform="matrix(0.8656 -0.5008 0.5008 0.8656 -12.287 86.6313)" class="st14" cx="155.2" cy="66.2" rx="9.2" ry="2.9"/>
	<g>
		<circle class="st15" cx="144.5" cy="91.7" r="2"/>
		<circle class="st15" cx="139.3" cy="98.9" r="2"/>
		<circle class="st15" cx="152.6" cy="85.6" r="2"/>
		<circle class="st15" cx="147.4" cy="77.3" r="1.7"/>
		<circle class="st15" cx="141.6" cy="83.3" r="1.7"/>
		<circle class="st15" cx="157.7" cy="76.1" r="1.4"/>
		<circle class="st15" cx="153.7" cy="69.5" r="1.4"/>
		<circle class="st15" cx="160.9" cy="64.9" r="1.2"/>
		<circle class="st15" cx="151.4" cy="100.9" r="2"/>
	</g>
	<g>
		<circle class="st16" cx="171" cy="98" r="2"/>
		<circle class="st16" cx="172.4" cy="106.9" r="2"/>
		<circle class="st16" cx="166.4" cy="89.1" r="2"/>
		<circle class="st16" cx="175" cy="83.9" r="1.7"/>
		<circle class="st16" cx="177.6" cy="92" r="1.7"/>
		<circle class="st16" cx="166.4" cy="78.2" r="1.4"/>
		<circle class="st16" cx="173" cy="74.1" r="1.4"/>
		<circle class="st16" cx="168.4" cy="66.9" r="1.2"/>
		<circle class="st16" cx="160.9" cy="103.2" r="2"/>
	</g>
	<path class="st11" d="M145.7,99.2c-0.6,13-9.2,10.7-19.9,10.1c-10.7-0.3-19.6,1.2-19-11.5c0.6-13,9.8-28.2,20.4-27.9
		C138.2,70.4,146.2,86.5,145.7,99.2z"/>
	<path class="st12" d="M127.2,69.8c10.7,0.3,19,16.4,18.4,29.4s-9.2,10.7-19.9,10.1"/>
	
		<ellipse transform="matrix(3.839712e-002 -0.9993 0.9993 3.839712e-002 11.4902 231.0092)" class="st9" cx="125.8" cy="109.5" rx="1.4" ry="8.9"/>
	<path class="st13" d="M125.8,108.1c4.9,0.3,8.6,0.9,8.6,1.7c0,0.9-4,1.2-8.9,1.2"/>
	<ellipse transform="matrix(0.7506 -0.6608 0.6608 0.7506 -20.5793 98.4358)" class="st14" cx="120.1" cy="76.5" rx="6.9" ry="2"/>
	<g>
		<circle class="st15" cx="116" cy="97.2" r="1.4"/>
		<circle class="st15" cx="113.1" cy="103.5" r="1.4"/>
		<circle class="st15" cx="121.2" cy="91.4" r="1.4"/>
		<circle class="st15" cx="116" cy="85.9" r="1.2"/>
		<circle class="st15" cx="112.3" cy="91.4" r="1.2"/>
		<circle class="st15" cx="123.5" cy="83.6" r="1.2"/>
		<circle class="st15" cx="119.5" cy="79" r="1.2"/>
		<circle class="st15" cx="124.1" cy="74.7" r="0.9"/>
		<circle class="st15" cx="122.3" cy="102.9" r="1.4"/>
	</g>
	<g>
		<circle class="st16" cx="136.7" cy="98" r="1.4"/>
		<circle class="st16" cx="139" cy="104.4" r="1.4"/>
		<circle class="st16" cx="131.8" cy="92" r="1.4"/>
		<circle class="st16" cx="137.6" cy="86.8" r="1.2"/>
		<circle class="st16" cx="140.5" cy="92.6" r="1.2"/>
		<circle class="st16" cx="130.1" cy="83.9" r="1.2"/>
		<path class="st16" d="M133.6,79.6c0,0.6,0.3,1.2,0.9,1.2s1.2-0.3,1.2-0.9s-0.3-1.2-0.9-1.2S133.6,79,133.6,79.6z"/>
		<circle class="st16" cx="130.1" cy="75" r="0.9"/>
		<circle class="st16" cx="129.8" cy="103.2" r="1.4"/>
	</g>
	<path class="st5" d="M118,112.7c0,0-40.3-42.6-56.1-38.9S51.8,90.3,51.8,90.3s-13-3.7-16.7,3.5s-10.7,10.7-10.7,10.7l-6.3,6.6
		l9.8,9.2l98.4,2L118,112.7z"/>
	<path class="st6" d="M109.7,110.7c0,0-33.1-35.1-46.1-32s-8.3,13.5-8.3,13.5S44.6,89,41.5,95.1c-3.2,6-8.6,8.6-8.6,8.6l-5.2,5.5
		l7.8,7.8l80.9,1.4L109.7,110.7z"/>
	<path class="st7" d="M110.5,114.4c0,0-32.5-34.3-45.2-31.4c-12.7,3.2-8.1,13.2-8.1,13.2S46.8,93,43.7,98.8s-8.3,8.3-8.3,8.3
		l-4.9,5.5l7.8,7.8l79.2,1.4L110.5,114.4z"/>
	<path class="st4" d="M110.8,117.9c0,0-30.8-32.8-43.2-29.9c-12.1,2.9-7.8,12.4-7.8,12.4s-10.1-2.9-13,2.6c-2.9,5.5-8.1,8.1-8.1,8.1
		l-4.9,5.2l7.5,7.5l75.4,1.4L110.8,117.9z"/>
	<path class="st1" d="M114,122.5c0,0-30.8-32.8-43.2-29.9C58.7,95.5,63,105,63,105s-10.1-2.9-13,2.6c-2.9,5.5-8.1,8.1-8.1,8.1
		l-4.9,5.2l7.5,7.5l75.4,1.4L114,122.5z"/>
	<circle class="st17" cx="26.2" cy="86.5" r="10.1"/>
	<path class="st18" d="M29.4,77c5.2,1.7,8.1,7.5,6.6,12.7c-1.7,5.2-7.5,8.1-12.7,6.6"/>
	<ellipse transform="matrix(0.4706 -0.8824 0.8824 0.4706 -62.9933 61.9573)" class="st19" cx="20.1" cy="83.5" rx="4.6" ry="1.7"/>
	<g>
		<path class="st20" d="M23.6,78.7c0.3,0.6,0,1.2-0.6,1.4l0,0c-0.6,0.3-1.2,0-1.4-0.6L18.1,73c-0.3-0.6,0-1.2,0.6-1.4l0,0
			c0.6-0.3,1.2,0,1.4,0.6L23.6,78.7z"/>
		<path class="st20" d="M20.7,66.4c0.3-0.6,0.9-0.6,1.4-0.3l0,0c0.6,0.3,0.9,0.9,0.6,1.4l-2.9,5.2c-0.3,0.6-0.9,0.6-1.4,0.3l0,0
			c-0.6-0.3-0.9-0.9-0.6-1.2L20.7,66.4z"/>
	</g>
	<circle class="st17" cx="23.9" cy="100.3" r="10.1"/>
	<path class="st18" d="M21.6,90.5c5.5-1.2,10.9,2,12.1,7.5s-2,10.9-7.5,12.1"/>
	
		<ellipse transform="matrix(0.9988 -4.949744e-002 4.949744e-002 0.9988 -4.9685 0.97)" class="st19" cx="17.1" cy="100.8" rx="1.7" ry="4.6"/>
	<path class="st20" d="M17.6,94.9c0.6,0.3,0.6,1.2,0.3,1.7l0,0c-0.3,0.6-0.9,0.6-1.4,0.3l-6.3-4c-0.6-0.3-0.9-0.9-0.6-1.4l0,0
		c0.3-0.6,1.2-0.6,1.7-0.3L17.6,94.9z"/>
	<path class="st21" d="M12.7,111.6c8.1,57.6,43.8,85.5,86.9,85.5s78.9-27.9,86.9-85.5L12.7,111.6L12.7,111.6z"/>
	<path class="st22" d="M99.3,197c43.2,0,79.2-27.9,87.2-85.5H12.1"/>
	<path class="st23" d="M99.6,195.6c43.2,0,78.9-27.1,86.9-85.5L99,110.7"/>
	<rect x="75.4" y="192.2" class="st21" width="48.9" height="8.6"/>
	<path class="st24" d="M103.3,197c40.6-1.4,74.8-29.1,82.9-84.1L103.3,197z"/>
	<rect x="75.4" y="192.2" class="st25" width="48.9" height="8.6"/>
	<polyline class="st26" points="75.4,192.2 124.4,192.2 124.4,200.8 	"/>
	<polygon class="st23" points="114.6,135.2 13,111.6 118,111.6 	"/>
	<path class="st25" d="M187.4,110.1c0,1.7-2,4.3-3.5,4.3H16.4c-1.7,0-4.9-2.3-4.9-4l0,0c0-2.9,2-4.6,4-4.6h168.1
		C185.4,105.8,187.4,107.5,187.4,110.1L187.4,110.1z"/>
	<path class="st26" d="M187.4,110.1L187.4,110.1c0,2-1.7,4.3-3.5,4.3H15c-2,0-3.5-2-3.5-4l0,0"/>
	<g>
		<circle class="st25" cx="45.5" cy="130.8" r="4.6"/>
		<circle class="st25" cx="72.5" cy="130.8" r="4.6"/>
		<circle class="st25" cx="99.6" cy="130.8" r="4.6"/>
		<circle class="st25" cx="126.4" cy="130.8" r="4.6"/>
		<circle class="st25" cx="153.4" cy="130.8" r="4.6"/>
	</g>
	<g>
		<path class="st26" d="M45.5,126.5c2.6,0,4.6,2,4.6,4.6s-2,4.6-4.6,4.6"/>
		<path class="st26" d="M72.5,126.5c2.6,0,4.6,2,4.6,4.6s-2,4.6-4.6,4.6"/>
		<path class="st26" d="M99.6,126.5c2.6,0,4.6,2,4.6,4.6s-2,4.6-4.6,4.6"/>
		<path class="st26" d="M126.4,126.5c2.6,0,4.6,2,4.6,4.6s-2,4.6-4.6,4.6"/>
		<path class="st26" d="M153.4,126.5c2.6,0,4.6,2,4.6,4.6s-2,4.6-4.6,4.6"/>
		<polygon class="st26" points="64.2,147 55.3,138.3 37.7,155.6 55.3,173.2 64.2,164.2 55.3,155.6 		"/>
	</g>
	<polygon class="st25" points="81.8,147 72.8,138.3 64.2,147 72.8,155.6 64.2,164.2 72.8,173.2 81.8,164.2 73.1,155.6 	"/>
	<g>
		<polygon class="st26" points="99.6,147 90.7,138.3 81.8,147 90.4,155.6 81.8,164.2 90.7,173.2 99.6,164.2 91,155.6 		"/>
		<polygon class="st26" points="117.2,147 108.2,138.3 99.6,147 108.2,155.6 99.6,164.2 108.2,173.2 117.2,164.2 108.5,155.6 		"/>
	</g>
	<polygon class="st25" points="135,147 126.1,138.3 117.2,147 125.8,155.6 117.2,164.2 126.1,173.2 135,164.2 126.4,155.6 	"/>
	<polygon class="st26" points="161.2,155.6 143.9,138.3 135,147 143.6,155.6 135,164.2 143.9,173.2 	"/>
	<path class="st21" d="M184.8,120.2c0.3,0,0.3-2.9,0.6-2.9H13.8c0.3,0,0.3,2.9,0.6,2.9H184.8z"/>
	<path class="st27" d="M35.1,110.1c0,0.9-0.6,1.4-1.4,1.4H16.4c-0.9,0-1.4-0.6-1.4-1.4l0,0c0-0.9,0.6-1.4,1.4-1.4h17.3
		C34.5,108.7,35.1,109.3,35.1,110.1L35.1,110.1z"/>
	<ellipse transform="matrix(0.859 -0.512 0.512 0.859 -67.0804 33.6708)" class="st28" cx="27.6" cy="138.6" rx="4.9" ry="14.1"/>
	<g>
		<path class="st29" d="M135.3,82.5c15.8-0.9,29.4,6,32,15.3c0.3-1.2,0.3-2,0.3-3.2c-0.6-10.9-15-19.3-32.5-18.4
			c-17.6,0.9-31.4,10.4-30.8,21.3c0,1.2,0.3,2,0.6,3.2C106.5,91.1,119.5,83.3,135.3,82.5z"/>
		<path class="st29" d="M129.8,90.3c12.7,0.9,22.7,7.2,24.2,15c0.3-0.9,0.3-1.7,0.6-2.3c0.6-8.9-10.4-16.7-24.2-17.6
			s-25.6,5.5-26.2,14.4c0,0.9,0,1.7,0.3,2.6C106.2,94.6,117.2,89.4,129.8,90.3z"/>
	</g>
	<path class="st30" d="M26.2,28.7c-3.7-1.7-8.1-0.3-9.5,2.9c-1.2,2.9,1.2,3.5,4,4.6c-0.3,0.6-0.6,1.2-0.9,1.7
		c-1.2,2.3,0.3,2,1.2,2.6c1.2,0.6,1.7,1.4,2.9-0.9c0.3-0.6,0.6-1.2,0.6-1.7c2.9,1.4,4.9,2.6,6.3-0.3C32,34.4,29.9,30.4,26.2,28.7z"
		/>
	<path class="st31" d="M19.9,37.9c-1.2,2.3,0.3,2,1.2,2.6c1.2,0.6,1.7,1.4,2.9-0.9c0.3-0.6,0.6-1.2,0.6-1.7c2.9,1.4,4.9,2.6,6.3-0.3
		c1.4-3.2-0.6-7.2-4.3-8.9"/>
	<path class="st30" d="M15.5,45.6c-2.9,1.4-4.3,4.9-2.9,7.2c1.2,2,2.6,1.2,4.9-0.3c0,0.6,0.3,0.9,0.6,1.4c0.9,1.7,1.4,0.9,2.3,0.6
		c0.9-0.6,1.7-0.3,0.9-2c-0.6-0.6-0.9-0.9-1.2-1.4c2.3-1.2,4-1.7,2.9-3.7C21.9,44.8,18.4,44.2,15.5,45.6z"/>
	<path class="st31" d="M17.9,54c0.9,1.7,1.4,0.9,2.3,0.6c0.9-0.6,1.7-0.3,0.9-2c-0.3-0.6-0.6-0.9-0.9-1.4c2.3-1.2,4-1.7,2.9-3.7
		c-1.2-2.6-4.6-3.2-7.5-1.7"/>
	<path class="st30" d="M162.6,25.5c-2.9,1.4-4.3,4.9-2.9,7.2c0.9,2,2.6,1.2,4.9-0.3c0,0.6,0.3,0.9,0.6,1.4c0.9,1.7,1.4,0.9,2.3,0.6
		c0.9-0.6,1.7-0.3,0.9-2c-0.6-0.6-0.9-0.9-1.2-1.4c2.3-1.2,4-1.7,2.9-3.7C169,24.6,165.5,24,162.6,25.5z"/>
	<path class="st31" d="M164.9,33.8c0.9,1.7,1.4,0.9,2.3,0.6c0.9-0.6,1.7-0.3,0.9-2c-0.3-0.6-0.6-0.9-0.9-1.4c2.3-1.2,4-1.7,2.9-3.7
		c-1.2-2.6-4.6-3.2-7.8-1.7"/>
</g>
</svg>
