<svg id="Layer_1" data-name="Layer 1" xmlns="http://www.w3.org/2000/svg" viewBox="0 0 182.14 195.17"><defs><style>.cls-1{fill:#dae7ef;}.cls-2{fill:#bcd7ea;}.cls-3{fill:#394650;}.cls-4{fill:#fff;}.cls-5{fill:#accbdd;}</style></defs><title>Dairy</title><path class="cls-1" d="M84.59,96.67s-0.25,8.81,11.54,18.79c30.07,25.45,19,81.94-16.42,82.22H43.83c-35.45-.28-46.49-56.77-16.42-82.22C39.21,105.48,39,96.67,39,96.67H84.59Z" transform="translate(-7.99 -4.37)"/><path class="cls-2" d="M62.17,199.55H43.84c-14.62-.12-26.75-9.59-32.45-25.35C5,156.64,7,130.32,26.21,114,37,104.86,37.08,96.79,37.08,96.7l0-1.89,1.89,0H86.51l-0.06,1.91c0,0.24.14,8.23,10.87,17.32,19.24,16.29,21.17,42.61,14.82,60.16-5.7,15.76-17.82,25.24-32.43,25.35H62.17Zm-21.53-101c-0.55,3.34-2.82,10.56-12,18.35C10.74,132,9,156.54,14.9,172.92c5.22,14.44,15.78,22.78,28.95,22.89H79.7c13.16-.1,23.71-8.45,28.93-22.89,5.93-16.38,4.16-40.91-13.72-56-9.2-7.79-11.46-15-12-18.35H40.64Z" transform="translate(-7.99 -4.37)"/><path class="cls-3" d="M46.91,96.67H39a7.49,7.49,0,0,1-7.47-7.47h0A7.49,7.49,0,0,1,39,81.73H83.78a7.49,7.49,0,0,1,7.47,7.47h0a7.49,7.49,0,0,1-7.47,7.47H46.91Z" transform="translate(-7.99 -4.37)"/><path class="cls-1" d="M168.93,38.42l-0.11-.1c-4.28-3.88-3.12-10.65,1.5-14.12a7.47,7.47,0,0,0,3-6V14.49A7.49,7.49,0,0,0,165.84,7H124.75a7.49,7.49,0,0,0-7.47,7.47v3.74a7.42,7.42,0,0,0,3.12,6c4.32,3.1,6.07,9.06,2.62,13.11a10.29,10.29,0,0,1-1.08,1.09c-7.87,6.78-19.6,14.28-19.6,32.05v51.37c15.52,19.37,14.14,49,.46,64.89a14.15,14.15,0,0,0,13.66,10.74h57.67a14.17,14.17,0,0,0,14.12-14.12V70.52C188.25,52.69,176.67,45.22,168.93,38.42Z" transform="translate(-7.99 -4.37)"/><path class="cls-2" d="M174.13,199.39H116.46A16,16,0,0,1,101,187.23l-0.24-.94,0.63-.73c12.41-14.39,15.18-42.94-.5-62.5l-0.41-.51v-52c0-16.7,9.74-24.75,17.56-31.22,0.93-.77,1.83-1.51,2.69-2.25a7.91,7.91,0,0,0,.88-0.89,5.78,5.78,0,0,0,1.32-4.56,8.68,8.68,0,0,0-3.62-5.82,9.33,9.33,0,0,1-3.9-7.55V14.49a9.35,9.35,0,0,1,9.34-9.34h41.09a9.35,9.35,0,0,1,9.34,9.34v3.74a9.38,9.38,0,0,1-3.75,7.46A8.43,8.43,0,0,0,168,31.93a6.23,6.23,0,0,0,2,5l-1.14,1.49,1.23-1.4c0.86,0.76,1.77,1.52,2.71,2.31,7.68,6.46,17.25,14.5,17.25,31.19V183.4A16,16,0,0,1,174.13,199.39Zm-69.26-12.17a12.23,12.23,0,0,0,11.6,8.44h57.67a12.27,12.27,0,0,0,12.26-12.25V70.52c0-14.95-8.46-22.06-15.92-28.34-1-.8-1.89-1.59-2.77-2.36l0,0,1.26-1.38-1.3,1.34a9.93,9.93,0,0,1-3.34-8,12.19,12.19,0,0,1,4.9-9.06,5.56,5.56,0,0,0,2.26-4.48V14.49a5.61,5.61,0,0,0-5.6-5.6H124.75a5.61,5.61,0,0,0-5.6,5.6v3.74a5.57,5.57,0,0,0,2.34,4.52,12.49,12.49,0,0,1,5.15,8.4,9.56,9.56,0,0,1-2.19,7.44,12.41,12.41,0,0,1-1.29,1.3c-0.87.75-1.79,1.51-2.74,2.3-7.59,6.28-16.21,13.4-16.21,28.34v50.72C118.83,140,119.1,169.83,104.86,187.22Z" transform="translate(-7.99 -4.37)"/><path class="cls-4" d="M105.74,55.74a31.68,31.68,0,0,0-3.4,14.78v51.37c15.52,19.38,14.14,49,.46,64.89a14.15,14.15,0,0,0,13.66,10.74h57.67a14.17,14.17,0,0,0,14.12-14.12V70.52a32.15,32.15,0,0,0-3.34-14.78H105.74Z" transform="translate(-7.99 -4.37)"/><rect class="cls-5" x="137.32" y="69.72" width="44.82" height="97.76"/><path class="cls-5" d="M48,130.44H13.7a55.82,55.82,0,0,0-1.92,44.82H48a7.49,7.49,0,0,0,7.47-7.47V137.91A7.49,7.49,0,0,0,48,130.44Z" transform="translate(-7.99 -4.37)"/><path class="cls-2" d="M174.13,199.39H116.46A16,16,0,0,1,101,187.23l-0.24-.94,0.63-.73c12.41-14.39,15.18-42.94-.5-62.5l-0.41-.51v-52c0-16.7,9.74-24.75,17.56-31.22,0.93-.77,1.83-1.51,2.69-2.25a7.91,7.91,0,0,0,.88-0.89,5.78,5.78,0,0,0,1.32-4.56,8.68,8.68,0,0,0-3.62-5.82,9.33,9.33,0,0,1-3.9-7.55V14.49a9.35,9.35,0,0,1,9.34-9.34h41.09a9.35,9.35,0,0,1,9.34,9.34v3.74a9.38,9.38,0,0,1-3.75,7.46A8.43,8.43,0,0,0,168,31.93a6.23,6.23,0,0,0,2,5l-1.14,1.49,1.23-1.4c0.86,0.76,1.77,1.52,2.71,2.31,7.68,6.46,17.25,14.5,17.25,31.19V183.4A16,16,0,0,1,174.13,199.39Zm-69.26-12.17a12.23,12.23,0,0,0,11.6,8.44h57.67a12.27,12.27,0,0,0,12.26-12.25V70.52c0-14.95-8.46-22.06-15.92-28.34-1-.8-1.89-1.59-2.77-2.36l0,0,1.26-1.38-1.3,1.34a9.93,9.93,0,0,1-3.34-8,12.19,12.19,0,0,1,4.9-9.06,5.56,5.56,0,0,0,2.26-4.48V14.49a5.61,5.61,0,0,0-5.6-5.6H124.75a5.61,5.61,0,0,0-5.6,5.6v3.74a5.57,5.57,0,0,0,2.34,4.52,12.49,12.49,0,0,1,5.15,8.4,9.56,9.56,0,0,1-2.19,7.44,12.41,12.41,0,0,1-1.29,1.3c-0.87.75-1.79,1.51-2.74,2.3-7.59,6.28-16.21,13.4-16.21,28.34v50.72C118.83,140,119.1,169.83,104.86,187.22Z" transform="translate(-7.99 -4.37)"/><path class="cls-3" d="M120.94,22.12H121a8.9,8.9,0,0,1-8.87-8.87h0A8.9,8.9,0,0,1,121,4.37h49a8.9,8.9,0,0,1,8.87,8.87h0A8.9,8.9,0,0,1,170,22.12h-49.1Z" transform="translate(-7.99 -4.37)"/></svg>