<svg id="Layer_1" data-name="Layer 1" xmlns="http://www.w3.org/2000/svg" viewBox="0 0 186.95 165.85"><defs><style>.cls-1{fill:#dae7ef;}.cls-2{fill:#bcd7ea;}.cls-3{fill:#394650;}.cls-4{fill:#fff;}.cls-5{fill:#accbdd;}.cls-6{fill:#e7a62e;}.cls-7{fill:#c6902b;}</style></defs><title>Dairy &amp;amp; Cheese</title><path class="cls-1" d="M72.65,112.7s-0.21,7.44,9.74,15.86C107.78,150,98.45,197.73,68.53,198H38.25C8.32,197.73-1,150,24.39,128.56c10-8.43,9.74-15.86,9.74-15.86H72.65Z" transform="translate(-7.99 -34.79)"/><path class="cls-2" d="M53.73,199.55H38.25c-12.34-.1-22.58-8.1-27.39-21.4-5.36-14.82-3.74-37,12.51-50.79,9.15-7.75,9.18-14.56,9.18-14.63l0-1.59,1.6,0H74.27l0,1.61c0,0.2.12,6.95,9.18,14.62,16.25,13.75,17.87,36,12.51,50.79-4.81,13.3-15,21.3-27.38,21.4H53.73ZM35.55,114.27c-0.47,2.82-2.38,8.91-10.15,15.49-15.09,12.78-16.59,33.48-11.58,47.31,4.41,12.19,13.32,19.23,24.44,19.32H68.53c11.11-.09,20-7.13,24.43-19.32,5-13.83,3.52-34.53-11.58-47.31-7.76-6.57-9.68-12.68-10.15-15.49H35.55Z" transform="translate(-7.99 -34.79)"/><path class="cls-3" d="M40.85,112.7H34.13a6.33,6.33,0,0,1-6.31-6.31h0a6.33,6.33,0,0,1,6.31-6.31H72a6.33,6.33,0,0,1,6.31,6.31h0A6.33,6.33,0,0,1,72,112.7H40.85Z" transform="translate(-7.99 -34.79)"/><path class="cls-1" d="M143.85,63.53l-0.09-.09c-3.62-3.27-2.64-9,1.26-11.92a6.3,6.3,0,0,0,2.53-5V43.33A6.33,6.33,0,0,0,141.24,37H106.56a6.33,6.33,0,0,0-6.31,6.31v3.15a6.26,6.26,0,0,0,2.63,5.1c3.65,2.62,5.12,7.65,2.21,11.07a8.68,8.68,0,0,1-.91.92c-6.65,5.72-16.55,12.06-16.55,27.06V134c13.1,16.35,11.94,41.38.38,54.78a11.94,11.94,0,0,0,11.53,9.07h48.68a12,12,0,0,0,11.92-11.92V90.63C160.16,75.58,150.39,69.26,143.85,63.53Z" transform="translate(-7.99 -34.79)"/><path class="cls-2" d="M148.24,199.41H99.56a13.48,13.48,0,0,1-13.07-10.26l-0.2-.79,0.53-.62C97.3,175.59,99.64,151.49,86.4,135l-0.34-.43V90.63c0-14.1,8.22-20.89,14.83-26.36,0.78-.65,1.54-1.27,2.27-1.9a6.68,6.68,0,0,0,.74-0.75A4.88,4.88,0,0,0,105,57.77,7.33,7.33,0,0,0,102,52.85a7.87,7.87,0,0,1-3.29-6.38V43.33a7.89,7.89,0,0,1,7.88-7.88h34.69a7.89,7.89,0,0,1,7.88,7.88v3.15a7.92,7.92,0,0,1-3.16,6.3,7.12,7.12,0,0,0-2.88,5.27,5.26,5.26,0,0,0,1.72,4.22l-1,1.26,1-1.19c0.73,0.64,1.5,1.29,2.29,2,6.49,5.45,14.56,12.24,14.56,26.33v95.29A13.51,13.51,0,0,1,148.24,199.41ZM89.77,189.14a10.32,10.32,0,0,0,9.79,7.12h48.68a10.36,10.36,0,0,0,10.35-10.34V90.63c0-12.62-7.14-18.62-13.44-23.92-0.81-.68-1.6-1.34-2.34-2l0,0,1.06-1.17-1.1,1.13a8.39,8.39,0,0,1-2.82-6.75,10.29,10.29,0,0,1,4.13-7.65,4.7,4.7,0,0,0,1.9-3.78V43.32a4.74,4.74,0,0,0-4.73-4.73H106.55a4.74,4.74,0,0,0-4.73,4.73v3.15a4.71,4.71,0,0,0,2,3.82,10.55,10.55,0,0,1,4.35,7.09,8.07,8.07,0,0,1-1.85,6.28,10.47,10.47,0,0,1-1.09,1.09c-0.74.63-1.51,1.28-2.31,1.94C96.48,72,89.21,78,89.21,90.62v42.82C101.56,149.31,101.78,174.46,89.77,189.14Z" transform="translate(-7.99 -34.79)"/><path class="cls-4" d="M90.51,78.14a26.75,26.75,0,0,0-2.87,12.48V134c13.1,16.36,11.94,41.38.38,54.78a11.94,11.94,0,0,0,11.53,9.07h48.68a12,12,0,0,0,11.92-11.92V90.63a27.14,27.14,0,0,0-2.82-12.48H90.51Z" transform="translate(-7.99 -34.79)"/><rect class="cls-5" x="115.92" y="58.86" width="37.84" height="82.53"/><path class="cls-5" d="M41.79,141.21h-29a47.12,47.12,0,0,0-1.62,37.84H41.79a6.33,6.33,0,0,0,6.31-6.31V147.52A6.33,6.33,0,0,0,41.79,141.21Z" transform="translate(-7.99 -34.79)"/><path class="cls-2" d="M148.24,199.41H99.56a13.48,13.48,0,0,1-13.07-10.26l-0.2-.79,0.53-.62C97.3,175.59,99.64,151.49,86.4,135l-0.34-.43V90.63c0-14.1,8.22-20.89,14.83-26.36,0.78-.65,1.54-1.27,2.27-1.9a6.68,6.68,0,0,0,.74-0.75A4.88,4.88,0,0,0,105,57.77,7.33,7.33,0,0,0,102,52.85a7.87,7.87,0,0,1-3.29-6.38V43.33a7.89,7.89,0,0,1,7.88-7.88h34.69a7.89,7.89,0,0,1,7.88,7.88v3.15a7.92,7.92,0,0,1-3.16,6.3,7.12,7.12,0,0,0-2.88,5.27,5.26,5.26,0,0,0,1.72,4.22l-1,1.26,1-1.19c0.73,0.64,1.5,1.29,2.29,2,6.49,5.45,14.56,12.24,14.56,26.33v95.29A13.51,13.51,0,0,1,148.24,199.41ZM89.77,189.14a10.32,10.32,0,0,0,9.79,7.12h48.68a10.36,10.36,0,0,0,10.35-10.34V90.63c0-12.62-7.14-18.62-13.44-23.92-0.81-.68-1.6-1.34-2.34-2l0,0,1.06-1.17-1.1,1.13a8.39,8.39,0,0,1-2.82-6.75,10.29,10.29,0,0,1,4.13-7.65,4.7,4.7,0,0,0,1.9-3.78V43.32a4.74,4.74,0,0,0-4.73-4.73H106.55a4.74,4.74,0,0,0-4.73,4.73v3.15a4.71,4.71,0,0,0,2,3.82,10.55,10.55,0,0,1,4.35,7.09,8.07,8.07,0,0,1-1.85,6.28,10.47,10.47,0,0,1-1.09,1.09c-0.74.63-1.51,1.28-2.31,1.94C96.48,72,89.21,78,89.21,90.62v42.82C101.56,149.31,101.78,174.46,89.77,189.14Z" transform="translate(-7.99 -34.79)"/><path class="cls-3" d="M103.34,49.76h0.06a7.51,7.51,0,0,1-7.49-7.49h0a7.51,7.51,0,0,1,7.49-7.49h41.39a7.51,7.51,0,0,1,7.49,7.49h0a7.51,7.51,0,0,1-7.49,7.49H103.34Z" transform="translate(-7.99 -34.79)"/><path class="cls-6" d="M191.34,169.86l-25.83-.11a4.37,4.37,0,0,1,1.09,3.65,5.9,5.9,0,1,1-11.09-3.7l-47.27-.2a5.66,5.66,0,0,0-1.57,3.23L105.44,180a0.6,0.6,0,0,0,.72.82,3.58,3.58,0,0,1,.51,0,4,4,0,0,1-1.34,7.86l-0.44-.1a0.78,0.78,0,0,0-1,.58l-1.71,10a1.09,1.09,0,0,0,1.17,1.32l85.6,0.13a1,1,0,0,0,1.12-1c0.07-.39,3.61-20,4.79-27a8.48,8.48,0,0,0-.11-2.83h-3.41Z" transform="translate(-7.99 -34.79)"/><path class="cls-7" d="M155.51,169.71c0.89-1.74,2.64-2.27,5.2-2.16a6.82,6.82,0,0,1,4.8,2.2l25.83,0.11,3.42,0a7.1,7.1,0,0,0-1-2.35,59,59,0,0,0-39.1-25.24,3.33,3.33,0,0,0-2.17.3l-24.65,14.61a1.83,1.83,0,0,0-.67.59c1.41,0.89,2.26,2.12,2.05,3.33s-1.44,2.16-3.13,2.51a8.61,8.61,0,0,1-3.2,0,8.82,8.82,0,0,1-2.65-.88,1.44,1.44,0,0,0-1.78,0c-0.68.4-7.57,4.25-8.63,5.12a12.11,12.11,0,0,0-1.61,1.57ZM151,153.3c3,0.51,5.11,2.64,4.75,4.77s-3.08,3.44-6.06,2.93-5.11-2.64-4.75-4.77S148,152.79,151,153.3Z" transform="translate(-7.99 -34.79)"/></svg>