<?xml version="1.0" encoding="utf-8"?>
<!-- Generator: Adobe Illustrator 19.2.0, SVG Export Plug-In . SVG Version: 6.00 Build 0)  -->
<svg version="1.1" id="Layer_1" xmlns="http://www.w3.org/2000/svg" xmlns:xlink="http://www.w3.org/1999/xlink" x="0px" y="0px"
	 viewBox="0 0 200 200" style="enable-background:new 0 0 200 200;" xml:space="preserve">
<style type="text/css">
	.st0{fill:#916E42;}
	.st1{fill:#BC9A5E;}
	.st2{fill:#DDC98B;}
	.st3{fill:#AD8B70;}
	.st4{fill:#9B735B;}
	.st5{fill:#FFDC64;}
	.st6{fill:#FFC853;}
	.st7{fill:#E4AE3F;}
	.st8{fill:#324E56;}
	.st9{fill:#3DB54A;}
	.st10{fill:#8DC641;}
	.st11{fill:#010101;}
	.st12{fill:#FFCD6D;}
	.st13{fill:#C07340;}
	.st14{fill:#F09F3E;}
</style>
<g>
	<path class="st0" d="M70.4,153.3c0,1.5-1.2,2.8-2.7,2.8H39.3c-1.5,0-2.7-1.2-2.7-2.8c0-1.5,1.2-2.8,2.7-2.8h28.3
		C69.2,150.6,70.4,151.8,70.4,153.3z"/>
	<g>
		<path class="st1" d="M193.8,174c0,1.5-1.2,2.8-2.7,2.8h-34.6c-1.5,0-2.7-1.2-2.7-2.8c0-1.5,1.2-2.8,2.7-2.8H191
			C192.5,171.2,193.8,172.5,193.8,174z"/>
		<path class="st1" d="M161.6,156.1H50.6c0-7.4,2.1-14.9,6.3-20.5l34.1-46c8.4-11.3,22-11.3,30.4,0l34.1,46
			C159.6,141.2,161.6,148.6,161.6,156.1L161.6,156.1z"/>
	</g>
	<path class="st2" d="M177.9,176.7H73.6c0-7,2-14,5.9-19.3l32-43.2c7.8-10.6,20.7-10.6,28.5,0l32,43.2
		C175.9,162.8,177.9,169.7,177.9,176.7L177.9,176.7z"/>
	<path class="st1" d="M122.1,136.8c0,1.5-1.2,2.8-2.7,2.8h-0.5c-1.5,0-2.7-1.2-2.7-2.8s1.2-2.8,2.7-2.8h0.5
		C120.9,134,122.1,135.2,122.1,136.8z M132.6,134h-0.5c-1.5,0-2.7,1.2-2.7,2.8c0,1.5,1.2,2.8,2.7,2.8h0.5c1.5,0,2.7-1.2,2.7-2.8
		C135.4,135.2,134.1,134,132.6,134z M126,117.5h-0.5c-1.5,0-2.7,1.2-2.7,2.8s1.2,2.8,2.7,2.8h0.5c1.5,0,2.7-1.2,2.7-2.8
		C128.7,118.8,127.5,117.5,126,117.5z"/>
	<path class="st0" d="M97.7,110.5c0,1.5-1.2,2.8-2.7,2.8h-0.5c-1.5,0-2.7-1.2-2.7-2.8c0-1.5,1.2-2.8,2.7-2.8H95
		C96.5,107.7,97.7,108.9,97.7,110.5z M106.8,91.2h-0.5c-1.5,0-2.7,1.2-2.7,2.8s1.2,2.8,2.7,2.8h0.5c1.5,0,2.7-1.2,2.7-2.8
		S108.3,91.2,106.8,91.2z"/>
</g>
<g>
	<path class="st3" d="M66.9,45.1c-4.4,0-4.4-2.2-8.7-2.2c-4.4,0-4.4,2.2-8.7,2.2c-3,0-3.9-1-5.6-1.7c-1.5-0.6-3.1,0.6-3,2.2
		c0.4,4.8,2.1,14.8,8.6,21.3h17.5c6.4-6.4,8.1-16.5,8.6-21.3c0.1-1.6-1.5-2.8-3-2.2C70.8,44.1,69.9,45.1,66.9,45.1z"/>
	<path class="st4" d="M65,51.6c-1.2-0.1-2.3,0.7-2.4,1.9c0,0,0,0,0,0c-0.2,1.8-1.7,3.1-3.5,3.1h-1.8c-1.8,0-3.3-1.3-3.5-3.1
		c0,0,0,0,0,0c-0.1-1.2-1.2-2.1-2.4-1.9c-1.2,0.1-2,1.2-1.9,2.4c0.7,5.4,1.7,9.9,2.9,13.6c0.2,0.7,0.8,1.2,1.4,1.4v0.1h8.7V69
		c0.6-0.2,1.2-0.7,1.4-1.4c1.3-3.6,2.3-8.2,2.9-13.6C67,52.9,66.2,51.8,65,51.6z"/>
	<path class="st3" d="M108.4,167.9v-45.2c0-27.2-21.2-50.5-48.4-51.4c-28.6-1-52.1,21.9-52.1,50.2v46.4c0,1.1-0.3,2.3-1.1,3.2
		c-0.8,0.8-1.2,2-1.1,3.2c0.2,2.3,2.3,4,4.6,4h95.6c2.3,0,4.4-1.7,4.6-4c0.1-1.3-0.3-2.4-1.1-3.2C108.7,170.2,108.4,169,108.4,167.9
		z"/>
	<path class="st4" d="M94.2,165.2H35.7c-2.4,0-4.4-2-4.4-4.4v-39.3c0-10.5,2.3-20.2,6.2-28.2c4.9-10.2,15.8-15.6,27.2-15.5
		c3.3,0,6.2-1.8,7.7-4.5c-3.9-1.2-8-1.9-12.3-2c-28.6-1-52.1,21.9-52.1,50.2l0,46.4c0,1.1-0.3,2.3-1.1,3.2c-0.8,0.8-1.2,2-1.1,3.2
		c0.2,2.3,2.3,4,4.6,4H33c-1.8,0-3.3-1.5-3.3-3.3l0,0c0-1.8,1.5-3.3,3.3-3.3h61.2c1.8,0,3.3-1.5,3.3-3.3l0,0
		C97.5,166.7,96,165.2,94.2,165.2z"/>
	<path class="st5" d="M64.7,73.5H51.6c-2.4,0-4.4-2-4.4-4.4l0,0c0-2.4,2-4.4,4.4-4.4h13.1c2.4,0,4.4,2,4.4,4.4l0,0
		C69.1,71.5,67.1,73.5,64.7,73.5z"/>
	<g>
		<path class="st6" d="M56,69.1c0-2.4,2-4.4,4.4-4.4h-8.7c-2.4,0-4.4,2-4.4,4.4c0,2.4,2,4.4,4.4,4.4h8.7C57.9,73.5,56,71.5,56,69.1z
			"/>
		<path class="st6" d="M73.4,112.8c0,8.4-6.8,15.3-15.3,15.3C58.1,119.6,65,112.8,73.4,112.8z"/>
		<path class="st6" d="M42.8,112.8c0,8.4,6.8,15.3,15.3,15.3C58.1,119.6,51.3,112.8,42.8,112.8z"/>
	</g>
	<path class="st5" d="M73.4,106.2c-1.2,0-2.2,1-2.2,2.2v4.4c0,7.2-5.9,13.1-13.1,13.1S45,120,45,112.8v-4.4c0-1.2-1-2.2-2.2-2.2
		c-1.2,0-2.2,1-2.2,2.2v4.4c0,9.6,7.8,17.5,17.5,17.5s17.5-7.8,17.5-17.5v-4.4C75.6,107.2,74.6,106.2,73.4,106.2z"/>
	<g>
		<path class="st6" d="M73.4,132.5c0,8.4-6.8,15.3-15.3,15.3C58.1,139.3,65,132.5,73.4,132.5z"/>
		<path class="st6" d="M42.8,132.5c0,8.4,6.8,15.3,15.3,15.3C58.1,139.3,51.3,132.5,42.8,132.5z"/>
	</g>
	<path class="st5" d="M73.4,125.9c-1.2,0-2.2,1-2.2,2.2v4.4c0,7.2-5.9,13.1-13.1,13.1S45,139.7,45,132.5v-4.4c0-1.2-1-2.2-2.2-2.2
		c-1.2,0-2.2,1-2.2,2.2v4.4c0,9.6,7.8,17.5,17.5,17.5s17.5-7.8,17.5-17.5v-4.4C75.6,126.9,74.6,125.9,73.4,125.9z"/>
	<path class="st6" d="M58.1,158.7c-1.2,0-2.2-1-2.2-2.2v-45.9c0-1.2,1-2.2,2.2-2.2c1.2,0,2.2,1,2.2,2.2v45.9
		C60.3,157.7,59.3,158.7,58.1,158.7z"/>
	<path class="st5" d="M57.3,89.7c-5.3,6.4-5.3,15.8,0,22.2c0.4,0.5,1.2,0.5,1.7,0c5.3-6.4,5.3-15.8,0-22.2
		C58.5,89.2,57.7,89.2,57.3,89.7z"/>
</g>
<g>
	<g>
		<path class="st7" d="M64.5,162.3c0-0.3-0.4-0.6-0.8-0.9c-0.5-0.4-1-1-1.3-1.7c-0.3-0.8-0.3-1.6-0.3-2.3c0-0.6,0-1.2-0.2-1.5
			c-4.3-6.1-12.7-6.7-25-1.9c-11.3,4.5-18.2,14.2-15.2,21.7c2.9,7.5,14.6,9.9,25.9,5.5C60.2,176.3,65.9,169.9,64.5,162.3z
			 M59.3,161.9c-0.2-0.1-0.4-0.2-0.6-0.3c-7.7-3.3-12,1.1-16.6,5.7c-4.4,4.5-8.9,9.1-16.4,6.7c0,0-0.1,0-0.1,0
			c-0.4-0.2-0.6-0.6-0.5-1.1c0.1-0.5,0.6-0.7,1.1-0.6c6.5,2,10.5-2,14.7-6.3c4.7-4.8,10-10.2,19.2-5.8c0.4,0.2,0.6,0.7,0.4,1.2
			C60.3,161.9,59.7,162.1,59.3,161.9z"/>
	</g>
	<g>
		<path class="st8" d="M66.2,162c-0.1-0.8-0.8-1.4-1.3-1.9c-0.4-0.3-0.7-0.7-0.9-1c-0.2-0.5-0.2-1-0.2-1.6c0-0.8,0-1.8-0.5-2.5
			c-4.8-6.8-13.9-7.7-27.1-2.5C24,157.2,16.7,168,20,176.4c1.3,3.2,3.8,5.6,7.3,7.1c5.6,2.4,13.3,2.4,20.9-0.6
			C61.7,177.5,67.8,170.5,66.2,162z M47.6,181.2c-11.3,4.5-23,2-25.9-5.5c-2.9-7.5,3.9-17.2,15.2-21.7c12.3-4.8,20.7-4.2,25,1.9
			c0.2,0.3,0.2,0.9,0.2,1.5c0,0.7,0,1.5,0.3,2.3c0.3,0.7,0.8,1.2,1.3,1.7c0.4,0.3,0.7,0.7,0.8,0.9C65.9,169.9,60.2,176.3,47.6,181.2
			z"/>
		<path class="st8" d="M60.1,160.3c-9.2-4.4-14.5,1-19.2,5.8c-4.2,4.3-8.2,8.3-14.7,6.3c-0.5-0.1-1,0.1-1.1,0.6
			c-0.1,0.4,0.1,0.9,0.5,1.1c0,0,0.1,0,0.1,0c7.5,2.3,12.1-2.3,16.4-6.7c4.6-4.7,8.9-9.1,16.6-5.7c0.2,0.1,0.4,0.2,0.6,0.3
			c0.4,0.2,1,0,1.2-0.4C60.7,161,60.5,160.5,60.1,160.3z"/>
	</g>
</g>
<g>
	<g>
		<path class="st7" d="M79.1,154.8c0.1-0.1,0-0.5,0-0.8c-0.1-0.4-0.2-0.9,0-1.4c0.1-0.5,0.4-0.9,0.7-1.3c0.2-0.3,0.5-0.6,0.5-0.9
			c0.1-4.8-4-8.4-12.2-10.6c-7.6-2.1-14.9,0.3-16.2,5.3c-1.4,5,3.7,10.8,11.3,12.8C71.5,160.4,76.9,159.3,79.1,154.8z M76.6,152.6
			c-0.1-0.1-0.1-0.3-0.2-0.4c-2.7-4.7-6.6-4.1-10.8-3.5c-4,0.6-8.1,1.2-11.1-2.9c0,0,0,0,0-0.1c-0.1-0.2-0.1-0.6,0.2-0.7
			c0.3-0.2,0.6-0.1,0.8,0.1c2.6,3.5,6.2,3,10,2.4c4.3-0.7,9.1-1.4,12.2,4.4c0.1,0.3,0,0.6-0.2,0.8C77.1,153,76.7,152.9,76.6,152.6z"
			/>
	</g>
	<g>
		<path class="st8" d="M80.1,155.3c0.2-0.5,0.1-1,0.1-1.5c-0.1-0.3-0.1-0.6-0.1-0.9c0.1-0.3,0.3-0.6,0.5-0.9
			c0.3-0.4,0.7-0.9,0.7-1.5c0.1-5.4-4.2-9.3-13.1-11.7c-8.2-2.2-16.1,0.5-17.6,6.1c-0.6,2.1-0.2,4.4,1,6.5c2,3.4,6,6.4,11.1,7.8
			C71.8,161.6,77.6,160.3,80.1,155.3z M63,158.1c-7.6-2.1-12.7-7.8-11.3-12.8c1.4-5,8.7-7.4,16.2-5.3c8.2,2.2,12.3,5.8,12.2,10.6
			c0,0.2-0.2,0.5-0.5,0.9c-0.3,0.4-0.6,0.8-0.7,1.3c-0.1,0.5,0,1,0,1.4c0.1,0.3,0.1,0.6,0,0.8C76.9,159.3,71.5,160.4,63,158.1z"/>
		<path class="st8" d="M77.6,152.1c-3.1-5.8-7.9-5.1-12.2-4.4c-3.8,0.6-7.4,1.1-10-2.4c-0.2-0.3-0.5-0.3-0.8-0.1
			c-0.2,0.2-0.3,0.5-0.2,0.7c0,0,0,0,0,0.1c3,4.1,7.1,3.5,11.1,2.9c4.2-0.6,8.1-1.2,10.8,3.5c0.1,0.1,0.1,0.2,0.2,0.4
			c0.1,0.3,0.5,0.4,0.8,0.2C77.6,152.7,77.7,152.3,77.6,152.1z"/>
	</g>
</g>
<g>
	<g>
		<path class="st7" d="M80.5,170.4c-0.1-0.2-0.4-0.4-0.7-0.6c-0.4-0.3-0.9-0.6-1.2-1.1c-0.3-0.5-0.4-1.1-0.5-1.7
			c-0.1-0.5-0.1-0.9-0.3-1.1c-4-4.1-10.4-3.6-19.1,1.6c-8,4.7-12.1,12.9-8.9,18.2c3.1,5.3,12.2,5.8,20.3,1
			C78.9,181.5,82.5,176,80.5,170.4z M76.5,170.7c-0.2,0-0.3-0.1-0.5-0.1c-6.2-1.6-9,2.2-11.9,6.3c-2.8,3.9-5.7,7.9-11.6,7.1
			c0,0,0,0-0.1,0c-0.3-0.1-0.5-0.4-0.5-0.8c0.1-0.4,0.4-0.6,0.8-0.6c5.2,0.7,7.7-2.8,10.3-6.5c3-4.2,6.4-8.9,13.9-6.7
			c0.4,0.1,0.6,0.5,0.5,0.8C77.3,170.6,76.9,170.9,76.5,170.7z"/>
	</g>
	<g>
		<path class="st8" d="M81.8,170c-0.2-0.6-0.8-1-1.2-1.3c-0.3-0.2-0.6-0.4-0.8-0.7c-0.2-0.3-0.3-0.8-0.3-1.2
			c-0.1-0.6-0.2-1.3-0.7-1.8c-4.5-4.6-11.5-4.1-20.8,1.4c-8.7,5.1-12.9,14.1-9.4,20.1c1.3,2.3,3.6,3.8,6.3,4.5
			c4.5,1.2,10.4,0.2,15.8-2.9C80.2,182.3,84,176.3,81.8,170z M70,186.8c-8,4.7-17.1,4.3-20.3-1c-3.1-5.3,0.9-13.5,8.9-18.2
			c8.7-5.1,15.2-5.7,19.1-1.6c0.2,0.2,0.3,0.6,0.3,1.1c0.1,0.5,0.2,1.1,0.5,1.7c0.3,0.5,0.8,0.8,1.2,1.1c0.3,0.2,0.6,0.4,0.7,0.6
			C82.5,176,78.9,181.5,70,186.8z"/>
		<path class="st8" d="M76.9,169.4c-7.5-2.2-10.9,2.5-13.9,6.7c-2.7,3.7-5.2,7.3-10.3,6.5c-0.4-0.1-0.7,0.2-0.8,0.6
			c0,0.3,0.2,0.7,0.5,0.8c0,0,0,0,0.1,0c6,0.9,8.9-3.2,11.6-7.1c2.9-4.1,5.7-7.9,11.9-6.3c0.2,0,0.3,0.1,0.5,0.1
			c0.4,0.1,0.7-0.1,0.8-0.5C77.5,169.9,77.3,169.5,76.9,169.4z"/>
	</g>
</g>
<g>
	<path class="st9" d="M152.6,141.7c-2.6,0.9-4.9,2.2-6.9,3.8c-3,2.4-6.8,3.7-10.7,3.7c-2.5,0-5.1,0.4-7.7,1.3
		c-2.6,0.9-4.9,2.2-6.9,3.8c-3,2.4-6.8,3.7-10.7,3.7c-2.5,0-5.1,0.4-7.7,1.3c-4.5,1.5-7.3,4.5-10,7.3c-1.9,1.9-5.1,3.3-5.1,3.3
		s2,5.8,2.6,7.7c2.4,6.9,11.8,10,21.1,6.8c2.6-0.9,4.9-2.2,6.9-3.8c3-2.4,6.8-3.7,10.7-3.7c2.5,0,5.1-0.4,7.7-1.3
		c2.6-0.9,4.9-2.2,6.9-3.8c3-2.4,6.8-3.7,10.7-3.7c2.5,0,5.1-0.4,7.7-1.3c5-1.7,11.4-7.3,14.8-12.2c5.1-7.5,4.7-15.4,4.7-15.4
		s-4,3.7-11.8,2.5C162.9,140.8,156.6,140.3,152.6,141.7z"/>
	<g>
		<ellipse transform="matrix(0.9457 -0.325 0.325 0.9457 -45.8172 51.6046)" class="st10" cx="131.6" cy="163" rx="9.9" ry="7.1"/>
		
			<ellipse transform="matrix(0.9457 -0.325 0.325 0.9457 -50.0171 43.8506)" class="st10" cx="106.3" cy="171.7" rx="9.9" ry="7.1"/>
		
			<ellipse transform="matrix(0.9457 -0.325 0.325 0.9457 -41.6167 59.3579)" class="st10" cx="156.9" cy="154.3" rx="9.9" ry="7.1"/>
	</g>
	<path class="st11" d="M94.6,185.2c-3.3-1.6-5.6-4.1-6.7-7.3c-0.7-1.9-2.6-7.7-2.6-7.8c-0.3-0.8,0.1-1.7,0.9-2c0,0,2.9-1.3,4.6-3
		c0.2-0.2,0.3-0.3,0.5-0.5c2.7-2.7,5.6-5.6,10.1-7.1c2.7-0.9,5.5-1.4,8.3-1.3c3.5,0.1,7-1.1,9.7-3.3c2.1-1.7,4.6-3.1,7.4-4
		c2.7-0.9,5.5-1.4,8.3-1.3c3.5,0.1,7-1.1,9.7-3.3c2.1-1.7,4.6-3.1,7.4-4c3.7-1.3,9.4-1.3,17.1-0.1c7,1.1,10.4-2,10.4-2.1
		c0.5-0.4,1.1-0.6,1.7-0.3c0.6,0.2,1,0.8,1,1.4c0,0.3,0.4,8.5-5,16.4c-3.8,5.6-10.5,11.1-15.6,12.8c-2.7,0.9-5.5,1.4-8.3,1.3
		c-3.5-0.1-7,1.1-9.7,3.3c-2.1,1.7-4.6,3.1-7.4,4c-2.7,0.9-5.5,1.4-8.3,1.3c-3.5-0.1-7,1.1-9.7,3.3c-2.1,1.7-4.6,3.1-7.4,4
		c-4.8,1.7-9.8,1.8-14.2,0.4C96.1,185.9,95.4,185.6,94.6,185.2z M88.8,170.5c0.6,1.8,1.7,5.1,2.2,6.4c1,2.9,3.4,5.1,6.9,6.2
		c3.7,1.2,8,1,12.1-0.4c2.4-0.8,4.5-2,6.4-3.5c3.3-2.7,7.5-4.1,11.8-4c2.4,0,4.8-0.4,7.2-1.2c2.4-0.8,4.5-2,6.4-3.5
		c3.3-2.7,7.5-4.1,11.8-4c2.4,0,4.8-0.4,7.2-1.2c4.4-1.5,10.6-6.7,14-11.6c2.9-4.3,3.9-8.7,4.3-11.5c-2.2,1-5.6,1.9-10.3,1.1
		c-7-1.1-12.4-1.1-15.5,0c-2.4,0.8-4.5,2-6.4,3.5c-3.3,2.7-7.5,4.1-11.8,4c-2.4,0-4.8,0.4-7.2,1.2c-2.4,0.8-4.5,2-6.4,3.5
		c-3.3,2.7-7.5,4.1-11.8,4c-2.4,0-4.8,0.4-7.2,1.2c-3.9,1.3-6.3,3.8-8.9,6.4c-0.2,0.2-0.3,0.3-0.5,0.5
		C91.7,168.8,90,169.9,88.8,170.5z"/>
	<path class="st11" d="M124.6,170.9c-1.9-0.9-3.3-2.4-3.9-4.3c-0.8-2.3-0.3-4.8,1.3-7.2c1.5-2.2,3.9-3.9,6.7-4.8s5.7-1.1,8.3-0.3
		c2.7,0.8,4.6,2.5,5.4,4.8l0,0c0.8,2.3,0.3,4.8-1.3,7.2c-1.5,2.2-3.9,3.9-6.7,4.8c-2.8,1-5.7,1.1-8.3,0.3
		C125.6,171.4,125.1,171.2,124.6,170.9z M137.1,157.9c-1.9-0.9-4.6-1.1-7.3-0.1c-2.2,0.7-4,2-5.1,3.6c-1,1.4-1.3,3-0.9,4.3
		c0.4,1.3,1.6,2.3,3.3,2.8c1.9,0.6,4.1,0.5,6.3-0.3c4.2-1.5,7-5.1,6-7.9C139,159.2,138.2,158.4,137.1,157.9z"/>
	<path class="st11" d="M99.3,179.6c-1.9-0.9-3.3-2.4-3.9-4.3c-0.8-2.3-0.3-4.8,1.3-7.2c1.5-2.2,3.9-3.9,6.7-4.8
		c2.8-1,5.7-1.1,8.3-0.3c2.7,0.8,4.6,2.5,5.4,4.8c0.8,2.3,0.3,4.8-1.3,7.2c-1.5,2.2-3.9,3.9-6.7,4.8c-2.8,1-5.7,1.1-8.3,0.3
		C100.3,180.1,99.8,179.9,99.3,179.6z M111.8,166.6c-0.3-0.2-0.7-0.3-1-0.4c-1.9-0.6-4.1-0.5-6.3,0.3c-4.2,1.5-7,5.1-6,7.9
		c1,2.8,5.4,4,9.6,2.5c2.2-0.7,4-2,5.1-3.6c1-1.4,1.3-3,0.9-4.3C113.7,167.9,112.9,167.1,111.8,166.6z"/>
	<path class="st11" d="M150,162.2c-1.9-0.9-3.3-2.4-3.9-4.3c-0.8-2.3-0.3-4.8,1.3-7.2c1.5-2.2,3.9-3.9,6.7-4.8
		c2.8-1,5.7-1.1,8.3-0.3c2.7,0.8,4.6,2.5,5.4,4.8l0,0l0,0c0.8,2.3,0.3,4.8-1.3,7.2c-1.5,2.2-3.9,3.9-6.7,4.8c-2.8,1-5.7,1.1-8.3,0.3
		C150.9,162.7,150.4,162.5,150,162.2z M162.4,149.2c-0.3-0.2-0.7-0.3-1-0.4c-1.9-0.6-4.1-0.5-6.3,0.3c-4.2,1.5-7,5.1-6,7.9
		c1,2.8,5.4,4,9.6,2.5c2.2-0.7,4-2,5.1-3.6c1-1.4,1.3-3,0.9-4.3l0,0C164.3,150.6,163.5,149.7,162.4,149.2z"/>
	<path class="st11" d="M101.3,175.8C101.3,175.8,101.2,175.8,101.3,175.8c-0.8-0.4-1.2-1.4-0.8-2.2c0.4-0.8,1.4-1.1,2.2-0.7
		c0,0,0,0,0,0c0.5,0.3,1.7,0.3,3.2,0c0.9-0.2,1.7,0.3,2,1.2c0.2,0.9-0.3,1.7-1.2,2C104.6,176.6,102.6,176.5,101.3,175.8z"/>
	<path class="st11" d="M109.3,174.1c-0.2-0.1-0.4-0.3-0.6-0.4c-0.6-0.7-0.4-1.7,0.3-2.3c0.1-0.1,0.2-0.2,0.4-0.3
		c0.6-0.6,1.7-0.6,2.3,0c0.6,0.6,0.6,1.7,0,2.3c-0.2,0.2-0.4,0.3-0.6,0.5C110.5,174.3,109.9,174.4,109.3,174.1z"/>
</g>
<g>
	<g>
		<circle class="st12" cx="164.2" cy="141.5" r="4.6"/>
		<circle class="st12" cx="102.7" cy="185.9" r="4.6"/>
		<circle class="st12" cx="141.2" cy="178.3" r="4.6"/>
		<circle class="st12" cx="109.5" cy="163.2" r="4.6"/>
		<circle class="st12" cx="164.9" cy="155.5" r="4.6"/>
		<circle class="st12" cx="164.9" cy="172" r="4.6"/>
		<circle class="st12" cx="138" cy="190.5" r="4.6"/>
	</g>
	<g>
		<path class="st13" d="M184.4,149.4L184.4,149.4c0,1.6-1.3,2.8-2.8,2.8l0,0c-2.4,0-4.7-0.9-6.3-2.6l-1.3-1.3
			c-1.7-1.7-2.6-4-2.6-6.3v-2.8h2.8c2.4,0,4.7,0.9,6.3,2.6l1.3,1.3C183.4,144.8,184.4,147.1,184.4,149.4z"/>
		<path class="st13" d="M146.9,152.6L146.9,152.6c-0.8,0-1.5-0.7-1.5-1.5l0,0c0-1.3,0.5-2.5,1.4-3.4l0.7-0.7
			c0.9-0.9,2.1-1.4,3.4-1.4h1.5v1.5c0,1.3-0.5,2.5-1.4,3.4l-0.7,0.7C149.4,152.1,148.2,152.6,146.9,152.6z"/>
		<path class="st13" d="M135,173.1L135,173.1c-1.3,0-2.3-1-2.3-2.3l0,0c0-1.9,0.8-3.8,2.1-5.2l1-1c1.4-1.4,3.2-2.1,5.2-2.1h2.3v2.3
			c0,1.9-0.8,3.8-2.1,5.2l-1,1C138.8,172.4,137,173.1,135,173.1z"/>
		<path class="st13" d="M119.5,162.7L119.5,162.7c-0.9,0.9-2.5,0.9-3.4,0l0,0c-1.4-1.4-2.2-3.4-2.2-5.4v-1.5c0-2,0.8-4,2.2-5.4
			l1.7-1.7l1.7,1.7c1.4,1.4,2.2,3.4,2.2,5.4v1.5C121.8,159.4,120.9,161.3,119.5,162.7z"/>
		<path class="st13" d="M118.8,182.3L118.8,182.3c0,1.6-1.3,2.8-2.8,2.8c0,0,0,0,0,0l0,0c-2.4,0-4.7-0.9-6.3-2.6l-1.3-1.3
			c-1.7-1.7-2.6-4-2.6-6.3v-2.8h2.8c2.4,0,4.7,0.9,6.3,2.6l1.3,1.3C117.8,177.7,118.8,180,118.8,182.3z"/>
	</g>
	<g>
		<path class="st14" d="M91.1,193.1L91.1,193.1c-2.7,0-4.9-1.9-5.4-4.6l0,0c-0.5-3.1-0.5-6.3,0-9.4l0,0c0.4-2.6,2.7-4.6,5.4-4.6l0,0
			c2.3,0,4.1,1.9,4.1,4.2c0,0.8-0.2,1.6-0.7,2.3l-0.1,0.1c-1.1,1.6-1.1,3.7,0,5.3l0.1,0.1c1.3,1.9,0.8,4.5-1.1,5.7
			C92.6,192.8,91.9,193.1,91.1,193.1z"/>
		<path class="st14" d="M119.4,192.7L119.4,192.7c-1.9-1.9-2.1-4.9-0.6-7l0,0c1.8-2.6,4.1-4.8,6.6-6.6l0,0c2.2-1.5,5.1-1.3,7,0.6
			l0,0c1.6,1.6,1.6,4.2,0,5.8c-0.6,0.6-1.3,0.9-2.1,1.1l-0.2,0c-1.9,0.4-3.4,1.9-3.8,3.8l0,0.2c-0.4,2.2-2.6,3.7-4.9,3.2
			C120.7,193.6,120,193.2,119.4,192.7z"/>
		<path class="st14" d="M177,173.6L177,173.6c-2.7,0-4.9-1.9-5.4-4.6l0,0c-0.5-3.1-0.5-6.3,0-9.4l0,0c0.4-2.6,2.7-4.6,5.4-4.6l0,0
			c2.3,0,4.1,1.9,4.1,4.2c0,0.8-0.2,1.6-0.7,2.3l-0.1,0.1c-1.1,1.6-1.1,3.7,0,5.3l0.1,0.1c1.3,1.9,0.8,4.5-1.1,5.7
			C178.6,173.4,177.8,173.6,177,173.6z"/>
		<path class="st14" d="M149.5,175.2L149.5,175.2c1.9-1.9,4.9-2.1,7-0.6l0,0c2.6,1.8,4.8,4.1,6.6,6.6l0,0c1.5,2.2,1.3,5.1-0.6,7l0,0
			c-1.6,1.6-4.2,1.6-5.8,0c-0.6-0.6-0.9-1.3-1.1-2.1l0-0.2c-0.4-1.9-1.9-3.4-3.8-3.8l-0.2,0c-2.2-0.4-3.7-2.6-3.2-4.9
			C148.6,176.5,149,175.8,149.5,175.2z"/>
		<path class="st14" d="M133.3,155.6L133.3,155.6c1.9,1.9,2.1,4.9,0.6,7l0,0c-1.8,2.6-4.1,4.8-6.6,6.6l0,0c-2.2,1.5-5.1,1.3-7-0.6
			l0,0c-1.6-1.6-1.6-4.2,0.1-5.8c0.6-0.6,1.3-0.9,2.1-1.1l0.2,0c1.9-0.4,3.4-1.9,3.8-3.8l0-0.2c0.4-2.2,2.6-3.7,4.9-3.2
			C132,154.7,132.7,155,133.3,155.6z"/>
	</g>
</g>
</svg>
