<?xml version="1.0" encoding="utf-8"?>
<!-- Generator: Adobe Illustrator 19.2.0, SVG Export Plug-In . SVG Version: 6.00 Build 0)  -->
<svg version="1.1" id="Layer_1" xmlns="http://www.w3.org/2000/svg" xmlns:xlink="http://www.w3.org/1999/xlink" x="0px" y="0px"
	 viewBox="0 0 200 200" style="enable-background:new 0 0 200 200;" xml:space="preserve">
<style type="text/css">
	.st0{fill:#D0E6F7;}
	.st1{fill:#BAD7F1;}
	.st2{fill:#98C7EB;}
	.st3{fill:#C3DFF5;}
	.st4{fill:#FEEA99;}
	.st5{fill:#FFE478;}
	.st6{fill:#FFFFFF;}
	.st7{fill:#E1F2F4;}
	.st8{fill:#010101;}
	.st9{fill:#99D6CE;}
	.st10{fill:#6EB2A6;}
	.st11{fill:#EDD788;}
	.st12{fill:#E7C64A;}
	.st13{fill:#EEEDEE;}
	.st14{fill:#D2ECE7;}
</style>
<g id="Layer_26">
	<path class="st0" d="M174.1,197.5h-72.4c-5.6,0-10.2-4.6-10.2-10.2v-60.7c0-5.6,4.6-10.2,10.2-10.2h72.4c5.6,0,10.2,4.6,10.2,10.2
		v60.7C184.3,192.9,179.8,197.5,174.1,197.5z"/>
	<g>
		<path class="st1" d="M112.4,187.3v-60.7c0-5.6,4.6-10.2,10.2-10.2h-20.9c-5.6,0-10.2,4.6-10.2,10.2v60.7c0,5.6,4.6,10.2,10.2,10.2
			h20.9C117,197.5,112.4,192.9,112.4,187.3z"/>
		<rect x="120.6" y="107.2" class="st1" width="34.6" height="9.3"/>
	</g>
	<rect x="120.6" y="107.2" class="st2" width="10.7" height="9.3"/>
	<path class="st0" d="M157.2,107.2h-38.6c-2.5,0-4.5-2-4.5-4.5l0,0c0-2.5,2-4.5,4.5-4.5h38.6c2.5,0,4.5,2,4.5,4.5l0,0
		C161.7,105.1,159.7,107.2,157.2,107.2z"/>
	<path class="st1" d="M126.6,102.7c0-2.5,2-4.5,4.5-4.5h-12.4c-2.5,0-4.5,2-4.5,4.5s2,4.5,4.5,4.5H131
		C128.6,107.2,126.6,105.1,126.6,102.7z"/>
	<path class="st3" d="M162.1,98.2h-48.3c-2.5,0-4.5-2-4.5-4.5v-8.4c0-2.5,2-4.5,4.5-4.5h48.3c2.5,0,4.5,2,4.5,4.5v8.4
		C166.5,96.2,164.5,98.2,162.1,98.2z"/>
	<path class="st2" d="M126.9,93.7v-8.4c0-2.5,2-4.5,4.5-4.5h-17.6c-2.5,0-4.5,2-4.5,4.5v8.4c0,2.5,2,4.5,4.5,4.5h17.6
		C128.9,98.2,126.9,96.2,126.9,93.7z"/>
	<path class="st4" d="M101.7,190.4c-1.8,0-3.2-1.4-3.2-3.2v-60.7c0-1.8,1.4-3.2,3.2-3.2h72.4c1.8,0,3.2,1.4,3.2,3.2v60.7
		c0,1.8-1.4,3.2-3.2,3.2H101.7z"/>
	<path class="st5" d="M112.9,123.4h-11.2c-1.8,0-3.2,1.4-3.2,3.2v60.7c0,1.8,1.4,3.2,3.2,3.2h11.2c-0.3-1-0.5-2.1-0.5-3.2v-60.7
		C112.4,125.5,112.6,124.4,112.9,123.4z"/>
	<path class="st1" d="M109.8,190.4h54.9l-11.7-8.5c-9.4-6.8-22.1-6.8-31.5,0L109.8,190.4z"/>
	<circle class="st6" cx="137.9" cy="152.3" r="17.6"/>
	<path class="st2" d="M132.1,190.4c4.2-5.9,9-9.8,13-12.4c-7.9-2.4-16.6-1.1-23.6,3.9l-11.7,8.5H132.1z"/>
	<path class="st7" d="M125.5,139.9c-6.9,6.9-6.9,18,0,24.9l24.9-24.9C143.5,133,132.3,133,125.5,139.9z"/>
	<g>
		<g>
			<path class="st8" d="M153.5,39.6c-1.2,0-2.4,0.3-3.6,0.8c1-0.8,1.9-1.7,2.5-2.7c2-3.4,1.5-5.9-0.2-6.8c-1.7-1-4-0.1-6,3.3
				c-0.6,1-0.9,2.3-1.1,3.5c-0.2-1.2-0.5-2.5-1.1-3.5c-2-3.4-4.3-4.3-6-3.3s-2.1,3.4-0.2,6.8c0.6,1,1.5,1.9,2.5,2.7
				c-1.2-0.5-2.4-0.8-3.6-0.8c-3.9,0-5.8,1.6-5.8,3.6s1.9,3.6,5.8,3.6c1.2,0,2.4-0.3,3.6-0.8c-1,0.8-1.9,1.7-2.5,2.7
				c-2,3.4-1.5,5.9,0.2,6.8c1.7,1,4,0.1,6-3.3c0.6-1,0.9-2.3,1.1-3.5c0.2,1.2,0.5,2.5,1.1,3.5c2,3.4,4.3,4.3,6,3.3s2.1-3.4,0.2-6.8
				c-0.6-1-1.5-1.9-2.5-2.7c1.1,0.5,2.4,0.8,3.6,0.8c3.9,0,5.8-1.6,5.8-3.6C159.3,41.2,157.4,39.6,153.5,39.6z M146.5,45.6
				c-1.4,0.8-3.1,0.3-3.9-1c-0.8-1.4-0.3-3.1,1-3.9c1.4-0.8,3.1-0.3,3.9,1C148.4,43.1,147.9,44.8,146.5,45.6z"/>
			<path class="st8" d="M186,63.5c-1.5-0.4-3.3-0.4-4.9-0.2c1.5-0.7,3-1.5,4.1-2.6c3.7-3.7,4-7,2.2-8.9c-1.9-1.9-5.2-1.6-8.9,2.2
				c-1.1,1.1-2,2.6-2.6,4.1c0.2-1.6,0.2-3.4-0.2-4.9c-1.4-5.1-4.1-7-6.6-6.3s-3.9,3.7-2.6,8.8c0.4,1.5,1.3,3,2.3,4.4
				c-1.3-1-2.8-1.8-4.4-2.3c-5.1-1.4-8.1,0-8.8,2.6c-0.7,2.5,1.2,5.3,6.3,6.6c1.5,0.4,3.3,0.4,4.9,0.2c-1.5,0.7-3,1.5-4.1,2.6
				c-3.7,3.7-4,7-2.2,8.9c1.9,1.9,5.2,1.6,8.9-2.2c1.1-1.1,2-2.6,2.7-4.1c-0.2,1.6-0.2,3.4,0.2,4.9c1.4,5.1,4.1,7,6.6,6.3
				s3.9-3.7,2.6-8.8c-0.4-1.5-1.3-3-2.3-4.4c1.3,1,2.8,1.8,4.4,2.3c5.1,1.4,8.1,0,8.8-2.6C193,67.6,191.1,64.8,186,63.5z
				 M174.9,68.9c-2,0.5-4.1-0.7-4.7-2.7c-0.5-2,0.7-4.1,2.7-4.7c2-0.5,4.1,0.7,4.7,2.7C178.2,66.2,176.9,68.3,174.9,68.9z"/>
			<path class="st8" d="M178.4,25.5c-0.5,0.7-0.9,1.5-1.1,2.3c0-0.9-0.1-1.8-0.4-2.6c-1-2.6-2.6-3.4-3.9-2.9
				c-1.3,0.5-1.8,2.2-0.8,4.8c0.3,0.8,0.9,1.5,1.5,2.1c-0.8-0.4-1.6-0.8-2.4-0.9c-2.8-0.4-4.3,0.5-4.4,1.9c-0.2,1.4,1,2.7,3.8,3.1
				c0.8,0.1,1.7,0,2.6-0.2c-0.8,0.4-1.5,1-2,1.7c-1.7,2.2-1.7,4-0.6,4.8c1.1,0.9,2.8,0.5,4.5-1.7c0.5-0.7,0.9-1.5,1.1-2.3
				c0,0.9,0.1,1.8,0.4,2.6c1,2.6,2.6,3.4,3.9,2.9c1.3-0.5,1.8-2.2,0.8-4.8c-0.3-0.8-0.9-1.5-1.5-2.1c0.8,0.4,1.6,0.8,2.4,0.9
				c2.8,0.4,4.3-0.5,4.5-1.9c0.2-1.4-1-2.7-3.8-3.1c-0.8-0.1-1.7,0-2.6,0.2c0.8-0.4,1.5-1,2-1.7c1.7-2.2,1.7-4,0.6-4.8
				C181.9,22.9,180.1,23.3,178.4,25.5z M178.8,32c-0.2,1.1-1.2,1.9-2.3,1.7s-1.9-1.2-1.7-2.3c0.2-1.1,1.2-1.9,2.3-1.7
				C178.1,29.9,178.9,30.9,178.8,32z"/>
		</g>
	</g>
</g>
<g id="Layer_27">
	<path class="st9" d="M76.8,108.4V93.8H11.7v14.6l0.9,1.5c3.6,5.9,3.6,13.3,0,19.1l-0.9,1.5v63.1h65.1v-63.1l-0.9-1.5
		c-3.6-5.9-3.6-13.3,0-19.1L76.8,108.4z"/>
	<path class="st10" d="M76.8,108.4V93.8H44.3v99.8h32.6v-63.1L76,129c-3.6-5.9-3.6-13.3,0-19.1L76.8,108.4z"/>
	<path class="st11" d="M76.8,93.8c0-18-14.6-32.6-32.6-32.6l0,0c-18,0-32.6,14.6-32.6,32.6v14.6h65.1L76.8,93.8L76.8,93.8z"/>
	<path class="st12" d="M76.8,93.8c0-18-14.6-32.6-32.6-32.6l0,0c0,7.3,0.1,47.2,0.1,47.2h32.4L76.8,93.8L76.8,93.8z"/>
	<path class="st13" d="M30.6,93.8H22c0-9.2,5.8-17.5,14.3-20.8l3.1,8.1C34.1,83.1,30.6,88.2,30.6,93.8z"/>
	<rect x="22.5" y="134.6" class="st14" width="43.6" height="39.3"/>
	<rect x="44.3" y="134.6" class="st9" width="21.8" height="39.3"/>
</g>
</svg>
