<?xml version="1.0" encoding="utf-8"?>
<!-- Generator: Adobe Illustrator 19.2.0, SVG Export Plug-In . SVG Version: 6.00 Build 0)  -->
<svg version="1.1" id="Layer_1" xmlns="http://www.w3.org/2000/svg" xmlns:xlink="http://www.w3.org/1999/xlink" x="0px" y="0px"
	 viewBox="0 0 200 200" style="enable-background:new 0 0 200 200;" xml:space="preserve">
<style type="text/css">
	.st0{fill:#E6E6E5;}
	.st1{fill:#CDCCCC;}
	.st2{fill:#FFC11B;}
	.st3{fill:#E97526;}
	.st4{fill:#1C89C9;}
	.st5{opacity:0.3;fill:#E97526;enable-background:new    ;}
	.st6{fill:#50ABD8;}
	.st7{fill:#3CBFEF;}
	.st8{fill:#31A7DF;}
	.st9{fill:#2095D3;}
	.st10{fill:#F386A5;}
	.st11{fill:#F16990;}
	.st12{fill:#8ED8F8;}
	.st13{fill:#FFFFFF;}
	.st14{fill:#E4E9F6;}
</style>
<g id="Layer_96">
	<path class="st0" d="M75.4,51.4c-12.3,0-24.4,3.1-35.2,9v127.7c35.3,19.4,79.6,6.6,99-28.7s6.6-79.6-28.7-99
		C99.8,54.5,87.7,51.4,75.4,51.4z"/>
	<circle class="st1" cx="75.4" cy="124.2" r="42.7"/>
	<path class="st2" d="M45.2,74h5.2c5.7,0,11.1,2.3,15.2,6.3l0,0c4,4,6.3,9.5,6.3,15.2l0,0c0,7.2-2.9,14.1-7.9,19.2l-4.6,4.6l0,0
		c14.3,15.9,20.9,37.4,17.8,58.6l-0.1,0.4c-1.6,10.9-10.9,18.9-21.8,18.9H25.1c-11,0-20.3-8.1-21.8-18.9l-0.1-0.4
		c-3-21.2,3.5-42.7,17.8-58.6l0,0l-4.6-4.6c-5.1-5.1-7.9-12-7.9-19.2l0,0c0-5.7,2.3-11.1,6.3-15.2l0,0c4-4,9.5-6.3,15.2-6.3H45.2z"
		/>
	<rect x="27.6" y="63.9" class="st3" width="25.1" height="10.1"/>
	<path class="st4" d="M40.2,51.4L40.2,51.4c4.2,0,7.5,3.4,7.5,7.5v5l0,0h-15l0,0v-5C32.7,54.7,36,51.4,40.2,51.4z"/>
	<g>
		<rect x="20.1" y="84" class="st3" width="27.6" height="5"/>
		<rect x="52.8" y="84" class="st3" width="5" height="5"/>
	</g>
	<g>
		<rect x="135.7" y="53.9" class="st4" width="15.1" height="5"/>
		<rect x="140.7" y="48.9" class="st4" width="5" height="15.1"/>
		<rect x="135.7" y="189.6" class="st4" width="15.1" height="5"/>
		<rect x="140.7" y="184.5" class="st4" width="5" height="15.1"/>
		<rect y="53.9" class="st4" width="15.1" height="5"/>
		<rect x="5" y="48.9" class="st4" width="5" height="15.1"/>
	</g>
	<path class="st5" d="M59.3,119.2l4.6-4.6c5.1-5.1,7.9-12,7.9-19.2c0-11-8.3-20.2-19.2-21.3c1.7,4.4,2.6,9,2.6,13.7
		c0,9.8-3.8,19.3-10.5,26.5c10,8.4,15.8,20.7,16,33.8c0,24.3-20.3,44.2-46.2,46.3c3.2,1.8,6.9,2.7,10.6,2.7h30.2
		c11,0,20.3-8.1,21.8-18.9l0.1-0.4C80.2,156.6,73.7,135.1,59.3,119.2z"/>
	<path class="st4" d="M26.8,184.5c-5.9,0-10.8-4.8-10.8-10.8c0-0.4,0-0.8,0.1-1.3c2.1-17.6,8-48.3,24.1-48.3s22,30.7,24.1,48.3
		c0.7,5.9-3.5,11.3-9.4,12c-0.4,0.1-0.8,0.1-1.3,0.1H26.8L26.8,184.5z"/>
	<path class="st6" d="M64.3,172.5c-0.7-6.3-1.8-12.6-3.2-18.9l-2,2c-4.9,4.9-12.7,4.9-17.6,0s-12.7-4.9-17.6,0l-6.2,6.2
		c-0.7,3.8-1.2,7.4-1.5,10.6c-0.7,5.9,3.5,11.3,9.4,12c0.4,0.1,0.8,0.1,1.3,0.1h26.8c5.9,0,10.8-4.8,10.8-10.8
		C64.4,173.4,64.4,172.9,64.3,172.5z"/>
	<path class="st7" d="M159.8,66.6h-13c-2.4,0-4.3,1.9-4.3,4.3v10.8h21.6V70.9C164.2,68.5,162.2,66.6,159.8,66.6z"/>
	<g>
		<path class="st8" d="M153.3,66.6h-6.5c-2.4,0-4.3,1.9-4.3,4.3v10.8h6.5V70.9C149,68.5,151,66.6,153.3,66.6z"/>
		<path class="st8" d="M166.3,79.6h-25.9c-1.2,0-2.2,1-2.2,2.2v10.8h30.3V81.7C168.5,80.5,167.5,79.6,166.3,79.6z"/>
	</g>
	<path class="st9" d="M149,79.6h-8.6c-1.2,0-2.2,1-2.2,2.2v10.8h8.6V81.7C146.9,80.5,147.8,79.6,149,79.6z"/>
	<path class="st10" d="M183.3,95.5c-2.2-4.5-6.7-7.3-11.7-7.3H135c-5,0-9.5,2.8-11.7,7.3c-14.1,28.9-17,70.7-17.6,91.8
		c-0.2,7.3,5.7,13.3,13,13.3h69.2c7.3,0,13.2-6,13-13.3C200.3,166.2,197.4,124.4,183.3,95.5z M136.7,112.3
		c-3.5,10.2-5.9,21.3-7.6,32.1c-0.4,2.5-2.5,4.3-5,4.3h-0.5c-3.1,0-5.5-2.8-5-5.9c1.9-11.6,4.7-23.4,8.6-34.1c0.7-2,2.6-3.2,4.7-3.2
		l0,0C135.4,105.5,137.8,109,136.7,112.3z"/>
	<path class="st11" d="M131.7,187.3c0.5-21.1,3.5-62.9,17.6-91.8c2.2-4.5,6.7-7.3,11.7-7.3h-25.9c-5,0-9.5,2.8-11.7,7.3
		c-14.1,28.9-17,70.7-17.6,91.8c-0.2,7.3,5.7,13.3,13,13.3h25.9C137.4,200.6,131.6,194.6,131.7,187.3z M124,148.7h-0.5
		c-3.1,0-5.5-2.8-5-5.9c1.9-11.6,4.7-23.4,8.6-34.1c0.7-2,2.6-3.2,4.7-3.2l0,0c3.5,0,5.9,3.5,4.8,6.8c-3.5,10.2-5.9,21.3-7.6,32.1
		C128.7,146.9,126.5,148.7,124,148.7z"/>
	<path class="st12" d="M172.8,103.7c-0.7-1.5-2.2-2.5-3.9-2.5h-10.6c-2.8,0-5.3,1.8-6.2,4.4c-4.1,12.5-8.9,32.1-10.3,40.8
		c-1.4,8.9-8.9,15.3-17.8,15.3c-2.1,0-3.8,1.6-4,3.7c-0.6,6.8-1,13-1.2,17.8c-0.1,2.4,1.8,4.5,4.3,4.5h60.3c2.4,0,4.4-2,4.3-4.5
		C187.1,164.8,184.2,128.9,172.8,103.7z"/>
	<path class="st7" d="M133.6,159c-2.8,1.7-6.1,2.7-9.6,2.7c-2.1,0-3.8,1.6-4,3.7c-0.6,6.8-1,13-1.2,17.8c-0.1,2.4,1.8,4.5,4.3,4.5
		h8.5c0-0.1,0-0.2,0-0.3C131.9,179.9,132.4,170,133.6,159z"/>
	<g>
		<circle class="st13" cx="162" cy="161.7" r="13"/>
		<circle class="st13" cx="162" cy="133.6" r="6.5"/>
	</g>
	<g>
		<path class="st14" d="M166.3,170.4c-7.2,0-13-5.8-13-13c0-2.5,0.7-4.8,1.9-6.7c-3.7,2.3-6.2,6.4-6.2,11.1c0,7.2,5.8,13,13,13
			c4.7,0,8.8-2.5,11.1-6.2C171.1,169.7,168.8,170.4,166.3,170.4z"/>
		<path class="st14" d="M165.2,136.9c-3.6,0-6.5-2.9-6.5-6.5c0-1,0.2-1.8,0.6-2.7c-2.3,1-3.8,3.3-3.8,5.9c0,3.6,2.9,6.5,6.5,6.5
			c2.6,0,4.9-1.6,5.9-3.8C167.1,136.6,166.2,136.9,165.2,136.9z"/>
	</g>
</g>
</svg>
