<?xml version="1.0" encoding="utf-8"?>
<!-- Generator: Adobe Illustrator 19.2.0, SVG Export Plug-In . SVG Version: 6.00 Build 0)  -->
<svg version="1.1" id="Layer_1" xmlns="http://www.w3.org/2000/svg" xmlns:xlink="http://www.w3.org/1999/xlink" x="0px" y="0px"
	 viewBox="0 0 200 200" style="enable-background:new 0 0 200 200;" xml:space="preserve">
<style type="text/css">
	.st0{fill:#1C2834;}
	.st1{fill:#2D3F50;}
	.st2{fill:#566181;}
	.st3{fill:#FFFFFF;stroke:#7484BF;stroke-width:2;stroke-linecap:round;stroke-miterlimit:10;}
	.st4{fill:#EABA1F;}
	.st5{fill:#DD372D;}
	.st6{fill:#6A5088;}
	.st7{fill:#7484BF;}
</style>
<g id="Layer_93">
	<g transform="translate(-1)">
		<path class="st0" d="M135,109.1L126.3,97c-1.4-1.9-1.7-4.4-0.6-6.5c0.6-1.1,1.6-2.2,3.4-2.8c1.9-0.7,3.9-0.5,5.8,0.1
			c3.2,1.2,9.8,3.3,14.1,3.3h6.8c1.6,0,3,1.1,3.2,2.6c0.3,2.4-1.3,7-10,15.4H135z"/>
		<path class="st1" d="M201,189.2c0-3.8-2.4-6.5-4.6-8.1c-2.1-1.5-3.4-3.9-3.4-6.5v-25.4c-2.1-21.4-24-34.8-38.1-41.3
			c-7.5-3.5-16.2-3.5-23.7,0c-14.1,6.5-36,19.9-38.1,41.3v25.4c0,2.6-1.3,5-3.4,6.5c-2.2,1.6-4.6,4.2-4.6,8.1c0,0-1.2,8,12,8h46h46
			C202.2,197.2,201,189.2,201,189.2"/>
		<path class="st0" d="M183,151.8c-1,0-1.9-0.7-2-1.8c-1.8-15.5-20.3-26.2-31.2-31.2c-4.3-2-9.3-2-13.6,0
			c-10.9,5-29.4,15.7-31.2,31.2c-0.1,1.1-1.1,1.9-2.2,1.8c-1.1-0.1-1.9-1.1-1.8-2.2c2.1-17.4,21.9-29,33.5-34.3
			c5.4-2.5,11.6-2.5,17,0c11.6,5.4,31.4,16.9,33.5,34.3c0.1,1.1-0.7,2.1-1.8,2.2C183.1,151.8,183.1,151.8,183,151.8"/>
	</g>
</g>
<g id="Layer_94">
	<path class="st2" d="M118.4,69.9L4.1,53.8l1.5-10.4c0.6-4.2,4.5-7.2,8.8-6.6l98.9,13.9c4.2,0.6,7.2,4.5,6.6,8.8L118.4,69.9z"/>
	<path class="st3" d="M45.8,41.3l1.7-12c0.5-3.3,3.6-5.6,6.9-5.2l24.1,3.4c3.3,0.5,5.6,3.6,5.2,6.9l-1.7,12L45.8,41.3z"/>
	<path class="st4" d="M10.7,81.7H43l1-1L26.8,63.5L10.4,79.9c-0.4,0.4-0.4,1.1,0,1.6L10.7,81.7z"/>
	<rect x="47.1" y="72.6" class="st5" width="24.3" height="9.1"/>
	<rect x="80.5" y="72.6" class="st6" width="15.2" height="9.1"/>
	<path class="st2" d="M102.6,200.2H15.9c-4.6,0-8.3-3.7-8.3-8.3V81.7h103.3v110.2C110.9,196.5,107.2,200.2,102.6,200.2z"/>
	<g>
		<circle class="st7" cx="22.8" cy="106" r="3"/>
		<circle class="st7" cx="22.8" cy="124.2" r="3"/>
		<circle class="st7" cx="31.9" cy="96.9" r="3"/>
		<circle class="st7" cx="50.1" cy="96.9" r="3"/>
		<circle class="st7" cx="31.9" cy="115.1" r="3"/>
		<circle class="st7" cx="50.1" cy="115.1" r="3"/>
		<circle class="st7" cx="41" cy="106" r="3"/>
		<circle class="st7" cx="59.2" cy="106" r="3"/>
		<circle class="st7" cx="41" cy="124.2" r="3"/>
		<circle class="st7" cx="59.2" cy="124.2" r="3"/>
		<circle class="st7" cx="68.3" cy="96.9" r="3"/>
		<circle class="st7" cx="86.6" cy="96.9" r="3"/>
		<circle class="st7" cx="68.3" cy="115.1" r="3"/>
		<circle class="st7" cx="86.6" cy="115.1" r="3"/>
		<circle class="st7" cx="77.4" cy="106" r="3"/>
		<circle class="st7" cx="95.7" cy="106" r="3"/>
		<circle class="st7" cx="77.4" cy="124.2" r="3"/>
		<circle class="st7" cx="95.7" cy="124.2" r="3"/>
		<circle class="st7" cx="22.8" cy="142.5" r="3"/>
		<circle class="st7" cx="22.8" cy="160.7" r="3"/>
		<circle class="st7" cx="31.9" cy="133.4" r="3"/>
		<circle class="st7" cx="50.1" cy="133.4" r="3"/>
		<circle class="st7" cx="31.9" cy="151.6" r="3"/>
		<circle class="st7" cx="50.1" cy="151.6" r="3"/>
		<circle class="st7" cx="41" cy="142.5" r="3"/>
		<circle class="st7" cx="59.2" cy="142.5" r="3"/>
		<circle class="st7" cx="41" cy="160.7" r="3"/>
		<circle class="st7" cx="59.2" cy="160.7" r="3"/>
		<circle class="st7" cx="68.3" cy="133.4" r="3"/>
		<circle class="st7" cx="86.6" cy="133.4" r="3"/>
		<circle class="st7" cx="68.3" cy="151.6" r="3"/>
		<circle class="st7" cx="86.6" cy="151.6" r="3"/>
		<circle class="st7" cx="77.4" cy="142.5" r="3"/>
		<circle class="st7" cx="95.7" cy="142.5" r="3"/>
		<circle class="st7" cx="77.4" cy="160.7" r="3"/>
		<circle class="st7" cx="95.7" cy="160.7" r="3"/>
		<circle class="st7" cx="22.8" cy="178.9" r="3"/>
		<circle class="st7" cx="31.9" cy="169.8" r="3"/>
		<circle class="st7" cx="50.1" cy="169.8" r="3"/>
		<circle class="st7" cx="31.9" cy="188" r="3"/>
		<circle class="st7" cx="50.1" cy="188" r="3"/>
		<circle class="st7" cx="41" cy="178.9" r="3"/>
		<circle class="st7" cx="59.2" cy="178.9" r="3"/>
		<circle class="st7" cx="68.3" cy="169.8" r="3"/>
		<circle class="st7" cx="86.6" cy="169.8" r="3"/>
		<circle class="st7" cx="68.3" cy="188" r="3"/>
		<circle class="st7" cx="86.6" cy="188" r="3"/>
		<circle class="st7" cx="77.4" cy="178.9" r="3"/>
		<circle class="st7" cx="95.7" cy="178.9" r="3"/>
	</g>
	<path class="st2" d="M118.4,69.9L4.1,53.8l1.5-10.4c0.6-4.2,4.5-7.2,8.8-6.6l98.9,13.9c4.2,0.6,7.2,4.5,6.6,8.8L118.4,69.9z"/>
	<path class="st3" d="M45.8,41.3l1.7-12c0.5-3.3,3.6-5.6,6.9-5.2l24.1,3.4c3.3,0.5,5.6,3.6,5.2,6.9l-1.7,12L45.8,41.3z"/>
	<path class="st4" d="M10.7,81.7H43l1-1L26.8,63.5L10.4,79.9c-0.4,0.4-0.4,1.1,0,1.6L10.7,81.7z"/>
	<rect x="47.1" y="72.6" class="st5" width="24.3" height="9.1"/>
	<rect x="80.5" y="72.6" class="st6" width="15.2" height="9.1"/>
	<path class="st2" d="M102.6,200.2H15.9c-4.6,0-8.3-3.7-8.3-8.3V81.7h103.3v110.2C110.9,196.5,107.2,200.2,102.6,200.2z"/>
	<g>
		<circle class="st7" cx="22.8" cy="106" r="3"/>
		<circle class="st7" cx="22.8" cy="124.2" r="3"/>
		<circle class="st7" cx="31.9" cy="96.9" r="3"/>
		<circle class="st7" cx="50.1" cy="96.9" r="3"/>
		<circle class="st7" cx="31.9" cy="115.1" r="3"/>
		<circle class="st7" cx="50.1" cy="115.1" r="3"/>
		<circle class="st7" cx="41" cy="106" r="3"/>
		<circle class="st7" cx="59.2" cy="106" r="3"/>
		<circle class="st7" cx="41" cy="124.2" r="3"/>
		<circle class="st7" cx="59.2" cy="124.2" r="3"/>
		<circle class="st7" cx="68.3" cy="96.9" r="3"/>
		<circle class="st7" cx="86.6" cy="96.9" r="3"/>
		<circle class="st7" cx="68.3" cy="115.1" r="3"/>
		<circle class="st7" cx="86.6" cy="115.1" r="3"/>
		<circle class="st7" cx="77.4" cy="106" r="3"/>
		<circle class="st7" cx="95.7" cy="106" r="3"/>
		<circle class="st7" cx="77.4" cy="124.2" r="3"/>
		<circle class="st7" cx="95.7" cy="124.2" r="3"/>
		<circle class="st7" cx="22.8" cy="142.5" r="3"/>
		<circle class="st7" cx="22.8" cy="160.7" r="3"/>
		<circle class="st7" cx="31.9" cy="133.4" r="3"/>
		<circle class="st7" cx="50.1" cy="133.4" r="3"/>
		<circle class="st7" cx="31.9" cy="151.6" r="3"/>
		<circle class="st7" cx="50.1" cy="151.6" r="3"/>
		<circle class="st7" cx="41" cy="142.5" r="3"/>
		<circle class="st7" cx="59.2" cy="142.5" r="3"/>
		<circle class="st7" cx="41" cy="160.7" r="3"/>
		<circle class="st7" cx="59.2" cy="160.7" r="3"/>
		<circle class="st7" cx="68.3" cy="133.4" r="3"/>
		<circle class="st7" cx="86.6" cy="133.4" r="3"/>
		<circle class="st7" cx="68.3" cy="151.6" r="3"/>
		<circle class="st7" cx="86.6" cy="151.6" r="3"/>
		<circle class="st7" cx="77.4" cy="142.5" r="3"/>
		<circle class="st7" cx="95.7" cy="142.5" r="3"/>
		<circle class="st7" cx="77.4" cy="160.7" r="3"/>
		<circle class="st7" cx="95.7" cy="160.7" r="3"/>
		<circle class="st7" cx="22.8" cy="178.9" r="3"/>
		<circle class="st7" cx="31.9" cy="169.8" r="3"/>
		<circle class="st7" cx="50.1" cy="169.8" r="3"/>
		<circle class="st7" cx="31.9" cy="188" r="3"/>
		<circle class="st7" cx="50.1" cy="188" r="3"/>
		<circle class="st7" cx="41" cy="178.9" r="3"/>
		<circle class="st7" cx="59.2" cy="178.9" r="3"/>
		<circle class="st7" cx="68.3" cy="169.8" r="3"/>
		<circle class="st7" cx="86.6" cy="169.8" r="3"/>
		<circle class="st7" cx="68.3" cy="188" r="3"/>
		<circle class="st7" cx="86.6" cy="188" r="3"/>
		<circle class="st7" cx="77.4" cy="178.9" r="3"/>
		<circle class="st7" cx="95.7" cy="178.9" r="3"/>
	</g>
</g>
</svg>
