<?xml version="1.0" encoding="utf-8"?>
<!-- Generator: Adobe Illustrator 19.2.0, SVG Export Plug-In . SVG Version: 6.00 Build 0)  -->
<svg version="1.1" id="Layer_1" xmlns="http://www.w3.org/2000/svg" xmlns:xlink="http://www.w3.org/1999/xlink" x="0px" y="0px"
	 viewBox="0 0 200 200" style="enable-background:new 0 0 200 200;" xml:space="preserve">
<style type="text/css">
	.st0{fill:#8C461F;}
	.st1{fill:#713B18;}
	.st2{fill:#FAA834;}
	.st3{fill:#F89928;}
	.st4{fill:#FEDF82;}
	.st5{fill:#BF6228;}
	.st6{fill:#994E23;}
	.st7{fill:#FFDBAB;}
	.st8{fill:#82331A;}
	.st9{fill:#944E2B;}
	.st10{fill:#A56941;}
	.st11{fill:#B78456;}
	.st12{fill:#692A14;}
	.st13{fill:#8D431F;}
	.st14{fill:#E9A965;}
	.st15{fill:#E5E5E5;}
	.st16{fill:#010101;}
	.st17{fill:#6A8B3B;}
	.st18{fill:#914E2B;}
	.st19{fill:#AF7E56;}
</style>
<g id="Layer_65">
	<g>
		<path class="st0" d="M57,97.8c-3.1-3.1-4.9-7.3-4.9-11.9v-0.2c0-4.9,2.1-9.5,5.7-12.7c3.6-3.2,8.5-4.7,13.3-4
			c8.4,1.1,15.7,1.2,23.1,0.2c4.8-0.6,9.7,0.9,13.3,4.1c3.6,3.2,5.7,7.8,5.7,12.6c0,8.3-6,15.3-14.2,16.6c-10.9,1.7-21.9,1.7-32.7,0
			C62.7,102,59.5,100.3,57,97.8z"/>
		<path class="st0" d="M83.3,76.1c-5.5,0-10.9-0.4-16.4-1.3c-8.2-1.3-14.2-8.3-14.2-16.6v-0.3c0-4.9,2.1-9.5,5.7-12.7
			c3.6-3.2,8.5-4.7,13.3-4c8.4,1.1,15.7,1.2,23.1,0.2c4.8-0.6,9.7,0.9,13.3,4.1c3.6,3.2,5.7,7.8,5.7,12.6c0,8.3-6,15.3-14.2,16.6
			C94.3,75.7,88.8,76.1,83.3,76.1z"/>
	</g>
	<path class="st0" d="M138.4,199.8H61.6V194c0-8.4-6.9-15.3-15.3-15.3v-10.2h107.4v10.2c-8.4,0-15.3,6.9-15.3,15.3V199.8z"/>
	<path class="st1" d="M98,199.8h38.4V194c0-8.4,6.9-15.3,15.3-15.3v-10.2H98V199.8z"/>
	<path class="st2" d="M43.1,105c-4.3,0-8.6-1.7-11.9-5L31,99.8c-3.4-3.4-5.2-8.2-4.9-13c0.3-4.8,2.7-9.3,6.6-12.3
		c6.7-5.1,11.9-10.3,16.5-16.2c3-3.8,7.5-6.2,12.3-6.5s9.5,1.5,13,4.9c5.9,5.9,6.6,15.1,1.7,21.8c-6.5,8.9-14.2,16.7-23.1,23.1
		C50,103.9,46.5,105,43.1,105z"/>
	<path class="st3" d="M130.6,104.9c-5.5,0-10.9-0.4-16.4-1.3C106,102.3,100,95.3,100,87v-0.3c0-4.9,2.1-9.5,5.7-12.7s8.5-4.7,13.3-4
		c8.4,1.1,15.7,1.2,23.1,0.2c4.8-0.6,9.7,0.9,13.3,4.1s5.7,7.8,5.7,12.6c0,8.3-6,15.3-14.2,16.6
		C141.5,104.5,136.1,104.9,130.6,104.9z"/>
	<path class="st4" d="M134.5,79.1c-3.5,0-6.9-1.1-9.9-3.2c-8.9-6.5-16.7-14.2-23.1-23.1c-4.9-6.8-4.2-15.9,1.7-21.8l0.2-0.2
		c3.4-3.4,8.2-5.2,13-4.9c4.8,0.3,9.3,2.7,12.3,6.6c5.1,6.7,10.3,11.9,16.2,16.5c3.8,3,6.2,7.5,6.5,12.3s-1.5,9.5-4.9,13
		C143.1,77.4,138.8,79.1,134.5,79.1z"/>
	<path class="st5" d="M147.9,179.2H52.1c-21.6,0-39.1-17.5-39.1-39.1V94.6h174v45.6C187,161.7,169.5,179.2,147.9,179.2z"/>
	<path class="st6" d="M100,94.6v84.6h47.9c21.6,0,39.1-17.5,39.1-39.1V94.6H100z"/>
	<path class="st7" d="M98,94.8c-5.5,0-10.9-0.4-16.4-1.3c-8.2-1.3-14.2-8.3-14.2-16.6v-0.3c0-4.9,2.1-9.5,5.7-12.7s8.5-4.7,13.3-4
		c8.4,1.1,15.7,1.2,23.1,0.2c4.8-0.6,9.7,0.9,13.3,4.1c3.6,3.2,5.7,7.8,5.7,12.6c0,8.3-6,15.3-14.2,16.6
		C108.9,94.4,103.4,94.8,98,94.8z"/>
</g>
<g id="Layer_63">
	<path class="st8" d="M64.3,186.9c14-12.2,23.4-27.3,20.4-30.6l-32.2,16.8L41,194C44.3,197.8,53.5,196.3,64.3,186.9z"/>
	
		<rect x="62.1" y="184.7" transform="matrix(0.7572 -0.6531 0.6531 0.7572 -106.4536 87.3104)" class="st9" width="4.3" height="4.3"/>
	<path class="st10" d="M44.6,164.9c-10.7,9.5-10.5,21.5-3.7,29.2l43.8-37.7C78.7,149.7,58.4,152.6,44.6,164.9z"/>
	<path class="st9" d="M51,172.3c-10.8,9.4-13.6,17.9-10.1,21.7l43.8-37.7C81.6,153,65,160.1,51,172.3z"/>
	<path class="st8" d="M52,152.8c-14.2,11.9-34,15-39.7,8.2l43.8-37.7C62.7,131.1,63,143.6,52,152.8z"/>
	<path class="st9" d="M45.6,145.3c-14.1,12-30.4,19.1-33.2,15.7l21.4-29.4l22.4-8.4C59.4,127.2,56.5,136.1,45.6,145.3z"/>
	<path class="st11" d="M26.7,122.6c11-9.2,22.8-7.2,29.4,0.6L12.3,161C6.6,154.2,12.5,134.5,26.7,122.6z"/>
	
		<rect x="43.4" y="143.2" transform="matrix(0.7572 -0.6531 0.6531 0.7572 -83.8774 65.0475)" class="st12" width="4.3" height="4.3"/>
	
		<rect x="33.5" y="141.5" transform="matrix(0.7572 -0.6531 0.6531 0.7572 -85.1913 58.1485)" class="st11" width="4.3" height="4.3"/>
	<path class="st10" d="M33.1,130.1c10.9-9.3,19.7-10.8,23-6.8L12.3,161C9.5,157.5,19,142.1,33.1,130.1z"/>
</g>
<g id="Layer_64">
	<path class="st13" d="M159.6,118.2L159.6,118.2c-4.1-2.5-5.3-7.9-2.8-12l0,0c3.6-5.7,9-10,15.4-12.1l3-1l0.4,3.1
		c0.9,6.7-0.6,13.5-4.1,19.2l0,0C169,119.5,163.7,120.7,159.6,118.2z"/>
	<path class="st14" d="M196.5,128L196.5,128c1.8-2.8,0.9-6.6-1.9-8.4l0,0c-7.7-4.8-17.9-2.5-22.8,5.2l0,0c-1.8,2.8-0.9,6.6,1.9,8.4
		l0,0c2.8,1.8,6.6,0.9,8.4-1.9l0,0c1.3-2,4-2.7,6-1.4l0,0C191,131.7,194.7,130.8,196.5,128z"/>
	<path class="st13" d="M169.4,143L169.4,143c1.1,4.7-1.8,9.3-6.5,10.4l0,0l0,0c-6.6,1.5-13.5,0.7-19.5-2.4l-2.8-1.4l1.9-2.5
		c4.1-5.4,9.9-9.1,16.5-10.6l0,0C163.7,135.4,168.3,138.4,169.4,143z"/>
	<path class="st14" d="M125,125.5L125,125.5c-1.8,2.8-0.9,6.6,1.9,8.4l0,0c7.7,4.8,17.9,2.5,22.8-5.2l0,0c1.8-2.8,0.9-6.6-1.9-8.4
		l0,0c-2.8-1.8-6.6-0.9-8.4,1.9l0,0c-1.3,2-4,2.7-6,1.4l0,0C130.5,121.8,126.8,122.7,125,125.5z"/>
	<path class="st13" d="M106,136.2L106,136.2c4.7-1.1,9.3,1.8,10.4,6.5l0,0c1.5,6.6,0.7,13.5-2.4,19.5l-1.4,2.8l-2.5-1.9
		c-5.4-4.1-9.1-9.9-10.6-16.5l0,0C98.4,141.9,101.3,137.2,106,136.2z"/>
	<g>
		<path class="st14" d="M150,174L150,174c-1.8,2.8-0.9,6.6,1.9,8.4l0,0c7.7,4.8,17.9,2.5,22.8-5.2l0,0l0,0c1.8-2.8,0.9-6.6-1.9-8.4
			l0,0c-2.8-1.8-6.6-0.9-8.4,1.9l0,0c-1.3,2-4,2.7-6,1.4l0,0C155.5,170.3,151.8,171.2,150,174z"/>
		<path class="st14" d="M122.6,108.7L122.6,108.7c-0.8-3.3-4-5.3-7.3-4.6l0,0l0,0c-8.9,2-14.4,10.9-12.4,19.8l0,0
			c0.8,3.3,4,5.3,7.3,4.6l0,0l0,0c3.3-0.8,5.3-4,4.6-7.3l0,0l0,0c-0.5-2.3,0.9-4.7,3.3-5.2l0,0C121.3,115.3,123.4,112,122.6,108.7
			L122.6,108.7z"/>
	</g>
	<path class="st15" d="M130.5,165.6l10.2,13.6c1.6-3.4,2-7.3,1.1-10.9c-1.7-7.5-7.7-12.5-13.3-11.2c-5.6,1.3-8.8,8.4-7,15.9
		c0.8,3.7,2.8,7,5.7,9.3L130.5,165.6z"/>
	<path class="st16" d="M149.9,88.4c0-0.6-0.4-1.1-0.9-1.4c-3.8-1.8-8-2.2-12.1-1.2c-8.4,1.9-14,8.8-12.5,15.4
		c0.7,2.7,2.4,5.1,4.9,6.5c0.6,0.4,1.2,0.7,1.8,0.9c3.6,1.5,7.6,1.8,11.4,0.9c4.1-0.9,7.7-3.1,10.3-6.4c0.6-0.8,0.4-1.9-0.3-2.4
		c-0.2-0.2-0.5-0.3-0.7-0.3l-0.6-0.1l2.1-2c1.7-1.6,1.7-4.2,0.1-5.9c-0.5-0.5-1.1-0.9-1.7-1.1l-2.8-0.9l0.5-0.4
		C149.7,89.5,150,89,149.9,88.4z M141.6,106c-3.1,0.8-6.3,0.5-9.2-0.7c-2.3-0.9-4-2.7-4.6-5.1c-1.1-4.7,3.4-9.7,9.9-11.2
		c2.3-0.5,4.6-0.6,6.9-0.1l-11.1,8.3c-0.8,0.6-0.9,1.7-0.4,2.4c0.3,0.3,0.6,0.6,1.1,0.7l13.6,2.6C146,104.5,143.8,105.5,141.6,106z
		 M150.5,94.5c0.4,0.1,0.6,0.5,0.4,0.9c0,0.1-0.1,0.2-0.2,0.3l-3.9,3.7l-8.1-1.6l6.6-5L150.5,94.5z"/>
	<path class="st16" d="M150.5,184.6c8.5,5.3,19.8,2.7,25.2-5.8c2.3-3.7,1.2-8.5-2.5-10.8s-8.5-1.2-10.8,2.5
		c-0.8,1.2-2.4,1.6-3.6,0.8c-3.7-2.3-8.5-1.2-10.8,2.5C145.7,177.5,146.9,182.3,150.5,184.6z M157,174.3c2.8,1.8,6.6,0.9,8.4-1.9
		c1.3-2,4-2.7,6-1.4s2.7,4,1.4,6c-4.3,6.9-13.4,9-20.4,4.7c-2-1.3-2.7-4-1.4-6C152.3,173.6,154.9,173,157,174.3z"/>
</g>
<g id="Layer_66">
	<g>
		<g>
			<path class="st17" d="M111.4,182.8c3.2-8.4,0.5-17.3-7.3-25.1c-7.9-7.9-16.9-10.5-25.4-7.2c5.7,8.8,11.4,7.8,11.4,7.8
				c-6.5,7.7-3.9,14.7-3.4,15.8c1,0.4,8.1,3.1,15.8-3.4C102.5,170.8,101.4,176.9,111.4,182.8z"/>
		</g>
		<path class="st18" d="M102.5,170.8c-7.7,6.5-14.7,3.9-15.8,3.4c-0.4-1-3.1-8.1,3.4-15.8c0,0-4.6,0.8-9.7-5.6
			c-2.6,1.1-5.1,2.8-7.4,5.2c-9.4,9.4-10.6,31.6-5.7,36.6c5.3,5.5,27.1,3.7,36.6-5.7c2.4-2.4,4.2-5,5.3-7.6
			C101.6,175.9,102.5,170.8,102.5,170.8z"/>
		<path class="st19" d="M71.3,196.8c-2.2,0-3.8-0.5-4.9-1.6c-0.4-0.4-0.4-1,0-1.4s1-0.4,1.4,0c0.8,0.8,2.6,1.2,4.9,0.9
			c5.3-0.6,12.6-4.1,15.6-9.1c0.3-0.5,0.9-0.6,1.4-0.3s0.6,0.9,0.3,1.4c-3.5,5.6-11.4,9.4-17,10C72.5,196.8,71.9,196.8,71.3,196.8z"
			/>
		<path class="st19" d="M66.9,195.2c-0.3,0-0.5-0.1-0.7-0.3c-1.3-1.3-1.8-3.6-1.5-6.6c0.6-5.7,4.4-13.6,10-17
			c0.5-0.3,1.1-0.1,1.4,0.3c0.3,0.5,0.1,1.1-0.3,1.4c-4.9,3-8.5,10.3-9.1,15.6c-0.3,2.3,0.1,4.1,0.9,4.9c0.4,0.4,0.4,1,0,1.4
			C67.4,195.1,67.1,195.2,66.9,195.2z"/>
		<path class="st19" d="M67.2,195.5c-0.3,0-0.5-0.1-0.7-0.3c-0.5-0.5-0.7-1.1-0.6-2c0.2-3.2,4.1-9.9,8.4-13.1
			c0.4-0.3,1.1-0.2,1.4,0.2s0.2,1.1-0.2,1.4c-4.8,3.6-8.2,10.9-7.5,12.1c0.4,0.4,0.4,1,0,1.4C67.7,195.4,67.5,195.5,67.2,195.5z"/>
	</g>
</g>
</svg>
