<?xml version="1.0" encoding="utf-8"?>
<!-- Generator: Adobe Illustrator 19.2.0, SVG Export Plug-In . SVG Version: 6.00 Build 0)  -->
<svg version="1.1" id="Layer_1" xmlns="http://www.w3.org/2000/svg" xmlns:xlink="http://www.w3.org/1999/xlink" x="0px" y="0px"
	 viewBox="0 0 200 200" style="enable-background:new 0 0 200 200;" xml:space="preserve">
<style type="text/css">
	.st0{fill:#727272;}
	.st1{fill:#E3E3E3;}
	.st2{fill:#67CDEE;}
	.st3{fill:#FFFFFF;}
	.st4{fill:#FFC535;}
	.st5{fill:#3B9DB4;}
	.st6{fill:#EE3867;}
	.st7{opacity:0.1;}
	.st8{fill:#010101;}
	.st9{fill:#FFD96F;}
	.st10{fill:#FDC067;}
	.st11{fill:#F68A50;}
	.st12{fill:#43C0BA;}
	.st13{fill:#D7EDE1;}
	.st14{fill:#BAE0CD;}
	.st15{fill:#FFF2D1;}
	.st16{fill:#FEE6A0;}
</style>
<g id="Layer_35">
	<path class="st0" d="M115.1,28.7V18c0-1.4-1.4-2.3-2.7-1.7L84.3,28.7v7.7h28.5L115.1,28.7z"/>
	<path class="st1" d="M36.3,189.7V36.3c0-4.2,3.4-7.6,7.6-7.6h75.2c4.2,0,7.6,3.4,7.6,7.6v153.4c0,4.2-3.4,7.6-7.6,7.6H43.9
		C39.7,197.3,36.3,193.9,36.3,189.7z"/>
	<rect x="36.3" y="60" class="st2" width="90.4" height="106"/>
	<circle class="st3" cx="81.5" cy="110.9" r="31.2"/>
	<path class="st4" d="M101,107.1l-23,27.4c-0.8,1-2.4,0.1-1.9-1.1l5.7-14.7H62.1l23.3-31.2c0.8-1,2.4-0.2,2,1l-6,18.6H101z"/>
	<path class="st1" d="M36.3,189.7c0,4.2,3.4,7.6,7.6,7.6h75.2c4.2,0,7.6-3.4,7.6-7.6v-2.6H36.3V189.7z"/>
	<path class="st5" d="M91.4,155.6H71.7c-1.6,0-2.9-1.3-2.9-2.9s1.3-2.9,2.9-2.9h19.7c1.6,0,2.9,1.3,2.9,2.9S93,155.6,91.4,155.6z"/>
	<g>
		<path class="st6" d="M24.1,111.4H4.9c-1.6,0-2.9-1.3-2.9-2.9s1.3-2.9,2.9-2.9h19.2c1.6,0,2.9,1.3,2.9,2.9S25.7,111.4,24.1,111.4z"
			/>
		<path class="st6" d="M23.5,98.8c-0.6,0-1.1-0.2-1.6-0.5l-6.2-4.2c-1.3-0.9-1.6-2.7-0.8-4c0.9-1.3,2.7-1.6,4-0.8l6.2,4.2
			c1.3,0.9,1.6,2.7,0.8,4C25.3,98.4,24.4,98.8,23.5,98.8z"/>
		<path class="st6" d="M17.3,128.2c-0.9,0-1.8-0.4-2.4-1.2c-0.9-1.3-0.5-3.1,0.8-4l6.2-4.2c1.3-0.9,3.1-0.5,4,0.8
			c0.9,1.3,0.5,3.1-0.8,4l-6.2,4.2C18.4,128.1,17.8,128.2,17.3,128.2z"/>
		<path class="st6" d="M156.4,111.4h-19.2c-1.6,0-2.9-1.3-2.9-2.9s1.3-2.9,2.9-2.9h19.2c1.6,0,2.9,1.3,2.9,2.9
			C159.2,110.1,157.9,111.4,156.4,111.4z"/>
		<path class="st6" d="M144,128.2c-0.6,0-1.1-0.2-1.6-0.5l-6.2-4.2c-1.3-0.9-1.6-2.7-0.8-4c0.9-1.3,2.7-1.6,4-0.8l6.2,4.2
			c1.3,0.9,1.6,2.7,0.8,4C145.8,127.8,144.9,128.2,144,128.2z"/>
		<path class="st6" d="M137.8,98.8c-0.9,0-1.8-0.4-2.4-1.2c-0.9-1.3-0.5-3.1,0.8-4l6.2-4.2c1.3-0.9,3.1-0.5,4,0.8s0.5,3.1-0.8,4
			l-6.2,4.2C138.9,98.7,138.3,98.8,137.8,98.8z"/>
	</g>
	<g>
		<rect x="36.3" y="39.9" class="st5" width="90.4" height="20.1"/>
		<rect x="36.3" y="166" class="st5" width="90.4" height="20.1"/>
	</g>
	<g class="st7">
		<path class="st8" d="M126.1,33.3c-0.2-0.5-0.4-0.9-0.7-1.3c-1.4-2-3.7-3.4-6.3-3.4h-3.5v0.2v20.1v106V176v2.4
			c0,4.2-3.4,7.6-7.6,7.6H36.3v3.6c0,4.2,3.4,7.6,7.6,7.6h75.2c4.2,0,7.6-3.4,7.6-7.6V187v-21V60V39.9v-3.6
			C126.7,35.2,126.5,34.2,126.1,33.3z"/>
	</g>
</g>
<g id="Layer_36">
	<path class="st9" d="M172.9,117.7c15,0,27.1-12.1,27.1-27.1s-12.1-27.1-27.1-27.1s-27.1,12.1-27.1,27.1c0,3.2,0.5,6.2,1.5,9
		L172.9,117.7z"/>
	<path class="st10" d="M172.9,63.5c-1.1,0-2.1,0.1-3.1,0.2c13.5,1.6,24,13,24,26.9c0,13.1-9.3,24-21.6,26.5l0.8,0.6
		c15,0,27.1-12.1,27.1-27.1S187.9,63.5,172.9,63.5z"/>
	<path class="st11" d="M172.9,108.7c10,0,18.1-8.1,18.1-18.1s-8.1-18.1-18.1-18.1s-18.1,8.1-18.1,18.1c0,3.3,0.9,6.4,2.4,9
		L172.9,108.7z"/>
	<path class="st10" d="M187,101.8l-11.2-11.2L187,79.4c-0.9-1.1-1.8-2-2.9-2.9l-11.2,11.2l-11.2-11.2c-1.1,0.9-2,1.8-2.9,2.9
		L170,90.6l-7.6,7.6c-0.8,0.8-0.8,2.1,0,2.9c0.4,0.4,0.9,0.6,1.4,0.6s1-0.2,1.4-0.6l7.6-7.6l11.2,11.2
		C185.2,103.9,186.2,102.9,187,101.8z"/>
	<rect x="136.8" y="177.1" class="st12" width="9" height="16.8"/>
	<path class="st13" d="M172.9,149.3c0,17.5-14.2,31.7-31.7,31.6c-17.5-0.1-31.5-14.5-31.5-32v-47.7c0-0.9,0.7-1.6,1.6-1.6h60
		c0.9,0,1.6,0.7,1.6,1.6V149.3z"/>
	<path class="st14" d="M171.3,99.6h-5.5c0.9,0,1.6,0.7,1.6,1.6v48c0,16.5-12.7,30.1-28.9,31.5c0.9,0.1,1.7,0.1,2.6,0.1
		c17.5,0.1,31.7-14.1,31.7-31.6v-48C172.9,100.4,172.2,99.6,171.3,99.6z"/>
	<path class="st9" d="M163.9,149.3c0,12.5-10.3,22.7-22.8,22.6c-12.4-0.1-22.4-10.4-22.4-22.9v-16.1c0-0.9,0.7-1.6,1.6-1.6h41.9
		c0.9,0,1.6,0.7,1.6,1.6L163.9,149.3z"/>
	<g>
		<path class="st10" d="M162.2,131.2h-7.1c0.9,0,1.6,0.7,1.6,1.6v16.4c0,11.2-8.3,20.6-19,22.3c1.1,0.2,2.2,0.3,3.3,0.3
			c12.6,0.1,22.8-10.1,22.8-22.6v-16.4C163.9,132,163.1,131.2,162.2,131.2z"/>
		<path class="st10" d="M136.8,138.2h-9c-1.1,0-2,0.9-2,2s0.9,2,2,2h9c1.1,0,2-0.9,2-2C138.8,139.2,137.9,138.2,136.8,138.2z"/>
		<path class="st10" d="M154.8,151.8h-9c-1.1,0-2,0.9-2,2s0.9,2,2,2h9c1.1,0,2-0.9,2-2C156.9,152.7,156,151.8,154.8,151.8z"/>
	</g>
	<path class="st15" d="M136.6,131.2L122.8,76c-0.3-1.3-1.3-2.4-2.5-2.9l-21.1-8.4c-0.8-0.3-1.8,0.1-2.1,0.9l-1.9,4.8
		c-0.3,0.8,0.1,1.8,0.9,2.1l18.3,7.3c0.5,0.2,0.9,0.6,1,1.1l12.6,50.3H136.6z"/>
	<path class="st13" d="M166.6,199c1,0,1.8-1,1.6-2c-0.9-4-4.5-7.1-8.8-7.1h-36c-4.3,0-7.9,3-8.8,7.1c-0.2,1,0.6,2,1.6,2H166.6z"/>
	<path class="st16" d="M120.3,73.1l-0.7-0.3l-6.5,6.5l1.3,0.5c0.5,0.2,0.9,0.6,1,1.1l0.4,1.5l7-7C122.2,74.4,121.4,73.6,120.3,73.1z
		"/>
	<path class="st14" d="M168.2,197c-0.9-4-4.5-7.1-8.8-7.1h-5.5c4.3,0,7.9,3,8.8,7.1c0.2,1-0.6,2-1.6,2h5.5
		C167.6,199,168.4,198,168.2,197z"/>
</g>
</svg>
