<?xml version="1.0" encoding="utf-8"?>
<!-- Generator: Adobe Illustrator 19.2.0, SVG Export Plug-In . SVG Version: 6.00 Build 0)  -->
<svg version="1.1" id="Layer_1" xmlns="http://www.w3.org/2000/svg" xmlns:xlink="http://www.w3.org/1999/xlink" x="0px" y="0px"
	 viewBox="0 0 200 200" style="enable-background:new 0 0 200 200;" xml:space="preserve">
<style type="text/css">
	.st0{fill:#93CC52;}
	.st1{fill:#E6E6E6;}
	.st2{fill:#CCCCCC;}
	.st3{fill:#B3B3B3;}
	.st4{fill:#FFD41D;}
	.st5{fill:#F94848;}
	.st6{fill:#F97D7D;}
	.st7{fill:#EFC71D;}
	.st8{fill:#4CA1E0;}
	.st9{fill:#A3E261;}
	.st10{fill:#368CC1;}
	.st11{fill:#FCE275;}
	.st12{fill:#FFA91F;}
	.st13{fill:#E2901A;}
	.st14{fill:#E23D3D;}
	.st15{fill:#DDC55E;}
	.st16{fill:#8BC64A;}
	.st17{fill:#F05251;}
	.st18{opacity:0.1;fill:#010101;enable-background:new    ;}
	.st19{fill:#388D42;}
	.st20{fill:#F79421;}
	.st21{opacity:0.1;}
	.st22{fill:#010101;}
	.st23{fill:#FFC60E;}
</style>
<g id="Layer_93">
	<g>
		<path class="st0" d="M106.1,34.3c-3.9,2.4-5.1,17-7.5,20.7c-3.7-2.7-11.9-12.5-16.8-12.5c-1.3,0-0.8-3.1-2-2.9
			c0.4-4,1.6-7.9,3.8-11.6l4.5-7.9l7.9,4.5C100.2,27,103.6,30.4,106.1,34.3z"/>
		<path class="st1" d="M193.8,86.1c0,51.8-42,93.8-93.8,93.8s-93.8-42-93.8-93.8"/>
		<path class="st2" d="M38.4,86.1H6.2c0,51.8,42,93.8,93.8,93.8c5.5,0,10.9-0.5,16.1-1.4C72,170.9,38.4,132.4,38.4,86.1z"/>
		<g>
			<path class="st3" d="M170.2,61.3l-2.8,4c-0.6-2.2-1.5-4.3-2.6-6.2C166.7,59.8,168.5,60.5,170.2,61.3z"/>
			<path class="st3" d="M193.8,86.1c0,0.1,0,0.3,0,0.4c-0.1,4.2-2,8.3-5.3,12L94.7,71.8l86.2-4.7C189.1,72.7,193.8,79.2,193.8,86.1z
				"/>
			<path class="st3" d="M179.6,85.1c-3.6,2.4-73.2,21.1-73.2,25.7c0,0.4-86.7-5.6-86.7-5.3C11.2,99.9,6.2,93.2,6.2,86.1
				c0-7.3,5.2-14.1,14.2-19.8c-0.9,2.7,93.2-12.1,93.2-9.1C113.6,64.2,175.4,80.1,179.6,85.1z"/>
		</g>
		<path class="st4" d="M167.4,65.3l2.6,13.9l-13,15.9l-24.9,2.5c-0.4-0.6-0.8-1.2-1.3-1.7c-3.5-3.5-9.1-3.6-12.7-0.3l-0.2-0.3
			c0.5-0.3,1-0.7,1.4-1.2c3.6-3.6,3.6-9.4,0-13c-3.6-3.6-9.4-3.6-13,0c1.6-1.6,2.4-3.5,2.7-5.6c9.4-5.4,14.8-15.5,14.7-25.8
			c4.6-3.2,10.3-5.2,16.3-5.2c10.7,0,20,5.9,24.9,14.6C166,61,166.8,63.1,167.4,65.3z"/>
		<path class="st5" d="M180.9,67.2l7.6,31.4c-1.1,1.3-2.5,2.5-3.9,3.8l-18.2-7.5l-4.6-21.3l5.7-8.2l2.8-4h0l6.9-9.9L180.9,67.2z"/>
		<path class="st6" d="M161.8,73.5l22.8,28.8c-8.8,7.2-23.2,13.2-41,16.9l10-56.2L161.8,73.5z"/>
		<path class="st7" d="M126.1,73c0-13.2,9-24.3,21.2-27.5c-2.3-0.6-4.7-0.9-7.3-0.9c-15.7,0-28.5,12.7-28.5,28.5
			s12.7,28.5,28.5,28.5c2.5,0,4.9-0.3,7.3-0.9C135.1,97.3,126.1,86.2,126.1,73z"/>
		<path class="st5" d="M153.5,63.1l-10,56.2c-5.8,1.2-12,2.2-18.4,2.9c1.1-3.2-11.3-7.2-12.3-7.6l-10-5.8
			c3.4,1.7,31.5-7.6,29.3-11.1L153.5,63.1z"/>
		<g>
			<path class="st8" d="M132.2,97.6c2.2,3.6,1.7,8.3-1.3,11.3c-2.9,2.9-7.1,3.4-10.5,1.8c-0.9-0.4-1.7-1-2.5-1.8
				c-3.6-3.6-3.6-9.4,0-13c0.1-0.1,0.2-0.2,0.3-0.3c3.6-3.3,9.2-3.2,12.7,0.3C131.4,96.5,131.8,97,132.2,97.6z"/>
			<path class="st8" d="M122.9,112.7c2.6,2.6,3.3,6.3,2.2,9.5c-5.5,0.6-11.1,1-16.9,1.2c-1.8-3.5-1.2-7.8,1.7-10.7
				c0.3-0.3,0.6-0.6,0.9-0.8c2.8-2.1,6.4-2.4,9.5-1C121.2,111.3,122.1,111.9,122.9,112.7z"/>
		</g>
		<path class="st9" d="M123.7,49.7C123.8,60,118.4,70,109,75.5c0.3-2.7-7.6,2.7-9.7,0.6c-0.4-0.4-9.7-6.2-10.2-6.6
			c0.5-1.8,1.3-10,1.3-11.9c0-7.3,11.7-10.1,6.2-14.1c2.3-3.7,5.5-6.9,9.4-9.3c0.8-0.5,1.7-1,2.6-1.4l8.2-4l4,8.2
			C122.7,41.1,123.7,45.4,123.7,49.7z"/>
		<path class="st10" d="M120.3,110.8L120.3,110.8c-3.1-1.4-6.8-1-9.5,1.1l-0.1-0.1c0.2-0.2,0.5-0.4,0.7-0.6c3.6-3.6,3.6-9.4,0-13
			c-0.8-0.8-1.7-1.4-2.6-1.8l0.2-0.3c2.9,1.3,6.3,1.1,9-0.7l0.2,0.3c-0.1,0.1-0.2,0.2-0.3,0.3c-3.6,3.6-3.6,9.4,0,13
			C118.6,109.7,119.4,110.3,120.3,110.8z"/>
		<g>
			<path class="st8" d="M119.4,81.1c3.6,3.6,3.6,9.4,0,13c-0.5,0.5-0.9,0.8-1.4,1.2c-2.7,1.8-6.1,2-9,0.7c-0.9-0.4-1.8-1.1-2.6-1.8
				c-3.6-3.6-3.6-9.4,0-13C109.9,77.4,115.8,77.4,119.4,81.1z"/>
			<path class="st8" d="M111.4,98.1c3.6,3.6,3.6,9.4,0,13c-0.2,0.2-0.5,0.4-0.7,0.6c-3.6,3-9,2.7-12.3-0.6c-3.6-3.6-3.6-9.4,0-13
				c2.8-2.8,7-3.4,10.4-1.8C109.8,96.7,110.6,97.3,111.4,98.1z"/>
		</g>
		<g>
			<path class="st10" d="M110.7,111.8L110.7,111.8c-0.2,0.3-0.6,0.6-0.9,0.9c-2.9,2.9-3.5,7.3-1.7,10.7c-2.7,0.1-5.4,0.1-8.2,0.1
				c-1.7,0-3.5,0-5.2-0.1v-23.2c1.3-0.4,2.5-1.2,3.6-2.2c-3.6,3.6-3.6,9.4,0,13C101.8,114.5,107.1,114.7,110.7,111.8z"/>
			<path class="st10" d="M116.1,112.7c-2.8,2.8-3.4,7-1.8,10.4c-2,0.1-4,0.2-6.1,0.3h0c-1.8-3.5-1.2-7.8,1.7-10.7
				c2.6-2.6,6.4-3.3,9.6-2.2C118.3,110.9,117.1,111.7,116.1,112.7z"/>
			<path class="st10" d="M126.6,110.8c-0.9-0.4-1.8-1.1-2.6-1.8c-3.6-3.6-3.6-9.4,0-13c1-1,2.2-1.7,3.4-2.2c-3.2-1.2-7-0.4-9.6,2.2
				c-3.6,3.6-3.6,9.4,0,13c0.8,0.8,1.7,1.4,2.6,1.8c2.2,1,4.7,1.1,7,0.3C127.2,111,126.9,110.9,126.6,110.8z"/>
			<path class="st10" d="M107.2,113c-0.9-0.4-1.8-1.1-2.6-1.8c-3.6-3.6-3.6-9.4,0-13c1-1,2.2-1.7,3.4-2.2c-3.2-1.2-7-0.4-9.6,2.2
				c-3.6,3.6-3.6,9.4,0,13c0.8,0.8,1.7,1.4,2.6,1.8c2.2,1,4.7,1.1,7,0.3C107.7,113.2,107.5,113.1,107.2,113z"/>
			<path class="st10" d="M115.1,95.9c-0.9-0.4-1.8-1.1-2.6-1.8c-3.6-3.6-3.6-9.4,0-13c1-1,2.2-1.7,3.4-2.2c-3.2-1.2-7-0.4-9.6,2.2
				c-3.6,3.6-3.6,9.4,0,13c0.8,0.8,1.7,1.4,2.6,1.8c2.2,1,4.7,1.1,7,0.3C115.7,96.2,115.4,96,115.1,95.9z"/>
		</g>
		<path class="st4" d="M105.6,61.3c0,1.9-0.2,3.8-0.7,5.6c-3.6-2.4-4.9,3.8-8.1,7c-3.6,3.6-3.4,1.7,0.2,5.3c0.8,0.8-2,3.3-1.1,3.8
			l-0.1,0.3c-3.4-1.6-7.6,2.8-10.4,5.6c3.6-3.6-6.5-5.4-10.1-9c-2.6-2.6-6.6-3.4-9.9-2.1c-1.4-7.6,4.5-21.9-1.6-26.1
			c3-6.2,8.9-10.8,16-12c1.2-0.2,2.5-0.3,3.8-0.3c4.9,0,9.4,1.6,13,4.3C102.1,47.5,105.6,54,105.6,61.3z"/>
		<path class="st8" d="M106.3,68c2,2,2.9,4.8,2.7,7.5c-0.2,2-1.1,4-2.7,5.6c-2.8,2.8-7,3.4-10.4,1.8c-0.9-0.4-1.8-1.1-2.6-1.8
			c-3.6-3.6-3.6-9.4,0-13c3.2-3.2,8-3.5,11.6-1.2C105.4,67.2,105.9,67.6,106.3,68z"/>
		<g>
			<path class="st10" d="M108.9,95.9l-0.2,0.3c-3.4-1.6-7.6-1-10.4,1.8c3.6-3.6,3.6-9.4,0-13c-0.8-0.8-1.7-1.4-2.6-1.8l0.1-0.3
				c3.4,1.6,7.6,1,10.4-1.8c-3.6,3.6-3.6,9.4,0,13C107.1,94.9,108,95.5,108.9,95.9z"/>
			<path class="st10" d="M97.1,78.3c3.6,3.6,3.6,9.4,0,13c-0.8,0.8-1.7,1.4-2.7,1.9h0c-1.8-0.3-3.8-0.5-5.8-0.5
				c-0.8,0-1.7,0-2.5,0.1h0c-0.2-0.1-0.4-0.2-0.6-0.4c-0.5-0.3-1-0.7-1.4-1.1c-2.1-2.1-3-5-2.6-7.8c0.3-1.9,1.1-3.8,2.6-5.3
				c1-1,2.1-1.7,3.2-2.1C90.6,75,94.5,75.7,97.1,78.3z"/>
			<path class="st10" d="M102.1,82.9c-0.9-0.4-1.8-1.1-2.6-1.8c-3.6-3.6-3.6-9.4,0-13c1-1,2.2-1.7,3.4-2.2c-3.2-1.2-7-0.4-9.6,2.2
				c-3.6,3.6-3.6,9.4,0,13c0.8,0.8,1.7,1.4,2.6,1.8c2.2,1,4.7,1.1,7,0.3C102.6,83.1,102.4,83,102.1,82.9z"/>
			<path class="st10" d="M98.4,85c3.6,3.6,3.6,9.4,0,13c-1,1-2.3,1.8-3.6,2.2V95c0-3.6-4.6-6.6-11-7.9c0.4-0.8,0.9-1.5,1.6-2.1
				c2.8-2.8,7-3.4,10.4-1.8C96.7,83.6,97.6,84.2,98.4,85z"/>
		</g>
		<path class="st11" d="M94.8,95v28.4c-8.4-0.2-16.5-0.8-24.2-1.8c-4.1-0.5-8.1-1.2-11.9-1.9V95c0,3.7,4.9,6.9,11.9,8.1
			c1.9,0.3,4,0.5,6.1,0.5C86.8,103.6,94.8,99.8,94.8,95z"/>
		<path class="st8" d="M85.3,72c3.6,3.6,3.6,9.4,0,13c-0.8,0.8-1.7,1.4-2.7,1.9h0c-1.8-0.3-3.8-0.5-5.8-0.5c-0.8,0-1.7,0-2.5,0.1h0
			c-0.2-0.1-0.4-0.2-0.6-0.4c-0.5-0.3-1-0.7-1.4-1.1c-2.1-2.1-3-5-2.6-7.8c0.3-1.9,1.1-3.8,2.6-5.3c1-1,2.1-1.7,3.2-2.1
			C78.8,68.6,82.7,69.3,85.3,72z"/>
		<path class="st12" d="M69.7,77.3c-0.4,2.8,0.5,5.7,2.6,7.8c0.4,0.4,0.9,0.8,1.4,1.1c-0.1,0.1-0.1,0.3-0.2,0.4
			c-8.4,0.7-14.7,4.2-14.7,8.4v6c-3.5,1.5-7.3,2.3-11.3,2.3c-0.4,0-0.7,0-1.1,0c-0.6-6.9-6.3-12.3-13.3-12.3c-2.7,0-5.2,0.8-7.3,2.2
			c-4.2-5-6.7-11.4-6.7-18.4c0-3,0.5-5.9,1.3-8.6C24,54.8,34.8,46.5,47.5,46.5c6,0,11.7,1.9,16.3,5.1c6.1,4.2,10.4,10.8,11.8,18.3
			c-1.2,0.4-2.3,1.1-3.2,2.1C70.8,73.5,70,75.3,69.7,77.3z"/>
		<g>
			<path class="st10" d="M81.1,86.9c-0.9-0.4-1.8-1.1-2.6-1.8c-3.6-3.6-3.6-9.4,0-13c1-1,2.2-1.7,3.4-2.2c-3.2-1.2-7-0.4-9.6,2.2
				c-3.6,3.6-3.6,9.4,0,13c0.8,0.8,1.7,1.4,2.6,1.8c2.2,1,4.7,1.1,7,0.3C81.7,87.1,81.4,87,81.1,86.9z"/>
			<path class="st10" d="M58.8,101.1v18.7c-6.4-1.2-12.3-2.8-17.8-4.5c3.3-2.4,5.4-6.3,5.4-10.7c0-0.4,0-0.7,0-1.1
				c0.4,0,0.7,0,1.1,0C51.5,103.4,55.3,102.6,58.8,101.1z"/>
		</g>
		<path class="st13" d="M33.6,74.9c0-13.2,9-24.3,21.2-27.5c-2.3-0.6-4.7-0.9-7.3-0.9c-15.7,0-28.5,12.7-28.5,28.5
			s12.7,28.5,28.5,28.5c2.5,0,4.9-0.3,7.3-0.9C42.6,99.3,33.6,88.2,33.6,74.9z"/>
		<path class="st5" d="M46.4,103.4c0,0.4,0,0.7,0,1.1c0,4.4-2.1,8.3-5.4,10.7c-8.4-2.7-15.6-6-21.2-9.7c0-0.4,0-0.7,0-1.1
			c0-4.7,2.4-8.8,6-11.2c2.1-1.4,4.6-2.2,7.3-2.2C40.1,91.1,45.9,96.5,46.4,103.4z"/>
		<path class="st14" d="M26.8,103.4c0,0.4,0,0.7,0,1.1c0,2,0.5,3.9,1.2,5.6c-3-1.4-5.8-3-8.2-4.6c0-0.4,0-0.7,0-1.1
			c0-4.7,2.4-8.8,6-11.2c2.1-1.4,4.6-2.2,7.3-2.2c1.2,0,2.4,0.2,3.5,0.5C31.3,93,27.3,97.7,26.8,103.4z"/>
		<path class="st15" d="M70.7,103.1v18.6c-4.1-0.5-8.1-1.2-11.9-1.9V95C58.8,98.8,63.7,101.9,70.7,103.1z"/>
		<path class="st7" d="M75.6,69.9c-1.4-7.6-5.7-14.1-11.8-18.3c3-6.2,8.9-10.8,16-12c1.2-0.2,2.5-0.3,3.8-0.3
			C83.6,39.2,74.3,53.3,75.6,69.9z"/>
		<path class="st11" d="M83.8,87.1c6.5,1.3,11,4.4,11,7.9c0,4.7-8.1,8.6-18,8.6c-9.9,0-18-3.8-18-8.6c0-4.2,6.3-7.7,14.7-8.4
			c0.3,0,0.5,0,0.8-0.1h0c0.8-0.1,1.7-0.1,2.5-0.1c2,0,4,0.2,5.8,0.5h0C83,87,83.4,87.1,83.8,87.1z"/>
		<path class="st15" d="M76.8,96.3c-3.7,0-6.5-0.6-8.3-1.3c1.4-0.5,3.3-1,5.7-1.2l0.1,0c0.1,0,0.2,0,0.3,0h0l0.3,0
			c0.7,0,1.3-0.1,2-0.1c1.6,0,3.2,0.1,4.6,0.4l0.6,0.1c0.1,0,0.2,0,0.3,0.1c1.1,0.2,2.1,0.5,2.8,0.8C83.3,95.7,80.5,96.3,76.8,96.3z
			"/>
	</g>
	<g>
		<path class="st16" d="M33.6,155.6c0.6-0.4,1.4-0.7,2.3-0.9v-4.4c0-1.3-1-2.3-2.3-2.3s-2.3,1-2.3,2.3v4.4
			C32.2,155,33,155.3,33.6,155.6z"/>
		<path class="st17" d="M57.2,198.5h-8.3l0,0c-4,0-7.4-2.8-8.1-6.7l-0.1-0.4c-0.7-3.9,1.4-7.7,5.2-9.1l18.6-7.1
			c-1-7.7-6.4-14.1-13.8-17c-0.7,1.2-3.2,2.3-6.4,2.6c-0.1,0-0.2,0.1-0.3,0.2c0,0.1,0,0.2,0.1,0.3c1.7,1.3,2.7,2.8,2.8,3.8
			c0,0.4-0.1,0.7-0.3,0.9c-0.4,0.4-1.2,0.7-2.2,0.7l0,0c-2.1,0-4.9-0.9-7.5-2.3c-1.2-0.6-2.2-1.3-3.1-2.1c-0.1,0-0.1-0.1-0.2-0.1
			c-0.1,0-0.1,0-0.2,0.1c-0.9,0.7-1.9,1.4-3.1,2.1c-2.6,1.5-5.4,2.3-7.5,2.3c-1.1,0-1.8-0.2-2.2-0.7c-0.2-0.2-0.3-0.5-0.3-0.9
			c0.1-1,1.1-2.4,2.8-3.8c0.1-0.1,0.1-0.2,0.1-0.3s-0.1-0.2-0.3-0.2c-3.2-0.4-5.7-1.4-6.4-2.6C8.3,161.5,2.6,169,2.6,177.7
			c0,11.7,10.3,21.2,23.1,21.2h32C58,198.8,57.8,198.6,57.2,198.5z"/>
		<path class="st18" d="M12.6,177.5c0-7,3.6-13.1,9.3-17c-2.7-0.5-4.7-1.4-5.3-2.5c-8.2,3.3-13.9,10.8-13.9,19.5
			c0,11.7,10.3,21.2,23.1,21.2h10C22.9,198.8,12.6,189.3,12.6,177.5z"/>
		<path class="st19" d="M51.2,157.3c0-2.1-4.3-3.8-9.7-3.8c-3.3,0-6.2,0.6-7.9,1.6c-1.7-1-4.6-1.6-7.9-1.6c-5.3,0-9.7,1.7-9.7,3.8
			c0,1.7,2.9,3.2,6.9,3.7c-2.4,2-3.6,4-2.6,5.1c1.3,1.5,5.9,0.8,10.1-1.6c1.2-0.7,2.3-1.4,3.1-2.1c0.9,0.7,1.9,1.5,3.1,2.1
			c4.3,2.4,8.8,3.1,10.1,1.6c1-1.1-0.1-3.2-2.6-5.1C48.3,160.5,51.2,159.1,51.2,157.3z"/>
		<path class="st16" d="M160.1,171l-0.6-3.3c-0.2-1.2-1.3-1.9-2.5-1.7l-23.9,4.4l15.3-10.2c0.7-0.5,1.1-1.3,0.9-2.2
			c0-0.2-0.1-0.4-0.2-0.7l-1.7-3.1c-0.3-0.5-0.8-0.9-1.3-1c-0.6-0.1-1.1-0.1-1.6,0.2l-19.9,11.7l3.8,20.3l22.8,4.1
			c0.6,0.1,1.2,0,1.6-0.4c0.5-0.3,0.8-0.8,0.9-1.4l0.5-3.5c0-0.2,0-0.5,0-0.7c-0.2-0.8-0.8-1.5-1.6-1.7l-17.9-4.1l23.9-4.4
			C159.6,173.3,160.4,172.2,160.1,171z"/>
		<path class="st20" d="M40.5,191.8c0.7,4,4.3,7,8.4,7h72c2.5,0,4.9-1.1,6.6-3.1c1.6-1.9,2.3-4.5,1.8-7l-4.8-26
			c-0.5-2.5-2-4.6-4.2-5.9c-2.2-1.2-4.9-1.4-7.2-0.5l-67.3,25.6c-3.8,1.5-6.1,5.5-5.4,9.5L40.5,191.8z"/>
		<g class="st21">
			<path class="st22" d="M40.5,191.8c0.1,0.6,0.3,1.2,0.5,1.8c1-1.8,2.6-3.2,4.6-4l70.3-26.7c2.5-0.9,5.2-0.7,7.5,0.6
				c0.5,0.3,0.9,0.6,1.4,0.9l-0.3-1.7c-0.5-2.5-2-4.6-4.2-5.9c-2.2-1.2-4.9-1.4-7.2-0.5l-67.3,25.6c-3.8,1.5-6.1,5.5-5.4,9.5
				L40.5,191.8z"/>
		</g>
		<g>
			<path class="st23" d="M116.7,187.9c-0.2-1.3-1.5-2.1-2.7-1.8c-1.3,0.2-2.1,1.4-1.8,2.7l1.9,9.9h4.7L116.7,187.9z"/>
			<path class="st23" d="M104.2,190.7c-0.2-1.3-1.4-2.1-2.7-1.8c-1.3,0.2-2.1,1.4-1.8,2.7l1.4,7.2h4.7L104.2,190.7z"/>
			<path class="st23" d="M92,173.3c0.3,1,1.2,1.7,2.2,1.7c0.2,0,0.4,0,0.6-0.1c1.2-0.3,2-1.6,1.7-2.8l-2.2-8.7l-4.3,1.7L92,173.3z"
				/>
			<path class="st23" d="M80,188.7c-0.2-1.3-1.4-2.1-2.7-1.9c-1.3,0.2-2.1,1.4-1.9,2.7l1.7,9.3h4.7L80,188.7z"/>
			<path class="st23" d="M56.7,184.4c0.2,1.1,1.2,1.8,2.3,1.8c0.2,0,0.3,0,0.5,0c1.2-0.3,2-1.5,1.8-2.7l-1.4-6.9l-4.4,1.7
				L56.7,184.4z"/>
		</g>
	</g>
</g>
</svg>
