<?xml version="1.0" encoding="utf-8"?>
<!-- Generator: Adobe Illustrator 19.2.0, SVG Export Plug-In . SVG Version: 6.00 Build 0)  -->
<svg version="1.1" id="Layer_1" xmlns="http://www.w3.org/2000/svg" xmlns:xlink="http://www.w3.org/1999/xlink" x="0px" y="0px"
	 viewBox="0 0 200 200" style="enable-background:new 0 0 200 200;" xml:space="preserve">
<style type="text/css">
	.st0{fill:#41B3E6;}
	.st1{fill:#426DB5;}
	.st2{fill:#FBE8CC;}
	.st3{fill:#F9DAB7;}
	.st4{fill:#88CEF2;}
	.st5{fill:#E6E6E5;}
	.st6{fill:#EF4828;}
</style>
<g id="Layer_21">
	<path class="st0" d="M87.7,198.6H8.4V66.4h79.3C87.7,66.4,87.7,198.6,87.7,198.6z"/>
	<path class="st1" d="M74.5,66.4H21.7V46.6h52.8V66.4z"/>
	<path class="st2" d="M200,125.9h-3.5c-2.1,0-4.1-0.5-5.9-1.4l-7.6-3.8c-1.8-0.9-3.9-1.4-5.9-1.4h-30.5c-1.8,0-3.4,0.7-4.7,1.9
		c-2.6,2.6-2.6,6.8,0,9.3c1.2,1.2,2.9,1.9,4.7,1.9h17.6c1.8,0,3.4,0.7,4.7,1.9c2.6,2.6,2.6,6.8,0,9.3c-1.2,1.2-2.9,1.9-4.7,1.9H140
		c-1.8,0-3.4-0.7-4.7-1.9l-22.4-22.4c-1.3-1.3-3.1-2.1-5-2.1c-3.9,0-7,3.1-7,7c0,1.9,0.7,3.6,2.1,5l25.7,25.7
		c1.2,1.2,2.9,1.9,4.7,1.9H200V125.9z"/>
	<path class="st3" d="M119.5,108.1c-1.3-1.3-3.1-2.1-5-2.1c-3.9,0-7,3.1-7,7c0,1.9,0.7,3.6,2.1,5l25.7,25.7c1.2,1.2,2.9,1.9,4.7,1.9
		h24.3c1.8,0,3.4-0.7,4.7-1.9c2.6-2.6,2.6-6.8,0-9.3c-1.2-1.2-2.9-1.9-4.7-1.9h-17.6c-1.8,0-3.4-0.7-4.7-1.9L119.5,108.1z"/>
	<path class="st0" d="M54.7,46.6H41.5V20.2h13.2V46.6z"/>
	<path class="st4" d="M34.9,7h57.3c5.3,0,10.3,2.1,14,5.8l8.7,8.7c1.3,1.3,2.1,3.1,2.1,5l0,0c0,3.9-3.1,7-7,7c-1.9,0-3.6-0.7-5-2.1
		l-9.2-9.2c-1.2-1.2-2.9-1.9-4.7-1.9H34.9c-3.6,0-6.6-3-6.6-6.6S31.2,7,34.9,7z"/>
	<path class="st0" d="M123.5,62.6c2.5,2.5,3.9,5.8,3.9,9.3V73c0,7.3-5.9,13.2-13.2,13.2c-7.3,0-13.2-5.9-13.2-13.2v-1.1
		c0-3.5,1.4-6.9,3.9-9.3l9.3-9.3L123.5,62.6z"/>
	<path class="st5" d="M87.7,158.9H8.4v-52.8h79.3C87.7,106.1,87.7,158.9,87.7,158.9z"/>
	<path class="st6" d="M54.7,125.9h6.6v13.2h-6.6v6.6H41.5v-6.6h-6.6v-13.2h6.6v-6.6h13.2V125.9z"/>
</g>
</svg>
