<?xml version="1.0" encoding="utf-8"?>
<!-- Generator: Adobe Illustrator 19.2.0, SVG Export Plug-In . SVG Version: 6.00 Build 0)  -->
<svg version="1.1" id="Layer_1" xmlns="http://www.w3.org/2000/svg" xmlns:xlink="http://www.w3.org/1999/xlink" x="0px" y="0px"
	 viewBox="0 0 200 200" style="enable-background:new 0 0 200 200;" xml:space="preserve">
<style type="text/css">
	.st0{fill:url(#SVGID_1_);}
	.st1{fill:url(#SVGID_2_);}
	.st2{fill:url(#SVGID_3_);}
	.st3{fill:#3D4D5C;}
	.st4{fill:#CDCCCC;}
	.st5{fill:#EAEAEA;}
	.st6{fill:#379FD9;}
	.st7{fill:#54A6DC;}
</style>
<g id="Layer_56">
	
		<linearGradient id="SVGID_1_" gradientUnits="userSpaceOnUse" x1="-41.3961" y1="577.7227" x2="-26.3442" y2="592.7742" gradientTransform="matrix(8 0 0 -8 336 4790)">
		<stop  offset="0" style="stop-color:#1E4486"/>
		<stop  offset="0.518" style="stop-color:#4AC4D1"/>
		<stop  offset="1" style="stop-color:#3F6DB5"/>
	</linearGradient>
	<path class="st0" d="M45.7,150.5h-7.6c-8.3,0-15.1-6.8-15.1-15.1v-8.5c0-1-0.8-1.9-1.9-1.9c-1,0-1.9,0.8-1.9,1.9v8.5
		c0,10.4,8.5,18.9,18.9,18.9h7.6c1,0,1.9-0.8,1.9-1.9S46.8,150.5,45.7,150.5z"/>
	
		<linearGradient id="SVGID_2_" gradientUnits="userSpaceOnUse" x1="-40.5428" y1="576.8683" x2="-25.4921" y2="591.9206" gradientTransform="matrix(8 0 0 -8 336 4790)">
		<stop  offset="0" style="stop-color:#1E4486"/>
		<stop  offset="0.518" style="stop-color:#4AC4D1"/>
		<stop  offset="1" style="stop-color:#3F6DB5"/>
	</linearGradient>
	<path class="st1" d="M125.1,108.9h-5.7V95.6c0-1-0.8-1.9-1.9-1.9h-102c-1,0-1.9,0.8-1.9,1.9v13.2H7.9c-1,0-1.9,0.8-1.9,1.9v17
		c0,1,0.8,1.9,1.9,1.9h5.7v5.7c0,13.6,11,24.6,24.6,24.6h56.7c13.6,0,24.6-11,24.6-24.6v-5.7h5.7c1,0,1.9-0.8,1.9-1.9v-17
		C127,109.7,126.1,108.9,125.1,108.9z M9.8,125.9v-13.2h3.8v13.2H9.8z M115.6,135.3c0,11.5-9.3,20.8-20.8,20.8H38.2
		c-11.5,0-20.8-9.3-20.8-20.8V97.5h98.3v37.8H115.6z M123.2,125.9h-3.8v-13.2h3.8V125.9z"/>
	
		<linearGradient id="SVGID_3_" gradientUnits="userSpaceOnUse" x1="-42.4315" y1="578.756" x2="-27.3789" y2="593.8086" gradientTransform="matrix(8 0 0 -8 336 4790)">
		<stop  offset="0" style="stop-color:#1E4486"/>
		<stop  offset="0.518" style="stop-color:#4AC4D1"/>
		<stop  offset="1" style="stop-color:#3F6DB5"/>
	</linearGradient>
	<path class="st2" d="M11.7,91.9h109.6c1,0,1.9-0.8,1.9-1.9c0-1-0.8-1.9-1.9-1.9H72.2v-5.7c0-1-0.8-1.9-1.9-1.9h-7.6
		c-1,0-1.9,0.8-1.9,1.9v5.7H11.7c-1,0-1.9,0.8-1.9,1.9C9.8,91,10.7,91.9,11.7,91.9z M64.6,84.3h3.8v3.8h-3.8
		C64.6,88.1,64.6,84.3,64.6,84.3z"/>
	<path class="st3" d="M172.3,148.4c0-0.9,0.7-1.6,1.6-1.6h9.6c3.8,0,6.9-3.1,6.9-6.9v-34.7c0-3.8-3.1-6.9-6.9-6.9h-9.6
		c-0.9,0-1.6-0.7-1.6-1.6s0.7-1.6,1.6-1.6h9.6c5.6,0,10.2,4.6,10.2,10.2V140c0,5.6-4.6,10.2-10.2,10.2h-9.6
		C173,150,172.3,149.3,172.3,148.4z"/>
	<path class="st4" d="M141.4,59.1h19.1c2.8,0,5.1,2.3,5.1,5.1v13.5l-29.2,7.9V64.2C136.3,61.4,138.6,59.1,141.4,59.1z"/>
	<g>
		<path class="st5" d="M141.4,59.1h9.2c2.8,0,5.1,2.3,5.1,5.1v13.5l-19.4,7.9V64.2C136.3,61.4,138.6,59.1,141.4,59.1z"/>
		<path class="st5" d="M100.6,110c-2-0.3-8.2-1.2-8.2-6.8c0-1.4,0.6-2.8,1.7-3.8c4-4,15.4-4.7,24.1-4.5c0.9,0,1.6,0.8,1.6,1.7
			c0,0.9-0.7,1.6-1.6,1.6l0,0c-11.4-0.2-19.3,1.2-21.8,3.6c-0.6,0.6-0.7,1.2-0.7,1.5c0,0.9,0,2.8,5.4,3.6c0.9,0.1,1.5,1,1.4,1.9
			c-0.1,0.8-0.8,1.4-1.6,1.4C100.8,110,100.7,110,100.6,110z"/>
		<path class="st5" d="M103.2,128c-2.8-0.8-4.8-3.6-4.4-6.2c0.2-1.5,1.2-2.8,2.7-3.6c1.5-0.8,3.7-1.2,6.3-1.2c6.3,0,9.1-2.2,9.1-3.3
			c0-0.6-0.7-1.3-1.9-1.9c-1.3-0.6-3.8-1.4-8.2-1.4c-0.9,0-1.6-0.7-1.6-1.6s0.7-1.6,1.6-1.6c3.9,0,7.3,0.6,9.6,1.7
			c3.3,1.6,3.8,3.7,3.8,4.8c0,1.9-1.3,3.7-3.7,4.9c-2.2,1.1-5.2,1.7-8.7,1.7c-4.1,0-5.7,1.1-5.8,2c-0.1,1,0.9,2.2,2.1,2.6
			c0.9,0.3,1.4,1.2,1.1,2c-0.2,0.7-0.9,1.2-1.6,1.2C103.5,128.1,103.3,128,103.2,128z"/>
	</g>
	<path class="st6" d="M135.1,77.7h33.3c5,0,9,4,9,9v72.8c0,3.7-3,6.7-6.7,6.7h-38c-3.7,0-6.7-3-6.7-6.7V86.7
		C126.1,81.7,130.1,77.7,135.1,77.7z"/>
	<path class="st7" d="M135.1,77.7h22.1c5,0,9,4,9,9v72.8c0,3.7-3,6.7-6.7,6.7h-26.7c-3.7,0-6.7-3-6.7-6.7V86.7
		C126.1,81.7,130.1,77.7,135.1,77.7z"/>
	<path class="st6" d="M143.8,131.8v25.3c0,5-4,9-9,9h-33.3c-5,0-9-4-9-9v-25.3H143.8z"/>
	<path class="st7" d="M132.1,131.8v25.3c0,5-4,9-9,9h-21.5c-5,0-9-4-9-9v-25.3H132.1z"/>
</g>
</svg>
