<?xml version="1.0" encoding="utf-8"?>
<!-- Generator: Adobe Illustrator 19.2.0, SVG Export Plug-In . SVG Version: 6.00 Build 0)  -->
<svg version="1.1" id="Layer_1" xmlns="http://www.w3.org/2000/svg" xmlns:xlink="http://www.w3.org/1999/xlink" x="0px" y="0px"
	 viewBox="0 0 200 200" style="enable-background:new 0 0 200 200;" xml:space="preserve">
<style type="text/css">
	.st0{fill:#FDC478;}
	.st1{fill:#FEEA99;}
	.st2{fill:#FFDE56;}
	.st3{fill:#FCB557;}
	.st4{fill:#CBE6F8;}
	.st5{fill:#B4DBF4;}
	.st6{fill:#F6A3B4;}
	.st7{fill:#F2727D;}
	.st8{fill:#7BCCBE;}
	.st9{fill:#64C5B6;}
	.st10{fill:#4DB5A6;}
	.st11{fill:#3DA094;}
	.st12{fill:#F15858;}
	.st13{fill:#F292BD;}
	.st14{fill:#F6AFCE;}
	.st15{fill:#EE72AC;}
	.st16{fill:#F05050;}
	.st17{fill:#EF3E3D;}
	.st18{fill:#F0CB4E;}
	.st19{fill:#E5BA40;}
	.st20{fill:#E1EEF9;}
	.st21{fill:#CCDFEC;}
	.st22{fill:#F36E40;}
	.st23{fill:#F4B351;}
	.st24{fill:#EF7A87;}
	.st25{fill:#F8CDAE;}
	.st26{fill:#F69C9B;}
	.st27{fill:#D7455F;}
	.st28{fill:#DDBD9A;}
	.st29{fill:#F5A2AC;}
</style>
<g id="Layer_98">
	<path class="st0" d="M118.6,23.7c-7.2-20.8,30.6-13.5,16.2,3.1c14.4-16.6,27,19.8,5.4,15.6c21.6,4.2-3.6,33.3-10.8,12.5
		c7.2,20.8-30.6,13.5-16.2-3.1c-14.4,16.6-27-19.8-5.4-15.6C86.2,32,111.4,2.9,118.6,23.7z"/>
	<path class="st1" d="M86.8,23.7C94,2.9,56.2,10.3,70.6,26.9c-14.4-16.6-27,19.8-5.4,15.6C43.6,46.6,68.9,75.7,76,54.9
		c-7.2,20.8,30.6,13.5,16.2-3.1c14.4,16.6,27-19.8,5.4-15.6C119.2,32,94,2.9,86.8,23.7z"/>
	<path class="st2" d="M97.6,36.2c1.6-0.3,3-0.8,4.1-1.3c-5.5-6.3-14-9.5-22.5-7.7c-8.3,1.8-14.5,7.9-17.1,15.6c0.9,0,2-0.1,3.1-0.3
		C43.6,46.6,68.9,75.7,76,54.9c-7.2,20.8,30.6,13.5,16.2-3.1C106.7,68.4,119.2,32,97.6,36.2z"/>
	<path class="st3" d="M107.8,36.2c-1.6-0.3-3-0.8-4.1-1.3c5.5-6.3,14-9.5,22.5-7.7c8.3,1.8,14.5,7.9,17.1,15.6c-0.9,0-2-0.1-3.1-0.3
		c21.6,4.2-3.6,33.3-10.8,12.5c7.2,20.8-30.6,13.5-16.2-3.1C98.7,68.4,86.2,32,107.8,36.2z"/>
	<path class="st4" d="M163.4,100l-60.8-15l-60.8,15c0,0-14.7,56.6,60.8,56.6S163.4,100,163.4,100z"/>
	<path class="st5" d="M85.4,139.1C67.6,128,68.6,107,72,92.6L41.9,100c0,0-14.7,56.6,60.8,56.6c4.1,0,7.9-0.2,11.4-0.5
		C109.8,153.8,101.3,149,85.4,139.1z"/>
	<path class="st4" d="M118.6,163.2H86.8l-11,13.7c-5.4,6.7-2.3,16.8,6,19.3c5.5,1.7,12.4,3,20.9,3s15.4-1.3,20.9-3
		c8.3-2.5,11.4-12.6,6-19.3L118.6,163.2z"/>
	<path class="st5" d="M106.3,196.3c-8.3-2.5-11.4-12.6-6-19.3l11-13.7H86.8l-11,13.7c-5.4,6.7-2.3,16.8,6,19.3
		c5.5,1.7,12.4,3,20.9,3c4.5,0,8.6-0.4,12.2-1C111.7,197.7,108.8,197,106.3,196.3z"/>
	<path class="st6" d="M119,170.9H86.4c-4.3,0-7.8-3.5-7.8-7.8l0,0c0-4.3,3.5-7.8,7.8-7.8H119c4.3,0,7.8,3.5,7.8,7.8l0,0
		C126.8,167.4,123.3,170.9,119,170.9z"/>
	<path class="st7" d="M97.7,163.2L97.7,163.2c0-4.3,3.5-7.8,7.8-7.8H86.4c-4.3,0-7.8,3.5-7.8,7.8l0,0c0,4.3,3.5,7.8,7.8,7.8h19.1
		C101.2,170.9,97.7,167.4,97.7,163.2z"/>
	<ellipse transform="matrix(0.5724 -0.82 0.82 0.5724 -61.7454 111.0768)" class="st8" cx="75.6" cy="114.7" rx="27" ry="17.2"/>
	<path class="st9" d="M60.2,136.9c5.1,3.6,12.6,2.4,19.5-2.2c-11.1-11-10.8-27.3-8.2-39.8c-3.6,2.4-7.1,5.8-10,10
		C53,117.1,52.4,131.4,60.2,136.9z"/>
	<path class="st10" d="M91.1,92.5c-0.8-0.6-1.6-1-2.5-1.3l-22.1,31.6c-0.9,1.3-0.6,3.1,0.7,4c0.5,0.3,2.6,1.1,4-0.7l22.1-31.6
		C92.6,93.7,91.9,93.1,91.1,92.5z"/>
	<path class="st11" d="M70.7,116.8l-4.2,6c-0.9,1.3-0.6,3.1,0.7,4c0.5,0.3,2.6,1.1,4-0.7l1.5-2.2C71.8,121.6,71.1,119.2,70.7,116.8z
		"/>
	<ellipse transform="matrix(0.82 -0.5724 0.5724 0.82 -42.3151 94.8962)" class="st8" cx="129.7" cy="114.7" rx="17.2" ry="27"/>
	<path class="st10" d="M138.9,122.8l-22.1-31.6c-0.9,0.3-1.7,0.8-2.5,1.3c-0.8,0.6-1.5,1.2-2.1,1.9l22.1,31.6c1.5,1.8,3.5,1,4,0.7
		C139.5,125.9,139.8,124.1,138.9,122.8z"/>
	<path class="st7" d="M70.6,57.8c8.9-25.9-38.1-16.8-20.2,3.9c-18-20.7-33.6,24.6-6.7,19.4c-26.9,5.2,4.5,41.4,13.5,15.5
		c-8.9,25.9,38.1,16.8,20.2-3.9c18,20.7,33.6-24.6,6.7-19.4C111,68.1,79.5,31.9,70.6,57.8z"/>
	<path class="st12" d="M84.1,73.3c26.9-5.2-4.5-41.4-13.5-15.5c0.8-2.4,1.2-4.5,1.1-6.3c-12.5,1.5-22.1,12.2-22.1,25
		c0,13.9,11.3,25.2,25.2,25.2c1.9,0,4.2-0.2,6.6-0.7c-0.2-2.5-1.4-5.3-4.1-8.4C95.3,113.5,111,68.1,84.1,73.3z"/>
	<path class="st7" d="M134.8,57.8c-8.9-25.9,38.1-16.8,20.2,3.9c18-20.7,33.6,24.6,6.7,19.4c26.9,5.2-4.5,41.4-13.5,15.5
		c8.9,25.9-38.1,16.8-20.2-3.9c-18,20.7-33.6-24.6-6.7-19.4C94.4,68.1,125.9,31.9,134.8,57.8z"/>
	<path class="st12" d="M121.3,73.3c-26.9-5.2,4.5-41.4,13.5-15.5c-0.8-2.4-1.2-4.5-1.1-6.3c12.5,1.5,22.1,12.2,22.1,25
		c0,13.9-11.3,25.2-25.2,25.2c-1.9,0-4.2-0.2-6.6-0.7c0.2-2.5,1.4-5.3,4.1-8.4C110.1,113.5,94.4,68.1,121.3,73.3z"/>
	<g>
		<path class="st13" d="M74.3,45c-4.6,4.5-7.9,10.2-9.5,16.4c-1.4,5.5,2.8,10.9,8.5,10.9h29.4L88,46.9C85.1,41.9,78.4,40.9,74.3,45z
			"/>
		<path class="st13" d="M93.2,110.6c6.2,1.7,12.8,1.7,19,0c5.5-1.5,8.1-7.9,5.2-12.8l-14.7-25.4L88,97.8
			C85.1,102.7,87.7,109.1,93.2,110.6z"/>
	</g>
	<g>
		<path class="st14" d="M112.2,34c-6.2-1.7-12.8-1.7-19,0c-5.5,1.5-8.1,7.9-5.2,12.8l14.7,25.4l14.7-25.4
			C120.2,41.9,117.7,35.6,112.2,34z"/>
		<path class="st14" d="M64.8,83.2c1.6,6.2,4.9,11.9,9.5,16.4c4.1,4,10.9,3.1,13.7-1.9l14.7-25.4H73.3
			C67.6,72.3,63.4,77.7,64.8,83.2z"/>
		<path class="st14" d="M131.1,99.7c4.6-4.5,7.9-10.2,9.5-16.4c1.4-5.5-2.8-10.9-8.5-10.9h-29.4l14.7,25.4
			C120.3,102.7,127,103.7,131.1,99.7z"/>
	</g>
	<g>
		<path class="st13" d="M140.6,61.4c-1.6-6.2-4.9-11.9-9.5-16.4c-4.1-4-10.9-3.1-13.7,1.9l-14.7,25.4h29.4
			C137.8,72.3,142,66.9,140.6,61.4z"/>
		<path class="st13" d="M88.8,48.2l13.9,24.1l13.9-24.1c-4.1-2.4-8.8-3.7-13.9-3.7C97.6,44.5,92.9,45.8,88.8,48.2z"/>
		<path class="st13" d="M88.8,96.4l13.9-24.1H74.9c0,4.7,1.2,9.5,3.7,13.9C81.1,90.6,84.7,94,88.8,96.4z"/>
		<path class="st13" d="M130.5,72.3h-27.8l13.9,24.1c4.1-2.4,7.7-5.8,10.2-10.2C129.3,81.8,130.5,77,130.5,72.3z"/>
	</g>
	<g>
		<path class="st15" d="M74.9,72.3h27.8L88.8,48.2c-4.1,2.4-7.7,5.8-10.2,10.2C76,62.8,74.9,67.6,74.9,72.3z"/>
		<path class="st15" d="M116.6,96.4l-13.9-24.1L88.8,96.4c4.1,2.4,8.8,3.7,13.9,3.7C107.8,100.2,112.5,98.8,116.6,96.4z"/>
		<path class="st15" d="M116.6,48.2l-13.9,24.1h27.8c0-4.7-1.2-9.5-3.7-13.9S120.7,50.6,116.6,48.2z"/>
	</g>
	<circle class="st1" cx="102.7" cy="72.3" r="12.7"/>
</g>
<g id="Layer_99">
	<path class="st16" d="M171.5,147.2c1.9,1.1,4.8-0.5,6.5-3.5s1.5-6.3-0.5-7.3c-0.5-0.3-1.1-0.4-1.9-0.5c0.8-0.3,1.5-0.6,1.9-1
		c1.6-1.4,1.1-4.7-1.1-7.3c-2.3-2.6-5.4-3.5-7.1-2c-0.4,0.3-0.8,0.9-1.1,1.5c0-0.6-0.1-1.1-0.3-1.5c-0.8-2-4.1-2.6-7.2-1.3
		s-5.1,4-4.2,6c0.2,0.5,0.6,1.1,1.2,1.7c-0.7-0.2-1.3-0.3-1.8-0.3c-2.2,0.1-3.8,2.9-3.7,6.3s2,6.1,4.2,6c0.8,0,1.9-0.4,3-1.1
		c-0.8,1-1.3,2-1.4,2.8c-0.4,2.2,2.1,4.3,5.5,4.9c3.4,0.6,6.4-0.8,6.7-2.9c0.1-0.5,0-1.1-0.1-1.9
		C170.5,146.4,171.1,146.9,171.5,147.2z"/>
	<path id="SVGCleanerId_0_6_" class="st17" d="M177.5,136.3c-0.5-0.3-1.1-0.4-1.9-0.5c0.8-0.3,1.5-0.6,1.9-1
		c1.6-1.4,1.1-4.6-1.1-7.2l-17.2,15.2c-0.8,1-1.3,2-1.4,2.8c-0.4,2.2,2.1,4.3,5.5,4.9c3.4,0.6,6.4-0.8,6.7-2.9
		c0.1-0.5,0-1.1-0.1-1.9c0.5,0.6,1,1.1,1.5,1.4c1.9,1.1,4.8-0.5,6.5-3.5S179.5,137.4,177.5,136.3z"/>
	<g>
		<path id="SVGCleanerId_0_5_" class="st17" d="M177.5,136.3c-0.5-0.3-1.1-0.4-1.9-0.5c0.8-0.3,1.5-0.6,1.9-1
			c1.6-1.4,1.1-4.6-1.1-7.2l-17.2,15.2c-0.8,1-1.3,2-1.4,2.8c-0.4,2.2,2.1,4.3,5.5,4.9c3.4,0.6,6.4-0.8,6.7-2.9
			c0.1-0.5,0-1.1-0.1-1.9c0.5,0.6,1,1.1,1.5,1.4c1.9,1.1,4.8-0.5,6.5-3.5S179.5,137.4,177.5,136.3z"/>
	</g>
	<path class="st16" d="M184.7,162c1.9,1.1,4.8-0.5,6.5-3.5s1.5-6.3-0.5-7.3c-0.5-0.3-1.1-0.4-1.9-0.5c0.8-0.3,1.5-0.6,1.9-1
		c1.6-1.4,1.1-4.7-1.1-7.3c-2.3-2.6-5.4-3.5-7.1-2c-0.4,0.3-0.8,0.9-1.1,1.5c0-0.6-0.1-1.1-0.3-1.5c-0.8-2-4.1-2.6-7.2-1.3
		c-3.2,1.3-5.1,4-4.2,6c0.2,0.5,0.6,1.1,1.2,1.7c-0.7-0.2-1.3-0.3-1.8-0.3c-2.2,0.1-3.8,2.9-3.7,6.3s2,6.1,4.2,6
		c0.8,0,1.9-0.4,3-1.1c-0.8,1-1.3,2-1.4,2.8c-0.4,2.2,2.1,4.3,5.5,4.9c3.4,0.6,6.4-0.8,6.7-2.9c0.1-0.5,0-1.1-0.1-1.9
		C183.7,161.2,184.2,161.7,184.7,162z"/>
	<ellipse transform="matrix(0.748 -0.6637 0.6637 0.748 -48.9212 144.6287)" class="st18" cx="166" cy="136.7" rx="4" ry="4"/>
	<path class="st19" d="M163.1,139.5c1.5,1.6,4,1.7,5.6,0.3s1.8-3.9,0.4-5.6L163.1,139.5z"/>
	<path class="st17" d="M190.7,151.1c-0.5-0.3-1.1-0.4-1.9-0.5c0.8-0.3,1.5-0.6,1.9-1c1.6-1.4,1.1-4.6-1.1-7.2l-17.2,15.2
		c-0.8,1-1.3,2-1.4,2.8c-0.4,2.2,2.1,4.3,5.5,4.9c3.4,0.6,6.4-0.8,6.7-2.9c0.1-0.5,0-1.1-0.1-1.9c0.5,0.6,1,1.1,1.5,1.4
		c1.9,1.1,4.8-0.5,6.5-3.5C192.8,155.5,192.6,152.2,190.7,151.1z"/>
	<ellipse transform="matrix(0.748 -0.6637 0.6637 0.748 -55.403 157.0954)" class="st18" cx="179.2" cy="151.5" rx="4" ry="4"/>
	<path class="st19" d="M176.3,154.3c1.5,1.6,4,1.7,5.6,0.3s1.8-3.9,0.4-5.6L176.3,154.3z"/>
	<g>
		<path class="st16" d="M155.3,149.9c1.9,1.1,4.8-0.5,6.5-3.5s1.5-6.3-0.5-7.3c-0.5-0.3-1.1-0.4-1.9-0.5c0.8-0.3,1.5-0.6,1.9-1
			c1.6-1.4,1.1-4.7-1.1-7.3c-2.3-2.6-5.4-3.5-7.1-2c-0.4,0.3-0.8,0.9-1.1,1.5c0-0.6-0.1-1.1-0.3-1.5c-0.8-2-4.1-2.6-7.2-1.3
			c-3.2,1.3-5.1,4-4.2,6c0.2,0.5,0.6,1.1,1.2,1.7c-0.7-0.2-1.3-0.3-1.8-0.3c-2.2,0.1-3.8,2.9-3.7,6.3c0.1,3.4,2,6.1,4.2,6
			c0.8,0,1.9-0.4,3-1.1c-0.8,1-1.3,2-1.4,2.8c-0.4,2.2,2.1,4.3,5.5,4.9c3.4,0.6,6.4-0.8,6.7-2.9c0.1-0.5,0-1.1-0.1-1.9
			C154.3,149.1,154.8,149.6,155.3,149.9z M155.3,149.9c1.9,1.1,4.8-0.5,6.5-3.5s1.5-6.3-0.5-7.3c-0.5-0.3-1.1-0.4-1.9-0.5
			c0.8-0.3,1.5-0.6,1.9-1c1.6-1.4,1.1-4.7-1.1-7.3c-2.3-2.6-5.4-3.5-7.1-2c-0.4,0.3-0.8,0.9-1.1,1.5c0-0.6-0.1-1.1-0.3-1.5
			c-0.8-2-4.1-2.6-7.2-1.3c-3.2,1.3-5.1,4-4.2,6c0.2,0.5,0.6,1.1,1.2,1.7c-0.7-0.2-1.3-0.3-1.8-0.3c-2.2,0.1-3.8,2.9-3.7,6.3
			c0.1,3.4,2,6.1,4.2,6c0.8,0,1.9-0.4,3-1.1c-0.8,1-1.3,2-1.4,2.8c-0.4,2.2,2.1,4.3,5.5,4.9c3.4,0.6,6.4-0.8,6.7-2.9
			c0.1-0.5,0-1.1-0.1-1.9C154.3,149.1,154.8,149.6,155.3,149.9z M155.3,149.9c1.9,1.1,4.8-0.5,6.5-3.5s1.5-6.3-0.5-7.3
			c-0.5-0.3-1.1-0.4-1.9-0.5c0.8-0.3,1.5-0.6,1.9-1c1.6-1.4,1.1-4.7-1.1-7.3c-2.3-2.6-5.4-3.5-7.1-2c-0.4,0.3-0.8,0.9-1.1,1.5
			c0-0.6-0.1-1.1-0.3-1.5c-0.8-2-4.1-2.6-7.2-1.3c-3.2,1.3-5.1,4-4.2,6c0.2,0.5,0.6,1.1,1.2,1.7c-0.7-0.2-1.3-0.3-1.8-0.3
			c-2.2,0.1-3.8,2.9-3.7,6.3c0.1,3.4,2,6.1,4.2,6c0.8,0,1.9-0.4,3-1.1c-0.8,1-1.3,2-1.4,2.8c-0.4,2.2,2.1,4.3,5.5,4.9
			c3.4,0.6,6.4-0.8,6.7-2.9c0.1-0.5,0-1.1-0.1-1.9C154.3,149.1,154.8,149.6,155.3,149.9z"/>
		<path class="st16" d="M180.1,177.8c1.9,1.1,4.8-0.5,6.5-3.5s1.5-6.3-0.5-7.3c-0.5-0.3-1.1-0.4-1.9-0.5c0.8-0.3,1.5-0.6,1.9-1
			c1.6-1.4,1.1-4.7-1.1-7.3c-2.3-2.6-5.4-3.5-7.1-2c-0.4,0.3-0.8,0.9-1.1,1.5c0-0.6-0.1-1.1-0.3-1.5c-0.8-2-4.1-2.6-7.2-1.3
			s-5.1,4-4.2,6c0.2,0.5,0.6,1.1,1.2,1.7c-0.7-0.2-1.3-0.3-1.8-0.3c-2.2,0.1-3.8,2.9-3.7,6.3c0.1,3.4,2,6.1,4.2,6
			c0.8,0,1.9-0.4,3-1.1c-0.8,1-1.3,2-1.4,2.8c-0.4,2.2,2.1,4.3,5.5,4.9c3.4,0.6,6.4-0.8,6.7-2.9c0.1-0.5,0-1.1-0.1-1.9
			C179,177,179.6,177.5,180.1,177.8z"/>
		<path class="st16" d="M167.7,163.8c1.9,1.1,4.8-0.5,6.5-3.5s1.5-6.3-0.5-7.3c-0.5-0.3-1.1-0.4-1.9-0.5c0.8-0.3,1.5-0.6,1.9-1
			c1.6-1.4,1.1-4.7-1.1-7.3c-2.3-2.6-5.4-3.5-7.1-2c-0.4,0.3-0.8,0.9-1.1,1.5c0-0.6-0.1-1.1-0.3-1.5c-0.8-2-4.1-2.6-7.2-1.3
			c-3.2,1.3-5.1,4-4.2,6c0.2,0.5,0.6,1.1,1.2,1.7c-0.7-0.2-1.3-0.3-1.8-0.3c-2.2,0.1-3.8,2.9-3.7,6.3c0.1,3.4,2,6.1,4.2,6
			c0.8,0,1.9-0.4,3-1.1c-0.8,1-1.3,2-1.4,2.8c-0.4,2.2,2.1,4.3,5.5,4.9c3.4,0.6,6.4-0.8,6.7-2.9c0.1-0.5,0-1.1-0.1-1.9
			C166.7,163.1,167.2,163.6,167.7,163.8z M167.7,163.8c1.9,1.1,4.8-0.5,6.5-3.5s1.5-6.3-0.5-7.3c-0.5-0.3-1.1-0.4-1.9-0.5
			c0.8-0.3,1.5-0.6,1.9-1c1.6-1.4,1.1-4.7-1.1-7.3c-2.3-2.6-5.4-3.5-7.1-2c-0.4,0.3-0.8,0.9-1.1,1.5c0-0.6-0.1-1.1-0.3-1.5
			c-0.8-2-4.1-2.6-7.2-1.3c-3.2,1.3-5.1,4-4.2,6c0.2,0.5,0.6,1.1,1.2,1.7c-0.7-0.2-1.3-0.3-1.8-0.3c-2.2,0.1-3.8,2.9-3.7,6.3
			c0.1,3.4,2,6.1,4.2,6c0.8,0,1.9-0.4,3-1.1c-0.8,1-1.3,2-1.4,2.8c-0.4,2.2,2.1,4.3,5.5,4.9c3.4,0.6,6.4-0.8,6.7-2.9
			c0.1-0.5,0-1.1-0.1-1.9C166.7,163.1,167.2,163.6,167.7,163.8z"/>
	</g>
	<path class="st17" d="M161.3,139.1c-0.5-0.3-1.1-0.4-1.9-0.5c0.8-0.3,1.5-0.6,1.9-1c1.6-1.4,1.1-4.7-1.1-7.3
		c0,0-17.2,15.4-17.1,15.3c-0.8,1-1.3,2-1.4,2.8c-0.4,2.2,2.1,4.3,5.5,4.9c3.4,0.6,6.4-0.8,6.7-2.9c0.1-0.5,0-1.1-0.1-1.9
		c0.5,0.6,1,1.1,1.5,1.4c1.9,1.1,4.8-0.5,6.5-3.5C163.4,143.4,163.2,140.1,161.3,139.1z"/>
	<ellipse transform="matrix(0.748 -0.6637 0.6637 0.748 -54.7882 134.5334)" class="st18" cx="149.8" cy="139.4" rx="4" ry="4"/>
	<path class="st19" d="M146.8,142.2c1.5,1.6,4,1.7,5.6,0.3c1.7-1.5,1.8-4,0.4-5.7C150.8,138.7,148.6,140.6,146.8,142.2z"/>
	<path class="st17" d="M173.7,153c-0.5-0.3-1.1-0.4-1.9-0.5c0.8-0.3,1.5-0.6,1.9-1c1.6-1.4,1.1-4.6-1.1-7.2l-17.2,15.2
		c-0.8,1-1.3,2-1.4,2.8c-0.4,2.2,2.1,4.3,5.5,4.9c3.4,0.6,6.4-0.8,6.7-2.9c0.1-0.5,0-1.1-0.1-1.9c0.5,0.6,1,1.1,1.5,1.4
		c1.9,1.1,4.8-0.5,6.5-3.5C175.8,157.3,175.6,154.1,173.7,153z"/>
	<ellipse transform="matrix(0.748 -0.6637 0.6637 0.748 -60.9281 146.3032)" class="st18" cx="162.2" cy="153.4" rx="4" ry="4"/>
	<path class="st19" d="M159.2,156.2c1.5,1.6,4,1.7,5.6,0.3c1.6-1.5,1.8-3.9,0.4-5.6L159.2,156.2z"/>
	<path class="st17" d="M186.1,167c-0.5-0.3-1.1-0.4-1.9-0.5c0.8-0.3,1.5-0.6,1.9-1c1.6-1.4,1.1-4.6-1.1-7.2l-17.2,15.2
		c-0.8,1-1.3,2-1.4,2.8c-0.4,2.2,2.1,4.3,5.5,4.9c3.4,0.6,6.4-0.8,6.7-2.9c0.1-0.5,0-1.1-0.1-1.9c0.5,0.6,1,1.1,1.5,1.4
		c1.9,1.1,4.8-0.5,6.5-3.5S188,168,186.1,167z"/>
	<ellipse transform="matrix(0.748 -0.6637 0.6637 0.748 -67.098 157.9772)" class="st18" cx="174.5" cy="167.3" rx="4" ry="4"/>
	<path class="st19" d="M171.6,170.1c1.5,1.6,4,1.7,5.6,0.3c1.6-1.5,1.8-3.9,0.4-5.6L171.6,170.1z"/>
	<path class="st20" d="M130.1,186l-4-4.5l8.2-42.9c0.1-0.7,1-1.1,1.6-0.6c3.6,2.9,14.2,11.7,21.3,19.7c7.4,8.3,14.8,19.8,17.3,23.8
		c0.4,0.6,0,1.5-0.8,1.5L130.1,186z"/>
	<path class="st21" d="M174.5,181.5c-1-1.6-2.9-4.5-5.2-8L128,183.6l2.1,2.4l43.6-3C174.5,183,174.9,182.1,174.5,181.5z"/>
	<path class="st20" d="M130.1,186l-4-4.5l-12.7,6.2c-3,1.5-3.8,5.4-1.6,7.9l2.5,2.9c2.2,2.5,6.2,2.2,8.1-0.6L130.1,186z"/>
	<path class="st21" d="M130.1,186l-2-2.3l-15,13.3l1.3,1.4c2.2,2.5,6.2,2.2,8.1-0.6L130.1,186z"/>
	<g>
		<path class="st22" d="M141.4,190.2c0.3-5.1-9.1-5.5-9.1-5.5l-2.5-0.1l-1.8,1.6l-0.2,2.5c0,0-0.7,9.4,4.4,9.7
			c0.2,0,0.6-0.2,1.2-0.5c3-1.6,5.6-3.9,7.5-6.7C141.1,190.8,141.4,190.4,141.4,190.2z"/>
		<path class="st22" d="M123.3,169.8c5.1,0.3,4.4,9.7,4.4,9.7l-0.2,2.5l-1.8,1.6l-2.5-0.1c0,0-9.4-0.4-9.1-5.5
			c0-0.2,0.3-0.6,0.6-1.1c1.9-2.8,4.5-5.1,7.5-6.6C122.7,170,123.1,169.8,123.3,169.8z"/>
	</g>
	<g>
		<path class="st23" d="M126,187.7l-2-2.3c-0.5-0.6-0.5-1.5,0.1-2.1l3.2-2.9c0.6-0.5,1.5-0.5,2.1,0.1l2,2.3c0.5,0.6,0.5,1.5-0.1,2.1
			l-3.2,2.9C127.5,188.3,126.5,188.3,126,187.7z"/>
		<path class="st23" d="M163.9,181.4c-1.2-2.2-0.7-5.3-2-7.4c-1.3-2.1-4.4-2.9-5.9-4.9s-1.5-5.2-3.1-7s-4.8-2.2-6.6-4
			c-1.8-1.7-2.2-4.9-4.1-6.5c-1.9-1.6-5.1-1.5-7.1-3c-0.9-0.6-1.6-1.6-2.2-2.6l-0.6,3.2c0.8,1.2,1.5,2.5,2.6,3.3
			c1.7,1.3,4.5,1.2,6.2,2.6c1.6,1.4,2,4.2,3.6,5.7c1.5,1.5,4.3,1.8,5.7,3.5c1.4,1.6,1.4,4.4,2.7,6.1c1.3,1.7,4,2.4,5.2,4.2
			s0.8,4.6,1.8,6.5c0.6,1,1.6,1.8,2.5,2.7l3.2-0.2C165,182.9,164.3,182.2,163.9,181.4z"/>
	</g>
</g>
<g id="Layer_97">
	<g>
		<path class="st24" d="M86.9,183.1c-4.6,0-9.2-0.9-13.4-2.6l-3.8-1.5l1.9-4.8l3.8,1.5c12.3,4.9,26.4,1.5,35-8.6l4,3.4
			C107.5,178.4,97.5,183.1,86.9,183.1z"/>
		<path class="st24" d="M33.6,183.1c-10.6,0-20.6-4.6-27.5-12.6l4-3.4c8.6,10.1,22.7,13.5,35,8.6l3.7-1.5l1.9,4.8l-3.7,1.5
			C42.8,182.2,38.2,183.1,33.6,183.1z"/>
	</g>
	<polygon class="st25" points="75.9,200 44.6,200 49.9,176.6 70.7,176.6 	"/>
	<circle class="st26" cx="31.6" cy="106.2" r="10.4"/>
	<path class="st24" d="M40.7,132.2c8.1-0.7,14.4-7.4,14.4-15.6v-6.3c0-5-4-9-9-9c-1.4,0-2.8,0.3-4,0.9L29,108.8L40.7,132.2z"/>
	<path class="st27" d="M29,137.5L29,137.5c-8.6,0-15.6-7-15.6-15.6l0,0v-6.3c0-5,4-9,9-9c1.4,0,2.8,0.3,4,0.9l13.6,6.8
		c2.9,1.4,4.7,4.3,4.7,7.5l0,0C44.6,130.5,37.6,137.5,29,137.5L29,137.5z"/>
	<circle class="st26" cx="88.9" cy="106.2" r="10.4"/>
	<path class="st24" d="M79.8,132.2c-8.1-0.7-14.4-7.4-14.4-15.6v-6.3c0-5,4-9,9-9c1.4,0,2.8,0.3,4,0.9l13.1,6.5L79.8,132.2z"/>
	<path class="st27" d="M91.5,137.5L91.5,137.5c8.6,0,15.6-7,15.6-15.6v-6.3c0-5-4-9-9-9c-1.4,0-2.8,0.3-4,0.9l-13.6,6.8
		c-2.9,1.4-4.7,4.3-4.7,7.5l0,0C75.9,130.5,82.9,137.5,91.5,137.5z"/>
	<circle class="st26" cx="60.3" cy="64.5" r="10.4"/>
	<path class="st24" d="M69.4,90.5c8.1-0.7,14.4-7.4,14.4-15.6v-6.3c0-5-4-9-9-9c-1.4,0-2.8,0.3-4,0.9L57.7,67L69.4,90.5z"/>
	<path class="st27" d="M57.7,95.8L57.7,95.8c-8.6,0-15.6-7-15.6-15.6v-6.3c0-5,4-9,9-9c1.4,0,2.8,0.3,4,0.9l13.6,6.8
		c2.9,1.4,4.7,4.3,4.7,7.5l0,0C73.3,88.8,66.3,95.8,57.7,95.8z"/>
	<path class="st25" d="M70.7,176.6l29.2-10.4l2.1-20.8l0,0c-7.6,0-15,2.2-21.4,6.4l-2.1,1.4l-6.1-9.1c-2.7-4.1-7.3-6.5-12.2-6.5l0,0
		c-4.9,0-9.4,2.4-12.2,6.5l-6.1,9.1l-2.1-1.4c-6.3-4.2-13.8-6.4-21.4-6.4l0,0l2.1,18.2l29.2,13H70.7L70.7,176.6z"/>
	<g>
		<path class="st26" d="M30.2,86.1c-0.8-2.8-1.2-5.6-1.2-8.5c0-8.6,3.5-16.9,9.8-22.7l3.6,3.8c-5.2,4.9-8.2,11.8-8.2,18.9
			c0,2.4,0.3,4.8,1,7.1L30.2,86.1z"/>
		<path class="st26" d="M1.5,127.8c-0.8-2.8-1.2-5.6-1.2-8.5c0-8.6,3.5-16.9,9.8-22.7l3.6,3.8c-5.2,4.9-8.2,11.8-8.2,18.9
			c0,2.4,0.3,4.8,1,7.1L1.5,127.8z"/>
		<path class="st26" d="M119,127.8l-5-1.4c0.7-2.3,1-4.7,1-7.1c0-7.2-2.9-14-8.2-18.9l3.6-3.8c6.3,5.9,9.8,14.1,9.8,22.7
			C120.2,122.1,119.8,125,119,127.8z"/>
	</g>
	<g>
		<rect x="26.4" y="153.1" class="st28" width="5.2" height="5.2"/>
		<rect x="57.7" y="145.3" class="st28" width="5.2" height="5.2"/>
		<rect x="88.9" y="153.1" class="st28" width="5.2" height="5.2"/>
	</g>
	<polygon class="st29" points="70.7,176.6 49.9,176.6 47.2,187 73.3,187 	"/>
</g>
</svg>
