<?xml version="1.0" encoding="utf-8"?>
<!-- Generator: Adobe Illustrator 19.2.0, SVG Export Plug-In . SVG Version: 6.00 Build 0)  -->
<svg version="1.1" id="Layer_1" xmlns="http://www.w3.org/2000/svg" xmlns:xlink="http://www.w3.org/1999/xlink" x="0px" y="0px"
	 viewBox="0 0 200 200" style="enable-background:new 0 0 200 200;" xml:space="preserve">
<style type="text/css">
	.st0{fill:#88C057;}
	.st1{fill:#E23037;}
	.st2{fill:#231F20;}
	.st3{fill:#ED8F22;}
	.st4{fill:#EE7823;}
	.st5{fill:#9B6126;}
	.st6{fill:#659C41;}
	.st7{fill:#FF9518;}
	.st8{fill:#EF8318;}
	.st9{fill:#02AF8E;}
	.st10{fill:#159E97;}
	.st11{fill:#994334;}
	.st12{fill:url(#SVGID_1_);}
	.st13{fill:url(#SVGID_2_);}
	.st14{fill:url(#SVGID_3_);}
	.st15{fill:url(#SVGID_4_);}
	.st16{fill:url(#SVGID_5_);}
	.st17{fill:url(#SVGID_6_);}
	.st18{fill:url(#SVGID_7_);}
	.st19{fill:url(#SVGID_8_);}
	.st20{fill:url(#SVGID_9_);}
	.st21{fill:url(#SVGID_10_);}
	.st22{fill:url(#SVGID_11_);}
	.st23{fill:url(#SVGID_12_);}
	.st24{fill:url(#SVGID_13_);}
	.st25{fill:url(#SVGID_14_);}
	.st26{fill:url(#SVGID_15_);}
	.st27{fill:url(#SVGID_16_);}
	.st28{fill:url(#SVGID_17_);}
	.st29{fill:url(#SVGID_18_);}
	.st30{fill:url(#SVGID_19_);}
	.st31{fill:url(#SVGID_20_);}
	.st32{fill:url(#SVGID_21_);}
	.st33{fill:url(#SVGID_22_);}
	.st34{fill:#60D882;}
	.st35{fill:#37C47A;}
	.st36{fill:#2BB381;}
	.st37{fill:#9A4630;}
	.st38{fill:#D13A34;}
	.st39{fill:#EE4033;}
	.st40{fill:#ED7161;}
	.st41{fill:#4D322D;}
</style>
<g id="Layer_95">
	<g>
		<path class="st0" d="M128.6,140.6l3.1,10.3c0.4,2.6-1.3,5.1-3.8,6l-2.6,0.8l-0.7,2.3c-1,3-3.1,5.3-6.1,6.2
			c-2.6,0.8-8.4-5.1-10.7-4.8l-21.2,21.2c26.8,25.1,68.9,24.6,95.1-1.6s26.7-68.3,1.6-95.1L128.6,140.6z"/>
		<path class="st1" d="M171.1,98l-42.5,42.5l3.1,10.3c0.4,2.6-1.3,5.1-3.8,6l-2.6,0.8l-0.7,2.3c-1,3-3.1,5.3-6.1,6.2
			c-2.6,0.8-8.4-5.1-10.7-4.8l-9.1,9.1l0,0c20,21.8,51.2,19.8,71.7-0.8S192.9,118.1,171.1,98L171.1,98z"/>
		<circle class="st2" cx="96.8" cy="124.7" r="3.4"/>
		<circle class="st2" cx="124.1" cy="174.9" r="3.4"/>
		<circle class="st2" cx="145.7" cy="144.4" r="3.4"/>
		<circle class="st2" cx="157" cy="133.1" r="3.4"/>
		<circle class="st2" cx="150.6" cy="171.8" r="3.4"/>
		<circle class="st2" cx="161.9" cy="160.5" r="3.4"/>
		<circle class="st2" cx="173.1" cy="149.2" r="3.4"/>
		<circle class="st2" cx="168.3" cy="121.8" r="3.4"/>
		<circle class="st2" cx="137.7" cy="168.6" r="3.4"/>
		<circle class="st2" cx="149.2" cy="156.6" r="3.4"/>
		<circle class="st2" cx="160.6" cy="145.2" r="3.4"/>
		<circle class="st2" cx="103.6" cy="147.5" r="3.4"/>
		<circle class="st2" cx="117.3" cy="129.3" r="3.4"/>
		<circle class="st2" cx="171.5" cy="134.7" r="3.4"/>
	</g>
	<g>
		<path class="st3" d="M120.2,139.3l-7.5-0.6l2.8-7c0.5-1.1,1-2.2,1.7-3.2c-4.3-1.9-9.1-3-14.2-3c-19.5,0-35.3,15.8-35.3,35.3
			s15.8,35.3,35.3,35.3s35.3-15.8,35.3-35.3c0-8.9-3.3-17-8.7-23.2C126.7,138.9,123.5,139.6,120.2,139.3z"/>
		<circle class="st4" cx="123.2" cy="147.5" r="2.9"/>
		<circle class="st4" cx="131" cy="163.9" r="2.9"/>
		<circle class="st4" cx="130.6" cy="154.9" r="2.9"/>
		<circle class="st4" cx="121.7" cy="160.8" r="2.9"/>
		<circle class="st4" cx="123.2" cy="171" r="2.9"/>
		<circle class="st4" cx="96.8" cy="135.8" r="2.9"/>
		<circle class="st4" cx="86.5" cy="140.2" r="2.9"/>
		<g>
			<path class="st3" d="M107.4,137.3c0,0,6.2,1,7.9,5.3"/>
			<path class="st5" d="M115.3,144.1c-0.6,0-1.1-0.4-1.4-0.9c-1.4-3.4-6.8-4.4-6.8-4.4c-0.8-0.1-1.3-0.9-1.2-1.7
				c0.1-0.8,0.9-1.3,1.7-1.2c0.3,0,7.1,1.2,9.1,6.2c0.3,0.8-0.1,1.6-0.8,1.9C115.7,144,115.5,144.1,115.3,144.1z"/>
		</g>
		<g>
			<path class="st3" d="M108.3,141.7c1.5-1.7,3.4-3,5.6-3.8"/>
			<path class="st5" d="M108.3,143.2c-0.4,0-0.7-0.1-1-0.4c-0.6-0.5-0.6-1.5-0.1-2.1c1.7-1.8,3.8-3.3,6.1-4.2
				c0.8-0.3,1.6,0.1,1.9,0.9c0.3,0.8-0.1,1.6-0.9,1.9c-1.9,0.7-3.6,1.9-5,3.4C109.1,143,108.7,143.2,108.3,143.2z"/>
		</g>
		<path class="st6" d="M141.2,121l-7.5-0.6c-7.9-0.6-15.3,3.9-18.2,11.3l-2.8,7l7.5,0.6c7.9,0.6,15.3-3.9,18.2-11.3L141.2,121z"/>
		<path class="st0" d="M113.5,136.6l-0.8,2.1l1.1,0.1c9.2-9,19.2-11.9,20.3-12l0.1-0.8l0.6,0.6l0.2-0.9l-0.7-0.6
			C133.4,124.9,123.2,127.7,113.5,136.6z"/>
	</g>
</g>
<g>
	<path class="st7" d="M55.4,102.6C55.4,102.6,55.3,102.6,55.4,102.6c-2.3,2.3-5.3,3.6-8.6,3.6l0,0c-1.6,0-3.2-0.3-4.7-0.9l0,0
		c-0.1-0.2-0.2-0.3-0.4-0.3c0,0,0,0,0,0c-0.2,0-0.3,0.1-0.4,0.2c-0.5,1-1.4,1.6-2.5,1.6c-1.5,0-2.8-1.2-2.8-2.8v-5
		C16,100.4,0.2,117.2,0.2,137.6c0,11,4.6,21,12.1,28.1h53.3c7.4-7.1,12.1-17,12.1-28.1C77.6,122.1,68.5,108.8,55.4,102.6z"/>
	<path class="st8" d="M8.9,137.6c0-17.4,11.5-32.1,27.2-37V99C16,100.4,0.2,117.2,0.2,137.6c0,11,4.6,21,12.1,28.1H21
		C13.5,158.6,8.9,148.7,8.9,137.6z"/>
	<path class="st9" d="M58.3,89.1c-4.6-2-10.1-1.1-13.8,2.6c-1.3,1.3-2.2,2.7-2.8,4.3v8c0,0.3,0,0.5-0.1,0.8c0.1,0.3,0.2,0.5,0.3,0.8
		c4.6,2,10.1,1.1,13.8-2.6C59.4,99.2,60.2,93.7,58.3,89.1z"/>
	<path class="st10" d="M58.3,89.1c-4.6-2-10.1-1.1-13.8,2.6c-1.3,1.3-2.2,2.7-2.8,4.3v8c0,0.3,0,0.5-0.1,0.8
		c0.1,0.3,0.2,0.5,0.3,0.8c1.1,0.5,2.3,0.8,3.5,0.9c-0.8-4,0.3-8.3,3.4-11.4c2.8-2.8,6.7-4,10.3-3.6C58.9,90.7,58.6,89.9,58.3,89.1z
		"/>
	<path class="st11" d="M38.9,107.2c-1.8,0-3.2-1.4-3.2-3.2V92.5c0-1.8,1.4-3.2,3.2-3.2s3.2,1.4,3.2,3.2V104
		C42.1,105.8,40.6,107.2,38.9,107.2z"/>
	<g>
		<circle class="st8" cx="59.1" cy="117.8" r="4.5"/>
		<circle class="st8" cx="68.9" cy="131.4" r="4.5"/>
		<circle class="st8" cx="56.3" cy="141" r="4.5"/>
	</g>
</g>
<g>
	
		<radialGradient id="SVGID_1_" cx="108.7527" cy="-227.857" r="95.1487" gradientTransform="matrix(1.0039 0 0 1.0039 0.1922 315.7813)" gradientUnits="userSpaceOnUse">
		<stop  offset="1.600000e-002" style="stop-color:#FFE000"/>
		<stop  offset="0.361" style="stop-color:#FDE000"/>
		<stop  offset="0.485" style="stop-color:#F6E000"/>
		<stop  offset="0.574" style="stop-color:#EBDF00"/>
		<stop  offset="0.646" style="stop-color:#DADE00"/>
		<stop  offset="0.706" style="stop-color:#C4DD00"/>
		<stop  offset="0.75" style="stop-color:#AFDC00"/>
		<stop  offset="0.791" style="stop-color:#ABD700"/>
		<stop  offset="0.842" style="stop-color:#9FC800"/>
		<stop  offset="0.897" style="stop-color:#8CB000"/>
		<stop  offset="0.955" style="stop-color:#718E00"/>
		<stop  offset="1" style="stop-color:#586E00"/>
	</radialGradient>
	<path class="st12" d="M177,135.1l-58.4-57.8c-2.6-2.6-6.7-2.6-9.3-0.1L51,132c-0.9,0.8-1,2.1-0.3,3.1
		c14.1,20.4,37.7,33.8,64.4,33.8c25.3,0,47.8-12,62.1-30.6C178,137.3,177.9,136,177,135.1z"/>
	
		<linearGradient id="SVGID_2_" gradientUnits="userSpaceOnUse" x1="82.7127" y1="-187.8476" x2="85.3087" y2="-137.0514" gradientTransform="matrix(1.0039 0 0 1.0039 0.1922 315.7813)">
		<stop  offset="0" style="stop-color:#AFDC00"/>
		<stop  offset="0.193" style="stop-color:#ACD800"/>
		<stop  offset="0.384" style="stop-color:#A3CC00"/>
		<stop  offset="0.573" style="stop-color:#93B800"/>
		<stop  offset="0.761" style="stop-color:#7D9D00"/>
		<stop  offset="0.948" style="stop-color:#617900"/>
		<stop  offset="1" style="stop-color:#586E00"/>
	</linearGradient>
	<path class="st13" d="M113.9,75.3c-1.6,0-3.3,0.6-4.6,1.8L51,132c-0.9,0.8-1,2.1-0.3,3.1c7.3,10.6,17.2,19.3,28.8,25.2L113.9,75.3z
		"/>
	
		<linearGradient id="SVGID_3_" gradientUnits="userSpaceOnUse" x1="155.0417" y1="-194.6088" x2="71.3345" y2="-205.7118" gradientTransform="matrix(1.0039 0 0 1.0039 0.1922 315.7813)">
		<stop  offset="0" style="stop-color:#FEFFB3"/>
		<stop  offset="0.485" style="stop-color:#FFD39A"/>
		<stop  offset="1" style="stop-color:#FFA981"/>
	</linearGradient>
	<path class="st14" d="M172.5,130.7l-53.9-53.4c-2.6-2.6-6.7-2.6-9.3-0.1l-54,50.8c15,15.9,36.3,25.9,59.9,25.9
		C137.5,153.9,157.7,145,172.5,130.7z"/>
	
		<linearGradient id="SVGID_4_" gradientUnits="userSpaceOnUse" x1="162.0304" y1="-204.3716" x2="108.6656" y2="-204.3716" gradientTransform="matrix(1.0039 0 0 1.0039 0.1922 315.7813)">
		<stop  offset="0" style="stop-color:#FFA981"/>
		<stop  offset="0.428" style="stop-color:#FF8666"/>
		<stop  offset="1" style="stop-color:#FF5C45"/>
	</linearGradient>
	<path class="st15" d="M168.3,126.5l-49.7-49.2c-2.6-2.6-6.7-2.6-9.3-0.1l-49.9,46.9c14.7,13.5,34.3,21.8,55.8,21.8
		C135.4,145.9,154,138.6,168.3,126.5z"/>
	
		<linearGradient id="SVGID_5_" gradientUnits="userSpaceOnUse" x1="138.4501" y1="-223.3908" x2="33.3059" y2="-171.5318" gradientTransform="matrix(1.0039 0 0 1.0039 0.1922 315.7813)">
		<stop  offset="0" style="stop-color:#FEFFB3"/>
		<stop  offset="0.485" style="stop-color:#FFD39A"/>
		<stop  offset="1" style="stop-color:#FFA981"/>
	</linearGradient>
	<path class="st16" d="M84.5,147.9l29.4-72.6c-0.6,0-1.2,0.1-1.8,0.3c0,0,0,0,0,0c-0.2,0.1-0.4,0.1-0.6,0.2c0,0-0.1,0-0.1,0
		c-0.2,0.1-0.3,0.1-0.5,0.2c-0.1,0-0.1,0.1-0.2,0.1c-0.1,0.1-0.3,0.1-0.4,0.2c-0.1,0.1-0.2,0.1-0.3,0.2c-0.1,0.1-0.2,0.1-0.3,0.2
		c-0.2,0.1-0.3,0.3-0.5,0.4l-54,50.8C63.4,136.6,73.3,143.4,84.5,147.9z"/>
	
		<linearGradient id="SVGID_6_" gradientUnits="userSpaceOnUse" x1="155.5987" y1="-230.3408" x2="43.4656" y2="-183.4223" gradientTransform="matrix(1.0039 0 0 1.0039 0.1922 315.7813)">
		<stop  offset="0" style="stop-color:#FFA981"/>
		<stop  offset="0.428" style="stop-color:#FF8666"/>
		<stop  offset="1" style="stop-color:#FF5C45"/>
	</linearGradient>
	<path class="st17" d="M87.3,141l26.6-65.7c-0.3,0-0.5,0-0.8,0.1c-0.1,0-0.1,0-0.2,0c-0.1,0-0.2,0-0.3,0.1c-0.1,0-0.1,0-0.2,0
		c-0.1,0-0.2,0-0.3,0.1c0,0,0,0,0,0c0,0,0,0,0,0c-0.2,0.1-0.4,0.1-0.6,0.2c0,0,0,0,0,0c0,0,0,0-0.1,0c-0.2,0.1-0.3,0.1-0.5,0.2
		c0,0-0.1,0-0.1,0.1c0,0,0,0,0,0c-0.1,0.1-0.3,0.1-0.4,0.2c-0.1,0.1-0.2,0.1-0.3,0.2c-0.1,0.1-0.2,0.1-0.3,0.2
		c-0.2,0.1-0.3,0.3-0.5,0.4l-49.9,46.9C67.4,131.4,76.8,137.3,87.3,141z"/>
	
		<linearGradient id="SVGID_7_" gradientUnits="userSpaceOnUse" x1="111.5281" y1="-197.8759" x2="118.2786" y2="-197.8759" gradientTransform="matrix(1.0039 0 0 1.0039 0.1922 315.7813)">
		<stop  offset="0" style="stop-color:#FFA981"/>
		<stop  offset="0.428" style="stop-color:#FF8666"/>
		<stop  offset="1" style="stop-color:#FF5C45"/>
	</linearGradient>
	<path class="st18" d="M118.9,118.3c0,1.9-1.5,3.4-3.4,3.4s-3.4-1.5-3.4-3.4c0-1.9,1.5-5.8,3.4-5.8S118.9,116.4,118.9,118.3z"/>
	
		<linearGradient id="SVGID_8_" gradientUnits="userSpaceOnUse" x1="105.9686" y1="-181.5746" x2="112.7191" y2="-181.5746" gradientTransform="matrix(1.0039 0 0 1.0039 0.1922 315.7813)">
		<stop  offset="0" style="stop-color:#FFA981"/>
		<stop  offset="0.428" style="stop-color:#FF8666"/>
		<stop  offset="1" style="stop-color:#FF5C45"/>
	</linearGradient>
	<path class="st19" d="M113.4,134.7c0,1.9-1.5,3.4-3.4,3.4c-1.9,0-3.4-1.5-3.4-3.4c0-1.9,1.5-5.8,3.4-5.8
		C111.8,128.9,113.4,132.8,113.4,134.7z"/>
	
		<linearGradient id="SVGID_9_" gradientUnits="userSpaceOnUse" x1="148.5415" y1="-187.6378" x2="154.7044" y2="-190.3932" gradientTransform="matrix(1.0039 0 0 1.0039 0.1922 315.7813)">
		<stop  offset="0" style="stop-color:#FFA981"/>
		<stop  offset="0.428" style="stop-color:#FF8666"/>
		<stop  offset="1" style="stop-color:#FF5C45"/>
	</linearGradient>
	<path class="st20" d="M156,125.7c0.8,1.7,0,3.7-1.7,4.5s-3.7,0-4.5-1.7c-0.8-1.7-1-5.9,0.7-6.6C152.2,121.1,155.2,124,156,125.7z"
		/>
	
		<linearGradient id="SVGID_10_" gradientUnits="userSpaceOnUse" x1="90.0708" y1="-212.9006" x2="95.7458" y2="-209.2443" gradientTransform="matrix(1.0039 0 0 1.0039 0.1922 315.7813)">
		<stop  offset="0" style="stop-color:#FFA981"/>
		<stop  offset="0.428" style="stop-color:#FF8666"/>
		<stop  offset="1" style="stop-color:#FF5C45"/>
	</linearGradient>
	<path class="st21" d="M95.7,106.7c-1,1.6-3.1,2-4.7,1c-1.6-1-2-3.1-1-4.7c1-1.6,4.4-4,6-3C97.5,101.1,96.7,105.1,95.7,106.7z"/>
	
		<linearGradient id="SVGID_11_" gradientUnits="userSpaceOnUse" x1="81.3439" y1="-189.0927" x2="87.5911" y2="-186.5341" gradientTransform="matrix(1.0039 0 0 1.0039 0.1922 315.7813)">
		<stop  offset="0" style="stop-color:#FFA981"/>
		<stop  offset="0.428" style="stop-color:#FF8666"/>
		<stop  offset="1" style="stop-color:#FF5C45"/>
	</linearGradient>
	<path class="st22" d="M87.7,129.6c-0.7,1.7-2.7,2.6-4.4,1.9c-1.7-0.7-2.6-2.7-1.9-4.4c0.7-1.7,3.6-4.8,5.3-4
		C88.5,123.7,88.4,127.9,87.7,129.6z"/>
	
		<linearGradient id="SVGID_12_" gradientUnits="userSpaceOnUse" x1="133.2242" y1="-202.1737" x2="139.0984" y2="-205.5001" gradientTransform="matrix(1.0039 0 0 1.0039 0.1922 315.7813)">
		<stop  offset="0" style="stop-color:#FFA981"/>
		<stop  offset="0.428" style="stop-color:#FF8666"/>
		<stop  offset="1" style="stop-color:#FF5C45"/>
	</linearGradient>
	<path class="st23" d="M140.4,110.5c0.9,1.6,0.3,3.7-1.3,4.6c-1.6,0.9-3.7,0.3-4.6-1.3c-0.9-1.6-1.5-5.8,0.1-6.7
		C136.3,106.2,139.5,108.9,140.4,110.5z"/>
	
		<linearGradient id="SVGID_13_" gradientUnits="userSpaceOnUse" x1="117.1369" y1="-217.321" x2="123.7745" y2="-218.553" gradientTransform="matrix(1.0039 0 0 1.0039 0.1922 315.7813)">
		<stop  offset="0" style="stop-color:#FFA981"/>
		<stop  offset="0.428" style="stop-color:#FF8666"/>
		<stop  offset="1" style="stop-color:#FF5C45"/>
	</linearGradient>
	<path class="st24" d="M124.7,97.5c0.3,1.8-0.9,3.6-2.7,4c-1.8,0.3-3.6-0.9-4-2.7c-0.3-1.8,0.4-5.9,2.3-6.3
		C122.1,92.2,124.3,95.7,124.7,97.5z"/>
	
		<linearGradient id="SVGID_14_" gradientUnits="userSpaceOnUse" x1="126.4579" y1="-188.4847" x2="133.0955" y2="-189.7166" gradientTransform="matrix(1.0039 0 0 1.0039 0.1922 315.7813)">
		<stop  offset="0" style="stop-color:#FFA981"/>
		<stop  offset="0.428" style="stop-color:#FF8666"/>
		<stop  offset="1" style="stop-color:#FF5C45"/>
	</linearGradient>
	<path class="st25" d="M134,126.5c0.3,1.8-0.9,3.6-2.7,4s-3.6-0.9-4-2.7c-0.3-1.8,0.4-5.9,2.3-6.3
		C131.5,121.1,133.7,124.7,134,126.5z"/>
	
		<radialGradient id="SVGID_15_" cx="113.5015" cy="-203.7892" r="8.7958" gradientTransform="matrix(1.0039 0 0 1.0039 0.1922 315.7813)" gradientUnits="userSpaceOnUse">
		<stop  offset="0" style="stop-color:#605654"/>
		<stop  offset="0.408" style="stop-color:#5D5452"/>
		<stop  offset="0.703" style="stop-color:#544D4C"/>
		<stop  offset="0.962" style="stop-color:#444142"/>
		<stop  offset="1" style="stop-color:#413F40"/>
	</radialGradient>
	<path class="st26" d="M118.4,117.8c0,1.9-1.5,3.4-3.4,3.4c-1.9,0-3.4-1.5-3.4-3.4c0-1.9,1.5-5.8,3.4-5.8S118.4,115.9,118.4,117.8z"
		/>
	
		<radialGradient id="SVGID_16_" cx="107.9413" cy="-187.4868" r="8.7958" gradientTransform="matrix(1.0039 0 0 1.0039 0.1922 315.7813)" gradientUnits="userSpaceOnUse">
		<stop  offset="0" style="stop-color:#605654"/>
		<stop  offset="0.408" style="stop-color:#5D5452"/>
		<stop  offset="0.703" style="stop-color:#544D4C"/>
		<stop  offset="0.962" style="stop-color:#444142"/>
		<stop  offset="1" style="stop-color:#413F40"/>
	</radialGradient>
	<path class="st27" d="M112.8,134.1c0,1.9-1.5,3.4-3.4,3.4c-1.9,0-3.4-1.5-3.4-3.4c0-1.9,1.5-5.8,3.4-5.8
		C111.3,128.4,112.8,132.3,112.8,134.1z"/>
	
		<radialGradient id="SVGID_17_" cx="96.448" cy="-21.7273" r="8.7983" gradientTransform="matrix(0.9164 -0.4099 0.4099 0.9164 69.4 180.3657)" gradientUnits="userSpaceOnUse">
		<stop  offset="0" style="stop-color:#605654"/>
		<stop  offset="0.408" style="stop-color:#5D5452"/>
		<stop  offset="0.703" style="stop-color:#544D4C"/>
		<stop  offset="0.962" style="stop-color:#444142"/>
		<stop  offset="1" style="stop-color:#413F40"/>
	</radialGradient>
	<path class="st28" d="M155.5,125.2c0.8,1.7,0,3.7-1.7,4.5c-1.7,0.8-3.7,0-4.5-1.7c-0.8-1.7-1-5.9,0.7-6.6
		C151.7,120.5,154.7,123.5,155.5,125.2z"/>
	
		<radialGradient id="SVGID_18_" cx="37.6328" cy="-518.5683" r="8.7958" gradientTransform="matrix(0.8438 0.544 -0.544 0.8438 -218.7444 515.4256)" gradientUnits="userSpaceOnUse">
		<stop  offset="0" style="stop-color:#605654"/>
		<stop  offset="0.408" style="stop-color:#5D5452"/>
		<stop  offset="0.703" style="stop-color:#544D4C"/>
		<stop  offset="0.962" style="stop-color:#444142"/>
		<stop  offset="1" style="stop-color:#413F40"/>
	</radialGradient>
	<path class="st29" d="M95.1,106.2c-1,1.6-3.1,2-4.7,1c-1.6-1-2-3.1-1-4.7c1-1.6,4.4-4,6-3C97,100.5,96.2,104.6,95.1,106.2z"/>
	
		<radialGradient id="SVGID_19_" cx="73.5543" cy="-413.9165" r="8.7983" gradientTransform="matrix(0.929 0.3804 -0.3804 0.929 -140.0962 477.9184)" gradientUnits="userSpaceOnUse">
		<stop  offset="0" style="stop-color:#605654"/>
		<stop  offset="0.408" style="stop-color:#5D5452"/>
		<stop  offset="0.703" style="stop-color:#544D4C"/>
		<stop  offset="0.962" style="stop-color:#444142"/>
		<stop  offset="1" style="stop-color:#413F40"/>
	</radialGradient>
	<path class="st30" d="M87.2,129.1c-0.7,1.7-2.7,2.6-4.4,1.9c-1.7-0.7-2.6-2.7-1.9-4.4c0.7-1.7,3.6-4.8,5.3-4
		C87.9,123.2,87.9,127.3,87.2,129.1z"/>
	
		<radialGradient id="SVGID_20_" cx="68.5558" cy="-7.7088" r="8.7958" gradientTransform="matrix(0.8736 -0.4946 0.4946 0.8736 76.8611 146.9885)" gradientUnits="userSpaceOnUse">
		<stop  offset="0" style="stop-color:#605654"/>
		<stop  offset="0.408" style="stop-color:#5D5452"/>
		<stop  offset="0.703" style="stop-color:#544D4C"/>
		<stop  offset="0.962" style="stop-color:#444142"/>
		<stop  offset="1" style="stop-color:#413F40"/>
	</radialGradient>
	<path class="st31" d="M139.9,110c0.9,1.6,0.3,3.7-1.3,4.6c-1.6,0.9-3.7,0.3-4.6-1.3c-0.9-1.6-1.5-5.8,0.1-6.7
		C135.7,105.7,139,108.3,139.9,110z"/>
	
		<radialGradient id="SVGID_21_" cx="105.5963" cy="-145.7572" r="8.7958" gradientTransform="matrix(0.9871 -0.1833 0.1833 0.9871 41.2303 254.5412)" gradientUnits="userSpaceOnUse">
		<stop  offset="0" style="stop-color:#605654"/>
		<stop  offset="0.408" style="stop-color:#5D5452"/>
		<stop  offset="0.703" style="stop-color:#544D4C"/>
		<stop  offset="0.962" style="stop-color:#444142"/>
		<stop  offset="1" style="stop-color:#413F40"/>
	</radialGradient>
	<path class="st32" d="M124.1,97c0.3,1.8-0.9,3.6-2.7,4c-1.8,0.3-3.6-0.9-4-2.7c-0.3-1.8,0.4-5.9,2.3-6.3
		C121.6,91.6,123.8,95.2,124.1,97z"/>
	
		<radialGradient id="SVGID_22_" cx="109.4964" cy="-115.706" r="8.7958" gradientTransform="matrix(0.9871 -0.1833 0.1833 0.9871 41.2303 254.5412)" gradientUnits="userSpaceOnUse">
		<stop  offset="0" style="stop-color:#605654"/>
		<stop  offset="0.408" style="stop-color:#5D5452"/>
		<stop  offset="0.703" style="stop-color:#544D4C"/>
		<stop  offset="0.962" style="stop-color:#444142"/>
		<stop  offset="1" style="stop-color:#413F40"/>
	</radialGradient>
	<path class="st33" d="M133.5,125.9c0.3,1.8-0.9,3.6-2.7,4c-1.8,0.3-3.6-0.9-4-2.7c-0.3-1.8,0.4-5.9,2.3-6.3
		C131,120.6,133.2,124.1,133.5,125.9z"/>
</g>
<g>
	<path class="st7" d="M158.8,102.8C158.8,102.8,158.7,102.8,158.8,102.8c-2.3,2.3-5.3,3.6-8.6,3.6l0,0c-1.6,0-3.2-0.3-4.7-0.9l0,0
		c-0.1-0.2-0.2-0.3-0.4-0.3c0,0,0,0,0,0c-0.2,0-0.3,0.1-0.4,0.2c-0.5,1-1.4,1.6-2.5,1.6c-1.5,0-2.8-1.2-2.8-2.8v-5
		c-20.1,1.4-35.9,18.2-35.9,38.6c0,11,4.6,21,12.1,28.1h53.3c7.4-7.1,12.1-17,12.1-28.1C181,122.3,171.9,109,158.8,102.8z"/>
	<path class="st8" d="M112.3,137.8c0-17.4,11.5-32.1,27.2-37v-1.6c-20.1,1.4-35.9,18.2-35.9,38.6c0,11,4.6,21,12.1,28.1h8.7
		C116.9,158.8,112.3,148.9,112.3,137.8z"/>
	<path class="st9" d="M161.7,89.3c-4.6-2-10.1-1.1-13.8,2.6c-1.3,1.3-2.2,2.7-2.8,4.3v8c0,0.3,0,0.5-0.1,0.8
		c0.1,0.3,0.2,0.5,0.3,0.8c4.6,2,10.1,1.1,13.8-2.6C162.8,99.4,163.7,93.9,161.7,89.3z"/>
	<path class="st10" d="M161.7,89.3c-4.6-2-10.1-1.1-13.8,2.6c-1.3,1.3-2.2,2.7-2.8,4.3v8c0,0.3,0,0.5-0.1,0.8
		c0.1,0.3,0.2,0.5,0.3,0.8c1.1,0.5,2.3,0.8,3.5,0.9c-0.8-4,0.3-8.3,3.4-11.4c2.8-2.8,6.7-4,10.3-3.6C162.3,90.9,162,90.1,161.7,89.3
		z"/>
	<path class="st11" d="M142.3,107.4c-1.8,0-3.2-1.4-3.2-3.2V92.7c0-1.8,1.4-3.2,3.2-3.2c1.8,0,3.2,1.4,3.2,3.2v11.5
		C145.5,106,144,107.4,142.3,107.4z"/>
	<g>
		<circle class="st8" cx="162.5" cy="118" r="4.5"/>
		<circle class="st8" cx="172.3" cy="131.6" r="4.5"/>
		<circle class="st8" cx="159.7" cy="141.2" r="4.5"/>
	</g>
</g>
<g>
	<path class="st34" d="M38.9,177.8c17.6,13.6,39.7,21.7,63.6,21.7s46-8.1,63.6-21.7H38.9z"/>
	<path class="st35" d="M198.8,176.1c0,1.2-1,2.1-2.1,2.1H8.3c-1.2,0-2.1-1-2.1-2.1v-8.5c0-1.2,1-2.1,2.1-2.1h188.4
		c1.2,0,2.1,1,2.1,2.1V176.1z"/>
	<path class="st36" d="M19.1,176.1v-8.5c0-1.2,1-2.1,2.1-2.1h-13c-1.2,0-2.1,1-2.1,2.1v8.5c0,1.2,1,2.1,2.1,2.1h13
		C20.1,178.2,19.1,177.3,19.1,176.1z"/>
</g>
<g>
	<polygon class="st6" points="45.7,123.5 43.3,125.2 37.2,118.5 41.3,115.2 	"/>
	<path class="st0" d="M51.1,120.1c0.6-1.3,0.9-2.7,0.7-4.2c-5.8,0.3-6.3,3.4-6.3,3.4c-0.5-1-1.4-1-2.4-0.7l2.6,4.9l0,0l0,0l0,0
		l-2.5,1.7l0,0l0,0l0,0l-3.7-4.1c-0.4,0.4-0.6,0.8-0.5,1c0,0-2.6-1.7-6.8,2.3c1,1.1,2.2,1.9,3.6,2.4c-3.8,2.3-6.9,5.3-7.3,9.5
		c10.7-1.2,11.5-7,11.5-7c3.2,5.9,8.8,5.7,9.7,5.6c0.6-0.6,4.6-4.5,2.5-10.9c0,0,3,4.1,11.2-2.8C59.9,118.7,55.4,118.9,51.1,120.1z"
		/>
	<g>
		<path class="st1" d="M62.1,122.4L62.1,122.4c-7.2,5.2-9.9,1.6-9.9,1.6c2.1,6.4-1.9,10.3-2.5,10.9c-0.8,0.1-6.4,0.3-9.7-5.6
			c0,0-0.7,4.7-8.9,6.5c0,0,0,0,0,0.1h0.1c-1.3,3.2-0.9,7.2,1.3,12.5c5.1,11.8,23.7,22.4,30.7,19.4s12.1-23.9,7-35.6
			c-2.3-5.4-5-8.3-8.3-9.6C62,122.5,62.1,122.4,62.1,122.4z"/>
	</g>
	<path class="st37" d="M38.7,138.8c-0.3-0.3-0.8-0.1-0.7,0.3c0,0,0.7,5.5,0.9,5.9c0.2,0.5,0.6,0.8,1.1,1s1,0.2,1.5,0s0.8-0.6,1-1.1
		s0.2-1,0-1.5C42.1,143,38.7,138.8,38.7,138.8z"/>
	<path class="st37" d="M51.1,137.8c-0.3-0.3-0.8-0.1-0.7,0.3c0,0,0.7,5.5,0.9,5.9c0.2,0.5,0.6,0.8,1.1,1s1,0.2,1.5,0s0.8-0.6,1-1.1
		s0.2-1,0-1.5C54.6,142,51.1,137.8,51.1,137.8z"/>
	<path class="st37" d="M59.8,129.7c-0.3-0.3-0.8-0.1-0.7,0.3c0,0,0.7,5.5,0.9,5.9c0.2,0.5,0.6,0.8,1.1,1s1,0.2,1.5,0s0.8-0.6,1-1.1
		s0.2-1,0-1.5C63.3,133.9,59.8,129.7,59.8,129.7z"/>
	<path class="st37" d="M48.2,148.8c-0.3-0.3-0.8-0.1-0.7,0.3c0,0,0.7,5.5,0.9,5.9c0.2,0.5,0.6,0.8,1.1,1s1,0.2,1.5,0s0.8-0.6,1-1.1
		s0.2-1,0-1.5C51.7,153.1,48.2,148.8,48.2,148.8z"/>
	<path class="st37" d="M58.2,154.3c-0.3-0.3-0.8-0.1-0.7,0.3c0,0,0.7,5.5,0.9,5.9c0.2,0.5,0.6,0.8,1.1,1s1,0.2,1.5,0s0.8-0.6,1-1.1
		s0.2-1,0-1.5C61.7,158.6,58.2,154.3,58.2,154.3z"/>
	<path class="st37" d="M61.1,143.3c-0.3-0.3-0.8-0.1-0.7,0.3c0,0,0.7,5.5,0.9,5.9c0.2,0.5,0.6,0.8,1.1,1s1,0.2,1.5,0
		c0.5-0.2,0.8-0.6,1-1.1s0.2-1,0-1.5S61.1,143.3,61.1,143.3z"/>
</g>
<g>
	<path class="st38" d="M70.2,132.8c4.9-6,13.1-7.3,18.2-3.1l1.6,1.2c5.1,4.2,5.2,12.5,0.3,18.4c-4.6,5.5-12.8,6.3-18.3,1.7
		C66.4,146.5,65.7,138.3,70.2,132.8z"/>
	<path class="st39" d="M72.3,147.2c-0.1,0-0.1-0.1-0.2-0.2c-2.2-2.9-2.7-6.8-1.5-10c0.2-0.5,0.8-0.8,1.3-0.6
		c0.5,0.2,0.8,0.8,0.6,1.3c-1.1,2.6-0.5,5.8,1.2,8c0.3,0.4,0.3,1.1-0.1,1.4C73.2,147.6,72.7,147.6,72.3,147.2z"/>
	<path class="st39" d="M74.2,134.2c-0.1,0-0.1-0.1-0.1-0.1c-0.4-0.4-0.3-1.1,0.1-1.4c1.1-0.9,2.2-1.5,3.5-2c0.5-0.2,1.1,0.1,1.3,0.6
		s-0.1,1.1-0.6,1.3c-1.1,0.4-2,1-2.9,1.6C75,134.5,74.5,134.5,74.2,134.2z"/>
	<path class="st39" d="M85.8,154.8c4.9-6,13.1-7.3,18.2-3.1l1.6,1.2c5.1,4.2,5.2,12.5,0.3,18.4c-4.6,5.5-12.8,6.3-18.3,1.7
		C81.8,168.5,81.1,160.3,85.8,154.8z"/>
	<path class="st39" d="M88.9,143.1c-2.5-2.2-2.9-5.9-0.8-8.4c0.3-0.4,1-0.5,1.4-0.2s0.5,1,0.2,1.4c-1.4,1.7-1.2,4.2,0.6,5.6
		c0.4,0.3,0.5,1,0.2,1.4C89.9,143.4,89.3,143.5,88.9,143.1z"/>
	<path class="st40" d="M102.9,163.9c-2.5-2.2-2.9-5.9-0.8-8.4c0.3-0.4,1-0.5,1.4-0.2c0.4,0.3,0.5,1,0.2,1.4
		c-1.4,1.7-1.2,4.2,0.6,5.6c0.4,0.3,0.5,1,0.2,1.4C103.9,164.1,103.3,164.2,102.9,163.9z"/>
	<path class="st41" d="M103.9,159.5c-0.1-0.1-0.2-0.2-0.3-0.4c-0.2-0.5,0-1.1,0.5-1.3c8.1-3.1,11.7-8.5,13.4-20.7
		c-8.3,7.5-21.5,8-27.8,2.8c-0.4-0.3-0.5-1-0.2-1.4s1-0.5,1.4-0.2c6.1,5,20,3.8,27.1-4.8c0.3-0.3,0.7-0.5,1.2-0.3
		c0.4,0.2,0.7,0.6,0.6,1c-1.4,12.9-4.2,21.1-15,25.3C104.6,159.8,104.2,159.7,103.9,159.5z"/>
	<path class="st0" d="M119,133.6c1.2,4.8,6.9,7.6,11.8,6.4C129.5,135.1,123.8,132.4,119,133.6z"/>
	<path class="st6" d="M115,121.2c-2.6,4.2-0.4,10.2,3.8,12.8C121.3,129.7,119.2,123.8,115,121.2z"/>
	<path class="st40" d="M87.6,169.5c-0.1,0-0.1-0.1-0.2-0.2c-2.2-2.9-2.7-6.8-1.5-10c0.2-0.5,0.8-0.8,1.3-0.6s0.8,0.8,0.6,1.3
		c-1.1,2.6-0.5,5.8,1.2,8c0.3,0.4,0.3,1.1-0.1,1.4C88.4,169.7,87.9,169.7,87.6,169.5z"/>
</g>
</svg>
