<?xml version="1.0" encoding="utf-8"?>
<!-- Generator: Adobe Illustrator 19.2.0, SVG Export Plug-In . SVG Version: 6.00 Build 0)  -->
<svg version="1.1" id="Layer_1" xmlns="http://www.w3.org/2000/svg" xmlns:xlink="http://www.w3.org/1999/xlink" x="0px" y="0px"
	 viewBox="0 0 200 200" style="enable-background:new 0 0 200 200;" xml:space="preserve">
<style type="text/css">
	.st0{fill:#55C2B3;}
	.st1{fill:#50BD8C;}
	.st2{fill:#29A86F;}
	.st3{fill:#EA2C24;}
	.st4{fill:#C82327;}
	.st5{fill:#BB906C;}
	.st6{fill:#A07954;}
	.st7{fill:#FFFFFF;}
	.st8{fill:#D5EEF0;}
	.st9{fill:#EE4484;}
	.st10{fill:#E0E1E0;}
	.st11{fill:#993363;}
	.st12{fill:#672F58;}
	.st13{fill:#5A0F38;}
	.st14{fill:#FEDC00;}
	.st15{fill:#FDC010;}
	.st16{fill:#F282AD;}
</style>
<g id="Layer_98">
	<path class="st0" d="M45.5,85.3c0-0.3,0.1-0.6,0.1-0.9v-9.7H41v9.7c0,0.3,0,0.6,0.1,0.9H45.5L45.5,85.3z"/>
	<path id="SVGCleanerId_0_6_" class="st1" d="M65.8,90.5v-4.6c0-2.9-2.3-5.2-5.2-5.2H26c-2.9,0-5.2,2.3-5.2,5.2v4.6l-9.5,5
		c-3.1,1.6-5,4.8-5,8.3v86.9c0,5.1,4.2,9.3,9.3,9.3H71c5.1,0,9.3-4.2,9.3-9.3v-86.9c0-3.5-1.9-6.7-5-8.3L65.8,90.5z"/>
	<g>
		<path id="SVGCleanerId_0_5_" class="st1" d="M65.8,90.5v-4.6c0-2.9-2.3-5.2-5.2-5.2H26c-2.9,0-5.2,2.3-5.2,5.2v4.6l-9.5,5
			c-3.1,1.6-5,4.8-5,8.3v86.9c0,5.1,4.2,9.3,9.3,9.3H71c5.1,0,9.3-4.2,9.3-9.3v-86.9c0-3.5-1.9-6.7-5-8.3L65.8,90.5z"/>
	</g>
	<path class="st2" d="M75.3,95.5l-9.5-5v-4.6c0-2.9-2.3-5.2-5.2-5.2h-6.9c2.9,0,5.2,2.3,5.2,5.2v4.6l9.5,5c3.1,1.6,5,4.8,5,8.3v86.9
		c0,5.1-4.2,9.3-9.3,9.3H71c5.1,0,9.3-4.2,9.3-9.3v-86.9C80.3,100.3,78.4,97.1,75.3,95.5z"/>
	<rect x="6.2" y="114.8" class="st3" width="74" height="61.2"/>
	<rect x="73.4" y="114.8" class="st4" width="6.9" height="61.2"/>
	<path class="st5" d="M52.6,78.1H34c-0.5,0-0.9-0.4-0.9-0.9V62.3c0-2.5,2.1-4.6,4.6-4.6h11.2c2.5,0,4.6,2.1,4.6,4.6v14.9
		C53.5,77.7,53.1,78.1,52.6,78.1z"/>
	<path class="st6" d="M48.9,57.7H42c2.5,0,4.6,2.1,4.6,4.6v15.8h5.9c0.5,0,0.9-0.4,0.9-0.9V62.3C53.5,59.8,51.4,57.7,48.9,57.7z"/>
	<circle class="st7" cx="49.3" cy="67.2" r="2.3"/>
	<g>
		<path class="st8" d="M53.1,146.4c-0.5,0-1-0.3-1.2-0.7c-0.4-0.7-0.1-1.5,0.6-1.8l6.9-3.7l1.1-8.6c0.1-0.7,0.8-1.3,1.5-1.2
			s1.3,0.8,1.2,1.5l-1.2,9.3c-0.1,0.4-0.3,0.8-0.7,1l-7.5,4C53.5,146.4,53.3,146.4,53.1,146.4z"/>
		<path class="st8" d="M33.4,146.4c-0.2,0-0.4-0.1-0.6-0.2l-7.5-4c-0.4-0.2-0.7-0.6-0.7-1l-1.2-9.3c-0.1-0.7,0.4-1.4,1.2-1.5
			c0.7-0.1,1.4,0.4,1.5,1.2l1.1,8.6l6.9,3.7c0.7,0.4,0.9,1.2,0.6,1.8C34.4,146.1,33.9,146.4,33.4,146.4z"/>
		<path class="st8" d="M24.7,165c-0.1,0-0.1,0-0.2,0c-0.7-0.1-1.3-0.8-1.2-1.5l1.2-9.3c0.1-0.5,0.3-0.9,0.8-1.1l6.4-3
			c0.7-0.3,1.5,0,1.8,0.6c0.3,0.7,0,1.5-0.6,1.8l-5.7,2.7l-1.1,8.6C26,164.5,25.4,165,24.7,165z"/>
		<path class="st8" d="M61.8,165c-0.7,0-1.3-0.5-1.3-1.2l-1.1-8.6l-5.7-2.7c-0.7-0.3-1-1.1-0.6-1.8c0.3-0.7,1.1-1,1.8-0.6l6.4,3
			c0.4,0.2,0.7,0.6,0.8,1.1l1.2,9.3c0.1,0.7-0.4,1.4-1.2,1.5C61.9,165,61.9,165,61.8,165z"/>
		<circle class="st8" cx="43.3" cy="135.9" r="8"/>
		<ellipse class="st8" cx="43.3" cy="151.3" rx="11" ry="14.4"/>
	</g>
</g>
<g id="Layer_97">
	<g>
		<rect x="134.2" y="52.5" class="st9" width="9.9" height="7.7"/>
		<path class="st9" d="M148,59.1c0,0,1.3,11.9-8.3,19.8c0,0,17.2-2.8,17.1-19.3L148,59.1z"/>
	</g>
	<polygon class="st7" points="177.7,71.8 183.4,66.6 183.4,56.7 175.8,50.9 138.7,50.9 138.7,61.5 155.3,71.8 	"/>
	<polygon class="st10" points="175.8,50.9 160.2,50.9 160.2,71.8 177.7,71.8 183.4,66.6 183.4,56.7 	"/>
	<path class="st9" d="M177.6,88l14,93.1c1.4,9.4-5.9,17.8-15.3,17.8h-27.4c-9.5,0-16.7-8.4-15.4-17.7l7.4-51.2
		c0.7-4.6,3.2-8.6,7.1-11.2l0,0c4.5-3,7.2-8.1,7.2-13.5l0.2-17.4L177.6,88L177.6,88z"/>
	<path class="st11" d="M191.6,181.2l-14-93.1h-17.4v111h16C185.7,199,193,190.6,191.6,181.2z"/>
	<g>
		<rect x="155.3" y="71.8" class="st12" width="22.3" height="16.3"/>
		<rect x="155.3" y="71.8" class="st12" width="4.9" height="16.3"/>
	</g>
	<rect x="160.2" y="71.8" class="st13" width="17.4" height="16.3"/>
	<rect x="164.7" y="71.8" class="st12" width="3.5" height="16.3"/>
	<polyline class="st11" points="158.8,88 155.3,88 155.3,71.8 158.8,71.8 	"/>
	<rect x="174.1" y="71.8" class="st12" width="3.5" height="16.3"/>
	<rect x="143.7" y="150.2" class="st7" width="37.8" height="33.1"/>
	<rect x="160.2" y="150.2" class="st10" width="21.2" height="33.1"/>
	<path class="st11" d="M158.6,158.2c0-2.2,1.8-3.9,3.9-3.9c2.2,0,3.9,1.8,3.9,3.9s-1.8,6.6-3.9,6.6
		C160.4,164.8,158.6,160.4,158.6,158.2z"/>
	<path class="st12" d="M162.6,154.3C162.5,154.3,162.5,154.3,162.6,154.3l-0.1,10.5c0,0,0,0,0.1,0c2.2,0,3.9-4.4,3.9-6.6
		C166.5,156,164.7,154.3,162.6,154.3z"/>
	<path class="st11" d="M166.5,175.2c0,2.2-1.8,3.9-3.9,3.9s-3.9-1.8-3.9-3.9c0-2.2,1.8-6.6,3.9-6.6S166.5,173.1,166.5,175.2z"/>
	<g>
		<path class="st12" d="M162.6,168.6C162.5,168.6,162.5,168.6,162.6,168.6l-0.1,10.5c0,0,0,0,0.1,0c2.2,0,3.9-1.8,3.9-3.9
			S164.7,168.6,162.6,168.6z"/>
		<path class="st12" d="M171.1,162.8c2.2,0,3.9,1.8,3.9,3.9c0,2.2-1.8,3.9-3.9,3.9s-6.6-1.8-6.6-3.9S168.9,162.8,171.1,162.8z"/>
	</g>
	<g>
		<path class="st11" d="M154,170.7c-2.2,0-3.9-1.8-3.9-3.9s1.8-3.9,3.9-3.9c2.2,0,6.6,1.8,6.6,3.9
			C160.7,168.9,156.2,170.7,154,170.7z"/>
		<path class="st11" d="M165.8,157.9c1.5-1.5,4-1.5,5.6,0s1.5,4,0,5.6c-1.5,1.5-5.9,3.4-7.5,1.9
			C162.4,163.8,164.3,159.5,165.8,157.9z"/>
	</g>
	<path class="st9" d="M159.3,175.5c-1.5,1.5-4,1.5-5.6,0s-1.5-4,0-5.6c1.5-1.5,5.9-3.4,7.5-1.9C162.7,169.6,160.9,174,159.3,175.5z"
		/>
	<path class="st11" d="M171.4,170c1.5,1.5,1.5,4,0,5.6s-4,1.5-5.6,0s-3.4-5.9-1.9-7.5S169.8,168.4,171.4,170z"/>
	<path class="st9" d="M153.7,163.5c-1.5-1.5-1.5-4,0-5.6s4-1.5,5.6,0c1.5,1.5,3.4,5.9,1.9,7.5C159.7,166.9,155.3,165,153.7,163.5z"
		/>
	<circle class="st14" cx="162.6" cy="166.7" r="5.2"/>
	<path class="st15" d="M162.6,161.5C162.5,161.5,162.5,161.5,162.6,161.5l-0.1,10.5c0,0,0,0,0.1,0c2.9,0,5.2-2.3,5.2-5.2
		C167.8,163.8,165.4,161.5,162.6,161.5z"/>
	<path class="st9" d="M103.2,141.7c0-2.6,2.1-4.8,4.8-4.8s4.8,2.1,4.8,4.8c0,2.6-2.1,8-4.8,8S103.2,144.3,103.2,141.7z"/>
	<path class="st11" d="M108,136.9c-0.1,0-0.2,0-0.2,0v12.7c0.1,0,0.2,0,0.2,0c2.6,0,4.8-5.4,4.8-8S110.6,136.9,108,136.9z"/>
	<path class="st9" d="M112.8,162.3c0,2.6-2.1,4.8-4.8,4.8s-4.8-2.1-4.8-4.8s2.1-8,4.8-8C110.6,154.3,112.8,159.6,112.8,162.3z"/>
	<g>
		<path class="st11" d="M108,154.3c-0.1,0-0.2,0-0.2,0V167c0.1,0,0.2,0,0.2,0c2.6,0,4.8-2.1,4.8-4.8
			C112.8,159.6,110.6,154.3,108,154.3z"/>
		<path class="st11" d="M118.3,147.2c2.6,0,4.8,2.1,4.8,4.8c0,2.6-2.1,4.8-4.8,4.8s-8-2.1-8-4.8S115.7,147.2,118.3,147.2z"/>
	</g>
	<g>
		<path class="st9" d="M97.7,156.7c-2.6,0-4.8-2.1-4.8-4.8c0-2.6,2.1-4.8,4.8-4.8s8,2.1,8,4.8C105.7,154.6,100.3,156.7,97.7,156.7z"
			/>
		<path class="st9" d="M111.9,141.3c1.9-1.9,4.9-1.9,6.7,0c1.9,1.9,1.9,4.9,0,6.7c-1.9,1.9-7.2,4.1-9,2.3
			C107.8,148.5,110.1,143.2,111.9,141.3z"/>
	</g>
	<path class="st16" d="M104.1,162.6c-1.9,1.9-4.9,1.9-6.7,0c-1.9-1.9-1.9-4.9,0-6.7c1.9-1.9,7.2-4.1,9-2.3
		C108.2,155.4,105.9,160.7,104.1,162.6z"/>
	<path class="st9" d="M118.6,155.9c1.9,1.9,1.9,4.9,0,6.7c-1.9,1.9-4.9,1.9-6.7,0c-1.9-1.9-4.1-7.2-2.3-9S116.8,154,118.6,155.9z"/>
	<path class="st16" d="M97.4,148.1c-1.9-1.9-1.9-4.9,0-6.7c1.9-1.9,4.9-1.9,6.7,0c1.9,1.9,4.1,7.2,2.3,9
		C104.5,152.2,99.2,149.9,97.4,148.1z"/>
	<circle class="st14" cx="108" cy="152" r="6.3"/>
	<path class="st15" d="M108,145.6c-0.1,0-0.2,0-0.2,0v12.7c0.1,0,0.2,0,0.2,0c3.5,0,6.3-2.8,6.3-6.3S111.5,145.6,108,145.6z"/>
	<path class="st9" d="M123.1,88.5c0-1.7,1.3-3,3-3s3,1.3,3,3s-1.3,5-3,5C124.4,93.5,123.1,90.1,123.1,88.5z"/>
	<path class="st11" d="M126.1,85.5c-0.1,0-0.1,0-0.2,0v8c0.1,0,0.1,0,0.2,0c1.7,0,3-3.4,3-5C129.1,86.8,127.7,85.5,126.1,85.5z"/>
	<path class="st9" d="M129.1,101.4c0,1.7-1.3,3-3,3s-3-1.3-3-3s1.3-5,3-5C127.7,96.4,129.1,99.8,129.1,101.4z"/>
	<g>
		<path class="st11" d="M126.1,96.4c-0.1,0-0.1,0-0.2,0v8c0.1,0,0.1,0,0.2,0c1.7,0,3-1.3,3-3C129.1,99.8,127.7,96.4,126.1,96.4z"/>
		<path class="st11" d="M132.5,92c1.7,0,3,1.3,3,3s-1.3,3-3,3s-5-1.3-5-3S130.9,92,132.5,92z"/>
	</g>
	<g>
		<path class="st9" d="M119.6,98c-1.7,0-3-1.3-3-3s1.3-3,3-3s5,1.3,5,3C124.6,96.6,121.2,98,119.6,98z"/>
		<path class="st9" d="M128.5,88.2c1.2-1.2,3.1-1.2,4.2,0c1.2,1.2,1.2,3.1,0,4.2c-1.2,1.2-4.5,2.6-5.7,1.4
			C125.9,92.8,127.4,89.4,128.5,88.2z"/>
	</g>
	<path class="st16" d="M123.6,101.7c-1.2,1.2-3.1,1.2-4.2,0c-1.2-1.2-1.2-3.1,0-4.2c1.2-1.2,4.5-2.6,5.7-1.4
		C126.2,97.2,124.8,100.5,123.6,101.7z"/>
	<path class="st9" d="M132.8,97.4c1.2,1.2,1.2,3.1,0,4.2c-1.2,1.2-3.1,1.2-4.2,0c-1.2-1.2-2.6-4.5-1.4-5.7
		C128.3,94.8,131.6,96.3,132.8,97.4z"/>
	<path class="st16" d="M119.3,92.5c-1.2-1.2-1.2-3.1,0-4.2c1.2-1.2,3.1-1.2,4.2,0c1.2,1.2,2.6,4.5,1.4,5.7
		C123.9,95.1,120.5,93.7,119.3,92.5z"/>
	<circle class="st14" cx="126.1" cy="95" r="4"/>
	<path class="st15" d="M126.1,91c-0.1,0-0.1,0-0.2,0v8c0.1,0,0.1,0,0.2,0c2.2,0,4-1.8,4-4S128.3,91,126.1,91z"/>
	<g>
		<rect x="97.2" y="54.1" class="st16" width="33.6" height="4.6"/>
		<rect x="70.6" y="106.5" class="st16" width="33.6" height="4.6"/>
		<rect x="94.9" y="115.6" class="st16" width="33.6" height="4.6"/>
		<path class="st16" d="M108.6,78.1h-2.1c-4.6,0-8.3-3.7-8.3-8.3s3.7-8.3,8.3-8.3h27.7v4.6h-27.7c-2,0-3.6,1.6-3.6,3.6
			s1.6,3.6,3.6,3.6h2.1V78.1z"/>
		<path class="st16" d="M82.7,141.5h-2.1c-4.6,0-8.3-3.7-8.3-8.3s3.7-8.3,8.3-8.3h27.7v4.6H80.7c-2,0-3.6,1.6-3.6,3.6
			s1.6,3.6,3.6,3.6h2.1L82.7,141.5L82.7,141.5z"/>
	</g>
</g>
</svg>
