<?xml version="1.0" encoding="utf-8"?>
<!-- Generator: Adobe Illustrator 19.2.0, SVG Export Plug-In . SVG Version: 6.00 Build 0)  -->
<svg version="1.1" id="Layer_1" xmlns="http://www.w3.org/2000/svg" xmlns:xlink="http://www.w3.org/1999/xlink" x="0px" y="0px"
	 viewBox="0 0 200 200" style="enable-background:new 0 0 200 200;" xml:space="preserve">
<style type="text/css">
	.st0{fill:#178542;}
	.st1{fill:#106936;}
	.st2{fill:#163F1E;}
	.st3{fill:#00A057;}
	.st4{fill:#0E8743;}
	.st5{fill:#E8EB8F;}
	.st6{fill:#BFDA77;}
	.st7{fill:#82C341;}
	.st8{fill:#83C341;}
	.st9{fill:#5EA444;}
	.st10{fill:#73B243;}
	.st11{fill:#AF1E4A;}
	.st12{fill:#85153E;}
	.st13{fill:#537D39;}
	.st14{fill:#D2246A;}
	.st15{fill:#680B35;}
	.st16{fill:#C11E5C;}
	.st17{fill:#D42F27;}
	.st18{fill:#B11F24;}
	.st19{fill:#EF4343;}
	.st20{fill:#3B1A0D;}
	.st21{fill:#5AC5C7;}
	.st22{fill:#2FBEBC;}
	.st23{fill:#06A6A6;}
	.st24{fill:#0B8A91;}
	.st25{fill:#0C8399;}
	.st26{fill:#026278;}
	.st27{fill:#43BAC7;}
	.st28{fill:#ACDEE0;}
	.st29{fill:#F5F1E6;}
	.st30{fill:#77123E;}
	.st31{fill:#400F2A;}
</style>
<g id="Layer_93">
	<path class="st0" d="M169.4,33.8c-2.7-2.4-6.3-2.7-9.3-1.5c0.9-3.9-0.6-8.1-4.2-9.9c-3.9-2.1-8.7-1.2-11.4,2.1
		c0-3.9-2.7-7.8-6.9-8.7c-2.1-0.6-4.2-0.3-5.7,0.6c-2.1-2.1-4.5-3.3-7.2-3.9c-4.5-0.6-8.4,1.5-10.8,4.8c-1.8-4.8-6.6-7.8-11.7-7.2
		c-5.7,0.6-9.9,5.1-10.2,10.5c-3-4.2-8.4-6-13.5-4.2c-6,2.1-9,8.7-6.6,14.7l14.7,39.7C80.2,75.9,76,84,76,93.3
		c0,15.6,12,28.2,26.7,28.2s26.7-12.6,26.7-28.2c0-2.1-0.3-4.5-0.6-6.6c3,0.6,6-0.6,8.1-3l33-37.2C173.3,42.8,173,37.1,169.4,33.8z"
		/>
	<path class="st1" d="M161.3,41c-2.4-2.1-5.7-2.7-8.4-1.5c0.9-3.6-0.6-7.2-3.9-9c-3.6-2.1-8.1-1.2-10.5,1.8c0-3.6-2.4-7.2-6.3-8.1
		c-1.8-0.6-3.6-0.3-5.4,0.6c-1.5-1.8-3.9-3-6.6-3.3c-3.9-0.6-7.8,1.5-9.9,4.5c-1.5-4.2-6-7.2-10.8-6.6c-5.1,0.6-9,4.5-9.6,9.6
		c-2.7-3.9-7.8-5.7-12.3-3.9c-5.4,2.1-8.1,8.1-6,13.5L85,75c-6,4.8-9.6,12.3-9.6,20.7c0,14.4,11.1,25.8,24.6,25.8
		s24.6-11.7,24.6-25.8c0-2.1-0.3-3.9-0.6-6c2.7,0.3,5.7-0.3,7.5-2.7l30.3-34.2C164.9,49.1,164.6,44,161.3,41z"/>
	<path class="st2" d="M148.1,52.7c-2.1-1.8-4.8-2.1-7.2-1.2c0.6-3-0.6-6.3-3.3-7.8c-3-1.8-6.9-0.9-9,1.8c0-3.3-2.1-6-5.4-6.9
		c-1.5-0.3-3.3-0.3-4.5,0.6c-1.5-1.5-3.3-2.7-5.4-3c-3.6-0.3-6.6,1.2-8.4,3.9c-1.5-3.6-5.1-6.3-9.3-5.7c-4.5,0.3-7.8,3.9-8.1,8.1
		c-2.4-3.3-6.6-4.8-10.5-3.3c-4.5,1.8-6.9,6.9-5.4,11.7l11.7,31.2c-5.1,3.9-8.4,10.5-8.4,17.7c0,12.3,9.3,22.2,21,22.2
		s21-9.9,21-22.2c0-1.8-0.3-3.6-0.6-5.1c2.4,0.3,4.8-0.3,6.3-2.4l25.8-29.1C151.4,59.6,151.1,55.1,148.1,52.7z"/>
	<circle class="st3" cx="56.1" cy="55.7" r="35.7"/>
	<path class="st4" d="M56.1,20C76,20,91.9,35.9,91.9,55.7S76,91.5,56.1,91.5"/>
	<circle class="st5" cx="56.1" cy="55.7" r="28.5"/>
	<path class="st6" d="M76.3,35.6c11.1,11.1,11.1,29.4,0,40.6s-29.4,11.1-40.6,0"/>
	<g>
		<path class="st7" d="M51.6,38.9L51.6,38.9l4.5,10.5l4.5-10.5l0,0c0.3-0.6,0.3-1.2,0.3-2.1c0-2.7-2.1-4.8-4.8-4.8s-4.8,2.1-4.8,4.8
			C51.3,37.7,51.3,38.3,51.6,38.9z"/>
		<path class="st7" d="M41.7,47.6L41.7,47.6l10.5,4.2L48,41.3l0,0c-0.3-0.6-0.6-1.2-1.2-1.8c-1.8-1.8-4.8-1.8-6.9,0
			c-1.8,1.8-1.8,4.8,0,6.9C40.5,47,41.1,47.3,41.7,47.6z"/>
		<path class="st7" d="M65.8,40.7L65.8,40.7l-4.2,10.5L72.1,47l0,0c0.6-0.3,1.2-0.6,1.8-1.2c1.8-1.8,1.8-4.8,0-6.9
			c-1.8-1.8-4.8-1.8-6.9,0C66.4,39.5,66.1,40.1,65.8,40.7z"/>
		<path class="st7" d="M71.5,64.7L71.5,64.7L61,60.5L65.2,71l0,0c0.3,0.6,0.6,1.2,1.2,1.8c1.8,1.8,4.8,1.8,6.9,0
			c1.8-1.8,1.8-4.8,0-6.9C72.7,65.3,72.1,65,71.5,64.7z"/>
		<path class="st7" d="M60.6,72.6L60.6,72.6L56.1,62l-4.5,10.5l0,0c-0.3,0.6-0.3,1.2-0.3,2.1c0,2.7,2.1,4.8,4.8,4.8s4.8-2.1,4.8-4.8
			C60.9,73.8,60.6,73.2,60.6,72.6z"/>
		<path class="st7" d="M73,51.2L73,51.2l-10.5,4.5L73,60.2l0,0c0.6,0.3,1.2,0.3,2.1,0.3c2.7,0,4.8-2.1,4.8-4.8s-2.1-4.8-4.8-4.8
			C74.2,50.9,73.6,50.9,73,51.2z"/>
		<path class="st7" d="M39.3,60.2L39.3,60.2l10.5-4.5l-10.5-4.5l0,0c-0.6-0.3-1.2-0.3-2.1-0.3c-2.7,0-4.8,2.1-4.8,4.8
			s2.1,4.8,4.8,4.8C38.1,60.5,38.7,60.5,39.3,60.2z"/>
		<path class="st7" d="M47.4,70.8L47.4,70.8l4.2-10.5l-10.5,4.2l0,0c-0.6,0.3-1.2,0.6-1.8,1.2c-1.8,1.8-1.8,4.8,0,6.9
			c1.8,1.8,4.8,1.8,6.9,0C46.8,72,47.1,71.4,47.4,70.8z"/>
	</g>
	<path class="st8" d="M127.3,27.2L127.3,27.2L127.3,27.2L127.3,27.2c-1.2,17.4-15.9,26.1-8.7,43.9c4.2,10.2,15.6,12.9,28.8,15.3l0,0
		h0.3l0,0c9-9,16.2-18.9,13.5-29.7C155.9,38.3,138.8,40.4,127.3,27.2z"/>
	<path class="st9" d="M147.5,86.4L147.5,86.4L147.5,86.4L147.5,86.4c9-9,16.5-19.2,13.5-29.7c-5.1-18.3-22.2-16.2-33.6-29.4l0,0H127
		l0,0"/>
	<g>
		<polygon class="st10" points="136.3,53.3 124.6,50.6 137.5,56.9 143.6,44.3 		"/>
		<polygon class="st10" points="143,73.2 131.5,70.5 144.2,76.8 150.5,64.1 		"/>
		<polygon class="st10" points="139.7,63.2 126.4,59.9 140.9,67.1 148.1,52.7 		"/>
	</g>
	<path class="st8" d="M174.8,26L174.8,26L174.8,26L174.8,26c-6,11.4-19.5,12.9-20.4,27.3c-0.6,8.4,6.3,15,14.4,21l0,0l0,0l0,0
		c9.3-6,17.4-8.1,18.9-16.2C190.7,44,177.8,38.9,174.8,26z"/>
	<path class="st9" d="M168.8,74.4L168.8,74.4L168.8,74.4L168.8,74.4c9.6-6,17.4-8.1,18.9-16.2c2.7-14.1-9.9-19.2-12.9-32.1l0,0l0,0
		v0.3"/>
	<g>
		<polygon class="st10" points="172.4,47 165.5,41 172.1,49.7 180.5,43.1 		"/>
		<polygon class="st10" points="170.3,62.6 163.4,56.9 170,65.3 178.4,59 		"/>
		<polygon class="st10" points="171.5,54.5 163.7,47.9 170.9,57.8 180.5,50.3 		"/>
	</g>
	<path class="st11" d="M187.1,94.5c-4.2,17.1-15,11.7-29.4,8.1c-14.4-3.3-26.4-3.6-22.5-20.7c4.2-17.1,20.7-35.1,35.1-31.8
		C184.7,53.6,191.3,77.4,187.1,94.5z"/>
	<path class="st12" d="M170.6,50c14.4,3.3,21,27,16.8,44.2s-15,11.7-29.4,8.1"/>
	<ellipse transform="matrix(0.2337 -0.9723 0.9723 0.2337 20.835 232.1865)" class="st9" cx="157.7" cy="102.9" rx="1.8" ry="12"/>
	<path class="st13" d="M158.3,101.1c6.3,1.5,11.4,3.6,11.1,4.8c-0.3,0.9-5.7,0.6-12-0.9"/>
	<ellipse transform="matrix(0.8656 -0.5008 0.5008 0.8656 -7.1965 87.2351)" class="st14" cx="158.9" cy="57" rx="9.6" ry="3"/>
	<g>
		<circle class="st15" cx="147.8" cy="83.7" r="2.1"/>
		<circle class="st15" cx="142.4" cy="91.2" r="2.1"/>
		<circle class="st15" cx="156.2" cy="77.4" r="2.1"/>
		<circle class="st15" cx="150.8" cy="68.6" r="1.8"/>
		<circle class="st15" cx="144.8" cy="75" r="1.8"/>
		<circle class="st15" cx="161.6" cy="67.4" r="1.5"/>
		<circle class="st15" cx="157.4" cy="60.5" r="1.5"/>
		<circle class="st15" cx="164.9" cy="55.7" r="1.2"/>
		<circle class="st15" cx="155" cy="93.3" r="2.1"/>
	</g>
	<g>
		<circle class="st16" cx="175.4" cy="90.3" r="2.1"/>
		<circle class="st16" cx="176.9" cy="99.6" r="2.1"/>
		<circle class="st16" cx="170.6" cy="81" r="2.1"/>
		<circle class="st16" cx="179.6" cy="75.6" r="1.8"/>
		<circle class="st16" cx="182.3" cy="84" r="1.8"/>
		<circle class="st16" cx="170.6" cy="69.6" r="1.5"/>
		<circle class="st16" cx="177.5" cy="65.3" r="1.5"/>
		<circle class="st16" cx="172.7" cy="57.8" r="1.2"/>
		<circle class="st16" cx="164.9" cy="95.7" r="2.1"/>
	</g>
	<path class="st11" d="M149,91.5c-0.6,13.5-9.6,11.1-20.7,10.5c-11.1-0.3-20.4,1.2-19.8-12c0.6-13.5,10.2-29.4,21.3-29.1
		C141.2,61.4,149.6,78.3,149,91.5z"/>
	<path class="st12" d="M129.7,60.8c11.1,0.3,19.8,17.1,19.2,30.6s-9.6,11.1-20.7,10.5"/>
	
		<ellipse transform="matrix(3.839712e-002 -0.9993 0.9993 3.839712e-002 21.0739 226.5671)" class="st9" cx="128.3" cy="102.3" rx="1.5" ry="9.3"/>
	<path class="st13" d="M128.2,100.8c5.1,0.3,9,0.9,9,1.8s-4.2,1.2-9.3,1.2"/>
	
		<ellipse transform="matrix(0.7506 -0.6608 0.6608 0.7506 -14.2839 97.7107)" class="st14" cx="122.3" cy="67.8" rx="7.2" ry="2.1"/>
	<g>
		<circle class="st15" cx="118" cy="89.4" r="1.5"/>
		<circle class="st15" cx="115" cy="96" r="1.5"/>
		<circle class="st15" cx="123.4" cy="83.4" r="1.5"/>
		<circle class="st15" cx="118" cy="77.7" r="1.2"/>
		<circle class="st15" cx="114.1" cy="83.4" r="1.2"/>
		<circle class="st15" cx="125.8" cy="75.3" r="1.2"/>
		<circle class="st15" cx="121.6" cy="70.5" r="1.2"/>
		<circle class="st15" cx="126.4" cy="65.9" r="0.9"/>
		<circle class="st15" cx="124.6" cy="95.4" r="1.5"/>
	</g>
	<g>
		<circle class="st16" cx="139.7" cy="90.3" r="1.5"/>
		<circle class="st16" cx="142.1" cy="96.9" r="1.5"/>
		<circle class="st16" cx="134.5" cy="84" r="1.5"/>
		<circle class="st16" cx="140.6" cy="78.6" r="1.2"/>
		<circle class="st16" cx="143.6" cy="84.6" r="1.2"/>
		<circle class="st16" cx="132.7" cy="75.6" r="1.2"/>
		<path class="st16" d="M136.3,71.1c0,0.6,0.3,1.2,0.9,1.2s1.2-0.3,1.2-0.9s-0.3-1.2-0.9-1.2S136.3,70.5,136.3,71.1z"/>
		<circle class="st16" cx="132.7" cy="66.2" r="0.9"/>
		<circle class="st16" cx="132.4" cy="95.7" r="1.5"/>
	</g>
	<path class="st5" d="M120.1,105.6c0,0-42.1-44.5-58.6-40.6C45,69,51,82.2,51,82.2s-13.5-3.9-17.4,3.6S22.5,96.9,22.5,96.9l-6.6,6.9
		l10.2,9.6l102.7,2.1L120.1,105.6z"/>
	<path class="st6" d="M111.4,103.5c0,0-34.5-36.6-48.1-33.3c-13.5,3.3-8.7,14.1-8.7,14.1s-11.1-3.3-14.4,3c-3.3,6.3-9,9-9,9
		l-5.4,5.7l8.1,8.1l84.4,1.5L111.4,103.5z"/>
	<path class="st7" d="M112.3,107.4c0,0-33.9-35.7-47.2-32.7c-13.2,3.3-8.4,13.8-8.4,13.8s-10.8-3.3-14.1,2.7s-8.7,8.7-8.7,8.7
		l-5.1,5.7l8.1,8.1l82.6,1.5L112.3,107.4z"/>
	<path class="st4" d="M112.6,111c0,0-32.1-34.2-45.1-31.2c-12.6,3-8.1,12.9-8.1,12.9s-10.5-3-13.5,2.7s-8.4,8.4-8.4,8.4l-5.1,5.4
		l7.8,7.8l78.7,1.5L112.6,111z"/>
	<path class="st1" d="M115.9,115.8c0,0-32.1-34.2-45.1-31.2c-12.6,3-8.1,12.9-8.1,12.9s-10.5-3-13.5,2.7s-8.4,8.4-8.4,8.4l-5.1,5.4
		l7.8,7.8l78.7,1.5L115.9,115.8z"/>
	<circle class="st17" cx="24.3" cy="78.3" r="10.5"/>
	<path class="st18" d="M27.6,68.3c5.4,1.8,8.4,7.8,6.9,13.2c-1.8,5.4-7.8,8.4-13.2,6.9"/>
	<ellipse transform="matrix(0.4706 -0.8824 0.8824 0.4706 -56.782 55.5913)" class="st19" cx="17.9" cy="75.1" rx="4.8" ry="1.8"/>
	<g>
		<path class="st20" d="M21.6,70.2c0.3,0.6,0,1.2-0.6,1.5l0,0c-0.6,0.3-1.2,0-1.5-0.6l-3.6-6.9c-0.3-0.6,0-1.2,0.6-1.5l0,0
			c0.6-0.3,1.2,0,1.5,0.6L21.6,70.2z"/>
		<path class="st20" d="M18.6,57.2c0.3-0.6,0.9-0.6,1.5-0.3l0,0c0.6,0.3,0.9,0.9,0.6,1.5l-3,5.4c-0.3,0.6-0.9,0.6-1.5,0.3l0,0
			c-0.6-0.3-0.9-0.9-0.6-1.2L18.6,57.2z"/>
	</g>
	<circle class="st17" cx="21.9" cy="92.7" r="10.5"/>
	<path class="st18" d="M19.5,82.5c5.7-1.2,11.4,2.1,12.6,7.8c1.2,5.7-2.1,11.4-7.8,12.6"/>
	
		<ellipse transform="matrix(0.9988 -4.949744e-002 4.949744e-002 0.9988 -4.5951 0.8469)" class="st19" cx="14.8" cy="93.2" rx="1.8" ry="4.8"/>
	<path class="st20" d="M15.3,87c0.6,0.3,0.6,1.2,0.3,1.8l0,0c-0.3,0.6-0.9,0.6-1.5,0.3l-6.6-4.2c-0.6-0.3-0.9-0.9-0.6-1.5l0,0
		c0.3-0.6,1.2-0.6,1.8-0.3L15.3,87z"/>
	<path class="st21" d="M10.2,104.4c8.4,60.1,45.7,89.2,90.7,89.2s82.3-29.1,90.7-89.2L10.2,104.4L10.2,104.4z"/>
	<path class="st22" d="M100.6,193.6c45.1,0,82.6-29.1,91-89.2H9.6"/>
	<path class="st23" d="M100.9,192.1c45.1,0,82.3-28.2,90.7-89.2l-91.3,0.6"/>
	<rect x="75.7" y="188.5" class="st21" width="51.1" height="9"/>
	<path class="st24" d="M104.8,193.6c42.4-1.5,78.1-30.3,86.5-87.7L104.8,193.6z"/>
	<rect x="75.7" y="188.5" class="st25" width="51.1" height="9"/>
	<polyline class="st26" points="75.7,188.5 126.7,188.5 126.7,197.5 	"/>
	<polygon class="st23" points="116.5,129 10.5,104.4 120.1,104.4 	"/>
	<path class="st25" d="M192.5,102.9c0,1.8-2.1,4.5-3.6,4.5H14.1c-1.8,0-5.1-2.4-5.1-4.2l0,0c0-3,2.1-4.8,4.2-4.8h175.4
		C190.4,98.4,192.5,100.2,192.5,102.9L192.5,102.9z"/>
	<path class="st26" d="M192.5,102.9L192.5,102.9c0,2.1-1.8,4.5-3.6,4.5H12.6c-2.1,0-3.6-2.1-3.6-4.2l0,0"/>
	<g>
		<circle class="st25" cx="44.4" cy="124.5" r="4.8"/>
		<circle class="st25" cx="72.7" cy="124.5" r="4.8"/>
		<circle class="st25" cx="100.9" cy="124.5" r="4.8"/>
		<circle class="st25" cx="128.8" cy="124.5" r="4.8"/>
		<circle class="st25" cx="157.1" cy="124.5" r="4.8"/>
	</g>
	<g>
		<path class="st26" d="M44.4,120c2.7,0,4.8,2.1,4.8,4.8s-2.1,4.8-4.8,4.8"/>
		<path class="st26" d="M72.7,120c2.7,0,4.8,2.1,4.8,4.8s-2.1,4.8-4.8,4.8"/>
		<path class="st26" d="M100.9,120c2.7,0,4.8,2.1,4.8,4.8s-2.1,4.8-4.8,4.8"/>
		<path class="st26" d="M128.8,120c2.7,0,4.8,2.1,4.8,4.8s-2.1,4.8-4.8,4.8"/>
		<path class="st26" d="M157.1,120c2.7,0,4.8,2.1,4.8,4.8s-2.1,4.8-4.8,4.8"/>
		<polygon class="st26" points="64,141.3 54.6,132.3 36.3,150.4 54.6,168.7 64,159.4 54.6,150.4 		"/>
	</g>
	<polygon class="st25" points="82.3,141.3 73,132.3 64,141.3 73,150.4 64,159.4 73,168.7 82.3,159.4 73.3,150.4 	"/>
	<g>
		<polygon class="st26" points="100.9,141.3 91.6,132.3 82.3,141.3 91.3,150.4 82.3,159.4 91.6,168.7 100.9,159.4 91.9,150.4 		"/>
		<polygon class="st26" points="119.2,141.3 109.9,132.3 100.9,141.3 109.9,150.4 100.9,159.4 109.9,168.7 119.2,159.4 110.2,150.4 
					"/>
	</g>
	<polygon class="st25" points="137.8,141.3 128.5,132.3 119.2,141.3 128.2,150.4 119.2,159.4 128.5,168.7 137.8,159.4 128.8,150.4 	
		"/>
	<polygon class="st26" points="165.2,150.4 147.2,132.3 137.8,141.3 146.9,150.4 137.8,159.4 147.2,168.7 	"/>
	<path class="st21" d="M189.8,113.4c0.3,0,0.3-3,0.6-3h-179c0.3,0,0.3,3,0.6,3H189.8z"/>
	<path class="st27" d="M33.6,102.9c0,0.9-0.6,1.5-1.5,1.5h-18c-0.9,0-1.5-0.6-1.5-1.5l0,0c0-0.9,0.6-1.5,1.5-1.5h18
		C33,101.4,33.6,102,33.6,102.9L33.6,102.9z"/>
	<ellipse transform="matrix(0.859 -0.512 0.512 0.859 -64.2935 31.9303)" class="st28" cx="25.8" cy="132.7" rx="5.1" ry="14.7"/>
	<g>
		<path class="st29" d="M138.2,74.1c16.5-0.9,30.6,6.3,33.3,15.9c0.3-1.2,0.3-2.1,0.3-3.3c-0.6-11.4-15.6-20.1-33.9-19.2
			s-32.7,10.8-32.1,22.2c0,1.2,0.3,2.1,0.6,3.3C108.1,83.1,121.6,75,138.2,74.1z"/>
		<path class="st29" d="M132.4,82.2c13.2,0.9,23.7,7.5,25.2,15.6c0.3-0.9,0.3-1.8,0.6-2.4c0.6-9.3-10.8-17.4-25.2-18.3
			s-26.7,5.7-27.3,15c0,0.9,0,1.8,0.3,2.7C107.8,86.7,119.2,81.3,132.4,82.2z"/>
	</g>
	<path class="st30" d="M24.3,17.9c-3.9-1.8-8.4-0.3-9.9,3c-1.2,3,1.2,3.6,4.2,4.8c-0.3,0.6-0.6,1.2-0.9,1.8
		c-1.2,2.4,0.3,2.1,1.2,2.7c1.2,0.6,1.8,1.5,3-0.9c0.3-0.6,0.6-1.2,0.6-1.8c3,1.5,5.1,2.7,6.6-0.3C30.3,23.9,28.2,19.7,24.3,17.9z"
		/>
	<path class="st31" d="M17.7,27.5c-1.2,2.4,0.3,2.1,1.2,2.7c1.2,0.6,1.8,1.5,3-0.9c0.3-0.6,0.6-1.2,0.6-1.8c3,1.5,5.1,2.7,6.6-0.3
		c1.5-3.3-0.6-7.5-4.5-9.3"/>
	<path class="st30" d="M13.2,35.6c-3,1.5-4.5,5.1-3,7.5c1.2,2.1,2.7,1.2,5.1-0.3c0,0.6,0.3,0.9,0.6,1.5c0.9,1.8,1.5,0.9,2.4,0.6
		c0.9-0.6,1.8-0.3,0.9-2.1c-0.6-0.6-0.9-0.9-1.2-1.5c2.4-1.2,4.2-1.8,3-3.9C19.8,34.7,16.2,34.1,13.2,35.6z"/>
	<path class="st31" d="M15.6,44.3c0.9,1.8,1.5,0.9,2.4,0.6c0.9-0.6,1.8-0.3,0.9-2.1c-0.3-0.6-0.6-0.9-0.9-1.5c2.4-1.2,4.2-1.8,3-3.9
		c-1.2-2.7-4.8-3.3-7.8-1.8"/>
	<path class="st30" d="M166.7,14.6c-3,1.5-4.5,5.1-3,7.5c0.9,2.1,2.7,1.2,5.1-0.3c0,0.6,0.3,0.9,0.6,1.5c0.9,1.8,1.5,0.9,2.4,0.6
		c0.9-0.6,1.8-0.3,0.9-2.1c-0.6-0.6-0.9-0.9-1.2-1.5c2.4-1.2,4.2-1.8,3-3.9C173.3,13.7,169.7,13.1,166.7,14.6z"/>
	<path class="st31" d="M169.1,23.3c0.9,1.8,1.5,0.9,2.4,0.6c0.9-0.6,1.8-0.3,0.9-2.1c-0.3-0.6-0.6-0.9-0.9-1.5
		c2.4-1.2,4.2-1.8,3-3.9c-1.2-2.7-4.8-3.3-8.1-1.8"/>
</g>
</svg>
