<?xml version="1.0" encoding="utf-8"?>
<!-- Generator: Adobe Illustrator 19.2.0, SVG Export Plug-In . SVG Version: 6.00 Build 0)  -->
<svg version="1.1" id="Layer_1" xmlns="http://www.w3.org/2000/svg" xmlns:xlink="http://www.w3.org/1999/xlink" x="0px" y="0px"
	 viewBox="0 0 200 200" style="enable-background:new 0 0 200 200;" xml:space="preserve">
<style type="text/css">
	.st0{fill:#DAEFF6;}
	.st1{fill:#73B9E6;}
	.st2{fill:#00AB6F;}
	.st3{fill:#DD312A;}
	.st4{fill:#010101;}
	.st5{fill:#EF5424;}
	.st6{fill:#FFDB70;}
</style>
<g id="Layer_34">
	<path class="st0" d="M148,59.3l-1.1,16.1l-10.5,5.8c-10.3,5.7-22.7,6.2-33.5,1.3c-10.7-4.9-23.1-4.4-33.5,1.3l-12.5,7l-2.1-31.1
		l68.2-0.3l18.6-0.1L148,59.3z"/>
	<path class="st1" d="M146.9,75.4L140,178.8l-78.7-23.3L57,90.8l12.5-7c10.3-5.7,22.7-6.2,33.5-1.3c10.7,4.9,23.1,4.4,33.5-1.3
		L146.9,75.4z"/>
	<path class="st2" d="M141.8,118.2h49.7c0,44.5-36,80.6-80.5,80.7h-0.1H69.8L141.8,118.2z"/>
	<path class="st3" d="M138.7,118.8h41.6v-0.5c0,38.4-31.1,69.6-69.6,69.6l0,0L138.7,118.8z"/>
	<path class="st4" d="M54.9,137.2h-6.2c0-11.6,3.9-23.1,11.1-32.2l0.4-0.5l4.9,3.8l-0.4,0.5C58.4,116.8,54.9,126.9,54.9,137.2z"/>
	<path class="st2" d="M24.1,109.4L24.1,109.4c15.3,0,27.7,12.4,27.7,27.7l0,0l0,0l0,0C36.5,137.2,24.1,124.8,24.1,109.4L24.1,109.4
		L24.1,109.4L24.1,109.4z"/>
	<path class="st5" d="M48.7,196.3c-6.1,3.4-13.7,3.1-19.6-0.8l0,0c-7.3-4.8-12.5-12.2-14.7-20.7l-1.9-7.3
		c-3.4-13,0.9-26.7,10.9-35.6l0.9-0.8c1.7-1.5,3.8-2.6,6-3.1h0.9c5.3,5.8,12.7,9.1,20.5,9.1l0,0V137c1.2,0,2.5-0.4,3.4-1.2l5.9-5
		c5.3-4.4,12.9-4.3,18.1,0.3l0.9,0.8c8.1,7.1,12.5,17.5,12,28.2L48.7,196.3z"/>
	<path class="st6" d="M138.6,103.3c2.7,1.1,4.5,3.8,4.5,6.7v13c0,16.2-4.8,32.1-13.9,45.5c-13.7,20-36.9,31.4-61.1,30.1
		c-11.7-0.5-23-3.9-33.1-9.8l-0.4-0.3v-11.3l13.7-1c39-2.9,71-31.9,77.7-70.4c0.5-3.2,3.5-5.3,6.6-4.8c0.4,0.1,0.9,0.2,1.3,0.4
		L138.6,103.3z"/>
	<path class="st1" d="M104.5,93.4h-6.2V40.7c0-1.1,0.5-2,1.4-2.6l34.1-21.7l3.3,5.2l-32.7,20.8L104.5,93.4L104.5,93.4z"/>
	<rect x="151.1" y="127.6" class="st4" width="6.2" height="6.2"/>
	<rect x="141.8" y="158.6" class="st4" width="6.2" height="6.2"/>
	<rect x="151.1" y="146.2" class="st4" width="6.2" height="6.2"/>
</g>
</svg>
