<?xml version="1.0" encoding="utf-8"?>
<!-- Generator: Adobe Illustrator 19.2.0, SVG Export Plug-In . SVG Version: 6.00 Build 0)  -->
<svg version="1.1" id="Layer_1" xmlns="http://www.w3.org/2000/svg" xmlns:xlink="http://www.w3.org/1999/xlink" x="0px" y="0px"
	 viewBox="0 0 200 200" style="enable-background:new 0 0 200 200;" xml:space="preserve">
<style type="text/css">
	.st0{fill:#73BF44;}
	.st1{fill:#5FAD46;}
	.st2{fill:#509141;}
	.st3{fill:#96CB5D;}
	.st4{fill:#CB7629;}
	.st5{fill:#A96327;}
</style>
<g id="Layer_53">
	<path class="st0" d="M110.6,92.4c-1.4,1.5-3.3,2.2-5.3,2.1c-0.7,0-17.2-1.2-34.1-10.3c-16-8.6-35.3-26.1-36.4-60.4
		c-0.1-1.9,0.7-3.7,2-5c2-2,4.4-2,5.4-2l0,0c0.7,0,17.6,0.1,34.9,10.5c9,5.4,16.5,12.6,22.3,21.3c7,10.6,11.4,23.5,13.1,38.3
		C112.6,88.9,112,90.9,110.6,92.4z"/>
	<path class="st1" d="M99.5,48.9c-2.8,5.2-5.2,11.2-7,17.8c-1.5,4.6-3.9,12.7-5.9,24c10.3,3.2,18.1,3.8,18.6,3.8
		c2,0.1,4-0.6,5.3-2.1c1.4-1.5,2-3.5,1.8-5.5C110.7,72.2,106.3,59.4,99.5,48.9z"/>
	<path class="st2" d="M104.8,80.7L90.2,66.5l-3.9-19.2c-0.3-1.5-1.8-2.5-3.3-2.2s-2.5,1.8-2.2,3.3L83,59.5l-8-7.8l-3.9-19.5
		c-0.3-1.5-1.8-2.5-3.3-2.2s-2.5,1.8-2.2,3.3l2.3,11.4L49.1,26.4c-1.1-1.1-2.9-1.1-4,0.1c-1.1,1.1-1.1,2.9,0.1,4l20.7,20.1
		l-14.4-0.2c-1.5,0-2.8,1.2-2.9,2.8c0,1.6,1.2,2.8,2.8,2.9l20.4,0.3l9.6,9.3l-14.6-0.2c-1.5,0-2.8,1.2-2.9,2.8
		c0,1.6,1.2,2.8,2.8,2.9l20.6,0.4L101,85c0.5,0.5,1.3,0.8,2,0.8s1.5-0.3,2-0.8C105.9,83.6,105.9,81.8,104.8,80.7z"/>
	<path class="st3" d="M176.8,18.8c-1.4-1.5-3.3-2.2-5.3-2.1c-0.7,0-17.2,1.2-34.1,10.3c-13,7-28.2,19.9-34,42.9
		c-3.2,9.4-10.2,34.8-8.5,73c0.1,3.3,2.9,5.9,6.1,5.9c0.1,0,0.2,0,0.3,0c3.4-0.1,6-3,5.9-6.4c-0.8-19.8,0.8-36,2.9-47.9
		c4.7-0.3,18.8-1.8,33.3-10.5c9-5.4,16.5-12.6,22.3-21.3c7-10.6,11.4-23.5,13.1-38.3C178.8,22.3,178.2,20.3,176.8,18.8z"/>
	<path class="st1" d="M168,26.5c-1.1-1.1-2.9-1.1-4-0.1l-18.8,18.3l2.3-11.4c0.3-1.5-0.7-3-2.2-3.3s-3,0.7-3.3,2.2l-3.9,19.5
		l-8.1,7.9l2.2-11.1c0.3-1.5-0.7-3-2.2-3.3s-3,0.7-3.3,2.2l-3.9,19.2l-14.6,14.2c-1.1,1.1-1.1,2.9-0.1,4c0.6,0.6,1.3,0.8,2,0.8
		s1.4-0.3,2-0.8l13.7-13.4l20.6-0.4c1.6,0,2.8-1.3,2.8-2.9c0-1.5-1.3-2.8-2.8-2.8l0,0l-14.6,0.2l9.6-9.3l20.4-0.3
		c1.6,0,2.8-1.3,2.8-2.9c0-1.5-1.3-2.8-2.8-2.8l0,0l-14.4,0.2l20.7-20.1C169,29.4,169,27.6,168,26.5z"/>
	<path class="st4" d="M170.1,163.5c-2.8,0-5.5,0.8-7.7,2.2c-3.3-10.9-13.4-18.8-25.4-18.8c-1.3,0-2.6,0.1-3.9,0.3
		c-5.4-12.4-17.8-21.1-32.2-21.1s-26.7,8.7-32.2,21.1c-1.3-0.2-2.6-0.3-3.9-0.3c-11.9,0-22,7.9-25.4,18.8c-2.2-1.4-4.9-2.2-7.7-2.2
		c-8.2,0-14.8,6.6-14.8,14.8s6.6,14.8,14.8,14.8c4.4,0,8.3-1.9,11-4.9c4.8,7.1,12.9,11.8,22.1,11.8c7.5,0,14.2-3.1,19-8
		c5,2.8,10.9,4.4,17,4.4c6.2,0,12-1.6,17-4.4c4.8,5,11.6,8,19,8c9.2,0,17.3-4.7,22.1-11.8c2.7,3,6.6,4.9,11,4.9
		c8.2,0,14.8-6.6,14.8-14.8C184.9,170.1,178.3,163.5,170.1,163.5z"/>
	<g>
		<path class="st5" d="M120.3,140.5c3.5,0,6.9,0.5,10,1.5c-6.3-9.5-17.1-15.8-29.3-15.8c-14.4,0-26.7,8.7-32.2,21.1
			c-1.3-0.2-2.6-0.3-3.9-0.3c-11.9,0-22,7.9-25.4,18.8c-2.2-1.4-4.9-2.2-7.7-2.2c-8.2,0-14.8,6.6-14.8,14.8s6.6,14.8,14.8,14.8
			c4.4,0,8.3-1.9,11-4.9c4.8,7.1,12.9,11.8,22.1,11.8c7.5,0,14.2-3.1,19-8c2.2,1.2,4.5,2.2,7,3c-3.6-5.5-5.8-12.1-5.8-19.3
			C85.2,156.3,100.9,140.5,120.3,140.5z"/>
		<circle class="st5" cx="114.9" cy="167.4" r="6.4"/>
		<circle class="st5" cx="140.6" cy="182.4" r="6.4"/>
		<circle class="st5" cx="136.7" cy="160.6" r="2.4"/>
		<circle class="st5" cx="101" cy="184.9" r="2.4"/>
		<circle class="st5" cx="108.6" cy="151.5" r="2.4"/>
		<circle class="st5" cx="161.2" cy="173.8" r="2.4"/>
	</g>
	<g>
		<circle class="st4" cx="146.9" cy="130.3" r="6.4"/>
		<circle class="st4" cx="161.2" cy="144.5" r="2.4"/>
		<circle class="st4" cx="161.2" cy="132.7" r="2.4"/>
	</g>
	<g>
		<circle class="st5" cx="49.6" cy="128" r="6.4"/>
		<circle class="st5" cx="39" cy="142" r="2.4"/>
	</g>
</g>
</svg>
