<?xml version="1.0" encoding="utf-8"?>
<!-- Generator: Adobe Illustrator 19.2.0, SVG Export Plug-In . SVG Version: 6.00 Build 0)  -->
<svg version="1.1" id="Layer_1" xmlns="http://www.w3.org/2000/svg" xmlns:xlink="http://www.w3.org/1999/xlink" x="0px" y="0px"
	 viewBox="0 0 200 200" style="enable-background:new 0 0 200 200;" xml:space="preserve">
<style type="text/css">
	.st0{fill:#098BAA;}
</style>
<g id="Layer_22">
	<g>
		<g>
			<path class="st0" d="M89.4,47.3H35.7c-9.6,0-17.5,7.8-17.5,17.5v117.7c0,9.6,7.8,17.5,17.5,17.5h53.7c9.6,0,17.5-7.8,17.5-17.5
				V64.7C106.9,55.1,99.1,47.3,89.4,47.3z M28,64.7c0-4.3,3.5-7.8,7.8-7.8h53.7c4.3,0,7.8,3.5,7.8,7.8v23.4H28V64.7L28,64.7z"/>
			<path class="st0" d="M80.4,25c0-4.3-3.5-7.8-7.8-7.8H52.5c-4.3,0-7.8,3.5-7.8,7.8v15h35.7V25L80.4,25z"/>
			<path class="st0" d="M149.7,31h30.1c2.2,0,4-1.8,4-4v-5.8c0-2.2-1.8-4-4-4h-36.4c-10.6,0-19.3,8.6-19.3,19.3v144.2
				c0,10.6,8.6,19.3,19.3,19.3h36.4c2.2,0,4-1.8,4-4v-5.9c0-2.2-1.8-4-4-4h-30c-2.2,0-4-1.8-4-4v-3.5c0-2.2,1.8-4,4-4h30.1
				c2.2,0,4-1.8,4-4V166c0-2.2-1.8-4-4-4h-30.1c-2.2,0-4-1.8-4-4v-3.5c0-2.2,1.8-4,4-4h30.1c2.2,0,4-1.8,4-4v-4.6c0-2.2-1.8-4-4-4
				h-30.1c-2.2,0-4-1.8-4-4v-3.5c0-2.2,1.8-4,4-4h30.1c2.2,0,4-1.8,4-4v-4.6c0-2.2-1.8-4-4-4h-30.1c-2.2,0-4-1.8-4-4v-3.5
				c0-2.2,1.8-4,4-4h30.1c2.2,0,4-1.8,4-4v-4.6c0-2.2-1.8-4-4-4h-30.1c-2.2,0-4-1.8-4-4v-3.5c0-2.2,1.8-4,4-4h30.1c2.2,0,4-1.8,4-4
				v-4.6c0-2.2-1.8-4-4-4h-30.1c-2.2,0-4-1.8-4-4v-3.5c0-2.2,1.8-4,4-4h30.1c2.2,0,4-1.8,4-4v-4.6c0-2.2-1.8-4-4-4h-30.1
				c-2.2,0-4-1.8-4-4V34C145.7,32.8,147.5,31,149.7,31z"/>
		</g>
	</g>
</g>
</svg>
