<?xml version="1.0" encoding="utf-8"?>
<!-- Generator: Adobe Illustrator 19.2.0, SVG Export Plug-In . SVG Version: 6.00 Build 0)  -->
<svg version="1.1" id="Layer_1" xmlns="http://www.w3.org/2000/svg" xmlns:xlink="http://www.w3.org/1999/xlink" x="0px" y="0px"
	 viewBox="0 0 200 200" style="enable-background:new 0 0 200 200;" xml:space="preserve">
<style type="text/css">
	.st0{fill:#727272;}
	.st1{fill:#E3E3E3;}
	.st2{fill:#67CDEE;}
	.st3{fill:#FFFFFF;}
	.st4{fill:#FFC535;}
	.st5{fill:#3B9DB4;}
	.st6{fill:#EE3867;}
	.st7{opacity:0.1;}
	.st8{fill:#010101;}
	.st9{fill:#C2DFF5;}
	.st10{fill:#2161A2;}
	.st11{fill:#E7B521;}
	.st12{fill:#DCECF8;}
	.st13{opacity:0.24;fill:#222426;enable-background:new    ;}
	.st14{opacity:0.24;}
	.st15{fill:#222426;}
</style>
<g id="Layer_35">
	<path class="st0" d="M113.1,28.7V18c0-1.4-1.4-2.3-2.7-1.7L82.3,28.7v7.7h28.5L113.1,28.7z"/>
	<path class="st1" d="M34.3,189.7V36.3c0-4.2,3.4-7.6,7.6-7.6h75.2c4.2,0,7.6,3.4,7.6,7.6v153.4c0,4.2-3.4,7.6-7.6,7.6H41.9
		C37.7,197.3,34.3,193.9,34.3,189.7z"/>
	<rect x="34.3" y="60" class="st2" width="90.4" height="106"/>
	<circle class="st3" cx="79.5" cy="110.9" r="31.2"/>
	<path class="st4" d="M99,107.1l-23,27.4c-0.8,1-2.4,0.1-1.9-1.1l5.7-14.7H60.1l23.3-31.2c0.8-1,2.4-0.2,2,1l-6,18.6H99z"/>
	<path class="st1" d="M34.3,189.7c0,4.2,3.4,7.6,7.6,7.6h75.2c4.2,0,7.6-3.4,7.6-7.6v-2.6H34.3V189.7z"/>
	<path class="st5" d="M89.4,155.6H69.7c-1.6,0-2.9-1.3-2.9-2.9s1.3-2.9,2.9-2.9h19.7c1.6,0,2.9,1.3,2.9,2.9S91,155.6,89.4,155.6z"/>
	<g>
		<path class="st6" d="M22.1,111.4H2.9c-1.6,0-2.9-1.3-2.9-2.9s1.3-2.9,2.9-2.9h19.2c1.6,0,2.9,1.3,2.9,2.9S23.7,111.4,22.1,111.4z"
			/>
		<path class="st6" d="M21.5,98.8c-0.6,0-1.1-0.2-1.6-0.5l-6.2-4.2c-1.3-0.9-1.6-2.7-0.8-4c0.9-1.3,2.7-1.6,4-0.8l6.2,4.2
			c1.3,0.9,1.6,2.7,0.8,4C23.3,98.4,22.4,98.8,21.5,98.8z"/>
		<path class="st6" d="M15.3,128.2c-0.9,0-1.8-0.4-2.4-1.2c-0.9-1.3-0.5-3.1,0.8-4l6.2-4.2c1.3-0.9,3.1-0.5,4,0.8s0.5,3.1-0.8,4
			l-6.2,4.2C16.4,128.1,15.8,128.2,15.3,128.2z"/>
		<path class="st6" d="M154.4,111.4h-19.2c-1.6,0-2.9-1.3-2.9-2.9s1.3-2.9,2.9-2.9h19.2c1.6,0,2.9,1.3,2.9,2.9
			C157.2,110.1,155.9,111.4,154.4,111.4z"/>
		<path class="st6" d="M142,128.2c-0.6,0-1.1-0.2-1.6-0.5l-6.2-4.2c-1.3-0.9-1.6-2.7-0.8-4c0.9-1.3,2.7-1.6,4-0.8l6.2,4.2
			c1.3,0.9,1.6,2.7,0.8,4C143.8,127.8,142.9,128.2,142,128.2z"/>
		<path class="st6" d="M135.8,98.8c-0.9,0-1.8-0.4-2.4-1.2c-0.9-1.3-0.5-3.1,0.8-4l6.2-4.2c1.3-0.9,3.1-0.5,4,0.8s0.5,3.1-0.8,4
			l-6.2,4.2C136.9,98.7,136.3,98.8,135.8,98.8z"/>
	</g>
	<g>
		<rect x="34.3" y="39.9" class="st5" width="90.4" height="20.1"/>
		<rect x="34.3" y="166" class="st5" width="90.4" height="20.1"/>
	</g>
	<g class="st7">
		<path class="st8" d="M124.1,33.3c-0.2-0.5-0.4-0.9-0.7-1.3c-1.4-2-3.7-3.4-6.3-3.4h-3.5v0.2v20.1v106V176v2.4
			c0,4.2-3.4,7.6-7.6,7.6H34.3v3.6c0,4.2,3.4,7.6,7.6,7.6h75.2c4.2,0,7.6-3.4,7.6-7.6V187v-21V60V39.9v-3.6
			C124.7,35.2,124.5,34.2,124.1,33.3z"/>
	</g>
</g>
<g id="Layer_37">
	<path class="st9" d="M81.5,116.2v3.8c0,1.1,1.1,1.9,2.5,1.9h5.1l2.4,24.8l1.5,15.2l3.4,34.7c0.2,2,2.4,3.5,5.1,3.5h46.6
		c1.2,0,2.2-0.3,3.1-0.8c0.3-0.2,0.5-0.3,0.7-0.5l0,0c0.2-0.2,0.4-0.4,0.5-0.6l0.1-0.1c0.1-0.2,0.2-0.4,0.3-0.6l0.1-0.1
		c0.1-0.3,0.2-0.5,0.2-0.8l1.8-18l5.5-56.8h5.1c1.4,0,2.5-0.9,2.5-1.9v-3.8H81.5V116.2z"/>
	<g>
		<path class="st10" d="M145.2,99h-5.1v3.8c0,2.1-2.3,3.8-5.1,3.8h-20.4c-2.8,0-5.1-1.7-5.1-3.8V99h-5.1c-12.7,0-22.9,7.7-22.9,17.2
			h86.6C168.1,106.7,157.9,99,145.2,99z"/>
		<rect x="119.7" y="89.5" class="st10" width="10.2" height="9.6"/>
		<path class="st10" d="M114.6,106.7H135c2.8,0,5.1-1.7,5.1-3.8V99v-5.7c0-2.1-2.3-3.8-5.1-3.8h-5.1V99h-10.2v-9.6h-5.1
			c-2.8,0-5.1,1.7-5.1,3.8V99v3.8C109.5,105,111.8,106.7,114.6,106.7z"/>
	</g>
	<path class="st11" d="M194,147.3l2.1-15.8l-10.2,3.8l-5.1,10.2c-4.6,1.4-8,4.6-8.3,8.6l-1.1,13.6c-0.4,5.5-6.1,10.1-13.5,10.7
		l-3,0.3l-1.8,18c0,0.3-0.1,0.5-0.2,0.8c0,0.1-0.1,0.1-0.1,0.1c-0.1,0.2-0.2,0.4-0.3,0.6c0,0,0,0.1-0.1,0.1
		c-0.2,0.2-0.3,0.4-0.5,0.6l0,0c-0.2,0.2-0.5,0.4-0.7,0.5l0,0l3.9,0.8c10.1,0,19.8-2.6,27.6-7.4l0,0c10.1-6.2,16-15.5,16-25.3v-12.9
		C198.7,151.7,196.9,149.1,194,147.3z"/>
	<polygon class="st12" points="93.1,162 91.6,146.8 51,146.8 58.6,200.3 89.2,200.3 93.7,168.5 	"/>
	<g>
		<path class="st13" d="M152.5,198.3c-0.2,0.2-0.3,0.4-0.5,0.6l0,0c-0.2,0.2-0.5,0.4-0.7,0.5l0,0l3.9,0.8c10.1,0,19.8-2.6,27.6-7.4
			l0,0c10.1-6.2,16-15.5,16-25.3v-1.9c0,9.8-5.9,19.1-16,25.3l0,0c-7.8,4.8-17.5,7.4-27.6,7.4l-2.3-0.5
			C152.7,198,152.7,198.1,152.5,198.3C152.6,198.3,152.5,198.3,152.5,198.3z"/>
		<path class="st13" d="M112.9,108.1h23.8c3.3,0,5.9-2,5.9-4.5v-4.5V99h-2.5v3.8c0,2.1-2.3,3.8-5.1,3.8h-20.4
			c-2.8,0-5.1-1.7-5.1-3.8V99H107v0.2v4.5C107,106.1,109.7,108.1,112.9,108.1z"/>
		<path class="st13" d="M93.1,162l-1.5-15.2h-5v35.5c0,5.3-3.6,10.2-9.6,13l-10.8,5.1h22.9l4.5-31.8L93.1,162z"/>
		<polygon class="st13" points="145.2,196.5 104.5,196.5 96.8,133.4 152.8,133.4 		"/>
	</g>
	<g class="st14">
		<path class="st15" d="M129.9,101h-10.2c-1.4,0-2.5-0.9-2.5-1.9v-9.6h5.1v7.6h5.1v-7.6h5.1V99C132.5,100.1,131.3,101,129.9,101z"/>
	</g>
	<g>
		<rect x="99.4" y="137.2" class="st11" width="5.1" height="3.8"/>
		<rect x="109.5" y="144.9" class="st11" width="5.1" height="3.8"/>
		<rect x="122.3" y="139.2" class="st11" width="5.1" height="3.8"/>
		<rect x="137.6" y="141.1" class="st11" width="5.1" height="3.8"/>
		<rect x="101.9" y="154.4" class="st11" width="5.1" height="3.8"/>
	</g>
</g>
</svg>
