<?xml version="1.0" encoding="utf-8"?>
<!-- Generator: Adobe Illustrator 19.2.0, SVG Export Plug-In . SVG Version: 6.00 Build 0)  -->
<svg version="1.1" id="Layer_1" xmlns="http://www.w3.org/2000/svg" xmlns:xlink="http://www.w3.org/1999/xlink" x="0px" y="0px"
	 viewBox="0 0 200 200" style="enable-background:new 0 0 200 200;" xml:space="preserve">
<style type="text/css">
	.st0{fill:#E64625;}
	.st1{fill:#F7F1E6;}
	.st2{fill:#87D1CE;}
	.st3{fill:#39658C;}
	.st4{fill:#F38B75;}
	.st5{fill:#2A7E9A;}
	.st6{opacity:0.1;fill:#010101;enable-background:new    ;}
	.st7{fill:#7BB7E4;}
	.st8{fill:#D2EDF0;}
</style>
<g id="Layer_24">
	<g>
		<g id="Guides_For_Artboard_20_">
		</g>
		<g id="Artwork_19_">
		</g>
		<g id="Layer_2_19_">
			<g>
				<path class="st0" d="M69.3,89.1c0.4-1,1.3-1.6,2.4-1.5c1,0.1,1.8,1,1.9,2l3.6,41.6l6.7-24c0.3-1,1.2-1.7,2.2-1.6
					c1,0,1.9,0.7,2.1,1.7l3.7,16.1l6.3-26.6c0.2-1,1.2-1.8,2.3-1.7c1.1,0.1,2,0.9,2.1,1.9l4.7,33.7l2.1-6.9c0.3-0.9,1.2-1.6,2.1-1.6
					h50.1v-11.5c0-10.6-8.6-19.2-19.2-19.2H112V61.1c0-10.6-8.6-19.2-19.2-19.2H81.7H80c-10.6,0-19.2,8.6-19.2,19.2v30.5H30.3
					c-10.6,0-19.2,8.6-19.2,19.2v11.7h46.1L69.3,89.1z"/>
				<path class="st0" d="M108.6,141.5c-0.3,1-1.3,1.6-2.3,1.6c-1-0.1-1.9-0.9-2-1.9l-4.5-31.9L94,133.6c-0.2,1-1.1,1.7-2.2,1.7l0,0
					c-1,0-1.9-0.7-2.2-1.7l-3.9-16.8l-7.6,27.5c-0.3,1-1.2,1.6-2.1,1.6c-0.1,0-0.1,0-0.2,0c-1.1-0.1-1.9-1-2-2L70,100.2l-9,25.3
					c-0.3,0.9-1.2,1.5-2.1,1.5H11.4c1.6,9,9.4,15.8,18.9,15.8h30.5v30.5c0,10.6,8.6,19.2,19.2,19.2h1.7h11.1
					c10.6,0,19.2-8.6,19.2-19.2v-30.5h30.5c9.5,0,17.5-7,18.9-16.1h-48.2L108.6,141.5z"/>
				<path class="st1" d="M169.4,122.2h-7.8h-50.1c-1,0-1.8,0.6-2.1,1.6l-2.1,6.9L102.5,97c-0.1-1.1-1-1.9-2.1-1.9s-2,0.7-2.3,1.7
					l-6.3,26.6l-3.7-16.1c-0.2-1-1.1-1.7-2.1-1.7s-1.9,0.6-2.2,1.6l-6.7,24l-3.6-41.6c-0.1-1-0.9-1.9-1.9-2s-2,0.5-2.4,1.5l-12,33.4
					h-46h-7c-1.2,0-2.2,1-2.2,2.2s1,2.2,2.2,2.2h7.2h47.4c0.9,0,1.8-0.6,2.1-1.5l9.1-25.3l3.7,43.7c0.1,1.1,0.9,1.9,2,2
					c0.1,0,0.1,0,0.2,0c1,0,1.9-0.7,2.1-1.6l7.6-27.5l3.9,16.8c0.2,1,1.1,1.7,2.2,1.7l0,0c1,0,1.9-0.7,2.2-1.7l5.8-24.4l4.5,31.9
					c0.1,1,1,1.8,2,1.9c1,0.1,2-0.6,2.3-1.6l4.6-14.8h48.2h8c1.2,0,2.2-1,2.2-2.2C171.7,123.2,170.7,122.2,169.4,122.2z"/>
			</g>
		</g>
	</g>
</g>
<g id="Layer_23">
	<circle class="st2" cx="158.9" cy="185.6" r="2.7"/>
	<g>
		<circle class="st3" cx="170.4" cy="188.8" r="2.6"/>
		<circle class="st3" cx="162.3" cy="173.7" r="2.6"/>
	</g>
	<circle class="st2" cx="172.3" cy="178.6" r="3.3"/>
	<circle class="st4" cx="162.3" cy="196.8" r="3.5"/>
	<path class="st2" d="M147.8,126.2l-11.9,10.6l15.1,16.9l11.9-10.6c4.7-4.2,5.1-11.3,0.9-16l0,0C159.7,122.4,152.5,122,147.8,126.2z
		"/>
	<path class="st5" d="M124,147.4l11.9-10.6l15.1,16.9l-11.9,10.6c-4.7,4.2-11.8,3.7-16-0.9l0,0C119,158.7,119.4,151.6,124,147.4z"/>
	<path class="st6" d="M163.8,127.1c-2.4-2.6-5.7-3.9-9-3.8c-0.9,3-0.6,6.4,1.2,9.3l3.8,6c0.6,1,0.4,2.4-0.5,3.2
		c-7,5.9-16,12.2-20.7,14.1c-7.2,2.9-13.5-4.5-12.4-10.5l-2,1.8c-4.7,4.1-5.2,11.3-1.2,16c4.1,4.8,11.4,5.2,16.1,1l23.8-21.2
		C167.6,139,168,131.8,163.8,127.1L163.8,127.1z"/>
	<path class="st7" d="M159,129l8.4,13.5l19.2-12l-8.4-13.5c-3.3-5.3-10.3-6.9-15.6-3.6l0,0C157.3,116.7,155.7,123.7,159,129z"/>
	<path class="st8" d="M175.9,156l-8.4-13.5l19.2-12l8.4,13.5c3.3,5.3,1.7,12.3-3.6,15.6l0,0C186.2,162.9,179.2,161.3,175.9,156z"/>
	<path class="st6" d="M191.5,159.6c0.5-0.3,1-0.7,1.4-1.1c-13.5-2-31-34.1-30.2-45.2c0,0,0,0-0.1,0l0,0c-5.3,3.3-6.9,10.3-3.6,15.6
		l16.9,27C179.2,161.3,186.2,162.9,191.5,159.6L191.5,159.6z"/>
	<path class="st4" d="M143.3,173.3l13.8,5.7c0.5,0.2,1.1,0,1.3-0.5l7.9-19.1c0.2-0.5,0-1.1-0.5-1.3l-13.8-5.7
		c-5.8-2.4-12.4,0.4-14.8,6.1l0,0C134.8,164.3,137.5,170.9,143.3,173.3z"/>
	<path class="st6" d="M158.4,178.5l1.9-4.7c-16.3-3.1-21.8-12.7-20.5-19.2c-1.1,1.1-2.1,2.4-2.7,3.9l0,0c-2.4,5.8,0.4,12.4,6.1,14.8
		L157,179C157.6,179.3,158.2,179,158.4,178.5z"/>
	<path class="st7" d="M189.5,173.3l-13.8,5.7c-0.5,0.2-1.1,0-1.3-0.5l-7.9-19.1c-0.2-0.5,0-1.1,0.5-1.3l13.8-5.7
		c5.8-2.4,12.4,0.4,14.8,6.1l0,0C198,164.3,195.3,170.9,189.5,173.3z"/>
</g>
</svg>
