<?xml version="1.0" encoding="utf-8"?>
<!-- Generator: Adobe Illustrator 19.2.0, SVG Export Plug-In . SVG Version: 6.00 Build 0)  -->
<svg version="1.1" id="Layer_1" xmlns="http://www.w3.org/2000/svg" xmlns:xlink="http://www.w3.org/1999/xlink" x="0px" y="0px"
	 viewBox="0 0 200 200" style="enable-background:new 0 0 200 200;" xml:space="preserve">
<style type="text/css">
	.st0{fill:#C72B6B;}
	.st1{fill:#659C41;}
	.st2{fill:#E43484;}
	.st3{fill:#D13A34;}
	.st4{fill:#EE4033;}
	.st5{fill:#ED7161;}
	.st6{fill:#4D322D;}
	.st7{fill:#88C057;}
	.st8{fill:#E23037;}
	.st9{fill:#231F20;}
	.st10{fill:#9A4630;}
	.st11{fill:#ED8F22;}
	.st12{fill:#EE7823;}
	.st13{fill:#9B6126;}
</style>
<g id="Layer_95">
	<g>
		<path class="st0" d="M51.6,160.9c1.4-1,2.3-2.6,2.3-4.5c0-2.1-1.2-4-3-4.9v-0.1c0-2.6-1.8-4.7-4.2-5.3c-0.6-2.4-2.8-4.2-5.3-4.2
			c-2.4,0-4.5,1.6-5.2,3.8c-0.9-1.7-2.7-2.8-4.8-2.8c-1.9,0-3.5,0.9-4.5,2.3c-1-1.4-2.6-2.3-4.5-2.3c-2.2,0-4,1.3-4.9,3.1
			c-2.6,0.4-4.6,2.7-4.6,5.4c0,0.6,0.1,1.1,0.2,1.6c-1.4,1-2.2,2.6-2.2,4.4c0,1.8,0.9,3.5,2.3,4.5c-0.8,1-1.3,2.2-1.3,3.5
			c0,2.7,2,5,4.6,5.4c-0.4,0.8-0.6,1.6-0.6,2.6c0,2.6,1.8,4.7,4.2,5.3c0.6,2.4,2.8,4.2,5.3,4.2c1.2,0,2.2-0.4,3.1-1
			c0.9,1.8,2.8,3,4.9,3c1.9,0,3.7-1,4.6-2.5c0.7,0.3,1.5,0.5,2.4,0.5c2.9,0,5.2-2.2,5.5-5c2.8-0.2,5-2.6,5-5.5
			c0-0.7-0.1-1.3-0.4-1.9c2-0.8,3.4-2.8,3.4-5.1C54,163.5,53,161.9,51.6,160.9z"/>
		<g>
			<path class="st1" d="M31.4,128.9c0,0,0,0,0.1,0s0.1,0,0.1,0H31.4z"/>
			<path class="st1" d="M18.1,145.1c1-1.3,2.6-2.2,4.4-2.2c1.9,0,3.5,0.9,4.5,2.3c1-1.4,2.6-2.3,4.5-2.3c2,0,3.8,1.1,4.8,2.8
				c0.7-2.2,2.8-3.8,5.2-3.8c1.9,0,3.6,1,4.6,2.5c2.3-1.7,4-3.9,4.9-6.5c-9.9-3.4-13,1-13,1c-0.6-7.4-5.6-9.7-6.4-10
				c-0.8,0.3-5.8,2.6-6.4,10c0,0-3.1-4.4-13-1C13.1,140.8,15.2,143.3,18.1,145.1z"/>
		</g>
		<path class="st2" d="M20.8,157.9c-1.2,0-2.5-0.5-3.6-1.6c-0.4-0.4-0.3-1,0.1-1.4s1-0.3,1.4,0.1c1.2,1.3,2.8,1.1,3.8,0.5
			s2-1.9,1.4-3.5c-0.2-0.5,0.1-1.1,0.6-1.3s1.1,0.1,1.3,0.6c0.9,2.6-0.5,4.9-2.3,5.9C22.7,157.6,21.8,157.9,20.8,157.9z"/>
		<path class="st2" d="M41.7,170.2c-1.2,0-2.5-0.5-3.6-1.6c-0.4-0.4-0.3-1,0.1-1.4c0.4-0.4,1-0.3,1.4,0.1c1.2,1.3,2.8,1.1,3.8,0.5
			s2-1.9,1.4-3.5c-0.2-0.5,0.1-1.1,0.6-1.3s1.1,0.1,1.3,0.6c0.9,2.6-0.5,4.9-2.3,5.9C43.6,169.9,42.7,170.2,41.7,170.2z"/>
		<path class="st2" d="M25.2,170.9c-0.2,0-0.5,0-0.7,0c-2-0.3-4.2-1.8-4.4-4.5c0-0.5,0.4-1,0.9-1.1c0.5,0,1,0.4,1.1,0.9
			c0.2,1.8,1.5,2.6,2.7,2.7c1.1,0.1,2.7-0.3,3.3-2c0.2-0.5,0.8-0.8,1.3-0.6s0.8,0.8,0.6,1.3C29.1,169.9,27,170.9,25.2,170.9z"/>
		<path class="st2" d="M34.2,161.5c-0.2,0-0.5,0-0.7,0c-2-0.3-4.2-1.8-4.4-4.5c0-0.6,0.4-1,0.9-1.1c0.5,0,1,0.4,1.1,0.9
			c0.2,1.8,1.5,2.6,2.7,2.7c1.1,0.1,2.7-0.3,3.3-2c0.2-0.5,0.8-0.8,1.3-0.6s0.8,0.8,0.6,1.3C38.1,160.6,36,161.5,34.2,161.5z"/>
		<path class="st2" d="M32.9,179c-1.3,0-2.7-0.5-3.7-1.8c-0.4-0.4-0.3-1.1,0.1-1.4c0.4-0.4,1.1-0.3,1.4,0.1c1.2,1.4,2.8,1.2,3.8,0.6
			c1-0.5,2-1.8,1.5-3.5c-0.2-0.5,0.2-1.1,0.7-1.2s1.1,0.2,1.2,0.7c0.8,2.7-0.7,4.8-2.5,5.8C34.7,178.8,33.8,179,32.9,179z"/>
		<path class="st2" d="M45.1,155.9c-1,0-1.9-0.3-2.7-0.7c-1.8-1-3.2-3.3-2.3-5.9c0.2-0.5,0.7-0.8,1.3-0.6c0.5,0.2,0.8,0.7,0.6,1.3
			c-0.5,1.7,0.4,3,1.4,3.6s2.6,0.8,3.8-0.5c0.4-0.4,1-0.4,1.4-0.1c0.4,0.4,0.4,1,0.1,1.4C47.6,155.4,46.3,155.9,45.1,155.9z"/>
	</g>
	<g>
		<path class="st3" d="M40.3,140.8c4.8-6.1,12.9-7.6,18.1-3.5l1.6,1.2c5.2,4.1,5.5,12.4,0.7,18.4c-4.5,5.6-12.6,6.6-18.3,2.1
			S35.8,146.5,40.3,140.8z"/>
		<path class="st4" d="M42.8,155.3c-0.1,0-0.1-0.1-0.2-0.2c-2.3-2.8-2.9-6.7-1.7-10c0.2-0.5,0.8-0.8,1.3-0.6s0.8,0.8,0.6,1.3
			c-1,2.6-0.4,5.8,1.4,8c0.3,0.4,0.3,1.1-0.1,1.4C43.7,155.6,43.2,155.6,42.8,155.3z"/>
		<path class="st4" d="M44.2,142.2c-0.1,0-0.1-0.1-0.1-0.1c-0.4-0.4-0.3-1.1,0.1-1.4c1.1-0.9,2.2-1.6,3.5-2.1
			c0.5-0.2,1.1,0.1,1.3,0.6s-0.1,1.1-0.6,1.3c-1.1,0.4-2,1-2.9,1.7C45.1,142.5,44.6,142.5,44.2,142.2z"/>
		<path class="st4" d="M56.3,162.5c4.8-6.1,12.9-7.6,18.1-3.5l1.6,1.2c5.2,4.1,5.5,12.4,0.7,18.4c-4.5,5.6-12.6,6.6-18.3,2.1
			S51.9,168.1,56.3,162.5z"/>
		<path class="st4" d="M59.2,150.7c-2.6-2.1-3-5.8-1-8.4c0.3-0.4,1-0.5,1.4-0.2s0.5,1,0.2,1.4c-1.4,1.7-1.1,4.2,0.7,5.6
			c0.4,0.3,0.5,1,0.2,1.4S59.7,151.1,59.2,150.7z"/>
		<path class="st5" d="M73.7,171.1c-2.6-2.1-3-5.8-1-8.4c0.3-0.4,1-0.5,1.4-0.2s0.5,1,0.2,1.4c-1.4,1.7-1.1,4.2,0.7,5.6
			c0.4,0.3,0.5,1,0.2,1.4C74.8,171.4,74.1,171.5,73.7,171.1z"/>
		<path class="st6" d="M74.6,166.7c-0.1-0.1-0.2-0.2-0.3-0.4c-0.2-0.5,0-1.1,0.5-1.3c8-3.3,11.5-8.8,12.9-21
			c-8.1,7.7-21.3,8.5-27.7,3.5c-0.4-0.3-0.5-1-0.2-1.4s1-0.5,1.4-0.2c6.2,4.9,20.1,3.3,27-5.4c0.3-0.3,0.7-0.5,1.2-0.3
			c0.4,0.2,0.7,0.6,0.6,1c-1.1,12.9-3.7,21.2-14.4,25.7C75.3,167,74.9,167,74.6,166.7z"/>
		<path class="st7" d="M89,140.5c1.3,4.8,7.1,7.4,11.9,6.1C99.6,141.8,93.8,139.2,89,140.5z"/>
		<path class="st1" d="M84.7,128.2c-2.5,4.3-0.2,10.2,4.1,12.7C91.3,136.6,89,130.7,84.7,128.2z"/>
		<path class="st5" d="M58.5,177.1c-0.1,0-0.1-0.1-0.2-0.2c-2.3-2.8-2.9-6.7-1.7-10c0.2-0.5,0.8-0.8,1.3-0.6s0.8,0.8,0.6,1.3
			c-1,2.6-0.4,5.8,1.4,8c0.3,0.4,0.3,1.1-0.1,1.4C59.4,177.4,58.9,177.4,58.5,177.1z"/>
	</g>
	<g>
		<path class="st7" d="M131.9,141.2l2.4,8.1c0.3,2-1,4-3,4.7l-2,0.7l-0.6,1.8c-0.8,2.3-2.4,4.1-4.8,4.9c-2.1,0.6-6.5-4-8.4-3.7
			l-16.6,16.6c21,19.6,53.8,19.2,74.3-1.2s20.9-53.3,1.2-74.3L131.9,141.2z"/>
		<path class="st8" d="M165.2,108L132,141.2l2.4,8.1c0.3,2-1,4-3,4.7l-2,0.7l-0.6,1.8c-0.8,2.3-2.4,4.1-4.8,4.9
			c-2.1,0.6-6.5-4-8.4-3.7l-7.1,7.1l0,0c15.6,17,40,15.5,56-0.6S182.2,123.6,165.2,108L165.2,108z"/>
		<circle class="st9" cx="107.1" cy="128.8" r="2.7"/>
		<circle class="st9" cx="128.5" cy="168" r="2.7"/>
		<circle class="st9" cx="145.4" cy="144.2" r="2.7"/>
		<circle class="st9" cx="154.2" cy="135.4" r="2.7"/>
		<circle class="st9" cx="149.1" cy="165.6" r="2.7"/>
		<circle class="st9" cx="158" cy="156.8" r="2.7"/>
		<circle class="st9" cx="166.8" cy="148" r="2.7"/>
		<circle class="st9" cx="163" cy="126.6" r="2.7"/>
		<circle class="st9" cx="139.1" cy="163.1" r="2.7"/>
		<circle class="st9" cx="148.1" cy="153.8" r="2.7"/>
		<circle class="st9" cx="157" cy="144.9" r="2.7"/>
		<circle class="st9" cx="112.5" cy="146.6" r="2.7"/>
		<circle class="st9" cx="123.2" cy="132.4" r="2.7"/>
		<circle class="st9" cx="165.5" cy="136.6" r="2.7"/>
	</g>
	<g>
		<polygon class="st1" points="150.5,138.6 148.1,140.3 142,133.6 146.1,130.3 		"/>
		<path class="st7" d="M155.9,135.2c0.6-1.3,0.9-2.7,0.7-4.2c-5.8,0.3-6.3,3.4-6.3,3.4c-0.5-1-1.4-1-2.4-0.7l2.6,4.9l0,0l0,0l0,0
			l-2.5,1.7l0,0l0,0l0,0l-3.7-4.1c-0.4,0.4-0.6,0.8-0.5,1c0,0-2.6-1.7-6.8,2.3c1,1.1,2.2,1.9,3.6,2.4c-3.8,2.3-6.9,5.3-7.3,9.5
			c10.7-1.2,11.5-7,11.5-7c3.2,5.9,8.8,5.7,9.7,5.6c0.6-0.6,4.6-4.5,2.5-10.9c0,0,3,4.1,11.2-2.8C164.7,133.8,160.2,134,155.9,135.2
			z"/>
		<g>
			<path class="st8" d="M166.9,137.5L166.9,137.5c-7.2,5.2-9.9,1.6-9.9,1.6c2.1,6.4-1.9,10.3-2.5,10.9c-0.8,0.1-6.4,0.3-9.7-5.6
				c0,0-0.7,4.7-8.9,6.5c0,0,0,0,0,0.1h0.1c-1.3,3.2-0.9,7.2,1.3,12.5c5.1,11.8,23.7,22.4,30.7,19.4s12.1-23.9,7-35.6
				c-2.3-5.4-5-8.3-8.3-9.6C166.8,137.6,166.9,137.5,166.9,137.5z"/>
		</g>
		<path class="st10" d="M143.5,153.9c-0.3-0.3-0.8-0.1-0.7,0.3c0,0,0.7,5.5,0.9,5.9c0.2,0.5,0.6,0.8,1.1,1s1,0.2,1.5,0
			s0.8-0.6,1-1.1s0.2-1,0-1.5C146.9,158.1,143.5,153.9,143.5,153.9z"/>
		<path class="st10" d="M155.9,152.9c-0.3-0.3-0.8-0.1-0.7,0.3c0,0,0.7,5.5,0.9,5.9c0.2,0.5,0.6,0.8,1.1,1s1,0.2,1.5,0
			s0.8-0.6,1-1.1s0.2-1,0-1.5C159.4,157.1,155.9,152.9,155.9,152.9z"/>
		<path class="st10" d="M164.6,144.8c-0.3-0.3-0.8-0.1-0.7,0.3c0,0,0.7,5.5,0.9,5.9c0.2,0.5,0.6,0.8,1.1,1s1,0.2,1.5,0
			s0.8-0.6,1-1.1s0.2-1,0-1.5C168.1,149,164.6,144.8,164.6,144.8z"/>
		<path class="st10" d="M153,163.9c-0.3-0.3-0.8-0.1-0.7,0.3c0,0,0.7,5.5,0.9,5.9c0.2,0.5,0.6,0.8,1.1,1s1,0.2,1.5,0s0.8-0.6,1-1.1
			s0.2-1,0-1.5C156.5,168.2,153,163.9,153,163.9z"/>
		<path class="st10" d="M163,169.4c-0.3-0.3-0.8-0.1-0.7,0.3c0,0,0.7,5.5,0.9,5.9c0.2,0.5,0.6,0.8,1.1,1s1,0.2,1.5,0s0.8-0.6,1-1.1
			s0.2-1,0-1.5C166.5,173.7,163,169.4,163,169.4z"/>
		<path class="st10" d="M165.9,158.4c-0.3-0.3-0.8-0.1-0.7,0.3c0,0,0.7,5.5,0.9,5.9c0.2,0.5,0.6,0.8,1.1,1s1,0.2,1.5,0
			s0.8-0.6,1-1.1s0.2-1,0-1.5S165.9,158.4,165.9,158.4z"/>
	</g>
	<g>
		<path class="st11" d="M115.2,145.4l-5.1-0.4l1.9-4.7c0.3-0.8,0.7-1.5,1.1-2.2c-3-1.3-6.2-2-9.7-2c-13.3,0-24,10.7-24,24
			s10.7,24,24,24s24-10.7,24-24c0-6.1-2.3-11.6-6-15.8C119.6,145.1,117.4,145.5,115.2,145.4z"/>
		<circle class="st12" cx="117.2" cy="151" r="2"/>
		<circle class="st12" cx="122.5" cy="162.1" r="2"/>
		<circle class="st12" cx="122.2" cy="156" r="2"/>
		<circle class="st12" cx="116.2" cy="160" r="2"/>
		<circle class="st12" cx="117.2" cy="167" r="2"/>
		<circle class="st12" cx="99.2" cy="143" r="2"/>
		<circle class="st12" cx="92.2" cy="146" r="2"/>
		<g>
			<path class="st11" d="M106.4,144c0,0,4.3,0.7,5.4,3.6"/>
			<path class="st13" d="M111.8,148.6c-0.4,0-0.8-0.2-0.9-0.6c-0.9-2.3-4.6-3-4.6-3c-0.5-0.1-0.9-0.6-0.8-1.2
				c0.1-0.5,0.6-0.9,1.1-0.8c0.2,0,4.8,0.8,6.2,4.2c0.2,0.5,0,1.1-0.6,1.3C112.1,148.6,112,148.6,111.8,148.6z"/>
		</g>
		<g>
			<path class="st11" d="M107,147c1-1.1,2.3-2,3.8-2.6"/>
			<path class="st13" d="M107,148c-0.2,0-0.5-0.1-0.7-0.3c-0.4-0.4-0.4-1-0.1-1.4c1.1-1.3,2.6-2.2,4.2-2.8c0.5-0.2,1.1,0.1,1.3,0.6
				c0.2,0.5-0.1,1.1-0.6,1.3c-1.3,0.5-2.5,1.3-3.4,2.3C107.6,147.9,107.3,148,107,148z"/>
		</g>
		<path class="st1" d="M129.4,132.9l-5.1-0.4c-5.4-0.4-10.4,2.7-12.4,7.7l-1.9,4.7l5.1,0.4c5.4,0.4,10.4-2.7,12.4-7.7L129.4,132.9z"
			/>
		<path class="st7" d="M110.6,143.5l-0.6,1.4l0.7,0.1c6.3-6.1,13.1-8.1,13.8-8.2v-0.6l0.4,0.4l0.2-0.6l-0.4-0.4
			C124.2,135.5,117.2,137.5,110.6,143.5z"/>
	</g>
</g>
</svg>
