<?xml version="1.0" encoding="utf-8"?>
<!-- Generator: Adobe Illustrator 19.2.0, SVG Export Plug-In . SVG Version: 6.00 Build 0)  -->
<svg version="1.1" id="Layer_1" xmlns="http://www.w3.org/2000/svg" xmlns:xlink="http://www.w3.org/1999/xlink" x="0px" y="0px"
	 viewBox="0 0 200 200" style="enable-background:new 0 0 200 200;" xml:space="preserve">
<style type="text/css">
	.st0{fill:#ED2E3A;}
	.st1{fill:#36495C;}
	.st2{fill:#8FADBE;}
	.st3{fill:#E2E4E5;}
	.st4{fill:#C63E27;}
	.st5{fill:#B1C3CF;}
	.st6{fill:#CC202D;}
	.st7{fill:#B62226;}
	.st8{fill:#717588;}
	.st9{fill:#B5DA9B;}
	.st10{fill:#969CB3;}
	.st11{fill:#82889D;}
	.st12{fill:#E4E9F6;}
	.st13{fill:#D6DCEB;}
	.st14{fill:#474756;}
	.st15{fill:#99CF90;}
	.st16{fill:#5C5E6F;}
	.st17{fill:#C7CFE2;}
	.st18{fill:#FFFFFF;}
	.st19{fill:#F2F5FB;}
	.st20{fill:#AFB9D2;}
	.st21{fill:#6E7183;}
</style>
<g id="Layer_52">
	<g>
		<path class="st0" d="M105.2,80.6c-1.9,0-3.6-1.3-4.1-3.1L96,59.7c-1.6-5.6-6.7-9.4-12.5-9.4H25.2c-5.9,0-11.1,4-12.6,9.7L11,66
			c-3,11.1-4.5,22.6-4.5,34.1l0,0c1.2,0,2.2,1,2.2,2.2s-1,2.2-2.2,2.2v2.2c1.2,0,2.2,1,2.2,2.2s-1,2.2-2.2,2.2v8.7
			c0,2.4,1.9,4.3,4.3,4.3h95.4c7.2,0,13-5.8,13-13V94.7C119.3,86.9,113,80.6,105.2,80.6z M75.9,80.6H41.3c-6,0-10.8-4.9-10.8-10.8
			S35.4,59,41.3,59H76c6,0,10.8,4.9,10.8,10.8S81.9,80.6,75.9,80.6z"/>
		<g>
			<path class="st1" d="M21.7,132.6c-4.8,0-4.3-3.9-4.3-8.7h17.3c0,4.8,0.4,8.7-4.3,8.7H21.7z"/>
		</g>
		<rect x="21.7" y="132.6" class="st2" width="8.7" height="2.2"/>
		<g>
			<path class="st3" d="M108.5,93.6c0,2.4-1.9,4.3-4.3,4.3s-4.3-1.9-4.3-4.3s1.9-4.3,4.3-4.3C106.5,89.3,108.5,91.2,108.5,93.6z"/>
		</g>
		<g>
			<path class="st3" d="M95.4,93.6c0,2.4-1.9,4.3-4.3,4.3s-4.3-1.9-4.3-4.3s1.9-4.3,4.3-4.3C93.5,89.3,95.4,91.2,95.4,93.6z"/>
		</g>
		<path class="st4" d="M91.1,97.9c-2,0-3.7-1.4-4.2-3.3c-0.1,0.3-0.2,0.7-0.2,1.1c0,2.4,1.9,4.3,4.3,4.3s4.3-1.9,4.3-4.3
			c0-0.4-0.1-0.7-0.2-1.1C94.8,96.6,93.1,97.9,91.1,97.9z"/>
		<path class="st4" d="M104.1,97.9c-2,0-3.7-1.4-4.2-3.3c-0.1,0.3-0.2,0.7-0.2,1.1c0,2.4,1.9,4.3,4.3,4.3s4.3-1.9,4.3-4.3
			c0-0.4-0.1-0.7-0.2-1.1C107.8,96.6,106.1,97.9,104.1,97.9z"/>
		<path class="st5" d="M30.4,146.4v-11.6h-8.7v11.6c-5,1.8-8.7,6.6-8.7,12.2V176c0,7.2,5.8,13,13,13s13-5.8,13-13v-17.3
			C39.1,153,35.5,148.2,30.4,146.4z M30.4,176c0,2.4-1.9,4.3-4.3,4.3s-4.3-1.9-4.3-4.3v-17.3c0-2.4,1.9-4.3,4.3-4.3s4.3,1.9,4.3,4.3
			C30.4,158.7,30.4,176,30.4,176z"/>
		<path class="st6" d="M115,97.9v13c0,4.8-3.9,8.7-8.7,8.7H15.2c-2.4,0-4.3,1.9-4.3,4.3l0,0h71.5h8.7h15.2c7.2,0,13-5.8,13-13V93.6
			l0,0C116.9,93.6,115,95.6,115,97.9z"/>
		<path class="st6" d="M91.6,59.7l5.1,17.8c0.5,1.9,2.2,3.1,4.2,3.1h4.3c-1.9,0-3.6-1.3-4.2-3.1l-5-17.8c-1.6-5.6-6.7-9.4-12.5-9.4
			h-4.3C84.9,50.3,90,54.1,91.6,59.7z"/>
		<path class="st6" d="M30.4,69.8c0-5.2,3.7-9.6,8.7-10.6c-0.7-0.1-1.4-0.2-2.2-0.2c-6,0-10.8,4.9-10.8,10.8S31,80.6,36.9,80.6
			c0.7,0,1.5-0.1,2.2-0.2C34.1,79.4,30.4,75,30.4,69.8z"/>
		<path class="st6" d="M80,111H32.8c-0.1,0-0.3-0.1-0.3-0.3v-3.8c0-0.1,0.1-0.3,0.3-0.3H80c0.1,0,0.3,0.1,0.3,0.3v3.8
			C80.3,110.8,80.2,111,80,111z"/>
		<path class="st6" d="M80,104.4H32.8c-0.1,0-0.3-0.1-0.3-0.3v-3.8c0-0.1,0.1-0.3,0.3-0.3H80c0.1,0,0.3,0.1,0.3,0.3v3.8
			C80.3,104.3,80.2,104.4,80,104.4z"/>
		<path class="st7" d="M21.7,106.6H6.6c1.2,0,2.2,1,2.2,2.2s-1,2.2-2.2,2.2h15.2c1.2,0,2.2-1,2.2-2.2S22.9,106.6,21.7,106.6z"/>
		<path class="st7" d="M21.7,100.1H6.6c1.2,0,2.2,1,2.2,2.2s-1,2.2-2.2,2.2h15.2c1.2,0,2.2-1,2.2-2.2S22.9,100.1,21.7,100.1z"/>
	</g>
	<rect x="118" y="158.8" class="st8" width="8.5" height="6.3"/>
	<path class="st9" d="M75.7,165.2v12.7c0,4.7,3.8,8.5,8.5,8.5h4.2c1.2,0,2.1-0.9,2.1-2.1l0,0c0-1.2-0.9-2.1-2.1-2.1h-4.2
		c-2.3,0-4.2-1.9-4.2-4.2v-12.7c0-1.2,0.9-2.1,2.1-2.1h6.3c1.2,0,2.1-0.9,2.1-2.1l0,0c0-1.2-0.9-2.1-2.1-2.1h-6.3
		C78.6,158.8,75.7,161.7,75.7,165.2z"/>
	<rect x="143.4" y="86.9" class="st10" width="25.4" height="25.4"/>
	<rect x="160.3" y="86.9" class="st11" width="8.5" height="25.4"/>
	<path class="st9" d="M124.4,127.1v65.5c0,1.2,0.9,2.1,2.1,2.1h67.7c1.2,0,2.1-0.9,2.1-2.1v-65.5
		C196.3,127.1,124.4,127.1,124.4,127.1z"/>
	<path class="st8" d="M196.2,125H173v69.8h21.1c1.2,0,2.1-0.9,2.1-2.1L196.2,125L196.2,125z"/>
	<g>
		<path class="st12" d="M124.4,118.7v8.5h71.9v-8.5c0-3.5-2.8-6.3-6.3-6.3h-59.2C127.2,112.3,124.4,115.2,124.4,118.7z"/>
		<path class="st12" d="M86.3,154.6v42.3c0,1.2,1.1,2.1,2.4,2.1h29c1.3,0,2.4-0.9,2.4-2.1v-42.3H86.3z"/>
	</g>
	<path class="st13" d="M105,199h12.7c1.3,0,2.4-0.9,2.4-2.1v-42.3h-12.7v42.3C107.4,198,106.4,199,105,199z"/>
	<g>
		<path class="st14" d="M183.5,196.9v-4.2h8.5v4.2c0,1.2-0.9,2.1-2.1,2.1h-4.2C184.5,199,183.5,198,183.5,196.9z"/>
		<path class="st14" d="M128.6,196.9v-4.2h8.5v4.2c0,1.2-0.9,2.1-2.1,2.1h-4.2C129.5,199,128.6,198,128.6,196.9z"/>
	</g>
	<path class="st15" d="M126.5,194.8H173v-4.2h-48.6v2.1C124.4,193.8,125.3,194.8,126.5,194.8z"/>
	<path class="st16" d="M194.1,194.8H173v-4.2h23.3v2.1C196.2,193.8,195.3,194.8,194.1,194.8z"/>
	<path class="st11" d="M141.3,84.8v-2.1c0-1.2,0.9-2.1,2.1-2.1h25.4c1.2,0,2.1,0.9,2.1,2.1v2.1c0,1.2-0.9,2.1-2.1,2.1h-25.4
		C142.2,86.9,141.3,86,141.3,84.8z"/>
	<rect x="143.4" y="112.3" class="st17" width="25.4" height="12.7"/>
	<path class="st10" d="M122.2,127.1L122.2,127.1c0-1.2,0.9-2.1,2.1-2.1h71.9c1.2,0,2.1,0.9,2.1,2.1l0,0c0,1.2-0.9,2.1-2.1,2.1h-71.9
		C123.2,129.2,122.2,128.3,122.2,127.1z"/>
	<path class="st12" d="M154,148.3v-33.6c0-0.7-0.4-1.4-1-1.8l-25.5-15.7c-1-0.6-1.3-1.9-0.7-2.9c0.6-1,1.9-1.3,2.9-0.7l25.5,15.7
		c1.9,1.2,3,3.2,3,5.4v33.6c0,1.2-0.9,2.1-2.1,2.1C154.9,150.4,154,149.4,154,148.3z"/>
	<circle class="st18" cx="156.1" cy="152.5" r="5.3"/>
	<circle class="st10" cx="156.1" cy="173.6" r="8.5"/>
	<path class="st8" d="M154,173.6v-8.5c0-1.2,0.9-2.1,2.1-2.1c1.2,0,2.1,0.9,2.1,2.1v8.5c0,1.2-0.9,2.1-2.1,2.1
		C154.9,175.7,154,174.8,154,173.6z"/>
	<g>
		<path class="st10" d="M84.2,152.5L84.2,152.5c0-1.2,0.9-2.1,2.1-2.1h33.8c1.2,0,2.1,0.9,2.1,2.1l0,0c0,1.2-0.9,2.1-2.1,2.1H86.3
			C85.1,154.6,84.2,153.7,84.2,152.5z"/>
		<path class="st10" d="M115.3,159.8l-3.6,5.4h8.5v-6.3H117C116.3,158.8,115.7,159.2,115.3,159.8z"/>
	</g>
	<path class="st18" d="M90.5,163.1V161c0-1.2,0.9-2.1,2.1-2.1l0,0c1.2,0,2.1,0.9,2.1,2.1v2.1c0,1.2-0.9,2.1-2.1,2.1l0,0
		C91.5,165.2,90.5,164.2,90.5,163.1z"/>
	<path class="st19" d="M90.5,180v-8.5c0-1.2,0.9-2.1,2.1-2.1l0,0c1.2,0,2.1,0.9,2.1,2.1v8.5c0,1.2-0.9,2.1-2.1,2.1l0,0
		C91.5,182.1,90.5,181.1,90.5,180z"/>
	<rect x="160.3" y="112.3" class="st20" width="8.5" height="12.7"/>
	<path class="st21" d="M160.3,86.9h8.5c1.2,0,2.1-0.9,2.1-2.1v-2.1c0-1.2-0.9-2.1-2.1-2.1h-8.5c1.2,0,2.1,0.9,2.1,2.1v2.1
		C162.4,86,161.5,86.9,160.3,86.9z"/>
</g>
</svg>
