<?xml version="1.0" encoding="utf-8"?>
<!-- Generator: Adobe Illustrator 19.2.0, SVG Export Plug-In . SVG Version: 6.00 Build 0)  -->
<svg version="1.1" id="Layer_1" xmlns="http://www.w3.org/2000/svg" xmlns:xlink="http://www.w3.org/1999/xlink" x="0px" y="0px"
	 viewBox="0 0 200 200" style="enable-background:new 0 0 200 200;" xml:space="preserve">
<style type="text/css">
	.st0{fill:#FFCF56;}
	.st1{fill:#F5BB42;}
	.st2{fill:#6899D1;}
	.st3{fill:#5386C6;}
	.st4{fill:#E7E9ED;}
	.st5{fill:#ED5766;}
	.st6{fill:#DA4553;}
</style>
<g id="Layer_28">
	<path class="st0" d="M161.8,197.9h-84c-1.6,0-2.9-1.3-2.9-2.9c0-1.6,1.3-2.9,2.9-2.9h84c1.6,0,2.9,1.3,2.9,2.9
		C164.7,196.6,163.4,197.9,161.8,197.9z"/>
	<g>
		<path class="st1" d="M117,163.5v28.7h5.7v-28.7c-0.9,0-1.9,0.1-2.9,0.1C118.9,163.6,117.9,163.5,117,163.5z"/>
		<path class="st1" d="M119.8,152.1c-7.9,0-15.6-1.5-22.8-4.5c-3.7-1.5-7.2-3.4-10.4-5.6c-3.3-2.2-6.4-4.7-9.2-7.6
			C66,123.2,59.7,108.1,59.7,92S66,60.9,77.3,49.5c11.4-11.4,26.4-17.6,42.5-17.6c9.2,0,18.5,2.2,26.7,6.2c3.5,1.7,6.9,3.9,10,6.3
			c2,1.6,4,3.3,5.8,5.1C173.7,60.9,179.9,76,179.9,92c0,16.1-6.3,31.1-17.6,42.5C151,145.9,135.9,152.1,119.8,152.1z"/>
	</g>
	<path class="st0" d="M188.5,89.1h-8.7c0,1,0.1,1.9,0.1,2.9s0,1.9-0.1,2.9h5.7c-1.5,35-30.4,63-65.8,63s-64.3-28-65.8-63h5.7
		c0-1-0.1-1.9-0.1-2.9s0-1.9,0.1-2.9h-8.7c-1.6,0-2.9,1.3-2.9,2.9c0,39.5,32.1,71.6,71.6,71.6s71.6-32.1,71.6-71.6
		C191.4,90.4,190.1,89.1,188.5,89.1z"/>
	<path class="st2" d="M153.1,48.9c-2.8-2.2-5.9-4.1-9.1-5.7c-7.4-3.7-15.8-5.6-24.2-5.6c-14.5,0-28.2,5.7-38.4,15.9
		C71.1,63.8,65.5,77.5,65.5,92s5.7,28.2,15.9,38.4c2.6,2.6,5.4,4.9,8.3,6.8c3,2,6.1,3.7,9.4,5c6.6,2.7,13.5,4.1,20.7,4.1
		c14.5,0,28.2-5.7,38.4-15.9c10.3-10.3,15.9-23.9,15.9-38.4s-5.7-28.2-15.9-38.5C156.7,51.9,154.9,50.4,153.1,48.9z"/>
	<path class="st3" d="M158.3,53.6c-1.6-1.6-3.4-3.2-5.2-4.6c-2.8-2.2-5.9-4.1-9.1-5.7c-7.4-3.7-15.8-5.6-24.2-5.6
		c-1.9,0-3.9,0.1-5.8,0.3c6.4,0.7,12.7,2.5,18.5,5.3c3.2,1.6,6.2,3.5,9.1,5.7c1.8,1.4,3.6,3,5.2,4.6c10.3,10.3,15.9,23.9,15.9,38.5
		c0,14.5-5.7,28.2-15.9,38.4c-8.9,8.9-20.4,14.3-32.7,15.6c1.9,0.2,3.8,0.3,5.7,0.3c14.5,0,28.2-5.7,38.4-15.9
		c10.3-10.3,15.9-23.9,15.9-38.4C174.2,77.5,168.6,63.8,158.3,53.6z"/>
	<rect x="13" y="137.8" class="st4" width="11.4" height="7.6"/>
	<path class="st5" d="M24.4,115.2v22.6H13v-19.1l0,0c0.1,1,0.4,2,1.1,2.7c1.9,1.9,5.5,1.4,8-1.1C23.7,118.8,24.4,116.9,24.4,115.2z"
		/>
	<path class="st6" d="M23.3,112.2c0.8,0.8,1.1,1.8,1.1,3c0,1.7-0.8,3.5-2.3,5c-2.5,2.5-6.1,3-8,1.1c-0.7-0.7-1.1-1.6-1.1-2.7
		c-0.1-1.7,0.7-3.8,2.3-5.3C17.8,110.9,21.4,110.3,23.3,112.2z"/>
	<path class="st0" d="M28.3,148.3c0-1.6-1.3-2.9-2.9-2.9h-1H13h-1c-1.6,0-2.9,1.3-2.9,2.9l0,0l0,0v42.9c0,2.1,1.7,3.8,3.8,3.8h11.4
		c2.1,0,3.8-1.7,3.8-3.8v-42.9H28.3L28.3,148.3z"/>
	<path class="st5" d="M58.8,176H42.6c-1.6,0-2.9,1.3-2.9,2.9l0,0l0,0v13.4l0,0c0,1.6,1.3,2.9,2.9,2.9h16.2c2.1,0,3.8-1.7,3.8-3.8
		V180C62.6,177.7,60.9,176,58.8,176z"/>
</g>
</svg>
