<?xml version="1.0" encoding="utf-8"?>
<!-- Generator: Adobe Illustrator 19.2.0, SVG Export Plug-In . SVG Version: 6.00 Build 0)  -->
<svg version="1.1" id="Layer_1" xmlns="http://www.w3.org/2000/svg" xmlns:xlink="http://www.w3.org/1999/xlink" x="0px" y="0px"
	 viewBox="0 0 200 200" style="enable-background:new 0 0 200 200;" xml:space="preserve">
<style type="text/css">
	.st0{fill:#EDEDED;}
	.st1{opacity:0.25;fill:#020202;enable-background:new    ;}
	.st2{fill:#EF4135;}
	.st3{fill:#FFFFFF;}
	.st4{opacity:0.35;fill:#020202;enable-background:new    ;}
	.st5{opacity:0.35;fill:#0B0B0B;enable-background:new    ;}
	.st6{fill:#A82723;}
	.st7{fill:#FAB716;}
	.st8{fill:#F9AC65;}
	.st9{fill:#F7944F;}
	.st10{fill:#36BEB9;}
	.st11{fill:#5AA8A7;}
	.st12{fill:#9DB53C;}
	.st13{fill:#80963B;}
	.st14{fill:#B0DFE2;}
	.st15{fill:#6DC8C8;}
	.st16{fill:#010101;}
</style>
<g id="Layer_61">
	<g>
		<g id="group-142svg">
			<path id="path-1_48_" class="st0" d="M40.5,188.1c0,2.5-2,4.5-4.5,4.5H13.5c-2.5,0-4.5-2-4.5-4.5v-32c0-2.5,2-4.5,4.5-4.5H36
				c2.5,0,4.5,2,4.5,4.5V188.1z"/>
			<path id="path-2_48_" class="st1" d="M36,151.6H13.5c-2.4,0-4.3,1.8-4.5,4.1h21.3c2.5,0,4.5,2,4.5,4.5v32c0,0.1,0,0.3,0,0.4H36
				c2.5,0,4.5-2,4.5-4.5v-32C40.5,153.6,38.5,151.6,36,151.6z"/>
			<path id="path-3_48_" class="st2" d="M24.8,138.6c-7.9,0-14.2,6.4-14.2,14.3H39C39,145,32.6,138.6,24.8,138.6z"/>
			<path id="path-4_48_" class="st3" d="M14.1,148.9c-0.2,0-0.5-0.1-0.7-0.2c-0.7-0.4-0.9-1.3-0.5-2c1-1.6,2.3-3,4-3.9
				c0.7-0.4,1.6-0.2,2,0.5s0.2,1.6-0.5,2c-1.2,0.7-2.2,1.7-2.9,2.9C15.1,148.7,14.6,148.9,14.1,148.9z"/>
			<path id="path-5_48_" class="st4" d="M24.8,138.6c1.6,1.1,2.9,2.6,3.9,4.3c1.9,3.2-0.5,7.3-4.3,7.3H10.8
				c-0.2,0.9-0.3,1.8-0.3,2.8H39C39,145,32.7,138.6,24.8,138.6z"/>
			<path id="path-6_48_" class="st5" d="M19.5,185c-0.7,0-1.2-0.5-1.2-1.2V159c0-0.7,0.5-1.2,1.2-1.2s1.2,0.5,1.2,1.2v24.8
				C20.7,184.5,20.1,185,19.5,185z"/>
			<path id="path-7_48_" class="st5" d="M30.8,185c-0.7,0-1.2-0.5-1.2-1.2V159c0-0.7,0.5-1.2,1.2-1.2s1.2,0.5,1.2,1.2v24.8
				C32,184.5,31.5,185,30.8,185z"/>
			<path id="path-8_48_" class="st6" d="M21.5,145.2c-1.1,0-1.9-0.9-1.9-1.9c0-1.1,0.9-1.9,1.9-1.9c1.1,0,1.9,0.9,1.9,1.9
				S22.6,145.2,21.5,145.2z M21.5,142.8c-0.2,0-0.4,0.2-0.4,0.4s0.2,0.4,0.4,0.4c0.2,0,0.4-0.2,0.4-0.4S21.7,142.8,21.5,142.8z"/>
			<path id="path-9_45_" class="st6" d="M28,145.2c-1.1,0-1.9-0.9-1.9-1.9c0-1.1,0.9-1.9,1.9-1.9c1.1,0,1.9,0.9,1.9,1.9
				C30,144.3,29.1,145.2,28,145.2z M28,142.8c-0.2,0-0.4,0.2-0.4,0.4s0.2,0.4,0.4,0.4c0.2,0,0.4-0.2,0.4-0.4S28.3,142.8,28,142.8z"
				/>
			<path id="path-10_41_" class="st7" d="M52.8,116.4c0-2.5,2-4.5,4.5-4.5h22.5c2.5,0,4.5,2,4.5,4.5v32c0,2.5-2,4.5-4.5,4.5H57.3
				c-2.5,0-4.5-2-4.5-4.5V116.4z"/>
			<path id="path-11_35_" class="st2" d="M68.5,167.2c7.9,0,14.2-6.4,14.2-14.3H54.3C54.3,160.8,60.7,167.2,68.5,167.2z"/>
			<path id="path-12_30_" class="st1" d="M79.8,111.9h-2.5c0,0.1,0,0.3,0,0.4v32c0,2.5-2,4.5-4.5,4.5h-20c0.2,2.3,2.1,4.1,4.5,4.1
				h22.5c2.5,0,4.5-2,4.5-4.5v-32C84.3,113.9,82.3,111.9,79.8,111.9z"/>
			<path id="path-13_24_" class="st4" d="M76.9,152.9c-1.3,6.6-7,11.6-14,11.6c-1.2,0-2.3-0.2-3.4-0.4c2.4,2,5.5,3.2,8.9,3.2
				c7.9,0,14.2-6.4,14.2-14.3C82.8,152.9,76.9,152.9,76.9,152.9z"/>
			<path id="path-14_19_" class="st3" d="M61,161.8c-0.3,0-0.5-0.1-0.7-0.2c-1.6-0.9-3-2.3-4-3.9c-0.4-0.7-0.2-1.6,0.5-2
				s1.6-0.2,2,0.5c0.7,1.2,1.7,2.2,2.9,2.9c0.7,0.4,0.9,1.3,0.5,2C62,161.6,61.5,161.8,61,161.8z"/>
			<path id="path-15_17_" class="st5" d="M73.8,146.6c-0.7,0-1.2-0.5-1.2-1.2v-24.8c0-0.7,0.5-1.2,1.2-1.2s1.2,0.5,1.2,1.2v24.8
				C75,146.1,74.5,146.6,73.8,146.6z"/>
			<path id="path-16_14_" class="st5" d="M62.5,146.6c-0.7,0-1.2-0.5-1.2-1.2v-24.8c0-0.7,0.5-1.2,1.2-1.2s1.2,0.5,1.2,1.2v24.8
				C63.7,146.1,63.2,146.6,62.5,146.6z"/>
			<path id="path-17_12_" class="st7" d="M40.8,199.4h3.1c0.6,0,1.1-0.6,1.1-1.4c0-0.8-0.5-1.4-1.1-1.4h-0.1c-0.6,0-1.1-0.6-1.1-1.4
				c0-0.8,0.5-1.4,1.1-1.4h6.7c0.6,0,1.1-0.6,1.1-1.4c0-0.8-0.5-1.4-1.1-1.4h-8H26c-0.6,0-1.1,0.6-1.1,1.4c0,0.8,0.5,1.4,1.1,1.4
				h1.9c0.6,0,1.1,0.6,1.1,1.4c0,0.8-0.5,1.4-1.1,1.4H19c-0.6,0-1.1,0.6-1.1,1.4c0,0.8,0.5,1.4,1.1,1.4h2.1H40.8z"/>
			<path id="path-18_10_" class="st7" d="M73.1,175.4v-2c0-0.4-0.5-0.7-1.1-0.7s-1.1,0.3-1.1,0.7v0.1c0,0.4-0.5,0.7-1.1,0.7
				s-1.1-0.3-1.1-0.7v-4.3c0-0.4-0.5-0.7-1.1-0.7s-1.1,0.3-1.1,0.7v5.1v10.5c0,0.4,0.5,0.7,1.1,0.7s1.1-0.3,1.1-0.7v-1.2
				c0-0.4,0.5-0.7,1.1-0.7s1.1,0.3,1.1,0.7v5.6c0,0.4,0.5,0.7,1.1,0.7s1.1-0.3,1.1-0.7V188V175.4z"/>
			<path id="path-19_8_" class="st7" d="M62.6,176.3v-1c0-0.2-0.2-0.3-0.5-0.3s-0.5,0.2-0.5,0.3l0,0c0,0.2-0.2,0.3-0.5,0.3
				s-0.5-0.2-0.5-0.3v-2.1c0-0.2-0.2-0.3-0.5-0.3s-0.5,0.2-0.5,0.3v2.5v5.1c0,0.2,0.2,0.3,0.5,0.3s0.5-0.2,0.5-0.3v-0.6
				c0-0.2,0.2-0.3,0.5-0.3s0.5,0.2,0.5,0.3v2.8c0,0.2,0.2,0.3,0.5,0.3s0.5-0.2,0.5-0.3v-0.7V176.3z"/>
			<path id="path-20_7_" class="st7" d="M66.7,191.4c0-1,0.5-1.9,1.2-1.9s1.2,0.8,1.2,1.9v5.7c0,1-0.5,1.9-1.2,1.9s-1.2-0.8-1.2-1.9
				V191.4z"/>
			<path id="path-21_6_" class="st7" d="M12.2,196.9c1.3,0,2.3,0.7,2.3,1.6c0,0.9-1,1.6-2.3,1.6H5c-1.3,0-2.3-0.7-2.3-1.6
				c0-0.9,1-1.6,2.3-1.6H12.2z"/>
			<path id="path-22_3_" class="st7" d="M78.4,176.4c0-1,0.5-1.9,1.2-1.9s1.2,0.8,1.2,1.9v5.7c0,1-0.5,1.9-1.2,1.9s-1.2-0.8-1.2-1.9
				V176.4z"/>
		</g>
	</g>
</g>
<g id="Layer_60">
	<g>
		<g>
			<path class="st8" d="M176.9,89.7V63.8h-15.3c-0.1,0-0.1-0.1-0.1-0.1c-0.2-3.6-3.2-6.4-6.8-6.4h-30c-0.1,0-0.1-0.1-0.1-0.1
				c0-1.7-0.7-3.3-1.9-4.5c-1.2-1.2-2.8-1.9-4.5-1.9H89.7l-9.1,6.5c-1.3,0.9-2.1,2.2-2.4,3.7c-0.2,1.5,0.1,3.1,1.1,4.3
				c1,1.4,2.7,2.2,4.5,2.2c1.2,0,2.4-0.4,3.3-1l6.3-4.4h0.1h17.4c0.1,0,0.1,0.1,0.1,0.1c0,0.1-0.1,0.1-0.1,0.1H93.5l-9.1,6.5
				c-2.6,1.8-3.2,5.3-1.4,7.9c0.9,1.2,2.2,2.1,3.6,2.3c0.3,0.1,0.7,0.1,1,0.1c1.2,0,2.3-0.3,3.2-1l6.4-4.4h0.1h17.3
				c0.1,0,0.1,0.1,0.1,0.1l-0.1,0.1h-16l-9.1,6.5c-1.3,0.9-2.1,2.2-2.4,3.7c-0.2,1.5,0.1,3.1,1.1,4.3c1,1.4,2.7,2.2,4.5,2.2
				c1.2,0,2.4-0.4,3.3-1l6.3-4.4h0.1h2.4l13.8-0.1c0.1,0,0.1,0.1,0.1,0.1c0,0.1-0.1,0.1-0.1,0.2c-4.1,0.1-7.9,1.7-10.8,4.5
				c-2.9,2.9-4.6,6.6-4.6,10.7c-0.1,4.2,1.5,8.1,4.4,11.1s6.8,4.6,11,4.6h0.2c1.4,0,2.7-0.6,3.7-1.6c0.9-1,1.5-2.2,1.4-3.5
				c-0.1-2.7-2.3-4.9-5-4.9h-0.2c-3,0-5.5-2.3-5.6-5.2c-0.1-1.5,0.5-2.9,1.5-4s2.4-1.7,3.9-1.7h18.3c3,0,5.5,2.3,5.6,5.2
				c0.1,1.5-0.5,2.9-1.5,4s-2.4,1.7-3.9,1.7h-1.8c-1.4,0-2.7,0.6-3.7,1.6c-0.9,1-1.5,2.2-1.4,3.5c0.1,2.7,2.3,4.9,5,4.9h1.6
				c4.2,0,8.3-1.7,11.2-4.7c2.9-2.9,4.5-6.8,4.5-10.8c0-0.1,0-0.2,0-0.2v-0.1c0-0.1,0-0.2,0-0.4c0-0.1,0-0.2,0-0.3
				c0-0.1,0-0.2,0-0.3l0,0c0-0.5-0.1-1-0.2-1.4l0,0c-0.4-2.2-1.2-4.2-2.5-6l-0.1-0.1c-0.1-0.1-0.2-0.2-0.3-0.3
				c-0.1-0.1-0.2-0.2-0.2-0.3c-0.1-0.1-0.1-0.2-0.2-0.2c-0.1-0.1-0.2-0.3-0.4-0.4l-0.1-0.1c-0.1-0.2-0.3-0.3-0.4-0.4l0,0l0.2-0.3
				L176.9,89.7L176.9,89.7z"/>
			<g>
				<path class="st9" d="M136.9,89.4h-18.3c-1.5,0-2.9,0.6-3.9,1.7s-1.6,2.5-1.5,4c0,1,0.4,2,0.9,2.8c0.2-0.3,0.4-0.5,0.6-0.7
					c1-1.1,2.4-1.7,3.9-1.7h18.3c1.9,0,3.6,1,4.6,2.4c0.6-0.9,1-2.1,0.9-3.2C142.4,91.7,139.9,89.4,136.9,89.4z"/>
				<path class="st9" d="M148,88v1.7h28.9v-6h-24.6C150,83.6,148,85.6,148,88z"/>
				<path class="st9" d="M152.5,100.5c0-0.1,0-0.2,0-0.4c0-0.1,0-0.2,0-0.3c0-0.1,0-0.2,0-0.3l0,0c0-0.5-0.1-1-0.2-1.4l0,0
					c0-0.1,0-0.1,0-0.2c-0.6,2.9-2,5.6-4.2,7.8c-3,3-7.1,4.7-11.2,4.7h-1.6c-1.6,0-3-0.8-4-2c-0.7,0.9-1.1,2-1,3.1
					c0.1,2.7,2.3,4.9,5,4.9h1.6c4.2,0,8.3-1.7,11.2-4.7c2.9-2.9,4.5-6.8,4.5-10.8C152.5,100.7,152.5,100.7,152.5,100.5L152.5,100.5z
					"/>
				<path class="st9" d="M122.6,108.7c-1,1-2.3,1.6-3.7,1.6h-0.2c-4.2,0-8.1-1.6-11-4.6c-2.1-2.2-3.6-4.9-4.1-7.8
					c-0.2,0.9-0.3,1.8-0.3,2.7c-0.1,4.2,1.5,8.1,4.4,11.1s6.8,4.6,11,4.6h0.2c1.4,0,2.7-0.6,3.7-1.6c0.9-1,1.5-2.2,1.4-3.5
					c0-1.1-0.4-2.1-1-2.9C122.9,108.4,122.8,108.6,122.6,108.7z"/>
				<path class="st9" d="M118.6,85.1C118.7,85.1,118.7,85.2,118.6,85.1l0.2,0.1v-1.6c0-2.4-2-4.4-4.4-4.4h-9.6H104
					c-1.1,0-2.2,0.3-3.1,1L96,83.6c-1,0.7-2.1,1-3.3,1c-1.8,0-3.5-0.8-4.5-2.2c-0.1-0.1-0.2-0.2-0.3-0.4l0,0c-0.2,0.3-0.4,0.7-0.5,1
					l0,0c-0.1,0.2-0.1,0.3-0.2,0.5c0,0,0,0,0,0.1c0,0.2-0.1,0.4-0.1,0.6c-0.2,1.5,0.1,3.1,1.1,4.3c1,1.4,2.7,2.2,4.5,2.2
					c1.2,0,2.4-0.4,3.3-1l6.3-4.4h0.1l0,0h2.4L118.6,85.1z"/>
				<path class="st9" d="M86.6,79c0.3,0.1,0.7,0.1,1,0.1c1.2,0,2.3-0.3,3.2-1l6.4-4.4h0.1h16.4v-1.4c0-2.5-2-4.5-4.5-4.5h-9.7h-0.8
					c-1.1,0-2.2,0.3-3.1,1l-5,3.5c-1,0.7-2.2,1.1-3.4,1.1c-1.8,0-3.5-0.8-4.6-2.3L82.5,71c-0.9,1.8-0.9,4,0.4,5.8
					C83.8,77.9,85.1,78.7,86.6,79z"/>
				<path class="st9" d="M83.8,67.4c1.2,0,2.4-0.4,3.3-1l6.3-4.4h0.1h16.4v-1.4c0-2.4-2-4.4-4.4-4.4h-9.6H95c-1.1,0-2.2,0.3-3.1,1
					L87,60.6c-1,0.7-2.2,1-3.4,1c-1.8,0-3.5-0.8-4.5-2.2c-0.1-0.1-0.2-0.2-0.2-0.4c-0.3,0.6-0.5,1.2-0.7,1.9
					c-0.2,1.5,0.1,3.1,1.1,4.3C80.3,66.6,82,67.4,83.8,67.4z"/>
			</g>
			<g>
				<path class="st10" d="M178.7,95.3c-2.4,0-4.4-2-4.4-4.4V62.3c0-2.4,2-4.4,4.4-4.4h15.6c2.4,0,4.4,2,4.4,4.4V91
					c0,2.4-2,4.4-4.4,4.4L178.7,95.3L178.7,95.3z"/>
			</g>
			<path class="st11" d="M198.7,84.6c-7.9,0-14.2-6.4-14.2-14.2V57.9h-5.7c-2.4,0-4.4,2-4.4,4.4V91c0,2.4,2,4.4,4.4,4.4h15.6
				c2.4,0,4.4-2,4.4-4.4v-6.4H198.7z"/>
			<g>
				<g>
					<path class="st12" d="M151.5,166.9v9.7h-48.2v-10c3.8-9.5,10.9-19.3,19.3-26.2c3.1-2.5,7.5-2.5,10.6,0
						C141,146.6,148.1,155.9,151.5,166.9z"/>
				</g>
			</g>
			<path class="st13" d="M136.1,142.8c-1-0.9-1.9-1.7-2.9-2.5c-3.1-2.5-7.5-2.5-10.6,0c-8.5,6.9-15.6,16.7-19.3,26.2v10h16.4v-10
				C123,158.2,128.9,149.5,136.1,142.8z"/>
			<g id="XMLID_424_">
				<g>
					<path class="st14" d="M158,160.3l-3.1,18.7c-1.7,10.2-10.1,18-20.4,19c-4.5,0.4-9.1,0.4-13.7,0c-10.3-1-18.6-8.8-20.3-19
						l-3.1-18.7c2.2,6.6,14.9,11.6,30.3,11.6S155.8,166.9,158,160.3z"/>
				</g>
			</g>
			<g>
				<path class="st15" d="M125.3,179l-1.2-7.1c-13.7-0.7-24.7-5.5-26.7-11.5l3.1,18.7c1.7,10.2,10,18,20.3,19
					c4.6,0.4,9.1,0.5,13.7,0c2-0.2,3.8-0.6,5.6-1.3C132.5,193.9,126.7,187.3,125.3,179z"/>
			</g>
			<g>
				<g id="XMLID_425_">
					<g>
						<path class="st10" d="M158.3,158.3c0,3.3-2.6,6.3-6.8,8.6c-2.6-8.3-7.2-15.6-12.7-21.4C150.2,147.5,158.3,152.4,158.3,158.3z"
							/>
						<path class="st10" d="M117.2,145.4c-6,6.2-10.9,13.8-13.8,21.1c-3.9-2.3-6.3-5.2-6.3-8.3C97.1,152.3,105.4,147.3,117.2,145.4z
							"/>
					</g>
				</g>
			</g>
			<g id="XMLID_429_">
				<g>
					<path class="st13" d="M140.8,122.9c2.5,0,4.5,2,4.5,4.5c0,2.5-2,4.5-4.5,4.5s-4.5-2-4.5-4.5S138.3,122.9,140.8,122.9z"/>
				</g>
			</g>
			<g id="XMLID_428_">
				<g>
					<path class="st13" d="M110.7,130.9c1.8,0,3.3,1.5,3.3,3.3s-1.5,3.3-3.3,3.3s-3.3-1.5-3.3-3.3S108.9,130.9,110.7,130.9z"/>
				</g>
			</g>
			<g id="XMLID_427_">
				<g>
					<circle class="st13" cx="124.7" cy="157.7" r="3.9"/>
				</g>
			</g>
			<g>
				<circle class="st13" cx="124.1" cy="126.4" r="2.4"/>
			</g>
		</g>
		<g>
			<path class="st16" d="M194.2,56.4h-15.6c-3,0-5.4,2.2-5.8,5.1h-9.4c-1.1-3.8-4.7-6.5-8.8-6.5h-9.3c-1.2,0-2.2,1-2.2,2.2
				s1,2.2,2.2,2.2h9.3c2.5,0,4.6,1.9,4.7,4.4c0.1,1.2,1,2.1,2.2,2.1h11.2v21.7H149c-1.4-1.3-3-2.3-4.7-3.1c-1.1-0.5-2.4,0-2.9,1.1
				s0,2.4,1.1,2.9c1.6,0.7,2.9,1.6,4.1,2.8c0.1,0.1,0.3,0.3,0.4,0.4l0.1,0.1c0.1,0.1,0.2,0.3,0.3,0.4s0.1,0.1,0.2,0.2
				c0.1,0.1,0.1,0.2,0.2,0.3c0.1,0.1,0.2,0.2,0.2,0.3c0,0,0,0.1,0.1,0.1c1.1,1.5,1.8,3.3,2.2,5.2v0.1c0,0.2,0.1,0.4,0.1,0.7
				c0,0.1,0,0.2,0,0.3c0,0.1,0,0.2,0,0.2c0,0.1,0,0.2,0,0.4c0,0.1,0,0.1,0,0.2c0,0.2,0,0.3,0,0.5v0.1c0,0.1,0,0.2,0,0.4
				c0,0.1,0,0.2,0,0.3c-0.2,3.2-1.5,6.3-3.9,8.7c-2.6,2.6-6.1,4.1-9.8,4.1h-1.6c-0.1,0-0.2,0-0.3,0c-1.1-0.1-2.1-0.9-2.5-2l0,0
				c0-0.1,0-0.1-0.1-0.2V112c0-0.1,0-0.1,0-0.2v-0.1v-0.1c0-0.1,0-0.1,0-0.2s0-0.1,0-0.2v-0.1c0.1-0.6,0.3-1.3,0.8-1.7
				c0.6-0.6,1.4-0.9,2.2-0.9h1.8c2.1,0,4-0.8,5.4-2.3c0.4-0.4,0.7-0.8,0.9-1.2c0.8-1.3,1.2-2.8,1.2-4.3c-0.2-4.1-3.5-7.2-7.6-7.2
				l0,0h-18.3c-0.5,0-1,0.1-1.5,0.2c-1.5,0.3-2.8,1-3.9,2.2c-0.7,0.7-1.3,1.6-1.6,2.5c-0.3,0.8-0.5,1.7-0.5,2.6c0,0.1,0,0.3,0,0.4
				c0.1,2.9,1.9,5.4,4.4,6.5c0.1,0.1,0.2,0.1,0.3,0.1c0.2,0.1,0.5,0.2,0.7,0.2c0.7,0.2,1.4,0.3,2.2,0.3h0.2c0.1,0,0.2,0,0.3,0
				c1.1,0.1,2.1,0.9,2.5,2l0,0c0,0.1,0,0.1,0.1,0.2v0.1c0,0,0,0.1,0,0.2v0.1v0.1c0,0.1,0,0.1,0,0.2s0,0.1,0,0.2v0.1
				c-0.1,0.6-0.3,1.3-0.8,1.7c-0.6,0.6-1.4,0.9-2.2,0.9h-0.2c-0.2,0-0.5,0-0.7,0l0,0c-6.1-0.3-11.2-4.8-12.4-10.6c0,0,0,0,0-0.1
				c0-0.2-0.1-0.4-0.1-0.5s0-0.1,0-0.2c0-0.2,0-0.3-0.1-0.5c0-0.1,0-0.2,0-0.2c0-0.1,0-0.3,0-0.4s0-0.2,0-0.3c0-0.1,0-0.2,0-0.4
				c0-0.1,0-0.2,0-0.3c0-0.1,0-0.2,0-0.4c0-0.1,0-0.2,0-0.3c0-0.1,0-0.2,0-0.3c0-0.1,0-0.2,0-0.4c0-0.1,0-0.1,0-0.2
				c0-0.2,0-0.3,0.1-0.5l0,0c0.5-2.7,1.8-5.3,3.8-7.3c2.5-2.5,5.8-3.9,9.4-3.9c0.1,0,0.2,0,0.2,0c1.1-0.1,2-1.1,2-2.2
				c0-1.2-1-2.2-2.2-2.2c-0.2,0-0.3,0-0.5,0l-13.4,0.1h-2.4c-0.5,0-0.9,0.1-1.3,0.4L94.7,88c-1.6,1.1-3.9,0.8-5-0.7
				c-0.6-0.8-0.8-1.7-0.7-2.7c0.2-1,0.7-1.8,1.5-2.4l8.6-6.1h15.4l0,0c1.2,0,2.2-1,2.2-2.2s-1-2.2-2.2-2.2l0,0H97.3l0,0
				c-0.5,0-0.9,0.1-1.3,0.4l-6.4,4.4c-0.8,0.5-1.7,0.7-2.7,0.6c-0.9-0.2-1.8-0.7-2.3-1.5c-1.1-1.6-0.7-3.8,0.9-5l8.6-6.1h14.2
				c1.2,0,2.2-1,2.2-2.2s-1-2.2-2.2-2.2H93.5l0,0c-0.1,0-0.2,0-0.2,0c-0.4,0-0.7,0.2-1,0.4L86,64.9c-1.6,1.1-3.9,0.8-5-0.7
				c-0.6-0.8-0.8-1.7-0.7-2.7c0.2-1,0.7-1.8,1.5-2.4l8.6-6.1h27.8c2.4,0,4.3,1.9,4.3,4.3c0,1.2,1,2.2,2.2,2.2h11.8
				c1.2,0,2.2-1,2.2-2.2s-1-2.2-2.2-2.2h-9.8c-1-3.8-4.4-6.5-8.5-6.5H89.6c-0.5,0-0.9,0.1-1.3,0.4l-9.2,6.5c-1.8,1.3-3,3.1-3.3,5.3
				c-0.4,2.2,0.2,4.3,1.5,6.1c0.9,1.2,2.1,2.1,3.4,2.6c-0.5,0.8-0.9,1.8-1,2.7c-0.4,2.1,0.1,4.2,1.3,6c1.1,1.6,2.8,2.7,4.6,3.2
				c-0.4,0.8-0.7,1.6-0.9,2.5c-0.4,2.2,0.2,4.3,1.5,6.1c2.6,3.5,7.5,4.2,11.1,1.7l5.7-4h1.7h1.9c-2.9,2.6-5,6.2-5.6,10.2
				c0,0.1,0,0.1,0,0.2c0,0.2-0.1,0.4-0.1,0.5s0,0.2,0,0.4c0,0.2,0,0.3,0,0.5c0,0.1,0,0.3,0,0.4s0,0.3,0,0.4s0,0.2,0,0.3
				c0,0.1,0,0.1,0,0.2s0,0.1,0,0.2s0,0.2,0,0.3c0,0.2,0,0.3,0,0.5c0,0.1,0,0.3,0,0.4c0,0.2,0,0.4,0,0.5s0,0.2,0,0.3
				c0,0.2,0,0.4,0.1,0.6c0,0.1,0,0.1,0,0.2c0,0.2,0.1,0.5,0.1,0.7c0,0,0,0,0,0.1c0.7,3.3,2.3,6.4,4.8,8.9c3.2,3.2,7.3,5.1,11.8,5.3
				l0,0c0.3,0,0.6,0,0.9,0h0.2h0.1c3.8,0,6.9-2.8,7.3-6.4l0,0c0-0.1,0-0.2,0-0.3V112c0-0.1,0-0.1,0-0.2s0-0.1,0-0.2v-0.1
				c0,0,0,0,0-0.1c0,0,0,0,0-0.1v-0.1c0-0.1,0-0.1,0-0.2s0-0.1,0-0.2s0-0.1,0-0.2v-0.1c0-0.1,0-0.2,0-0.3v-0.1c0-0.1,0-0.2-0.1-0.3
				l0,0c-0.7-3.2-3.5-5.6-6.8-5.8c-0.1,0-0.2,0-0.4,0h-0.2c-0.2,0-0.4,0-0.6-0.1c-1.4-0.3-2.5-1.5-2.6-2.9c0-0.4,0.1-0.8,0.2-1.2
				c0.1-0.4,0.4-0.7,0.7-1c0.4-0.5,1-0.8,1.6-0.9c0.2,0,0.4-0.1,0.6-0.1h18.3c1.7,0,3.1,1.3,3.2,2.9c0,0.7-0.2,1.4-0.6,2
				c-0.1,0.1-0.1,0.2-0.2,0.2c-0.6,0.6-1.4,0.9-2.2,0.9h-1.8h-0.1c-3.8,0-6.9,2.8-7.3,6.4l0,0c0,0.1,0,0.2,0,0.3v0.1
				c0,0.1,0,0.1,0,0.2s0,0.1,0,0.2v0.1c0,0,0,0,0,0.1c0,0,0,0,0,0.1v0.1c0,0.1,0,0.1,0,0.2s0,0.1,0,0.2s0,0.1,0,0.2v0.1
				c0,0.1,0,0.2,0,0.2v0.1c0,0.1,0,0.2,0.1,0.3l0,0c0.7,3.2,3.5,5.6,6.8,5.8c0.1,0,0.2,0,0.4,0h1.6h0.3c9.3,0,16.9-7.1,17.8-16.2
				c0-0.1,0-0.1,0-0.2c0-0.2,0-0.4,0-0.7c0-0.2,0-0.3,0-0.5c0-0.1,0-0.3,0-0.4c0,0,0,0,0-0.1l0,0c0-0.2,0-0.4,0-0.5l0,0
				c0-0.2,0-0.4,0-0.7l0,0c-0.2-2.6-1-5.2-2.2-7.4H173c0.5,2.7,2.9,4.8,5.8,4.8h15.6c3.2,0,5.9-2.6,5.9-5.9V62.3
				C200.1,59,197.5,56.4,194.2,56.4z M195.7,90.9c0,0.8-0.6,1.4-1.4,1.4h-15.6c-0.8,0-1.4-0.6-1.4-1.4l0,0V62.3l0,0
				c0-0.8,0.6-1.4,1.4-1.4h15.6c0.8,0,1.4,0.6,1.4,1.4V90.9z"/>
			<path class="st16" d="M154.1,148.6c-3.6-2.3-8.5-4.1-14.1-5.1c-1.7-1.7-3.4-3.3-5.3-4.8c-3.9-3.1-9.5-3.1-13.4,0
				c-1.8,1.4-3.5,3-5.1,4.7c-12.9,2.3-21.3,8.1-21.3,14.9c0,0.8,0.1,1.7,0.4,2.6l3.1,18.5c1.9,11.2,11,19.7,22.3,20.8
				c2.4,0.2,4.8,0.4,7.2,0.4c2.3,0,4.6-0.1,6.9-0.3c11.3-1.1,20.5-9.6,22.3-20.8l3.1-18.5c0.3-1,0.4-1.8,0.4-2.6
				C160.6,155.7,159.4,152,154.1,148.6z M156.1,158.3c0,0.5-0.1,1-0.3,1.5c0,0.1-0.1,0.1-0.1,0.2c0,0.1-0.1,0.1-0.1,0.2
				c0,0.1-0.1,0.2-0.1,0.3s-0.1,0.1-0.1,0.2c-0.1,0.1-0.1,0.2-0.2,0.3l-0.1,0.1c-0.1,0.1-0.2,0.2-0.2,0.3l-0.1,0.1
				c-0.1,0.1-0.2,0.2-0.3,0.4l-0.1,0.1c-0.1,0.1-0.2,0.2-0.4,0.4l-0.1,0.1c-0.1,0.1-0.3,0.2-0.4,0.4l-0.1,0.1
				c-0.1,0.1-0.3,0.2-0.4,0.4l-0.1,0.1c-0.1,0.1-0.2,0.1-0.2,0.2c-1.9-5-4.5-9.8-7.8-14.2C151.7,151.5,156.1,154.8,156.1,158.3z
				 M124.1,142.1c2.2-1.8,5.5-1.8,7.7,0c1.9,1.5,3.6,3.1,5.2,4.8c0.1,0.1,0.2,0.2,0.3,0.3c5.1,5.4,9.1,11.8,11.5,18.6
				c-5,2.3-12.3,4-21.1,4c-9,0-16.5-1.7-21.5-4.2C110,156.8,116.6,148.1,124.1,142.1z M111,149.1c-3.5,4.4-6.4,9.2-8.6,14.1l0,0
				c-0.1-0.1-0.1-0.1-0.2-0.2c-0.1-0.1-0.2-0.2-0.3-0.2c-0.1-0.1-0.1-0.1-0.2-0.2c-0.1-0.1-0.2-0.2-0.3-0.3c0,0,0,0-0.1-0.1
				c-0.4-0.4-0.7-0.7-0.9-1.1c0,0,0-0.1-0.1-0.1c-0.1-0.1-0.1-0.2-0.2-0.3c0,0,0-0.1-0.1-0.1c-0.1-0.1-0.1-0.2-0.2-0.3
				c0,0,0-0.1-0.1-0.1c-0.1-0.1-0.1-0.2-0.1-0.3v-0.1c-0.2-0.5-0.3-1-0.3-1.6C99.3,154.8,103.9,151.3,111,149.1z M152.7,178.6
				c-1.5,9.2-9.1,16.2-18.4,17.1c-4.4,0.4-8.8,0.4-13.2,0c-9.3-0.9-16.8-8-18.4-17.1l-1.8-10.9c0.3,0.2,0.6,0.4,0.9,0.6
				c0.2,0.2,0.4,0.3,0.6,0.4h0.1c1.3,0.7,2.7,1.4,4.3,2c5.8,2.3,13.2,3.5,20.9,3.5s15.1-1.2,20.9-3.5c1.4-0.6,2.8-1.2,3.9-1.8
				c0,0,0.1,0,0.1-0.1c0.7-0.4,1.3-0.7,1.9-1.1L152.7,178.6z"/>
			<path class="st16" d="M140.8,134c3.7,0,6.7-3,6.7-6.7s-3-6.7-6.7-6.7s-6.7,3-6.7,6.7S137.1,134,140.8,134z M140.8,125.1
				c1.2,0,2.2,1,2.2,2.2c0,1.2-1,2.2-2.2,2.2s-2.2-1-2.2-2.2C138.6,126.1,139.6,125.1,140.8,125.1z"/>
			<path class="st16" d="M116.3,134.2c0-3-2.5-5.5-5.5-5.5s-5.5,2.5-5.5,5.5s2.5,5.5,5.5,5.5S116.3,137.2,116.3,134.2z M109.7,134.2
				c0-0.6,0.5-1,1-1c0.6,0,1,0.5,1,1s-0.5,1-1,1S109.7,134.7,109.7,134.2z"/>
			<path class="st16" d="M124.7,163.8c3.4,0,6.1-2.7,6.1-6.1s-2.7-6.1-6.1-6.1s-6.1,2.7-6.1,6.1S121.4,163.8,124.7,163.8z
				 M124.7,156c0.9,0,1.6,0.7,1.6,1.6s-0.7,1.6-1.6,1.6s-1.6-0.7-1.6-1.6S123.8,156,124.7,156z"/>
			<circle class="st16" cx="124.1" cy="126.4" r="2.4"/>
		</g>
	</g>
</g>
</svg>
