<?xml version="1.0" encoding="utf-8"?>
<!-- Generator: Adobe Illustrator 19.2.0, SVG Export Plug-In . SVG Version: 6.00 Build 0)  -->
<svg version="1.1" id="Layer_1" xmlns="http://www.w3.org/2000/svg" xmlns:xlink="http://www.w3.org/1999/xlink" x="0px" y="0px"
	 viewBox="0 0 200 200" style="enable-background:new 0 0 200 200;" xml:space="preserve">
<style type="text/css">
	.st0{fill:#2C3C4F;}
	.st1{fill:#334B5E;}
	.st2{fill:#ADB3BA;}
	.st3{fill:#F3715B;}
	.st4{fill:#E7E9ED;}
	.st5{fill:#098BAA;}
	.st6{display:none;fill:#098BAA;}
</style>
<g id="Layer_25">
	<g>
		<path class="st0" d="M30,63.7L19.1,87.6l0,0c-0.2,0.4,0,0.9,0.5,1.1c0.4,0.2,0.9,0,1.1-0.5L30.8,64c0.1-0.2,0-0.4-0.2-0.5
			C30.3,63.4,30.1,63.5,30,63.7z"/>
		<path class="st0" d="M33.6,65.3L22.7,89.2l0,0c-0.2,0.4,0,0.9,0.5,1.1c0.4,0.2,0.9,0,1.1-0.5l10.1-24.2c0.1-0.2,0-0.4-0.2-0.5
			C33.9,65,33.7,65.1,33.6,65.3z"/>
		<path class="st0" d="M37.2,66.8L26.3,90.7l0,0c-0.2,0.4,0,0.9,0.5,1.1c0.4,0.2,0.9,0,1.1-0.5L38,67.1c0.1-0.2,0-0.4-0.2-0.5
			C37.5,66.5,37.3,66.7,37.2,66.8z"/>
		<path class="st0" d="M40.8,68.4L29.9,92.3l0,0c-0.2,0.4,0,0.9,0.5,1.1c0.4,0.2,0.9,0,1.1-0.5l10.1-24.2c0.1-0.2,0-0.4-0.2-0.5
			C41.1,68.1,40.9,68.2,40.8,68.4z"/>
		<path class="st0" d="M44.3,70L33.5,93.9l0,0c-0.2,0.4,0,0.9,0.5,1.1c0.4,0.2,0.9,0,1.1-0.5l10.1-24.2c0.1-0.2,0-0.4-0.2-0.5
			C44.7,69.7,44.5,69.8,44.3,70z"/>
		<path class="st0" d="M47.9,71.5L37.1,95.4l0,0c-0.2,0.4,0,0.9,0.5,1.1c0.4,0.2,0.9,0,1.1-0.5l10.1-24.2c0.1-0.2,0-0.4-0.2-0.5
			C48.3,71.2,48,71.3,47.9,71.5z"/>
		<path class="st0" d="M51.5,73.1L40.7,97l0,0c-0.2,0.4,0,0.9,0.5,1.1c0.4,0.2,0.9,0,1.1-0.5l10.1-24.2c0.1-0.2,0-0.4-0.2-0.5
			C51.8,72.8,51.6,72.9,51.5,73.1z"/>
		<path class="st0" d="M55.1,74.6L44.2,98.5l0,0c-0.2,0.4,0,0.9,0.5,1.1c0.4,0.2,0.9,0,1.1-0.5L55.9,75c0.1-0.2,0-0.4-0.2-0.5
			C55.4,74.4,55.2,74.5,55.1,74.6z"/>
		<path class="st0" d="M58.7,76.2l-10.9,23.9l0,0c-0.2,0.4,0,0.9,0.5,1.1c0.4,0.2,0.9,0,1.1-0.5l10.1-24.2c0.1-0.2,0-0.4-0.2-0.5
			C59,75.9,58.8,76,58.7,76.2z"/>
		<path class="st0" d="M62.3,77.8l-10.9,23.9l0,0c-0.2,0.4,0,0.9,0.5,1.1c0.4,0.2,0.9,0,1.1-0.5l10-24.2c0.1-0.2,0-0.4-0.2-0.5
			S62.4,77.6,62.3,77.8z"/>
		<path class="st0" d="M65.9,79.3L55,103.2l0,0c-0.2,0.4,0,0.9,0.5,1.1c0.4,0.2,0.9,0,1.1-0.5l10.1-24.2c0.1-0.2,0-0.4-0.2-0.5
			C66.2,79,66,79.2,65.9,79.3z"/>
		<path class="st0" d="M69.5,80.9l-10.9,23.9l0,0c-0.2,0.4,0,0.9,0.5,1.1c0.4,0.2,0.9,0,1.1-0.5l10.1-24.2c0.1-0.2,0-0.4-0.2-0.5
			C69.8,80.6,69.5,80.7,69.5,80.9z"/>
		<path class="st0" d="M73.1,82.5l-10.9,23.9l0,0c-0.2,0.4,0,0.9,0.5,1.1c0.4,0.2,0.9,0,1.1-0.5l10.1-24.2c0.1-0.2,0-0.4-0.2-0.5
			C73.4,82.2,73.1,82.3,73.1,82.5z"/>
		<path class="st0" d="M76.6,84l-10.9,23.9l0,0c-0.2,0.4,0,0.9,0.5,1.1c0.4,0.2,0.9,0,1.1-0.5l10.1-24.2c0.1-0.2,0-0.4-0.2-0.5
			C77,83.7,76.7,83.8,76.6,84z"/>
		<path class="st0" d="M80.2,85.6l-10.9,23.9l0,0c-0.2,0.4,0,0.9,0.5,1.1c0.4,0.2,0.9,0,1.1-0.5L81,85.9c0.1-0.2,0-0.4-0.2-0.5
			C80.6,85.3,80.3,85.4,80.2,85.6z"/>
		<path class="st0" d="M83.8,87.1L72.9,111l0,0c-0.2,0.4,0,0.9,0.5,1.1c0.4,0.2,0.9,0,1.1-0.5l10.1-24.2c0.1-0.2,0-0.4-0.2-0.5
			C84.1,86.8,83.9,87,83.8,87.1z"/>
		<path class="st0" d="M87.4,88.7l-10.9,23.9l0,0c-0.2,0.4,0,0.9,0.5,1.1c0.4,0.2,0.9,0,1.1-0.5l10-24.2c0.1-0.2,0-0.4-0.2-0.5
			C87.7,88.4,87.5,88.5,87.4,88.7z"/>
		<path class="st0" d="M91,90.3l-10.9,23.9l0,0c-0.2,0.4,0,0.9,0.5,1.1c0.4,0.2,0.9,0,1.1-0.5l10.1-24.2c0.1-0.2,0-0.4-0.2-0.5
			C91.3,90,91,90.1,91,90.3z"/>
		<path class="st0" d="M94.6,91.8l-10.9,23.9l0,0c-0.2,0.4,0,0.9,0.5,1.1c0.4,0.2,0.9,0,1.1-0.5l10.1-24.2c0.1-0.2,0-0.4-0.2-0.5
			C94.9,91.5,94.6,91.6,94.6,91.8z"/>
		<path class="st0" d="M98.1,93.4l-10.9,23.9l0,0c-0.2,0.4,0,0.9,0.5,1.1c0.4,0.2,0.9,0,1.1-0.5l10.1-24.2c0.1-0.2,0-0.4-0.2-0.5
			S98.2,93.2,98.1,93.4z"/>
		<path class="st0" d="M101.7,95l-10.9,23.9l0,0c-0.2,0.4,0,0.9,0.5,1.1c0.4,0.2,0.9,0,1.1-0.5l10.1-24.2c0.1-0.2,0-0.4-0.2-0.5
			C102.1,94.6,101.8,94.8,101.7,95z"/>
		<path class="st0" d="M105.3,96.5l-10.9,23.9l0,0c-0.2,0.4,0,0.9,0.5,1.1c0.4,0.2,0.9,0,1.1-0.5l10.1-24.2c0.1-0.2,0-0.4-0.2-0.5
			C105.6,96.2,105.4,96.3,105.3,96.5z"/>
		<path class="st0" d="M108.9,98.1L98,121.9l0,0c-0.2,0.4,0,0.9,0.5,1.1c0.4,0.2,0.9,0,1.1-0.5l10.1-24.2c0.1-0.2,0-0.4-0.2-0.5
			C109.2,97.8,109,97.9,108.9,98.1z"/>
		<path class="st0" d="M112.5,99.6l-10.9,23.9l0,0c-0.2,0.4,0,0.9,0.5,1.1c0.4,0.2,0.9,0,1.1-0.5l10.1-24.2c0.1-0.2,0-0.4-0.2-0.5
			C112.8,99.3,112.6,99.4,112.5,99.6z"/>
		<path class="st0" d="M116.1,101.2l-10.9,23.9l0,0c-0.2,0.4,0,0.9,0.5,1.1c0.4,0.2,0.9,0,1.1-0.5l10.1-24.2c0.1-0.2,0-0.4-0.2-0.5
			C116.4,100.9,116.2,101,116.1,101.2z"/>
		<path class="st0" d="M119.6,102.8l-10.9,23.9l0,0c-0.2,0.4,0,0.9,0.5,1.1c0.4,0.2,0.9,0,1.1-0.5l10.1-24.2c0.1-0.2,0-0.4-0.2-0.5
			C120,102.5,119.8,102.6,119.6,102.8z"/>
		<path class="st0" d="M123.2,104.3l-10.9,23.9l0,0c-0.2,0.4,0,0.9,0.5,1.1c0.4,0.2,0.9,0,1.1-0.5l10.1-24.2c0.1-0.2,0-0.4-0.2-0.5
			C123.6,104,123.3,104.1,123.2,104.3z"/>
		<path class="st0" d="M126.8,105.9L116,129.8l0,0c-0.2,0.4,0,0.9,0.5,1.1c0.4,0.2,0.9,0,1.1-0.5l10.1-24.2c0.1-0.2,0-0.4-0.2-0.5
			C127.1,105.6,126.9,105.7,126.8,105.9z"/>
		<path class="st0" d="M130.4,107.5l-10.9,23.9l0,0c-0.2,0.4,0,0.9,0.5,1.1c0.4,0.2,0.9,0,1.1-0.5l10.1-24.2c0.1-0.2,0-0.4-0.2-0.5
			C130.7,107.1,130.5,107.2,130.4,107.5z"/>
		<path class="st0" d="M26.4,62.2L15.5,86l0,0c-0.2,0.4,0,0.9,0.5,1.1c0.4,0.2,0.9,0,1.1-0.5l10.1-24.2c0.1-0.2,0-0.4-0.2-0.5
			C26.8,61.9,26.5,62,26.4,62.2z"/>
		<path class="st0" d="M134,109l-10.9,23.9l0,0c-0.2,0.4,0,0.9,0.5,1.1c0.4,0.2,0.9,0,1.1-0.5l10.1-24.2c0.1-0.2,0-0.4-0.2-0.5
			C134.3,108.7,134.1,108.8,134,109z"/>
	</g>
	<path class="st1" d="M142.1,112.5l-10.3,23.8c-2.4,5.6-8.9,8.1-14.4,5.7l-103-44.8c-5.6-2.4-8.1-8.9-5.7-14.4L19,59
		c2.6,1.1,3.8,4.1,2.7,6.7l-7.2,16.5l113.7,49.5l7.2-16.5C136.5,112.6,139.5,111.4,142.1,112.5z"/>
	<path class="st2" d="M26.2,160.5c-1.7,4.3-1.8,8.8-0.5,12.5c1.3,3.8,3.8,6.8,7.4,8.2c3.6,1.4,7.5,1,11-0.9s6.5-5.2,8.1-9.4
		l16.3-41.2l11.6-1.3l14.5-80.6l-33,83.4c-0.3,0.8-0.8,1.4-1.3,2l-0.5,0.5c-7,7.2-15.5,12.7-24.6,16.9c-1.9,0.9-3.7,2.2-5.3,3.9
		C28.5,156.1,27.1,158.2,26.2,160.5z M28.7,161.4c2.8-7.2,10-11.2,15.8-8.9s8.3,10.1,5.4,17.3c-2.9,7.2-10,11.2-15.8,8.9
		C28.2,176.4,25.8,168.7,28.7,161.4z"/>
	<path class="st3" d="M56.8,136.6c-6.3,5.8-13.7,10.4-21.5,14c-1.9,0.9-3.7,2.2-5.3,3.9c-1.6,1.7-2.8,3.7-3.8,6
		c-1.7,4.3-1.8,8.8-0.5,12.5c1.3,3.8,3.8,6.8,7.4,8.2c3.6,1.4,7.5,1,11-0.9s6.5-5.2,8.1-9.4l13.5-34.2L56.8,136.6L56.8,136.6
		L56.8,136.6z M49.9,169.8c-2.9,7.2-10,11.2-15.8,8.9c-5.9-2.3-8.3-10.1-5.4-17.3c2.8-7.2,10-11.2,15.8-8.9S52.7,162.6,49.9,169.8z"
		/>
	<path class="st4" d="M114.6,154.5c-1.6-1.7-3.4-3-5.3-3.9c-9.1-4.2-17.6-9.7-24.6-16.9l-0.5-0.5c-0.6-0.6-1-1.3-1.3-2L50,47.8
		l14.5,80.6l11.6,1.3l16.2,41.2c1.7,4.3,4.7,7.6,8.1,9.4c3.5,1.9,7.4,2.3,11,0.9s6.2-4.5,7.4-8.2c1.3-3.8,1.2-8.2-0.5-12.5
		C117.5,158.2,116.2,156.1,114.6,154.5z M110.6,178.7c-5.8,2.3-13-1.7-15.8-8.9s-0.4-15,5.4-17.3c5.9-2.3,13,1.7,15.8,8.9
		C118.8,168.7,116.4,176.4,110.6,178.7z"/>
	<path class="st3" d="M114.6,154.5c-1.6-1.7-3.4-3-5.3-3.9c-7.8-3.6-15.2-8.2-21.5-14h-9l13.5,34.2c1.7,4.3,4.7,7.6,8.1,9.4
		c3.5,1.9,7.4,2.3,11,0.9c3.6-1.4,6.2-4.5,7.4-8.2c1.3-3.8,1.2-8.2-0.5-12.5C117.5,158.2,116.2,156.1,114.6,154.5z M110.6,178.7
		c-5.8,2.3-13-1.7-15.8-8.9s-0.4-15,5.4-17.3c5.9-2.3,13,1.7,15.8,8.9C118.8,168.7,116.4,176.4,110.6,178.7z"/>
	<circle class="st2" cx="71.2" cy="121.5" r="3"/>
</g>
<g id="Layer_22">
	<g>
		<g>
			<path class="st5" d="M132.5,91.2v79c0,6.5,5.3,11.7,11.7,11.7h36.1c6.5,0,11.7-5.3,11.7-11.7v-79c0-6.5-5.3-11.7-11.7-11.7h-36.1
				C137.8,79.4,132.5,84.7,132.5,91.2z M185.5,91.2v15.7H139V91.2c0-2.9,2.3-5.2,5.2-5.2h36.1C183.2,86,185.5,88.3,185.5,91.2
				L185.5,91.2z"/>
			<path class="st5" d="M150.3,64.5v10h24v-10c0-2.9-2.3-5.2-5.2-5.2h-13.5C152.6,59.3,150.3,61.6,150.3,64.5L150.3,64.5z"/>
			<path class="st6" d="M71,59v2.4c0,1.5-1.2,2.7-2.7,2.7H48.1c-1.5,0-2.7,1.2-2.7,2.7v3.1c0,1.5,1.2,2.7,2.7,2.7h20.2
				c1.5,0,2.7,1.2,2.7,2.7v2.4c0,1.5-1.2,2.7-2.7,2.7H48.1c-1.5,0-2.7,1.2-2.7,2.7v3.1c0,1.5,1.2,2.7,2.7,2.7h20.2
				c1.5,0,2.7,1.2,2.7,2.7V94c0,1.5-1.2,2.7-2.7,2.7H48.1c-1.5,0-2.7,1.2-2.7,2.7v3.1c0,1.5,1.2,2.7,2.7,2.7h20.2
				c1.5,0,2.7,1.2,2.7,2.7v2.4c0,1.5-1.2,2.7-2.7,2.7H48.1c-1.5,0-2.7,1.2-2.7,2.7v3.1c0,1.5,1.2,2.7,2.7,2.7h20.2
				c1.5,0,2.7,1.2,2.7,2.7v2.4c0,1.5-1.2,2.7-2.7,2.7H48.1c-1.5,0-2.7,1.2-2.7,2.7v3.1c0,1.5,1.2,2.7,2.7,2.7h20.2
				c1.5,0,2.7,1.2,2.7,2.7v2.4c0,1.5-1.2,2.7-2.7,2.7H48.1c-1.5,0-2.7,1.2-2.7,2.7v3.1c0,1.5,1.2,2.7,2.7,2.7h20.2
				c1.5,0,2.7,1.2,2.7,2.7v2.4c0,1.5-1.2,2.7-2.7,2.7H48.1c-1.5,0-2.7,1.2-2.7,2.7v3.9c0,1.5,1.2,2.7,2.7,2.7h24.5
				c7.1,0,12.9-5.8,12.9-12.9V60.2c0-7.1-5.8-12.9-12.9-12.9H48.1c-1.5,0-2.7,1.2-2.7,2.7v3.9c0,1.5,1.2,2.7,2.7,2.7h20.2
				C69.8,56.5,71,57.7,71,59z"/>
		</g>
	</g>
</g>
</svg>
