<?xml version="1.0" encoding="utf-8"?>
<!-- Generator: Adobe Illustrator 19.2.0, SVG Export Plug-In . SVG Version: 6.00 Build 0)  -->
<svg version="1.1" id="Layer_1" xmlns="http://www.w3.org/2000/svg" xmlns:xlink="http://www.w3.org/1999/xlink" x="0px" y="0px"
	 viewBox="0 0 200 200" style="enable-background:new 0 0 200 200;" xml:space="preserve">
<style type="text/css">
	.st0{fill:#E97526;}
	.st1{fill:#FFC11B;}
	.st2{fill:#50ABD8;}
	.st3{opacity:0.3;fill:#E97526;enable-background:new    ;}
	.st4{fill:#E6E6E5;}
	.st5{fill:#1C89C9;}
	.st6{fill:#754D25;}
	.st7{fill:#A67D52;}
	.st8{fill:#989898;}
	.st9{fill:#E8F4FC;}
</style>
<g id="Layer_101">
	<rect x="8.3" y="93.5" class="st0" width="112.8" height="12.5"/>
	<polygon class="st1" points="14.5,106 20.8,200 108.5,200 114.8,106 	"/>
	<path class="st2" d="M96,93.5c0-8-5.1-15.1-12.6-17.7c5.8-8.6,3.5-20.3-5.1-26.1S58,46.2,52.2,54.9C50.1,58,49,61.6,49,65.4
		c0,0.2,0,0.5,0,0.7c-15.1-3.5-30.2,5.9-33.8,21c-0.5,2.1-0.7,4.3-0.7,6.5h15.7v43.8c0,3.5,2.8,6.3,6.3,6.3l0,0
		c3.5,0,6.3-2.8,6.3-6.3v-21.9c0-3.5,2.8-6.3,6.3-6.3l0,0c3.5,0,6.3,2.8,6.3,6.3v6.3c0,3.5,2.8,6.3,6.3,6.3l0,0
		c3.5,0,6.3-2.8,6.3-6.3V93.5H96L96,93.5z"/>
	<path class="st3" d="M102.2,106c0,1,0.1,2.1,0.1,3.1c0,43.2-36.5,78.3-81.4,78.3c-0.3,0-0.6,0-0.8,0l0.8,12.5h87.7l6.3-94h-12.7
		V106z"/>
	<rect x="96" y="168.7" class="st4" width="94" height="31.3"/>
	<path class="st2" d="M96,168.7v-6.3c0-3.5,2.8-6.3,6.3-6.3h68.9c3.5,0,6.3-2.8,6.3-6.3l0,0c0-3.5-2.8-6.3-6.3-6.3h-37.6
		c-3.5,0-6.3-2.8-6.3-6.3l0,0c0-3.5,2.8-6.3,6.3-6.3h50.1c3.5,0,6.3,2.8,6.3,6.3v31.3L96,168.7L96,168.7z"/>
	<g>
		<rect x="5.1" y="46.5" class="st5" width="18.8" height="6.3"/>
		<rect x="11.4" y="40.3" class="st5" width="6.3" height="18.8"/>
		<rect x="171.1" y="102.9" class="st5" width="18.8" height="6.3"/>
		<rect x="177.4" y="96.6" class="st5" width="6.3" height="18.8"/>
		<rect x="52.1" y="21.5" class="st5" width="18.8" height="6.3"/>
		<rect x="58.4" y="15.2" class="st5" width="6.3" height="18.8"/>
	</g>
	<rect x="139.8" y="77.8" class="st6" width="12.5" height="53.2"/>
	<polygon class="st4" points="102.2,18.3 189.9,18.3 183.7,62.2 108.5,62.2 	"/>
	<rect x="108.5" y="62.2" class="st7" width="75.2" height="15.7"/>
	<rect x="139.8" y="143.6" class="st6" width="12.5" height="12.5"/>
	<g>
		<rect x="168" y="18.3" class="st8" width="6.3" height="21.9"/>
		<rect x="155.5" y="18.3" class="st8" width="6.3" height="12.5"/>
		<rect x="117.9" y="18.3" class="st8" width="6.3" height="21.9"/>
		<rect x="130.4" y="18.3" class="st8" width="6.3" height="9.4"/>
		<rect x="117.9" y="46.5" class="st8" width="6.3" height="6.3"/>
		<rect x="108.5" y="181.2" class="st8" width="6.3" height="18.8"/>
		<rect x="124.2" y="181.2" class="st8" width="6.3" height="18.8"/>
		<rect x="139.8" y="181.2" class="st8" width="6.3" height="18.8"/>
		<rect x="155.5" y="181.2" class="st8" width="6.3" height="18.8"/>
		<rect x="171.1" y="181.2" class="st8" width="6.3" height="18.8"/>
	</g>
	<g>
		<ellipse transform="matrix(0.7071 -0.7071 0.7071 0.7071 -21.5324 59.8589)" class="st9" cx="61.5" cy="55.9" rx="4.7" ry="3.1"/>
		<ellipse transform="matrix(0.7071 -0.7071 0.7071 0.7071 -46.1885 44.1217)" class="st9" cx="30.2" cy="77.8" rx="4.7" ry="3.1"/>
	</g>
</g>
</svg>
