<?xml version="1.0" encoding="utf-8"?>
<!-- Generator: Adobe Illustrator 19.2.0, SVG Export Plug-In . SVG Version: 6.00 Build 0)  -->
<svg version="1.1" id="Layer_1" xmlns="http://www.w3.org/2000/svg" xmlns:xlink="http://www.w3.org/1999/xlink" x="0px" y="0px"
	 viewBox="0 0 200 200" style="enable-background:new 0 0 200 200;" xml:space="preserve">
<style type="text/css">
	.st0{fill:#85BD94;}
	.st1{fill:#FDD44B;}
	.st2{fill:#EE8826;}
	.st3{fill:#402E21;}
	.st4{fill:#F5B543;}
	.st5{fill:#993923;}
	.st6{fill:#010101;}
</style>
<g id="Layer_67">
	<g>
		<path class="st0" d="M119.1,100.1c0,2.6-0.4,6.3-1.2,9.3c0.4-2.3,0.6-4.8,0.6-7.3c0-17.6-11.2-32-25-32c-4.8,0-9.4,1.7-13.4,5
			c0,0.5,0,1,0,1.3c3.7-2.7,8.1-5.3,12.5-5.3c13.1,0,23.8,12.8,23.8,28.6c0,11.9-6,22.1-14.7,26.4c0.5,1,0.9,2.2,1.4,3.2
			C112.6,124.7,119.1,113.6,119.1,100.1C119.1,82.5,119.1,82.5,119.1,100.1z"/>
		<path class="st0" d="M74.3,89.8c-2.1-9.8-1-31.7-1.2-30.5L58,54.8l5.3,9.6c0.4,0.6,0.5,1.8,0.5,1.9c0.9,8.5,0.6,16.3-0.4,23.5
			H74.3L74.3,89.8z"/>
		<g>
			<path class="st1" d="M43.4,188.6c0-0.1,0-0.1,0-0.2C43.4,188.5,43.4,188.6,43.4,188.6z"/>
			<path class="st1" d="M43.5,189.3c0-0.1,0-0.1,0-0.2C43.5,189.2,43.5,189.3,43.5,189.3z"/>
			<path class="st1" d="M89.2,120.9c-1-1.1-6.5-7.9-11-19.1v-0.1H60.3c-4.6,14.5-11.7,23-12.8,24.3c-7.1,8.7-11.2,21.1-11.2,33.9
				c0,12,1.6,20.4,5.6,26.1c0.3,0.3,0.6,0.7,0.6,1.1l0,0c1.6,1.4,2.7,2.6,4.2,3.6c0.7,0.5,1.5,1.9,1.8,1.9H85c1.6,0,3-1.1,3.2-2.7
				c-0.3-1.7,0.4-3.3,1.7-4.3c7.4-5.4,10.6-14.9,10.6-30.9C100.4,141.9,96.3,129.7,89.2,120.9z M50.4,173.8c1,1.9,0.3,4.2-1.6,5.3
				c-0.6,0.3-1.2,0.5-1.8,0.5c-1.4,0-2.7-0.7-3.4-2.1c-12.9-24.1-0.4-44.5,0.1-45.4c1.1-1.8,3.5-2.4,5.4-1.2
				c1.8,1.1,2.4,3.5,1.2,5.3C49.8,136.9,39.7,153.8,50.4,173.8z"/>
			<path class="st1" d="M77.4,99.8c0-0.1-0.1-0.2-0.1-0.3C77.3,99.5,77.3,99.6,77.4,99.8z"/>
			<path class="st1" d="M43.2,187.8v0.1C43.3,187.9,43.3,187.8,43.2,187.8z"/>
		</g>
		<polygon class="st2" points="70.8,31.9 63,31.9 63.8,44.9 70,46.4 		"/>
		<path class="st3" d="M50.3,136.2c1.1-1.8,0.6-4.2-1.2-5.3s-4.2-0.6-5.4,1.2c-0.5,0.9-13,21.3-0.1,45.4c0.7,1.3,2,2.1,3.4,2.1
			c0.6,0,1.2-0.1,1.8-0.5c1.9-1,2.6-3.4,1.6-5.3C39.7,153.8,49.8,136.9,50.3,136.2z"/>
		<path class="st3" d="M94.1,59.7c-4.8,0-9.4,1.2-13.7,3.6c0.3-3.2,0.8-6.5,1.4-9.8c0.4-2-0.8-4-2.7-4.5l-1.4-0.4l1.4-24.9
			c0.1-1.1-0.3-2.1-1.1-2.9c-0.7-0.8-1.8-1.2-2.8-1.2H55.3c-1.1,0-2.1,0.5-2.9,1.2c-0.7,0.8-1.1,1.9-1,2.9l1.3,17.7l-6.8-2
			c-1.5-0.4-3.1,0.1-4.1,1.3s-1.1,2.9-0.4,4.3l9.4,17.2c3,29.5-10.8,49-14,52.9c-8.7,10.2-13.7,24.6-13.7,39.6
			c0,17.8,3.9,29,12.4,36.1c0.6,5.5,5.3,9.7,10.9,9.7h38.2c5.6,0,10.3-4.3,10.9-9.7c8.6-7.1,12.4-18.3,12.4-36.1
			c0-6.3-0.9-12.4-2.5-18.2c5.8-2.7,11-7.3,14.7-13.4c4.2-6.9,6.5-15.1,6.5-23.8C126.9,77.5,112.2,59.7,94.1,59.7z M88,190
			c-0.2,1.6-1.5,2.8-3.2,2.8H46.6c-1.6,0-3-1.2-3.2-2.8c0.3-1.7-0.4-3.4-1.8-4.4c-7.4-5.4-10.6-14.9-10.6-30.9
			c0-12.9,4.1-25.1,11.2-33.8c1.1-1.3,8.2-9.8,12.8-24.2h21.3c4.6,14.4,11.7,22.9,12.8,24.2c7.1,8.7,11.2,21,11.2,33.8
			c0,16-3.3,25.5-10.6,30.9C88.4,186.7,87.7,188.4,88,190z M81.4,85c3-3.8,7-6,11.2-6c8.8,0,16,9.3,16,20.8
			c0,8.9-4.6,16.8-10.9,19.7c-1-1.5-2.2-3-3.4-4.4c-1.6-2-5.6-7.5-9-16C83.7,94.5,82.3,89.8,81.4,85z M59.5,27.3h11.6l-1,19
			l-9.3-2.7L59.5,27.3z M73.6,55.5c-2.2,12.9-1.4,24.1,0.7,33.5H57.2c1.8-8.1,2.6-17.6,1.4-28.3c0,0-0.1-0.9-0.5-1.5l-5.3-9.7
			L73.6,55.5z M103.1,129.2c-0.4-1-0.9-2-1.4-3c8.7-4.3,14.7-14.6,14.7-26.4c0-15.8-10.7-28.6-23.8-28.6c-4.4,0-8.8,2.6-12.5,5.3
			c0-0.8,0-2.7,0-3.5c0.1-0.1,0.1-0.1,0.2-0.2c4.1-3.5,8.8-5.3,13.8-5.3c13.8,0,25,14.3,25,32C119.1,112.7,112.6,124.5,103.1,129.2z
			"/>
	</g>
</g>
<g id="Layer_75">
	<g>
		<g id="XMLID_34_">
			<g>
				<rect x="133.2" y="69.8" class="st4" width="13.7" height="6"/>
				<path class="st5" d="M141.1,164.8c0-1.2-0.5-2.4-1.4-3.3c-0.9-0.9-2.1-1.4-3.3-1.4s-2.4,0.5-3.3,1.4c-0.9,0.9-1.4,2.1-1.4,3.3
					s0.5,2.4,1.4,3.3c0.9,0.9,2.1,1.4,3.3,1.4s2.4-0.5,3.3-1.4C140.6,167.2,141.1,166,141.1,164.8z M147.3,169.1
					c-0.9-0.9-2.1-1.4-3.3-1.4s-2.4,0.5-3.3,1.4c-0.9,0.9-1.4,2.1-1.4,3.3s0.5,2.4,1.4,3.3c0.9,0.9,2.1,1.4,3.3,1.4s2.4-0.5,3.3-1.4
					c0.9-0.9,1.4-2.1,1.4-3.3C148.7,171.2,148.2,170,147.3,169.1z M144.1,167.1c0.6,0,1.2-0.2,1.6-0.7c0.2-0.2,2.3-2.4,3.4-5.7
					c1.1-3.2,1.4-8.1-3.4-12.9c-0.9-0.9-2.4-0.9-3.3,0c-0.9,0.9-0.9,2.4,0,3.3c5.8,5.8,0.6,11.4,0,12c-0.9,0.9-0.9,2.4,0,3.3
					C142.9,166.8,143.5,167.1,144.1,167.1z M162.2,157.1v33.6h-44.3v-33.6c0-7.7,4.9-14.7,12.2-17.3c1.9-0.7,3.1-2.4,3.1-4.4V95.9
					c0-2.6-2.1-4.6-4.6-4.6h-0.2c-1.5,0-2.8-1.3-2.8-2.8V88c0-1.5,1.3-2.8,2.8-2.8h23.4c1.5,0,2.8,1.3,2.8,2.8v0.5
					c0,1.5-1.3,2.8-2.8,2.8h-0.2c-2.6,0-4.6,2.1-4.6,4.6v39.6c0,2,1.2,3.7,3.1,4.4C157.3,142.4,162.2,149.4,162.2,157.1z
					 M138.3,176.3c0-1.2-0.5-2.4-1.4-3.3c-0.9-0.9-2.1-1.4-3.3-1.4s-2.4,0.5-3.3,1.4c-0.9,0.9-1.4,2.1-1.4,3.3s0.5,2.4,1.4,3.3
					c0.9,0.9,2.1,1.4,3.3,1.4s2.4-0.5,3.3-1.4C137.8,178.8,138.3,177.6,138.3,176.3z"/>
				<path class="st6" d="M171.5,157.1v38.3c0,2.6-2.1,4.6-4.6,4.6h-53.6c-2.6,0-4.6-2.1-4.6-4.6v-38.3c0-10.5,6-20.1,15.3-24.7V99.7
					c-4.5-1.8-7.7-6.1-7.7-11.2V88c0-5.1,3.2-9.5,7.7-11.2V65.2c0-2.6,2.1-4.6,4.6-4.6h23c2.6,0,4.6,2.1,4.6,4.6v11.6
					c4.5,1.8,7.7,6.1,7.7,11.2v0.5c0,5.1-3.2,9.5-7.7,11.2v32.7C165.5,137,171.5,146.6,171.5,157.1z M162.2,190.7v-33.6
					c0-7.7-4.9-14.7-12.2-17.3c-1.9-0.7-3.1-2.4-3.1-4.4V95.9c0-2.6,2.1-4.6,4.6-4.6h0.2c1.5,0,2.8-1.3,2.8-2.8V88
					c0-1.5-1.3-2.8-2.8-2.8h-23.4c-1.5,0-2.8,1.3-2.8,2.8v0.5c0,1.5,1.3,2.8,2.8,2.8h0.2c2.6,0,4.6,2.1,4.6,4.6v39.6
					c0,2-1.2,3.7-3.1,4.4c-7.3,2.6-12.2,9.5-12.2,17.3v33.6L162.2,190.7L162.2,190.7z M146.9,75.8v-6h-13.7v6H146.9z"/>
				<path class="st6" d="M145.7,147.8c4.8,4.8,4.5,9.7,3.4,12.9c-1.1,3.3-3.2,5.5-3.4,5.7c-0.5,0.5-1,0.7-1.6,0.7s-1.2-0.2-1.6-0.7
					c-0.9-0.9-0.9-2.4,0-3.3c0.6-0.6,5.8-6.2,0-12c-0.9-0.9-0.9-2.4,0-3.3C143.3,146.9,144.8,146.9,145.7,147.8z"/>
				<path class="st6" d="M147.3,169.1c0.9,0.9,1.4,2.1,1.4,3.3s-0.5,2.4-1.4,3.3c-0.9,0.9-2.1,1.4-3.3,1.4s-2.4-0.5-3.3-1.4
					c-0.9-0.9-1.4-2.1-1.4-3.3s0.5-2.4,1.4-3.3c0.9-0.9,2.1-1.4,3.3-1.4C145.3,167.8,146.5,168.3,147.3,169.1z"/>
				<path class="st6" d="M139.7,161.5c0.9,0.9,1.4,2.1,1.4,3.3s-0.5,2.4-1.4,3.3c-0.9,0.9-2.1,1.4-3.3,1.4s-2.4-0.5-3.3-1.4
					c-0.9-0.9-1.4-2.1-1.4-3.3s0.5-2.4,1.4-3.3c0.9-0.9,2.1-1.4,3.3-1.4C137.6,160.1,138.8,160.6,139.7,161.5z"/>
				<path class="st6" d="M136.9,173.1c0.9,0.9,1.4,2.1,1.4,3.3s-0.5,2.4-1.4,3.3c-0.9,0.9-2.1,1.4-3.3,1.4s-2.4-0.5-3.3-1.4
					c-0.9-0.9-1.4-2.1-1.4-3.3s0.5-2.4,1.4-3.3c0.9-0.9,2.1-1.4,3.3-1.4C134.9,171.7,136.1,172.2,136.9,173.1z"/>
			</g>
		</g>
	</g>
</g>
</svg>
