<?xml version="1.0" encoding="utf-8"?>
<!-- Generator: Adobe Illustrator 19.2.0, SVG Export Plug-In . SVG Version: 6.00 Build 0)  -->
<svg version="1.1" id="Layer_1" xmlns="http://www.w3.org/2000/svg" xmlns:xlink="http://www.w3.org/1999/xlink" x="0px" y="0px"
	 viewBox="0 0 200 200" style="enable-background:new 0 0 200 200;" xml:space="preserve">
<style type="text/css">
	.st0{fill:#F0EEEE;}
	.st1{fill:#00AEEF;}
</style>
<g id="Oral_Care">
	<path class="st0" d="M100,118.7c9.1,0,8.6,36.6,21.1,36.6s10.4-40.6,22.1-55.3s12.1-20.9,12.1-28.1c0-15-12.2-27.2-27.2-27.2
		c-18.3,0-21.1,18.9-28.1,18.9s-9.8-18.9-28.1-18.9c-15,0-27.2,12.2-27.2,27.2c0,7.2,0.4,13.4,12.1,28.1s9.6,55.3,22.1,55.3
		S90.9,118.7,100,118.7z"/>
	<path class="st1" d="M121.1,159c-9.5,0-13-12.3-16-23.2c-1-3.6-2-7-3-9.7c-1-2.6-1.8-3.4-2.1-3.7c-0.3,0.3-1.1,1.1-2.1,3.7
		c-1.1,2.6-2,6-3,9.7c-3,10.9-6.5,23.2-16,23.2c-7.1,0-10-7.6-11-10.1c-1.9-5-3.2-11.5-4.6-18.3c-2.1-10.5-4.6-22.3-9.3-28.3
		C42,87.2,41,80.2,41,71.9C41,54.9,54.9,41,71.9,41c13.1,0,19.5,8.5,23.8,14.2c1.3,1.7,3.5,4.7,4.3,4.7s3-2.9,4.3-4.7
		c4.2-5.7,10.6-14.2,23.8-14.2c17,0,30.9,13.9,30.9,30.9c0,8.3-0.9,15.3-12.9,30.4c-4.8,6-7.2,17.9-9.3,28.3
		c-1.4,6.9-2.7,13.3-4.6,18.3C131.1,151.4,128.2,159,121.1,159z M100,115c5.2,0,7.6,5.3,8.4,7.1c1.5,3.2,2.6,7.4,3.8,11.7
		c2,7.1,5,17.8,8.9,17.8c1.7,0,3.2-2.9,4.1-5.3c1.7-4.4,3-10.6,4.3-17.1c2.4-11.8,4.9-24,10.8-31.4c11.3-14.3,11.3-19.6,11.3-25.8
		c0-13-10.5-23.5-23.5-23.5c-9.5,0-13.9,6-17.9,11.2c-2.9,3.9-5.7,7.6-10.2,7.6s-7.3-3.7-10.2-7.6c-3.9-5.3-8.4-11.2-17.9-11.2
		c-13,0-23.5,10.5-23.5,23.5c0,6.2,0,11.5,11.3,25.8c5.9,7.4,8.4,19.6,10.8,31.4c1.3,6.5,2.6,12.7,4.3,17.1c0.9,2.4,2.4,5.3,4.1,5.3
		c3.9,0,6.9-10.7,8.9-17.8c1.2-4.4,2.4-8.5,3.8-11.7C92.4,120.3,94.8,115,100,115z"/>
	<path class="st1" d="M158.2,161.9c-0.9,0-1.9-0.4-2.6-1.1c-1.4-1.4-1.5-3.8,0-5.2l0.1-0.1c1.4-1.4,3.8-1.5,5.2,0
		c1.4,1.4,1.5,3.8,0,5.2l-0.1,0.1C160.1,161.6,159.1,161.9,158.2,161.9z"/>
	<path class="st1" d="M41.8,45.5c-0.9,0-1.9-0.4-2.6-1.1c-1.4-1.4-1.4-3.8,0-5.2l0.1-0.1c1.4-1.4,3.8-1.4,5.2,0s1.4,3.8,0,5.2
		l-0.1,0.1C43.6,45.2,42.7,45.5,41.8,45.5z"/>
	<path class="st1" d="M111,179.7l-8.4-8.4c-1.1-1.1-2.6-1.4-4-0.8c-1.4,0.6-2.3,1.9-2.3,3.4v4.6c-19.6-0.9-37.9-9-51.9-22.9
		C16.9,128.1,13.7,84,37,53c1.2-1.6,0.9-3.9-0.7-5.2c-1.6-1.2-3.9-0.9-5.2,0.7c-12.3,16.4-18.3,36.7-16.9,57.3
		c1.4,20.7,10.3,40.3,25,55c15.4,15.4,35.5,24.2,57.1,25.1v4.8c0,1.5,0.9,2.8,2.3,3.4c0.5,0.2,0.9,0.3,1.4,0.3c1,0,1.9-0.4,2.6-1.1
		l8.4-8.4C112.4,183.5,112.4,181.1,111,179.7z"/>
	<path class="st1" d="M185.8,94.1c-1.4-20.7-10.3-40.2-25-54.9c-15.4-15.4-35.5-24.2-57.1-25.1V9.3c0-1.5-0.9-2.8-2.3-3.4
		s-3-0.3-4,0.8L89,15.1c-1.4,1.4-1.4,3.8,0,5.2l8.4,8.4c0.7,0.7,1.6,1.1,2.6,1.1c0.5,0,1-0.1,1.4-0.3c1.4-0.6,2.3-1.9,2.3-3.4v-4.6
		c19.6,0.9,37.9,9,51.9,22.9c27.4,27.4,30.6,71.5,7.5,102.6c-1.2,1.6-0.9,3.9,0.7,5.2c0.7,0.5,1.4,0.7,2.2,0.7c1.1,0,2.2-0.5,3-1.5
		C181.2,135,187.2,114.7,185.8,94.1z"/>
</g>
</svg>
