<?xml version="1.0" encoding="utf-8"?>
<!-- Generator: Adobe Illustrator 19.2.0, SVG Export Plug-In . SVG Version: 6.00 Build 0)  -->
<svg version="1.1" id="Layer_1" xmlns="http://www.w3.org/2000/svg" xmlns:xlink="http://www.w3.org/1999/xlink" x="0px" y="0px"
	 viewBox="0 0 200 200" style="enable-background:new 0 0 200 200;" xml:space="preserve">
<style type="text/css">
	.st0{fill:#48C1E1;}
	.st1{fill:#046699;}
	.st2{opacity:0.1;}
	.st3{fill:#A2DFF9;}
	.st4{opacity:0.1;enable-background:new    ;}
	.st5{fill:#EF5050;}
	.st6{fill:#C0272D;}
	.st7{fill:#89C947;}
	.st8{fill:#D5E962;}
	.st9{fill:#FFC502;}
	.st10{fill:#368C0E;}
	.st11{fill:#F7931E;}
	.st12{fill:#E6E9ED;}
</style>
<rect x="33.7" y="57.1" class="st0" width="18.1" height="12.1"/>
<path class="st1" d="M55.5,55.8c0,1-0.8,1.8-1.8,1.8h-22c-1,0-1.8-0.8-1.8-1.8v-13c0-1,0.8-1.8,1.8-1.8h22c1,0,1.8,0.8,1.8,1.8
	L55.5,55.8L55.5,55.8z"/>
<g class="st2">
	<path d="M37.5,55.8v-13c0-1,0.8-1.8,1.8-1.8h-7.5c-1,0-1.8,0.8-1.8,1.8v13c0,1,0.8,1.8,1.8,1.8h7.5C38.3,57.6,37.5,56.8,37.5,55.8z
		"/>
</g>
<path class="st3" d="M28.1,155.2c0.1,0,0.2-0.1,0.2-0.2c0-0.1,0-0.2,0-0.3c-0.2-0.3-0.2-0.5-0.2-0.8c0-1.9,4.3-4,10.7-4
	c2.1,0,4,0.2,5.8,0.7c0,0,0.1,0,0.1,0c0.1,0,0.2,0,0.2-0.1c0.1-0.1,0.1-0.2,0.1-0.3c-1.1-4.4-1.7-9-1.9-13.7c0-0.1,0-0.1,0-0.2
	c0-0.7,0-1.3,0-2c0-0.8,0.7-1.5,1.5-1.5h3.2c0.1,0,0.2,0,0.3-0.1c0.1-0.1,0.1-0.2,0.1-0.3c-0.1-0.5-0.1-0.9-0.1-1.2
	c0-4.9,3.2-9.2,7.8-10.7c0.1,0,0.2-0.1,0.2-0.2c0-0.1,0-0.2,0-0.3c-0.4-0.9-0.7-1.8-0.9-2.8c-0.8-4.7,1.7-9.4,6-11.4
	c0.2-0.1,0.2-0.3,0.2-0.4c-0.2-0.6-0.4-1.2-0.5-1.7c-0.7-3.8,0.8-7.5,3.6-9.9v-15c0-5.5-4.5-10.1-10-10.1H31.2
	c-5.5,0-10,4.5-10,10.1v80.6C23.2,157.6,25.5,156.2,28.1,155.2z"/>
<path class="st1" d="M55.7,120.5c0.1,0,0.2-0.1,0.2-0.2c0-0.1,0-0.2,0-0.3c-0.4-0.9-0.7-1.8-0.9-2.8c-0.8-4.7,1.7-9.4,6-11.4
	c0.2-0.1,0.2-0.3,0.2-0.4c-0.2-0.6-0.4-1.2-0.5-1.7c-0.7-3.8,0.8-7.5,3.6-9.9V87H21.2v37.2h29.1C51.6,122.5,53.5,121.2,55.7,120.5z"
	/>
<path class="st4" d="M32,150.8V78.7c0-5.5,4.5-10.1,10-10.1H31.2c-5.5,0-10,4.5-10,10.1v80.6c2-1.7,4.3-3.1,6.9-4.2
	c0.1,0,0.2-0.1,0.2-0.2c0-0.1,0-0.2,0-0.3c-0.2-0.3-0.2-0.5-0.2-0.8C28,152.8,29.5,151.6,32,150.8z"/>
<path class="st5" d="M97.3,97.3c0.1,0.6,0.2,1.2,0.2,1.8c0,0.2,0.1,0.3,0.3,0.3c4.5,0.4,8.2,3.6,9.3,7.9c0,0.1,0.1,0.2,0.2,0.3
	c0,0,0.1,0,0.1,0c0.1,0,0.2,0,0.2-0.1c1.8-1.7,4.1-2.7,6.6-3c0.2,0,0.3-0.2,0.3-0.3c0.2-4.9,2.2-9.5,5.6-13c0.1-0.1,0.1-0.1,0.2-0.2
	c-0.8-4.9-3-9.6-6.8-13.3c-0.7-0.7-1.9-0.7-2.7,0L95.6,93.1C96.4,94.3,97,95.7,97.3,97.3z"/>
<g>
	<path class="st6" d="M107.1,107.4c0,0.1,0.1,0.2,0.2,0.3c0,0,0.1,0,0.1,0c0.1,0,0.2,0,0.2-0.1c0.9-0.8,1.9-1.5,3-2
		c-0.1-0.4-0.3-0.8-0.7-1.1l-2.5-2.6c-1-1-2.7-1-3.7,0c0,0,0,0,0,0C105.3,103.3,106.5,105.2,107.1,107.4z"/>
	<path class="st6" d="M112.5,99.6h-3.6c-1.5,0-2.6-1.2-2.6-2.6s1.2-2.6,2.6-2.6h3.6c1.5,0,2.6,1.2,2.6,2.6
		C115.2,98.4,114,99.6,112.5,99.6z"/>
	<path class="st6" d="M108.4,92.4c-0.7,0-1.3-0.3-1.9-0.8c-1-1-1-2.7,0-3.7l2.5-2.6c1-1,2.7-1,3.7,0c1,1,1,2.7,0,3.7l-2.5,2.6
		C109.8,92.1,109.1,92.4,108.4,92.4z"/>
</g>
<path class="st7" d="M141.3,87c0-0.1-0.1-0.2-0.1-0.2c-0.1-0.1-0.1-0.1-0.2-0.1c-7.3-2.9-15.5-1.2-21.1,4.4
	c-3.7,3.7-5.7,8.6-5.7,13.6c0.4,0,0.7-0.1,1.1-0.1c5.4,0,10,3.9,11,9.1c4-0.6,7.7-2.5,10.7-5.5C142.5,102.6,144.2,94.3,141.3,87z"/>
<path class="st8" d="M131.9,96.1c-1-1-2.7-1-3.7,0l-9.1,9.1c1.7,0.6,3.2,1.7,4.4,3l8.4-8.4C132.9,98.8,132.9,97.1,131.9,96.1z"/>
<g>
	<path class="st9" d="M145.1,117.1c0.1,0.5,0.1,1.1,0.1,1.6c0,0.2,0.1,0.3,0.3,0.3c1.4,0.1,2.8,0.6,4,1.3c0.1,0,0.1,0,0.2,0
		c0.1,0,0.2,0,0.3-0.1c0.3-0.3,0.6-0.6,0.8-0.9c2.1-2.1,4.7-3.6,7.5-4.5c0.3-1,0.4-2,0.4-3c0-6.4-5.2-11.6-11.6-11.6
		c-5.4,0-10,3.8-11.2,8.9C140.5,109.3,144.3,112.6,145.1,117.1z"/>
	<path class="st9" d="M65.9,132.6c-1.2-2.1-1.9-4.4-2.2-6.7c-3.4-0.6-6.3-2.7-7.8-5.8c-4.9,1.4-8.4,5.8-8.4,11.2
		c0,0.5,0,0.9,0.1,1.4L65.9,132.6L65.9,132.6L65.9,132.6z"/>
</g>
<path class="st7" d="M154.1,126.9c0.3,2,0.1,3.9-0.8,5.7h14.9c3.5-4.9,4.4-11.4,2.1-17.1c0-0.1-0.1-0.1-0.1-0.2
	c-0.1-0.1-0.1-0.1-0.2-0.1c-6.7-2.7-14.3-1.1-19.4,4c-0.4,0.4-0.7,0.8-1.1,1.2C151.9,121.7,153.6,124.1,154.1,126.9z"/>
<path class="st8" d="M153.3,132.6h3.2l5.2-5.2c1-1,1-2.7,0-3.7c-1-1-2.7-1-3.7,0l-3.8,3.9C154.4,129.3,154.1,131,153.3,132.6z"/>
<path class="st10" d="M107.5,107.6c-1.1-4.7-5-8.1-9.7-8.5c0-0.6-0.1-1.2-0.2-1.9c-1-5.9-6.7-9.9-12.7-8.9c-3.1,0.5-5.7,2.3-7.3,4.7
	c-2.3-1.7-5.3-2.6-8.4-2c-6,1-10,6.7-8.9,12.6c0.1,0.6,0.3,1.2,0.5,1.8c-4.4,2-7.1,6.8-6.2,11.8c0.8,4.7,4.5,8.2,9,8.9
	c-0.4-3-0.1-6.1,1.1-9c0,0,0-0.1,0.1-0.1c0,0,0,0,0.1,0c2.1-0.8,4.3-1.3,6.5-1.3c4.7,0,9.1,1.8,12.5,5.2c0.2,0.2,0.5,0.5,0.7,0.7
	c-0.2-1.2-0.3-2.4-0.3-3.7c0-0.9,0.7-1.5,1.5-1.5h18.3c0-0.2,0-0.5,0-0.7C104.1,112.6,105.4,109.7,107.5,107.6z"/>
<g>
	<path class="st7" d="M69.2,108.6C69.1,108.6,69.1,108.6,69.2,108.6c-1.5,0-2.7-1.2-2.6-2.7c0.1-4.5,3.8-8.2,8.3-8.2
		c0,0,0.1,0,0.1,0c2.3,0,4.5,1,6,2.7c1,1.1,0.9,2.7-0.2,3.7c-1.1,1-2.7,0.9-3.7-0.2c-0.6-0.6-1.4-1-2.2-1c-1.7,0-3.1,1.3-3.1,3
		C71.8,107.5,70.6,108.6,69.2,108.6z"/>
	<path class="st7" d="M83.6,113.1c-0.3,0-0.6-0.1-0.9-0.2c-1.4-0.5-2.1-2-1.5-3.4c1.5-3.9,5.9-6,9.8-4.5c2,0.7,3.6,2.2,4.4,4.2
		c0.6,1.3-0.1,2.9-1.4,3.4c-1.3,0.6-2.9-0.1-3.4-1.4c-0.3-0.6-0.7-1.1-1.4-1.3c-1.2-0.5-2.6,0.2-3.1,1.4
		C85.7,112.5,84.7,113.1,83.6,113.1z"/>
</g>
<path class="st10" d="M126.5,116.5L126.5,116.5C126.4,116.5,126.4,116.5,126.5,116.5l3.4,0.1c1,0,1.9,0.8,1.9,1.9
	c0,5.3-1.7,10.2-4.6,14.1h26.5c0.8-1.7,1.1-3.7,0.7-5.8c-0.8-4.5-4.5-7.8-8.9-8.1c0-0.6,0-1.1-0.1-1.7c-0.9-5.4-6-9-11.4-8
	c-2.8,0.5-5.1,2.1-6.6,4.3c-0.5-0.4-1-0.7-1.5-0.9c0.3,1.1,0.5,2.2,0.5,3.4C126.5,116,126.5,116.2,126.5,116.5z"/>
<path class="st11" d="M126.8,116.5c0-0.2,0-0.5,0-0.7c0-6.4-5.2-11.6-11.6-11.6c-6.4,0-11.6,5.2-11.6,11.6c0,0.2,0,0.5,0,0.7H126.8z
	"/>
<path class="st7" d="M84.1,120.7c-5.1-5.1-12.7-6.7-19.4-4c-0.1,0-0.1,0.1-0.2,0.1c-0.1,0.1-0.1,0.1-0.1,0.2
	c-2,5.2-1.6,10.8,1.1,15.5h23.8c-2.4-3.2-4-7-4.6-11.2C84.5,121.2,84.3,121,84.1,120.7z"/>
<path class="st8" d="M76.5,132.6h7.4l-7.3-7.3c-1-1-2.7-1-3.7,0c-1,1-1,2.7,0,3.7L76.5,132.6z"/>
<path class="st5" d="M127.4,132.6c3-4.1,4.9-9.1,4.9-14.5c0-1-0.8-1.9-1.9-1.9H85.8c-1,0-1.9,0.8-1.9,1.9c0,5.4,1.8,10.5,4.9,14.5
	H127.4z"/>
<g>
	<path class="st6" d="M110.8,132.6v-1.8c0-1.4-1.2-2.6-2.6-2.6s-2.6,1.2-2.6,2.6v1.8H110.8z"/>
	<path class="st6" d="M115.8,132.6h4.1c0.8-1,0.8-2.6-0.2-3.5l-2.5-2.6c-1-1-2.7-1-3.7,0c-1,1-1,2.7,0,3.7L115.8,132.6z"/>
	<path class="st6" d="M100.1,132.6l2.4-2.4c1-1,1-2.7,0-3.7c-1-1-2.7-1-3.7,0l-2.5,2.6c-1,1-1,2.5-0.2,3.5L100.1,132.6L100.1,132.6z
		"/>
	<path class="st6" d="M96.1,125.5h-3.6c-1.5,0-2.6-1.2-2.6-2.6c0-1.4,1.2-2.6,2.6-2.6h3.6c1.5,0,2.6,1.2,2.6,2.6
		C98.7,124.3,97.5,125.5,96.1,125.5z"/>
	<path class="st6" d="M123.7,125.5h-3.6c-1.4,0-2.6-1.2-2.6-2.6c0-1.4,1.2-2.6,2.6-2.6h3.6c1.5,0,2.6,1.2,2.6,2.6
		C126.3,124.3,125.2,125.5,123.7,125.5z"/>
</g>
<path class="st12" d="M44.9,150.7C45,150.7,45,150.7,44.9,150.7c0.2,0,0.2,0,0.3-0.1c0.1-0.1,0.1-0.2,0.1-0.3v-4.4
	c0-1.3,1-2.3,2.3-2.3c1.3,0,2.3,1,2.3,2.3v4.4c0,0.1,0.1,0.2,0.1,0.3c0.1,0,0.1,0.1,0.2,0.1c0,0,0.1,0,0.1,0c1.8-0.5,4-0.8,6.3-0.8
	c6.4,0,10.7,2.1,10.7,4c0,0.2-0.1,0.5-0.2,0.8c0,0.1-0.1,0.2,0,0.3c0,0.1,0.1,0.2,0.2,0.2c8.2,3.4,13.9,10.5,15.1,18.6
	c0,0.1,0.1,0.2,0.2,0.3c0.1,0,0.1,0,0.2,0c0,0,0.1,0,0.1,0l55.3-21c1.1-0.4,2.2-0.6,3.3-0.6c1.6,0,3.2,0.4,4.6,1.2
	c2.4,1.4,4.1,3.7,4.6,6.4l0.5,2.6c0,0.1,0.1,0.2,0.2,0.3c0,0,0.1,0,0.1,0c0.1,0,0.1,0,0.2,0l18.6-11c1.6-5.7,2.4-11.6,2.4-17.6
	c0-1-0.8-1.8-1.8-1.8H44.4c-1,0-1.8,0.8-1.8,1.8c0,5.6,0.7,11,2,16.3C44.7,150.6,44.8,150.7,44.9,150.7z"/>
<path class="st4" d="M44.9,150.7C45,150.7,45,150.7,44.9,150.7c0.2,0,0.2,0,0.3-0.1c0.1-0.1,0.1-0.2,0.1-0.3v-4.4
	c0-1.3,1-2.3,2.3-2.3c1.3,0,2.3,1,2.3,2.3v4.4c0,0.1,0.1,0.2,0.1,0.3c0.1,0,0.1,0.1,0.2,0.1c0,0,0.1,0,0.1,0
	c1.6-0.4,3.4-0.7,5.3-0.8c-1.2-5.1-1.9-10.3-1.9-15.6c0-1,0.8-1.8,1.8-1.8H44.4c-1,0-1.8,0.8-1.8,1.8c0,5.6,0.7,11,2,16.3
	C44.7,150.6,44.8,150.7,44.9,150.7z"/>
<path class="st7" d="M47.7,151.9c0.7-0.4,1.6-0.8,2.6-1v-5c0-1.4-1.2-2.6-2.6-2.6c-1.5,0-2.6,1.2-2.6,2.6v5
	C46.1,151.2,46.9,151.5,47.7,151.9z"/>
<path class="st5" d="M74.5,200.6l-9.5,0h0c-4.5,0-8.4-3.2-9.2-7.6l-0.1-0.5c-0.8-4.4,1.6-8.8,5.9-10.4l21.2-8
	c-1.1-8.7-7.2-16-15.7-19.4c-0.8,1.4-3.6,2.6-7.3,3c-0.1,0-0.3,0.1-0.3,0.3c0,0.1,0,0.3,0.1,0.4c1.9,1.5,3.1,3.1,3.2,4.3
	c0,0.4-0.1,0.8-0.3,1c-0.4,0.5-1.3,0.8-2.5,0.8c0,0,0,0,0,0c-2.4,0-5.6-1-8.5-2.6c-1.3-0.7-2.5-1.5-3.5-2.4
	c-0.1-0.1-0.1-0.1-0.2-0.1c-0.1,0-0.2,0-0.2,0.1c-1,0.8-2.2,1.6-3.5,2.4c-3,1.7-6.2,2.6-8.5,2.6c-1.2,0-2.1-0.3-2.5-0.8
	c-0.3-0.3-0.4-0.6-0.3-1c0.1-1.2,1.3-2.8,3.2-4.3c0.1-0.1,0.2-0.2,0.1-0.4c0-0.1-0.2-0.2-0.3-0.3c-3.7-0.4-6.5-1.6-7.3-3
	c-9.3,3.7-15.9,12.2-15.9,22.2c0,13.3,11.8,24.1,26.3,24.1h36.4C75.4,201,75.1,200.9,74.5,200.6z"/>
<path class="st4" d="M23.8,176.9c0-7.9,4.1-14.9,10.6-19.3c-3-0.5-5.3-1.6-6.1-2.8c-9.3,3.7-15.9,12.2-15.9,22.2
	c0,13.3,11.8,24.1,26.3,24.1H50C35.5,201,23.8,190.2,23.8,176.9z"/>
<path class="st10" d="M67.7,153.9c0-2.4-4.9-4.3-11-4.3c-3.7,0-7,0.7-9,1.8c-2-1.1-5.3-1.8-9-1.8c-6.1,0-11,1.9-11,4.3
	c0,2,3.3,3.6,7.9,4.2c-2.8,2.2-4.1,4.6-2.9,5.8c1.5,1.7,6.7,0.9,11.5-1.8c1.4-0.8,2.6-1.6,3.5-2.4c1,0.8,2.2,1.7,3.5,2.4
	c4.9,2.7,10,3.5,11.5,1.8c1.1-1.3-0.1-3.6-2.9-5.8C64.3,157.5,67.7,155.9,67.7,153.9z"/>
<path class="st7" d="M191.6,169.4l-0.7-3.8c-0.2-1.3-1.5-2.2-2.8-1.9l-27.2,5l17.4-11.6c0.8-0.6,1.2-1.5,1-2.4
	c0-0.3-0.1-0.5-0.3-0.7l-2-3.5c-0.3-0.6-0.9-1-1.5-1.1c-0.6-0.2-1.3-0.1-1.9,0.3L151,162.8l4.3,23.1l25.9,4.7c0.6,0.1,1.3,0,1.8-0.4
	c0.5-0.4,0.9-1,1-1.6l0.6-3.9c0-0.3,0-0.5,0-0.8c-0.2-0.9-0.9-1.7-1.8-1.9l-20.4-4.7l27.2-5C190.9,172,191.8,170.7,191.6,169.4z"/>
<path class="st11" d="M55.5,193.1c0.8,4.6,4.9,7.9,9.5,7.9l81.9,0c2.9,0,5.6-1.3,7.5-3.5c1.8-2.2,2.6-5.1,2.1-7.9L151,160
	c-0.5-2.8-2.3-5.3-4.8-6.7c-2.5-1.4-5.5-1.6-8.2-0.6l-76.5,29.1c-4.4,1.7-6.9,6.2-6.1,10.8L55.5,193.1z"/>
<g class="st2">
	<path d="M55.5,193.1c0.1,0.7,0.3,1.4,0.6,2c1.1-2,2.9-3.6,5.2-4.5l79.9-30.4c2.8-1.1,6-0.8,8.6,0.6c0.6,0.3,1.1,0.7,1.5,1.1
		L151,160c-0.5-2.8-2.3-5.3-4.8-6.7c-2.5-1.4-5.5-1.6-8.2-0.6l-76.5,29.1c-4.4,1.7-6.9,6.2-6.1,10.8L55.5,193.1z"/>
</g>
<g>
	<path class="st9" d="M142.2,188.7c-0.3-1.4-1.7-2.4-3.1-2.1c-1.4,0.3-2.4,1.6-2.1,3.1l2.2,11.3l5.3,0L142.2,188.7z"/>
	<path class="st9" d="M128,191.8c-0.3-1.4-1.6-2.4-3.1-2.1c-1.4,0.3-2.4,1.6-2.1,3.1l1.5,8.2l5.3,0L128,191.8z"/>
	<path class="st9" d="M114.1,172c0.3,1.2,1.4,2,2.5,2c0.2,0,0.4,0,0.6-0.1c1.4-0.4,2.3-1.8,1.9-3.2l-2.5-9.9l-4.9,1.9L114.1,172z"/>
	<path class="st9" d="M100.4,189.5c-0.3-1.4-1.6-2.4-3-2.1c-1.4,0.3-2.4,1.6-2.1,3l1.9,10.5l5.3,0L100.4,189.5z"/>
	<path class="st9" d="M73.9,184.6c0.3,1.2,1.4,2.1,2.6,2.1c0.2,0,0.4,0,0.5-0.1c1.4-0.3,2.3-1.7,2-3.1l-1.6-7.8l-5,1.9L73.9,184.6z"
		/>
</g>
</svg>
