<?xml version="1.0" encoding="utf-8"?>
<!-- Generator: Adobe Illustrator 19.2.0, SVG Export Plug-In . SVG Version: 6.00 Build 0)  -->
<svg version="1.1" id="Layer_1" xmlns="http://www.w3.org/2000/svg" xmlns:xlink="http://www.w3.org/1999/xlink" x="0px" y="0px"
	 viewBox="0 0 200 200" style="enable-background:new 0 0 200 200;" xml:space="preserve">
<style type="text/css">
	.st0{fill:#8C461F;}
	.st1{fill:#713B18;}
	.st2{fill:#FAA834;}
	.st3{fill:#F89928;}
	.st4{fill:#FEDF82;}
	.st5{fill:#BF6228;}
	.st6{fill:#994E23;}
	.st7{fill:#FFDBAB;}
	.st8{fill:#B5732D;}
	.st9{fill:#A9D26B;}
	.st10{fill:#66BC46;}
	.st11{fill:#EFCEB2;}
</style>
<g id="Layer_72">
	<g>
		<path class="st0" d="M64.5,98.4c-3.1-3.1-4.9-7.3-4.9-11.9v-0.2c0-4.9,2.1-9.5,5.7-12.7s8.5-4.7,13.3-4c8.4,1.1,15.7,1.2,23.1,0.2
			c4.8-0.6,9.7,0.9,13.3,4.1c3.6,3.2,5.7,7.8,5.7,12.6c0,8.3-6,15.3-14.2,16.6c-10.9,1.7-21.9,1.7-32.7,0
			C70.2,102.5,66.9,100.8,64.5,98.4z"/>
		<path class="st0" d="M90.8,76.7c-5.5,0-10.9-0.4-16.4-1.3c-8.2-1.3-14.2-8.3-14.2-16.6v-0.3c0-4.9,2.1-9.5,5.7-12.7
			c3.6-3.2,8.5-4.7,13.3-4C87.6,42.9,95,43,102.4,42c4.8-0.6,9.7,0.9,13.3,4.1c3.6,3.2,5.7,7.8,5.7,12.6c0,8.3-6,15.3-14.2,16.6
			C101.8,76.3,96.3,76.7,90.8,76.7z"/>
	</g>
	<path class="st0" d="M145.9,200.3H69.1v-5.8c0-8.4-6.9-15.3-15.3-15.3V169h107.4v10.2c-8.4,0-15.3,6.9-15.3,15.3V200.3z"/>
	<path class="st1" d="M105.5,200.3h38.4v-5.8c0-8.4,6.9-15.3,15.3-15.3V169h-53.7V200.3z"/>
	<path class="st2" d="M50.5,105.5c-4.3,0-8.6-1.7-11.9-5l-0.2-0.2c-3.4-3.4-5.2-8.2-4.9-13S36.2,78,40.1,75
		c6.7-5.1,11.9-10.3,16.5-16.2c3-3.8,7.5-6.2,12.3-6.5s9.5,1.5,13,4.9c5.9,5.9,6.6,15.1,1.7,21.8c-6.5,8.9-14.2,16.7-23.1,23.1
		C57.5,104.4,54,105.5,50.5,105.5z"/>
	<path class="st3" d="M138.1,105.5c-5.5,0-10.9-0.4-16.4-1.3c-8.3-1.3-14.2-8.3-14.2-16.6v-0.3c0-4.9,2.1-9.5,5.7-12.7
		s8.5-4.7,13.3-4c8.4,1.1,15.7,1.2,23.1,0.2c4.8-0.6,9.7,0.9,13.3,4.1s5.7,7.8,5.7,12.6c0,8.3-6,15.3-14.2,16.6
		C149,105.1,143.6,105.5,138.1,105.5z"/>
	<path class="st4" d="M142,79.7c-3.5,0-6.9-1.1-9.9-3.2c-8.9-6.5-16.7-14.2-23.1-23.1c-4.9-6.8-4.2-15.9,1.7-21.8l0.2-0.2
		c3.4-3.4,8.2-5.2,13-4.9c4.8,0.3,9.3,2.7,12.3,6.6c5.1,6.7,10.3,11.9,16.2,16.5c3.8,3,6.2,7.5,6.5,12.3s-1.5,9.5-4.9,13
		C150.6,78,146.3,79.7,142,79.7z"/>
	<path class="st5" d="M155.4,179.8H59.6c-21.6,0-39.1-17.5-39.1-39.1V95.1h174.1v45.6C194.5,162.2,177,179.8,155.4,179.8z"/>
	<path class="st6" d="M107.5,95.1v84.6h47.9c21.6,0,39.1-17.5,39.1-39.1V95.1H107.5z"/>
	<path class="st7" d="M105.5,95.4c-5.5,0-10.9-0.4-16.4-1.3c-8.2-1.3-14.2-8.3-14.2-16.6v-0.3c0-4.9,2.1-9.5,5.7-12.7
		c3.6-3.2,8.5-4.7,13.3-4c8.4,1.1,15.7,1.2,23.1,0.2c4.8-0.6,9.7,0.9,13.3,4.1c3.6,3.2,5.7,7.8,5.7,12.6c0,8.3-6,15.3-14.2,16.6
		C116.4,94.9,110.9,95.4,105.5,95.4z"/>
</g>
<g id="Layer_71">
	<path class="st8" d="M46.8,200c-1.5,0-2.9-1-3.2-2.6c-5.6-23.9-5-47.6,1.7-70.5c5.3-18.2,14.6-35.9,27.4-52.5
		c21.8-28.3,46.2-43.6,47.3-44.2c1.5-1,3.6-0.5,4.5,1.1c1,1.5,0.5,3.6-1.1,4.5l0,0C123.3,36,99,51.2,77.9,78.6
		C49.8,115.1,40.4,154.5,50.1,196c0.4,1.8-0.7,3.5-2.5,4C47.3,200,47.1,200,46.8,200z"/>
	<path class="st9" d="M46.5,127.6c-6.2,6.4-16.3,6.7-26.5-3.1c-5.5-5.3-10.4-16.7-13.7-25.9c-0.9-2.7-1.8-5.1-2.4-7.2
		c-0.9-3,1.8-5.9,4.8-5c4.4,1.2,10.3,3,16.1,5.2c6.9,2.7,13.7,5.9,17.6,9.7C52.5,111,52.6,121.1,46.5,127.6z"/>
	<g>
		<path class="st10" d="M46.5,127.6c-6.2,6.4-16.3,6.7-26.5-3.1c-5.5-5.3-10.4-16.7-13.7-25.9c2-0.4,4.1-0.8,6.4-1
			c5-0.5,8.7-3,12.2-6.1c6.9,2.7,13.7,5.9,17.6,9.7C52.5,111,52.6,121.1,46.5,127.6z"/>
		<path class="st10" d="M48.7,124.5c-0.6,1.1-1.4,2.1-2.3,3c-6.2,6.4-16.3,6.7-26.5-3.1c-7.1-6.9-13.2-23.7-16.2-33.1
			c-0.9-3,1.8-5.9,4.8-5c0.2,0,0.4,0.1,0.6,0.2c3,9.6,9,25.8,16,32.6C33.9,127.4,42.5,128.4,48.7,124.5z"/>
	</g>
	<path class="st9" d="M66,87.7c-0.7,2.8-2.4,5.3-4.8,7.1c-6.2,4.7-15.1,3.6-22.6-6.3c-1.3-1.8-2.5-4.1-3.6-6.7
		c-3.1-7.6-5-17.8-6-24.3c-0.4-2.7,2.4-4.8,4.9-3.7c8,3.6,22,10.6,27.3,17.5C65.9,77.4,67.2,83.1,66,87.7z"/>
	<g>
		<path class="st10" d="M66,87.7c-0.7,2.8-2.4,5.3-4.8,7.1c-6.2,4.7-15.1,3.6-22.6-6.3c-1.3-1.8-2.5-4.1-3.6-6.7
			c3-2.3,6.4-3.9,10.5-3.9c0.4,0,0.8,0,1.2,0c7.2,0.6,10.7,3.4,13.8,6C62.1,85.1,63.7,86.4,66,87.7z"/>
		<path class="st10" d="M63.7,92.4c-0.7,0.9-1.5,1.6-2.4,2.3c-6.2,4.8-15.1,3.6-22.6-6.3c-5.3-6.9-8.3-22.3-9.6-31
			c-0.4-2.7,2.4-4.9,4.9-3.7c0.2,0.1,0.3,0.1,0.5,0.2c1.4,8.7,4.3,23.7,9.5,30.5C50.4,92.9,57.8,95,63.7,92.4z"/>
	</g>
	<path class="st9" d="M83.5,49.6c4.5,9.9,1.8,17.2-4.5,20.1c-6.2,2.9-13.6,0.2-18.1-9.7c-3.2-6.9-2.8-20.7-2.3-28.3
		c0.2-2.4,2.9-3.7,4.9-2.2C69.6,34,80.3,42.7,83.5,49.6z"/>
	<path class="st10" d="M81.5,68.1c-0.7,0.6-1.6,1.1-2.5,1.5c-6.2,2.9-13.6,0.2-18.1-9.7c-3.2-6.9-2.8-20.7-2.3-28.3
		c0.2-2.4,2.9-3.7,4.9-2.2c0.1,0.1,0.2,0.2,0.4,0.3c-0.5,7.7-0.8,21,2.3,27.8C70.1,66,76,69.2,81.5,68.1z"/>
	<path class="st9" d="M106.6,35c2.4,8.8-0.9,14.4-6.5,15.9c-5.5,1.5-11.2-1.7-13.6-10.5c-1.7-6.2,0.6-17.4,2.1-23.6
		c0.5-2,2.9-2.6,4.3-1.2C97.3,20.2,104.9,28.9,106.6,35z"/>
	<path class="st10" d="M102.5,49.9c-0.8,0.5-1.6,0.8-2.5,1c-5.5,1.5-11.2-1.7-13.6-10.5C84.7,34.2,87,23,88.5,16.8
		c0.5-2,2.9-2.6,4.3-1.2c0.4,0.4,0.7,0.8,1.1,1.2c-1.5,6.4-3.3,16.5-1.8,22.2C94.2,46.1,98.2,49.6,102.5,49.9z"/>
	<path class="st9" d="M70,113.8c-14.1-0.1-21.3,7.1-21.4,16c0,8.9,7.1,16.2,21.2,16.3c9.9,0,25.9-7.8,34.7-12.5c2.8-1.5,2.8-5.5,0-7
		C95.8,121.8,79.9,113.8,70,113.8z"/>
	<path class="st10" d="M49.1,126.1c-0.3,1.2-0.5,2.5-0.5,3.8c0,8.9,7.1,16.2,21.2,16.3c9.9,0,25.9-7.8,34.7-12.5
		c2.8-1.5,2.8-5.5,0-7c-0.2-0.1-0.3-0.2-0.5-0.3c-8.8,4.7-24.5,12.3-34.2,12.2C57.8,138.5,50.8,133.2,49.1,126.1z"/>
	<path class="st9" d="M112.4,105.6c-2.2,1-4.9,2.3-7.9,3.5c-7.6,3.1-16.9,6.2-23.1,5.9c-12.4-0.7-18.3-7.4-17.9-15.3
		c0.2-4.3,2.3-8,6.2-10.4c3.2-2,7.7-3,13.3-2.7c8.7,0.5,22.3,8.3,29.7,12.9C115.1,101,114.9,104.4,112.4,105.6z"/>
	<g>
		<path class="st10" d="M104.5,109.1c-7.6,3.1-16.9,6.2-23.1,5.9c-12.4-0.7-18.3-7.4-17.9-15.3c0.2-4.3,2.3-8,6.2-10.4
			c0.9,0.4,1.9,0.7,3.1,1.1c12.3,3.8,22.9,7.5,29.1,14.8C102.8,106.4,103.7,107.7,104.5,109.1z"/>
		<path class="st10" d="M64.1,96.4c-0.3,1-0.5,2.1-0.6,3.3c-0.4,7.8,5.4,14.5,17.9,15.3c8.7,0.5,23.1-5.6,31-9.4
			c2.5-1.2,2.7-4.7,0.4-6.1c-0.1-0.1-0.3-0.2-0.4-0.3c-8,3.7-22,9.6-30.6,9.1C71.1,107.8,65.3,102.8,64.1,96.4z"/>
	</g>
	<path class="st9" d="M99.1,62.1c-10.9,0.1-16.3,5.7-16.3,12.6c0.1,6.9,5.6,12.4,16.5,12.3c7.6-0.1,19.9-6.3,26.6-10
		c2.1-1.2,2.1-4.2,0-5.4C119.1,68,106.7,62,99.1,62.1z"/>
	<path class="st10" d="M83.2,71.7c-0.2,0.9-0.3,1.9-0.3,2.9C83,81.5,88.5,87,99.4,86.9c7.6-0.1,19.9-6.3,26.6-10
		c2.1-1.2,2.1-4.2,0-5.4c-0.1-0.1-0.3-0.1-0.4-0.2C118.8,75,106.9,81,99.4,81C90,81.2,84.6,77.2,83.2,71.7z"/>
	<path class="st9" d="M118.8,42.1C109.7,42,105,46.6,105,52.3c-0.1,5.7,4.4,10.5,13.6,10.6C125,63,135.4,58,141,55.1
		c1.8-0.9,1.8-3.5,0.1-4.5C135.4,47.4,125.2,42.2,118.8,42.1z"/>
	<path class="st10" d="M105.4,49.6c-0.3,0.8-0.4,1.7-0.4,2.7c-0.1,5.7,4.4,10.5,13.6,10.6C125,63,135.4,58,141,55.1
		c1.8-0.9,1.8-3.5,0.1-4.5c-0.5-0.3-0.9-0.5-1.5-0.8c-5.8,3-15.2,7.3-21.1,7.2C111.1,56.8,106.8,53.8,105.4,49.6z"/>
	<path class="st9" d="M128.1,2.3c0.3,3.5,0.6,8.6,0.4,13.4c-0.2,3.9-0.7,7.7-1.8,10.3c-2.8,6.5-7.1,9.4-11.4,9.3
		c-1.2,0-2.4-0.3-3.6-0.8c-5.3-2.3-7.7-8.3-4.1-16.7C110.2,11.9,119,4.5,124,0.5C125.6-0.7,128,0.3,128.1,2.3z"/>
	<g>
		<path class="st10" d="M128.6,15.7c-0.2,3.9-0.7,7.7-1.8,10.3c-2.8,6.5-7.1,9.4-11.4,9.3C114.7,28.4,118.2,20.4,128.6,15.7z"/>
		<path class="st10" d="M114.4,35.2c-0.9-0.1-1.7-0.4-2.6-0.7c-5.3-2.3-7.7-8.3-4.1-16.7C110.2,11.9,119,4.5,124,0.5
			c1.6-1.2,3.9-0.2,4.1,1.8c0,0.5,0.1,1.1,0.1,1.7c-5.1,4.1-12.8,10.9-15.2,16.3C110.2,27,111.2,32.2,114.4,35.2z"/>
	</g>
	<path class="st9" d="M131.7,22.4c-8.3,3.8-10.6,9.9-8.2,15.1s8.5,7.6,16.8,3.8c5.8-2.6,13.1-11.5,17-16.6c1.2-1.6,0.2-3.9-1.9-4.1
		C149,20.1,137.5,19.7,131.7,22.4z"/>
	<path class="st10" d="M122.7,34.9c0.1,0.9,0.4,1.7,0.8,2.6c2.4,5.2,8.5,7.6,16.8,3.8c5.8-2.6,13.1-11.5,17-16.6
		c1.2-1.6,0.2-3.9-1.9-4.1c-0.5,0-1.1-0.1-1.7-0.1c-4,5.2-10.7,13-16.1,15.5C131,39,125.7,38.1,122.7,34.9z"/>
	<g>
		<path class="st11" d="M65.1,109.3c-1.8,0-3.3-1.5-3.3-3.3v-0.4c0-1.8,1.5-3.3,3.3-3.3c1.8,0,3.3,1.5,3.3,3.3v0.4
			C68.4,107.8,67,109.3,65.1,109.3z"/>
		<path class="st11" d="M54.2,110.2c-1.8,0-3.3-1.5-3.3-3.3v-0.4c0-1.8,1.5-3.3,3.3-3.3s3.3,1.5,3.3,3.3v0.4
			C57.5,108.7,56,110.2,54.2,110.2z"/>
		<path class="st11" d="M46.2,100.8c-1.8,0-3.3-1.5-3.3-3.3v-0.4c0-1.8,1.5-3.3,3.3-3.3s3.3,1.5,3.3,3.3v0.4
			C49.5,99.3,48,100.8,46.2,100.8z"/>
		<path class="st11" d="M37.1,111c-1.8,0-3.3-1.5-3.3-3.3v-0.4c0-1.8,1.5-3.3,3.3-3.3s3.3,1.5,3.3,3.3v0.4
			C40.4,109.5,38.9,111,37.1,111z"/>
	</g>
</g>
</svg>
