<?xml version="1.0" encoding="utf-8"?>
<!-- Generator: Adobe Illustrator 19.2.0, SVG Export Plug-In . SVG Version: 6.00 Build 0)  -->
<svg version="1.1" id="Layer_1" xmlns="http://www.w3.org/2000/svg" xmlns:xlink="http://www.w3.org/1999/xlink" x="0px" y="0px"
	 viewBox="0 0 200 200" style="enable-background:new 0 0 200 200;" xml:space="preserve">
<style type="text/css">
	.st0{fill:#D3D5D7;}
	.st1{fill:#E6E6E5;}
	.st2{fill:#DBB57A;}
	.st3{fill:#FBD490;}
	.st4{fill:#A5703E;}
	.st5{fill:#4D322D;}
	.st6{fill:#F15D59;}
	.st7{fill:#FFFFFF;}
	.st8{fill:#88C057;}
	.st9{fill:#85BD94;}
	.st10{fill:#402E21;}
	.st11{fill:#EB9E2C;}
	.st12{fill:#DA922A;}
	.st13{fill:#F3AF3F;}
	.st14{fill:#CECECD;}
	.st15{fill:#D9D9D8;}
	.st16{fill:#A66545;}
	.st17{fill:#5F866A;}
	.st18{fill:#BABABA;}
</style>
<g id="Layer_86">
	<g>
		<path class="st0" d="M125.7,162.8H4.5c-2.5,0-4.5-2-4.5-4.5l0,0c0-2.5,2-4.5,4.5-4.5h121.2c2.5,0,4.5,2,4.5,4.5l0,0
			C130.2,160.8,128.2,162.8,125.7,162.8z"/>
		<path class="st1" d="M5.5,162.8c6.7,10.4,34.9,22.9,34.9,38.2h24.7h24.7c0-15.3,28.2-27.8,34.9-38.2H5.5z"/>
		<path class="st2" d="M20.2,149.4c-1.2,0-2.2-1-2.2-2.2c0-13.6,11.1-24.7,24.7-24.7h4.5c1.2,0,2.2,1,2.2,2.2s-1,2.2-2.2,2.2h-4.5
			c-11.1,0-20.2,9.1-20.2,20.2C22.5,148.4,21.4,149.4,20.2,149.4z"/>
		<path class="st2" d="M33.7,149.4c-1.2,0-2.2-1-2.2-2.2c0-6.2,5-11.2,11.2-11.2h11.2c1.2,0,2.2,1,2.2,2.2s-1,2.2-2.2,2.2H42.7
			c-3.7,0-6.7,3-6.7,6.7C35.9,148.4,34.9,149.4,33.7,149.4z"/>
		<path class="st3" d="M26.9,149.4c-1.2,0-2.2-1-2.2-2.2c0-9.9,8.1-18,18-18h9c1.2,0,2.2,1,2.2,2.2s-1,2.2-2.2,2.2h-9
			c-7.4,0-13.5,6-13.5,13.5C29.2,148.4,28.2,149.4,26.9,149.4z"/>
		<path class="st3" d="M53.9,147.1H42.7c-1.2,0-2.2-1-2.2-2.2s1-2.2,2.2-2.2h11.2c1.2,0,2.2,1,2.2,2.2S55.1,147.1,53.9,147.1z"/>
		<path class="st3" d="M107.8,149.4c-1.2,0-2.2-1-2.2-2.2c0-11.1-9.1-20.2-20.2-20.2H69.6c-1.2,0-2.2-1-2.2-2.2s1-2.2,2.2-2.2h15.7
			c13.6,0,24.7,11.1,24.7,24.7C110,148.4,109,149.4,107.8,149.4z"/>
		<path class="st3" d="M94.3,149.4c-1.2,0-2.2-1-2.2-2.2c0-3.7-3-6.7-6.7-6.7H74.1c-1.2,0-2.2-1-2.2-2.2s1-2.2,2.2-2.2h11.2
			c6.2,0,11.2,5,11.2,11.2C96.5,148.4,95.5,149.4,94.3,149.4z"/>
		<path class="st2" d="M101,149.4c-1.2,0-2.2-1-2.2-2.2c0-7.4-6-13.5-13.5-13.5H71.8c-1.2,0-2.2-1-2.2-2.2s1-2.2,2.2-2.2h13.5
			c9.9,0,18,8.1,18,18C103.3,148.4,102.3,149.4,101,149.4z"/>
		<path class="st2" d="M85.3,147.1H74.1c-1.2,0-2.2-1-2.2-2.2s1-2.2,2.2-2.2h11.2c1.2,0,2.2,1,2.2,2.2S86.6,147.1,85.3,147.1z"/>
		<path class="st3" d="M60.6,149.4c-1.2,0-2.2-1-2.2-2.2c0-19.6-5.9-29.2-18-29.2c-1.2,0-2.2,1-2.2,2.2s-1,2.2-2.2,2.2
			s-2.2-1-2.2-2.2c0-3.7,3-6.7,6.7-6.7c10.2,0,22.5,5.8,22.5,33.7C62.9,148.4,61.9,149.4,60.6,149.4z"/>
		<path class="st2" d="M67.4,149.4c-1.2,0-2.2-1-2.2-2.2c0-10.8-2.4-35.9-24.7-35.9c-6.2,0-11.2,5-11.2,11.2v2.2
			c0,1.2-1,2.2-2.2,2.2s-2.2-1-2.2-2.2v-2.2c0-8.7,7.1-15.7,15.7-15.7c18.3,0,29.2,15.1,29.2,40.4C69.6,148.4,68.6,149.4,67.4,149.4
			z"/>
		<circle class="st4" cx="57.3" cy="96.6" r="10.1"/>
		<circle class="st4" cx="97.7" cy="112.3" r="10.1"/>
		<circle class="st5" cx="75.2" cy="110.1" r="10.1"/>
		<circle class="st5" cx="88.7" cy="92.1" r="10.1"/>
		<path class="st6" d="M92.9,192H37.3c1,1.5,1.8,3,2.3,4.5h51C91.2,195,91.9,193.5,92.9,192z"/>
		<path class="st7" d="M92.9,192c1-1.5,2.2-3,3.6-4.5H33.7c1.4,1.5,2.6,3,3.6,4.5H92.9z"/>
		<path class="st8" d="M29,183c1.7,1.5,3.3,3,4.7,4.5h62.8c1.4-1.5,3-3,4.7-4.5H29z"/>
	</g>
</g>
<g id="Layer_87">
	<g>
		<g>
			<path class="st9" d="M64.8,160.9c-0.1-0.3-0.2-0.6-0.3-0.8C64.6,160.3,64.7,160.6,64.8,160.9z"/>
			<path class="st9" d="M62.8,151.6c0-0.3-0.1-0.6-0.1-0.9C62.7,151,62.7,151.3,62.8,151.6z"/>
			<path class="st9" d="M67.1,166.7c-0.1-0.3-0.3-0.5-0.4-0.8C66.8,166.2,66.9,166.4,67.1,166.7z"/>
			<path class="st9" d="M63.9,157.9c0-0.2-0.1-0.4-0.1-0.6C63.8,157.5,63.9,157.7,63.9,157.9z"/>
			<path class="st9" d="M63.2,154.6c0-0.2-0.1-0.5-0.1-0.7C63.1,154.1,63.2,154.3,63.2,154.6z"/>
			<path class="st9" d="M72.9,175.3c0.2,0.2,0.4,0.5,0.6,0.7C73.3,175.7,73.1,175.5,72.9,175.3z"/>
			<path class="st9" d="M65.7,163.5c-0.1-0.2-0.1-0.4-0.2-0.6C65.5,163.1,65.6,163.3,65.7,163.5z"/>
			<path class="st9" d="M75.8,178.2c-0.2-0.2-0.4-0.4-0.6-0.6C75.4,177.8,75.6,178,75.8,178.2z"/>
			<path class="st9" d="M67.7,153.1c0.5,10.2,3.6,19.3,8.9,26c3.2,2.7,6.9,4.7,11.1,6.5h35.8c13.6-5.7,22.5-16.6,24.7-32.5H67.7
				L67.7,153.1z M87.3,177.6c-0.5,0.8-1.4,1.3-2.3,1.3c-0.5,0-1-0.1-1.4-0.4c-7.4-4.6-12.6-12-14.8-21.3c-0.3-1.4,0.5-2.9,2-3.2
				c1.4-0.3,2.9,0.5,3.2,2c1.9,8,6.2,14.2,12.5,18C87.7,174.7,88.1,176.4,87.3,177.6z"/>
			<path class="st9" d="M148.3,151.9c0-0.4,0.1-0.8,0.1-1.1C148.4,151.1,148.3,151.5,148.3,151.9z"/>
			<path class="st9" d="M70,171.6c-0.1-0.2-0.3-0.4-0.4-0.6C69.7,171.2,69.8,171.4,70,171.6z"/>
			<path class="st9" d="M68.4,169.1c-0.2-0.3-0.3-0.5-0.4-0.8C68.1,168.6,68.2,168.8,68.4,169.1z"/>
			<path class="st9" d="M71.8,174c-0.2-0.2-0.4-0.5-0.6-0.8C71.4,173.5,71.6,173.8,71.8,174z"/>
		</g>
		<rect x="95.5" y="189.9" class="st9" width="25.4" height="3.9"/>
		<path class="st10" d="M91.8,120.4c0,4.9,2.4,7.4,4.4,9.5c1.7,1.8,2.9,3,2.9,5.8c0,1.5,1.2,2.7,2.7,2.7s2.7-1.2,2.7-2.7
			c0-4.9-2.4-7.4-4.4-9.5c-1.7-1.8-2.9-3-2.9-5.8c0-2.7,1.2-4,2.9-5.8c1.9-2,4.4-4.6,4.4-9.5s-2.4-7.4-4.4-9.5
			c-1.7-1.8-2.9-3-2.9-5.8c0-2.7,1.2-4,2.9-5.8c1.9-2,4.4-4.6,4.4-9.5c0-1.5-1.2-2.7-2.7-2.7s-2.7,1.2-2.7,2.7c0,2.7-1.2,4-2.9,5.8
			c-1.9,2-4.4,4.6-4.4,9.5s2.4,7.4,4.4,9.5c1.7,1.8,2.9,3,2.9,5.8c0,2.7-1.2,4-2.9,5.8C94.2,113,91.8,115.5,91.8,120.4z"/>
		<path class="st10" d="M105.4,117.4c0,4.9,2.4,7.4,4.4,9.5c1.7,1.8,2.9,3,2.9,5.8c0,1.5,1.2,2.7,2.7,2.7s2.7-1.2,2.7-2.7
			c0-4.9-2.4-7.4-4.4-9.5c-1.7-1.8-2.9-3-2.9-5.8c0-2.7,1.2-4,2.9-5.8c1.9-2,4.4-4.6,4.4-9.5s-2.4-7.4-4.4-9.5
			c-1.7-1.8-2.9-3-2.9-5.8c0-2.7,1.2-4,2.9-5.8c1.9-2,4.4-4.6,4.4-9.5c0-1.5-1.2-2.7-2.7-2.7s-2.7,1.2-2.7,2.7c0,2.7-1.2,4-2.9,5.8
			c-1.9,2-4.4,4.6-4.4,9.5s2.4,7.4,4.4,9.5c1.7,1.8,2.9,3,2.9,5.8c0,2.7-1.2,4-2.9,5.8C107.8,110,105.4,112.5,105.4,117.4z"/>
		<path class="st10" d="M86.4,174c-6.2-3.9-10.5-10.1-12.5-18c-0.3-1.4-1.8-2.3-3.2-2c-1.4,0.3-2.3,1.8-2,3.2
			c2.3,9.3,7.4,16.7,14.8,21.3c0.4,0.3,0.9,0.4,1.4,0.4c0.9,0,1.8-0.4,2.3-1.3C88.1,176.4,87.7,174.7,86.4,174z"/>
		<path class="st10" d="M151.4,142.4H59.7c-1.5,0-2.7,1.2-2.7,2.7c0,10.5,2.6,20.1,7.4,27.9c4.8,7.7,11.8,13.5,20.3,16.7v6.3
			c0,1.5,1.2,2.7,2.7,2.7h36.3c1.5,0,2.7-1.2,2.7-2.7v-6.3c8.5-3.2,15.5-9,20.3-16.7c4.8-7.8,7.4-17.4,7.4-27.9
			C154,143.6,152.8,142.4,151.4,142.4z M90.1,193.3v-2.9H121v2.9H90.1z M87.7,185.1c-15.1-5.3-24.4-19.1-25.2-37.4h86.2
			c-0.8,18.3-10.1,32.1-25.2,37.4H87.7z"/>
	</g>
</g>
<g id="Layer_88">
	<path class="st11" d="M178.7,174.4h-37.4c-0.9,0-1.6-0.7-1.7-1.6c0-0.6-0.1-1.2-0.1-1.9c0-11.3,9.2-20.5,20.5-20.5
		s20.5,9.2,20.5,20.5c0,0.6,0,1.3-0.1,1.9C180.3,173.7,179.6,174.4,178.7,174.4z"/>
	<path class="st12" d="M170.1,174.4h-20.2c-0.8,0-1.5-0.6-1.7-1.4c-1.1-6.5,3.2-12.7,9.7-13.8s12.7,3.2,13.8,9.7
		c0.2,1.4,0.2,2.7,0,4.1C171.6,173.8,170.9,174.4,170.1,174.4z M151.4,171h17.1c0-4.7-3.8-8.5-8.5-8.5
		C155.3,162.4,151.4,166.2,151.4,171z"/>
	<path class="st13" d="M199.2,188h-37.4c-0.9,0-1.6-0.7-1.7-1.6c0-0.6-0.1-1.2-0.1-1.9c0-11.3,9.2-20.5,20.5-20.5
		s20.5,9.2,20.5,20.5c0,0.6,0,1.2-0.1,1.9C200.8,187.4,200.1,188,199.2,188L199.2,188z"/>
	<path class="st12" d="M190.6,188h-20.2c-0.8,0-1.5-0.6-1.7-1.4c-1.1-6.5,3.2-12.7,9.7-13.8s12.7,3.2,13.8,9.7
		c0.2,1.4,0.2,2.7,0,4.1C192.1,187.4,191.4,188,190.6,188z M172,184.6h17c0-4.7-3.8-8.5-8.5-8.5S172,179.9,172,184.6z"/>
	<path class="st14" d="M142.9,112.9h-22.2c-0.9,0-1.7-0.8-1.7-1.7s0.8-1.7,1.7-1.7h22.2c0.9,0,1.7,0.8,1.7,1.7
		S143.8,112.9,142.9,112.9z"/>
	<path class="st11" d="M130.9,171c0-11.7,6.8-11.7,6.8-23.4s-6.8-11.7-6.8-23.4s6.8-11.7,6.8-23.3h-17.1c0,11.7-6.8,11.7-6.8,23.3
		s6.8,11.7,6.8,23.4s-6.8,11.7-6.8,23.4H130.9z"/>
	<path class="st12" d="M122.4,172.7c-0.9,0-1.7-0.8-1.7-1.7c-0.1-4.5,1.2-8.8,3.7-12.5c2.2-3.2,3.3-7,3.2-10.8
		c0.1-3.8-1-7.6-3.2-10.8c-2.5-3.7-3.8-8.1-3.7-12.5c-0.1-4.5,1.2-8.8,3.7-12.5c2.2-3.2,3.3-7,3.2-10.8c0-0.9,0.8-1.7,1.7-1.7
		s1.7,0.8,1.7,1.7c0.1,4.5-1.2,8.8-3.7,12.5c-2.2,3.2-3.3,7-3.2,10.8c-0.1,3.8,1,7.6,3.2,10.8c2.5,3.7,3.8,8.1,3.7,12.5
		c0.1,4.5-1.2,8.8-3.7,12.5c-2.2,3.2-3.3,7-3.2,10.8C124.1,171.9,123.3,172.7,122.4,172.7L122.4,172.7z"/>
	<g>
		<path class="st15" d="M142.9,102.6h-22.2c-0.9,0-1.7-0.8-1.7-1.7s0.8-1.7,1.7-1.7h22.2c0.9,0,1.7,0.8,1.7,1.7
			S143.8,102.6,142.9,102.6z"/>
		<path class="st15" d="M142.9,123.1h-22.2c-0.9,0-1.7-0.8-1.7-1.7s0.8-1.7,1.7-1.7h22.2c0.9,0,1.7,0.8,1.7,1.7
			S143.8,123.1,142.9,123.1z"/>
	</g>
	<path class="st13" d="M168.4,188H131c-0.9,0-1.6-0.7-1.7-1.6c0-0.6-0.1-1.2-0.1-1.9c0-11.3,9.2-20.5,20.5-20.5s20.5,9.2,20.5,20.5
		c0,0.6,0,1.2-0.1,1.9C170.1,187.4,169.3,188,168.4,188z"/>
	<path class="st16" d="M192.5,157.3c-0.9,0-1.7-0.8-1.7-1.7c0-0.2,0-0.5,0.1-0.7l5.1-12c0.4-0.9,1.4-1.3,2.2-0.9
		c0.9,0.4,1.3,1.4,0.9,2.2l0,0l-5.1,12C193.8,156.9,193.1,157.3,192.5,157.3L192.5,157.3z"/>
	<path class="st12" d="M159.8,188h-20.2c-0.8,0-1.5-0.6-1.7-1.4c-1.1-6.5,3.2-12.7,9.7-13.8s12.7,3.2,13.8,9.7
		c0.2,1.4,0.2,2.7,0,4.1C161.4,187.4,160.7,188,159.8,188z M141.2,184.6h17.1c0-4.7-3.8-8.5-8.5-8.5
		C145,176.1,141.2,179.9,141.2,184.6z"/>
	<path class="st17" d="M190.7,167.5c-4.7,0-8.5-3.8-8.5-8.5s3.8-8.5,8.5-8.5s8.5,3.8,8.5,8.5C199.3,163.7,195.5,167.5,190.7,167.5z"
		/>
	<path class="st14" d="M154.9,107.7h44.4v6.8h-44.4V107.7z"/>
	<path class="st13" d="M137.7,188h-37.4c-0.9,0-1.6-0.7-1.7-1.6c-0.1-0.6-0.1-1.2-0.1-1.9c0-11.3,9.2-20.5,20.5-20.5
		s20.5,9.2,20.5,20.5c0,0.6,0,1.2-0.1,1.9C139.3,187.4,138.6,188,137.7,188L137.7,188z"/>
	<path class="st12" d="M129.1,188h-20.2c-0.8,0-1.5-0.6-1.7-1.4c-1.1-6.5,3.2-12.7,9.7-13.8s12.7,3.2,13.8,9.7
		c0.2,1.4,0.2,2.7,0,4.1C130.6,187.4,129.9,188,129.1,188z M110.4,184.6h17.1c0-4.7-3.8-8.5-8.5-8.5S110.4,179.9,110.4,184.6z"/>
	<path class="st18" d="M107,193.2h85.4l0,0c0,3.8-3.1,6.8-6.8,6.8h-71.8C110.1,200,107,196.9,107,193.2L107,193.2z"/>
	<g>
		<path class="st15" d="M194.2,194.9h-88.9c-3.8,0-6.8-3.1-6.8-6.8v-1.7c0-0.9,0.8-1.7,1.7-1.7h99.1c0.9,0,1.7,0.8,1.7,1.7v1.7
			C201,191.8,197.9,194.9,194.2,194.9z"/>
		<path class="st15" d="M148,123.1h-5.1c-0.9,0-1.7-0.8-1.7-1.7v-20.5c0-0.9,0.8-1.7,1.7-1.7h5.1c4.7,0,8.5,3.8,8.5,8.5v6.8
			C156.6,119.3,152.7,123.1,148,123.1z"/>
	</g>
</g>
</svg>
