<?xml version="1.0" encoding="utf-8"?>
<!-- Generator: Adobe Illustrator 19.2.0, SVG Export Plug-In . SVG Version: 6.00 Build 0)  -->
<svg version="1.1" id="Layer_1" xmlns="http://www.w3.org/2000/svg" xmlns:xlink="http://www.w3.org/1999/xlink" x="0px" y="0px"
	 viewBox="0 0 200 200" style="enable-background:new 0 0 200 200;" xml:space="preserve">
<style type="text/css">
	.st0{fill:#F8991D;}
	.st1{fill:#50BD8C;}
	.st2{fill:#29A86F;}
	.st3{fill:#EC8923;}
	.st4{fill:#FFFFFF;}
	.st5{fill:#FDBB66;}
	.st6{fill:#010101;}
</style>
<g id="Layer_49">
	<path class="st0" d="M174,151.8c-2.4-13.8-12-32.8-15.7-39.8c7.2-9.1,1-18.2-4.8-18.2c-1.7,0-3.3,0.3-4.8,0.9
		c-1.2-6.3-6.8-11.1-13.5-11.1c-1.7,0-3.3,0.3-4.8,0.8c-0.9-6.8-6.7-12-13.7-12c-3.1,0-6,1-8.3,2.8c-2.2-4.6-7-7.8-12.4-7.8
		c-5.5,0-10.2,3.2-12.4,7.8c-2.3-1.7-5.2-2.8-8.3-2.8c-7,0-12.8,5.2-13.7,12c-1.5-0.5-3.1-0.8-4.8-0.8c-6.7,0-12.3,4.8-13.5,11.1
		c-1.5-0.6-3.1-0.9-4.8-0.9c-5.8,0-12,9.1-4.8,18.2c-3.7,7-13.4,26.1-15.7,39.9c-0.3,1.2-0.4,2.3-0.4,3.5c0,0.3,0,0.6,0,0.8
		c1.1,17.8,35.8,32.2,78.5,32.2c42.8,0,77.6-14.4,78.5-32.3c0-0.2,0-0.3,0-0.5c0-0.1,0-0.1,0-0.2C174.5,154.2,174.4,153,174,151.8z"
		/>
	<path class="st1" d="M174,151.8c-2.4-13.8-12-32.8-15.7-39.8c-2.2,2.8-5.7,5.5-10.8,8.1l0,0c-1,0.5-2.1,1-3.2,1.5c0,0,0,0-0.1,0
		c-1.1,0.5-2.3,1-3.6,1.4c0,0,0,0-0.1,0c-0.4,0.1-0.8,0.3-1.2,0.4l0,0c-0.9,0.3-1.8,0.6-2.7,0.9l0,0c-0.4,0.1-0.9,0.3-1.3,0.4h-0.1
		c-1.4,0.4-2.8,0.8-4.3,1.1c-0.1,0-0.1,0-0.2,0c-0.4,0.1-0.9,0.2-1.3,0.3c-0.1,0-0.1,0-0.2,0c-1,0.2-2.1,0.4-3.1,0.6
		c-0.1,0-0.2,0-0.2,0c-0.4,0.1-0.9,0.2-1.3,0.2c-0.1,0-0.2,0-0.3,0.1c-0.5,0.1-1,0.2-1.6,0.3l0,0c-0.5,0.1-1.1,0.2-1.7,0.3
		c-0.1,0-0.2,0-0.2,0c-0.5,0.1-0.9,0.1-1.4,0.2c-0.1,0-0.3,0-0.4,0.1c-0.4,0.1-0.9,0.1-1.4,0.2c-0.1,0-0.2,0-0.3,0
		c-0.6,0.1-1.1,0.1-1.7,0.2h-0.1c-0.5,0.1-1,0.1-1.6,0.2c-0.2,0-0.3,0-0.5,0c-0.4,0-0.9,0.1-1.3,0.1c-0.2,0-0.3,0-0.5,0
		c-0.5,0-1.1,0.1-1.6,0.1h-0.1c-0.6,0-1.2,0.1-1.8,0.1c-0.2,0-0.3,0-0.5,0c-0.4,0-0.9,0.1-1.3,0.1c-0.2,0-0.4,0-0.6,0
		c-0.5,0-0.9,0-1.4,0.1c-0.1,0-0.3,0-0.4,0c-0.6,0-1.2,0-1.8,0.1c-0.1,0-0.2,0-0.4,0c-0.5,0-1,0-1.4,0c-0.2,0-0.4,0-0.6,0
		c-0.4,0-0.9,0-1.3,0c-0.2,0-0.4,0-0.5,0c-0.6,0-1.2,0-1.8,0c-0.6,0-1.2,0-1.8,0c-0.2,0-0.4,0-0.5,0c-0.4,0-0.9,0-1.3,0
		c-0.2,0-0.4,0-0.6,0c-0.5,0-1,0-1.4,0c-0.1,0-0.2,0-0.4,0c-0.6,0-1.2,0-1.8-0.1c-0.1,0-0.3,0-0.4,0c-0.5,0-0.9,0-1.4-0.1
		c-0.2,0-0.4,0-0.6,0c-0.4,0-0.9-0.1-1.3-0.1c-0.2,0-0.3,0-0.5,0c-0.6,0-1.2-0.1-1.8-0.1h-0.1c-0.5,0-1.1-0.1-1.6-0.1
		c-0.2,0-0.3,0-0.5,0c-0.4,0-0.9-0.1-1.3-0.1c-0.2,0-0.3,0-0.5,0c-0.5-0.1-1-0.1-1.6-0.2h-0.1c-0.6-0.1-1.1-0.1-1.7-0.2
		c-0.1,0-0.2,0-0.3,0c-0.5-0.1-0.9-0.1-1.4-0.2c-0.1,0-0.3,0-0.4-0.1c-0.5-0.1-0.9-0.1-1.4-0.2c-0.1,0-0.2,0-0.2,0
		c-0.6-0.1-1.1-0.2-1.7-0.3l0,0c-0.5-0.1-1-0.2-1.6-0.3c-0.1,0-0.2,0-0.3-0.1c-0.4-0.1-0.9-0.2-1.3-0.2c-0.1,0-0.2,0-0.3,0
		c-1.1-0.2-2.1-0.4-3.1-0.6c-0.1,0-0.1,0-0.2,0c-0.5-0.1-0.9-0.2-1.3-0.3c-0.1,0-0.1,0-0.2,0c-1.5-0.3-2.9-0.7-4.3-1.1h-0.1
		c-0.4-0.1-0.9-0.3-1.3-0.4l0,0c-0.9-0.3-1.8-0.6-2.7-0.9l0,0c-0.4-0.1-0.8-0.3-1.2-0.4c0,0,0,0-0.1,0c-1.3-0.5-2.5-0.9-3.6-1.4l0,0
		c-1.1-0.5-2.2-1-3.2-1.5l0,0c-5.1-2.5-8.6-5.3-10.8-8.1c-3.7,7-13.4,26.1-15.7,39.9c-0.3,1.2-0.4,2.3-0.4,3.5c0,0.3,0,0.6,0,0.8
		c1.1,17.8,35.8,32.2,78.5,32.2c42.8,0,77.6-14.4,78.5-32.3c0-0.2,0-0.3,0-0.5c0-0.1,0-0.1,0-0.2C174.5,154.2,174.4,153,174,151.8z"
		/>
	<path class="st2" d="M174,151.8c-2.4-13.8-12-32.8-15.7-39.8c-1.3,1.6-3,3.2-5.2,4.8c4.4,8.8,11.3,23.6,13.2,35
		c0.3,1.2,0.5,2.4,0.5,3.6c0,0.1,0,0.1,0,0.2c0,0.2,0,0.3,0,0.5c-0.8,17.4-33.6,31.4-74.7,32.3c1.3,0,2.5,0,3.8,0
		c42.8,0,77.6-14.4,78.5-32.3c0-0.2,0-0.3,0-0.5c0-0.1,0-0.1,0-0.2C174.5,154.2,174.4,153,174,151.8z"/>
	<path class="st0" d="M35.4,94.7c0.1,0,0.2,0.1,0.2,0.1c0-0.1,0-0.1,0-0.2C35.6,94.6,35.5,94.6,35.4,94.7z"/>
	<g>
		<path class="st3" d="M122.7,84.5c1.5-0.5,3.1-0.8,4.8-0.8c1,0,1.9,0.1,2.8,0.3c-1.1-6.5-6.8-11.4-13.6-11.4
			c-1.3,0-2.6,0.2-3.8,0.5C118.1,74.5,122,79,122.7,84.5z"/>
		<path class="st3" d="M141,94.7c1.5-0.6,3.1-0.9,4.8-0.9c0.9,0,1.9,0.2,2.8,0.7c-1.3-6.2-6.9-10.9-13.5-10.9
			c-1.3,0-2.6,0.2-3.8,0.5C136.2,85.6,140,89.7,141,94.7z"/>
		<path class="st3" d="M153.5,93.9c-1.6,0-3.2,0.3-4.6,0.8c6.2,3.3,9.9,16.1-9,25.4c-10.1,5.3-27.6,9-47.7,9.4c1.3,0,2.5,0,3.8,0
			c21.7,0,40.8-3.8,51.6-9.5C169.4,109.4,161.1,93.9,153.5,93.9z"/>
	</g>
	<g>
		<path class="st4" d="M96,160L96,160c-7,0-13.8,14.4-9.4,16.5c1.9,0.9,4,0.8,5.6,0.4c1.2-0.3,2.5-0.5,3.7-0.5
			c1.3,0,2.5,0.1,3.7,0.5c1.7,0.4,3.7,0.5,5.6-0.4C109.8,174.5,102.9,160,96,160z"/>
		<path class="st4" d="M81.6,150c1.4,3,5.7,5.7,8.7,4.3s3.6-6.2,2.2-9.2s-4.9-4.3-7.9-3C81.6,143.4,80.3,146.9,81.6,150z"/>
		<path class="st4" d="M73.4,164.6c2.4,1.6,7.2,2,8.8-0.3c1.6-2.4-0.8-6.6-3.1-8.2c-2.4-1.6-5.5-0.9-7.1,1.4
			C70.4,159.8,71,163,73.4,164.6z"/>
		<path class="st4" d="M110.4,150c-1.4,3-5.7,5.7-8.7,4.3s-3.6-6.2-2.2-9.2s4.9-4.3,7.9-3C110.4,143.4,111.7,146.9,110.4,150z"/>
		<path class="st4" d="M118.6,164.6c-2.4,1.6-7.2,2-8.8-0.3c-1.6-2.4,0.8-6.6,3.1-8.2c2.4-1.6,5.5-0.9,7.1,1.4
			C121.6,159.8,121,163,118.6,164.6z"/>
	</g>
	<g>
		<path class="st5" d="M87.1,97.1c-1.4,0-2.5-1.1-2.5-2.5c0-3.1-2.5-5.6-5.6-5.6s-5.6,2.5-5.6,5.6c0,1.4-1.1,2.5-2.5,2.5
			s-2.5-1.1-2.5-2.5c0-5.9,4.8-10.7,10.7-10.7s10.7,4.8,10.7,10.7C89.6,96,88.5,97.1,87.1,97.1z"/>
		<path class="st5" d="M121.2,97.1c-1.4,0-2.5-1.1-2.5-2.5c0-3.1-2.5-5.6-5.6-5.6s-5.6,2.5-5.6,5.6c0,1.4-1.1,2.5-2.5,2.5
			s-2.5-1.1-2.5-2.5c0-5.9,4.8-10.7,10.7-10.7c5.9,0,10.7,4.8,10.7,10.7C123.7,96,122.6,97.1,121.2,97.1z"/>
		<path class="st5" d="M104.1,114.5c-1.4,0-2.5-1.1-2.5-2.5c0-3.1-2.5-5.6-5.6-5.6s-5.6,2.5-5.6,5.6c0,1.4-1.1,2.5-2.5,2.5
			s-2.5-1.1-2.5-2.5c0-5.9,4.8-10.7,10.7-10.7s10.7,4.8,10.7,10.7C106.7,113.4,105.5,114.5,104.1,114.5z"/>
		<path class="st5" d="M65.5,114.5c-1.4,0-2.5-1.1-2.5-2.5c0-3.1-2.5-5.6-5.6-5.6s-5.6,2.5-5.6,5.6c0,1.4-1.1,2.5-2.5,2.5
			s-2.5-1.1-2.5-2.5c0-5.9,4.8-10.7,10.7-10.7S68,106.1,68,112C68,113.4,66.9,114.5,65.5,114.5z"/>
		<path class="st5" d="M142.8,114.5c-1.4,0-2.5-1.1-2.5-2.5c0-3.1-2.5-5.6-5.6-5.6s-5.6,2.5-5.6,5.6c0,1.4-1.1,2.5-2.5,2.5
			s-2.5-1.1-2.5-2.5c0-5.9,4.8-10.7,10.7-10.7s10.7,4.8,10.7,10.7C145.3,113.4,144.2,114.5,142.8,114.5z"/>
	</g>
	<path class="st6" d="M187.3,163.8h-4.9v-3.9h-33.3v3.9h-39.2v26.8h39.2v3.9h33.3v-3.9h4.9V163.8z M123.5,180.9
		c-2.1,0-3.7-1.7-3.7-3.7c0-2.1,1.7-3.7,3.7-3.7c2.1,0,3.7,1.7,3.7,3.7C127.2,179.3,125.6,180.9,123.5,180.9z M141.8,180.9
		c-2.1,0-3.7-1.7-3.7-3.7c0-2.1,1.7-3.7,3.7-3.7c2.1,0,3.7,1.7,3.7,3.7C145.5,179.3,143.9,180.9,141.8,180.9z M172.6,173.6h-7.5v7.2
		h7.5v3.9h-13.7v-15h13.7V173.6z"/>
</g>
</svg>
