<?xml version="1.0" encoding="utf-8"?>
<!-- Generator: Adobe Illustrator 19.2.0, SVG Export Plug-In . SVG Version: 6.00 Build 0)  -->
<svg version="1.1" id="Layer_1" xmlns="http://www.w3.org/2000/svg" xmlns:xlink="http://www.w3.org/1999/xlink" x="0px" y="0px"
	 viewBox="0 0 200 200" style="enable-background:new 0 0 200 200;" xml:space="preserve">
<style type="text/css">
	.st0{fill:#644F9C;}
	.st1{fill:#4D3B7B;}
	.st2{fill:#FFDB6D;}
	.st3{fill:#F26659;}
	.st4{fill:#FBAF4F;}
	.st5{fill:url(#SVGID_1_);}
	.st6{fill:url(#SVGID_2_);}
	.st7{fill:url(#SVGID_3_);}
	.st8{fill:url(#SVGID_4_);}
	.st9{fill:url(#SVGID_5_);}
	.st10{fill:url(#SVGID_6_);}
	.st11{fill:url(#SVGID_7_);}
	.st12{fill:#F4BE3A;}
	.st13{fill:#D3A63B;}
	.st14{fill:#C4BD41;}
	.st15{fill:#FEE651;}
	.st16{fill:#FFD742;}
	.st17{fill:#B4D244;}
	.st18{fill:url(#SVGID_8_);}
	.st19{fill:url(#SVGID_9_);}
	.st20{fill:url(#SVGID_10_);}
	.st21{fill:url(#SVGID_11_);}
	.st22{fill:url(#SVGID_12_);}
	.st23{fill:url(#SVGID_13_);}
	.st24{fill:url(#SVGID_14_);}
	.st25{fill:url(#SVGID_15_);}
	.st26{fill:url(#SVGID_16_);}
	.st27{fill:url(#SVGID_17_);}
	.st28{fill:url(#SVGID_18_);}
	.st29{fill:url(#SVGID_19_);}
	.st30{fill:url(#SVGID_20_);}
	.st31{fill:url(#SVGID_21_);}
	.st32{fill:url(#SVGID_22_);}
	.st33{fill:url(#SVGID_23_);}
	.st34{fill:url(#SVGID_24_);}
	.st35{fill:url(#SVGID_25_);}
	.st36{fill:url(#SVGID_26_);}
	.st37{fill:url(#SVGID_27_);}
	.st38{fill:url(#SVGID_28_);}
	.st39{fill:url(#SVGID_29_);}
	.st40{fill:url(#SVGID_30_);}
	.st41{fill:url(#SVGID_31_);}
	.st42{fill:url(#SVGID_32_);}
	.st43{fill:url(#SVGID_33_);}
	.st44{fill:url(#SVGID_34_);}
	.st45{fill:url(#SVGID_35_);}
</style>
<g>
	<g>
		<path class="st0" d="M180.3,157.3l-42.8-2.9l-42.6,2.9c9,14.1,24.7,23.5,42.7,23.5C155.6,180.9,171.4,171.5,180.3,157.3z"/>
		<path class="st0" d="M88.7,143.2l48.9,2.9l48.9-2.9c0.2-0.8,0.4-1.6,0.6-2.4c1.1-5.4-3-10.5-8.5-10.5H96.7
			c-5.5,0-9.7,5.1-8.5,10.5C88.3,141.6,88.5,142.4,88.7,143.2z"/>
	</g>
	<g>
		<path class="st1" d="M130.5,180.4c2.3,0.3,4.7,0.5,7.1,0.5c24.3,0,44.6-17.2,49.5-40c1.1-5.4-3-10.5-8.5-10.5h-14.2
			c5.5,0,9.7,5.1,8.5,10.5C168.6,161.4,151.6,177.4,130.5,180.4z"/>
		<path class="st1" d="M114,188.2v-0.4c0-5.1,4.1-9.2,9.2-9.2H152c5.1,0,9.2,4.1,9.2,9.2v0.4c0,0.9-0.7,1.6-1.6,1.6h-44
			C114.7,189.9,114,189.1,114,188.2z"/>
	</g>
	<path class="st2" d="M100.2,82.5c-1.1-1.3-3-1.3-4.1,0c-5.5,6.3-8.8,14.5-8.8,23.4s3.3,17.2,8.8,23.4c1.1,1.3,3,1.3,4.1,0
		c5.5-6.3,8.8-14.5,8.8-23.4S105.6,88.8,100.2,82.5z"/>
	<g>
		<path class="st3" d="M100.2,98.1c-1.1-1.4-3.2-1.4-4.3,0c-3.4,4.3-5.4,9.7-5.4,15.6c0,5.9,2,11.3,5.4,15.6c1.1,1.4,3.2,1.4,4.3,0
			c3.4-4.3,5.4-9.7,5.4-15.6C105.7,107.8,103.7,102.4,100.2,98.1z"/>
		<path class="st3" d="M95.9,71v-8c0-1.2,1-2.2,2.2-2.2c1.2,0,2.2,1,2.2,2.2v8c0,1.2-1,2.2-2.2,2.2C96.9,73.1,95.9,72.1,95.9,71z"/>
		<path class="st3" d="M106.2,78.2c-0.8-0.8-0.8-2.2,0-3.1l5.6-5.6c0.8-0.8,2.2-0.8,3.1,0c0.8,0.8,0.8,2.2,0,3.1l-5.6,5.6
			c-0.4,0.4-1,0.6-1.5,0.6C107.2,78.8,106.6,78.6,106.2,78.2z"/>
		<path class="st3" d="M86.8,77.8l-5.6-5.6c-0.8-0.8-0.8-2.2,0-3.1c0.8-0.8,2.2-0.8,3.1,0l5.6,5.6c0.8,0.8,0.8,2.2,0,3.1
			c-0.4,0.4-1,0.6-1.5,0.6C87.8,78.5,87.2,78.3,86.8,77.8z"/>
	</g>
	<path class="st2" d="M186.5,143.2H88.7c1.3,5.1,3.4,9.8,6.2,14.2h85.5C183.1,153,185.2,148.3,186.5,143.2z"/>
	<g>
		<path class="st4" d="M166.2,157.3h14.2c3.4-5.1,5.8-12.1,6.2-14.2h-14.2C171,148.3,168.9,153,166.2,157.3z"/>
		<circle class="st4" cx="179.9" cy="136.9" r="2.5"/>
		<circle class="st4" cx="168" cy="136.9" r="2.5"/>
		<circle class="st4" cx="156.1" cy="136.9" r="2.5"/>
		<circle class="st4" cx="144.2" cy="136.9" r="2.5"/>
		<circle class="st4" cx="132.3" cy="136.9" r="2.5"/>
		<circle class="st4" cx="120.4" cy="136.9" r="2.5"/>
		<circle class="st4" cx="108.4" cy="136.9" r="2.5"/>
		<circle class="st4" cx="96.5" cy="136.9" r="2.5"/>
	</g>
</g>
<g>
	<g>
		
			<linearGradient id="SVGID_1_" gradientUnits="userSpaceOnUse" x1="21.86" y1="-137.5475" x2="72.7437" y2="-137.5475" gradientTransform="matrix(1 0 0 1 0 314)">
			<stop  offset="0" style="stop-color:#41BA8A"/>
			<stop  offset="1" style="stop-color:#04874C"/>
		</linearGradient>
		<path class="st5" d="M13.8,182.7c0,0,19.9-32.2,38.3-10.4C47.2,200.4,13.8,182.7,13.8,182.7z"/>
		
			<linearGradient id="SVGID_2_" gradientUnits="userSpaceOnUse" x1="21.86" y1="-137.5475" x2="72.7437" y2="-137.5475" gradientTransform="matrix(1 0 0 1 0 314)">
			<stop  offset="0" style="stop-color:#41BA8A"/>
			<stop  offset="1" style="stop-color:#04874C"/>
		</linearGradient>
		<path class="st6" d="M89.5,182.7c0,0-19.9-32.2-38.3-10.4C56.1,200.4,89.5,182.7,89.5,182.7z"/>
	</g>
	<g>
		
			<linearGradient id="SVGID_3_" gradientUnits="userSpaceOnUse" x1="22.1334" y1="-145.5837" x2="78.8786" y2="-145.5837" gradientTransform="matrix(1 0 0 1 0 314)">
			<stop  offset="0" style="stop-color:#EF374A"/>
			<stop  offset="1" style="stop-color:#9D1D20"/>
		</linearGradient>
		<path class="st7" d="M12.2,162.9c0,0,32.7-19.9,39.5,9.4C32.5,195.4,12.2,162.9,12.2,162.9z"/>
		
			<linearGradient id="SVGID_4_" gradientUnits="userSpaceOnUse" x1="22.1334" y1="-145.5837" x2="78.8786" y2="-145.5837" gradientTransform="matrix(1 0 0 1 0 314)">
			<stop  offset="0" style="stop-color:#EF374A"/>
			<stop  offset="1" style="stop-color:#9D1D20"/>
		</linearGradient>
		<path class="st8" d="M91.2,162.9c0,0-32.7-19.9-39.5,9.4C70.9,195.4,91.2,162.9,91.2,162.9z"/>
	</g>
	<g>
		
			<linearGradient id="SVGID_5_" gradientUnits="userSpaceOnUse" x1="34.4689" y1="-158.0516" x2="67.4415" y2="-158.0516" gradientTransform="matrix(1 0 0 1 0 314)">
			<stop  offset="0" style="stop-color:#F16580"/>
			<stop  offset="1" style="stop-color:#E61D30"/>
		</linearGradient>
		<path class="st9" d="M75.3,139.2c0,0-37.7,6.5-23.6,33C81.3,177,75.3,139.2,75.3,139.2z"/>
		
			<linearGradient id="SVGID_6_" gradientUnits="userSpaceOnUse" x1="34.4689" y1="-158.0516" x2="67.4415" y2="-158.0516" gradientTransform="matrix(1 0 0 1 0 314)">
			<stop  offset="0" style="stop-color:#F16580"/>
			<stop  offset="1" style="stop-color:#E61D30"/>
		</linearGradient>
		<path class="st10" d="M28.1,139.2c0,0,37.7,6.5,23.6,33C22,177,28.1,139.2,28.1,139.2z"/>
	</g>
	
		<linearGradient id="SVGID_7_" gradientUnits="userSpaceOnUse" x1="39.218" y1="-162.041" x2="63.1365" y2="-162.041" gradientTransform="matrix(1 0 0 1 0 314)">
		<stop  offset="0" style="stop-color:#F8B6C3"/>
		<stop  offset="1" style="stop-color:#F05B76"/>
	</linearGradient>
	<path class="st11" d="M51.2,131.7c0,0-26.9,27.2,0,40.6C78.1,158.9,51.2,131.7,51.2,131.7z"/>
</g>
<g>
	<circle class="st12" cx="134.7" cy="163.5" r="16.9"/>
	<circle class="st13" cx="134.7" cy="163.5" r="12.1"/>
	<circle class="st14" cx="134.7" cy="163.5" r="7.2"/>
	<g>
		<path class="st15" d="M134.7,151.4c-0.3,0-0.6-0.1-0.8-0.3c-2.5-2.4-4-6.5-4-11.1c0-4.6,1.5-8.8,4-11.1c0.5-0.4,1.2-0.4,1.7,0
			c2.5,2.4,4,6.5,4,11.1c0,4.6-1.5,8.8-4,11.1C135.3,151.3,135,151.4,134.7,151.4z"/>
		<path class="st15" d="M134.7,198.5c-0.3,0-0.6-0.1-0.8-0.3c-2.5-2.4-4-6.5-4-11.1c0-4.6,1.5-8.8,4-11.1c0.5-0.4,1.2-0.4,1.7,0
			c2.5,2.4,4,6.5,4,11.1c0,4.6-1.5,8.8-4,11.1C135.3,198.4,135,198.5,134.7,198.5z"/>
		<path class="st15" d="M111.2,168.4c-4.6,0-8.8-1.5-11.1-4c-0.4-0.5-0.4-1.2,0-1.7c2.4-2.5,6.5-4,11.1-4c4.6,0,8.8,1.5,11.1,4
			c0.4,0.5,0.4,1.2,0,1.7C119.9,166.9,115.8,168.4,111.2,168.4z"/>
		<path class="st15" d="M158.3,168.4c-4.6,0-8.8-1.5-11.1-4c-0.4-0.5-0.4-1.2,0-1.7c2.4-2.5,6.5-4,11.1-4c4.6,0,8.8,1.5,11.1,4
			c0.4,0.5,0.4,1.2,0,1.7C167,166.9,162.9,168.4,158.3,168.4z"/>
		<path class="st15" d="M125.1,155.3c-3.4,0-7.3-1.9-10.5-5.1c-3.3-3.3-5.1-7.3-5.1-10.7c0-0.6,0.5-1.2,1.2-1.2
			c3.5-0.1,7.5,1.8,10.7,5.1c3.3,3.3,5.1,7.3,5.1,10.7c0,0.6-0.5,1.2-1.2,1.2C125.3,155.3,125.2,155.3,125.1,155.3z"/>
		<path class="st15" d="M158.4,188.6c-3.4,0-7.3-1.9-10.5-5.1c-3.3-3.3-5.1-7.3-5.1-10.7c0-0.6,0.5-1.2,1.2-1.2
			c3.4-0.1,7.5,1.8,10.7,5.1c3.3,3.3,5.1,7.3,5.1,10.7c0,0.6-0.5,1.2-1.2,1.2C158.6,188.6,158.5,188.6,158.4,188.6z"/>
		<path class="st15" d="M111,188.6c-0.1,0-0.2,0-0.2,0c-0.6,0-1.2-0.5-1.2-1.2c-0.1-3.5,1.8-7.5,5.1-10.7c3.3-3.3,7.3-5.1,10.7-5.1
			c0.6,0,1.2,0.5,1.2,1.2c0.1,3.5-1.8,7.5-5.1,10.7C118.3,186.8,114.4,188.6,111,188.6z"/>
		<path class="st15" d="M144.3,155.3c-0.1,0-0.2,0-0.2,0c-0.6,0-1.2-0.5-1.2-1.2c-0.1-3.5,1.8-7.5,5.1-10.7
			c3.3-3.3,7.2-5.2,10.7-5.1c0.6,0,1.2,0.5,1.2,1.2c0.1,3.5-1.8,7.5-5.1,10.7C151.6,153.5,147.7,155.3,144.3,155.3z"/>
	</g>
	<g>
		<path class="st16" d="M129.6,152.5c-0.1,0-0.3,0-0.4-0.1c-3.2-1.2-6.2-4.5-8-8.8c-1.8-4.3-2-8.7-0.6-11.8c0.3-0.6,0.9-0.9,1.5-0.6
			c3.2,1.2,6.2,4.5,8,8.8c1.8,4.3,2,8.7,0.6,11.8C130.5,152.2,130.1,152.5,129.6,152.5z"/>
		<path class="st16" d="M147.7,196c-0.1,0-0.3,0-0.4-0.1c-3.2-1.2-6.2-4.5-8-8.8c-1.8-4.3-2-8.7-0.6-11.8c0.3-0.6,0.9-0.9,1.5-0.6
			c3.2,1.2,6.2,4.5,8,8.8c1.8,4.3,2,8.7,0.6,11.8C148.6,195.7,148.1,196,147.7,196z"/>
		<path class="st16" d="M107.7,178.5c-1.7,0-3.4-0.3-4.8-0.9c-0.6-0.3-0.9-0.9-0.6-1.5c1.2-3.2,4.5-6.2,8.8-8
			c4.3-1.8,8.7-2,11.8-0.6c0.6,0.3,0.9,0.9,0.6,1.5c-1.2,3.2-4.5,6.2-8.8,8C112.4,178,110,178.5,107.7,178.5z"/>
		<path class="st16" d="M151.3,160.5c-1.7,0-3.4-0.3-4.8-0.9c-0.6-0.3-0.9-0.9-0.6-1.5c1.2-3.2,4.5-6.2,8.8-8
			c4.3-1.8,8.7-2,11.8-0.6c0.6,0.3,0.9,0.9,0.6,1.5c-1.2,3.2-4.5,6.2-8.8,8C155.9,160,153.5,160.5,151.3,160.5z"/>
		<path class="st16" d="M118.2,160.5c-2.2,0-4.7-0.5-7.1-1.5c-4.3-1.8-7.5-4.7-8.8-8c-0.2-0.6,0-1.3,0.6-1.5
			c3.2-1.4,7.6-1.2,11.8,0.6c4.3,1.8,7.5,4.7,8.8,8c0.2,0.6,0,1.3-0.6,1.5C121.5,160.2,119.9,160.5,118.2,160.5z"/>
		<path class="st16" d="M161.7,178.5c-2.2,0-4.7-0.5-7.1-1.5c-4.3-1.8-7.5-4.7-8.8-8c-0.2-0.6,0-1.3,0.6-1.5
			c3.2-1.4,7.6-1.2,11.8,0.6c4.3,1.8,7.5,4.7,8.8,8c0.2,0.6,0,1.3-0.6,1.5C165.1,178.2,163.4,178.5,161.7,178.5z"/>
		<path class="st16" d="M121.8,196c-0.5,0-0.9-0.3-1.1-0.7c-1.4-3.2-1.2-7.6,0.6-11.8c1.8-4.3,4.7-7.5,8-8.8c0.6-0.2,1.3,0,1.5,0.6
			c1.4,3.2,1.2,7.6-0.6,11.8c-1.8,4.3-4.7,7.5-8,8.8C122.1,195.9,121.9,196,121.8,196z"/>
		<path class="st16" d="M139.8,152.5c-0.5,0-0.9-0.3-1.1-0.7c-1.4-3.2-1.2-7.6,0.6-11.8c1.8-4.3,4.7-7.5,8-8.8
			c0.6-0.2,1.3,0,1.5,0.6c1.4,3.2,1.2,7.6-0.6,11.8c-1.8,4.3-4.7,7.5-8,8.8C140.1,152.4,139.9,152.5,139.8,152.5z"/>
	</g>
	<circle class="st17" cx="134.7" cy="163.5" r="4.8"/>
</g>
<g>
	
		<linearGradient id="SVGID_8_" gradientUnits="userSpaceOnUse" x1="52.7569" y1="-133.5502" x2="90.2404" y2="-135.9268" gradientTransform="matrix(1.0039 0 0 1.0039 0.1883 315.7759)">
		<stop  offset="3.000000e-003" style="stop-color:#FEE000"/>
		<stop  offset="1.800000e-002" style="stop-color:#FBE000"/>
		<stop  offset="0.319" style="stop-color:#C4D92D"/>
		<stop  offset="0.464" style="stop-color:#AFD136"/>
		<stop  offset="0.55" style="stop-color:#A6CE38"/>
		<stop  offset="0.695" style="stop-color:#93B93E"/>
		<stop  offset="0.879" style="stop-color:#718F3B"/>
		<stop  offset="1" style="stop-color:#597032"/>
	</linearGradient>
	<path class="st18" d="M81.5,178.9c0,0-4.1,14.5-24,5.8C57.5,184.7,67.8,164.4,81.5,178.9z"/>
	
		<linearGradient id="SVGID_9_" gradientUnits="userSpaceOnUse" x1="65.6326" y1="-140.0085" x2="71.9457" y2="-127.801" gradientTransform="matrix(1.0039 0 0 1.0039 0.1883 315.7759)">
		<stop  offset="0" style="stop-color:#AFD136;stop-opacity:0"/>
		<stop  offset="0.472" style="stop-color:#83A73E;stop-opacity:0.472"/>
		<stop  offset="1" style="stop-color:#597032"/>
	</linearGradient>
	<path class="st19" d="M57.5,184.7c6.5-2.7,24-5.8,24-5.8C67.8,164.4,57.5,184.7,57.5,184.7z"/>
	
		<linearGradient id="SVGID_10_" gradientUnits="userSpaceOnUse" x1="80.5917" y1="-111.2972" x2="93.8578" y2="-146.4363" gradientTransform="matrix(1.0039 0 0 1.0039 0.1883 315.7759)">
		<stop  offset="3.000000e-003" style="stop-color:#FEE000"/>
		<stop  offset="1.800000e-002" style="stop-color:#FBE000"/>
		<stop  offset="0.319" style="stop-color:#C4D92D"/>
		<stop  offset="0.464" style="stop-color:#AFD136"/>
		<stop  offset="0.55" style="stop-color:#A6CE38"/>
		<stop  offset="0.695" style="stop-color:#93B93E"/>
		<stop  offset="0.879" style="stop-color:#718F3B"/>
		<stop  offset="1" style="stop-color:#597032"/>
	</linearGradient>
	<path class="st20" d="M90.2,177.1c0,0,11.5,9.7-4.6,24.2C85.6,201.3,71.4,183.6,90.2,177.1z"/>
	
		<linearGradient id="SVGID_11_" gradientUnits="userSpaceOnUse" x1="80.0044" y1="-125.6891" x2="93.7287" y2="-126.4167" gradientTransform="matrix(1.0039 0 0 1.0039 0.1883 315.7759)">
		<stop  offset="0" style="stop-color:#AFD136;stop-opacity:0"/>
		<stop  offset="0.472" style="stop-color:#83A73E;stop-opacity:0.472"/>
		<stop  offset="1" style="stop-color:#597032"/>
	</linearGradient>
	<path class="st21" d="M85.6,201.3c0.2-7.1,4.6-24.2,4.6-24.2C71.4,183.6,85.6,201.3,85.6,201.3z"/>
	
		<linearGradient id="SVGID_12_" gradientUnits="userSpaceOnUse" x1="124.5953" y1="-132.6702" x2="87.2946" y2="-137.0724" gradientTransform="matrix(1.0039 0 0 1.0039 0.1883 315.7759)">
		<stop  offset="3.000000e-003" style="stop-color:#FEE000"/>
		<stop  offset="1.800000e-002" style="stop-color:#FBE000"/>
		<stop  offset="0.319" style="stop-color:#C4D92D"/>
		<stop  offset="0.464" style="stop-color:#AFD136"/>
		<stop  offset="0.55" style="stop-color:#A6CE38"/>
		<stop  offset="0.695" style="stop-color:#93B93E"/>
		<stop  offset="0.879" style="stop-color:#718F3B"/>
		<stop  offset="1" style="stop-color:#597032"/>
	</linearGradient>
	<path class="st22" d="M97.1,178.3c0,0,3.3,14.7,23.6,7.1C120.8,185.4,111.6,164.6,97.1,178.3z"/>
	
		<linearGradient id="SVGID_13_" gradientUnits="userSpaceOnUse" x1="112.0883" y1="-139.8181" x2="105.123" y2="-127.97" gradientTransform="matrix(1.0039 0 0 1.0039 0.1883 315.7759)">
		<stop  offset="0" style="stop-color:#AFD136;stop-opacity:0"/>
		<stop  offset="0.472" style="stop-color:#83A73E;stop-opacity:0.472"/>
		<stop  offset="1" style="stop-color:#597032"/>
	</linearGradient>
	<path class="st23" d="M120.8,185.4c-6.4-3.1-23.6-7.1-23.6-7.1C111.6,164.6,120.8,185.4,120.8,185.4z"/>
	
		<linearGradient id="SVGID_14_" gradientUnits="userSpaceOnUse" x1="80.5788" y1="-122.1425" x2="72.5462" y2="-139.7689" gradientTransform="matrix(1.0039 0 0 1.0039 0.1883 315.7759)">
		<stop  offset="0" style="stop-color:#AFD136;stop-opacity:0"/>
		<stop  offset="0.472" style="stop-color:#83A73E;stop-opacity:0.472"/>
		<stop  offset="1" style="stop-color:#597032"/>
	</linearGradient>
	<path class="st24" d="M81.5,178.9c-3.5-3.7-6.8-5.2-9.8-5.2l-3.1,7.2l5.6,5.6c0.5-0.2,1-0.4,1.4-0.7l0,0
		C80.2,183.4,81.5,178.9,81.5,178.9z"/>
	
		<linearGradient id="SVGID_15_" gradientUnits="userSpaceOnUse" x1="97.4487" y1="-120.4473" x2="82.5447" y2="-135.3513" gradientTransform="matrix(1.0039 0 0 1.0039 0.1883 315.7759)">
		<stop  offset="0" style="stop-color:#AFD136;stop-opacity:0"/>
		<stop  offset="0.472" style="stop-color:#83A73E;stop-opacity:0.472"/>
		<stop  offset="1" style="stop-color:#597032"/>
	</linearGradient>
	<path class="st25" d="M90.2,177.1c-6.9,2.4-9.4,6.3-9.7,10.3l9.4,9.4C99.4,184.8,90.2,177.1,90.2,177.1z"/>
	
		<linearGradient id="SVGID_16_" gradientUnits="userSpaceOnUse" x1="112.6244" y1="-130.1747" x2="104.0842" y2="-137.1314" gradientTransform="matrix(1.0039 0 0 1.0039 0.1883 315.7759)">
		<stop  offset="0" style="stop-color:#AFD136;stop-opacity:0"/>
		<stop  offset="0.472" style="stop-color:#83A73E;stop-opacity:0.472"/>
		<stop  offset="1" style="stop-color:#597032"/>
	</linearGradient>
	<path class="st26" d="M97.1,178.3c0,0,3.3,14.7,23.6,7.1C120.8,185.4,111.6,164.6,97.1,178.3z"/>
	
		<radialGradient id="SVGID_17_" cx="53.0521" cy="-173.1073" r="32.2784" gradientTransform="matrix(0.9816 -0.2101 0.394 0.9423 103.0431 352.8936)" gradientUnits="userSpaceOnUse">
		<stop  offset="0" style="stop-color:#F15E4A"/>
		<stop  offset="0.29" style="stop-color:#F1614C"/>
		<stop  offset="0.498" style="stop-color:#F26852"/>
		<stop  offset="0.681" style="stop-color:#F3785D"/>
		<stop  offset="0.847" style="stop-color:#F68E6E"/>
		<stop  offset="0.998" style="stop-color:#F9A882"/>
	</radialGradient>
	<path class="st27" d="M85.7,162.5c0,0-7.2-13.4-2.6-14.2s0.7-4.2,5.6-3.3s2.8-1.7,8.5-0.8c5.6,0.9,11.1,9.7,4.4,14.7
		C97,162.3,89.8,172.2,85.7,162.5z"/>
	
		<linearGradient id="SVGID_18_" gradientUnits="userSpaceOnUse" x1="100.1518" y1="-157.0079" x2="79.9957" y2="-157.0079" gradientTransform="matrix(1.0039 0 0 1.0039 0.1883 315.7759)">
		<stop  offset="0" style="stop-color:#F9A882;stop-opacity:0"/>
		<stop  offset="1" style="stop-color:#B92C35"/>
	</linearGradient>
	<path class="st28" d="M83.2,150.2c-0.1-0.1-0.2-0.2-0.3-0.3l0,0l0,0c-0.2-0.1-0.4-0.2-0.7-0.2c-0.2,0-0.3,0-0.5,0.1c0,0,0,0,0,0
		c0,0.2-0.1,0.4-0.1,0.7c0,0,0,0,0,0c0,0.1,0,0.3,0,0.4c0,0,0,0,0,0c0,0.3,0,0.6,0.1,0.9c0,0,0,0,0,0c0.1,0.5,0.2,0.9,0.3,1.4
		c1,4.1,3.8,9.3,3.8,9.3c2.7,6.5,6.9,4.2,10.7,1L83.2,150.2z M82.9,151.8C83,151.8,83,151.8,82.9,151.8l0.1,0.2
		C83,152,83,151.9,82.9,151.8z"/>
	
		<linearGradient id="SVGID_19_" gradientUnits="userSpaceOnUse" x1="92.1944" y1="-164.836" x2="88.8754" y2="-146.151" gradientTransform="matrix(1.0039 0 0 1.0039 0.1883 315.7759)">
		<stop  offset="0" style="stop-color:#F9A882;stop-opacity:0"/>
		<stop  offset="1" style="stop-color:#B92C35"/>
	</linearGradient>
	<path class="st29" d="M90,166.4c0.6,0,1.2-0.3,1.7-0.7c1.1-0.9,4.2-3.7,5.7-6.9c1.8-3.9-1.8,1.8-4.1,3.2s1.1-2.9,0.9-7
		c-0.2-4.1-2.7,6-4.2,7.1c-1.5,1.1-0.1-2.8-1-4.6c-0.9-1.9-1.6,3.5-1.4,4.6c0.2,1.1-2-2.6-2.9-2.8c-0.8-0.2,2.1,5.1,3.5,6.4
		C88.8,166.2,89.5,166.4,90,166.4z"/>
	
		<radialGradient id="SVGID_20_" cx="98.11" cy="-141.1733" r="33.085" gradientTransform="matrix(1.0039 0 0 1.0039 0.1883 315.7759)" gradientUnits="userSpaceOnUse">
		<stop  offset="0" style="stop-color:#F15E4A"/>
		<stop  offset="0.29" style="stop-color:#F1614C"/>
		<stop  offset="0.498" style="stop-color:#F26852"/>
		<stop  offset="0.681" style="stop-color:#F3785D"/>
		<stop  offset="0.847" style="stop-color:#F68E6E"/>
		<stop  offset="0.998" style="stop-color:#F9A882"/>
	</radialGradient>
	<path class="st30" d="M87.3,165c0,0-0.6-12.2-9.5-13.5c-9-1.3-4.9,3-7.1,3.4c-2.2,0.4-6.9-0.4-7.3,6.4C63,168,88.1,175.1,87.3,165z
		"/>
	
		<linearGradient id="SVGID_21_" gradientUnits="userSpaceOnUse" x1="71.0212" y1="-161.3188" x2="89.4023" y2="-141.9767" gradientTransform="matrix(1.0039 0 0 1.0039 0.1883 315.7759)">
		<stop  offset="0" style="stop-color:#F9A882;stop-opacity:0"/>
		<stop  offset="1" style="stop-color:#B92C35"/>
	</linearGradient>
	<path class="st31" d="M84,169.6c1.7-0.5,2.5-2.4,2-4c-0.7-2.1-1.9-5.3-2.8-6.7c-1.5-2.4-0.2,2.1-0.1,3.6s-2.5-3.1-5.1-4.6
		c-2.5-1.5-1.9,0.8,0,2c1.9,1.1,0,1.3-2.8,0.3s-2.4,0.7,2.8,3.1c5.2,2.4,5.5,4.9,3.9,3.9c-1.7-1-4.4-1.5-5.7-1.1
		c-0.7,0.2,2.7,2.6,5.8,3.7C82.7,169.8,83.3,169.8,84,169.6C84,169.6,84,169.6,84,169.6z"/>
	
		<radialGradient id="SVGID_22_" cx="100.2958" cy="-160.5203" r="37.2402" gradientTransform="matrix(0.9144 0.1392 -0.1455 0.9553 -15.1416 293.5942)" gradientUnits="userSpaceOnUse">
		<stop  offset="0" style="stop-color:#F15E4A"/>
		<stop  offset="0.29" style="stop-color:#F1614C"/>
		<stop  offset="0.498" style="stop-color:#F26852"/>
		<stop  offset="0.681" style="stop-color:#F3785D"/>
		<stop  offset="0.847" style="stop-color:#F68E6E"/>
		<stop  offset="0.998" style="stop-color:#F9A882"/>
	</radialGradient>
	<path class="st32" d="M85.6,170.2c-0.7-0.9-1.6-1.6-2.7-2.1c-2.2-0.9-7.5-2.4-12.9-0.3c-7.3,2.7-3.5,6.3-2.3,6.8
		c1.2,0.5-0.4,2.9,0.7,5.8c1.2,2.8,4.9,2.3,6.4,4.1c1.5,1.9,1.2,3.5,4.5,2.9c3.3-0.7,4.4,2.5,6.8-3.8
		C88.1,178.4,87.8,173.3,85.6,170.2z"/>
	
		<radialGradient id="SVGID_23_" cx="18.3336" cy="-197.1037" r="35.5122" gradientTransform="matrix(0.8497 -0.1833 0.2117 0.9813 98.0087 364.9717)" gradientUnits="userSpaceOnUse">
		<stop  offset="0" style="stop-color:#F15E4A"/>
		<stop  offset="0.29" style="stop-color:#F1614C"/>
		<stop  offset="0.498" style="stop-color:#F26852"/>
		<stop  offset="0.681" style="stop-color:#F3785D"/>
		<stop  offset="0.847" style="stop-color:#F68E6E"/>
		<stop  offset="0.998" style="stop-color:#F9A882"/>
	</radialGradient>
	<path class="st33" d="M91.8,164.9c0,0,7.9-8.1,14.8-6.2c2.5,1,2.1,3.9,4,4.4c1.9,0.5,3.2,5,1,6c-2.2,1,0.4,5.6-2.3,7.3
		C106.5,178.1,83.5,171.9,91.8,164.9z"/>
	
		<linearGradient id="SVGID_24_" gradientUnits="userSpaceOnUse" x1="102.9995" y1="-141.945" x2="87.6385" y2="-151.8748" gradientTransform="matrix(1.0039 0 0 1.0039 0.1883 315.7759)">
		<stop  offset="0" style="stop-color:#F9A882;stop-opacity:0"/>
		<stop  offset="1" style="stop-color:#B92C35"/>
	</linearGradient>
	<path class="st34" d="M109.3,176.3l-14.2-14.2c-2,1.5-3.3,2.8-3.3,2.8c-6.7,5.7,7.1,10.8,14,11.7c0.2,0,0.4,0,0.6,0.1c0,0,0,0,0,0
		c0.2,0,0.4,0,0.6,0c0,0,0,0,0,0c0.2,0,0.3,0,0.5,0c0,0,0,0,0,0c0.2,0,0.3,0,0.4,0c0,0,0,0,0,0c0.1,0,0.1,0,0.2,0c0,0,0,0,0,0
		c0.1,0,0.1,0,0.2,0c0,0,0,0,0,0c0.1,0,0.1,0,0.2,0c0,0,0,0,0,0c0,0,0.1,0,0.1,0c0,0,0,0,0,0c0,0,0.1,0,0.1,0c0,0,0,0,0,0
		c0,0,0.1,0,0.1,0c0,0,0,0,0,0c0,0,0.1,0,0.1,0c0,0,0,0,0,0C109.2,176.4,109.2,176.4,109.3,176.3
		C109.3,176.4,109.3,176.4,109.3,176.3C109.3,176.4,109.3,176.4,109.3,176.3z"/>
	
		<linearGradient id="SVGID_25_" gradientUnits="userSpaceOnUse" x1="106.071" y1="-146.6204" x2="87.1032" y2="-147.2825" gradientTransform="matrix(1.0039 0 0 1.0039 0.1883 315.7759)">
		<stop  offset="0" style="stop-color:#F9A882;stop-opacity:0"/>
		<stop  offset="1" style="stop-color:#B92C35"/>
	</linearGradient>
	<path class="st35" d="M90.4,167.9c0.1-0.6,0.5-1.2,1-1.5c1.2-0.9,4.5-3.4,7.9-4.2c4.2-1-2.2,1.4-4,3.3c-1.8,1.9,3.1-0.5,7.1,0.6
		c4,1.1-6.4,1.4-7.8,2.7c-1.4,1.3,2.7,0.7,4.3,2c1.6,1.3-3.8,0.8-4.8,0.4c-1-0.4,2.1,2.5,2.1,3.4c0,0.8-4.5-3.1-5.5-4.7
		C90.3,169.1,90.3,168.4,90.4,167.9z"/>
	
		<radialGradient id="SVGID_26_" cx="99.5664" cy="-200.8622" r="31.0691" gradientTransform="matrix(0.9764 -0.2332 0.2332 0.9764 36.8379 369.9006)" gradientUnits="userSpaceOnUse">
		<stop  offset="0" style="stop-color:#F15E4A"/>
		<stop  offset="0.29" style="stop-color:#F1614C"/>
		<stop  offset="0.498" style="stop-color:#F26852"/>
		<stop  offset="0.681" style="stop-color:#F3785D"/>
		<stop  offset="0.847" style="stop-color:#F68E6E"/>
		<stop  offset="0.998" style="stop-color:#F9A882"/>
	</radialGradient>
	<path class="st36" d="M90.1,168.9c0,0,9.1-2.9,14.5,3.4c1.9,2.6,0.2,2.9,1.9,5.4c1.7,2.5,0.2,4.7-2.1,6s-2.8,6.3-6.8,5.5
		c-4-0.9-4.2-2.7-6-1.9c-1.8,0.7-4.4,0.8-5.3-4.4C85.3,177.8,86.6,169.9,90.1,168.9z"/>
	
		<linearGradient id="SVGID_27_" gradientUnits="userSpaceOnUse" x1="71.3631" y1="-136.3261" x2="87.2651" y2="-146.6845" gradientTransform="matrix(1.0039 0 0 1.0039 0.1883 315.7759)">
		<stop  offset="0" style="stop-color:#F9A882;stop-opacity:0"/>
		<stop  offset="1" style="stop-color:#B92C35"/>
	</linearGradient>
	<path class="st37" d="M85.4,169.9c-0.4-0.5-1-0.7-1.7-0.8c-1.5-0.2-5.6-0.6-8.9,0.5c-4.1,1.3,2.6,0.1,5.1,0.8s-2.9,1.2-5.8,4.2
		c-2.8,3,6.2-2.1,8-1.7c1.9,0.4-1.9,2-2.7,3.9c-0.7,1.9,3.6-1.3,4.3-2.1c0.7-0.9-0.5,3.3-0.1,4c0.4,0.7,2.3-5,2.3-6.9
		C86.1,170.9,85.8,170.3,85.4,169.9z"/>
	
		<linearGradient id="SVGID_28_" gradientUnits="userSpaceOnUse" x1="104.1213" y1="-132.8887" x2="83.4884" y2="-149.8506" gradientTransform="matrix(1.0039 0 0 1.0039 0.1883 315.7759)">
		<stop  offset="0" style="stop-color:#F9A882;stop-opacity:0"/>
		<stop  offset="1" style="stop-color:#B92C35"/>
	</linearGradient>
	<path class="st38" d="M87.9,171.2c0.4-1.7,2.2-2.7,3.9-2.2c2.2,0.6,5.4,1.5,6.9,2.4c2.5,1.3-2.1,0.3-3.5,0.3
		c-1.5,0,2.4,2.3,4.1,4.8c1.7,2.4-0.3,1.6-1.6-0.2c-1.3-1.8-2.1-0.3,0.4,3.1c1.8,2.4-0.7,2.1-3.6-2.5c-3.1-4.8-5.3-5.2-4.3-3.6
		c1.1,1.9,2.2,3.3,2,4.6c-0.1,0.7-2.7-1.6-4-4.6C87.8,172.6,87.8,171.9,87.9,171.2C87.9,171.2,87.9,171.2,87.9,171.2z"/>
	
		<linearGradient id="SVGID_29_" gradientUnits="userSpaceOnUse" x1="108.8434" y1="-128.6786" x2="80.1224" y2="-157.3984" gradientTransform="matrix(1.0039 0 0 1.0039 0.1883 315.7759)">
		<stop  offset="0" style="stop-color:#F9A882;stop-opacity:0"/>
		<stop  offset="1" style="stop-color:#B92C35"/>
	</linearGradient>
	<path class="st39" d="M106.3,177.6C106.3,177.5,106.3,177.5,106.3,177.6c-0.1-0.1-0.1-0.2-0.1-0.2c0,0,0,0,0-0.1c0,0,0-0.1-0.1-0.1
		c0,0,0,0,0-0.1c0-0.1-0.1-0.1-0.1-0.2c0,0,0-0.1,0-0.1c0,0,0-0.1,0-0.1c0,0,0-0.1,0-0.1c0,0,0,0,0-0.1c0,0,0-0.1,0-0.1v0l0,0
		c-0.5-1.5,0.2-2-1.3-4.2c-5.4-6.4-14.5-3.4-14.5-3.4c-1.5,0.4-3.5,1.2-4.2,3.4l15.4,15.4c0.1-0.1,0.1-0.2,0.2-0.3c0,0,0,0,0,0
		c0.3-0.5,0.7-1,1-1.5c0,0,0.1-0.1,0.1-0.1c0,0,0-0.1,0.1-0.1c0.1-0.1,0.1-0.2,0.2-0.2c0,0,0,0,0,0c0.1-0.1,0.1-0.2,0.2-0.2
		c0,0,0,0,0,0c0.1-0.1,0.1-0.2,0.2-0.2c0,0,0,0,0,0c0.1-0.1,0.1-0.1,0.2-0.2c0,0,0,0,0,0c0.1-0.1,0.1-0.2,0.2-0.2c0,0,0,0,0,0
		c0.1-0.1,0.1-0.1,0.2-0.2c0,0,0,0,0,0c0.1-0.1,0.1-0.1,0.2-0.2c0,0,0,0,0,0c0.1-0.1,0.1-0.1,0.2-0.2c0,0,0,0,0,0
		c0.1-0.1,0.1-0.1,0.2-0.1c1.1-0.7,2.1-1.5,2.5-2.6c0.1-0.2,0.1-0.4,0.2-0.6c0-0.1,0-0.1,0-0.2c0-0.1,0-0.3,0-0.4
		c0-0.7-0.2-1.5-0.7-2.2C106.4,177.7,106.4,177.6,106.3,177.6z"/>
	
		<linearGradient id="SVGID_30_" gradientUnits="userSpaceOnUse" x1="78.7689" y1="-156.7635" x2="85.4254" y2="-160.1652" gradientTransform="matrix(1.0039 0 0 1.0039 0.1883 315.7759)">
		<stop  offset="0" style="stop-color:#FBF6B5"/>
		<stop  offset="1" style="stop-color:#FFCE78"/>
	</linearGradient>
	<path class="st40" d="M75.6,143.4c0,0,7.2,12.1,7.4,18.4s1.4,10.7,4.1,11.1c2.7,0.3,5.4-3.9,1.1-11.9c-4.2-8.1-10.1-16.1-11.8-18.3
		C74.8,140.4,74.3,141.9,75.6,143.4z"/>
	
		<radialGradient id="SVGID_31_" cx="74.32" cy="-174.1006" r="5.367" gradientTransform="matrix(1.0039 0 0 1.0039 0.1883 315.7759)" gradientUnits="userSpaceOnUse">
		<stop  offset="0" style="stop-color:#FBF6B5"/>
		<stop  offset="0.193" style="stop-color:#FDF298"/>
		<stop  offset="0.609" style="stop-color:#FFD24C"/>
		<stop  offset="1" style="stop-color:#FCAF17"/>
	</radialGradient>
	<circle class="st41" cx="75.4" cy="142" r="2.5"/>
	
		<radialGradient id="SVGID_32_" cx="75.8578" cy="-168.7597" r="2.665" gradientTransform="matrix(1.0039 0 0 1.0039 0.1883 315.7759)" gradientUnits="userSpaceOnUse">
		<stop  offset="0" style="stop-color:#FBF6B5"/>
		<stop  offset="0.193" style="stop-color:#FDF298"/>
		<stop  offset="0.609" style="stop-color:#FFD24C"/>
		<stop  offset="1" style="stop-color:#FCAF17"/>
	</radialGradient>
	<circle class="st42" cx="76.6" cy="146.9" r="1.2"/>
	
		<radialGradient id="SVGID_33_" cx="79.393" cy="-169.2718" r="2.665" gradientTransform="matrix(1.0039 0 0 1.0039 0.1883 315.7759)" gradientUnits="userSpaceOnUse">
		<stop  offset="0" style="stop-color:#FBF6B5"/>
		<stop  offset="0.193" style="stop-color:#FDF298"/>
		<stop  offset="0.609" style="stop-color:#FFD24C"/>
		<stop  offset="1" style="stop-color:#FCAF17"/>
	</radialGradient>
	<circle class="st43" cx="80.2" cy="146.4" r="1.2"/>
	
		<radialGradient id="SVGID_34_" cx="77.907" cy="-165.3772" r="2.665" gradientTransform="matrix(1.0039 0 0 1.0039 0.1883 315.7759)" gradientUnits="userSpaceOnUse">
		<stop  offset="0" style="stop-color:#FBF6B5"/>
		<stop  offset="0.193" style="stop-color:#FDF298"/>
		<stop  offset="0.609" style="stop-color:#FFD24C"/>
		<stop  offset="1" style="stop-color:#FCAF17"/>
	</radialGradient>
	<circle class="st44" cx="78.7" cy="150.3" r="1.2"/>
	
		<radialGradient id="SVGID_35_" cx="81.3409" cy="-164.7621" r="2.665" gradientTransform="matrix(1.0039 0 0 1.0039 0.1883 315.7759)" gradientUnits="userSpaceOnUse">
		<stop  offset="0" style="stop-color:#FBF6B5"/>
		<stop  offset="0.193" style="stop-color:#FDF298"/>
		<stop  offset="0.609" style="stop-color:#FFD24C"/>
		<stop  offset="1" style="stop-color:#FCAF17"/>
	</radialGradient>
	<circle class="st45" cx="82.2" cy="150.9" r="1.2"/>
</g>
</svg>
