<?xml version="1.0" encoding="utf-8"?>
<!-- Generator: Adobe Illustrator 19.2.0, SVG Export Plug-In . SVG Version: 6.00 Build 0)  -->
<svg version="1.1" id="Layer_1" xmlns="http://www.w3.org/2000/svg" xmlns:xlink="http://www.w3.org/1999/xlink" x="0px" y="0px"
	 viewBox="0 0 200 200" style="enable-background:new 0 0 200 200;" xml:space="preserve">
<style type="text/css">
	.st0{fill:#E6E6E5;}
	.st1{fill:#FFFFFF;}
	.st2{fill:#D13A34;}
	.st3{fill:#456C33;}
	.st4{fill:#EE4033;}
	.st5{fill:#659C41;}
	.st6{fill:#88C057;}
	.st7{fill:#A5703E;}
	.st8{fill:#FBD490;}
	.st9{fill:#D3D5D7;}
</style>
<g id="Layer_76">
	<g>
		<path class="st0" d="M72.4,199.2h26.9c2.4,0,3.9-2.7,2.7-4.7l0,0c-1.7-2.9-2.1-6.5-0.5-9.5c1.4-2.6,3.6-4.8,6.3-6.1
			c19-9.1,32.4-19.2,33.8-39.8c0.1-2-1.4-3.6-3.4-3.6H72.4h-68c-2,0-3.5,1.7-3.4,3.6c1.4,20.6,14.9,30.8,33.8,39.8
			c2.8,1.3,5,3.5,6.3,6.1c1.6,3,1.2,6.6-0.5,9.5l0,0c-1.3,2.1,0.2,4.7,2.7,4.7H72.4z"/>
		<path class="st1" d="M89.5,184.5H68.1c-1.4,0-2.5-1.1-2.5-2.5s1.1-2.5,2.5-2.5h21.4c1.4,0,2.5,1.1,2.5,2.5
			C91.9,183.4,90.8,184.5,89.5,184.5z"/>
		<path class="st1" d="M60.9,184.5h-8.3c-1.4,0-2.5-1.1-2.5-2.5s1.1-2.5,2.5-2.5h8.3c1.4,0,2.5,1.1,2.5,2.5S62.3,184.5,60.9,184.5z"
			/>
		<path class="st1" d="M89.5,191.8H52.6c-1.4,0-2.5-1.1-2.5-2.5s1.1-2.5,2.5-2.5h36.9c1.4,0,2.5,1.1,2.5,2.5S90.8,191.8,89.5,191.8z
			"/>
		<path class="st2" d="M101.8,76.3c-12.2,0-22.1,9.9-22.1,22.1c0,1.7,0.2,3.4,0.6,5c1.2,1.3,3.1,1.7,4.8,0.9l1-0.4
			c2.7-1.2,5.8,0.5,6,3.5l0.1,1.1c0.2,2.1,1.8,3.7,3.9,3.9l1.1,0.1c2.9,0.3,4.7,3.4,3.5,6l-0.4,1c-0.1,0.3-0.2,0.7-0.3,1
			c0.6,0.1,1.3,0.1,1.9,0.1c12.2,0,22.1-9.9,22.1-22.1C123.9,86.2,114,76.3,101.8,76.3z"/>
		<path class="st3" d="M123.8,99.7c-0.7,11.6-10.3,20.9-22.1,20.9c-0.6,0-1.3,0-1.9-0.1c-0.3,1.6,0.3,3.3,1.7,4.3l0.9,0.6
			c2.4,1.7,2.4,5.3,0,7l-0.9,0.6c-0.8,0.6-1.3,1.3-1.6,2.2l0.1,0.1h33c3.5-3.9,5.7-9.1,5.7-14.7C138.6,110.9,132.4,102.7,123.8,99.7
			z"/>
		<path class="st4" d="M98.3,97.4c-0.6,0-1.3-0.2-1.7-0.7l-7-7c-1-1-1-2.5,0-3.5s2.5-1,3.5,0l7,7c1,1,1,2.5,0,3.5
			C99.6,97.2,98.9,97.4,98.3,97.4z"/>
		<path class="st4" d="M112.2,111.3c-0.6,0-1.3-0.2-1.7-0.7l-7-7c-1-1-1-2.5,0-3.5s2.5-1,3.5,0l7,7c1,1,1,2.5,0,3.5
			C113.5,111.1,112.8,111.3,112.2,111.3z"/>
		<path class="st4" d="M105.2,97.4c-0.6,0-1.3-0.2-1.7-0.7c-1-1-1-2.5,0-3.5l7-7c1-1,2.5-1,3.5,0s1,2.5,0,3.5l-7,7
			C106.5,97.2,105.9,97.4,105.2,97.4z"/>
		<path class="st4" d="M92.6,110.1c-0.6,0-1.3-0.2-1.7-0.7c-1-1-1-2.5,0-3.5l5.7-5.7c1-1,2.5-1,3.5,0s1,2.5,0,3.5l-5.7,5.7
			C93.8,109.9,93.2,110.1,92.6,110.1z"/>
		<path class="st5" d="M131.3,120.6h-9.8c-1.4,0-2.5-1.1-2.5-2.5s1.1-2.5,2.5-2.5h9.8c1.4,0,2.5,1.1,2.5,2.5
			S132.6,120.6,131.3,120.6z"/>
		<path class="st5" d="M116.5,135.3c-1.4,0-2.5-1.1-2.5-2.5V123c0-1.4,1.1-2.5,2.5-2.5s2.5,1.1,2.5,2.5v9.8
			C119,134.2,117.9,135.3,116.5,135.3z"/>
		<path class="st6" d="M58.7,112.6c2.4,0.7,3.7,3.5,2.6,5.9l-0.4,1c-0.9,1.9-0.3,4.1,1.4,5.3l0.9,0.6c2.4,1.7,2.4,5.3,0,7l-0.9,0.6
			c-0.8,0.6-1.4,1.4-1.6,2.3h11.8H100c0.3-0.9,0.8-1.8,1.6-2.3l0.9-0.6c2.4-1.7,2.4-5.3,0-7l-0.9-0.6c-1.7-1.2-2.3-3.4-1.4-5.3
			l0.4-1c1.2-2.7-0.5-5.8-3.5-6l-1.1-0.1c-2.1-0.2-3.7-1.8-3.9-3.9l-0.1-1.1c-0.3-2.9-3.4-4.7-6-3.5l-1,0.4
			c-1.9,0.9-4.1,0.3-5.3-1.4l-0.6-0.9c-1.7-2.4-5.3-2.4-7,0l-0.6,0.9c-1.2,1.7-3.4,2.3-5.3,1.4l-1-0.4c-2.7-1.2-5.8,0.6-6,3.5
			l-0.1,1.1c-0.1,1.1-0.6,2.3-1,3.1C58,112,58.2,112.5,58.7,112.6z"/>
		<path class="st7" d="M31.8,101.6L46,81.5c2.3-3.3,7-4.1,10.3-1.8l0,0c3.3,2.3,4.1,7,1.8,10.3l-14.2,20.1c-2.3,3.3-7,4.1-10.3,1.8
			l0,0C30.3,109.5,29.5,104.9,31.8,101.6z"/>
		<path class="st8" d="M63.1,125.4l-0.9-0.6c-1.7-1.2-2.3-3.4-1.4-5.3l0.4-1c1.2-2.7-0.6-5.8-3.5-6l-1.1-0.1
			c-2.1-0.2-3.7-1.8-3.9-3.9l-0.1-1.1c-0.2-2.3-2.2-3.9-4.3-3.9l-4.6,6.5c-2.3,3.3-7,4.1-10.3,1.8l0,0c-2.5-1.7-3.5-4.8-3-7.6
			c-1.1,0.6-2.5,0.7-3.7,0.1l-1-0.4c-2.7-1.2-5.8,0.6-6,3.5l-0.1,1.1c-0.2,2.1-1.8,3.7-3.9,3.9l-1.1,0.1c-2.9,0.3-4.7,3.4-3.5,6
			l0.4,1c0.9,1.9,0.3,4.1-1.4,5.3l-0.9,0.6c-2.4,1.7-2.4,5.3,0,7l0.9,0.6c0.8,0.6,1.4,1.4,1.6,2.3h48.5c0.3-0.9,0.8-1.8,1.6-2.3
			l0.9-0.6C65.5,130.7,65.5,127.1,63.1,125.4z"/>
		<path class="st3" d="M73.5,119.3c-0.6,0-1.3-0.2-1.7-0.7c-1-1-1-2.5,0-3.5l3.7-3.7c1-1,2.5-1,3.5,0s1,2.5,0,3.5l-3.7,3.7
			C74.8,119.1,74.1,119.3,73.5,119.3z"/>
		<path class="st3" d="M87,125.5c-0.6,0-1.3-0.2-1.7-0.7l-2.5-2.5c-1-1-1-2.5,0-3.5s2.5-1,3.5,0l2.5,2.5c1,1,1,2.5,0,3.5
			C88.3,125.2,87.7,125.5,87,125.5z"/>
		<path class="st3" d="M74.7,130.4c-0.6,0-1.3-0.2-1.7-0.7c-1-1-1-2.5,0-3.5l2.5-2.5c1-1,2.5-1,3.5,0s1,2.5,0,3.5l-2.5,2.5
			C76,130.1,75.4,130.4,74.7,130.4z"/>
	</g>
	<g>
		<path class="st9" d="M152.1,137.7c-1.2,0-2.2-1-2.2-2.2V70.7c0-1.2,1-2.2,2.2-2.2s2.2,1,2.2,2.2v64.7
			C154.3,136.7,153.3,137.7,152.1,137.7z"/>
		<path class="st7" d="M152.1,198L152.1,198c-3.7,0-6.7-3-6.7-6.7v-49.1c0-3.7,3-6.7,6.7-6.7l0,0c3.7,0,6.7,3,6.7,6.7v49.1
			C158.8,194.9,155.8,198,152.1,198z"/>
		<path class="st9" d="M152.1,148.9L152.1,148.9c-1.2,0-2.2-1-2.2-2.2l0,0c0-1.2,1-2.2,2.2-2.2l0,0c1.2,0,2.2,1,2.2,2.2l0,0
			C154.3,147.8,153.3,148.9,152.1,148.9z"/>
		<path class="st9" d="M152.1,157.8L152.1,157.8c-1.2,0-2.2-1-2.2-2.2l0,0c0-1.2,1-2.2,2.2-2.2l0,0c1.2,0,2.2,1,2.2,2.2l0,0
			C154.3,156.8,153.3,157.8,152.1,157.8z"/>
		<path class="st9" d="M152.1,110.9c-6.2,0-11.2-5-11.2-11.2v-29c0-1.2,1-2.2,2.2-2.2s2.2,1,2.2,2.2v29c0,3.7,3,6.7,6.7,6.7
			s6.7-3,6.7-6.7v-29c0-1.2,1-2.2,2.2-2.2s2.2,1,2.2,2.2v29C163.3,105.9,158.3,110.9,152.1,110.9z"/>
		<path class="st9" d="M185.6,139.9c6.9-6.9,6.7-22.9,6.7-40.2s1.2-29-13.4-29v69.2H185.6z"/>
		<path class="st7" d="M183.4,198L183.4,198c-3.7,0-6.7-3-6.7-6.7v-49.1c0-3.7,3-6.7,6.7-6.7l0,0c3.7,0,6.7,3,6.7,6.7v49.1
			C190.1,194.9,187.1,198,183.4,198z"/>
		<path class="st9" d="M183.4,148.9L183.4,148.9c-1.2,0-2.2-1-2.2-2.2l0,0c0-1.2,1-2.2,2.2-2.2l0,0c1.2,0,2.2,1,2.2,2.2l0,0
			C185.6,147.8,184.6,148.9,183.4,148.9z"/>
		<path class="st9" d="M183.4,157.8L183.4,157.8c-1.2,0-2.2-1-2.2-2.2l0,0c0-1.2,1-2.2,2.2-2.2l0,0c1.2,0,2.2,1,2.2,2.2l0,0
			C185.6,156.8,184.6,157.8,183.4,157.8z"/>
	</g>
</g>
</svg>
