<?xml version="1.0" encoding="utf-8"?>
<!-- Generator: Adobe Illustrator 19.2.0, SVG Export Plug-In . SVG Version: 6.00 Build 0)  -->
<svg version="1.1" id="Layer_1" xmlns="http://www.w3.org/2000/svg" xmlns:xlink="http://www.w3.org/1999/xlink" x="0px" y="0px"
	 viewBox="0 0 200 200" style="enable-background:new 0 0 200 200;" xml:space="preserve">
<style type="text/css">
	.st0{fill:#B5732D;}
	.st1{fill:#A9D26B;}
	.st2{fill:#66BC46;}
	.st3{fill:#F8E7D4;}
	.st4{fill:#EFCEB2;}
	.st5{fill:#D8AD90;}
	.st6{fill:#2AA649;}
</style>
<g id="Layer_59">
	<path class="st0" d="M95.3,181.5c-1.2,0-2.3-0.8-2.6-2c-4.4-19.2-4-38.1,1.4-56.4c4.3-14.6,11.7-28.7,21.9-42
		c17.5-22.6,37-34.9,37.8-35.4c1.2-0.8,2.9-0.4,3.6,0.9s0.4,2.9-0.9,3.6l0,0c-0.2,0.1-19.7,12.3-36.5,34.2
		c-22.5,29.2-30,60.7-22.3,93.9c0.3,1.4-0.6,2.8-2,3.2C95.7,181.4,95.5,181.5,95.3,181.5z"/>
	<path class="st1" d="M95,123.5c-4.9,5.1-13.1,5.4-21.2-2.5c-4.4-4.3-8.3-13.3-11-20.7c-0.8-2.1-1.4-4.1-1.9-5.8
		c-0.8-2.4,1.4-4.7,3.9-4c3.5,1,8.3,2.4,12.9,4.2c5.5,2.1,11,4.8,14.1,7.7C99.8,110.2,99.9,118.4,95,123.5z"/>
	<g>
		<path class="st2" d="M95,123.5c-4.9,5.1-13.1,5.4-21.2-2.5c-4.4-4.3-8.3-13.3-11-20.7c1.6-0.3,3.3-0.6,5.1-0.8
			c4-0.4,7-2.4,9.7-4.9c5.5,2.1,11,4.8,14.1,7.7C99.8,110.2,99.9,118.4,95,123.5z"/>
		<path class="st2" d="M96.8,121.1c-0.5,0.9-1.1,1.7-1.8,2.4c-4.9,5.1-13.1,5.4-21.2-2.5c-5.7-5.5-10.5-18.9-12.9-26.5
			c-0.8-2.4,1.4-4.7,3.9-4c0.1,0,0.3,0.1,0.4,0.1c2.4,7.6,7.2,20.7,12.8,26.1C84.9,123.4,91.9,124.2,96.8,121.1z"/>
	</g>
	<path class="st1" d="M110.6,91.6c-0.6,2.3-1.9,4.2-3.8,5.7c-5,3.8-12.1,2.9-18.1-5c-1.1-1.4-2-3.3-2.9-5.4
		c-2.5-6.1-4-14.3-4.8-19.4c-0.3-2.2,1.9-3.9,3.9-3c6.4,2.9,17.6,8.4,21.8,14C110.5,83.3,111.6,87.9,110.6,91.6z"/>
	<g>
		<path class="st2" d="M110.6,91.6c-0.6,2.3-1.9,4.2-3.8,5.7c-5,3.8-12.1,2.9-18.1-5c-1.1-1.4-2-3.3-2.9-5.4
			c2.4-1.8,5.1-3.1,8.4-3.1c0.3,0,0.6,0,0.9,0c5.7,0.4,8.6,2.8,11.1,4.8C107.5,89.5,108.8,90.6,110.6,91.6z"/>
		<path class="st2" d="M108.8,95.4c-0.5,0.7-1.2,1.3-1.9,1.9c-5,3.8-12.1,2.9-18.1-5c-4.2-5.5-6.6-17.9-7.7-24.8
			c-0.3-2.2,1.9-3.9,3.9-3c0.1,0.1,0.2,0.1,0.4,0.2c1.1,7,3.5,18.9,7.6,24.4C98.1,95.8,104,97.4,108.8,95.4z"/>
	</g>
	<path class="st1" d="M124.6,61.1c3.6,7.9,1.4,13.8-3.6,16.1c-5,2.3-10.9,0.2-14.5-7.8c-2.5-5.5-2.2-16.5-1.8-22.6
		c0.1-1.9,2.4-3,3.9-1.8C113.5,48.6,122.1,55.6,124.6,61.1z"/>
	<path class="st2" d="M123.1,75.9c-0.6,0.5-1.3,0.9-2,1.2c-5,2.3-10.9,0.2-14.5-7.8c-2.5-5.5-2.2-16.5-1.8-22.6
		c0.1-1.9,2.4-3,3.9-1.8c0.1,0.1,0.2,0.1,0.3,0.2c-0.4,6.2-0.7,16.8,1.8,22.3C113.9,74.2,118.6,76.8,123.1,75.9z"/>
	<path class="st1" d="M143.1,49.4c1.9,7-0.8,11.6-5.2,12.8s-9-1.4-10.9-8.4c-1.3-4.9,0.5-13.9,1.7-18.9c0.4-1.6,2.4-2.1,3.5-0.9
		C135.7,37.6,141.7,44.5,143.1,49.4z"/>
	<path class="st2" d="M139.9,61.4c-0.6,0.4-1.3,0.6-2,0.8c-4.4,1.2-9-1.4-10.9-8.4c-1.3-4.9,0.5-13.9,1.7-18.9
		c0.4-1.6,2.4-2.1,3.5-0.9c0.3,0.3,0.6,0.6,0.9,1c-1.2,5.1-2.6,13.2-1.4,17.8C133.2,58.3,136.4,61.1,139.9,61.4z"/>
	<path class="st1" d="M113.8,112.5c-11.3-0.1-17.1,5.7-17.1,12.8s5.6,13,17,13c7.9,0,20.8-6.2,27.7-10c2.2-1.2,2.2-4.4,0-5.6
		C134.5,118.9,121.7,112.5,113.8,112.5z"/>
	<path class="st2" d="M97.1,122.3c-0.2,1-0.4,2-0.4,3c0,7.1,5.6,13,17,13c7.9,0,20.8-6.2,27.7-10c2.2-1.2,2.2-4.4,0-5.6
		c-0.1-0.1-0.3-0.1-0.4-0.2c-7.1,3.8-19.6,9.8-27.3,9.8C104,132.2,98.5,128,97.1,122.3z"/>
	<path class="st1" d="M147.7,105.9c-1.8,0.8-3.9,1.8-6.3,2.8c-6.1,2.5-13.5,5-18.5,4.7c-9.9-0.6-14.7-5.9-14.3-12.2
		c0.2-3.4,1.9-6.4,5-8.3c2.6-1.6,6.1-2.4,10.6-2.2c7,0.4,17.9,6.6,23.8,10.3C149.9,102.2,149.7,105,147.7,105.9z"/>
	<g>
		<path class="st2" d="M141.4,108.7c-6.1,2.5-13.5,5-18.5,4.7c-9.9-0.6-14.7-5.9-14.3-12.2c0.2-3.4,1.9-6.4,5-8.3
			c0.7,0.3,1.6,0.6,2.5,0.8c9.8,3,18.3,6,23.2,11.9C140.1,106.6,140.8,107.6,141.4,108.7z"/>
		<path class="st2" d="M109.1,98.6c-0.3,0.8-0.4,1.7-0.5,2.6c-0.4,6.3,4.4,11.6,14.3,12.2c7,0.4,18.5-4.5,24.8-7.5
			c2-0.9,2.2-3.7,0.3-4.9c-0.1-0.1-0.2-0.1-0.3-0.2c-6.4,3-17.6,7.7-24.5,7.3C114.7,107.6,110,103.7,109.1,98.6z"/>
	</g>
	<path class="st1" d="M137.1,71.1c-8.7,0.1-13.1,4.6-13,10.1s4.5,9.9,13.2,9.8c6.1-0.1,15.9-5,21.3-8c1.7-0.9,1.7-3.4,0-4.3
		C153.1,75.8,143.2,71.1,137.1,71.1z"/>
	<path class="st2" d="M124.4,78.8c-0.2,0.7-0.3,1.5-0.3,2.3c0,5.5,4.5,9.9,13.2,9.8c6.1-0.1,15.9-5,21.3-8c1.7-0.9,1.7-3.4,0-4.3
		c-0.1-0.1-0.2-0.1-0.3-0.2c-5.4,3-15,7.7-20.9,7.8C129.8,86.4,125.5,83.2,124.4,78.8z"/>
	<path class="st1" d="M152.9,55.1c-7.3-0.1-11,3.6-11.1,8.2s3.6,8.4,10.8,8.5c5.1,0.1,13.4-3.9,17.9-6.3c1.4-0.8,1.5-2.8,0.1-3.6
		C166.2,59.4,158,55.2,152.9,55.1z"/>
	<path class="st2" d="M142.1,61.2c-0.2,0.7-0.3,1.4-0.3,2.1c-0.1,4.6,3.6,8.4,10.8,8.5c5.1,0.1,13.4-3.9,17.9-6.3
		c1.4-0.8,1.5-2.8,0-3.6c-0.4-0.2-0.8-0.4-1.2-0.6c-4.7,2.4-12.2,5.8-16.9,5.7C146.7,66.9,143.2,64.5,142.1,61.2z"/>
	<path class="st1" d="M160.3,23.3c0.3,2.8,0.5,6.9,0.4,10.7c-0.1,3.1-0.5,6.1-1.4,8.2c-2.3,5.2-5.7,7.5-9.1,7.4
		c-1,0-1.9-0.2-2.9-0.7c-4.2-1.8-6.2-6.7-3.3-13.4c2-4.7,9-10.6,13.1-13.8C158.3,20.9,160.2,21.7,160.3,23.3z"/>
	<g>
		<path class="st2" d="M160.7,34c-0.1,3.1-0.5,6.1-1.4,8.2c-2.3,5.2-5.7,7.5-9.1,7.4C149.6,44.1,152.4,37.8,160.7,34z"/>
		<path class="st2" d="M149.3,49.6c-0.7-0.1-1.4-0.3-2.1-0.6c-4.2-1.8-6.2-6.7-3.3-13.4c2-4.7,9-10.6,13.1-13.8
			c1.3-1,3.2-0.2,3.3,1.4c0,0.4,0.1,0.9,0.1,1.3c-4.1,3.3-10.3,8.7-12.2,13.1C146,43,146.8,47.2,149.3,49.6z"/>
	</g>
	<path class="st1" d="M163.2,39.3c-6.6,3-8.5,7.9-6.6,12.1s6.8,6.1,13.4,3.1c4.6-2.1,10.5-9.2,13.6-13.3c1-1.3,0.1-3.2-1.5-3.3
		C177,37.5,167.8,37.2,163.2,39.3z"/>
	<path class="st2" d="M156,49.4c0.1,0.7,0.3,1.4,0.6,2.1c1.9,4.2,6.8,6.1,13.4,3.1c4.6-2.1,10.5-9.2,13.6-13.3
		c1-1.3,0.1-3.2-1.5-3.3c-0.4,0-0.9-0.1-1.3-0.1c-3.2,4.2-8.5,10.4-12.9,12.4C162.6,52.6,158.4,51.9,156,49.4z"/>
	<path class="st3" d="M46.6,113.9c0,0,2-1.9,5.6-4c3.7-2.1,9.2-4.4,16.2-5.1c13.8-1.3,18.1-16.4,26.4-15.8s7.1,5.9,19.7,9.8
		c9.7,3,16.9,5.6,20.8,10.2c1.2,1.4,2,3,2.6,4.8C140.1,121.8,75.2,142.3,46.6,113.9z"/>
	<g>
		<path class="st4" d="M46.6,113.9c0,0,2-1.9,5.6-4c4.6,1.2,13,3.2,23.7,4.4c5.9,0.6,11.8,1,17.7,1c14.9,0,28.9-2.1,41.7-6.2
			c1.2,1.4,2,3,2.6,4.8C140.1,121.8,75.2,142.3,46.6,113.9z"/>
		<path class="st4" d="M151.9,192c-2.3,2.9-8.6,2.5-14-0.9c-0.7-0.4-1.3-0.9-1.8-1.3c-9.3,4-22.7,6.5-41.8,6.5
			c-20.7,0-35.1-2.9-45-7.5c-0.8,0.8-1.8,1.6-3,2.3c-5.4,3.4-11.6,3.8-14,0.9c-2.3-2.9,0-7.9,5.2-11.3c-13.2-13.7-7.3-33.1-1.9-44.5
			c2.6-5.6,5.2-9.3,5.2-9.3l98-0.4c0,0,3.6,4.4,7.3,11c6.8,11.9,14.1,31.1,1.9,44.3C152.3,185.1,154,189.4,151.9,192z"/>
	</g>
	<path class="st5" d="M146.2,137.5c-0.3,0.1-0.6,0.3-1,0.4c-16,5.3-33.4,8-51.6,8c-30.6,0-53.6-7.7-54.6-8.1
		c-1.2-0.4-2.3-0.9-3.3-1.6c2.6-5.6,5.2-9.3,5.2-9.3l98-0.4C138.9,126.5,142.5,130.9,146.2,137.5z"/>
	<path class="st2" d="M110.6,167.5H73.7c-2.3,0-4.3-1.8-4.5-4.1c-0.6-6.7-0.1-13.8,0.4-19c0.5-5.1,1.2-8.5,1.2-8.5l42.5-0.8
		c0.7,2.8,1.1,6.1,1.4,9.6c0.5,6.8,0.4,14.1,0.2,18.6C115,165.6,113,167.5,110.6,167.5z"/>
	<path class="st6" d="M114.8,144.6c-6.9,0.8-14,1.3-21.2,1.3c-8.7,0-16.8-0.6-23.9-1.5c0.5-5.1,1.2-8.5,1.2-8.5l42.5-0.8
		C114.1,137.8,114.6,141.1,114.8,144.6z"/>
	<path class="st3" d="M93.6,140.5c-29.5,0-51.5-7.3-52.8-7.8c-5-1.7-7.7-7.3-6.1-12.5c1.6-5.2,6.9-8,11.9-6.4l0,0
		c0.1,0,11.6,3.9,28.7,5.7c15.5,1.7,38.9,2.1,62.5-5.8c5-1.7,10.3,1.2,11.9,6.4c1.6,5.2-1.2,10.8-6.2,12.4
		C126.1,138.5,108.8,140.5,93.6,140.5z"/>
	<g>
		<path class="st4" d="M109.9,108.9c-1.5,0-2.6-1.2-2.6-2.6V106c0-1.5,1.2-2.6,2.6-2.6c1.5,0,2.6,1.2,2.6,2.6v0.3
			C112.6,107.7,111.4,108.9,109.9,108.9z"/>
		<path class="st4" d="M101.2,109.6c-1.5,0-2.6-1.2-2.6-2.6v-0.3c0-1.5,1.2-2.6,2.6-2.6s2.6,1.2,2.6,2.6v0.3
			C103.8,108.4,102.6,109.6,101.2,109.6z"/>
		<path class="st4" d="M94.8,102.1c-1.5,0-2.6-1.2-2.6-2.6v-0.3c0-1.5,1.2-2.6,2.6-2.6c1.5,0,2.6,1.2,2.6,2.6v0.3
			C97.4,100.9,96.2,102.1,94.8,102.1z"/>
		<path class="st4" d="M87.5,110.2c-1.5,0-2.6-1.2-2.6-2.6v-0.3c0-1.5,1.2-2.6,2.6-2.6c1.5,0,2.6,1.2,2.6,2.6v0.3
			C90.1,109,88.9,110.2,87.5,110.2z"/>
	</g>
</g>
</svg>
