<?xml version="1.0" encoding="utf-8"?>
<!-- Generator: Adobe Illustrator 19.2.0, SVG Export Plug-In . SVG Version: 6.00 Build 0)  -->
<svg version="1.1" id="Layer_1" xmlns="http://www.w3.org/2000/svg" xmlns:xlink="http://www.w3.org/1999/xlink" x="0px" y="0px"
	 viewBox="0 0 200 200" style="enable-background:new 0 0 200 200;" xml:space="preserve">
<style type="text/css">
	.st0{fill:none;}
	.st1{fill:#E2E2E2;}
	.st2{fill:#F3715B;}
	.st3{fill:#F15640;}
	.st4{fill:#425A6C;}
	.st5{fill:#FFFFFF;}
	.st6{font-family:'MyriadPro-Bold';}
	.st7{font-size:20.3915px;}
	.st8{fill:#CED6E0;}
	.st9{fill:#F3F3F3;}
</style>
<g id="Layer_58">
	<g>
		<path class="st0" d="M113.3,123.8c-0.9-9.9-2.6-19.9-5.1-29.8c-0.6-2.8-3.1-4.5-6-4.5H16.5c-2.8,0-5.4,2-6,4.5
			c-2.6,9.9-4.3,19.9-5.1,29.8c-1.1,12.8-1.1,25.6,0,38.3c0.6,6.2,1.4,12.5,2.8,19c1.7,8.8,9.7,15.3,18.7,15.3h65.3
			c9.1,0,17-6.5,18.7-15.3c1.1-6.2,2.3-12.5,2.8-19C114.7,149.3,114.7,136.6,113.3,123.8z"/>
		<rect x="23" y="78.9" class="st1" width="72.7" height="10.5"/>
		<path class="st2" d="M97.1,60.2H21.6c-3.1,0-5.7,2.6-5.7,5.7V79h86.9V65.9C102.8,62.7,100.3,60.2,97.1,60.2z"/>
		<g>
			<rect x="33.3" y="62.4" class="st3" width="3.4" height="14.5"/>
			<rect x="49.4" y="62.4" class="st3" width="3.1" height="14.5"/>
			<rect x="65.9" y="62.4" class="st3" width="3.4" height="14.5"/>
			<rect x="82.4" y="62.4" class="st3" width="3.4" height="14.5"/>
		</g>
		<path class="st4" d="M113.3,123.8H78.4c-4.3-7.7-11.4-12.5-19-12.5s-14.8,4.8-19,12.5h-35c-1.1,12.8-1.1,25.6,0,38.3h34.9
			c4.3,7.7,11.4,12.5,19,12.5s14.8-4.8,19-12.5h34.9C114.7,149.3,114.7,136.6,113.3,123.8z"/>
		<text transform="matrix(1 0 0 1 38.334 149.6901)" class="st5 st6 st7">SALT</text>
		<rect x="23" y="78.9" class="st8" width="72.7" height="4.3"/>
	</g>
	<g>
		<path class="st9" d="M195.3,123c-0.9-9.9-2.6-19.9-5.1-29.8c-0.6-2.8-3.1-4.5-6-4.5H98.4c-2.8,0-5.4,2-6,4.5
			c-2.6,9.9-4.3,19.9-5.1,29.8c-1.1,12.8-1.1,25.6,0,38.3c0.6,6.2,1.4,12.5,2.8,19c1.7,8.8,9.7,15.3,18.7,15.3h65.3
			c9.1,0,17-6.5,18.7-15.3c1.1-6.2,2.3-12.5,2.8-19C196.7,148.6,196.7,135.8,195.3,123z"/>
		<rect x="105" y="78.2" class="st1" width="72.7" height="10.5"/>
		<path class="st2" d="M179.1,59.4h-75.5c-3.1,0-5.7,2.6-5.7,5.7v13.1h86.9V65.1C184.8,62,182.2,59.4,179.1,59.4z"/>
		<g>
			<rect x="115.2" y="61.7" class="st3" width="3.4" height="14.5"/>
			<rect x="131.4" y="61.7" class="st3" width="3.1" height="14.5"/>
			<rect x="147.9" y="61.7" class="st3" width="3.4" height="14.5"/>
			<rect x="164.3" y="61.7" class="st3" width="3.4" height="14.5"/>
		</g>
		<path class="st4" d="M195.3,123h-34.9c-4.3-7.7-11.4-12.5-19-12.5c-7.7,0-14.8,4.8-19,12.5h-35c-1.1,12.8-1.1,25.6,0,38.3h34.9
			c4.3,7.7,11.4,12.5,19,12.5c7.7,0,14.8-4.8,19-12.5h34.9C196.7,148.6,196.7,135.8,195.3,123z"/>
		<rect x="105" y="78.2" class="st8" width="72.7" height="4.3"/>
		<text transform="matrix(1 0 0 1 107.8168 148.6901)" class="st5 st6 st7">Sugar</text>
	</g>
</g>
</svg>
