<?xml version="1.0" encoding="utf-8"?>
<!-- Generator: Adobe Illustrator 19.2.0, SVG Export Plug-In . SVG Version: 6.00 Build 0)  -->
<svg version="1.1" id="Layer_1" xmlns="http://www.w3.org/2000/svg" xmlns:xlink="http://www.w3.org/1999/xlink" x="0px" y="0px"
	 viewBox="0 0 200 200" style="enable-background:new 0 0 200 200;" xml:space="preserve">
<style type="text/css">
	.st0{fill:#FBCB50;}
	.st1{fill:#FBDF95;}
	.st2{fill:#F15A2B;}
	.st3{fill:#F47851;}
	.st4{fill:#BA9739;}
	.st5{fill:#717ABB;}
	.st6{fill:#9095CA;}
	.st7{fill:#5A61AC;}
	.st8{fill:#BF4327;}
</style>
<g id="Layer_21">
	<path class="st0" d="M135.6,200H23.3c-2.3,0-4.2-1.9-4.2-4.2v-54h116.4V200H135.6z"/>
	<rect x="123.1" y="141.8" class="st1" width="12.5" height="58.2"/>
	<path class="st2" d="M131.4,141.8H23.3v-16.6c0-2.3,1.9-4.2,4.2-4.2h99.8c2.3,0,4.2,1.9,4.2,4.2L131.4,141.8L131.4,141.8z"/>
	<path class="st3" d="M127.2,121h-12.5c2.3,0,4.2,1.9,4.2,4.2v16.6h12.5v-16.6C131.4,122.9,129.5,121,127.2,121z"/>
	<rect x="19.2" y="158.4" class="st2" width="33.3" height="24.9"/>
	<g>
		<rect x="98.1" y="154.3" class="st4" width="37.4" height="8.3"/>
		<rect x="106.5" y="170.9" class="st4" width="29.1" height="8.3"/>
	</g>
	<g>
		<rect x="69.1" y="179.2" class="st1" width="8.3" height="8.3"/>
		<rect x="85.7" y="179.2" class="st1" width="8.3" height="8.3"/>
		<rect x="77.4" y="154.3" class="st1" width="8.3" height="16.6"/>
	</g>
	<path class="st5" d="M176.2,200h-40.6v-58.2h-4.2v-16.6c0-2.3-1.9-4.2-4.2-4.2h-24.9V67l9.2-16.6h64.7l9.2,15.9v125L176.2,200z"/>
	<polygon class="st6" points="176.2,50.4 163.7,50.4 173,66.3 173,191.3 163.7,200 176.2,200 185.4,191.3 185.4,66.3 	"/>
	<rect x="114.8" y="25.4" class="st0" width="58.2" height="24.9"/>
	<rect x="160.5" y="25.4" class="st1" width="12.5" height="24.9"/>
	<path class="st5" d="M173,25.4h-58.2V13c0-2.3,1.9-4.2,4.2-4.2h49.9c2.3,0,4.2,1.9,4.2,4.2L173,25.4L173,25.4z"/>
	<path class="st6" d="M173,25.4h-12.5V8.8h8.3c2.3,0,4.2,1.9,4.2,4.2V25.4z"/>
	<path class="st7" d="M143.9,37.9L143.9,37.9c-4.6,0-8.3-3.7-8.3-8.3v-4.2h16.6v4.2C152.2,34.2,148.5,37.9,143.9,37.9z"/>
	<path class="st0" d="M152.2,91.9h-24.9v-8.3c0-4.6,3.7-8.3,8.3-8.3h24.9v8.3C160.5,88.2,156.8,91.9,152.2,91.9z"/>
	<g>
		<rect x="135.6" y="104.4" class="st6" width="16.6" height="8.3"/>
		<rect x="131.4" y="121" class="st6" width="29.1" height="8.3"/>
	</g>
	<path class="st2" d="M35.8,17.1c-3.7,0-7.1,0.8-10.3,2.2c-1.4,3.1-2.2,6.6-2.2,10.3c0,13.8,11.2,24.9,24.9,24.9
		c3.7,0,7.1-0.8,10.3-2.2c1.4-3.1,2.2-6.6,2.2-10.3C60.7,28.3,49.6,17.1,35.8,17.1z"/>
	<path class="st3" d="M35.8,17.1c-3.7,0-7.1,0.8-10.3,2.2c-0.9,2-1.5,4.2-1.9,6.4c1.3-0.2,2.5-0.3,3.8-0.3
		c13.8,0,24.9,11.2,24.9,24.9c0,1.3-0.1,2.6-0.3,3.8c2.3-0.4,4.4-1,6.4-1.9c1.4-3.1,2.2-6.6,2.2-10.3C60.7,28.3,49.6,17.1,35.8,17.1
		z"/>
	<path class="st0" d="M74.6,75.3c2,0,4,0.4,5.7,1.2c0.8,1.7,1.2,3.7,1.2,5.7c0,7.7-6.2,13.9-13.9,13.9c-2,0-4-0.4-5.7-1.2
		c-0.8-1.7-1.2-3.7-1.2-5.7C60.7,81.5,66.9,75.3,74.6,75.3z"/>
	
		<rect x="52.7" y="38.5" transform="matrix(0.7071 -0.7071 0.7071 0.7071 -19.2401 55.0988)" class="st8" width="8.3" height="24.5"/>
</g>
</svg>
