<?xml version="1.0" encoding="utf-8"?>
<!-- Generator: Adobe Illustrator 19.2.0, SVG Export Plug-In . SVG Version: 6.00 Build 0)  -->
<svg version="1.1" id="Layer_1" xmlns="http://www.w3.org/2000/svg" xmlns:xlink="http://www.w3.org/1999/xlink" x="0px" y="0px"
	 viewBox="0 0 200 200" style="enable-background:new 0 0 200 200;" xml:space="preserve">
<style type="text/css">
	.st0{fill:#FFD15D;}
	.st1{fill:#F7B64C;}
	.st2{fill:#F3715B;}
	.st3{fill:#FFFFFF;}
	.st4{fill:#F8DA4A;}
	.st5{fill:#F8E981;}
	.st6{fill:#F0B51D;}
	.st7{fill:#F8D70E;}
	.st8{fill:#EEB04B;}
	.st9{fill:#DC9727;}
	.st10{fill:#82331A;}
	.st11{fill:#944E2B;}
	.st12{fill:#A56941;}
	.st13{fill:#B78456;}
	.st14{fill:#692A14;}
	.st15{fill:#6A8B3B;}
	.st16{fill:#914E2B;}
	.st17{fill:#AF7E56;}
</style>
<g id="Layer_70">
	<path class="st0" d="M171.1,163c-31.9,6.3-76,6.3-107.9,0c-5.7-35.5-5.7-70.7,0-106.2c31.9-6.3,76-6.3,107.9,0
		C176.8,92.4,176.8,127.6,171.1,163z"/>
	<g>
		<polygon class="st1" points="174.4,177.4 174.4,177.4 174.4,177.4 171.1,163 63.2,163 59.9,177.4 59.9,177.4 59.9,177.4 
			59.9,177.4 59.9,177.4 64,181.5 68.2,177.4 68.2,177.4 72.1,181.5 76.3,177.4 76.3,177.4 80.4,181.5 84.3,177.4 84.3,177.4 
			88.5,181.5 92.7,177.4 92.7,177.4 96.8,181.5 100.7,177.4 100.7,177.4 104.9,181.5 109.1,177.4 109.1,177.4 113,181.5 
			117.1,177.4 117.1,177.4 121.3,181.5 125.2,177.4 125.2,177.4 129.4,181.5 133.5,177.4 133.5,177.4 137.4,181.5 141.6,177.4 
			141.6,177.4 145.8,181.5 149.9,177.4 149.9,177.4 153.8,181.5 158,177.4 158,177.4 162.2,181.5 166,177.4 166,177.4 170.2,181.5 
					"/>
		<polygon class="st1" points="170.2,38.4 166,42.6 162.2,38.4 158,42.6 153.8,38.4 149.9,42.6 145.8,38.4 141.6,42.6 137.4,38.4 
			133.5,42.6 129.4,38.4 125.2,42.6 121.3,38.4 117.1,42.6 113,38.4 109.1,42.6 104.9,38.4 100.7,42.6 96.8,38.4 92.7,42.6 
			88.5,38.4 84.3,42.6 80.4,38.4 76.3,42.6 72.1,38.4 68.2,42.6 64,38.4 59.9,42.6 63.2,56.9 171.1,56.9 174.4,42.6 		"/>
	</g>
	
		<ellipse transform="matrix(0.8829 -0.4695 0.4695 0.8829 -37.9384 67.8654)" class="st2" cx="117.1" cy="110" rx="43.5" ry="28.6"/>
	<g>
		<path class="st1" d="M154.7,142.5c-1.2,0-2.1-0.9-2.1-2.1c0-7.2,6-13.1,13.1-13.1c1.2,0,2.1,0.9,2.1,2.1s-0.9,2.1-2.1,2.1
			c-4.8,0-8.6,3.9-8.6,8.6C156.8,141.3,155.9,142.5,154.7,142.5z"/>
		<path class="st1" d="M152.3,79.3c-1.2,0-2.1-0.9-2.1-2.1c0-7.2,6-13.1,13.1-13.1c1.2,0,2.1,0.9,2.1,2.1s-0.9,2.1-2.1,2.1
			c-4.8,0-8.6,3.9-8.6,8.6C154.4,78.4,153.5,79.3,152.3,79.3z"/>
		<path class="st1" d="M123.4,147.5c0-1.2,0.9-2.1,2.1-2.1c7.2,0,13.1,6,13.1,13.1c0,1.2-0.9,2.1-2.1,2.1c-1.2,0-2.1-0.9-2.1-2.1
			c0-4.8-3.9-8.6-8.6-8.6C124.3,149.9,123.4,148.7,123.4,147.5z"/>
		<path class="st1" d="M69.1,93c-1.2,0-2.1-0.9-2.1-2.1c0-7.2,6-13.1,13.1-13.1c1.2,0,2.1,0.9,2.1,2.1S81.3,82,80.1,82
			c-4.8,0-8.6,3.9-8.6,8.6C71.2,91.8,70.3,93,69.1,93z"/>
		<path class="st1" d="M91.2,66.1c0-1.2,0.9-2.1,2.1-2.1c7.2,0,13.1,6,13.1,13.1c0,1.2-0.9,2.1-2.1,2.1s-2.1-0.9-2.1-2.1
			c0-4.8-3.9-8.6-8.6-8.6C92.1,68.5,91.2,67.3,91.2,66.1z"/>
	</g>
	<g>
		<path class="st3" d="M88.8,120.7l4.5,0.3c0,2.4-0.6,4.5-1.8,6c-1.2,1.5-2.7,2.4-5.1,3c-2.7,0.6-5.4,0.3-7.5-0.9
			c-2.4-1.5-3.9-3.6-4.8-6.9s-0.9-6.3,0.6-8.6c1.2-2.4,3.3-3.9,6.3-4.8c2.4-0.6,4.8-0.6,6.9,0.6c1.2,0.6,2.1,1.8,3.3,3.3l-4.2,1.8
			c-0.6-0.9-1.2-1.8-2.1-2.1c-0.9-0.3-2.1-0.6-3-0.3c-1.5,0.3-2.7,1.2-3.3,2.7c-0.6,1.5-0.6,3.3,0,5.7c0.6,2.7,1.8,4.5,3,5.1
			c1.2,0.9,2.7,1.2,4.2,0.6c1.2-0.3,2.1-0.9,2.7-1.8C88.5,123.4,88.8,122.2,88.8,120.7z"/>
		<path class="st3" d="M98.3,126.1L93,105.5l4.2-1.2l2.1,8.1l8.1-2.1l-2.1-8.1l4.2-1.2l5.7,20.6l-4.2,1.2l-2.4-8.9l-8.1,2.1l2.4,8.9
			L98.3,126.1z"/>
		<path class="st3" d="M119.2,120.4l-5.7-20.6l4.2-1.2l5.7,20.6L119.2,120.4z"/>
		<path class="st3" d="M127.3,118.3l-5.7-20.6l6.6-1.8c2.4-0.6,4.2-0.9,5.1-0.9c1.2,0,2.4,0.3,3.6,1.2c1.2,0.9,1.8,2.1,2.4,3.6
			c0.3,1.2,0.3,2.4,0.3,3.3c-0.3,0.9-0.6,1.8-1.2,2.4c-0.6,0.6-1.2,1.2-1.8,1.5c-0.9,0.6-2.4,0.9-4.2,1.5l-2.7,0.6l2.1,7.8
			L127.3,118.3z M126.7,100.1l1.5,6l2.4-0.6c1.5-0.3,2.7-0.9,3.3-1.2c0.6-0.3,0.9-0.9,0.9-1.5c0.3-0.6,0.3-1.2,0-1.8
			c-0.3-0.9-0.6-1.2-1.2-1.8c-0.6-0.3-1.2-0.6-1.8-0.6s-1.5,0.3-3,0.6L126.7,100.1z"/>
		<path class="st3" d="M143.4,106.7l3.9-1.5c0.6,1.2,1.5,2.1,2.4,2.7c0.9,0.3,2.1,0.6,3.3,0c1.2-0.3,2.4-0.9,2.7-1.8
			c0.6-0.9,0.6-1.5,0.6-2.4c0-0.6-0.3-0.9-0.9-1.2c-0.3,0-0.6,0-1.5,0c-0.6,0-1.8,0-3.6,0c-2.4,0-4.2-0.3-5.4-0.9
			c-1.5-0.9-2.7-2.1-3-3.6c-0.3-1.2-0.3-2.1,0-3.3c0.3-1.2,0.9-2.1,2.1-2.7c0.9-0.9,2.4-1.5,3.9-1.8c2.7-0.6,4.8-0.6,6.3,0
			c1.5,0.9,2.7,2.1,3.3,3.9l-4.2,1.2c-0.6-0.9-1.2-1.8-1.8-2.1c-0.6-0.3-1.8-0.3-2.7,0c-1.2,0.3-2.1,0.9-2.7,1.5
			c-0.3,0.3-0.6,0.9-0.3,1.5c0,0.6,0.6,0.9,0.9,1.2c0.6,0.3,2.1,0.3,4.2,0.3c2.1,0,3.9,0,4.8,0.3c1.2,0.3,2.1,0.6,3,1.5
			c0.9,0.6,1.5,1.8,1.8,3s0.3,2.4,0,3.6s-1.2,2.1-2.1,3c-1.2,0.9-2.4,1.5-4.2,2.1c-2.7,0.6-4.8,0.6-6.6-0.3
			C145.8,110.6,144.3,109.1,143.4,106.7z"/>
	</g>
</g>
<g id="Layer_69">
	<g>
		<path class="st4" d="M54.4,170.8c-17.5,0-32.1-10-35.7-25.8c-0.5,1.6-0.8,3.7-0.8,6.4c0,20.2,16.4,33.4,36.5,33.4
			S91,171.6,91,151.4c0-2.7-0.3-4.7-0.8-6.4C86.6,160.9,71.9,170.8,54.4,170.8z"/>
		<path class="st5" d="M91,82.4c0,20.2-16.4,33.4-36.5,33.4S18,102.6,18,82.4s16.4-7,36.5-7S91,62.3,91,82.4z"/>
		<path class="st4" d="M54.4,115.9c-17.5,0-32.1-10-35.7-25.8c-0.5,1.6-0.8,3.7-0.8,6.4c0,20.2,16.4,33.4,36.5,33.4
			S91,116.6,91,96.4c0-2.7-0.3-4.7-0.8-6.4C86.6,105.9,71.9,115.9,54.4,115.9z"/>
		<g>
			<path class="st5" d="M54.4,129.9c-17.5,0-32.1-10-35.7-25.8c-0.5,1.6-0.8,3.7-0.8,6.4c0,20.2,16.4,33.4,36.5,33.4
				S91,130.6,91,110.4c0-2.7-0.3-4.7-0.8-6.4C86.6,119.9,71.9,129.9,54.4,129.9z"/>
		</g>
		<path class="st4" d="M54.4,143.8c-17.5,0-32.1-10-35.7-25.8c-0.5,1.6-0.8,3.7-0.8,6.4c0,20.2,16.4,33.4,36.5,33.4
			S91,144.6,91,124.4c0-2.7-0.3-4.7-0.8-6.4C86.6,133.9,71.9,143.8,54.4,143.8z"/>
		<path class="st5" d="M54.4,157.8c-17.7,0-32.5-10.2-35.8-26.4c-0.5,1.6-0.7,3.5-0.7,6c0,20.2,16.4,33.4,36.5,33.4
			S91,157.6,91,137.4c0-2.5-0.2-4.4-0.7-6C86.9,147.6,72.2,157.8,54.4,157.8z"/>
		<circle class="st6" cx="41" cy="89.5" r="6.1"/>
		<circle class="st7" cx="65.4" cy="99.2" r="3.7"/>
		<circle class="st8" cx="71.5" cy="85.8" r="2.4"/>
		<circle class="st9" cx="52" cy="105.3" r="2.4"/>
		<circle class="st4" cx="27.6" cy="81" r="2.4"/>
		<path class="st4" d="M109.3,167c-0.7-0.5-1.6-0.3-2.1,0.4c-0.8,1.2-1.9,2.9-1.5,3.7s3.5,3.8,5.6,5.7c0.8,0.8,2.2,0.4,2.5-0.6
			l1.3-3.9c0.2-0.7,0-1.4-0.6-1.8L109.3,167z"/>
		<path class="st4" d="M130.2,181.4c0.9-0.4,2-0.2,2.7,0.5c1,0.9,2.2,2.2,1.7,2.8s-4.2,2.9-6.7,4.5c-1.2,0.8-2.8,0.3-3.5-1l-0.6-1.1
			c-0.7-1.3-0.1-2.9,1.2-3.4L130.2,181.4z"/>
		<path class="st4" d="M128.5,158.9h-4.2c-1.8,0-2.9-2-1.9-3.5l2.1-3.1c0.3-0.5,0.8-0.8,1.3-0.9l4.2-1c1.9-0.5,3.4,1.5,2.6,3.2
			l-2.1,4.1C130.2,158.4,129.4,158.9,128.5,158.9z"/>
	</g>
</g>
<g id="Layer_63">
	<path class="st10" d="M91.3,189.9c12-10.5,20.1-23.5,17.5-26.3l-27.7,14.5l-9.9,18C74.1,199.4,82,198,91.3,189.9z"/>
	
		<rect x="89.5" y="188.1" transform="matrix(0.7572 -0.6531 0.6531 0.7572 -101.8595 105.7617)" class="st11" width="3.7" height="3.7"/>
	<path class="st12" d="M74.4,171c-9.2,8.2-9,18.5-3.2,25.1l37.7-32.5C103.8,157.9,86.3,160.4,74.4,171z"/>
	<path class="st11" d="M79.9,177.4c-9.3,8.1-11.7,15.4-8.7,18.7l37.7-32.5C106.3,160.8,91.9,166.9,79.9,177.4z"/>
	<path class="st10" d="M80.8,160.6c-12.2,10.3-29.2,12.9-34.1,7.1l37.7-32.5C90,141.9,90.2,152.7,80.8,160.6z"/>
	<path class="st11" d="M75.2,154.2C63,164.5,49,170.6,46.6,167.7L65,142.4l19.3-7.2C87.1,138.6,84.6,146.2,75.2,154.2z"/>
	<path class="st13" d="M59,134.6c9.4-7.9,19.6-6.2,25.3,0.5l-37.7,32.5C41.7,161.8,46.8,144.9,59,134.6z"/>
	
		<rect x="73.4" y="152.3" transform="matrix(0.7572 -0.6531 0.6531 0.7572 -82.4107 86.5458)" class="st14" width="3.7" height="3.7"/>
	
		<rect x="64.9" y="150.9" transform="matrix(0.7572 -0.6531 0.6531 0.7572 -83.5515 80.6543)" class="st13" width="3.7" height="3.7"/>
	<path class="st12" d="M64.5,141c9.4-8,17-9.3,19.8-5.9l-37.7,32.5C44.2,164.7,52.4,151.4,64.5,141z"/>
</g>
<g id="Layer_66">
	<g>
		<g>
			<path class="st15" d="M187.4,177.8c3.2-8.4,0.5-17.3-7.3-25.1c-7.9-7.9-16.9-10.5-25.4-7.2c5.7,8.8,11.4,7.8,11.4,7.8
				c-6.5,7.7-3.9,14.7-3.4,15.8c1,0.4,8.1,3.1,15.8-3.4C178.4,165.7,177.4,171.9,187.4,177.8z"/>
		</g>
		<path class="st16" d="M178.4,165.7c-7.7,6.5-14.7,3.9-15.8,3.4c-0.4-1-3.1-8.1,3.4-15.8c0,0-4.6,0.8-9.7-5.6
			c-2.6,1.1-5.1,2.8-7.4,5.2c-9.4,9.4-10.6,31.6-5.7,36.6c5.3,5.5,27.1,3.7,36.6-5.7c2.4-2.4,4.2-5,5.3-7.6
			C177.6,170.9,178.4,165.7,178.4,165.7z"/>
		<path class="st17" d="M147.3,191.8c-2.2,0-3.8-0.5-4.9-1.6c-0.4-0.4-0.4-1,0-1.4s1-0.4,1.4,0c0.8,0.8,2.6,1.2,4.9,0.9
			c5.3-0.6,12.6-4.1,15.6-9.1c0.3-0.5,0.9-0.6,1.4-0.3s0.6,0.9,0.3,1.4c-3.5,5.6-11.4,9.4-17,10
			C148.4,191.7,147.8,191.8,147.3,191.8z"/>
		<path class="st17" d="M142.8,190.1c-0.3,0-0.5-0.1-0.7-0.3c-1.3-1.3-1.8-3.6-1.5-6.6c0.6-5.7,4.4-13.6,10-17
			c0.5-0.3,1.1-0.1,1.4,0.3c0.3,0.5,0.1,1.1-0.3,1.4c-4.9,3-8.5,10.3-9.1,15.6c-0.3,2.3,0.1,4.1,0.9,4.9c0.4,0.4,0.4,1,0,1.4
			C143.3,190,143.1,190.1,142.8,190.1z"/>
		<path class="st17" d="M143.2,190.5c-0.3,0-0.5-0.1-0.7-0.3c-0.5-0.5-0.7-1.1-0.6-2c0.2-3.2,4.1-9.9,8.4-13.1
			c0.4-0.3,1.1-0.2,1.4,0.2c0.3,0.4,0.2,1.1-0.2,1.4c-4.8,3.6-8.1,10.9-7.5,12.1c0.4,0.4,0.4,1,0,1.4
			C143.7,190.4,143.4,190.5,143.2,190.5z"/>
	</g>
</g>
</svg>
