<?xml version="1.0" encoding="utf-8"?>
<!-- Generator: Adobe Illustrator 19.2.0, SVG Export Plug-In . SVG Version: 6.00 Build 0)  -->
<svg version="1.1" id="Layer_1" xmlns="http://www.w3.org/2000/svg" xmlns:xlink="http://www.w3.org/1999/xlink" x="0px" y="0px"
	 viewBox="0 0 200 200" style="enable-background:new 0 0 200 200;" xml:space="preserve">
<style type="text/css">
	.st0{fill:#B52E2D;}
	.st1{fill:#E23D3B;}
	.st2{fill:#EE655E;}
	.st3{opacity:0.1;fill:#010101;enable-background:new    ;}
	.st4{fill:#FFFFFF;}
	.st5{fill:#D8C27C;}
	.st6{fill:#E3A137;}
	.st7{fill:#F7B238;}
	.st8{fill:#DA4226;}
	.st9{fill:#F1572F;}
	.st10{fill:#D3D5D7;}
	.st11{fill:#A5703E;}
</style>
<g id="Layer_80">
	<g>
		<rect x="52.5" y="44.7" class="st0" width="30.1" height="18.1"/>
		<path class="st0" d="M64.1,45c-1.5,0-3-0.7-3.9-1.9s-1.3-2.8-0.9-4.3l3.5-14.1c0.6-2.2,2.5-3.8,4.8-3.8s4.3,1.6,4.8,3.8l3.5,14.1
			c0.4,1.5,0,3.1-0.9,4.3S72.6,45,71.1,45H64.1L64.1,45L64.1,45z"/>
	</g>
	<path class="st1" d="M87.5,46.9c0,2.1-1.7,3.8-3.8,3.8H51.4c-2.1,0-3.8-1.7-3.8-3.8v-4.2c0-2.1,1.7-3.8,3.8-3.8h32.4
		c2.1,0,3.8,1.7,3.8,3.8v4.2H87.5z"/>
	<g>
		<rect x="64.5" y="38.9" class="st0" width="5.4" height="11.7"/>
		<rect x="54.8" y="38.9" class="st0" width="5.4" height="11.7"/>
		<rect x="74.3" y="38.9" class="st0" width="5.4" height="11.7"/>
	</g>
	<path class="st2" d="M55.7,193.3c-14.5,0-26.4-11.4-27-25.9c0-0.7,0-1.4,0.1-2.1l14.7-98.7c0.8-5.3,5.3-9.2,10.7-9.2H81
		c5.4,0,9.9,3.9,10.7,9.2l14.7,98.7c0.1,0.7,0.1,1.4,0.1,2.1c-0.6,14.5-12.5,25.9-27,25.9H55.7z"/>
	<polygon class="st1" points="31.4,147.6 103.8,147.6 93.8,80.8 41.4,80.8 	"/>
	<path class="st3" d="M40,167.4c0-0.7,0-1.4,0.1-2.1l14.7-98.7c0.8-5.3,5.3-9.2,10.7-9.2H54.2c-5.4,0-9.9,3.9-10.7,9.2l-14.7,98.7
		c-0.1,0.7-0.1,1.4-0.1,2.1c0.6,14.5,12.5,25.9,27,25.9H67C52.5,193.3,40.6,181.9,40,167.4z"/>
	<g>
		<path class="st0" d="M57.8,158.7H29.7l-0.8,5.4h28.9c1.5,0,2.7-1.2,2.7-2.7C60.6,159.9,59.3,158.7,57.8,158.7z"/>
		<path class="st0" d="M77.2,164.1H68c-1.5,0-2.7-1.2-2.7-2.7s1.2-2.7,2.7-2.7h9.3c1.5,0,2.7,1.2,2.7,2.7S78.7,164.1,77.2,164.1z"/>
	</g>
	<circle class="st4" cx="67.6" cy="114.9" r="20.7"/>
	<g>
		<path class="st5" d="M74.1,113h-13c-1.5,0-2.7-1.2-2.7-2.7s1.2-2.7,2.7-2.7H74c1.5,0,2.7,1.2,2.7,2.7
			C76.8,111.8,75.6,113,74.1,113z"/>
		<path class="st5" d="M68,122.1h-6.9c-1.5,0-2.7-1.2-2.7-2.7s1.2-2.7,2.7-2.7H68c1.5,0,2.7,1.2,2.7,2.7S69.5,122.1,68,122.1z"/>
	</g>
</g>
<g id="Layer_81">
	<polygon class="st6" points="163.4,106.2 163.4,123.7 163.3,123.7 92.8,123.7 92.6,123.7 92.6,106.2 	"/>
	<path class="st7" d="M169.1,92.2V111h-5.6H92.6H87V92.2c0-2.4,2-4.4,4.4-4.4h73.4C167.1,87.8,169.1,89.7,169.1,92.2z"/>
	<g>
		<path class="st6" d="M104,87.8H91.3c-2.4,0-4.4,2-4.4,4.4V111h5.6h7V92.2C99.6,89.7,101.5,87.8,104,87.8z"/>
		<path class="st6" d="M169.1,124.7v61.4c0,1.2-0.3,2.3-0.9,3.2c-1,1.6-2.8,2.6-4.8,2.6H92.8c-3.2,0-5.8-2.6-5.8-5.8v-61.4
			c0-3.2,2.6-5.8,5.8-5.8h70.6c2,0,3.8,1,4.8,2.6C168.7,122.4,169.1,123.5,169.1,124.7z"/>
	</g>
	<path class="st7" d="M169.1,124.7v61.4c0,1.2-0.3,2.3-0.9,3.2h-62.4c-3.7,0-6.7-2.4-6.7-5.4v-57c0-3,3-5.4,6.7-5.4h62.4
		C168.7,122.4,169.1,123.5,169.1,124.7z"/>
	<rect x="87" y="127.8" class="st8" width="82.1" height="55.3"/>
	<rect x="99" y="127.8" class="st9" width="70" height="55.3"/>
	<path class="st6" d="M161.4,155.4c0,9.7-15,17.6-33.4,17.6c-12.4,0-23.2-3.5-29-8.8l0,0c-2.8-2.6-4.4-5.6-4.4-8.7s1.6-6.2,4.4-8.7
		c0.1-0.1,0.1-0.1,0.2-0.2c5.8-5.2,16.5-8.6,28.8-8.6C146.5,137.8,161.4,145.7,161.4,155.4z"/>
	<path class="st7" d="M161.4,155.4c0,9.7-15,17.6-33.4,17.6c-12.4,0-23.2-3.5-29-8.8l0,0v-17.5c0.1-0.1,0.1-0.1,0.2-0.2
		c5.8-5.2,16.5-8.6,28.8-8.6C146.5,137.8,161.4,145.7,161.4,155.4z"/>
	<g>
		<path class="st6" d="M94.5,106.2c-0.7,0-1.3-0.6-1.3-1.3v-11c0-0.7,0.6-1.3,1.3-1.3c0.7,0,1.3,0.6,1.3,1.3v11
			C95.8,105.6,95.2,106.2,94.5,106.2z"/>
		<path class="st6" d="M102.9,106.2c-0.7,0-1.3-0.6-1.3-1.3v-11c0-0.7,0.6-1.3,1.3-1.3c0.7,0,1.3,0.6,1.3,1.3v11
			C104.2,105.6,103.6,106.2,102.9,106.2z"/>
		<path class="st6" d="M111.3,106.2c-0.7,0-1.3-0.6-1.3-1.3v-11c0-0.7,0.6-1.3,1.3-1.3c0.7,0,1.3,0.6,1.3,1.3v11
			C112.6,105.6,112,106.2,111.3,106.2z"/>
		<path class="st6" d="M119.6,106.2c-0.7,0-1.3-0.6-1.3-1.3v-11c0-0.7,0.6-1.3,1.3-1.3c0.7,0,1.3,0.6,1.3,1.3v11
			C121,105.6,120.4,106.2,119.6,106.2z"/>
		<path class="st6" d="M128,106.2c-0.7,0-1.3-0.6-1.3-1.3v-11c0-0.7,0.6-1.3,1.3-1.3s1.3,0.6,1.3,1.3v11
			C129.4,105.6,128.8,106.2,128,106.2z"/>
		<path class="st6" d="M136.4,106.2c-0.7,0-1.3-0.6-1.3-1.3v-11c0-0.7,0.6-1.3,1.3-1.3s1.3,0.6,1.3,1.3v11
			C137.8,105.6,137.2,106.2,136.4,106.2z"/>
		<path class="st6" d="M144.8,106.2c-0.7,0-1.3-0.6-1.3-1.3v-11c0-0.7,0.6-1.3,1.3-1.3s1.3,0.6,1.3,1.3v11
			C146.1,105.6,145.5,106.2,144.8,106.2z"/>
		<path class="st6" d="M153.2,106.2c-0.7,0-1.3-0.6-1.3-1.3v-11c0-0.7,0.6-1.3,1.3-1.3s1.3,0.6,1.3,1.3v11
			C154.5,105.6,153.9,106.2,153.2,106.2z"/>
		<path class="st6" d="M161.6,106.2c-0.7,0-1.3-0.6-1.3-1.3v-11c0-0.7,0.6-1.3,1.3-1.3s1.3,0.6,1.3,1.3v11
			C162.9,105.6,162.3,106.2,161.6,106.2z"/>
	</g>
	<path class="st9" d="M128,165.4c-0.7,0-1.3-0.4-1.6-1.1l-6.8-16.5c-0.4-0.9,0.1-1.9,0.9-2.3c0.9-0.4,1.9,0.1,2.3,0.9L128,159
		l5.2-12.6c0.4-0.9,1.4-1.3,2.3-0.9c0.9,0.4,1.3,1.4,0.9,2.3l-6.8,16.5C129.4,165,128.7,165.4,128,165.4z"/>
	<g>
		<path class="st10" d="M153.2,129.8c-1.2,0-2.2-1-2.2-2.2V121c0-1.2,1-2.2,2.2-2.2s2.2,1,2.2,2.2v6.6
			C155.4,128.8,154.4,129.8,153.2,129.8z"/>
		<path class="st11" d="M153.2,189.3L153.2,189.3c-3.6,0-6.6-3-6.6-6.6v-48.5c0-3.6,3-6.6,6.6-6.6l0,0c3.6,0,6.6,3,6.6,6.6v48.5
			C159.8,186.4,156.8,189.3,153.2,189.3z"/>
		<path class="st10" d="M153.2,140.8L153.2,140.8c-1.2,0-2.2-1-2.2-2.2l0,0c0-1.2,1-2.2,2.2-2.2l0,0c1.2,0,2.2,1,2.2,2.2l0,0
			C155.4,139.8,154.4,140.8,153.2,140.8z"/>
		<path class="st10" d="M153.2,149.6L153.2,149.6c-1.2,0-2.2-1-2.2-2.2l0,0c0-1.2,1-2.2,2.2-2.2l0,0c1.2,0,2.2,1,2.2,2.2l0,0
			C155.4,148.6,154.4,149.6,153.2,149.6z"/>
		<path class="st10" d="M153.2,120.9L153.2,120.9c-7.3,0-13.2-6-13.2-13.2V74.6c0-7.3,6-13.2,13.2-13.2l0,0c7.3,0,13.2,6,13.2,13.2
			v33.1C166.4,115,160.5,120.9,153.2,120.9z"/>
	</g>
</g>
</svg>
