<?xml version="1.0" encoding="utf-8"?>
<!-- Generator: Adobe Illustrator 19.2.0, SVG Export Plug-In . SVG Version: 6.00 Build 0)  -->
<svg version="1.1" id="Layer_1" xmlns="http://www.w3.org/2000/svg" xmlns:xlink="http://www.w3.org/1999/xlink" x="0px" y="0px"
	 viewBox="0 0 200 200" style="enable-background:new 0 0 200 200;" xml:space="preserve">
<style type="text/css">
	.st0{fill:#FECE3C;}
	.st1{fill:#FFF3CF;}
	.st2{fill:#D1E5F1;}
	.st3{fill:#44A4DC;}
	.st4{fill:#354B5D;}
	.st5{fill:#F15624;}
	.st6{fill:#F1D9D0;}
	.st7{fill:#F79876;}
	.st8{fill:#FABAA3;}
</style>
<g id="Layer_102">
	<path class="st0" d="M22.1,49.3L153,180.1c1.2,1.2,3.2,1.2,4.4,0l19.6-19.6c1.2-1.2,1.2-3.2,0-4.4L46.1,25.3
		c-1.2-1.2-3.2-1.2-4.4,0L22.1,44.9C20.9,46.1,20.9,48,22.1,49.3z"/>
	<g>
		
			<rect x="152.1" y="161.7" transform="matrix(0.7072 -0.707 0.707 0.7072 -71.0652 157.9496)" class="st1" width="6.2" height="6.2"/>
		
			<rect x="150.7" y="145.4" transform="matrix(0.7071 -0.7071 0.7071 0.7071 -58.611 155.5177)" class="st1" width="15.4" height="6.2"/>
		
			<rect x="142.9" y="130.1" transform="matrix(0.7071 -0.7071 0.7071 0.7071 -50.9632 143.3328)" class="st1" width="9.3" height="6.2"/>
		
			<rect x="124.5" y="119.2" transform="matrix(0.7071 -0.7071 0.7071 0.7071 -47.7828 129.3195)" class="st1" width="15.4" height="6.2"/>
		
			<rect x="116.7" y="104" transform="matrix(0.7071 -0.7071 0.7071 0.7071 -40.1618 117.1974)" class="st1" width="9.3" height="6.2"/>
		
			<rect x="98.4" y="93.1" transform="matrix(0.7071 -0.7071 0.7071 0.7071 -36.9168 103.2204)" class="st1" width="15.4" height="6.2"/>
		
			<rect x="90.6" y="77.7" transform="matrix(0.7071 -0.7071 0.7071 0.7071 -29.2665 91.0349)" class="st1" width="9.3" height="6.2"/>
		<rect x="46" y="40.7" transform="matrix(0.7071 -0.7071 0.7071 0.7071 -15.2661 50.819)" class="st1" width="15.4" height="6.2"/>
		
			<rect x="72.2" y="66.9" transform="matrix(0.7071 -0.7071 0.7071 0.7071 -26.0921 77.0193)" class="st1" width="15.4" height="6.2"/>
		
			<rect x="64.4" y="51.6" transform="matrix(0.7071 -0.7071 0.7071 0.7071 -18.4443 64.8282)" class="st1" width="9.3" height="6.2"/>
	</g>
	
		<rect x="167.3" y="106.5" transform="matrix(0.7071 -0.7071 0.7071 0.7071 -28.4032 155.4187)" class="st2" width="12.3" height="11"/>
	
		<rect x="120.2" y="9.2" transform="matrix(0.7071 -0.7071 0.7071 0.7071 -10.2429 111.459)" class="st3" width="18.5" height="117.7"/>
	<path class="st4" d="M76.7,19.6L64.8,7.8c-1.2-1.2-1.2-3.2,0-4.4l0,0c1.2-1.2,3.2-1.2,4.4,0L81,15.3L76.7,19.6z"/>
	<polygon class="st2" points="79,11.1 72.5,17.6 80.1,31.8 82.3,34 95.4,20.9 93.2,18.7 	"/>
	<path class="st3" d="M182.6,108.1l-13.1,13.1l15.3,15.3c1.2,1.2,3.2,1.2,4.4,0l8.7-8.7c1.2-1.2,1.2-3.2,0-4.4L182.6,108.1z"/>
	<path class="st4" d="M173,98.5l-4.4-4.4l6.5-6.5L149,61.4l4.4-4.4l28.3,28.3c1.2,1.2,1.2,3.2,0,4.4L173,98.5z"/>
	<polygon class="st5" points="10.9,79.3 8.7,81.4 27.2,110.9 94.8,178.5 107.9,165.4 40.3,97.8 	"/>
	<path class="st6" d="M107.9,165.4l-13.1,13.1l17.4,17.4c1.2,1.2,3.2,1.2,4.4,0l8.7-8.7c1.2-1.2,1.2-3.2,0-4.4L107.9,165.4z"/>
	
		<rect x="101.8" y="179.8" transform="matrix(0.7071 -0.7071 0.7071 0.7071 -97.738 129.8779)" class="st7" width="12.3" height="6.2"/>
	<polygon class="st4" points="10.9,79.3 8.7,81.4 18.8,97.5 26.9,89.4 	"/>
	<polygon class="st8" points="18.8,97.5 26,109 35.9,106.5 38.4,96.6 26.9,89.4 	"/>
</g>
</svg>
