<?xml version="1.0" encoding="utf-8"?>
<!-- Generator: Adobe Illustrator 19.2.0, SVG Export Plug-In . SVG Version: 6.00 Build 0)  -->
<svg version="1.1" id="Layer_1" xmlns="http://www.w3.org/2000/svg" xmlns:xlink="http://www.w3.org/1999/xlink" x="0px" y="0px"
	 viewBox="0 0 200 200" style="enable-background:new 0 0 200 200;" xml:space="preserve">
<style type="text/css">
	.st0{fill:#00AEEF;}
</style>
<g id="Layer_55">
	<g>
		<g>
			<path class="st0" d="M177.3,41.4c-3.7,0-7,2.8-7.5,6.4l-7.9,47.7H40.2l-7.9-47.7c-0.6-3.6-3.9-6.4-7.5-6.4
				c-4.2,0-7.6,3.4-7.6,7.6v112.4c0,6.6,5.1,11.7,11.7,11.7h144.3c6.6,0,11.7-5.1,11.7-11.7V49C184.9,44.8,181.5,41.4,177.3,41.4z
				 M179.5,161.4c0,3.5-2.8,6.3-6.3,6.3H28.9c-3.5,0-6.3-2.8-6.3-6.3V49c0-1.2,1-2.2,2.2-2.2c1,0,2,0.8,2.2,1.9l8.3,50
				c0.2,1.3,1.3,2.3,2.7,2.3h126.2c1.3,0,2.5-1,2.7-2.3l8.3-50c0.2-1,1.2-1.9,2.2-1.9c1.2,0,2.2,1,2.2,2.2L179.5,161.4L179.5,161.4z
				"/>
		</g>
	</g>
	<g>
		<g>
			<path class="st0" d="M28.9,167.7c-1.5,0-2.7,1.2-2.7,2.7v9c0,1.5,1.2,2.7,2.7,2.7s2.7-1.2,2.7-2.7v-9
				C31.6,168.9,30.4,167.7,28.9,167.7z"/>
		</g>
	</g>
	<g>
		<g>
			<path class="st0" d="M173.1,167.7c-1.5,0-2.7,1.2-2.7,2.7v9c0,1.5,1.2,2.7,2.7,2.7s2.7-1.2,2.7-2.7v-9
				C175.8,168.9,174.6,167.7,173.1,167.7z"/>
		</g>
	</g>
	<g>
		<g>
			<path class="st0" d="M184.7,178.4c-0.4-1-1.4-1.7-2.5-1.7H19.8c-1.1,0-2.1,0.7-2.5,1.7s-0.2,2.2,0.6,2.9l9,9
				c0.5,0.5,1.2,0.8,1.9,0.8h144.3c0.7,0,1.4-0.3,1.9-0.8l9-9C184.8,180.6,185.1,179.4,184.7,178.4z M172,185.7H30l-3.6-3.6h149.3
				L172,185.7z"/>
		</g>
	</g>
	<g>
		<g>
			<path class="st0" d="M51.2,106.6l-1.6-8.8l-9-54.1c-0.2-1.5-1.6-2.5-3.1-2.2c-1.5,0.2-2.5,1.6-2.2,3.1l9,54.2l1.6,8.8
				c0.2,1.3,1.4,2.2,2.7,2.2c0.2,0,0.3,0,0.5,0C50.5,109.5,51.5,108.1,51.2,106.6z"/>
		</g>
	</g>
	<g>
		<g>
			<path class="st0" d="M60.2,106.6l-1.6-8.8l-9-54.1c-0.2-1.5-1.6-2.5-3.1-2.2c-1.5,0.2-2.5,1.6-2.2,3.1l9,54.2l1.6,8.8
				c0.2,1.3,1.4,2.2,2.7,2.2c0.2,0,0.3,0,0.5,0C59.5,109.5,60.5,108.1,60.2,106.6z"/>
		</g>
	</g>
	<g>
		<g>
			<path class="st0" d="M69.2,106.6l-1.6-8.8l-9-54.1c-0.2-1.5-1.6-2.5-3.1-2.2c-1.5,0.2-2.5,1.6-2.2,3.1l9,54.2l1.6,8.8
				c0.2,1.3,1.4,2.2,2.7,2.2c0.2,0,0.3,0,0.5,0C68.5,109.5,69.5,108.1,69.2,106.6z"/>
		</g>
	</g>
	<g>
		<g>
			<path class="st0" d="M78.2,106.6l-1.6-8.8l-9-54.1c-0.2-1.5-1.6-2.5-3.1-2.2c-1.5,0.2-2.5,1.6-2.2,3.1l9,54.2l1.6,8.8
				c0.2,1.3,1.4,2.2,2.7,2.2c0.2,0,0.3,0,0.5,0C77.5,109.5,78.5,108.1,78.2,106.6z"/>
		</g>
	</g>
	<g>
		<g>
			<path class="st0" d="M94.6,106.6l-9-36.1c-0.4-1.4-1.8-2.3-3.3-2c-1.4,0.4-2.3,1.8-2,3.3l9,36.1c0.3,1.2,1.4,2.1,2.6,2.1
				c0.2,0,0.4,0,0.7-0.1C94.1,109.5,95,108.1,94.6,106.6z"/>
		</g>
	</g>
	<g>
		<g>
			<path class="st0" d="M103.6,106.6l-9-36.1c-0.4-1.4-1.8-2.3-3.3-2c-1.4,0.4-2.3,1.8-2,3.3l9,36.1c0.3,1.2,1.4,2.1,2.6,2.1
				c0.2,0,0.4,0,0.7-0.1C103.1,109.5,104,108.1,103.6,106.6z"/>
		</g>
	</g>
	<g>
		<g>
			<path class="st0" d="M112.6,106.6l-9-36.1c-0.4-1.4-1.8-2.3-3.3-2c-1.4,0.4-2.3,1.8-2,3.3l9,36.1c0.3,1.2,1.4,2.1,2.6,2.1
				c0.2,0,0.4,0,0.7-0.1C112.1,109.5,113,108.1,112.6,106.6z"/>
		</g>
	</g>
	<g>
		<g>
			<path class="st0" d="M157.7,97.6l-9-36.1c-0.2-0.9-0.9-1.7-1.8-1.9c-0.9-0.3-1.9-0.1-2.6,0.6L131,72.1c-0.8,0.7-1.1,1.8-0.8,2.8
				l4.3,15.1c0.2,0.7,0.7,1.3,1.4,1.7l18,9c0.4,0.2,0.8,0.3,1.2,0.3c0.6,0,1.2-0.2,1.7-0.6C157.6,99.7,158,98.6,157.7,97.6z
				 M139.3,87.4L135.8,75l8.7-7.8l6.5,26L139.3,87.4z"/>
		</g>
	</g>
	<g>
		<g>
			<path class="st0" d="M141.5,97.6l-9-36.1c-0.2-0.9-0.9-1.7-1.8-1.9c-0.9-0.3-1.9-0.1-2.6,0.6l-13.3,11.9
				c-0.8,0.7-1.1,1.8-0.8,2.8l4.3,15.1c0.2,0.7,0.7,1.3,1.4,1.7l18,9c0.4,0.2,0.8,0.3,1.2,0.3c0.6,0,1.2-0.2,1.7-0.6
				C141.4,99.7,141.8,98.6,141.5,97.6z M123.1,87.4L119.6,75l8.7-7.8l6.5,26L123.1,87.4z"/>
		</g>
	</g>
	<g>
		<g>
			<path class="st0" d="M67.6,169.7l-9-36.1c-0.3-1.2-1.4-2-2.6-2h-9c-1.2,0-2.3,0.8-2.6,2l-9,36.1c-0.4,1.4,0.5,2.9,2,3.3
				c1.4,0.4,2.9-0.5,3.3-2l8.5-34H54l8.5,34c0.3,1.2,1.4,2,2.6,2c0.2,0,0.4,0,0.7-0.1C67,172.7,67.9,171.2,67.6,169.7z"/>
		</g>
	</g>
	<g>
		<g>
			<path class="st0" d="M76.6,160.9l-3.6-18c-0.3-1.3-1.4-2.2-2.7-2.2H59.5c-1.5,0-2.7,1.2-2.7,2.7s1.2,2.7,2.7,2.7h8.6l2.5,12.6
				h-5.7c-1.5,0-2.7,1.2-2.7,2.7s1.2,2.7,2.7,2.7h9c0.8,0,1.6-0.4,2.1-1C76.6,162.5,76.8,161.6,76.6,160.9z"/>
		</g>
	</g>
	<g>
		<g>
			<path class="st0" d="M121.7,169.7l-9-36.1c-0.3-1.2-1.4-2-2.6-2h-9c-1.2,0-2.3,0.8-2.6,2l-9,36.1c-0.4,1.4,0.5,2.9,2,3.3
				c1.4,0.4,2.9-0.5,3.3-2l8.5-34h4.8l8.5,34c0.3,1.2,1.4,2,2.6,2c0.2,0,0.4,0,0.7-0.1C121.1,172.7,122,171.2,121.7,169.7z"/>
		</g>
	</g>
	<g>
		<g>
			<path class="st0" d="M130.7,160.9l-3.6-18c-0.3-1.3-1.4-2.2-2.7-2.2h-10.8c-1.5,0-2.7,1.2-2.7,2.7s1.2,2.7,2.7,2.7h8.6l2.5,12.6
				H119c-1.5,0-2.7,1.2-2.7,2.7s1.2,2.7,2.7,2.7h9c0.8,0,1.6-0.4,2.1-1C130.7,162.5,130.9,161.6,130.7,160.9z"/>
		</g>
	</g>
	<g>
		<g>
			<path class="st0" d="M157.7,169.7l-9-36.1c-0.3-1.2-1.4-2-2.6-2h-9c-1.2,0-2.3,0.8-2.6,2l-9,36.1c-0.4,1.4,0.5,2.9,2,3.3
				c1.5,0.4,2.9-0.5,3.3-2l8.5-34h4.8l8.5,34c0.3,1.2,1.4,2,2.6,2c0.2,0,0.4,0,0.7-0.1C157.2,172.7,158.1,171.2,157.7,169.7z"/>
		</g>
	</g>
	<g>
		<g>
			<path class="st0" d="M166.8,160.9l-3.6-18c-0.3-1.3-1.4-2.2-2.7-2.2h-10.8c-1.5,0-2.7,1.2-2.7,2.7s1.2,2.7,2.7,2.7h8.6l2.5,12.6
				h-5.7c-1.5,0-2.7,1.2-2.7,2.7s1.2,2.7,2.7,2.7h9c0.8,0,1.6-0.4,2.1-1C166.7,162.5,166.9,161.6,166.8,160.9z"/>
		</g>
	</g>
	<g>
		<g>
			<path class="st0" d="M182.2,113.6H19.8c-1.5,0-2.7,1.2-2.7,2.7s1.2,2.7,2.7,2.7h162.3c1.5,0,2.7-1.2,2.7-2.7
				C184.9,114.8,183.7,113.6,182.2,113.6z"/>
		</g>
	</g>
</g>
</svg>
