<?xml version="1.0" encoding="utf-8"?>
<!-- Generator: Adobe Illustrator 19.2.0, SVG Export Plug-In . SVG Version: 6.00 Build 0)  -->
<svg version="1.1" id="Layer_1" xmlns="http://www.w3.org/2000/svg" xmlns:xlink="http://www.w3.org/1999/xlink" x="0px" y="0px"
	 viewBox="0 0 200 200" style="enable-background:new 0 0 200 200;" xml:space="preserve">
<style type="text/css">
	.st0{fill:#CDD1D3;}
	.st1{fill:#A2ACB0;}
	.st2{fill:#CD4C4D;}
</style>
<g id="Layer_34">
	<g>
		<g>
			<path class="st0" d="M49.2,186.1h82.4c36.7-15,41.9-52,42.2-86.9c0-1.9-1.6-3.5-3.5-3.5H90.4H10.5c-1.9,0-3.5,1.6-3.5,3.5
				C7.3,134.1,12.5,171.1,49.2,186.1L49.2,186.1z"/>
			<path class="st0" d="M90.4,71.4c-0.9,0-1.8-0.3-2.5-1c-5.4-5.4-8-11.1-8-16.8c0.1-5.6,2.8-10.9,8-15.9c3.9-3.6,5.9-7.4,6-11.1
				c0-3.8-2-7.8-6-11.7c-1.4-1.3-1.4-3.5-0.1-4.9s3.5-1.4,4.9-0.1c5.4,5.3,8.1,11,8.1,16.8c-0.1,5.7-2.8,11.1-8.1,16.1
				c-3.8,3.6-5.8,7.3-5.8,11c-0.1,3.8,1.9,7.8,6,11.9c1.3,1.4,1.3,3.6,0,4.9C92.2,71.1,91.3,71.4,90.4,71.4"/>
			<path class="st0" d="M128.6,71.4c-0.9,0-1.8-0.3-2.5-1c-5.4-5.4-8-11.1-8-16.8c0.1-5.6,2.8-10.9,8-15.9c3.9-3.7,6-7.4,6-11.2
				s-2-7.7-5.9-11.6c-1.4-1.3-1.4-3.5-0.1-4.9s3.5-1.4,4.9-0.1c5.4,5.3,8.1,10.9,8,16.7c-0.1,5.7-2.8,11.1-8.2,16.1
				c-3.8,3.6-5.8,7.3-5.8,11c-0.1,3.8,1.9,7.8,6,11.9c1.3,1.4,1.3,3.6,0,4.9C130.3,71.1,129.5,71.4,128.6,71.4"/>
			<path class="st0" d="M55.6,71.4c-0.9,0-1.8-0.3-2.5-1c-5.4-5.4-8-11.1-8-16.8c0.1-5.6,2.8-10.9,8-15.9c3.9-3.7,6-7.4,6-11.2
				s-2-7.7-5.9-11.6c-1.4-1.3-1.4-3.5-0.1-4.9c1.3-1.4,3.5-1.4,4.9-0.1c5.4,5.3,8.1,10.9,8,16.7c-0.1,5.7-2.8,11.1-8.2,16.1
				C54,46.3,52,50,52,53.7c-0.1,3.8,1.9,7.8,6,11.9c1.3,1.4,1.3,3.6,0,4.9C57.3,71.1,56.5,71.4,55.6,71.4"/>
		</g>
		<path class="st1" d="M69.6,179.1c-0.2,0-0.4,0-0.6,0c-27.6-4.7-42.4-20.6-48-51.5c-0.3-1.9,0.9-3.7,2.8-4c1.9-0.4,3.7,0.9,4,2.8
			c5.1,28,17.8,41.7,42.4,45.9c1.9,0.3,3.2,2.1,2.8,4C72.7,177.9,71.2,179.1,69.6,179.1"/>
		<g>
			<path class="st2" d="M139.1,120c-1.9,0-3.5-1.6-3.5-3.5V95.8c0-1.9,1.6-3.5,3.5-3.5s3.5,1.6,3.5,3.5v20.8
				C142.6,118.5,141,120,139.1,120"/>
			<polygon class="st2" points="149.5,144.5 128.6,144.5 128.6,116.7 139.1,109.7 149.5,116.7 			"/>
		</g>
		<g>
			<path class="st1" d="M173.8,102.7c-0.4,22.3-3.2,45-15.1,62.2c20.4-2.8,36.1-20.2,36.1-41.3v-8.9c0-6.6-5.3-11.9-11.9-11.9
				L173.8,102.7L173.8,102.7z"/>
			<path class="st1" d="M59.1,200H14c-3.8,0-7-3.1-7-7l0,0c0-3.8,3.1-7,7-7h146c3.8,0,7,3.1,7,7l0,0c0,3.8-3.1,7-7,7h-41.7
				l-10.4-3.5H69.6L59.1,200z"/>
		</g>
	</g>
</g>
</svg>
