<?xml version="1.0" encoding="utf-8"?>
<!-- Generator: Adobe Illustrator 19.2.0, SVG Export Plug-In . SVG Version: 6.00 Build 0)  -->
<svg version="1.1" id="Layer_1" xmlns="http://www.w3.org/2000/svg" xmlns:xlink="http://www.w3.org/1999/xlink" x="0px" y="0px"
	 viewBox="0 0 200 200" style="enable-background:new 0 0 200 200;" xml:space="preserve">
<style type="text/css">
	.st0{fill:#FFE1A0;}
	.st1{fill:#F7D291;}
	.st2{fill:#F37F87;}
	.st3{fill:#E6646E;}
	.st4{fill:#B68060;}
	.st5{fill:#F5B97D;}
	.st6{fill:#6F5B65;}
	.st7{fill:#CD916E;}
	.st8{fill:#EBF3FB;}
	.st9{fill:#DEEAF8;}
	.st10{fill:#F8BA49;}
	.st11{fill:#333333;}
</style>
<g id="Layer_79">
	<path class="st0" d="M173.4,120.7l-7.2-9.6c-1.2-1.6-1.8-3.5-1.8-5.4v-6h-50.5v6c0,2-0.6,3.9-1.8,5.4l-7.2,9.6
		c-1.2,1.6-1.8,3.5-1.8,5.4v65.6c0,4,3.2,7.2,7.2,7.2H168c4,0,7.2-3.2,7.2-7.2v-65.6C175.2,124.2,174.5,122.3,173.4,120.7z"/>
	<path class="st1" d="M113.8,99.6v6c0,2-0.6,3.9-1.8,5.4l-7.2,9.6c-1.2,1.6-1.8,3.5-1.8,5.4v65.6c0,4,3.2,7.2,7.2,7.2h21.3
		c-2.8,0-5.1-3.2-5.1-7.2V126c0-2,0.4-3.9,1.3-5.4l5.1-9.6c0.5-1,1.1-2.3,1.4-3.7c0.3-1.3,1.5-2.3,2.9-2.3h27.3v-5.4L113.8,99.6
		L113.8,99.6z"/>
	<rect x="103" y="126.7" class="st2" width="72.2" height="61.4"/>
	<rect x="103" y="126.7" class="st3" width="23.5" height="61.4"/>
	<path class="st2" d="M164.4,87h-50.5c-2,0-3.6,1.6-3.6,3.6v7.2c0,2,1.6,3.6,3.6,3.6h50.5c2,0,3.6-1.6,3.6-3.6v-7.2
		C168,88.6,166.3,87,164.4,87z"/>
	<circle class="st1" cx="139.1" cy="157.4" r="21.7"/>
	<path class="st4" d="M139.1,170L139.1,170c-4,0-7.2-3.2-7.2-7.2l0,0c0-1,0.8-1.8,1.8-1.8h10.8c1,0,1.8,0.8,1.8,1.8l0,0
		C146.3,166.8,143.1,170,139.1,170z"/>
	<path class="st3" d="M130.1,97.8v-7.2c0-2,1.6-3.6,3.6-3.6h-19.9c-2,0-3.6,1.6-3.6,3.6v7.2c0,2,1.6,3.6,3.6,3.6h19.9
		C131.7,101.4,130.1,99.8,130.1,97.8z"/>
	<path class="st5" d="M126.5,139.8c-5.5,3.9-9,10.3-9,17.6s3.6,13.6,9,17.6V139.8z"/>
	<g>
		<path class="st6" d="M133.7,155.6c-0.6,0-1.1-0.3-1.5-0.8c-0.8-1.2-3.4-1.2-4.2,0c-0.6,0.8-1.7,1-2.5,0.5c-0.8-0.6-1-1.7-0.5-2.5
			c1.1-1.6,3-2.6,5.1-2.6s4,1,5.1,2.6c0.6,0.8,0.3,1.9-0.5,2.5C134.4,155.5,134,155.6,133.7,155.6z"/>
		<path class="st6" d="M153.5,155.6c-0.6,0-1.1-0.3-1.5-0.8c-0.8-1.2-3.4-1.2-4.2,0c-0.6,0.8-1.7,1-2.5,0.5c-0.8-0.6-1-1.7-0.5-2.5
			c1.1-1.6,3-2.6,5.1-2.6s4,1,5.1,2.6c0.6,0.8,0.3,1.9-0.5,2.5C154.2,155.5,153.9,155.6,153.5,155.6z"/>
	</g>
	<path class="st7" d="M146,164.6c0.2-0.6,0.3-1.2,0.3-1.8c0-1-0.8-1.8-1.8-1.8h-10.8c-1,0-1.8,0.8-1.8,1.8c0,0.6,0.1,1.2,0.3,1.8
		H146z"/>
	<path class="st6" d="M139.1,135.7c-2.4,0-4.6,0.4-6.7,1.1c-0.3,0.8-0.5,1.6-0.5,2.5c0,4,3.2,7.2,7.2,7.2c2.1,0,4-0.9,5.4-2.4
		c0.7-0.7,0.6-1.9-0.1-2.5c-0.7-0.7-1.9-0.6-2.5,0.1c-0.7,0.8-1.7,1.2-2.7,1.2c-2,0-3.6-1.6-3.6-3.6
		C135.5,137.4,137.1,135.7,139.1,135.7z"/>
	<path class="st8" d="M186.8,156.8l2.5-62.3c0.2-3.7-2.5-7.2-6.3-7.5c-4.2-0.4-7.7,3-7.6,7.2l2.6,62.6c0.1,1.8-0.7,3.5-2.2,4.6
		c-4.7,3.3-7.9,10-7.9,17.7c0,11,6.5,19.9,14.4,19.9s14.4-8.9,14.4-19.9c0-7.7-3.2-14.4-7.9-17.7
		C187.5,160.3,186.7,158.6,186.8,156.8z"/>
	<path class="st9" d="M173.4,179c0-7.7,3.2-14.4,7.9-17.7c1.5-1,2.2-2.8,2.2-4.6l-2.6-62.6c-0.1-3,1.6-5.5,4.2-6.6
		c-0.6-0.3-1.3-0.5-2-0.6c-4.2-0.4-7.7,3-7.6,7.2l2.6,62.6c0.1,1.8-0.7,3.5-2.2,4.6c-4.7,3.3-7.9,10-7.9,17.7
		c0,11,6.5,19.9,14.4,19.9c0.9,0,1.8-0.1,2.7-0.4C178.4,196.8,173.4,188.7,173.4,179z"/>
	<path class="st0" d="M183,87c-4.2-0.4-7.7,3-7.6,7.2l1.8,43.3h10.3l1.8-43C189.5,90.8,186.8,87.4,183,87z"/>
	<path class="st1" d="M185.1,87.6c-0.6-0.3-1.3-0.5-2-0.6c-4.2-0.4-7.7,3-7.6,7.2l1.8,43.3h5.4l-1.8-43.3
		C180.8,91.3,182.5,88.7,185.1,87.6z"/>
</g>
<g id="TINNED">
	<g>
		<g>
			<circle class="st10" cx="108.4" cy="166.6" r="15.7"/>
			<path class="st11" d="M38.7,139.8l-0.2-0.2c-1.8-2.7-4.8-4.3-8-4.3h-1.1c-1.5,0-3,0.3-4.3,1l-9.8,4.9l6.1,8.2
				c1.8,2.4,4.7,3.8,7.7,3.8c2,0,3.8-0.6,5.4-1.7c-0.1,0.7-0.1,1.5-0.1,2.2v1.7h4.5v-1.7c0-5.5,2.2-10.7,6.1-14.6l-3.2-3.2
				C40.6,137.1,39.6,138.4,38.7,139.8z M25.1,146.7l-2.9-3.9l5-2.5c0.7-0.4,1.5-0.5,2.3-0.5h1.1c1.7,0,3.3,0.9,4.3,2.3l1.3,1.9
				l-3.3,3.3C30.7,149.3,26.9,149,25.1,146.7z"/>
			<path class="st11" d="M54.6,88.2c0-9.9-8-17.9-17.9-17.9s-17.9,8-17.9,17.9s8,17.9,17.9,17.9S54.6,98.1,54.6,88.2z M36.7,101.6
				c-7.4,0-13.4-6-13.4-13.4s6-13.4,13.4-13.4s13.4,6,13.4,13.4S44.1,101.6,36.7,101.6z"/>
			<path class="st11" d="M55.1,106.6l7.2-3.6l-0.5-8.1l4.5-6.7l-4.5-6.7l0.5-8.1l-7.2-3.6l-3.6-7.2l-8.1,0.5l-6.7-4.5L30,63.1
				l-8.1-0.5l-3.6,7.2l-7.2,3.6l0.5,8.1l-4.5,6.7l4.5,6.7l-0.5,8.1l7.2,3.6l0.9,1.8H3.1v4.5h4.5v80.7H3.1v4.5h67.2v-4.5h-4.5v-80.7
				h4.5v-4.5H54.2L55.1,106.6z M21.7,103.2l-5.9-2.9l0.4-6.6l-3.7-5.5l3.7-5.5l-0.4-6.6l5.9-2.9l2.9-5.9l6.6,0.4l5.5-3.7l5.5,3.7
				l6.6-0.4l2.9,5.9l5.9,2.9l-0.4,6.6l3.7,5.5l-3.7,5.5l0.4,6.6l-5.9,2.9l-2.5,5.1h-25L21.7,103.2z M12,193.5v-9h40.3V180H12v-53.8
				h49.3V180h-4.5v4.5h4.5v9H12z M61.3,112.8v9H12v-9h9.4H52H61.3z"/>
			<path class="st11" d="M142,139.7v-4.5H74.8v4.5h4.5v53.8h-4.5v4.5H142v-4.5h-4.5v-53.8H142L142,139.7z M83.8,193.5v-9h40.3V180
				H83.8v-26.9h49.3V180h-4.5v4.5h4.5v9H83.8z M133.1,148.7H83.8v-9h49.3V148.7z"/>
			<circle class="st10" cx="36.7" cy="162.1" r="9"/>
		</g>
	</g>
</g>
</svg>
