<?xml version="1.0" encoding="utf-8"?>
<!-- Generator: Adobe Illustrator 19.2.0, SVG Export Plug-In . SVG Version: 6.00 Build 0)  -->
<svg version="1.1" id="Layer_1" xmlns="http://www.w3.org/2000/svg" xmlns:xlink="http://www.w3.org/1999/xlink" x="0px" y="0px"
	 viewBox="0 0 200 200" style="enable-background:new 0 0 200 200;" xml:space="preserve">
<style type="text/css">
	.st0{fill:#DAE7EF;}
	.st1{fill:#4FA8DE;}
	.st2{fill:#FFFFFF;}
	.st3{fill:#213D76;}
	.st4{fill:#226AB4;}
</style>
<g id="Layer_39">
	<g>
		<path class="st0" d="M139.6,141.3c-0.7-8.6-3.2-16.9-6.3-25c-3.8-9.9-3-23.9,2.6-31.2c2.9-3.7,4.2-8.5,4.1-13.2
			c-0.2-30.6-16.8-37.9-21.4-39.3c-1-0.3-1.8-0.9-2.3-1.8c-1-1.8-1.6-4.3-2-6.6c-0.3-2.1-2.2-3.7-4.3-3.5c-1.3,0.1-2.6,0.2-4,0.2
			s-2.7-0.1-4-0.2c-2.2-0.2-4,1.3-4.3,3.5c-0.3,2.3-0.9,4.8-2,6.6c-0.5,0.9-1.3,1.5-2.3,1.8C88.8,34,72.1,41.3,72,71.9
			c0,4.7,1.2,9.5,4.1,13.2c5.7,7.3,6.5,21.3,2.6,31.2c-3.1,8.1-5.6,16.4-6.3,25c-1.2,14.2-2.2,34-0.7,47.3c0,6.3,9.3,11.4,32.4,11.4
			s36.2-5.1,36.2-11.4C141.8,175.3,140.7,155.5,139.6,141.3z"/>
		<path class="st1" d="M72,70.3c0,0.5-0.1,1-0.1,1.5c0,4.7,1.2,9.5,4.1,13.2c5.7,7.3,6.5,21.3,2.6,31.2c-3.1,8.1-5.6,16.4-6.3,25
			c0,0.5-0.1,1-0.1,1.5c8.6,2.3,20.5,3.8,33.7,3.8s25.1-1.5,33.7-3.8c0-0.5-0.1-1-0.1-1.5c-0.7-8.6-3.2-16.9-6.3-25
			c-3.8-9.9-3-23.9,2.6-31.2c2.9-3.7,4.2-8.5,4.1-13.2c0-0.5,0-1-0.1-1.5c-8.6,2.4-20.7,3.9-34,3.9S80.7,72.6,72,70.3z"/>
		<path class="st2" d="M98.6,188c-6.7,0-11.5-1.5-14.3-4.6c-2.4-2.6-2.5-5.5-2.5-6.5v-3.7c0-1.8,1.5-3.3,3.3-3.3s3.3,1.5,3.3,3.3
			v4.2l0,0c0,0,0,0.8,0.9,1.6c1,1,3.8,2.6,11,2.3c1.9-0.1,3.3,1.3,3.4,3.2c0.1,1.8-1.3,3.3-3.2,3.4C99.8,188,99.2,188,98.6,188z"/>
		<path class="st2" d="M85,165.1c-1.8,0-3.3-1.5-3.3-3.3V158c0-1.8,1.5-3.3,3.3-3.3s3.3,1.5,3.3,3.3v3.8
			C88.3,163.7,86.8,165.1,85,165.1z"/>
		<path class="st2" d="M88.8,62.2c-0.2,0-0.4,0-0.6-0.1c-1.8-0.3-3-2-2.7-3.8c2.2-12.2,12.8-17.4,13.2-17.6c1.7-0.8,3.6-0.1,4.4,1.5
			s0.1,3.6-1.5,4.4c-0.2,0.1-8.1,4.1-9.7,12.9C91.8,61,90.4,62.2,88.8,62.2z"/>
		<path class="st3" d="M106,9.3c-5.9,0-10.7,1.6-10.7,3.6v10.7c0,2,4.8,3.6,10.7,3.6s10.7-1.6,10.7-3.6V12.8
			C116.7,10.9,111.9,9.3,106,9.3z"/>
		<path class="st4" d="M105.5,18.6h-2.7c-0.9,0-1.6-0.7-1.6-1.6s0.7-1.6,1.6-1.6h2.7c0.9,0,1.6,0.7,1.6,1.6S106.4,18.6,105.5,18.6z"
			/>
	</g>
</g>
</svg>
